<?xml version="1.0" encoding="UTF-8"?>
<svg version="1.1" xmlns="http://www.w3.org/2000/svg" width="160" height="100">
<path d="M0 0 C52.8 0 105.6 0 160 0 C160 33 160 66 160 100 C107.2 100 54.4 100 0 100 C0 67 0 34 0 0 Z " fill="#FEB900" transform="translate(0,0)"/>
<path d="M0 0 C3.00934044 2.41839735 5.48999006 5.07926116 8 8 C8.70253906 8.69738281 9.40507813 9.39476562 10.12890625 10.11328125 C12.26738748 12.26962036 13.52266161 14.34079091 15 17 C15.41636719 17.7425 15.83273438 18.485 16.26171875 19.25 C19.89711272 25.74995942 21.20369033 29.49900948 21.25 36.9375 C21.270625 37.76185547 21.29125 38.58621094 21.3125 39.43554688 C21.32023437 40.62567383 21.32023437 40.62567383 21.328125 41.83984375 C21.3374707 42.56550537 21.34681641 43.29116699 21.35644531 44.03881836 C20.9012821 46.5431513 19.87353312 47.3415257 18 49 C17.505 49.99 17.505 49.99 17 51 C15.68 51 14.36 51 13 51 C12.773125 51.70125 12.54625 52.4025 12.3125 53.125 C9.27495644 59.77866684 9.27495644 59.77866684 6 62 C1.69919426 63.10129856 -2.58138093 63.6247732 -7 64 C-6.979375 64.94875 -6.95875 65.8975 -6.9375 66.875 C-7 70 -7 70 -8 72 C-10.25 72.3125 -10.25 72.3125 -13 72 C-15 69.8125 -15 69.8125 -17 67 C-19.55403901 64.38047281 -22.16740347 61.84003669 -24.8125 59.3125 C-27 57 -27 57 -27 55 C-28.14597656 55.05800781 -29.29195312 55.11601563 -30.47265625 55.17578125 C-44.27699567 55.66949868 -44.27699567 55.66949868 -48.4375 52.8125 C-50.8219842 50.19538319 -52.12377243 48.40755167 -53 45 C-54.051875 44.9175 -55.10375 44.835 -56.1875 44.75 C-60.4114727 43.91905455 -62.10224898 43.14612967 -65 40 C-66.1875 36.75 -66.1875 36.75 -67 33 C-67.20753906 32.36835937 -67.41507813 31.73671875 -67.62890625 31.0859375 C-69.34696977 25.66161118 -69.24121963 21.26730217 -67 16 C-61.26515966 6.48571017 -52.90825518 0.18065889 -42.25 -2.875 C-29.0231074 -6.08028993 -12.31475453 -6.60929487 0 0 Z " fill="#494027" transform="translate(104,18)"/>
<path d="M0 0 C3.875 0.875 3.875 0.875 5 2 C4.61140641 5.49734228 4.11403913 8.65788261 3 12 C4.485 12.99 4.485 12.99 6 14 C6.1875 17.625 6.1875 17.625 6 21 C6.66 21 7.32 21 8 21 C7.9175 19.96875 7.835 18.9375 7.75 17.875 C8.04377744 13.32144972 9.00319941 11.40177364 12 8 C15.02578655 6.78968538 16.29445156 6.71396685 19.3125 7.9375 C19.869375 8.288125 20.42625 8.63875 21 9 C21 9.66 21 10.32 21 11 C21.63474075 12.34882408 22.29848848 13.6846659 23 15 C20.69 14.67 18.38 14.34 16 14 C16 13.01 16 12.02 16 11 C15.34 11 14.68 11 14 11 C14.185625 11.78375 14.37125 12.5675 14.5625 13.375 C15 16 15 16 14 18 C14.969375 17.814375 15.93875 17.62875 16.9375 17.4375 C18.4534375 17.2209375 18.4534375 17.2209375 20 17 C21 18 21 18 21.0625 20.5625 C21.041875 21.366875 21.02125 22.17125 21 23 C21.66 23 22.32 23 23 23 C22.505 20.03 22.505 20.03 22 17 C25.13498292 15.14223235 27.37471432 14.79859524 31 15 C31.28875 15.804375 31.5775 16.60875 31.875 17.4375 C32.73262568 20.1326468 32.73262568 20.1326468 35 21 C34.34 21 33.68 21 33 21 C33.5259375 21.8353125 33.5259375 21.8353125 34.0625 22.6875 C35.25853552 25.63772095 35.06958635 27.02043802 34 30 C32.67732273 31.01405257 31.34275169 32.01268258 30 33 C28.93753473 34.96752828 27.92862192 36.96587579 27 39 C26.67 39.33 26.34 39.66 26 40 C28.34058637 37.87219421 29.70700306 35.88437779 31 33 C34.875 34.75 34.875 34.75 36 37 C36 39.66666667 36 42.33333333 36 45 C36.33 45.66 36.66 46.32 37 47 C35.0625 46.1875 35.0625 46.1875 33 45 C32.67 44.01 32.34 43.02 32 42 C31.14631836 42.49113281 31.14631836 42.49113281 30.27539062 42.9921875 C27.79454303 44.09100069 26.28389292 44.20827184 23.59375 44.125 C22.76746094 44.10953125 21.94117188 44.0940625 21.08984375 44.078125 C18.5 44 18.5 44 15.91015625 43.921875 C15.08386719 43.90640625 14.25757813 43.8909375 13.40625 43.875 C12.28186523 43.84019531 12.28186523 43.84019531 11.13476562 43.8046875 C8.67659731 44.02958854 7.1694521 44.85795543 5 46 C2.67504723 46.38749213 0.34148732 46.72982839 -2 47 C0.22937548 47.10159191 0.22937548 47.10159191 3.125 46 C7.49170152 44.86998482 11.82665248 44.77413368 16.3125 44.75 C17.01842285 44.74097656 17.7243457 44.73195312 18.45166016 44.72265625 C22.17829041 44.74409934 23.82260041 44.88173361 27 47 C22.00276059 50.33149294 17.95786311 50.13840036 12.05078125 49.9765625 C7.19873191 50.01383817 2.36560455 50.81719772 -2 53 C-5.5 53.1875 -5.5 53.1875 -9 53 C-9.66 52.34 -10.32 51.68 -11 51 C-9.02 51 -7.04 51 -5 51 C-5.825 50.608125 -6.65 50.21625 -7.5 49.8125 C-8.325 49.214375 -9.15 48.61625 -10 48 C-10.3125 45.3125 -10.3125 45.3125 -10 43 C-5.125 42 -5.125 42 -4 42 C-4 41.34 -4 40.68 -4 40 C-1.36 39.67 1.28 39.34 4 39 C4 38.67 4 38.34 4 38 C5.37446232 37.8289558 6.74960949 37.66341273 8.125 37.5 C8.89070313 37.4071875 9.65640625 37.314375 10.4453125 37.21875 C13 37 13 37 16.046875 37.25 C19.1219799 37.28832533 19.1219799 37.28832533 21.1953125 35.03125 C22.15050781 33.77828125 22.15050781 33.77828125 23.125 32.5 C25.0703125 29.96875 25.0703125 29.96875 27 28 C28.32 28 29.64 28 31 28 C31 27.34 31 26.68 31 26 C29.68 25.67 28.36 25.34 27 25 C26.608125 25.886875 26.21625 26.77375 25.8125 27.6875 C23.84266751 31.28753868 22.20060242 33.42816531 19 36 C15.3359375 36.3828125 15.3359375 36.3828125 11.375 36.125 C6.39665029 35.5060311 6.39665029 35.5060311 2.1953125 37.5234375 C1.80085938 38.01070312 1.40640625 38.49796875 1 39 C-0.66666667 38.66666667 -2.33333333 38.33333333 -4 38 C-4.474375 38.495 -4.94875 38.99 -5.4375 39.5 C-5.953125 39.995 -6.46875 40.49 -7 41 C-10.1875 40.6875 -10.1875 40.6875 -13 40 C-13 40.66 -13 41.32 -13 42 C-12.34 42 -11.68 42 -11 42 C-11.020625 42.94875 -11.04125 43.8975 -11.0625 44.875 C-11.22551826 47.90666283 -11.22551826 47.90666283 -10 50 C-12.25 50.375 -12.25 50.375 -15 50 C-17.47689947 47.1971927 -18.93540882 45.29182369 -19.125 41.5 C-17.46693752 37.81541672 -15.4818973 35.12782613 -12 33 C-8.92914988 32.5148657 -6.0789465 32.63052642 -3 33 C-3 33.66 -3 34.32 -3 35 C-2.34 35 -1.68 35 -1 35 C-1 33.68 -1 32.36 -1 31 C4.67989374 28.50881854 7.94474232 27.61233678 14 29 C15.390117 26.09123087 15.390117 26.09123087 16 23 C14.68 24.32 13.36 25.64 12 27 C9.525 26.01 9.525 26.01 7 25 C7 24.34 7 23.68 7 23 C6.34 23 5.68 23 5 23 C5.66 24.32 6.32 25.64 7 27 C6 28 6 28 3.5625 28.1875 C1 28 1 28 -1 26 C-0.67 27.32 -0.34 28.64 0 30 C-3.21451269 31.60725635 -6.43612536 31.05748185 -10 31 C-10.66 28.03 -11.32 25.06 -12 22 C-12.33 22 -12.66 22 -13 22 C-12.34 25.3 -11.68 28.6 -11 32 C-15 33 -15 33 -16.921875 32.00390625 C-17.52515625 31.52824219 -18.1284375 31.05257812 -18.75 30.5625 C-19.36359375 30.08941406 -19.9771875 29.61632812 -20.609375 29.12890625 C-21.06828125 28.75636719 -21.5271875 28.38382813 -22 28 C-19.09197539 30.21928194 -17.04687238 31.92969143 -15 35 C-16.65 36.32 -18.3 37.64 -20 39 C-23.465 37.515 -23.465 37.515 -27 36 C-26.01 35.505 -26.01 35.505 -25 35 C-25 31.7 -25 28.4 -25 25 C-25.99 24.67 -26.98 24.34 -28 24 C-27.34 23.67 -26.68 23.34 -26 23 C-25.74286225 21.00718243 -25.49163848 19.01170139 -25.34375 17.0078125 C-25 15 -25 15 -23 12 C-22.34 12.33 -21.68 12.66 -21 13 C-21.99 14.485 -21.99 14.485 -23 16 C-22.2884375 16.6496875 -22.2884375 16.6496875 -21.5625 17.3125 C-20 19 -20 19 -19 22 C-19.99 22.66 -20.98 23.32 -22 24 C-18.63279613 22.60667426 -17.0140476 21.0210714 -15 18 C-12.69 18.33 -10.38 18.66 -8 19 C-8 20.98 -8 22.96 -8 25 C-7.34 25 -6.68 25 -6 25 C-6.33 22.69 -6.66 20.38 -7 18 C-8.134375 17.87625 -9.26875 17.7525 -10.4375 17.625 C-11.613125 17.41875 -12.78875 17.2125 -14 17 C-14.33 16.34 -14.66 15.68 -15 15 C-14.67 14.01 -14.34 13.02 -14 12 C-14.66 12 -15.32 12 -16 12 C-16 10.35 -16 8.7 -16 7 C-16.598125 7.495 -17.19625 7.99 -17.8125 8.5 C-20 10 -20 10 -23 10 C-23 9.01 -23 8.02 -23 7 C-20.03 6.01 -17.06 5.02 -14 4 C-14 4.99 -14 5.98 -14 7 C-11.03 7 -8.06 7 -5 7 C-5.66 8.65 -6.32 10.3 -7 12 C-8.32 11.67 -9.64 11.34 -11 11 C-9.68 11.99 -8.36 12.98 -7 14 C-4.3205743 10.28337726 -2.7311792 7.50893838 -2 3 C-1.34 2.01 -0.68 1.02 0 0 Z " fill="#939393" transform="translate(71,16)"/>
<path d="M0 0 C0.33 0.99 0.66 1.98 1 3 C1.78375 2.505 2.5675 2.01 3.375 1.5 C6 0 6 0 8 0 C8.33 0.99 8.66 1.98 9 3 C8.67 3.66 8.34 4.32 8 5 C8.66 5 9.32 5 10 5 C10 6.32 10 7.64 10 9 C12.31 9.66 14.62 10.32 17 11 C17.33 13.31 17.66 15.62 18 18 C17.34 18 16.68 18 16 18 C16 16.02 16 14.04 16 12 C12.71073505 11.49803706 12.71073505 11.49803706 9 12 C6.8596502 13.81188028 5.61011698 15.65801167 4 18 C2.68 17.67 1.36 17.34 0 17 C1.32 16.01 2.64 15.02 4 14 C3.73323796 12.01508358 3.73323796 12.01508358 3 10 C2.01 9.67 1.02 9.34 0 9 C0.33 8.01 0.66 7.02 1 6 C0.5247412 7.64696604 0.04468109 9.29254728 -0.4375 10.9375 C-0.70433594 11.85402344 -0.97117187 12.77054688 -1.24609375 13.71484375 C-2 16 -2 16 -3 17 C-2.34 17.33 -1.68 17.66 -1 18 C-0.29396596 21.74198039 0 25.18792739 0 29 C2.475 29.99 2.475 29.99 5 31 C5.99 29.68 6.98 28.36 8 27 C5.69 25.35 3.38 23.7 1 22 C1.33 21.34 1.66 20.68 2 20 C2.45890625 20.3609375 2.9178125 20.721875 3.390625 21.09375 C4.31101562 21.78984375 4.31101562 21.78984375 5.25 22.5 C5.85328125 22.9640625 6.4565625 23.428125 7.078125 23.90625 C9.21085595 25.32974419 9.21085595 25.32974419 13 25 C12.01 21.04 11.02 17.08 10 13 C13 15 13 15 13.51171875 17.1640625 C13.67447917 19.44270833 13.83723958 21.72135417 14 24 C17.3 23.67 20.6 23.34 24 23 C23.01 21.02 22.02 19.04 21 17 C22.32 17.66 23.64 18.32 25 19 C25 19.66 25 20.32 25 21 C26.65 20.67 28.3 20.34 30 20 C29.505 18.02 29.505 18.02 29 16 C29.66 16 30.32 16 31 16 C31.495 16.99 31.495 16.99 32 18 C34.52733235 18.65555119 34.52733235 18.65555119 37 19 C37.99 17.35 38.98 15.7 40 14 C40.66 14.33 41.32 14.66 42 15 C40.66666667 17.66666667 39.33333333 20.33333333 38 23 C36.515 22.690625 36.515 22.690625 35 22.375 C30.62162112 21.72137698 27.20652588 22.74542211 23 24 C23 25.32 23 26.64 23 28 C22.34 28 21.68 28 21 28 C21 27.34 21 26.68 21 26 C16.92206699 25.93656549 13.37611645 25.96245188 10.03125 28.484375 C8.3923984 30.2932961 7.05109792 31.79269436 6 34 C6.4065769 36.97970743 7.58640274 39.36128512 9 42 C10.32 42 11.64 42 13 42 C12.814375 41.21625 12.62875 40.4325 12.4375 39.625 C12 37 12 37 13 35 C12.34 35 11.68 35 11 35 C11 34.34 11 33.68 11 33 C13.64 33 16.28 33 19 33 C19.33 32.01 19.66 31.02 20 30 C21.65 30.33 23.3 30.66 25 31 C25.66 29.35 26.32 27.7 27 26 C27.495 27.485 27.495 27.485 28 29 C37.0289535 29.38148921 37.0289535 29.38148921 45.26171875 26.515625 C47.7371849 23.59744325 49.32874407 20.42569654 51 17 C52.32 17.66 53.64 18.32 55 19 C55 19.66 55 20.32 55 21 C54.41605469 21.0825 53.83210938 21.165 53.23046875 21.25 C50.33660461 22.22306815 49.23987859 23.65871582 47.3125 26 C46.71050781 26.721875 46.10851562 27.44375 45.48828125 28.1875 C44.99714844 28.785625 44.50601563 29.38375 44 30 C43.505 30.495 43.505 30.495 43 31 C41.04424959 31 39.08840903 30.99718882 37.1328125 30.97265625 C33.22087793 31.02280926 29.69597318 31.76800894 26 33 C24.00038436 33.03920815 21.99950636 33.04443347 20 33 C20.495 35.475 20.495 35.475 21 38 C20.34 37.34 19.68 36.68 19 36 C17.68 36 16.36 36 15 36 C14.58219121 38.37305578 14.58219121 38.37305578 15 41 C17.40858714 42.8624438 17.40858714 42.8624438 20 44 C19.01 44.495 19.01 44.495 18 45 C21.28558322 44.49452566 24.38476331 43.88796968 27.58203125 42.95703125 C36.06658615 41.05217651 45.09903085 41.92901962 53.73632812 42.11645508 C56.14191923 42.16478594 58.54722467 42.19459548 60.953125 42.22265625 C61.68654114 42.24441422 62.41995728 42.26617218 63.17559814 42.28858948 C67.65933375 42.33192716 70.39003809 41.68628828 74 39 C73.67 40.65 73.34 42.3 73 44 C72.21625 44.0825 71.4325 44.165 70.625 44.25 C67.85250896 44.72806339 67.85250896 44.72806339 66.6875 47.0625 C66.460625 47.701875 66.23375 48.34125 66 49 C65.505 47.02 65.505 47.02 65 45 C64.67 46.65 64.34 48.3 64 50 C63 47 63 47 63 45 C51.3725619 43.78313295 51.3725619 43.78313295 40 46 C40 45.34 40 44.68 40 44 C38.35 44 36.7 44 35 44 C36.29144978 46.99992729 36.29144978 46.99992729 38 50 C38.99 50.33 39.98 50.66 41 51 C41 51.99 41 52.98 41 54 C43.56314499 54.08132187 46.12368418 54.14064175 48.6875 54.1875 C49.7693457 54.22520508 49.7693457 54.22520508 50.87304688 54.26367188 C55.47589338 54.32672457 58.30307233 53.77816458 62 51 C62.33 51.99 62.66 52.98 63 54 C58.97798093 55.94613826 55.38230422 56.32966146 50.98828125 56.55859375 C48.60164944 56.84779901 48.60164944 56.84779901 47 60 C47 59.01 47 58.02 47 57 C46.01 57 45.02 57 44 57 C44.33 57.99 44.66 58.98 45 60 C44.34 60 43.68 60 43 60 C41.61767557 58.37373596 40.28062485 56.7074998 39 55 C38.505 55.99 38.505 55.99 38 57 C37.360625 55.865625 36.72125 54.73125 36.0625 53.5625 C33.48626637 50.47966887 32.15057827 50.02245862 28.09765625 49.41796875 C25.09766443 49.2612851 22.09701579 49.21967867 19.09375 49.16015625 C13.52853903 49.03035174 9.015258 48.07823481 5 43.9375 C4 42 4 42 4 40 C2.948125 39.9175 1.89625 39.835 0.8125 39.75 C-3.4114727 38.91905455 -5.10224898 38.14612967 -8 35 C-9.1875 31.75 -9.1875 31.75 -10 28 C-10.20753906 27.36835937 -10.41507813 26.73671875 -10.62890625 26.0859375 C-12.3385614 20.68815836 -12.28133052 16.23162261 -10 11 C-3.93603412 1.96801706 -3.93603412 1.96801706 0 0 Z " fill="#A67900" transform="translate(47,23)"/>
<path d="M0 0 C3.875 0.875 3.875 0.875 5 2 C4.61140641 5.49734228 4.11403913 8.65788261 3 12 C4.485 12.99 4.485 12.99 6 14 C6.29296875 16.49609375 6.29296875 16.49609375 6.1875 19.4375 C6.14689453 20.88962891 6.14689453 20.88962891 6.10546875 22.37109375 C6.07066406 23.23863281 6.03585938 24.10617188 6 25 C6 25.99 6 26.98 6 28 C3.625 28.125 3.625 28.125 1 28 C0.34 27.34 -0.32 26.68 -1 26 C-0.67 27.32 -0.34 28.64 0 30 C-3.21451269 31.60725635 -6.43612536 31.05748185 -10 31 C-10.66 28.03 -11.32 25.06 -12 22 C-12.33 22 -12.66 22 -13 22 C-12.34 25.3 -11.68 28.6 -11 32 C-15 33 -15 33 -16.921875 32.00390625 C-17.52515625 31.52824219 -18.1284375 31.05257812 -18.75 30.5625 C-19.36359375 30.08941406 -19.9771875 29.61632812 -20.609375 29.12890625 C-21.06828125 28.75636719 -21.5271875 28.38382813 -22 28 C-19.09197539 30.21928194 -17.04687238 31.92969143 -15 35 C-16.65 36.32 -18.3 37.64 -20 39 C-23.465 37.515 -23.465 37.515 -27 36 C-26.01 35.505 -26.01 35.505 -25 35 C-25 31.7 -25 28.4 -25 25 C-25.99 24.67 -26.98 24.34 -28 24 C-27.34 23.67 -26.68 23.34 -26 23 C-25.74286225 21.00718243 -25.49163848 19.01170139 -25.34375 17.0078125 C-25 15 -25 15 -23 12 C-22.34 12.33 -21.68 12.66 -21 13 C-21.99 14.485 -21.99 14.485 -23 16 C-22.2884375 16.6496875 -22.2884375 16.6496875 -21.5625 17.3125 C-20 19 -20 19 -19 22 C-19.99 22.66 -20.98 23.32 -22 24 C-18.63279613 22.60667426 -17.0140476 21.0210714 -15 18 C-12.69 18.33 -10.38 18.66 -8 19 C-8 20.98 -8 22.96 -8 25 C-7.34 25 -6.68 25 -6 25 C-6.33 22.69 -6.66 20.38 -7 18 C-8.134375 17.87625 -9.26875 17.7525 -10.4375 17.625 C-11.613125 17.41875 -12.78875 17.2125 -14 17 C-14.33 16.34 -14.66 15.68 -15 15 C-14.67 14.01 -14.34 13.02 -14 12 C-14.66 12 -15.32 12 -16 12 C-16 10.35 -16 8.7 -16 7 C-16.598125 7.495 -17.19625 7.99 -17.8125 8.5 C-20 10 -20 10 -23 10 C-23 9.01 -23 8.02 -23 7 C-20.03 6.01 -17.06 5.02 -14 4 C-14 4.99 -14 5.98 -14 7 C-11.03 7 -8.06 7 -5 7 C-5.66 8.65 -6.32 10.3 -7 12 C-8.32 11.67 -9.64 11.34 -11 11 C-9.68 11.99 -8.36 12.98 -7 14 C-4.3205743 10.28337726 -2.7311792 7.50893838 -2 3 C-1.34 2.01 -0.68 1.02 0 0 Z " fill="#858585" transform="translate(71,16)"/>
<path d="M0 0 C0.6875 1.8125 0.6875 1.8125 1 4 C-0.375 5.625 -0.375 5.625 -2 7 C-2.33 7.66 -2.66 8.32 -3 9 C-4.32 9 -5.64 9 -7 9 C-7.226875 9.70125 -7.45375 10.4025 -7.6875 11.125 C-10.72504356 17.77866684 -10.72504356 17.77866684 -14 20 C-18.30080574 21.10129856 -22.58138093 21.6247732 -27 22 C-26.979375 22.94875 -26.95875 23.8975 -26.9375 24.875 C-27 28 -27 28 -28 30 C-30.25 30.3125 -30.25 30.3125 -33 30 C-35 27.8125 -35 27.8125 -37 25 C-39.55403901 22.38047281 -42.16740347 19.84003669 -44.8125 17.3125 C-47 15 -47 15 -47 13 C-48.78857422 13.05220703 -48.78857422 13.05220703 -50.61328125 13.10546875 C-52.17967342 13.13360753 -53.74608081 13.1609076 -55.3125 13.1875 C-56.09818359 13.21263672 -56.88386719 13.23777344 -57.69335938 13.26367188 C-58.45068359 13.27333984 -59.20800781 13.28300781 -59.98828125 13.29296875 C-60.68477783 13.3086792 -61.38127441 13.32438965 -62.09887695 13.34057617 C-64.54489783 12.90238443 -65.42702086 11.86562642 -67 10 C-66.34902344 10.16242188 -65.69804688 10.32484375 -65.02734375 10.4921875 C-61.92996043 11.01174857 -58.95278636 11.06257562 -55.81811523 11.08813477 C-46.13681044 11.24636369 -46.13681044 11.24636369 -42.5546875 13.62109375 C-40.9375 15.5625 -40.9375 15.5625 -39 19 C-39 18.34 -39 17.68 -39 17 C-38.01 17.33 -37.02 17.66 -36 18 C-34.8125 20.5625 -34.8125 20.5625 -34 23 C-34 21.68 -34 20.36 -34 19 C-33.195625 19.185625 -32.39125 19.37125 -31.5625 19.5625 C-30.716875 19.706875 -29.87125 19.85125 -29 20 C-28.505 19.505 -28.505 19.505 -28 19 C-25.81980521 18.60333773 -23.6303537 18.25684763 -21.4375 17.9375 C-20.23996094 17.76089844 -19.04242188 17.58429688 -17.80859375 17.40234375 C-16.41833984 17.20318359 -16.41833984 17.20318359 -15 17 C-15.495 16.01 -15.495 16.01 -16 15 C-16.52464844 15.48984375 -17.04929688 15.9796875 -17.58984375 16.484375 C-20.74370319 18.46767721 -22.86447851 18.33414156 -26.5625 18.25 C-27.69816406 18.23453125 -28.83382812 18.2190625 -30.00390625 18.203125 C-33 18 -33 18 -36 17 C-36 16.01 -36 15.02 -36 14 C-36.99 14.33 -37.98 14.66 -39 15 C-42 10.375 -42 10.375 -42 7 C-40.33388095 6.957279 -38.66617115 6.95936168 -37 7 C-36.67 7.33 -36.34 7.66 -36 8 C-34.51306641 7.49339844 -34.51306641 7.49339844 -32.99609375 6.9765625 C-28.91307549 5.80998585 -25.29697346 6.00026784 -21.0625 6.375 C-20.37865234 6.43171875 -19.69480469 6.4884375 -18.99023438 6.546875 C-17.32582954 6.68654534 -15.66273114 6.84164465 -14 7 C-13.505 9.475 -13.505 9.475 -13 12 C-12.67 10.68 -12.34 9.36 -12 8 C-11.34 8.33 -10.68 8.66 -10 9 C-5.67501019 7.5086242 -2.03328192 4.06656383 0 0 Z " fill="#545454" transform="translate(124,60)"/>
<path d="M0 0 C0.33 0.99 0.66 1.98 1 3 C1.78375 2.505 2.5675 2.01 3.375 1.5 C6 0 6 0 8 0 C8.33 0.99 8.66 1.98 9 3 C8.67 3.66 8.34 4.32 8 5 C8.66 5 9.32 5 10 5 C10 6.32 10 7.64 10 9 C12.31 9.66 14.62 10.32 17 11 C17.33 13.31 17.66 15.62 18 18 C17.34 18 16.68 18 16 18 C16 16.02 16 14.04 16 12 C12.71073505 11.49803706 12.71073505 11.49803706 9 12 C6.8596502 13.81188028 5.61011698 15.65801167 4 18 C2.68 17.67 1.36 17.34 0 17 C1.32 16.01 2.64 15.02 4 14 C3.73323796 12.01508358 3.73323796 12.01508358 3 10 C2.01 9.67 1.02 9.34 0 9 C0.33 8.01 0.66 7.02 1 6 C0.5247412 7.64696604 0.04468109 9.29254728 -0.4375 10.9375 C-0.70433594 11.85402344 -0.97117187 12.77054688 -1.24609375 13.71484375 C-2 16 -2 16 -3 17 C-2.34 17.33 -1.68 17.66 -1 18 C-0.22188282 21.81984796 0.24386556 24.26840331 -1 28 C-2.32 27.67 -3.64 27.34 -5 27 C-6 22.25 -6 22.25 -6 20 C-7.27556818 21.05224667 -7.27556818 21.05224667 -7.125 23.4375 C-7.17306676 25.98978622 -7.17306676 25.98978622 -6 28 C-8.475 27.01 -8.475 27.01 -11 26 C-12.53566704 18.93927 -11.78308545 14.17417507 -8 8 C-3.34222222 1.67111111 -3.34222222 1.67111111 0 0 Z " fill="#565656" transform="translate(47,23)"/>
<path d="M0 0 C0.7425 0.185625 1.485 0.37125 2.25 0.5625 C4.89898581 1.20976686 4.89898581 1.20976686 6.921875 0.3125 C9 0 9 0 11 1.43359375 C11.66 2.09488281 12.32 2.75617187 13 3.4375 C16.23694685 6.76446817 16.23694685 6.76446817 21 7 C21 10 21 10 20 12 C19.34 12 18.68 12 18 12 C18 12.66 18 13.32 18 14 C19.65 14.66 21.3 15.32 23 16 C23 17.32 23 18.64 23 20 C23.33 19.34 23.66 18.68 24 18 C24.66 18 25.32 18 26 18 C26 20.64 26 23.28 26 26 C26.99 25.67 27.98 25.34 29 25 C30.5 26.125 30.5 26.125 32 28 C32.3125 31.0625 32.3125 31.0625 32 34 C31.34 34.66 30.68 35.32 30 36 C29.34 34.02 28.68 32.04 28 30 C27.505 31.485 27.505 31.485 27 33 C26.34 33 25.68 33 25 33 C24.67 31.02 24.34 29.04 24 27 C21.69 27 19.38 27 17 27 C15.23937836 23.67438135 14.89215772 22.40826005 15.875 18.6875 C16.24625 17.800625 16.6175 16.91375 17 16 C16.34 15.34 15.68 14.68 15 14 C14.67 13.01 14.34 12.02 14 11 C13.34870203 9.65909241 12.68486725 8.32407669 12 7 C9.36 7.33 6.72 7.66 4 8 C4 9.98 4 11.96 4 14 C3.34 14 2.68 14 2 14 C1.67 12.35 1.34 10.7 1 9 C-1.64 9.33 -4.28 9.66 -7 10 C-6.67 9.4225 -6.34 8.845 -6 8.25 C-4.72924102 5.80116138 -4.72924102 5.80116138 -5 2 C-4.34 2 -3.68 2 -3 2 C-3 2.99 -3 3.98 -3 5 C-0.69 5.33 1.62 5.66 4 6 C2.68 4.02 1.36 2.04 0 0 Z " fill="#7F7F7F" transform="translate(90,25)"/>
<path d="M0 0 C1.625 1 1.625 1 3 3 C2.68293249 5.11378339 2.11393865 7.03356548 1.4453125 9.0625 C0.77716481 11.19932077 0.77716481 11.19932077 2 14 C4.64 13.67 7.28 13.34 10 13 C10 15.31 10 17.62 10 20 C10.99 19.01 11.98 18.02 13 17 C13.66 17.33 14.32 17.66 15 18 C15.25 21.3125 15.25 21.3125 15 25 C12.9777768 27.00396385 11.63766292 27.90452106 8.80859375 28.328125 C8.02613281 28.30234375 7.24367187 28.2765625 6.4375 28.25 C5.14005859 28.21132812 5.14005859 28.21132812 3.81640625 28.171875 C-0.80076024 27.89010617 -5.40043227 27.48968782 -10 27 C-9.34 26.34 -8.68 25.68 -8 25 C-16.18452191 20.90773905 -29.9078599 24.42522815 -38 27 C-36 24 -36 24 -34.08203125 23.3046875 C-33.33308594 23.16289063 -32.58414063 23.02109375 -31.8125 22.875 C-30.9978125 22.7203125 -30.183125 22.565625 -29.34375 22.40625 C-28.5703125 22.2721875 -27.796875 22.138125 -27 22 C-25.4221875 21.690625 -25.4221875 21.690625 -23.8125 21.375 C-18.95894485 20.89760113 -14.17665569 21.02689673 -9.3046875 21.16015625 C-6.05194977 21.00251766 -3.91159303 20.4008608 -1 19 C-0.505 20.98 -0.505 20.98 0 23 C0.33 23 0.66 23 1 23 C1.59236584 17.28662627 1.59236584 17.28662627 -1 12.5 C-1.66 12.005 -2.32 11.51 -3 11 C-3.226875 11.928125 -3.45375 12.85625 -3.6875 13.8125 C-5.2088437 17.50719183 -6.46352496 18.32482761 -10 20 C-8.96501431 16.89504293 -8.21350711 16.21350711 -6 14 C-5.690625 13.360625 -5.38125 12.72125 -5.0625 12.0625 C-4 10 -4 10 -1.875 8.125 C0.32321149 6.06357103 0.32321149 6.06357103 0.25 2.75 C0.1675 1.8425 0.085 0.935 0 0 Z " fill="#616161" transform="translate(105,38)"/>
<path d="M0 0 C0.6875 1.8125 0.6875 1.8125 1 4 C-0.375 5.625 -0.375 5.625 -2 7 C-2.33 7.66 -2.66 8.32 -3 9 C-4.32 9 -5.64 9 -7 9 C-7.226875 9.70125 -7.45375 10.4025 -7.6875 11.125 C-10.72504356 17.77866684 -10.72504356 17.77866684 -14 20 C-18.30080574 21.10129856 -22.58138093 21.6247732 -27 22 C-26.979375 22.94875 -26.95875 23.8975 -26.9375 24.875 C-27 28 -27 28 -28 30 C-30.25 30.3125 -30.25 30.3125 -33 30 C-35 27.8125 -35 27.8125 -37 25 C-39.55403901 22.38047281 -42.16740347 19.84003669 -44.8125 17.3125 C-47 15 -47 15 -47 13 C-48.78857422 13.05220703 -48.78857422 13.05220703 -50.61328125 13.10546875 C-52.17967342 13.13360753 -53.74608081 13.1609076 -55.3125 13.1875 C-56.09818359 13.21263672 -56.88386719 13.23777344 -57.69335938 13.26367188 C-58.45068359 13.27333984 -59.20800781 13.28300781 -59.98828125 13.29296875 C-60.68477783 13.3086792 -61.38127441 13.32438965 -62.09887695 13.34057617 C-64.54489783 12.90238443 -65.42702086 11.86562642 -67 10 C-66.34902344 10.16242188 -65.69804688 10.32484375 -65.02734375 10.4921875 C-61.92996043 11.01174857 -58.95278636 11.06257562 -55.81811523 11.08813477 C-46.13681044 11.24636369 -46.13681044 11.24636369 -42.5546875 13.62109375 C-40.9375 15.5625 -40.9375 15.5625 -39 19 C-39 18.34 -39 17.68 -39 17 C-38.01 17.33 -37.02 17.66 -36 18 C-34.8125 20.5625 -34.8125 20.5625 -34 23 C-34 21.68 -34 20.36 -34 19 C-33.195625 19.185625 -32.39125 19.37125 -31.5625 19.5625 C-30.716875 19.706875 -29.87125 19.85125 -29 20 C-28.505 19.505 -28.505 19.505 -28 19 C-24.73729618 18.5813546 -21.47132919 18.22772932 -18.19921875 17.890625 C-14.26746409 16.79607059 -13.16932688 15.38311691 -11 12 C-10.690625 11.278125 -10.38125 10.55625 -10.0625 9.8125 C-9 8 -9 8 -6.625 7.125 C-3.04844654 5.59219138 -1.93024638 3.28856791 0 0 Z " fill="#9F7400" transform="translate(124,60)"/>
<path d="M0 0 C0.495 1.98 0.495 1.98 1 4 C-2 6 -2 6 -5 6 C-5.66 7.32 -6.32 8.64 -7 10 C-7.495 8.02 -7.495 8.02 -8 6 C-8.33 7.65 -8.66 9.3 -9 11 C-10 8 -10 8 -10 6 C-21.6274381 4.78313295 -21.6274381 4.78313295 -33 7 C-33 6.34 -33 5.68 -33 5 C-34.65 5 -36.3 5 -38 5 C-36.70855022 7.99992729 -36.70855022 7.99992729 -35 11 C-34.01 11.33 -33.02 11.66 -32 12 C-32 12.99 -32 13.98 -32 15 C-29.43685501 15.08132187 -26.87631582 15.14064175 -24.3125 15.1875 C-23.2306543 15.22520508 -23.2306543 15.22520508 -22.12695312 15.26367188 C-17.52410662 15.32672457 -14.69692767 14.77816458 -11 12 C-10.505 13.485 -10.505 13.485 -10 15 C-14.02201907 16.94613826 -17.61769578 17.32966146 -22.01171875 17.55859375 C-24.39835056 17.84779901 -24.39835056 17.84779901 -26 21 C-26 20.01 -26 19.02 -26 18 C-26.99 18 -27.98 18 -29 18 C-28.67 18.99 -28.34 19.98 -28 21 C-28.66 21 -29.32 21 -30 21 C-31.38232443 19.37373596 -32.71937515 17.7074998 -34 16 C-34.33 16.66 -34.66 17.32 -35 18 C-37 15 -37 15 -37.875 11.875 C-38.65886036 8.91131967 -38.65886036 8.91131967 -40.8125 8.125 C-43.21692176 7.98760447 -45.59233451 7.9331204 -48 8 C-47.28930664 6.04736328 -47.28930664 6.04736328 -46 4 C-43.95874023 3.38623047 -43.95874023 3.38623047 -41.37109375 3.2421875 C-39.88971924 3.15855957 -39.88971924 3.15855957 -38.37841797 3.07324219 C-31.23301731 2.91833395 -24.08684809 3.01508335 -16.94213867 3.17138672 C-14.88976162 3.21369397 -12.83784938 3.23711911 -10.78515625 3.2578125 C-9.57738525 3.2798877 -8.36961426 3.30196289 -7.12524414 3.32470703 C-3.76087352 2.97515521 -2.42818512 2.28636858 0 0 Z " fill="#33322D" transform="translate(120,62)"/>
<path d="M0 0 C3 2 3 2 3.51171875 4.1640625 C3.67447917 6.44270833 3.83723958 8.72135417 4 11 C7.3 10.67 10.6 10.34 14 10 C13.01 8.02 12.02 6.04 11 4 C12.32 4.66 13.64 5.32 15 6 C15 6.66 15 7.32 15 8 C16.65 7.67 18.3 7.34 20 7 C19.505 5.02 19.505 5.02 19 3 C19.66 3 20.32 3 21 3 C21.495 3.99 21.495 3.99 22 5 C24.52733235 5.65555119 24.52733235 5.65555119 27 6 C27.99 4.35 28.98 2.7 30 1 C30.66 1.33 31.32 1.66 32 2 C30.66666667 4.66666667 29.33333333 7.33333333 28 10 C26.515 9.690625 26.515 9.690625 25 9.375 C20.62162112 8.72137698 17.20652588 9.74542211 13 11 C13 12.32 13 13.64 13 15 C12.34 15 11.68 15 11 15 C11 14.34 11 13.68 11 13 C6.94025027 12.93684834 3.37837145 12.94185626 0.06640625 15.484375 C-3.01057243 18.93767482 -4 20.18917981 -4 25 C-6.31 24.67 -8.62 24.34 -11 24 C-11 23.67 -11 23.34 -11 23 C-9.35 23 -7.7 23 -6 23 C-6.33 22.01 -6.66 21.02 -7 20 C-10.75907641 18.37676246 -13.92086213 17.76005071 -18 18 C-18.66 16.35 -19.32 14.7 -20 13 C-19.34 13 -18.68 13 -18 13 C-18.33 10.69 -18.66 8.38 -19 6 C-17.68 6 -16.36 6 -15 6 C-15.1546875 7.6396875 -15.1546875 7.6396875 -15.3125 9.3125 C-15.209375 10.529375 -15.10625 11.74625 -15 13 C-12.85688329 14.9529689 -12.85688329 14.9529689 -10 16 C-9.071875 16.391875 -8.14375 16.78375 -7.1875 17.1875 C-6.465625 17.455625 -5.74375 17.72375 -5 18 C-4.01 16.68 -3.02 15.36 -2 14 C-4.31 12.35 -6.62 10.7 -9 9 C-8.67 8.34 -8.34 7.68 -8 7 C-7.54109375 7.3609375 -7.0821875 7.721875 -6.609375 8.09375 C-5.99578125 8.5578125 -5.3821875 9.021875 -4.75 9.5 C-4.14671875 9.9640625 -3.5434375 10.428125 -2.921875 10.90625 C-0.78914405 12.32974419 -0.78914405 12.32974419 3 12 C2.01 8.04 1.02 4.08 0 0 Z " fill="#393939" transform="translate(57,36)"/>
<path d="M0 0 C0.66 0.66 1.32 1.32 2 2 C1.01 2.33 0.02 2.66 -1 3 C0.97322935 7.56958375 2.92236229 10.13463296 7 13 C2.24891067 13 1.49528898 11.95755221 -2 9 C-2.99 8.67 -3.98 8.34 -5 8 C-5.33 8.66 -5.66 9.32 -6 10 C-7.051875 9.484375 -8.10375 8.96875 -9.1875 8.4375 C-11.6569183 7.39485672 -13.01727987 7 -15.75 7 C-18.91362553 8.40605579 -19.62762715 9.84354245 -21 13 C-21.71923208 16.69523952 -21.71923208 16.69523952 -22 20 C-22.66 20 -23.32 20 -24 20 C-24 17.69 -24 15.38 -24 13 C-25.32 12.34 -26.64 11.68 -28 11 C-27.690625 10.29875 -27.38125 9.5975 -27.0625 8.875 C-25.96697322 5.91063343 -25.43577008 3.12301892 -25 0 C-23.68 0.33 -22.36 0.66 -21 1 C-21 1.99 -21 2.98 -21 4 C-17.87501834 4.3373846 -17.87501834 4.3373846 -15.8125 2 C-15.214375 1.34 -14.61625 0.68 -14 0 C-13.67 0.66 -13.34 1.32 -13 2 C-13.99 2.99 -14.98 3.98 -16 5 C-15.154375 4.979375 -14.30875 4.95875 -13.4375 4.9375 C-9.88107223 5.00216232 -6.50906497 5.4385496 -3 6 C-3.61875 5.690625 -4.2375 5.38125 -4.875 5.0625 C-6.25 4.375 -7.625 3.6875 -9 3 C-9 2.34 -9 1.68 -9 1 C-5.66429909 -1.10025613 -3.74952434 -1.18406032 0 0 Z " fill="#373737" transform="translate(101,17)"/>
<path d="M0 0 C0.99 0.33 1.98 0.66 3 1 C1.35 2.98 -0.3 4.96 -2 7 C-1.01 6.67 -0.02 6.34 1 6 C0.67 6.99 0.34 7.98 0 9 C-1.65 9.33 -3.3 9.66 -5 10 C-3.68 10.33 -2.36 10.66 -1 11 C-1 11.66 -1 12.32 -1 13 C-0.34 13.33 0.32 13.66 1 14 C0.67 14.33 0.34 14.66 0 15 C0.66 15.33 1.32 15.66 2 16 C2.77811718 19.81984796 3.24386556 22.26840331 2 26 C0.68 25.67 -0.64 25.34 -2 25 C-3 20.25 -3 20.25 -3 18 C-4.27556818 19.05224667 -4.27556818 19.05224667 -4.125 21.4375 C-4.17306676 23.98978622 -4.17306676 23.98978622 -3 26 C-5.475 25.01 -5.475 25.01 -8 24 C-9.53710026 16.93268033 -8.73820175 12.19937805 -5 6 C-3.4345804 3.85086462 -1.80837994 1.95907826 0 0 Z " fill="#5B574C" transform="translate(44,25)"/>
<path d="M0 0 C1.32 0.66 2.64 1.32 4 2 C4 2.66 4 3.32 4 4 C3.41605469 4.0825 2.83210938 4.165 2.23046875 4.25 C-0.66339539 5.22306815 -1.76012141 6.65871582 -3.6875 9 C-4.28949219 9.721875 -4.89148438 10.44375 -5.51171875 11.1875 C-6.00285156 11.785625 -6.49398437 12.38375 -7 13 C-7.33 13.33 -7.66 13.66 -8 14 C-9.95575041 14 -11.91159097 13.99718882 -13.8671875 13.97265625 C-17.77912207 14.02280926 -21.30402682 14.76800894 -25 16 C-26.99961564 16.03920815 -29.00049364 16.04443347 -31 16 C-30.67 17.65 -30.34 19.3 -30 21 C-30.66 20.34 -31.32 19.68 -32 19 C-33.32 19 -34.64 19 -36 19 C-36.41780879 21.37305578 -36.41780879 21.37305578 -36 24 C-33.59141286 25.8624438 -33.59141286 25.8624438 -31 27 C-31.66 27.33 -32.32 27.66 -33 28 C-31.02 28 -29.04 28 -27 28 C-27 28.66 -27 29.32 -27 30 C-38.31509887 30.4025134 -38.31509887 30.4025134 -43 28 C-43.875 25.875 -43.875 25.875 -44 24 C-42.02 24.33 -40.04 24.66 -38 25 C-38.185625 24.21625 -38.37125 23.4325 -38.5625 22.625 C-39 20 -39 20 -38 18 C-38.66 18 -39.32 18 -40 18 C-40 17.34 -40 16.68 -40 16 C-37.36 16 -34.72 16 -32 16 C-31.67 15.01 -31.34 14.02 -31 13 C-29.35 13.33 -27.7 13.66 -26 14 C-25.34 12.35 -24.68 10.7 -24 9 C-23.67 9.99 -23.34 10.98 -23 12 C-13.9710465 12.38148921 -13.9710465 12.38148921 -5.73828125 9.515625 C-3.2628151 6.59744325 -1.67125593 3.42569654 0 0 Z " fill="#35332B" transform="translate(98,40)"/>
<path d="M0 0 C0.33 0.99 0.66 1.98 1 3 C0.01 3.495 0.01 3.495 -1 4 C-1.33 4.99 -1.66 5.98 -2 7 C-7.75 8.125 -7.75 8.125 -10 7 C-10 7.66 -10 8.32 -10 9 C-9.34 9 -8.68 9 -8 9 C-8.020625 9.94875 -8.04125 10.8975 -8.0625 11.875 C-8.22551826 14.90666283 -8.22551826 14.90666283 -7 17 C-9.25 17.375 -9.25 17.375 -12 17 C-14.47689947 14.1971927 -15.93540882 12.29182369 -16.125 8.5 C-12.67963965 0.84364366 -8.1131951 -0.97358341 0 0 Z " fill="#8E8E8E" transform="translate(68,49)"/>
<path d="M0 0 C2.75006608 -0.0270203 5.49986546 -0.04684883 8.25 -0.0625 C9.02730469 -0.07087891 9.80460937 -0.07925781 10.60546875 -0.08789062 C11.73662109 -0.09272461 11.73662109 -0.09272461 12.890625 -0.09765625 C13.92751465 -0.10551147 13.92751465 -0.10551147 14.98535156 -0.11352539 C17.09973898 0.00562029 18.96641515 0.42381763 21 1 C21 1.66 21 2.32 21 3 C21.66 3.33 22.32 3.66 23 4 C21.02 4 19.04 4 17 4 C17 4.66 17 5.32 17 6 C19.31 6.66 21.62 7.32 24 8 C23.67 8.66 23.34 9.32 23 10 C18.65535464 9.39174965 14.32448133 8.73832608 10 8 C10.33 7.01 10.66 6.02 11 5 C10.67 5 10.34 5 10 5 C8.9739266 6.31337396 7.97272675 7.64664105 7 9 C4.7522025 6.94766315 3.9977758 5.99332739 3 3 C2.01 2.67 1.02 2.34 0 2 C0 1.34 0 0.68 0 0 Z " fill="#585651" transform="translate(75,14)"/>
<path d="M0 0 C0.66 0.33 1.32 0.66 2 1 C1.01 2.485 1.01 2.485 0 4 C0.474375 4.433125 0.94875 4.86625 1.4375 5.3125 C3 7 3 7 4 10 C2.68 10.99 1.36 11.98 0 13 C0.04768403 14.87880872 0.04768403 14.87880872 1 17 C2.99371825 18.34270821 4.9934562 19.67653494 7 21 C7 21.99 7 22.98 7 24 C5 25.6875 5 25.6875 3 27 C0.69 26.01 -1.62 25.02 -4 24 C-3.34 23.67 -2.68 23.34 -2 23 C-2 19.7 -2 16.4 -2 13 C-2.99 12.67 -3.98 12.34 -5 12 C-4.34 11.67 -3.68 11.34 -3 11 C-2.74286225 9.00718243 -2.49163848 7.01170139 -2.34375 5.0078125 C-2 3 -2 3 0 0 Z " fill="#7E7E7E" transform="translate(48,28)"/>
<path d="M0 0 C1.32 0.33 2.64 0.66 4 1 C3.13375 1.804375 3.13375 1.804375 2.25 2.625 C-0.13019568 4.96133134 -0.13019568 4.96133134 -1.8125 8.0625 C-4.88791009 12.19233641 -8.20371811 13.50048905 -13.23046875 14.3984375 C-15.14769708 14.64954351 -17.07379405 14.83103457 -19 15 C-18.979375 16.134375 -18.95875 17.26875 -18.9375 18.4375 C-19 22 -19 22 -20 23 C-26.26701571 23.46422339 -26.26701571 23.46422339 -28.875 21.8125 C-30.26229035 19.5774211 -30.64987213 17.59094622 -31 15 C-30.278125 15.804375 -29.55625 16.60875 -28.8125 17.4375 C-25.97484311 20.02292072 -24.72833853 20.68042813 -21 21 C-21.020625 19.700625 -21.04125 18.40125 -21.0625 17.0625 C-21.08399454 15.70834367 -21.07148199 14.35243917 -21 13 C-18.65087805 10.65087805 -13.19107501 11.08015176 -10.00390625 10.6953125 C-6.69960749 10.29206775 -6.69960749 10.29206775 -5 7 C-4.34 7 -3.68 7 -3 7 C-2.690625 6.21625 -2.38125 5.4325 -2.0625 4.625 C-1 2 -1 2 0 0 Z " fill="#DA9F00" transform="translate(117,69)"/>
<path d="M0 0 C1.625 1 1.625 1 3 3 C2.68293249 5.11378339 2.11393865 7.03356548 1.4453125 9.0625 C0.77716481 11.19932077 0.77716481 11.19932077 2 14 C4.64 13.67 7.28 13.34 10 13 C10 15.31 10 17.62 10 20 C10.99 19.01 11.98 18.02 13 17 C13.66 17.33 14.32 17.66 15 18 C15 19.65 15 21.3 15 23 C14.01 22.67 13.02 22.34 12 22 C11.34 22.66 10.68 23.32 10 24 C10.33 24.66 10.66 25.32 11 26 C10.01 25.67 9.02 25.34 8 25 C7.67 22.03 7.34 19.06 7 16 C6.01 16 5.02 16 4 16 C4 17.98 4 19.96 4 22 C3.34 22 2.68 22 2 22 C1.89042969 21.37351562 1.78085938 20.74703125 1.66796875 20.1015625 C1.50941406 19.28429687 1.35085937 18.46703125 1.1875 17.625 C1.03667969 16.81289063 0.88585937 16.00078125 0.73046875 15.1640625 C0.12455058 12.64179359 0.12455058 12.64179359 -3 11 C-3.226875 11.928125 -3.45375 12.85625 -3.6875 13.8125 C-5.2088437 17.50719183 -6.46352496 18.32482761 -10 20 C-8.96501431 16.89504293 -8.21350711 16.21350711 -6 14 C-5.690625 13.360625 -5.38125 12.72125 -5.0625 12.0625 C-4 10 -4 10 -1.875 8.125 C0.32321149 6.06357103 0.32321149 6.06357103 0.25 2.75 C0.12625 1.38875 0.12625 1.38875 0 0 Z " fill="#333333" transform="translate(105,38)"/>
<path d="M0 0 C0 0.99 0 1.98 0 3 C2.97 3 5.94 3 9 3 C8.34 4.65 7.68 6.3 7 8 C5.68 7.67 4.36 7.34 3 7 C3.825 7.4125 4.65 7.825 5.5 8.25 C6.325 8.8275 7.15 9.405 8 10 C8 11.32 8 12.64 8 14 C1.84765625 13.4140625 1.84765625 13.4140625 0 13 C-0.33 12.34 -0.66 11.68 -1 11 C-0.67 10.01 -0.34 9.02 0 8 C-0.66 8 -1.32 8 -2 8 C-2 6.35 -2 4.7 -2 3 C-2.598125 3.495 -3.19625 3.99 -3.8125 4.5 C-6 6 -6 6 -9 6 C-9 5.01 -9 4.02 -9 3 C-2.25 0 -2.25 0 0 0 Z " fill="#6C6C6C" transform="translate(57,20)"/>
<path d="M0 0 C3.23910529 -0.356132 4.56322159 -0.34548779 7.16796875 1.71484375 C7.83441406 2.44832031 8.50085938 3.18179687 9.1875 3.9375 C11.78710767 6.87557386 11.78710767 6.87557386 15 9 C14.67 9.66 14.34 10.32 14 11 C14.39938767 13.09821215 14.39938767 13.09821215 15 15 C14.236875 14.835 13.47375 14.67 12.6875 14.5 C9.96403764 13.90854604 9.96403764 13.90854604 7 14 C7.33 13.34 7.66 12.68 8 12 C7.05125 11.319375 6.1025 10.63875 5.125 9.9375 C1.5622062 7.01332019 0.8726412 4.4504701 0 0 Z " fill="#3E3D3B" transform="translate(99,18)"/>
<path d="M0 0 C1.32 0 2.64 0 4 0 C4.433125 0.9075 4.86625 1.815 5.3125 2.75 C6.83388114 5.93777831 6.83388114 5.93777831 8.75 8.1875 C9.1625 8.785625 9.575 9.38375 10 10 C9.67 10.99 9.34 11.98 9 13 C7.02 11.35 5.04 9.7 3 8 C3.28875 8.49628906 3.5775 8.99257813 3.875 9.50390625 C6.501523 14.31007855 7.45552263 17.5337284 7 23 C6.34 23 5.68 23 5 23 C5 20.36 5 17.72 5 15 C4.34 15 3.68 15 3 15 C2.34 16.32 1.68 17.64 1 19 C1 17.02 1 15.04 1 13 C-0.32 12.34 -1.64 11.68 -3 11 C-3 10.34 -3 9.68 -3 9 C-2.34 9 -1.68 9 -1 9 C0.50930183 5.6136749 0.50930183 5.6136749 1 2 C0.67 1.34 0.34 0.68 0 0 Z " fill="#343434" transform="translate(111,28)"/>
<path d="M0 0 C0.65097656 0.16242188 1.30195312 0.32484375 1.97265625 0.4921875 C5.06975727 1.01170122 8.04621871 1.06309396 11.18066406 1.08691406 C20.82169152 1.24961422 20.82169152 1.24961422 24.26953125 3.4453125 C25.7275682 5.2226557 26.85392986 7.01123123 28 9 C28.9075 9.9075 29.815 10.815 30.75 11.75 C33 14 33 14 35 17 C36.65 16.67 38.3 16.34 40 16 C39.67 17.32 39.34 18.64 39 20 C36.75 20.3125 36.75 20.3125 34 20 C32 17.8125 32 17.8125 30 15 C27.44596099 12.38047281 24.83259653 9.84003669 22.1875 7.3125 C20 5 20 5 20 3 C18.80761719 3.03480469 17.61523438 3.06960937 16.38671875 3.10546875 C14.82032658 3.13360753 13.25391919 3.1609076 11.6875 3.1875 C10.90181641 3.21263672 10.11613281 3.23777344 9.30664062 3.26367188 C8.54931641 3.27333984 7.79199219 3.28300781 7.01171875 3.29296875 C6.31522217 3.3086792 5.61872559 3.32438965 4.90112305 3.34057617 C2.45510217 2.90238443 1.57297914 1.86562642 0 0 Z " fill="#BC8900" transform="translate(57,70)"/>
<path d="M0 0 C2.49361571 1.20381448 4.68143083 2.45428722 7 4 C7.804375 3.938125 8.60875 3.87625 9.4375 3.8125 C12 4 12 4 14.3125 6.375 C16 9 16 9 16 11 C15.34 11 14.68 11 14 11 C13.34 9.68 12.68 8.36 12 7 C9.36 7.33 6.72 7.66 4 8 C4 9.98 4 11.96 4 14 C3.34 14 2.68 14 2 14 C1.67 12.35 1.34 10.7 1 9 C-1.64 9.33 -4.28 9.66 -7 10 C-6.67 9.4225 -6.34 8.845 -6 8.25 C-4.72924102 5.80116138 -4.72924102 5.80116138 -5 2 C-4.34 2 -3.68 2 -3 2 C-3 2.99 -3 3.98 -3 5 C-0.69 5.33 1.62 5.66 4 6 C2.68 4.02 1.36 2.04 0 0 Z " fill="#3E3E3E" transform="translate(90,25)"/>
<path d="M0 0 C0.66 0 1.32 0 2 0 C2 1.98 2 3.96 2 6 C2.66 6 3.32 6 4 6 C4.33 5.01 4.66 4.02 5 3 C5 3.66 5 4.32 5 5 C5.639375 5.2475 6.27875 5.495 6.9375 5.75 C9 7 9 7 9.75 9.125 C9.87375 10.053125 9.87375 10.053125 10 11 C6.78548731 12.60725635 3.56387464 12.05748185 0 12 C-0.66 8.7 -1.32 5.4 -2 2 C-1.34 2 -0.68 2 0 2 C0 1.34 0 0.68 0 0 Z " fill="#919191" transform="translate(61,35)"/>
<path d="M0 0 C0.99 0 1.98 0 3 0 C3 0.66 3 1.32 3 2 C3.66 2.33 4.32 2.66 5 3 C4.67 3.33 4.34 3.66 4 4 C4.66 4.33 5.32 4.66 6 5 C6.77811718 8.81984796 7.24386556 11.26840331 6 15 C4.68 14.67 3.36 14.34 2 14 C1 9.25 1 9.25 1 7 C0.34 7 -0.32 7 -1 7 C-1.625 5.1875 -1.625 5.1875 -2 3 C-1.34 2.01 -0.68 1.02 0 0 Z " fill="#5D5D5D" transform="translate(40,36)"/>
<path d="M0 0 C4 2 4 2 5 4 C5 6.66666667 5 9.33333333 5 12 C5.33 12.66 5.66 13.32 6 14 C4.0625 13.1875 4.0625 13.1875 2 12 C1.67 11.01 1.34 10.02 1 9 C0.01 9.33 -0.98 9.66 -2 10 C-2.66 9.34 -3.32 8.68 -4 8 C-2.68 5.36 -1.36 2.72 0 0 Z " fill="#8B8B8B" transform="translate(102,49)"/>
<path d="M0 0 C1.32 0 2.64 0 4 0 C3.8453125 1.6396875 3.8453125 1.6396875 3.6875 3.3125 C3.790625 4.529375 3.89375 5.74625 4 7 C6.14311671 8.9529689 6.14311671 8.9529689 9 10 C9.86625 10.433125 10.7325 10.86625 11.625 11.3125 C12.800625 11.6528125 12.800625 11.6528125 14 12 C14.99 11.34 15.98 10.68 17 10 C16.67 10.7425 16.34 11.485 16 12.25 C14.77217129 15.13883312 14.77217129 15.13883312 15 19 C12.69 18.67 10.38 18.34 8 18 C8 17.67 8 17.34 8 17 C9.65 17 11.3 17 13 17 C12.67 16.01 12.34 15.02 12 14 C8.24092359 12.37676246 5.07913787 11.76005071 1 12 C0.34 10.35 -0.32 8.7 -1 7 C-0.34 7 0.32 7 1 7 C0.67 4.69 0.34 2.38 0 0 Z " fill="#2C2B27" transform="translate(38,42)"/>
<path d="M0 0 C1.66611905 -0.042721 3.33382885 -0.04063832 5 0 C5.33 0.33 5.66 0.66 6 1 C8.00720923 0.71325582 10.0085944 0.38133299 12 0 C12.66 0.99 13.32 1.98 14 3 C12.02 3 10.04 3 8 3 C8.99 4.65 9.98 6.3 11 8 C5.69072575 8.43518641 5.69072575 8.43518641 3 8 C0.54678356 5.16346849 0 3.74876504 0 0 Z " fill="#6B6B6B" transform="translate(82,67)"/>
<path d="M0 0 C0.66 0.33 1.32 0.66 2 1 C0.02 3.97 0.02 3.97 -2 7 C-1.34 7.33 -0.68 7.66 0 8 C-0.61875 8.721875 -1.2375 9.44375 -1.875 10.1875 C-3.83666353 12.78381938 -4.95316 14.94671666 -6 18 C-6.2475 17.4225 -6.495 16.845 -6.75 16.25 C-8.16683317 13.6997003 -9.87627537 11.98214299 -12 10 C-9.525 10.99 -9.525 10.99 -7 12 C-6.01 10.68 -5.02 9.36 -4 8 C-6.97 8 -9.94 8 -13 8 C-12.34 7.01 -11.68 6.02 -11 5 C-11 5.66 -11 6.32 -11 7 C-7.535 6.505 -7.535 6.505 -4 6 C-3.71125 5.195625 -3.4225 4.39125 -3.125 3.5625 C-2 1 -2 1 0 0 Z " fill="#2C2C2C" transform="translate(70,15)"/>
<path d="M0 0 C0.33 0.99 0.66 1.98 1 3 C1.78375 2.484375 2.5675 1.96875 3.375 1.4375 C4.24125 0.963125 5.1075 0.48875 6 0 C6.66 0.33 7.32 0.66 8 1 C6.39435443 2.76621013 5.23292301 3.90537503 3 4.8125 C0.35122675 6.38520912 0.08346821 7.70786126 -0.75 10.625 C-0.99234375 11.44226562 -1.2346875 12.25953125 -1.484375 13.1015625 C-1.65453125 13.72804688 -1.8246875 14.35453125 -2 15 C-2.66 15 -3.32 15 -4 15 C-4 14.34 -4 13.68 -4 13 C-5.32 13.33 -6.64 13.66 -8 14 C-8 13.34 -8 12.68 -8 12 C-6.35 11.34 -4.7 10.68 -3 10 C-3.99 9.67 -4.98 9.34 -6 9 C-4.35 7.02 -2.7 5.04 -1 3 C-1.33 2.34 -1.66 1.68 -2 1 C-1.34 0.67 -0.68 0.34 0 0 Z " fill="#2F2E2C" transform="translate(47,23)"/>
<path d="M0 0 C1.32 0 2.64 0 4 0 C4 0.66 4 1.32 4 2 C4.66 2 5.32 2 6 2 C5.979375 2.94875 5.95875 3.8975 5.9375 4.875 C5.77448174 7.90666283 5.77448174 7.90666283 7 10 C4.75 10.375 4.75 10.375 2 10 C-0.375 7.1875 -0.375 7.1875 -2 4 C-1 1 -1 1 0 0 Z " fill="#888888" transform="translate(54,56)"/>
<path d="M0 0 C0.66 0.66 1.32 1.32 2 2 C1.01 2.33 0.02 2.66 -1 3 C0.97322935 7.56958375 2.92236229 10.13463296 7 13 C1.90962386 13 0.56356734 11.48257717 -3 8 C-3 7.01 -3 6.02 -3 5 C-4.98 4.34 -6.96 3.68 -9 3 C-9 2.34 -9 1.68 -9 1 C-5.66429909 -1.10025613 -3.74952434 -1.18406032 0 0 Z " fill="#2F2E2C" transform="translate(101,17)"/>
<path d="M0 0 C1.32 0.66 2.64 1.32 4 2 C4 2.66 4 3.32 4 4 C3.41605469 4.0825 2.83210938 4.165 2.23046875 4.25 C-0.66339539 5.22306815 -1.76012141 6.65871582 -3.6875 9 C-4.28949219 9.721875 -4.89148438 10.44375 -5.51171875 11.1875 C-6.24841797 12.0846875 -6.24841797 12.0846875 -7 13 C-8.64745596 14.64745596 -10.55335451 14.1709616 -12.8125 14.1875 C-13.68519531 14.20167969 -14.55789062 14.21585938 -15.45703125 14.23046875 C-18.10919085 13.99010406 -19.72464999 13.34187309 -22 12 C-20.58847656 12.01353516 -20.58847656 12.01353516 -19.1484375 12.02734375 C-12.12533051 12.07433896 -12.12533051 12.07433896 -5.8046875 9.515625 C-3.31566387 6.5888334 -1.67264563 3.44412941 0 0 Z " fill="#383838" transform="translate(98,40)"/>
<path d="M0 0 C1.11129069 3.33387207 1.34815097 6.35937408 1.62109375 9.84375 C1.90160401 12.28825699 1.90160401 12.28825699 4 15 C4.125 18.1875 4.125 18.1875 4 21 C-0.580618 17.48819287 -1.2654115 13.45290692 -2 8 C-2.125 4.4375 -2.125 4.4375 -2 2 C-1.34 2 -0.68 2 0 2 C0 1.34 0 0.68 0 0 Z " fill="#CE9600" transform="translate(35,37)"/>
<path d="M0 0 C0.66 0.99 1.32 1.98 2 3 C-2.02201907 4.94613826 -5.61769578 5.32966146 -10.01171875 5.55859375 C-12.39835056 5.84779901 -12.39835056 5.84779901 -14 9 C-14 8.01 -14 7.02 -14 6 C-14.99 6 -15.98 6 -17 6 C-16.67 6.99 -16.34 7.98 -16 9 C-16.66 9 -17.32 9 -18 9 C-19.98 5.535 -19.98 5.535 -22 2 C-21.31035156 2.15984375 -20.62070313 2.3196875 -19.91015625 2.484375 C-16.71206243 3.05101713 -13.68469176 3.20484786 -10.4375 3.25 C-8.76494141 3.28867188 -8.76494141 3.28867188 -7.05859375 3.328125 C-3.73462454 2.9715306 -2.41412606 2.24295331 0 0 Z " fill="#27241D" transform="translate(108,74)"/>
<path d="M0 0 C2.91633776 1.30732382 4.75864056 2.75864056 7 5 C7.66 5 8.32 5 9 5 C8.814375 5.70125 8.62875 6.4025 8.4375 7.125 C7.94843024 10.33888698 8.33768442 12.83560336 9 16 C3.18217349 12.58954997 1.93112635 6.0904754 0 0 Z " fill="#7C7C7C" transform="translate(113,35)"/>
<path d="M0 0 C0.66 0 1.32 0 2 0 C2 0.66 2 1.32 2 2 C2.763125 2.28875 3.52625 2.5775 4.3125 2.875 C7 4 7 4 10 6 C10 7.32 10 8.64 10 10 C3.84765625 9.4140625 3.84765625 9.4140625 2 9 C1.67 8.34 1.34 7.68 1 7 C1.33 6.01 1.66 5.02 2 4 C1.34 4 0.68 4 0 4 C0 2.68 0 1.36 0 0 Z " fill="#787878" transform="translate(55,24)"/>
<path d="M0 0 C-0.99 0.33 -1.98 0.66 -3 1 C-4.22969878 4.51190809 -4.22969878 4.51190809 -5 8 C-6.65 8.33 -8.3 8.66 -10 9 C-10.33 8.01 -10.66 7.02 -11 6 C-10.34 5.67 -9.68 5.34 -9 5 C-8.9175 4.360625 -8.835 3.72125 -8.75 3.0625 C-8.5025 2.381875 -8.255 1.70125 -8 1 C-2.71910112 -1.35955056 -2.71910112 -1.35955056 0 0 Z " fill="#9B9B9B" transform="translate(78,46)"/>
<path d="M0 0 C3.44756956 1.21130822 5.49405626 2.38510218 8 5 C10.09989652 6.17574711 10.09989652 6.17574711 12 7 C9.71568262 9.35800504 7.9918976 10.88720897 4.6640625 11.265625 C2.43079795 11.251535 0.22617559 11.17460201 -2 11 C0.66666667 9.66666667 3.33333333 8.33333333 6 7 C5.195625 6.21625 4.39125 5.4325 3.5625 4.625 C1 2 1 2 0 0 Z " fill="#696969" transform="translate(97,67)"/>
<path d="M0 0 C-2.05233685 2.2477975 -3.00667261 3.0022242 -6 4 C-8.33299825 4.03954234 -10.66708189 4.04401732 -13 4 C-13.33 3.01 -13.66 2.02 -14 1 C-10.94932205 -2.05067795 -3.79001365 -1.06594134 0 0 Z " fill="#8F8F8F" transform="translate(98,62)"/>
<path d="M0 0 C0.99 0.33 1.98 0.66 3 1 C4.1875 3.5625 4.1875 3.5625 5 6 C5 4.68 5 3.36 5 2 C6.32 2.33 7.64 2.66 9 3 C9.66 5.31 10.32 7.62 11 10 C9.68 10.33 8.36 10.66 7 11 C5.83051998 9.35616456 4.6644855 7.70987731 3.5 6.0625 C2.8503125 5.14597656 2.200625 4.22945313 1.53125 3.28515625 C0 1 0 1 0 0 Z " fill="#8B8A8A" transform="translate(85,77)"/>
<path d="M0 0 C0.66 0 1.32 0 2 0 C2 0.66 2 1.32 2 2 C3.093125 1.938125 4.18625 1.87625 5.3125 1.8125 C9 2 9 2 11 3.25 C12 5 12 5 11.6875 7.1875 C11.460625 7.785625 11.23375 8.38375 11 9 C10.32582031 8.35546875 9.65164062 7.7109375 8.95703125 7.046875 C5.34117339 4.54395622 3.04542162 4.41291296 -1.3125 4.25 C-3.19388672 4.16492188 -3.19388672 4.16492188 -5.11328125 4.078125 C-6.06589844 4.05234375 -7.01851562 4.0265625 -8 4 C-8 3.67 -8 3.34 -8 3 C-5.36 3 -2.72 3 0 3 C0 2.01 0 1.02 0 0 Z " fill="#6D5310" transform="translate(71,67)"/>
<path d="M0 0 C7.84615385 0 7.84615385 0 10.875 2.625 C12.62940277 4.37940277 14.33427552 6.16146261 16 8 C15.01 9.485 15.01 9.485 14 11 C13.46375 10.01 12.9275 9.02 12.375 8 C11.199375 6.515 11.199375 6.515 10 5 C8.00043389 4.95834237 5.99956611 4.95834237 4 5 C1.625 2.5 1.625 2.5 0 0 Z " fill="#949494" transform="translate(92,25)"/>
<path d="M0 0 C2.97 0.495 2.97 0.495 6 1 C6 1.99 6 2.98 6 4 C6.94978897 6.15028304 6.94978897 6.15028304 8 8 C5.69 7.67 3.38 7.34 1 7 C1 6.01 1 5.02 1 4 C-0.32 3.67 -1.64 3.34 -3 3 C-2.01 2.67 -1.02 2.34 0 2 C0 1.34 0 0.68 0 0 Z " fill="#898989" transform="translate(86,23)"/>
<path d="M0 0 C2.49361571 1.20381448 4.68143083 2.45428722 7 4 C7.804375 3.938125 8.60875 3.87625 9.4375 3.8125 C12 4 12 4 14.3125 6.375 C16 9 16 9 16 11 C15.34 11 14.68 11 14 11 C13.34 9.68 12.68 8.36 12 7 C7.545 7.495 7.545 7.495 3 8 C2.67 7.34 2.34 6.68 2 6 C2.66 6 3.32 6 4 6 C2.68 4.02 1.36 2.04 0 0 Z " fill="#343434" transform="translate(90,25)"/>
<path d="M0 0 C1.258125 0.12375 2.51625 0.2475 3.8125 0.375 C4.87404297 0.47941406 4.87404297 0.47941406 5.95703125 0.5859375 C8 1 8 1 11 3 C11 3.99 11 4.98 11 6 C8.35556973 6.3888868 6.61173798 6.39540909 4.33203125 4.921875 C2.83068266 3.68085526 1.40974295 2.34417351 0 1 C0 0.67 0 0.34 0 0 Z " fill="#838383" transform="translate(40,53)"/>
<path d="M0 0 C4.71403788 0.47939368 8.66579301 0.96834048 13 3 C12.67 3.66 12.34 4.32 12 5 C7.65535464 4.39174965 3.32448133 3.73832608 -1 3 C-0.67 2.01 -0.34 1.02 0 0 Z " fill="#898989" transform="translate(86,19)"/>
<path d="M0 0 C2.49361571 1.20381448 4.68143083 2.45428722 7 4 C7 4.66 7 5.32 7 6 C9.64 6.33 12.28 6.66 15 7 C14.67 7.99 14.34 8.98 14 10 C14 9.34 14 8.68 14 8 C13.24074219 7.87882812 12.48148438 7.75765625 11.69921875 7.6328125 C10.70535156 7.46523438 9.71148437 7.29765625 8.6875 7.125 C7.70136719 6.96257813 6.71523438 6.80015625 5.69921875 6.6328125 C3 6 3 6 0 4 C0 2.68 0 1.36 0 0 Z " fill="#70550B" transform="translate(39,54)"/>
<path d="M0 0 C2.875 0.1875 2.875 0.1875 6 1 C7.375 3.5625 7.375 3.5625 8 6 C5.03 6.66 2.06 7.32 -1 8 C-1 7.34 -1 6.68 -1 6 C0.32 5.67 1.64 5.34 3 5 C2.01 3.35 1.02 1.7 0 0 Z " fill="#606060" transform="translate(89,69)"/>
<path d="M0 0 C1.32 0 2.64 0 4 0 C4.433125 0.9075 4.86625 1.815 5.3125 2.75 C6.83388114 5.93777831 6.83388114 5.93777831 8.75 8.1875 C9.1625 8.785625 9.575 9.38375 10 10 C9.67 10.99 9.34 11.98 9 13 C7.62437146 11.71034824 6.29233607 10.37310707 5 9 C5 8.34 5 7.68 5 7 C4.34 6.67 3.68 6.34 3 6 C1.95191959 4.02477154 0.9479589 2.02518491 0 0 Z " fill="#3C372C" transform="translate(111,28)"/>
<path d="M0 0 C2.33524782 2.25740623 4.18705073 4.2805761 6 7 C7.65 6.67 9.3 6.34 11 6 C10.67 7.32 10.34 8.64 10 10 C7.8125 10.375 7.8125 10.375 5 10 C2.1875 7.25 2.1875 7.25 0 4 C0 2.68 0 1.36 0 0 Z " fill="#755809" transform="translate(86,80)"/>
<path d="M0 0 C3.16115776 1.36983503 3.9927092 1.9890638 6 5 C2.37 5 -1.26 5 -5 5 C-3.35 3.35 -1.7 1.7 0 0 Z " fill="#868686" transform="translate(100,60)"/>
<path d="M0 0 C0.99 0.33 1.98 0.66 3 1 C1.35 2.98 -0.3 4.96 -2 7 C-1.01 6.67 -0.02 6.34 1 6 C0.67 6.99 0.34 7.98 0 9 C-1.65 9.33 -3.3 9.66 -5 10 C-4.49701212 5.59885603 -2.91227269 3.28804981 0 0 Z " fill="#706C61" transform="translate(44,25)"/>
<path d="M0 0 C0.042721 1.66611905 0.04063832 3.33382885 0 5 C-1 6 -1 6 -4.5625 6.0625 C-5.696875 6.041875 -6.83125 6.02125 -8 6 C-8 5.01 -8 4.02 -8 3 C-1.125 0 -1.125 0 0 0 Z " fill="#828282" transform="translate(67,16)"/>
<path d="M0 0 C2.20914 3.31371 2.22481553 4.3446021 2.125 8.1875 C2.10695313 9.08855469 2.08890625 9.98960938 2.0703125 10.91796875 C2.03550781 11.94857422 2.03550781 11.94857422 2 13 C-0.42130331 10.57869669 -0.52840504 9.19888623 -1.125 5.875 C-1.29257813 4.96492188 -1.46015625 4.05484375 -1.6328125 3.1171875 C-1.75398438 2.41851562 -1.87515625 1.71984375 -2 1 C-1.34 0.67 -0.68 0.34 0 0 Z " fill="#413F3B" transform="translate(122,41)"/>
<path d="M0 0 C1.65 0.99 3.3 1.98 5 3 C4.01 3.495 4.01 3.495 3 4 C3.4125 4.4125 3.825 4.825 4.25 5.25 C6.16666667 7.16666667 8.08333333 9.08333333 10 11 C7.4407195 10.65415128 5.47924414 10.31949609 3.3125 8.875 C1.39443906 6.13491295 0.78974263 3.21971995 0 0 Z " fill="#8D8D8D" transform="translate(99,18)"/>
<path d="M0 0 C0.33 0.66 0.66 1.32 1 2 C1.66 2 2.32 2 3 2 C2.67 3.65 2.34 5.3 2 7 C1.01 7.33 0.02 7.66 -1 8 C-1.66 7.67 -2.32 7.34 -3 7 C-1.125 1.125 -1.125 1.125 0 0 Z " fill="#8C8C8C" transform="translate(78,21)"/>
<path d="M0 0 C1.32 0.33 2.64 0.66 4 1 C2.33333333 4.33333333 0.66666667 7.66666667 -1 11 C-0.34 11.33 0.32 11.66 1 12 C0.01 12 -0.98 12 -2 12 C-2.33 11.34 -2.66 10.68 -3 10 C-2.33333333 8.66666667 -1.66666667 7.33333333 -1 6 C-0.61709538 4.00889599 -0.27395385 2.00899487 0 0 Z " fill="#303030" transform="translate(76,17)"/>
<path d="M0 0 C2.97 0 5.94 0 9 0 C7.02 2.97 7.02 2.97 5 6 C3.0625 5.25 3.0625 5.25 1 4 C0.67 2.68 0.34 1.36 0 0 Z " fill="#898989" transform="translate(78,17)"/>
<path d="M0 0 C-0.84304687 0.17015625 -1.68609375 0.3403125 -2.5546875 0.515625 C-3.65039062 0.75796875 -4.74609375 1.0003125 -5.875 1.25 C-6.96554688 1.48203125 -8.05609375 1.7140625 -9.1796875 1.953125 C-12.11920993 2.7269658 -12.11920993 2.7269658 -13.3828125 5.109375 C-13.58648437 5.73328125 -13.79015625 6.3571875 -14 7 C-15 4 -15 4 -14.3359375 1.86328125 C-13 0 -13 0 -10.9765625 -0.64453125 C-10.20054688 -0.69996094 -9.42453125 -0.75539063 -8.625 -0.8125 C-7.85414062 -0.88082031 -7.08328125 -0.94914062 -6.2890625 -1.01953125 C-4.01852779 -1.00015809 -2.16783507 -0.64837076 0 0 Z " fill="#745605" transform="translate(109,79)"/>
<path d="M0 0 C0.66 0.66 1.32 1.32 2 2 C1.625 5.625 1.625 5.625 1 9 C0.01 8.34 -0.98 7.68 -2 7 C-1.125 1.125 -1.125 1.125 0 0 Z " fill="#838383" transform="translate(43,42)"/>
<path d="M0 0 C2.64 0 5.28 0 8 0 C7.360625 0.28875 6.72125 0.5775 6.0625 0.875 C3.84793921 1.82823451 3.84793921 1.82823451 3 4 C1.35 4 -0.3 4 -2 4 C-1.34 2.68 -0.68 1.36 0 0 Z " fill="#282621" transform="translate(74,66)"/>
<path d="M0 0 C1.32 0.66 2.64 1.32 4 2 C3.375 3.875 3.375 3.875 2 6 C-1.125 7.25 -1.125 7.25 -4 8 C-4 4.99472353 -2.05564773 4.05564773 0 2 C0 1.34 0 0.68 0 0 Z " fill="#7B7B7B" transform="translate(108,31)"/>
<path d="M0 0 C0.70125 0.2475 1.4025 0.495 2.125 0.75 C1.135 2.235 1.135 2.235 0.125 3.75 C0.125 3.09 0.125 2.43 0.125 1.75 C-0.6175 2.265625 -1.36 2.78125 -2.125 3.3125 C-4.875 4.75 -4.875 4.75 -7.1875 4.4375 C-7.744375 4.210625 -8.30125 3.98375 -8.875 3.75 C-3.58269231 -0.31153846 -3.58269231 -0.31153846 0 0 Z " fill="#443E2E" transform="translate(56.875,18.25)"/>
<path d="M0 0 C1.98 0.66 3.96 1.32 6 2 C6 2.99 6 3.98 6 5 C5.34 5 4.68 5 4 5 C2.62689293 6.29233607 1.28965176 7.62437146 0 9 C0.185625 8.071875 0.37125 7.14375 0.5625 6.1875 C1.24123881 2.98656229 1.24123881 2.98656229 0 0 Z " fill="#8D8D8D" transform="translate(106,38)"/>
<path d="M0 0 C2.49361571 1.20381448 4.68143083 2.45428722 7 4 C6.67 4.66 6.34 5.32 6 6 C6 6.66 6 7.32 6 8 C3 7 3 7 1.9375 5.0625 C1.628125 4.381875 1.31875 3.70125 1 3 C0.34 2.34 -0.32 1.68 -1 1 C-0.67 0.67 -0.34 0.34 0 0 Z " fill="#5E5B50" transform="translate(107,23)"/>
<path d="M0 0 C1.48199902 0.44909061 2.96055236 0.90956564 4.4375 1.375 C5.26121094 1.63023438 6.08492188 1.88546875 6.93359375 2.1484375 C9 3 9 3 10 5 C7.36 5 4.72 5 2 5 C1.34 3.35 0.68 1.7 0 0 Z " fill="#757575" transform="translate(83,70)"/>
<path d="M0 0 C0.66 0 1.32 0 2 0 C2.1875 3.375 2.1875 3.375 2 7 C1.01 7.66 0.02 8.32 -1 9 C-2.25541557 5.23375329 -1.37061958 3.62811066 0 0 Z " fill="#44423D" transform="translate(122,55)"/>
<path d="M0 0 C0.66 0 1.32 0 2 0 C2 0.66 2 1.32 2 2 C2.99 2.33 3.98 2.66 5 3 C4.34 4.32 3.68 5.64 3 7 C3.99 7.33 4.98 7.66 6 8 C4.35 8 2.7 8 1 8 C1.33 6.68 1.66 5.36 2 4 C1.34 4 0.68 4 0 4 C0 2.68 0 1.36 0 0 Z " fill="#848484" transform="translate(55,24)"/>
<path d="M0 0 C1.9375 0.6875 1.9375 0.6875 4 2 C4.75 4.625 4.75 4.625 5 7 C2.5 5.1875 2.5 5.1875 0 3 C0 2.01 0 1.02 0 0 Z " fill="#6F6A5C" transform="translate(78,69)"/>
<path d="M0 0 C2.33333333 0 4.66666667 0 7 0 C7.33 0.99 7.66 1.98 8 3 C7.01 3 6.02 3 5 3 C4.67 3.66 4.34 4.32 4 5 C2.68 3.35 1.36 1.7 0 0 Z " fill="#898989" transform="translate(92,25)"/>
<path d="M0 0 C2.31 0 4.62 0 7 0 C7.33 0.99 7.66 1.98 8 3 C7.34 3.66 6.68 4.32 6 5 C5.34 4.34 4.68 3.68 4 3 C2.67607028 1.98758315 1.34400833 0.98560611 0 0 Z " fill="#6D6D6D" transform="translate(103,67)"/>
<path d="M0 0 C0.99 0.33 1.98 0.66 3 1 C2.34 2.65 1.68 4.3 1 6 C0.34 6 -0.32 6 -1 6 C-1.33 4.68 -1.66 3.36 -2 2 C-1.34 2 -0.68 2 0 2 C0 1.34 0 0.68 0 0 Z " fill="#494949" transform="translate(97,68)"/>
<path d="M0 0 C1.134375 0.020625 2.26875 0.04125 3.4375 0.0625 C3.7675 0.7225 4.0975 1.3825 4.4375 2.0625 C1.4675 1.5675 1.4675 1.5675 -1.5625 1.0625 C-1.8925 2.0525 -2.2225 3.0425 -2.5625 4.0625 C-3.2225 3.0725 -3.8825 2.0825 -4.5625 1.0625 C-3.5625 0.0625 -3.5625 0.0625 0 0 Z " fill="#5B5B5B" transform="translate(98.5625,65.9375)"/>
<path d="M0 0 C2.5654594 2.5654594 2.54046087 4.47686668 3 8 C1.68 7.01 0.36 6.02 -1 5 C-0.67 3.35 -0.34 1.7 0 0 Z " fill="#868686" transform="translate(119,43)"/>
<path d="M0 0 C0.66 0 1.32 0 2 0 C2 0.99 2 1.98 2 3 C3.65 3 5.3 3 7 3 C6.34 3.66 5.68 4.32 5 5 C2.375 4.625 2.375 4.625 0 4 C0 2.68 0 1.36 0 0 Z " fill="#363636" transform="translate(85,27)"/>
<path d="M0 0 C2.64 0 5.28 0 8 0 C6.515 1.98 6.515 1.98 5 4 C3.35 2.68 1.7 1.36 0 0 Z " fill="#8A8A8A" transform="translate(58,24)"/>
</svg>
