<?xml version="1.0" encoding="UTF-8"?>
<svg version="1.1" xmlns="http://www.w3.org/2000/svg" width="160" height="100">
<path d="M0 0 C52.8 0 105.6 0 160 0 C160 33 160 66 160 100 C107.2 100 54.4 100 0 100 C0 67 0 34 0 0 Z " fill="#808080" transform="translate(0,0)"/>
<path d="M0 0 C52.8 0 105.6 0 160 0 C160 33 160 66 160 100 C155.05 100 150.1 100 145 100 C145 78.88 145 57.76 145 36 C132.79 36 120.58 36 108 36 C108 32.37 108 28.74 108 25 C89.52 25 71.04 25 52 25 C52 28.63 52 32.26 52 36 C39.46 36 26.92 36 14 36 C14 57.12 14 78.24 14 100 C9.38 100 4.76 100 0 100 C0 67 0 34 0 0 Z " fill="#FDB800" transform="translate(0,0)"/>
<path d="M0 0 C12.54 0 25.08 0 38 0 C38 21.12 38 42.24 38 64 C25.46 64 12.92 64 0 64 C0 42.88 0 21.76 0 0 Z " fill="#909090" transform="translate(14,36)"/>
<path d="M0 0 C12.21 0 24.42 0 37 0 C37 21.12 37 42.24 37 64 C24.79 64 12.58 64 0 64 C0 42.88 0 21.76 0 0 Z " fill="#767675" transform="translate(108,36)"/>
<path d="M0 0 C18.48 0 36.96 0 56 0 C56 24.75 56 49.5 56 75 C55.67 75 55.34 75 55 75 C55 56.52 55 38.04 55 19 C37.51 19 20.02 19 2 19 C2 37.48 2 55.96 2 75 C1.34 75 0.68 75 0 75 C0 50.25 0 25.5 0 0 Z " fill="#FAFAFA" transform="translate(52,25)"/>
<path d="M0 0 C0 11.22 0 22.44 0 34 C-12.54 34 -25.08 34 -38 34 C-38 27.4 -38 20.8 -38 14 C-37.34 15.32 -36.68 16.64 -36 18 C-35.01 17.67 -34.02 17.34 -33 17 C-32.67 17.99 -32.34 18.98 -32 20 C-31.9484375 19.32453125 -31.896875 18.6490625 -31.84375 17.953125 C-30.93919008 10.83999472 -30.93919008 10.83999472 -28.26171875 8.4453125 C-24.54562787 6.52778161 -21.23053354 5.47118331 -17 6 C-17 5.34 -17 4.68 -17 4 C-15.68 4 -14.36 4 -13 4 C-13 3.34 -13 2.68 -13 2 C-8.16059395 -0.41970302 -6.08522941 0 0 0 Z " fill="#110F08" transform="translate(52,66)"/>
<path d="M0 0 C3.63 0 7.26 0 11 0 C11 12.87 11 25.74 11 39 C-1.21 39 -13.42 39 -26 39 C-26 33.72 -26 28.44 -26 23 C-21.71 23 -17.42 23 -13 23 C-13 22.01 -13 21.02 -13 20 C-14.65 19.67 -16.3 19.34 -18 19 C-18 18.34 -18 17.68 -18 17 C-15.69 17.66 -13.38 18.32 -11 19 C-11 19.66 -11 20.32 -11 21 C-10.34 21 -9.68 21 -9 21 C-9 21.66 -9 22.32 -9 23 C-5.04 23 -1.08 23 3 23 C2.7525 21.948125 2.505 20.89625 2.25 19.8125 C2 16 2 16 3.8125 13.375 C4.534375 12.59125 5.25625 11.8075 6 11 C7.24016669 8.3205355 7.24016669 8.3205355 8 6 C6.02 6 4.04 6 2 6 C1.34 4.02 0.68 2.04 0 0 Z " fill="#2D2D2D" transform="translate(134,61)"/>
<path d="M0 0 C3.78777715 1.45063806 4.73876228 2.55859834 6.8125 6.0625 C8 9 8 9 8 11 C9.98 11 11.96 11 14 11 C12.35087719 16.58164642 12.35087719 16.58164642 10.375 18.9375 C8.38030324 21.92954514 8.79784737 24.49602113 9 28 C5.04 28 1.08 28 -3 28 C-3 27.34 -3 26.68 -3 26 C-3.66 26 -4.32 26 -5 26 C-5 25.34 -5 24.68 -5 24 C-6.65 23.67 -8.3 23.34 -10 23 C-10 22.34 -10 21.68 -10 21 C-10.61875 20.731875 -11.2375 20.46375 -11.875 20.1875 C-14 19 -14 19 -16 16 C-16.265625 13.87890625 -16.265625 13.87890625 -16.25 11.5625 C-16.25515625 10.80066406 -16.2603125 10.03882812 -16.265625 9.25390625 C-15.84816105 5.71160189 -14.76428762 3.72648414 -12.18359375 1.2734375 C-8.32362854 -0.97763345 -4.32987624 -0.50608943 0 0 Z " fill="#E2E2E2" transform="translate(128,56)"/>
<path d="M0 0 C0.66 0 1.32 0 2 0 C2 9.9 2 19.8 2 30 C-3.61 30 -9.22 30 -15 30 C-15.33 27.03 -15.66 24.06 -16 21 C-16.66 21 -17.32 21 -18 21 C-18 19.68 -18 18.36 -18 17 C-18.66 16.67 -19.32 16.34 -20 16 C-18.68 16 -17.36 16 -16 16 C-16 13.69 -16 11.38 -16 9 C-15.01 9.33 -14.02 9.66 -13 10 C-11.8553125 9.2884375 -11.8553125 9.2884375 -10.6875 8.5625 C-7.53572151 6.73007064 -5.58416911 6.74994169 -2 7 C-2 6.01 -2 5.02 -2 4 C-1.34 4 -0.68 4 0 4 C0 2.68 0 1.36 0 0 Z " fill="#393939" transform="translate(50,70)"/>
<path d="M0 0 C2.625 0.375 2.625 0.375 5 1 C5 1.99 5 2.98 5 4 C5.66 3.34 6.32 2.68 7 2 C12.6933523 7.38560353 15.22670973 11.1124392 16 19 C14.06318839 19.08107583 12.1254066 19.13922475 10.1875 19.1875 C9.10855469 19.22230469 8.02960938 19.25710937 6.91796875 19.29296875 C4 19 4 19 2.23828125 17.55078125 C1.82964844 17.03902344 1.42101562 16.52726562 1 16 C-1.44971624 14.77514188 -3.14234461 14.83277192 -5.875 14.8125 C-6.73867187 14.79832031 -7.60234375 14.78414062 -8.4921875 14.76953125 C-11.1241288 15.01140748 -12.73980544 15.67016459 -15 17 C-15 17.66 -15 18.32 -15 19 C-16.32 18.67 -17.64 18.34 -19 18 C-19 12.72 -19 7.44 -19 2 C-17.35 1.67 -15.7 1.34 -14 1 C-13.67 2.32 -13.34 3.64 -13 5 C-13.639375 5.268125 -14.27875 5.53625 -14.9375 5.8125 C-17.33131686 6.88667752 -17.33131686 6.88667752 -18 10 C-15.69 10 -13.38 10 -11 10 C-11 10.99 -11 11.98 -11 13 C-7.04 13 -3.08 13 1 13 C1 12.01 1 11.02 1 10 C1.99 10 2.98 10 4 10 C3.67 9.34 3.34 8.68 3 8 C0.47266765 7.34444881 0.47266765 7.34444881 -2 7 C-2 8.65 -2 10.3 -2 12 C-3.98 12 -5.96 12 -8 12 C-7.01 11.67 -6.02 11.34 -5 11 C-5.33 9.35 -5.66 7.7 -6 6 C-6.99 6 -7.98 6 -9 6 C-9 4.35 -9 2.7 -9 1 C-7.88625 1.20625 -6.7725 1.4125 -5.625 1.625 C-4.42875 1.74875 -3.2325 1.8725 -2 2 C-1.34 1.34 -0.68 0.68 0 0 Z " fill="#808080" transform="translate(129,42)"/>
<path d="M0 0 C1.8871875 0.0309375 1.8871875 0.0309375 3.8125 0.0625 C3.8125 1.3825 3.8125 2.7025 3.8125 4.0625 C3.1525 4.0625 2.4925 4.0625 1.8125 4.0625 C1.8125 5.3825 1.8125 6.7025 1.8125 8.0625 C1.1525 8.0625 0.4925 8.0625 -0.1875 8.0625 C-0.1875 9.0525 -0.1875 10.0425 -0.1875 11.0625 C-0.8475 11.0625 -1.5075 11.0625 -2.1875 11.0625 C-2.5175 11.7225 -2.8475 12.3825 -3.1875 13.0625 C-3.1875 12.4025 -3.1875 11.7425 -3.1875 11.0625 C-3.74179687 11.36285156 -4.29609375 11.66320312 -4.8671875 11.97265625 C-5.95386719 12.54306641 -5.95386719 12.54306641 -7.0625 13.125 C-7.78179687 13.50785156 -8.50109375 13.89070313 -9.2421875 14.28515625 C-10.20511719 14.66994141 -10.20511719 14.66994141 -11.1875 15.0625 C-11.8475 14.7325 -12.5075 14.4025 -13.1875 14.0625 C-13.31125 15.031875 -13.435 16.00125 -13.5625 17 C-13.76875 18.010625 -13.975 19.02125 -14.1875 20.0625 C-14.8475 20.3925 -15.5075 20.7225 -16.1875 21.0625 C-16.1875 22.3825 -16.1875 23.7025 -16.1875 25.0625 C-15.5275 25.0625 -14.8675 25.0625 -14.1875 25.0625 C-13.8575 24.0725 -13.5275 23.0825 -13.1875 22.0625 C-13.1875 26.0225 -13.1875 29.9825 -13.1875 34.0625 C-15.4975 34.0625 -17.8075 34.0625 -20.1875 34.0625 C-20.001875 33.381875 -19.81625 32.70125 -19.625 32 C-19.10226057 28.49017809 -19.57371423 25.54061937 -20.1875 22.0625 C-20.8475 22.0625 -21.5075 22.0625 -22.1875 22.0625 C-21.8575 20.0825 -21.5275 18.1025 -21.1875 16.0625 C-21.8475 15.7325 -22.5075 15.4025 -23.1875 15.0625 C-22.8575 14.0725 -22.5275 13.0825 -22.1875 12.0625 C-21.1975 11.7325 -20.2075 11.4025 -19.1875 11.0625 C-18.8575 11.7225 -18.5275 12.3825 -18.1875 13.0625 C-17.1975 13.3925 -16.2075 13.7225 -15.1875 14.0625 C-15.1875 13.4025 -15.1875 12.7425 -15.1875 12.0625 C-14.5275 12.0625 -13.8675 12.0625 -13.1875 12.0625 C-13.105 10.94875 -13.0225 9.835 -12.9375 8.6875 C-12.56625 6.893125 -12.56625 6.893125 -12.1875 5.0625 C-10.1875 3.75 -10.1875 3.75 -8.1875 3.0625 C-7.8575 2.4025 -7.5275 1.7425 -7.1875 1.0625 C-4.43671116 0.14557039 -2.82801087 -0.04636083 0 0 Z " fill="#373737" transform="translate(48.1875,65.9375)"/>
<path d="M0 0 C1.3921875 0.2784375 1.3921875 0.2784375 2.8125 0.5625 C6.01343771 1.24123881 6.01343771 1.24123881 9 0 C11.00875442 0.27571139 13.01178687 0.60235737 15 1 C15 1.33 15 1.66 15 2 C17.64 2.33 20.28 2.66 23 3 C23.33 4.65 23.66 6.3 24 8 C17.565 8.495 17.565 8.495 11 9 C11 10.32 11 11.64 11 13 C6.71 13 2.42 13 -2 13 C-2 11.68 -2 10.36 -2 9 C-0.68 9 0.64 9 2 9 C2 6.69 2 4.38 2 2 C1.34 2 0.68 2 0 2 C0 1.34 0 0.68 0 0 Z " fill="#525252" transform="translate(110,85)"/>
<path d="M0 0 C2.83804922 -0.0900762 5.63315237 -0.03064722 8.4699707 0.09106445 C9.45803711 0.11362305 10.44610352 0.13618164 11.46411133 0.15942383 C13.90508629 0.21838458 16.34301938 0.30061397 18.7824707 0.40356445 C18.4524707 1.39356445 18.1224707 2.38356445 17.7824707 3.40356445 C18.4424707 3.73356445 19.1024707 4.06356445 19.7824707 4.40356445 C19.7824707 6.05356445 19.7824707 7.70356445 19.7824707 9.40356445 C18.1324707 9.40356445 16.4824707 9.40356445 14.7824707 9.40356445 C14.1224707 8.08356445 13.4624707 6.76356445 12.7824707 5.40356445 C12.1224707 5.40356445 11.4624707 5.40356445 10.7824707 5.40356445 C11.1124707 6.72356445 11.4424707 8.04356445 11.7824707 9.40356445 C9.8024707 9.40356445 7.8224707 9.40356445 5.7824707 9.40356445 C5.7824707 10.39356445 5.7824707 11.38356445 5.7824707 12.40356445 C2.1524707 12.40356445 -1.4775293 12.40356445 -5.2175293 12.40356445 C-1.2175293 10.40356445 -1.2175293 10.40356445 1.7824707 10.40356445 C1.4524707 9.74356445 1.1224707 9.08356445 0.7824707 8.40356445 C-0.8675293 8.73356445 -2.5175293 9.06356445 -4.2175293 9.40356445 C-5.29553305 6.75755523 -5.26016732 5.54131806 -4.4050293 2.77856445 C-2.2175293 0.40356445 -2.2175293 0.40356445 0 0 Z " fill="#CECECE" transform="translate(59.217529296875,28.596435546875)"/>
<path d="M0 0 C0.33 0 0.66 0 1 0 C1.83964817 5.31306785 2.28182609 10.5678861 2.5625 15.9375 C2.60568359 16.71673828 2.64886719 17.49597656 2.69335938 18.29882812 C2.79828077 20.19907117 2.8995245 22.09951669 3 24 C3.66 24.33 4.32 24.66 5 25 C4.94199219 25.72445312 4.88398437 26.44890625 4.82421875 27.1953125 C4.39691129 33.94903744 4.39691129 33.94903744 7.5 39.6875 C8.325 40.450625 9.15 41.21375 10 42 C9.34 42 8.68 42 8 42 C8.33 42.66 8.66 43.32 9 44 C11.02463255 44.65213292 11.02463255 44.65213292 13 45 C13 45.99 13 46.98 13 48 C8.71 48 4.42 48 0 48 C0 32.16 0 16.32 0 0 Z " fill="#797979" transform="translate(108,36)"/>
<path d="M0 0 C12.54 0 25.08 0 38 0 C38 5.61 38 11.22 38 17 C37.34 17 36.68 17 36 17 C36 13.04 36 9.08 36 5 C34.68 5 33.36 5 32 5 C32 4.01 32 3.02 32 2 C21.77 1.67 11.54 1.34 1 1 C1 14.86 1 28.72 1 43 C1.66 43 2.32 43 3 43 C3.33 42.01 3.66 41.02 4 40 C5.32 40.33 6.64 40.66 8 41 C7.67 44.3 7.34 47.6 7 51 C6.01 50.01 5.02 49.02 4 48 C3.34 48 2.68 48 2 48 C0.29720693 45.03045709 -0.24666179 42.91915193 -0.22705078 39.50683594 C-0.22689972 38.62622498 -0.22674866 37.74561401 -0.22659302 36.83831787 C-0.21627045 35.89651672 -0.20594788 34.95471558 -0.1953125 33.984375 C-0.1924826 33.01340881 -0.18965271 32.04244263 -0.18673706 31.04205322 C-0.17555292 27.94457615 -0.15045142 24.8473895 -0.125 21.75 C-0.11496792 19.64844168 -0.10584247 17.54687882 -0.09765625 15.4453125 C-0.07732197 10.29667342 -0.03816965 5.14866135 0 0 Z " fill="#918B7C" transform="translate(14,36)"/>
<path d="M0 0 C0.20625 0.61875 0.4125 1.2375 0.625 1.875 C2.54775888 4.84653645 4.66594527 5.13024659 8 6 C8 6.99 8 7.98 8 9 C16.58 9 25.16 9 34 9 C34 9.66 34 10.32 34 11 C16.84 11 -0.32 11 -18 11 C-18 10.01 -18 9.02 -18 8 C-14.7 7.67 -11.4 7.34 -8 7 C-7.67 6.01 -7.34 5.02 -7 4 C-4.03 4.495 -4.03 4.495 -1 5 C-1.33 3.68 -1.66 2.36 -2 1 C-1.34 0.67 -0.68 0.34 0 0 Z " fill="#D0D0D0" transform="translate(72,33)"/>
<path d="M0 0 C10.06604235 -0.10849626 19.97112823 0.0232751 30 1 C30 2.98 30 4.96 30 7 C26.87501937 7.02895976 23.7500731 7.04678483 20.625 7.0625 C19.29082031 7.07506836 19.29082031 7.07506836 17.9296875 7.08789062 C16.65351562 7.09272461 16.65351562 7.09272461 15.3515625 7.09765625 C14.17327881 7.10551147 14.17327881 7.10551147 12.97119141 7.11352539 C11 7 11 7 9 6 C9 5.01 9 4.02 9 3 C6.03 3 3.06 3 0 3 C0 2.01 0 1.02 0 0 Z " fill="#6E6E6E" transform="translate(73,88)"/>
<path d="M0 0 C0.33 0.66 0.66 1.32 1 2 C2.98 2 4.96 2 7 2 C5.35087719 7.58164642 5.35087719 7.58164642 3.375 9.9375 C1.38030324 12.92954514 1.79784737 15.49602113 2 19 C-1.96 19 -5.92 19 -10 19 C-10 18.34 -10 17.68 -10 17 C-10.66 17 -11.32 17 -12 17 C-12 16.34 -12 15.68 -12 15 C-13.65 14.67 -15.3 14.34 -17 14 C-14.48744345 13.22690568 -12.72227184 13.01772733 -10.0625 13.1875 C-6.93698317 13.20529084 -6.93698317 13.20529084 -4.25 11.5625 C-1.15164806 8.0338214 -0.65319288 4.56260099 0 0 Z " fill="#8B8B8B" transform="translate(135,65)"/>
<path d="M0 0 C0.66 0 1.32 0 2 0 C1.67 1.98 1.34 3.96 1 6 C1.66 6 2.32 6 3 6 C3.33 5.01 3.66 4.02 4 3 C4 8.28 4 13.56 4 19 C0.04 19 -3.92 19 -8 19 C-7.6875 16.125 -7.6875 16.125 -7 13 C-6.01 12.34 -5.02 11.68 -4 11 C-4.33 10.67 -4.66 10.34 -5 10 C-5.36760731 7.67182036 -5.70241581 5.3381615 -6 3 C-4.68 3.66 -3.36 4.32 -2 5 C-1.34 3.35 -0.68 1.7 0 0 Z " fill="#171716" transform="translate(48,81)"/>
<path d="M0 0 C1.32 0.66 2.64 1.32 4 2 C2.576875 2.309375 2.576875 2.309375 1.125 2.625 C-2.29166667 3.70833333 -2.29166667 3.70833333 -3.375 7.125 C-3.58125 8.07375 -3.7875 9.0225 -4 10 C-4.66 10 -5.32 10 -6 10 C-6 10.66 -6 11.32 -6 12 C-8.38564077 11.42415568 -10.66682784 10.77772405 -13 10 C-12.814375 10.53625 -12.62875 11.0725 -12.4375 11.625 C-11.88580676 14.61990614 -12.39402556 17.03745829 -13 20 C-12.34 20 -11.68 20 -11 20 C-10.34 22.64 -9.68 25.28 -9 28 C-9.66 28 -10.32 28 -11 28 C-11 29.32 -11 30.64 -11 32 C-11.66 32 -12.32 32 -13 32 C-13.04898437 31.07316406 -13.09796875 30.14632812 -13.1484375 29.19140625 C-13.22320313 27.99386719 -13.29796875 26.79632813 -13.375 25.5625 C-13.44460937 24.36753906 -13.51421875 23.17257813 -13.5859375 21.94140625 C-13.72257812 20.97074219 -13.85921875 20.00007813 -14 19 C-14.66 18.67 -15.32 18.34 -16 18 C-15.67 17.67 -15.34 17.34 -15 17 C-15.33 17 -15.66 17 -16 17 C-16.33 14.03 -16.66 11.06 -17 8 C-8.57142857 3.42857143 -8.57142857 3.42857143 -4 4 C-4 3.34 -4 2.68 -4 2 C-2.68 2 -1.36 2 0 2 C0 1.34 0 0.68 0 0 Z " fill="#515151" transform="translate(39,68)"/>
<path d="M0 0 C1.98 0 3.96 0 6 0 C6 1.32 6 2.64 6 4 C6.04125 4.845625 6.0825 5.69125 6.125 6.5625 C6 9 6 9 4 12 C5.32 12 6.64 12 8 12 C8 12.66 8 13.32 8 14 C3.05 14 -1.9 14 -7 14 C-7 8 -7 8 -4.625 5.625 C-2 4 -2 4 0 4 C0 2.68 0 1.36 0 0 Z " fill="#ABABAB" transform="translate(123,61)"/>
<path d="M0 0 C3.07603007 -0.36188589 5.93238776 -0.48300762 9 0 C12.73777243 3.11481036 14.15263545 5.41658176 14.9375 10.1875 C15 14 15 14 13 17 C12.34 17 11.68 17 11 17 C11 16.34 11 15.68 11 15 C9.68 15 8.36 15 7 15 C7.33 12.36 7.66 9.72 8 7 C7.01 6.34 6.02 5.68 5 5 C6.32 5 7.64 5 9 5 C9 4.34 9 3.68 9 3 C7.02 3 5.04 3 3 3 C2.67 4.32 2.34 5.64 2 7 C2 6.34 2 5.68 2 5 C0.35 5.33 -1.3 5.66 -3 6 C-2.01 4.02 -1.02 2.04 0 0 Z " fill="#DADADA" transform="translate(120,58)"/>
<path d="M0 0 C1.32 0 2.64 0 4 0 C4 1.65 4 3.3 4 5 C3.01 5.495 3.01 5.495 2 6 C2 7.32 2 8.64 2 10 C2.66 10 3.32 10 4 10 C4.33 9.01 4.66 8.02 5 7 C5 10.96 5 14.92 5 19 C2.69 19 0.38 19 -2 19 C-1.814375 18.319375 -1.62875 17.63875 -1.4375 16.9375 C-0.91476057 13.42767809 -1.38621423 10.47811937 -2 7 C-2.66 7 -3.32 7 -4 7 C-3.34 5.35 -2.68 3.7 -2 2 C-1.34 2 -0.68 2 0 2 C0 1.34 0 0.68 0 0 Z " fill="#0B0B0B" transform="translate(30,81)"/>
<path d="M0 0 C1.8871875 0.0309375 1.8871875 0.0309375 3.8125 0.0625 C3.8125 1.3825 3.8125 2.7025 3.8125 4.0625 C3.1525 4.0625 2.4925 4.0625 1.8125 4.0625 C1.8125 5.3825 1.8125 6.7025 1.8125 8.0625 C-1.5 9.1875 -1.5 9.1875 -5.1875 10.0625 C-6.1775 9.4025 -7.1675 8.7425 -8.1875 8.0625 C-8.1875 7.4025 -8.1875 6.7425 -8.1875 6.0625 C-8.8475 5.7325 -9.5075 5.4025 -10.1875 5.0625 C-9.5275 4.4025 -8.8675 3.7425 -8.1875 3.0625 C-7.8575 2.4025 -7.5275 1.7425 -7.1875 1.0625 C-4.43671116 0.14557039 -2.82801087 -0.04636083 0 0 Z " fill="#080808" transform="translate(48.1875,65.9375)"/>
<path d="M0 0 C0.66 0 1.32 0 2 0 C2.02699725 2.27076842 2.04639453 4.54162821 2.0625 6.8125 C2.07410156 8.07707031 2.08570313 9.34164062 2.09765625 10.64453125 C2 14 2 14 1 17 C0.34 17 -0.32 17 -1 17 C-0.67 15.02 -0.34 13.04 0 11 C-0.99 11.495 -0.99 11.495 -2 12 C-2.65772428 15.02934491 -2.65772428 15.02934491 -3 18 C-5.76223278 15.23776722 -5.57856291 12.79293383 -6 9 C-7.32 9.33 -8.64 9.66 -10 10 C-9.34 9.01 -8.68 8.02 -8 7 C-4.875 6.8125 -4.875 6.8125 -2 7 C-2 6.01 -2 5.02 -2 4 C-1.34 4 -0.68 4 0 4 C0 2.68 0 1.36 0 0 Z " fill="#434343" transform="translate(50,70)"/>
<path d="M0 0 C0.33 0 0.66 0 1 0 C1.83964817 5.31306785 2.28182609 10.5678861 2.5625 15.9375 C2.60568359 16.71673828 2.64886719 17.49597656 2.69335938 18.29882812 C2.79828077 20.19907117 2.8995245 22.09951669 3 24 C3.66 24.33 4.32 24.66 5 25 C5 25.66 5 26.32 5 27 C3.68 26.67 2.36 26.34 1 26 C1 28.31 1 30.62 1 33 C1.66 33.33 2.32 33.66 3 34 C2.34 34 1.68 34 1 34 C2.21044132 38.60742865 2.21044132 38.60742865 4 43 C3.01 43 2.02 43 1 43 C1 44.65 1 46.3 1 48 C0.67 48 0.34 48 0 48 C0 32.16 0 16.32 0 0 Z " fill="#616161" transform="translate(108,36)"/>
<path d="M0 0 C7.26 0 14.52 0 22 0 C21.67 1.32 21.34 2.64 21 4 C18.62492145 4.02719556 16.25016036 4.04693247 13.875 4.0625 C12.87726563 4.07506836 12.87726563 4.07506836 11.859375 4.08789062 C7.79318646 4.10782292 3.9879908 3.78890161 0 3 C0 2.01 0 1.02 0 0 Z " fill="#A7A7A7" transform="translate(85,34)"/>
<path d="M0 0 C2.97 0.495 2.97 0.495 6 1 C5.979375 1.804375 5.95875 2.60875 5.9375 3.4375 C5.70366379 5.93354885 5.70366379 5.93354885 7 7 C7 5.35 7 3.7 7 2 C7.66 1.67 8.32 1.34 9 1 C10 3 10 3 10 9 C6.04 9 2.08 9 -2 9 C-2 8.01 -2 7.02 -2 6 C-1.34 6 -0.68 6 0 6 C0 4.02 0 2.04 0 0 Z " fill="#1B1A18" transform="translate(16,91)"/>
<path d="M0 0 C3.63 0 7.26 0 11 0 C11 1.32 11 2.64 11 4 C10.34 4 9.68 4 9 4 C9 4.66 9 5.32 9 6 C4.91569792 8.72286806 2.85409123 8.38524534 -2 8 C-2.66 7.01 -3.32 6.02 -4 5 C-2.02 5 -0.04 5 2 5 C2 4.01 2 3.02 2 2 C1.34 2 0.68 2 0 2 C0 1.34 0 0.68 0 0 Z " fill="#F3F3F3" transform="translate(69,68)"/>
<path d="M0 0 C4.29 0.33 8.58 0.66 13 1 C13 1.66 13 2.32 13 3 C18.28 3.33 23.56 3.66 29 4 C29 4.66 29 5.32 29 6 C13.05063291 8.02531646 13.05063291 8.02531646 9 6 C9 5.01 9 4.02 9 3 C6.03 3 3.06 3 0 3 C0 2.01 0 1.02 0 0 Z " fill="#555555" transform="translate(73,88)"/>
<path d="M0 0 C1.093125 0.185625 2.18625 0.37125 3.3125 0.5625 C6.93624133 1.2578068 6.93624133 1.2578068 10 0 C10.66 0.33 11.32 0.66 12 1 C12 2.65 12 4.3 12 6 C10.35 6 8.7 6 7 6 C7 7.65 7 9.3 7 11 C5.02 11 3.04 11 1 11 C1.99 10.67 2.98 10.34 4 10 C3.67 8.35 3.34 6.7 3 5 C2.01 5 1.02 5 0 5 C0 3.35 0 1.7 0 0 Z " fill="#8B8B8B" transform="translate(120,43)"/>
<path d="M0 0 C1.08667969 0.02707031 2.17335938 0.05414062 3.29296875 0.08203125 C4.54013672 0.13423828 4.54013672 0.13423828 5.8125 0.1875 C3.8325 1.1775 3.8325 1.1775 1.8125 2.1875 C1.8125 3.1775 1.8125 4.1675 1.8125 5.1875 C0.8225 5.1875 -0.1675 5.1875 -1.1875 5.1875 C-0.8575 6.5075 -0.5275 7.8275 -0.1875 9.1875 C-1.8375 9.1875 -3.4875 9.1875 -5.1875 9.1875 C-4.1975 8.8575 -3.2075 8.5275 -2.1875 8.1875 C-2.5175 7.5275 -2.8475 6.8675 -3.1875 6.1875 C-4.8375 6.5175 -6.4875 6.8475 -8.1875 7.1875 C-8.875 5.375 -8.875 5.375 -9.1875 3.1875 C-6.73890766 -0.45040862 -4.13570138 -0.13340972 0 0 Z " fill="#F0F0F0" transform="translate(63.1875,30.8125)"/>
<path d="M0 0 C-0.33 0.66 -0.66 1.32 -1 2 C-10.57 2 -20.14 2 -30 2 C-30 1.34 -30 0.68 -30 0 C-19.85101699 -1.14727634 -10.15293327 -0.7903481 0 0 Z " fill="#282726" transform="translate(138,98)"/>
<path d="M0 0 C0.66 0 1.32 0 2 0 C2 3.3 2 6.6 2 10 C-10.21 10 -22.42 10 -35 10 C-35 9.67 -35 9.34 -35 9 C-23.78 9 -12.56 9 -1 9 C-1 6.69 -1 4.38 -1 2 C-0.67 1.34 -0.34 0.68 0 0 Z " fill="#E8A900" transform="translate(50,26)"/>
<path d="M0 0 C0.20625 0.61875 0.4125 1.2375 0.625 1.875 C2.54775888 4.84653645 4.66594527 5.13024659 8 6 C8 6.66 8 7.32 8 8 C3.05 8 -1.9 8 -7 8 C-7 6.68 -7 5.36 -7 4 C-4.03 4.495 -4.03 4.495 -1 5 C-1.33 3.68 -1.66 2.36 -2 1 C-1.34 0.67 -0.68 0.34 0 0 Z " fill="#CFCFCF" transform="translate(72,33)"/>
<path d="M0 0 C0.66 0 1.32 0 2 0 C3 2 3 2 3 9 C13.89 9 24.78 9 36 9 C36 9.33 36 9.66 36 10 C24.12 10 12.24 10 0 10 C0 6.7 0 3.4 0 0 Z " fill="#E8A900" transform="translate(108,26)"/>
<path d="M0 0 C1.98 0 3.96 0 6 0 C6 1.32 6 2.64 6 4 C6.061875 5.299375 6.061875 5.299375 6.125 6.625 C6 9 6 9 4 11 C1.875 10.625 1.875 10.625 0 10 C0.33 9.34 0.66 8.68 1 8 C1.66 8 2.32 8 3 8 C3.33 7.01 3.66 6.02 4 5 C0.535 6.485 0.535 6.485 -3 8 C-2.67 8.66 -2.34 9.32 -2 10 C-3.32 10 -4.64 10 -6 10 C-6 9.01 -6 8.02 -6 7 C-2.66666667 4 -2.66666667 4 0 4 C0 2.68 0 1.36 0 0 Z " fill="#686868" transform="translate(123,61)"/>
<path d="M0 0 C0.33 0 0.66 0 1 0 C1.144375 0.9075 1.28875 1.815 1.4375 2.75 C1.73851657 4.48920684 2.05894927 6.22842843 2.5 7.9375 C3.22473917 10.92704907 3.58992541 13.95373165 4 17 C3.34 16.67 2.68 16.34 2 16 C1.67 17.65 1.34 19.3 1 21 C0.34 20.67 -0.32 20.34 -1 20 C-0.67 18.35 -0.34 16.7 0 15 C-0.66 15 -1.32 15 -2 15 C-1.67 13.68 -1.34 12.36 -1 11 C-1.66 11 -2.32 11 -3 11 C-2.01 7.37 -1.02 3.74 0 0 Z " fill="#252525" transform="translate(22,77)"/>
<path d="M0 0 C3.63 0 7.26 0 11 0 C10.01 0.495 10.01 0.495 9 1 C9 2.98 9 4.96 9 7 C6.69 6.67 4.38 6.34 2 6 C1.34 4.02 0.68 2.04 0 0 Z " fill="#4C4C4C" transform="translate(134,61)"/>
<path d="M0 0 C0.99 0.33 1.98 0.66 3 1 C2.67 3.31 2.34 5.62 2 8 C2.66 8 3.32 8 4 8 C4.66 10.64 5.32 13.28 6 16 C5.34 16 4.68 16 4 16 C4 17.32 4 18.64 4 20 C3.34 20 2.68 20 2 20 C1.95101563 19.07316406 1.90203125 18.14632812 1.8515625 17.19140625 C1.77679687 15.99386719 1.70203125 14.79632813 1.625 13.5625 C1.55539063 12.36753906 1.48578125 11.17257813 1.4140625 9.94140625 C1.27742188 8.97074219 1.14078125 8.00007813 1 7 C0.34 6.67 -0.32 6.34 -1 6 C-0.67 5.67 -0.34 5.34 0 5 C-0.33 4.01 -0.66 3.02 -1 2 C-0.67 1.34 -0.34 0.68 0 0 Z " fill="#606060" transform="translate(24,80)"/>
<path d="M0 0 C8.57142857 1 8.57142857 1 12 2 C12 2.99 12 3.98 12 5 C8.04 5 4.08 5 0 5 C0 3.35 0 1.7 0 0 Z " fill="#757575" transform="translate(109,79)"/>
<path d="M0 0 C5.28 0 10.56 0 16 0 C12 4 12 4 9.4921875 4.20703125 C8.19667969 4.01173828 8.19667969 4.01173828 6.875 3.8125 C6.00617188 3.69519531 5.13734375 3.57789062 4.2421875 3.45703125 C2 3 2 3 0 2 C0 1.34 0 0.68 0 0 Z " fill="#EAEAEA" transform="translate(116,75)"/>
<path d="M0 0 C2.78650641 0.29331646 4.56342536 0.66880545 6.8125 2.375 C8 4 8 4 8 7 C5.03 6.67 2.06 6.34 -1 6 C-1.042721 4.33388095 -1.04063832 2.66617115 -1 1 C-0.67 0.67 -0.34 0.34 0 0 Z " fill="#F4F4F4" transform="translate(71,59)"/>
<path d="M0 0 C0.99 0.495 0.99 0.495 2 1 C2.3911938 3.06265822 2.50674519 5.09443267 2.65625 7.1875 C2.7696875 7.785625 2.883125 8.38375 3 9 C3.66 9.33 4.32 9.66 5 10 C5 11.32 5 12.64 5 14 C3.35 14 1.7 14 0 14 C0 9.38 0 4.76 0 0 Z " fill="#848484" transform="translate(35,86)"/>
<path d="M0 0 C2.97 0 5.94 0 9 0 C9.33 1.65 9.66 3.3 10 5 C9.67 4.34 9.34 3.68 9 3 C7.02 3 5.04 3 3 3 C2.67 4.32 2.34 5.64 2 7 C2 6.34 2 5.68 2 5 C0.35 5.33 -1.3 5.66 -3 6 C-2.01 4.02 -1.02 2.04 0 0 Z " fill="#A7A7A7" transform="translate(120,58)"/>
<path d="M0 0 C0.33 0.66 0.66 1.32 1 2 C2.98 2 4.96 2 7 2 C5.52307692 7.66153846 5.52307692 7.66153846 2.875 9.375 C2.25625 9.58125 1.6375 9.7875 1 10 C0 9 0 9 -0.09765625 6.93359375 C-0.08605469 6.10988281 -0.07445312 5.28617187 -0.0625 4.4375 C-0.05347656 3.61121094 -0.04445312 2.78492187 -0.03515625 1.93359375 C-0.02355469 1.29550781 -0.01195312 0.65742187 0 0 Z " fill="#858585" transform="translate(135,65)"/>
<path d="M0 0 C5.28 0 10.56 0 16 0 C16 0.66 16 1.32 16 2 C12.53777385 3.06723961 9.35960734 3.10173486 5.75 3.0625 C4.67234375 3.05347656 3.5946875 3.04445313 2.484375 3.03515625 C1.66453125 3.02355469 0.8446875 3.01195313 0 3 C0 2.01 0 1.02 0 0 Z " fill="#747474" transform="translate(125,95)"/>
<path d="M0 0 C4.29 0 8.58 0 13 0 C13.33 0.99 13.66 1.98 14 3 C13.01 3 12.02 3 11 3 C8.68254852 3.26851042 6.37116403 3.57132301 4.05859375 3.87890625 C2 4 2 4 0 3 C0 2.01 0 1.02 0 0 Z " fill="#9B9B9B" transform="translate(120,88)"/>
<path d="M0 0 C1.32 0.33 2.64 0.66 4 1 C3.67 4.3 3.34 7.6 3 11 C2.01 10.01 1.02 9.02 0 8 C-0.66 8 -1.32 8 -2 8 C-1.125 1.125 -1.125 1.125 0 0 Z " fill="#5C5C5C" transform="translate(18,76)"/>
<path d="M0 0 C0.66 0 1.32 0 2 0 C2 5.61 2 11.22 2 17 C1.34 17 0.68 17 0 17 C0 13.04 0 9.08 0 5 C-1.32 5 -2.64 5 -4 5 C-4 4.34 -4 3.68 -4 3 C-2.68 3 -1.36 3 0 3 C0 2.01 0 1.02 0 0 Z " fill="#747473" transform="translate(50,36)"/>
<path d="M0 0 C4.85714286 1.21428571 4.85714286 1.21428571 7 4 C7 4.99 7 5.98 7 7 C5.68 7 4.36 7 3 7 C2.67 7.66 2.34 8.32 2 9 C1.34 9 0.68 9 0 9 C0 6.03 0 3.06 0 0 Z " fill="#DFDFDF" transform="translate(15,70)"/>
<path d="M0 0 C0.99 0.33 1.98 0.66 3 1 C3.38063221 3.3260857 3.71269945 5.66055264 4 8 C3 9 3 9 0.4375 9.0625 C-0.366875 9.041875 -1.17125 9.02125 -2 9 C-3.4606285 6.35261084 -4 5.10551666 -4 2 C-3.34 2 -2.68 2 -2 2 C-1.71125 2.639375 -1.4225 3.27875 -1.125 3.9375 C-0.17176549 6.15206079 -0.17176549 6.15206079 2 7 C1.34 4.69 0.68 2.38 0 0 Z " fill="#EEEEEE" transform="translate(31,62)"/>
<path d="M0 0 C2.97 0.495 2.97 0.495 6 1 C5.00738215 3.97785354 3.86806182 5.5341584 2 8 C1.30419733 9.31836295 0.62775567 10.64791086 0 12 C-0.66 12 -1.32 12 -2 12 C-2 10.68 -2 9.36 -2 8 C-2.66 7.67 -3.32 7.34 -4 7 C-2.68 7 -1.36 7 0 7 C0 4.69 0 2.38 0 0 Z " fill="#4B4B4B" transform="translate(34,79)"/>
<path d="M0 0 C0.33 0 0.66 0 1 0 C1.21192221 5.19209404 0.5912689 9.126739 -1 14 C-3.76223278 11.23776722 -3.57856291 8.79293383 -4 5 C-5.32 5.33 -6.64 5.66 -8 6 C-7.34 5.01 -6.68 4.02 -6 3 C-2.875 2.8125 -2.875 2.8125 0 3 C0 2.01 0 1.02 0 0 Z " fill="#6C6C6C" transform="translate(48,74)"/>
<path d="M0 0 C1.32 0.66 2.64 1.32 4 2 C2.576875 2.309375 2.576875 2.309375 1.125 2.625 C-2.29166667 3.70833333 -2.29166667 3.70833333 -3.375 7.125 C-3.58125 8.07375 -3.7875 9.0225 -4 10 C-4.66 10 -5.32 10 -6 10 C-6 10.66 -6 11.32 -6 12 C-7.32 11.67 -8.64 11.34 -10 11 C-10 10.34 -10 9.68 -10 9 C-8.68 9 -7.36 9 -6 9 C-6.7763932 5.9254644 -6.7763932 5.9254644 -9 4 C-7.35 4 -5.7 4 -4 4 C-4 3.34 -4 2.68 -4 2 C-2.68 2 -1.36 2 0 2 C0 1.34 0 0.68 0 0 Z " fill="#525252" transform="translate(39,68)"/>
<path d="M0 0 C1.32 0 2.64 0 4 0 C4.33 3.96 4.66 7.92 5 12 C3.35 12 1.7 12 0 12 C0 8.04 0 4.08 0 0 Z " fill="#313131" transform="translate(65,60)"/>
<path d="M0 0 C1.65 0 3.3 0 5 0 C5.33 0.99 5.66 1.98 6 3 C5.01 3 4.02 3 3 3 C3 3.99 3 4.98 3 6 C-0.63 6 -4.26 6 -8 6 C-8 5.01 -8 4.02 -8 3 C-7.34 3 -6.68 3 -6 3 C-6 3.66 -6 4.32 -6 5 C-4.02 4.34 -2.04 3.68 0 3 C0 2.01 0 1.02 0 0 Z " fill="#535353" transform="translate(127,49)"/>
<path d="M0 0 C-0.66 0 -1.32 0 -2 0 C-2 1.32 -2 2.64 -2 4 C-3.32 4.33 -4.64 4.66 -6 5 C-6 5.99 -6 6.98 -6 8 C-9.63 8 -13.26 8 -17 8 C-17 7.67 -17 7.34 -17 7 C-14.36 6.67 -11.72 6.34 -9 6 C-9 5.01 -9 4.02 -9 3 C-8.01 3 -7.02 3 -6 3 C-6 2.01 -6 1.02 -6 0 C-3.50907189 -1.24546405 -2.58919267 -0.7767578 0 0 Z " fill="#C3C3C3" transform="translate(71,33)"/>
<path d="M0 0 C1.98567708 0.55338542 3.97135417 1.10677083 5.95703125 1.66015625 C8.19244159 2.19563817 8.19244159 2.19563817 11 1 C11 1.99 11 2.98 11 4 C10.34 4 9.68 4 9 4 C8.67 4.66 8.34 5.32 8 6 C8 5.34 8 4.68 8 4 C6.6078125 4.5259375 6.6078125 4.5259375 5.1875 5.0625 C2 6 2 6 -1 5 C-0.67 3.35 -0.34 1.7 0 0 Z " fill="#2E2E2E" transform="translate(37,73)"/>
<path d="M0 0 C1.32 0.66 2.64 1.32 4 2 C4 2.66 4 3.32 4 4 C4.99 3.67 5.98 3.34 7 3 C7 4.32 7 5.64 7 7 C5.35 7.33 3.7 7.66 2 8 C0.4375 5.6875 0.4375 5.6875 -1 3 C-0.67 2.01 -0.34 1.02 0 0 Z " fill="#E8E8E8" transform="translate(36,60)"/>
<path d="M0 0 C0 0.33 0 0.66 0 1 C-5.28 1 -10.56 1 -16 1 C-16 1.66 -16 2.32 -16 3 C-17.32 3 -18.64 3 -20 3 C-20 2.01 -20 1.02 -20 0 C-13.40924767 -1.87457064 -6.67035373 -1.13537936 0 0 Z " fill="#383838" transform="translate(141,94)"/>
<path d="M0 0 C1.32 0 2.64 0 4 0 C4.125 2.375 4.125 2.375 4 5 C2 7 2 7 -1.125 7.125 C-2.548125 7.063125 -2.548125 7.063125 -4 7 C-3.34 5.35 -2.68 3.7 -2 2 C-1.34 2 -0.68 2 0 2 C0 1.34 0 0.68 0 0 Z " fill="#181818" transform="translate(30,81)"/>
<path d="M0 0 C1.65 0 3.3 0 5 0 C5 0.66 5 1.32 5 2 C3.68 1.67 2.36 1.34 1 1 C1 3.31 1 5.62 1 8 C1.66 8.33 2.32 8.66 3 9 C2.34 9 1.68 9 1 9 C2.21044132 13.60742865 2.21044132 13.60742865 4 18 C3.01 18 2.02 18 1 18 C1 19.65 1 21.3 1 23 C0.67 23 0.34 23 0 23 C0 15.41 0 7.82 0 0 Z " fill="#545454" transform="translate(108,61)"/>
<path d="M0 0 C5.28 0.33 10.56 0.66 16 1 C16 1.66 16 2.32 16 3 C11.05 3 6.1 3 1 3 C0.67 2.01 0.34 1.02 0 0 Z " fill="#4F4F4F" transform="translate(87,88)"/>
<path d="M0 0 C0.33 0 0.66 0 1 0 C1 1.65 1 3.3 1 5 C3.97 5.33 6.94 5.66 10 6 C10.33 5.01 10.66 4.02 11 3 C11 4.65 11 6.3 11 8 C7.37 8 3.74 8 0 8 C0 5.36 0 2.72 0 0 Z " fill="#B3B3B3" transform="translate(69,60)"/>
<path d="M0 0 C0 2.97 0 5.94 0 9 C-1.32 9 -2.64 9 -4 9 C-4.33 6.69 -4.66 4.38 -5 2 C-1.125 0 -1.125 0 0 0 Z " fill="#4A4A4A" transform="translate(141,75)"/>
<path d="M0 0 C4.29 0 8.58 0 13 0 C13 0.99 13 1.98 13 3 C11.35 2.67 9.7 2.34 8 2 C7.67 2.99 7.34 3.98 7 5 C7 4.01 7 3.02 7 2 C4.69 2 2.38 2 0 2 C0 1.34 0 0.68 0 0 Z " fill="#6E6E6E" transform="translate(111,50)"/>
<path d="M0 0 C2.31 0 4.62 0 7 0 C7 1.32 7 2.64 7 4 C4.69 4.33 2.38 4.66 0 5 C0 3.35 0 1.7 0 0 Z " fill="#838383" transform="translate(112,88)"/>
<path d="M0 0 C8.81299886 -0.44811859 8.81299886 -0.44811859 13 3 C15.7906929 6.58803373 15.14465334 10.66039979 15 15 C14.67 15 14.34 15 14 15 C13.91363281 14.39671875 13.82726562 13.7934375 13.73828125 13.171875 C13.03413055 9.16661416 12.53517488 6.61162843 9.8125 3.5 C6.50865988 1.73795193 3.71293914 1.29121091 0 1 C0 0.67 0 0.34 0 0 Z " fill="#EAEAEA" transform="translate(120,56)"/>
<path d="M0 0 C0.33 0.66 0.66 1.32 1 2 C1.99 2 2.98 2 4 2 C4 4.31 4 6.62 4 9 C2.68 9 1.36 9 0 9 C0 6.03 0 3.06 0 0 Z " fill="#242424" transform="translate(108,85)"/>
<path d="M0 0 C0 1.65 0 3.3 0 5 C-2 5 -2 5 -3.625 3.5 C-4.07875 3.005 -4.5325 2.51 -5 2 C-5 2.99 -5 3.98 -5 5 C-5.99 5 -6.98 5 -8 5 C-8 3.68 -8 2.36 -8 1 C-5.29120665 -0.35439668 -2.99066732 -0.06501451 0 0 Z " fill="#AEAEAE" transform="translate(25,37)"/>
<path d="M0 0 C2.125 0.9375 2.125 0.9375 4 2 C4 2.66 4 3.32 4 4 C3.34 4 2.68 4 2 4 C2.33 5.65 2.66 7.3 3 9 C2.34 9 1.68 9 1 9 C-2 3.25 -2 3.25 -2 1 C-1.34 0.67 -0.68 0.34 0 0 Z " fill="#E6E6E6" transform="translate(47,55)"/>
<path d="M0 0 C0.33 1.32 0.66 2.64 1 4 C0.38125 4.268125 -0.2375 4.53625 -0.875 4.8125 C-3.2995233 5.95556848 -3.2995233 5.95556848 -5 9 C-5 6.36 -5 3.72 -5 1 C-3 0 -3 0 0 0 Z " fill="#AFAFAF" transform="translate(115,43)"/>
<path d="M0 0 C3.96 0.33 7.92 0.66 12 1 C11.01 1.495 11.01 1.495 10 2 C9.34786708 4.02463255 9.34786708 4.02463255 9 6 C9 5.01 9 4.02 9 3 C6.03 3 3.06 3 0 3 C0 2.01 0 1.02 0 0 Z " fill="#4E4E4E" transform="translate(73,88)"/>
<path d="M0 0 C0.33 0.66 0.66 1.32 1 2 C2.98 1.67 4.96 1.34 7 1 C6.67 1.99 6.34 2.98 6 4 C2.04 4 -1.92 4 -6 4 C-4.60804085 1.2160817 -2.84424221 1.02101003 0 0 Z " fill="#8B8B8B" transform="translate(117,46)"/>
<path d="M0 0 C1.5 1.375 1.5 1.375 3 3 C3 3.66 3 4.32 3 5 C1.02 5.99 -0.96 6.98 -3 8 C-3.66 7.01 -4.32 6.02 -5 5 C-3.35 3.35 -1.7 1.7 0 0 Z " fill="#ABABAB" transform="translate(134,72)"/>
<path d="M0 0 C0.99 0 1.98 0 3 0 C3.66 1.65 4.32 3.3 5 5 C5.99 5 6.98 5 8 5 C8 5.66 8 6.32 8 7 C6.35 7.33 4.7 7.66 3 8 C0 2.25 0 2.25 0 0 Z " fill="#ECECEC" transform="translate(20,67)"/>
<path d="M0 0 C1.65 0.33 3.3 0.66 5 1 C4.67 2.32 4.34 3.64 4 5 C2.35 4.67 0.7 4.34 -1 4 C-0.67 2.68 -0.34 1.36 0 0 Z " fill="#7C7C7C" transform="translate(55,33)"/>
<path d="M0 0 C2 2 2 2 2.125 5.125 C2.08375 6.07375 2.0425 7.0225 2 8 C0.35 8 -1.3 8 -3 8 C-3 7.34 -3 6.68 -3 6 C-2.34 6 -1.68 6 -1 6 C-1.0309375 4.7934375 -1.0309375 4.7934375 -1.0625 3.5625 C-1 1 -1 1 0 0 Z " fill="#080807" transform="translate(24,92)"/>
<path d="M0 0 C3.63 0 7.26 0 11 0 C10.67 1.32 10.34 2.64 10 4 C8.35 3.67 6.7 3.34 5 3 C5 2.34 5 1.68 5 1 C3.35 1.33 1.7 1.66 0 2 C0 1.34 0 0.68 0 0 Z " fill="#D5D5D5" transform="translate(69,68)"/>
<path d="M0 0 C1.65 0 3.3 0 5 0 C5 1.65 5 3.3 5 5 C3.35 5 1.7 5 0 5 C0 3.35 0 1.7 0 0 Z " fill="#6C6C6C" transform="translate(74,33)"/>
<path d="M0 0 C2.97 0 5.94 0 9 0 C9 0.66 9 1.32 9 2 C8.34 2 7.68 2 7 2 C6.67 2.99 6.34 3.98 6 5 C6 4.34 6 3.68 6 3 C4.02 3 2.04 3 0 3 C0 2.01 0 1.02 0 0 Z " fill="#4F4F4F" transform="translate(127,85)"/>
<path d="M0 0 C0.33 0 0.66 0 1 0 C1 2.97 1 5.94 1 9 C0.01 9 -0.98 9 -2 9 C-2.125 5.625 -2.125 5.625 -2 2 C-1.34 1.34 -0.68 0.68 0 0 Z " fill="#E6E6E6" transform="translate(65,62)"/>
<path d="M0 0 C2 2 2 2 2.125 4.625 C2.08375 5.40875 2.0425 6.1925 2 7 C0.68 7 -0.64 7 -2 7 C-2.125 4.625 -2.125 4.625 -2 2 C-1.34 1.34 -0.68 0.68 0 0 Z " fill="#6D6D6D" transform="translate(135,77)"/>
<path d="M0 0 C2.31 0.66 4.62 1.32 7 2 C7 2.66 7 3.32 7 4 C7.66 4 8.32 4 9 4 C9 4.66 9 5.32 9 6 C7.68 6 6.36 6 5 6 C5 5.01 5 4.02 5 3 C3.35 2.67 1.7 2.34 0 2 C0 1.34 0 0.68 0 0 Z " fill="#464646" transform="translate(116,78)"/>
<path d="M0 0 C4.81449408 0.48144941 7.60171741 0.8008587 12 3 C9.03 3 6.06 3 3 3 C3 2.34 3 1.68 3 1 C2.34 1 1.68 1 1 1 C0.67 2.32 0.34 3.64 0 5 C0 3.35 0 1.7 0 0 Z " fill="#656565" transform="translate(109,79)"/>
<path d="M0 0 C1.98 0.495 1.98 0.495 4 1 C4 2.65 4 4.3 4 6 C2.35 6 0.7 6 -1 6 C-0.67 4.02 -0.34 2.04 0 0 Z " fill="#C8C8C8" transform="translate(128,43)"/>
<path d="M0 0 C0.268125 0.598125 0.53625 1.19625 0.8125 1.8125 C1.98493467 3.97224808 3.19369282 5.35790256 5 7 C2.36 6.67 -0.28 6.34 -3 6 C-2.34 5.67 -1.68 5.34 -1 5 C-1.33 3.68 -1.66 2.36 -2 1 C-1.34 0.67 -0.68 0.34 0 0 Z " fill="#E7E7E7" transform="translate(72,33)"/>
<path d="M0 0 C1.98 0 3.96 0 6 0 C6 0.99 6 1.98 6 3 C5.01 3 4.02 3 3 3 C3.33 4.32 3.66 5.64 4 7 C2.35 7 0.7 7 -1 7 C-0.01 6.67 0.98 6.34 2 6 C1.34 4.02 0.68 2.04 0 0 Z " fill="#D7D7D7" transform="translate(59,33)"/>
<path d="M0 0 C0.66 0.33 1.32 0.66 2 1 C2 2.98 2 4.96 2 7 C0.68 7 -0.64 7 -2 7 C-2.125 4.625 -2.125 4.625 -2 2 C-1.34 1.34 -0.68 0.68 0 0 Z " fill="#0F0F0F" transform="translate(43,92)"/>
<path d="M0 0 C0.66 0.33 1.32 0.66 2 1 C2 2.65 2 4.3 2 6 C0.02 6.33 -1.96 6.66 -4 7 C-3.67 6.01 -3.34 5.02 -3 4 C-2.01 4 -1.02 4 0 4 C0 2.68 0 1.36 0 0 Z " fill="#525252" transform="translate(50,60)"/>
<path d="M0 0 C0.66 0 1.32 0 2 0 C2.99 2.64 3.98 5.28 5 8 C4.01 8 3.02 8 2 8 C2 6.68 2 5.36 2 4 C1.01 4.33 0.02 4.66 -1 5 C-0.67 3.35 -0.34 1.7 0 0 Z " fill="#F0F0F0" transform="translate(42,57)"/>
<path d="M0 0 C2.31 0 4.62 0 7 0 C5.73293765 2.53412471 4.59334288 2.97838008 2 4 C1.34 3.67 0.68 3.34 0 3 C0 2.01 0 1.02 0 0 Z " fill="#878787" transform="translate(120,88)"/>
<path d="M0 0 C0.99 0.33 1.98 0.66 3 1 C2.67 2.98 2.34 4.96 2 7 C1.54625 6.505 1.0925 6.01 0.625 5.5 C-0.87635519 3.77390663 -0.87635519 3.77390663 -3 4 C-3 3.34 -3 2.68 -3 2 C-2.01 1.34 -1.02 0.68 0 0 Z " fill="#757575" transform="translate(19,80)"/>
<path d="M0 0 C-0.66 1.32 -1.32 2.64 -2 4 C-3.32 4 -4.64 4 -6 4 C-6 3.01 -6 2.02 -6 1 C-3 0 -3 0 0 0 Z " fill="#737373" transform="translate(141,70)"/>
<path d="M0 0 C1.65 0 3.3 0 5 0 C5.33 0.99 5.66 1.98 6 3 C5.01 3 4.02 3 3 3 C2.67 3.99 2.34 4.98 2 6 C2 5.01 2 4.02 2 3 C1.34 3 0.68 3 0 3 C0 2.01 0 1.02 0 0 Z " fill="#666666" transform="translate(127,49)"/>
<path d="M0 0 C1.98 0 3.96 0 6 0 C6.33 1.32 6.66 2.64 7 4 C4.69 3.67 2.38 3.34 0 3 C0 2.01 0 1.02 0 0 Z " fill="#A0A0A0" transform="translate(85,34)"/>
<path d="M0 0 C-0.66 0 -1.32 0 -2 0 C-2 1.32 -2 2.64 -2 4 C-3.32 4 -4.64 4 -6 4 C-6 2.68 -6 1.36 -6 0 C-3.50907189 -1.24546405 -2.58919267 -0.7767578 0 0 Z " fill="#868686" transform="translate(71,33)"/>
<path d="M0 0 C1.32 0.33 2.64 0.66 4 1 C3.67 1.5775 3.34 2.155 3 2.75 C1.72924102 5.19883862 1.72924102 5.19883862 2 9 C1.34 9 0.68 9 0 9 C0 6.03 0 3.06 0 0 Z " fill="#F7F7F7" transform="translate(15,70)"/>
<path d="M0 0 C1.32 0 2.64 0 4 0 C3.67 1.65 3.34 3.3 3 5 C2.01 5 1.02 5 0 5 C0 3.35 0 1.7 0 0 Z " fill="#C5C5C5" transform="translate(120,43)"/>
<path d="M0 0 C1.32 0 2.64 0 4 0 C4 0.66 4 1.32 4 2 C4.99 2.33 5.98 2.66 7 3 C4.69 3.33 2.38 3.66 0 4 C0 2.68 0 1.36 0 0 Z " fill="#D7D7D7" transform="translate(65,37)"/>
<path d="M0 0 C1.65 0.33 3.3 0.66 5 1 C4.67 1.99 4.34 2.98 4 4 C2.35 3.67 0.7 3.34 -1 3 C-0.67 2.01 -0.34 1.02 0 0 Z " fill="#3A3A3A" transform="translate(29,73)"/>
<path d="M0 0 C0.66 0 1.32 0 2 0 C2.1875 3.375 2.1875 3.375 2 7 C1.01 7.66 0.02 8.32 -1 9 C-0.67 6.03 -0.34 3.06 0 0 Z " fill="#202020" transform="translate(143,62)"/>
<path d="M0 0 C1.32 0 2.64 0 4 0 C4 1.65 4 3.3 4 5 C2.68 5 1.36 5 0 5 C0 3.35 0 1.7 0 0 Z " fill="#5C5C5C" transform="translate(116,43)"/>
<path d="M0 0 C0.66 1.32 1.32 2.64 2 4 C2.99 3.67 3.98 3.34 5 3 C5 3.99 5 4.98 5 6 C3.68 6.33 2.36 6.66 1 7 C0.67 4.69 0.34 2.38 0 0 Z " fill="#43413C" transform="translate(14,80)"/>
<path d="M0 0 C-0.66 1.65 -1.32 3.3 -2 5 C-3.32 4.67 -4.64 4.34 -6 4 C-5.67 3.01 -5.34 2.02 -5 1 C-2 0 -2 0 0 0 Z " fill="#1C1C1C" transform="translate(46,66)"/>
</svg>
