<?xml version="1.0" encoding="UTF-8"?>
<svg version="1.1" xmlns="http://www.w3.org/2000/svg" width="160" height="100">
<path d="M0 0 C52.8 0 105.6 0 160 0 C160 33 160 66 160 100 C107.2 100 54.4 100 0 100 C0 67 0 34 0 0 Z " fill="#FDB800" transform="translate(0,0)"/>
<path d="M0 0 C0.66 0 1.32 0 2 0 C2.50015625 1.1034375 3.0003125 2.206875 3.515625 3.34375 C5.37252179 6.58760836 5.92922211 6.96997302 9.609375 8.53125 C10.98503854 8.87301019 12.36565663 9.19529746 13.75 9.5 C21.38464923 11.59096952 26.82679336 13.66947992 31.06152344 20.78320312 C34.70086992 27.33720527 37.62802425 33.88407274 40 41 C6.67 41 -26.66 41 -61 41 C-58.96993413 30.84967066 -52.95386303 21.61185322 -45 15 C-39.90464452 11.85985399 -34.46395368 9.41929972 -29 7 C-26.2160817 5.60804085 -26.02101003 3.84424221 -25 1 C-24.4121875 1.804375 -24.4121875 1.804375 -23.8125 2.625 C-19.547496 8.21362593 -15.85430109 12.09713261 -10 16 C-9.7525 15.236875 -9.505 14.47375 -9.25 13.6875 C-7.87869328 10.73919055 -6.7648921 9.64165468 -4 8 C-3.34 8 -2.68 8 -2 8 C-1.34 5.36 -0.68 2.72 0 0 Z " fill="#FCFCFC" transform="translate(92,59)"/>
<path d="M0 0 C5.63006356 0.0934192 10.48728357 0.60329302 14.875 4.375 C18.36642149 8.7332013 18.3796768 12.71111858 18.3125 18.0625 C18.30855225 18.86034912 18.30460449 19.65819824 18.30053711 20.48022461 C18.15176152 26.60616842 17.4541145 33.7958855 12.875 38.375 C12.37258678 40.7045947 12.37258678 40.7045947 12.875 43.375 C15.27083651 46.18831378 15.27083651 46.18831378 17.875 48.375 C17.42769531 48.90867188 16.98039062 49.44234375 16.51953125 49.9921875 C11.43875689 56.25378148 7.43541244 62.69376268 4.875 70.375 C-5.355 70.375 -15.585 70.375 -26.125 70.375 C-26.125 64.105 -26.125 57.835 -26.125 51.375 C-23.155 50.385 -20.185 49.395 -17.125 48.375 C-15.805 47.715 -14.485 47.055 -13.125 46.375 C-12.12417465 42.95256686 -12.12417465 42.95256686 -12.125 39.375 C-12.785 38.385 -13.445 37.395 -14.125 36.375 C-16.80211155 28.34366535 -17.65164258 19.01742775 -14.9375 10.875 C-13.06869837 7.2662796 -11.17316795 5.03237718 -8.125 2.375 C-5.4008438 -0.3491562 -3.8031266 0.0441198 0 0 Z " fill="#6A6A6A" transform="translate(26.125,29.625)"/>
<path d="M0 0 C5.15760378 2.38777953 7.86137821 5.8179549 10 11 C12.33441999 17.89714996 12.21960614 24.78959843 12 32 C11.35546875 32.25523438 10.7109375 32.51046875 10.046875 32.7734375 C9.37140625 33.17820313 8.6959375 33.58296875 8 34 C7.18129815 37.56206661 7.18129815 37.56206661 7 41 C7.97839844 41.03867188 7.97839844 41.03867188 8.9765625 41.078125 C10.28753906 41.16320312 10.28753906 41.16320312 11.625 41.25 C12.48351562 41.29640625 13.34203125 41.3428125 14.2265625 41.390625 C18.18290443 42.25990576 20.0989525 43.0989525 23 46 C23.75252307 49.94163991 23.56238106 53.75585379 23.375 57.75 C23.189375 63.31875 23.189375 63.31875 23 69 C13.76 69 4.52 69 -5 69 C-9 61 -9 61 -10.81640625 57.296875 C-11.39261719 56.12640625 -11.96882813 54.9559375 -12.5625 53.75 C-13.43068359 51.97882813 -13.43068359 51.97882813 -14.31640625 50.171875 C-15.71221627 47.54218187 -17.12705474 45.29990846 -19 43 C-17.68 42.34 -16.36 41.68 -15 41 C-16.12451727 38.0280615 -17.22293791 35.66559313 -19 33 C-21.10449106 24.19940104 -20.4611855 13.93099644 -16 6 C-11.39517061 -0.41885309 -7.65263217 -0.82412962 0 0 Z " fill="#7A7A78" transform="translate(137,31)"/>
<path d="M0 0 C5.19482373 1.90249027 8.46822304 5.65128982 10.90625 10.52734375 C10.97658769 12.4011398 10.9905522 14.27735477 10.96875 16.15234375 C10.95972656 17.15523437 10.95070312 18.158125 10.94140625 19.19140625 C10.92980469 19.96226563 10.91820312 20.733125 10.90625 21.52734375 C11.56625 21.52734375 12.22625 21.52734375 12.90625 21.52734375 C12.35643084 27.57535446 11.00195426 32.83335481 8.90625 38.52734375 C8.24625 38.52734375 7.58625 38.52734375 6.90625 38.52734375 C7.009375 39.24921875 7.1125 39.97109375 7.21875 40.71484375 C6.77586943 44.70076886 4.85296356 45.915484 1.90625 48.52734375 C-0.97837111 51.24879334 -0.97837111 51.24879334 -3.09375 54.52734375 C-11.58726883 50.55487392 -15.81163824 45.2045712 -19.0859375 36.4921875 C-19.41851562 35.51378906 -19.75109375 34.53539062 -20.09375 33.52734375 C-20.45984375 32.57730469 -20.8259375 31.62726562 -21.203125 30.6484375 C-23.23139737 23.54058829 -23.57045057 13.56692391 -20.40625 6.77734375 C-14.85678615 -1.02190274 -9.23705346 -2.08523035 0 0 Z " fill="#787878" transform="translate(85.09375,20.47265625)"/>
<path d="M0 0 C1.70928263 0.06082856 3.41757113 0.14983084 5.125 0.25 C6.55199219 0.31960937 6.55199219 0.31960937 8.0078125 0.390625 C12.08943175 1.22186861 14.03674138 2.00187951 17 5 C17.74958097 8.94247035 17.56239849 12.75548231 17.375 16.75 C17.189375 22.31875 17.189375 22.31875 17 28 C7.76 28 -1.48 28 -11 28 C-15 20 -15 20 -16 16 C-15.43410156 15.89816406 -14.86820313 15.79632813 -14.28515625 15.69140625 C-9.22896492 14.16158426 -4.32225835 10.37180092 -1.75 5.7578125 C-0.8236828 3.36400078 -0.8236828 3.36400078 0 0 Z " fill="#666665" transform="translate(143,72)"/>
<path d="M0 0 C0.66 0 1.32 0 2 0 C1.67 0.99 1.34 1.98 1 3 C0.85367596 7.53604515 0.89363455 11.57453821 2 16 C2 14.02 2 12.04 2 10 C2.99 10.33 3.98 10.66 5 11 C5 11.66 5 12.32 5 13 C7.95905318 14.64391844 10.602552 15.73865785 14 16 C15.7087646 14.62485459 15.7087646 14.62485459 17 13 C17.66 13 18.32 13 19 13 C19.66 11.68 20.32 10.36 21 9 C22 12 22 12 20.8203125 14.8125 C20.26085938 15.864375 19.70140625 16.91625 19.125 18 C16.80764155 22.39069859 16.80764155 22.39069859 15 27 C4.77 27 -5.46 27 -16 27 C-16 20.73 -16 14.46 -16 8 C-13.03 7.01 -10.06 6.02 -7 5 C-3.1844662 3.35575624 -3.1844662 3.35575624 -1.375 1.375 C-0.92125 0.92125 -0.4675 0.4675 0 0 Z " fill="#3A3938" transform="translate(16,73)"/>
<path d="M0 0 C5.14040349 2.37981643 7.8935653 5.81492996 10 11 C11.31312079 15.41686083 12 19.38171392 12 24 C10.35 24.33 8.7 24.66 7 25 C6.67 23.68 6.34 22.36 6 21 C2.04 21.495 2.04 21.495 -2 22 C-2 20.68 -2 19.36 -2 18 C0.64 17.34 3.28 16.68 6 16 C5.67 15.236875 5.34 14.47375 5 13.6875 C4 11 4 11 4 8 C1.9367016 8.06041869 -0.12577414 8.14931638 -2.1875 8.25 C-3.91033203 8.31960937 -3.91033203 8.31960937 -5.66796875 8.390625 C-9.57553064 9.10525531 -11.32470723 10.07783464 -14 13 C-14 14.65 -14 16.3 -14 18 C-10.7 17.67 -7.4 17.34 -4 17 C-4 17.66 -4 18.32 -4 19 C-4.66 19 -5.32 19 -6 19 C-6 20.32 -6 21.64 -6 23 C-9.81489674 24.46726798 -12.29011622 23.43336419 -16 22 C-15.87625 23.299375 -15.7525 24.59875 -15.625 25.9375 C-15.52058594 27.03384766 -15.52058594 27.03384766 -15.4140625 28.15234375 C-15.27742188 28.76207031 -15.14078125 29.37179688 -15 30 C-14.34 30.33 -13.68 30.66 -13 31 C-13.020625 31.94875 -13.04125 32.8975 -13.0625 33.875 C-13.22551826 36.90666283 -13.22551826 36.90666283 -12 39 C-8.63647978 40.24953205 -5.30116397 40.10109961 -1.75 40.0625 C-0.13351563 40.04896484 -0.13351563 40.04896484 1.515625 40.03515625 C2.74539062 40.01775391 2.74539062 40.01775391 4 40 C3.67 40.66 3.34 41.32 3 42 C2.01 42 1.02 42 0 42 C0 42.99 0 43.98 0 45 C-5.445 45.495 -5.445 45.495 -11 46 C-11.33 47.32 -11.66 48.64 -12 50 C-14.31 48.02 -16.62 46.04 -19 44 C-17.68 43.01 -16.36 42.02 -15 41 C-16.12451727 38.0280615 -17.22293791 35.66559313 -19 33 C-21.10449106 24.19940104 -20.4611855 13.93099644 -16 6 C-11.39517061 -0.41885309 -7.65263217 -0.82412962 0 0 Z " fill="#625F59" transform="translate(137,31)"/>
<path d="M0 0 C3 1 3 1 4.1796875 2.703125 C5.1819244 5.50938831 5.19578721 7.77693736 5.125 10.75 C5.10695313 11.73484375 5.08890625 12.7196875 5.0703125 13.734375 C5.04710938 14.48203125 5.02390625 15.2296875 5 16 C5.66 16 6.32 16 7 16 C6.14285714 24.57142857 6.14285714 24.57142857 4 28 C-0.87362847 27.54663921 -3.39042389 26.2910841 -7 23 C-7 23.66 -7 24.32 -7 25 C-12.625 26.125 -12.625 26.125 -16 25 C-16.33 24.34 -16.66 23.68 -17 23 C-17.680625 23.99 -17.680625 23.99 -18.375 25 C-18.91125 25.66 -19.4475 26.32 -20 27 C-20.66 27 -21.32 27 -22 27 C-22 26.34 -22 25.68 -22 25 C-22.66 25 -23.32 25 -24 25 C-24 23.02 -24 21.04 -24 19 C-20.5980513 16.90649311 -17.94727588 16.82057837 -14 17 C-14 16.34 -14 15.68 -14 15 C-16.31 14.34 -18.62 13.68 -21 13 C-21 12.34 -21 11.68 -21 11 C-20.34 11 -19.68 11 -19 11 C-19 8.69 -19 6.38 -19 4 C-9.02209131 0.80706922 -9.02209131 0.80706922 -3.625 2.9375 C-1.00479466 6.26314524 -1.69220617 9.9217317 -2 14 C-4.64 14.66 -7.28 15.32 -10 16 C-10 17.32 -10 18.64 -10 20 C-9.34 20 -8.68 20 -8 20 C-8 19.34 -8 18.68 -8 18 C-5.36 18 -2.72 18 0 18 C0.33 18.99 0.66 19.98 1 21 C1.66 21 2.32 21 3 21 C2.67 20.34 2.34 19.68 2 19 C1.68744353 16.14792222 1.48962518 13.29503146 1.28125 10.43359375 C1.26165078 8.05456695 1.26165078 8.05456695 0 7 C-0.04092937 4.66702567 -0.04241723 2.33294775 0 0 Z " fill="#989898" transform="translate(91,26)"/>
<path d="M0 0 C4.25841322 1.22610659 7.06228608 2.94507184 10 6.25 C12.35008291 12.71272801 10.8213159 18.62539436 9 25 C8.34 25 7.68 25 7 25 C6.67 20.38 6.34 15.76 6 11 C3.3084375 11.0309375 3.3084375 11.0309375 0.5625 11.0625 C-3.40069463 11.07657051 -7.20027572 10.91921136 -11.125 10.375 C-13.043125 10.189375 -13.043125 10.189375 -15 10 C-17.24324836 11.81193006 -17.24324836 11.81193006 -17.1953125 14.3828125 C-17.17210937 15.28773437 -17.14890625 16.19265625 -17.125 17.125 C-17.10695313 18.03507812 -17.08890625 18.94515625 -17.0703125 19.8828125 C-17.04710937 20.58148438 -17.02390625 21.28015625 -17 22 C-18.32 21.67 -19.64 21.34 -21 21 C-21.6249225 10.27216367 -21.6249225 10.27216367 -19.25 5.4375 C-13.39816403 -0.90198897 -8.41517265 -0.90377749 0 0 Z " fill="#22201D" transform="translate(33,30)"/>
<path d="M0 0 C2.79173055 -0.02690104 5.58320348 -0.04679053 8.375 -0.0625 C9.56609375 -0.07506836 9.56609375 -0.07506836 10.78125 -0.08789062 C16.7734375 -0.11328125 16.7734375 -0.11328125 19 1 C19 2.32 19 3.64 19 5 C18.34 5 17.68 5 17 5 C16.67 4.34 16.34 3.68 16 3 C15.01 3 14.02 3 13 3 C13.47645208 7.28806873 14.65902484 9.26647487 18 12 C18.66 12 19.32 12 20 12 C20.33 10.35 20.66 8.7 21 7 C21.33 7 21.66 7 22 7 C22.16868683 11.38585753 22.05053352 14.15524966 20 18 C19.41649495 20.45709375 19.41649495 20.45709375 20 23 C22.39583651 25.81331378 22.39583651 25.81331378 25 28 C24.01 28.99 23.02 29.98 22 31 C21.01 30.67 20.02 30.34 19 30 C19 28.02 19 26.04 19 24 C18.40832031 24.37253906 17.81664063 24.74507812 17.20703125 25.12890625 C16.41683594 25.60199219 15.62664063 26.07507813 14.8125 26.5625 C14.03519531 27.03816406 13.25789063 27.51382813 12.45703125 28.00390625 C9.46475201 29.21699243 8.04007302 28.97483333 5 28 C0.83618316 25.3232606 -1.22956935 22.62279114 -3 18 C-2.505 16.515 -2.505 16.515 -2 15 C-1.01 15.33 -0.02 15.66 1 16 C1.33 15.01 1.66 14.02 2 13 C2.66 13.66 3.32 14.32 4 15 C3.34 15 2.68 15 2 15 C2.33 17.31 2.66 19.62 3 22 C7.53140653 22.93380961 7.53140653 22.93380961 12 22 C12 21.34 12 20.68 12 20 C10.35 19.67 8.7 19.34 7 19 C7 18.67 7 18.34 7 18 C8.98 17.67 10.96 17.34 13 17 C12.67 16.01 12.34 15.02 12 14 C9.69 13.67 7.38 13.34 5 13 C5 12.34 5 11.68 5 11 C7.64 11 10.28 11 13 11 C12.505 10.401875 12.01 9.80375 11.5 9.1875 C10 7 10 7 10 4 C9.34 4 8.68 4 8 4 C7.67 4.99 7.34 5.98 7 7 C6.67 6.34 6.34 5.68 6 5 C3.6859378 4.26924352 1.35171131 3.59861742 -1 3 C-0.67 2.01 -0.34 1.02 0 0 Z " fill="#3E3E3E" transform="translate(19,50)"/>
<path d="M0 0 C0.33 0 0.66 0 1 0 C1.05945801 0.60360352 1.11891602 1.20720703 1.18017578 1.82910156 C2.55844284 18.91396937 2.55844284 18.91396937 10 34 C13.42634382 36.50021262 13.42634382 36.50021262 17.5 36.875 C20.26417543 35.9075386 22.51876861 34.54238708 25 33 C25.66 33 26.32 33 27 33 C27.66 35.97 28.32 38.94 29 42 C27.02 42.495 27.02 42.495 25 43 C24.175 43.825 23.35 44.65 22.5 45.5 C20 48 20 48 18.0625 49.0625 C13.97905378 48.93875921 10.99599788 45.92959802 8.125 43.25 C7.568125 42.63125 7.568125 42.63125 7 42 C7.33 43.98 7.66 45.96 8 48 C7.01 48.495 7.01 48.495 6 49 C5.04404864 44.22024321 4.76130721 39.85342006 5 35 C5.66 34.01 6.32 33.02 7 32 C5.515 32.495 5.515 32.495 4 33 C3.731875 32.030625 3.46375 31.06125 3.1875 30.0625 C2.61124193 27.98548351 1.99680504 25.99197363 1.19921875 23.98828125 C-1.73536013 16.46407664 -2.34337988 7.80496685 0 0 Z " fill="#838383" transform="translate(11,41)"/>
<path d="M0 0 C1.14242743 4.68395246 1.08252495 9.21355271 1 14 C1.66 14 2.32 14 3 14 C3 13.34 3 12.68 3 12 C3.66 12 4.32 12 5 12 C4.49287967 15.71888239 3.88391785 18.73454239 2 22 C1.67 20.68 1.34 19.36 1 18 C0.67 18.99 0.34 19.98 0 21 C-0.99 21.33 -1.98 21.66 -3 22 C-6.61139896 18.12435233 -6.61139896 18.12435233 -8 16 C-7.8125 13.625 -7.8125 13.625 -7 12 C-5.35 11.67 -3.7 11.34 -2 11 C-2.33 11.99 -2.66 12.98 -3 14 C-2.34 14 -1.68 14 -1 14 C-1 12.68 -1 11.36 -1 10 C-2.17755859 10.03480469 -2.17755859 10.03480469 -3.37890625 10.0703125 C-9.34792603 10.17284781 -14.37403518 10.04580539 -20 8 C-19.34 7.67 -18.68 7.34 -18 7 C-17.62633887 5.00714063 -17.29259485 3.00636471 -17 1 C-13.77436826 -2.22563174 -3.87791247 -1.93895624 0 0 Z " fill="#777674" transform="translate(39,41)"/>
<path d="M0 0 C5.445 0.495 5.445 0.495 11 1 C11 1.99 11 2.98 11 4 C10.34 3.67 9.68 3.34 9 3 C8.67 3.66 8.34 4.32 8 5 C8 4.34 8 3.68 8 3 C7.25234375 3.62648438 6.5046875 4.25296875 5.734375 4.8984375 C4.74953125 5.71570313 3.7646875 6.53296875 2.75 7.375 C1.77546875 8.18710938 0.8009375 8.99921875 -0.203125 9.8359375 C-2.4552682 11.57851757 -4.40711386 12.876416 -7 14 C-7 14.66 -7 15.32 -7 16 C-7.66 16 -8.32 16 -9 16 C-9.33 17.32 -9.66 18.64 -10 20 C-6.66428115 17.35537738 -6.66428115 17.35537738 -3.40234375 14.62109375 C0.79647436 11 0.79647436 11 3 11 C3.28875 10.360625 3.5775 9.72125 3.875 9.0625 C5 7 5 7 7 6 C6.75 7.875 6.75 7.875 6 10 C3.9375 11.25 3.9375 11.25 2 12 C2.3403125 13.6396875 2.3403125 13.6396875 2.6875 15.3125 C3 19 3 19 1.75 20.625 C0.88375 21.305625 0.88375 21.305625 0 22 C-1.02304948 23.65261839 -2.02616054 25.31791365 -3 27 C-4 28 -4 28 -7.5625 28.0625 C-8.696875 28.041875 -9.83125 28.02125 -11 28 C-11.6509259 26.75264433 -12.29551669 25.50198168 -12.9375 24.25 C-13.29714844 23.55390625 -13.65679687 22.8578125 -14.02734375 22.140625 C-14.95558182 20.09775567 -15.53166578 18.18884624 -16 16 C-15.43410156 15.89816406 -14.86820313 15.79632813 -14.28515625 15.69140625 C-9.22896492 14.16158426 -4.32225835 10.37180092 -1.75 5.7578125 C-0.8236828 3.36400078 -0.8236828 3.36400078 0 0 Z M0 17 C1 19 1 19 1 19 Z " fill="#6F6F6F" transform="translate(143,72)"/>
<path d="M0 0 C3.33333333 1.66666667 6.66666667 3.33333333 10 5 C10 6.65 10 8.3 10 10 C9.34 10 8.68 10 8 10 C8.103125 10.721875 8.20625 11.44375 8.3125 12.1875 C7.86961943 16.17342511 5.94671356 17.38814025 3 20 C0.11537889 22.72144959 0.11537889 22.72144959 -2 26 C-6.24999073 23.97843361 -10.11081998 21.79652581 -13 18 C-13.57989235 14.90892162 -13.43450735 12.1036239 -13 9 C-12.525625 9.825 -12.05125 10.65 -11.5625 11.5 C-8.65073592 14.34074545 -8.11484254 14.34293183 -4.25 14.3125 C-2.83176684 14.23243845 -1.41396973 14.13595863 0 14 C0.66 12.35 1.32 10.7 2 9 C1.01 8.67 0.02 8.34 -1 8 C-0.67 7.01 -0.34 6.02 0 5 C0.99 5 1.98 5 3 5 C2.67 4.34 2.34 3.68 2 3 C1.29875 3.350625 0.5975 3.70125 -0.125 4.0625 C-3.50268586 5.1639193 -5.58080593 4.79516141 -9 4 C-9 3.34 -9 2.68 -9 2 C-6.03 2 -3.06 2 0 2 C0 1.34 0 0.68 0 0 Z " fill="#6F6E6B" transform="translate(84,49)"/>
<path d="M0 0 C5.14040349 2.37981643 7.8935653 5.81492996 10 11 C11.31312079 15.41686083 12 19.38171392 12 24 C10.35 24.33 8.7 24.66 7 25 C6.67 23.68 6.34 22.36 6 21 C2.04 21.495 2.04 21.495 -2 22 C-2 20.68 -2 19.36 -2 18 C0.64 17.34 3.28 16.68 6 16 C5.67 15.236875 5.34 14.47375 5 13.6875 C4 11 4 11 4 8 C-0.62 8 -5.24 8 -10 8 C-10.33 6.68 -10.66 5.36 -11 4 C-11.99 3.67 -12.98 3.34 -14 3 C-9.57048319 -0.84776 -5.64988831 -0.78669331 0 0 Z " fill="#6F6E6C" transform="translate(137,31)"/>
<path d="M0 0 C0.99 2.97 1.98 5.94 3 9 C-0.3 9 -3.6 9 -7 9 C-6.814375 10.464375 -6.62875 11.92875 -6.4375 13.4375 C-6.24537146 14.95318071 -6.08937803 16.47480724 -6 18 C-7 19 -7 19 -10.5625 19.0625 C-11.696875 19.041875 -12.83125 19.02125 -14 19 C-14.66 20.32 -15.32 21.64 -16 23 C-16.33 21.35 -16.66 19.7 -17 18 C-16.01 17.67 -15.02 17.34 -14 17 C-13.67 16.34 -13.34 15.68 -13 15 C-12.01 15 -11.02 15 -10 15 C-10 13.68 -10 12.36 -10 11 C-9.34 11 -8.68 11 -8 11 C-8 10.34 -8 9.68 -8 9 C-9.06541016 9.2165625 -9.06541016 9.2165625 -10.15234375 9.4375 C-11.07144531 9.623125 -11.99054688 9.80875 -12.9375 10 C-13.85402344 10.185625 -14.77054687 10.37125 -15.71484375 10.5625 C-18 11 -18 11 -19 11 C-19.375 8.3125 -19.375 8.3125 -19 5 C-13.99784811 -1.57425677 -7.70572526 -0.51447721 0 0 Z " fill="#A4A4A4" transform="translate(141,39)"/>
<path d="M0 0 C2.62020534 3.32564524 1.93279383 6.9842317 1.625 11.0625 C-0.41659095 11.0897616 -2.45828963 11.10901345 -4.5 11.125 C-5.63695313 11.13660156 -6.77390625 11.14820313 -7.9453125 11.16015625 C-11.1879156 11.067827 -14.19432612 10.67639906 -17.375 10.0625 C-17.375 9.4025 -17.375 8.7425 -17.375 8.0625 C-16.715 8.0625 -16.055 8.0625 -15.375 8.0625 C-15.375 5.7525 -15.375 3.4425 -15.375 1.0625 C-5.39709131 -2.13043078 -5.39709131 -2.13043078 0 0 Z " fill="#C1C1C1" transform="translate(87.375,28.9375)"/>
<path d="M0 0 C0.98484375 0.02707031 1.9696875 0.05414062 2.984375 0.08203125 C3.73203125 0.11683594 4.4796875 0.15164062 5.25 0.1875 C5.25 0.8475 5.25 1.5075 5.25 2.1875 C7.56 2.8475 9.87 3.5075 12.25 4.1875 C12.25 5.1775 12.25 6.1675 12.25 7.1875 C11.0434375 6.94 11.0434375 6.94 9.8125 6.6875 C5.59112648 6.09502652 1.50335455 6.10243291 -2.75 6.1875 C-3.08 7.1775 -3.41 8.1675 -3.75 9.1875 C-6.25 10.3125 -6.25 10.3125 -8.75 11.1875 C-10.00949049 12.22156673 -10.00949049 12.22156673 -9.84765625 14.47265625 C-9.83605469 15.38917969 -9.82445312 16.30570313 -9.8125 17.25 C-9.80347656 18.16910156 -9.79445313 19.08820312 -9.78515625 20.03515625 C-9.77355469 20.74542969 -9.76195312 21.45570312 -9.75 22.1875 C-11.07 21.8575 -12.39 21.5275 -13.75 21.1875 C-14.3749225 10.45966367 -14.3749225 10.45966367 -12 5.625 C-8.07047832 1.36801818 -5.91703384 -0.21132264 0 0 Z " fill="#191815" transform="translate(25.75,29.8125)"/>
<path d="M0 0 C0.66 0 1.32 0 2 0 C5 4.38461538 5 4.38461538 5 7 C1.71303767 7.79953138 0.28976808 8.09658936 -3 7 C-3 7.66 -3 8.32 -3 9 C-0.69 9.33 1.62 9.66 4 10 C4 10.66 4 11.32 4 12 C4.66 12.33 5.32 12.66 6 13 C5.34 13.66 4.68 14.32 4 15 C4 16.32 4 17.64 4 19 C1.34002109 19.73888303 -0.53464544 20.10341212 -3.25 19.5 C-5 18 -5 18 -5.75 14.375 C-5.87375 12.704375 -5.87375 12.704375 -6 11 C-5.34 11 -4.68 11 -4 11 C-4.33 9.35 -4.66 7.7 -5 6 C-6.32 6 -7.64 6 -9 6 C-9 4.33333333 -9 2.66666667 -9 1 C-6.66705225 0.95758277 -4.33297433 0.95907063 -2 1 C-1.67 1.33 -1.34 1.66 -1 2 C-0.67 1.34 -0.34 0.68 0 0 Z " fill="#797979" transform="translate(27,54)"/>
<path d="M0 0 C0.66 0 1.32 0 2 0 C2 0.66 2 1.32 2 2 C5.3 2 8.6 2 12 2 C12.33 1.34 12.66 0.68 13 0 C13.33 0.99 13.66 1.98 14 3 C13.01 3.33 12.02 3.66 11 4 C11 4.66 11 5.32 11 6 C11.66 6.33 12.32 6.66 13 7 C12.34 8.98 11.68 10.96 11 13 C7.96663814 13.22893297 5.02534949 13.36475845 2 13 C-0.0625 11 -0.0625 11 -1 9 C-1 10.65 -1 12.3 -1 14 C-1.99 14.495 -1.99 14.495 -3 15 C-3.70074844 11.846632 -4 9.27275026 -4 6 C-3.34 6 -2.68 6 -2 6 C-1.67 5.34 -1.34 4.68 -1 4 C-0.01 4 0.98 4 2 4 C1.01 3.67 0.02 3.34 -1 3 C-0.67 2.01 -0.34 1.02 0 0 Z " fill="#8E8E8E" transform="translate(73,51)"/>
<path d="M0 0 C0.88429688 -0.02578125 1.76859375 -0.0515625 2.6796875 -0.078125 C5.125 0.25 5.125 0.25 6.93359375 1.56640625 C8.70886197 4.07506396 8.32387659 6.26685119 8.125 9.25 C1.86460391 10.18213141 -2.89697063 10.45927172 -8.875 8.25 C-8.215 7.92 -7.555 7.59 -6.875 7.25 C-6.50133887 5.25714063 -6.16759485 3.25636471 -5.875 1.25 C-4.21733202 -0.40766798 -2.27153595 0.03950497 0 0 Z " fill="#C3C3C3" transform="translate(27.875,40.75)"/>
<path d="M0 0 C2.57718299 0.77049801 4.61213008 1.72646937 7 3 C4 4 4 4 1 4.4375 C-2.16735776 4.82856035 -2.16735776 4.82856035 -5 7 C-7.1875 7.625 -7.1875 7.625 -9 8 C-9.33 7.01 -9.66 6.02 -10 5 C-12.51686936 5.40311361 -12.51686936 5.40311361 -15 7 C-17.09382072 12.68322767 -17.25030181 17.99275665 -17 24 C-17.66 23.67 -18.32 23.34 -19 23 C-19.68858357 9.03705538 -19.68858357 9.03705538 -17.25 5.3125 C-11.73930178 -0.35127317 -7.7764189 -0.85431081 0 0 Z " fill="#B6B4AD" transform="translate(83,20)"/>
<path d="M0 0 C1.46921926 2.93843852 1 5.75397821 1 9 C1.33 9.33 1.66 9.66 2 10 C2.23481693 12.18292774 2.41363323 14.37203174 2.5625 16.5625 C2.64628906 17.76003906 2.73007813 18.95757812 2.81640625 20.19140625 C2.87699219 21.11824219 2.93757813 22.04507813 3 23 C2.34 23 1.68 23 1 23 C0.67 22.34 0.34 21.68 0 21 C-1.89533342 20.53476937 -1.89533342 20.53476937 -4.0625 20.375 C-5.361875 20.25125 -6.66125 20.1275 -8 20 C-8 20.66 -8 21.32 -8 22 C-8.66 22 -9.32 22 -10 22 C-10.33 20.35 -10.66 18.7 -11 17 C-8.03 16.67 -5.06 16.34 -2 16 C-2.185625 13.89625 -2.185625 13.89625 -2.375 11.75 C-2.44460937 10.96109375 -2.51421875 10.1721875 -2.5859375 9.359375 C-3.02156777 6.87710438 -3.66652967 5.13355252 -5 3 C-7.05000871 2.19471111 -7.05000871 2.19471111 -9 2 C-5.5647952 -0.29013653 -4.014669 -0.17842973 0 0 Z " fill="#7A7978" transform="translate(91,24)"/>
<path d="M0 0 C3 1 3 1 4.1796875 2.703125 C5.1819244 5.50938831 5.19578721 7.77693736 5.125 10.75 C5.10695313 11.73484375 5.08890625 12.7196875 5.0703125 13.734375 C5.03550781 14.85585938 5.03550781 14.85585938 5 16 C5.66 16 6.32 16 7 16 C6.14285714 24.57142857 6.14285714 24.57142857 4 28 C2.35 27.67 0.7 27.34 -1 27 C-0.95875 26.05125 -0.9175 25.1025 -0.875 24.125 C-0.65026182 20.89755144 -0.65026182 20.89755144 -3 19 C-1.68 19 -0.36 19 1 19 C1 19.66 1 20.32 1 21 C1.66 21 2.32 21 3 21 C2.67 20.34 2.34 19.68 2 19 C1.68744353 16.14792222 1.48962518 13.29503146 1.28125 10.43359375 C1.26165078 8.05456695 1.26165078 8.05456695 0 7 C-0.04092937 4.66702567 -0.04241723 2.33294775 0 0 Z " fill="#7A7975" transform="translate(91,26)"/>
<path d="M0 0 C1.34313399 0.64669414 2.67391178 1.31903578 4 2 C6.3243602 2.69730806 8.65673706 3.36912152 11 4 C9.60632076 7.37227049 8.15724701 8.90493713 5.0625 10.8125 C4.37285156 11.25207031 3.68320313 11.69164063 2.97265625 12.14453125 C1 13 1 13 -2 12 C-3.16796875 9.93359375 -3.16796875 9.93359375 -4.1875 7.4375 C-4.53167969 6.61121094 -4.87585938 5.78492187 -5.23046875 4.93359375 C-5.48441406 4.29550781 -5.73835938 3.65742187 -6 3 C-5.34 2.67 -4.68 2.34 -4 2 C-3.67 2.66 -3.34 3.32 -3 4 C-2.67 3.01 -2.34 2.02 -2 1 C-1.34 0.67 -0.68 0.34 0 0 Z " fill="#979797" transform="translate(128,76)"/>
<path d="M0 0 C0.474375 0.804375 0.94875 1.60875 1.4375 2.4375 C4.99017572 5.99017572 8.14072325 5.88578623 13 6 C12.01 6.495 12.01 6.495 11 7 C11 7.66 11 8.32 11 9 C12.65 8.34 14.3 7.68 16 7 C15 10 15 10 12 12 C11.27034634 14.56282742 11.27034634 14.56282742 11 17 C6.75000927 14.97843361 2.88918002 12.79652581 0 9 C-0.57989235 5.90892162 -0.43450735 3.1036239 0 0 Z " fill="#7B7B7B" transform="translate(71,58)"/>
<path d="M0 0 C0.33 0.66 0.66 1.32 1 2 C2.65 2 4.3 2 6 2 C6 2.99 6 3.98 6 5 C5.01 5 4.02 5 3 5 C3.99 6.485 3.99 6.485 5 8 C5.66 7.34 6.32 6.68 7 6 C7 6.66 7 7.32 7 8 C7.99 8 8.98 8 10 8 C10 8.66 10 9.32 10 10 C10.99 10 11.98 10 13 10 C13 10.66 13 11.32 13 12 C12.01 12 11.02 12 10 12 C10.33 12.99 10.66 13.98 11 15 C9.68 15.33 8.36 15.66 7 16 C6.67 14.68 6.34 13.36 6 12 C5.34 12 4.68 12 4 12 C4.99 14.31 5.98 16.62 7 19 C5.68 18.67 4.36 18.34 3 18 C2.20046862 14.71303767 1.90341064 13.28976808 3 10 C2.01 9.67 1.02 9.34 0 9 C-0.87890625 2.84765625 -0.87890625 2.84765625 -1 1 C-0.67 0.67 -0.34 0.34 0 0 Z " fill="#868686" transform="translate(121,52)"/>
<path d="M0 0 C0.66 0 1.32 0 2 0 C4.9259514 5.73548563 5.51103732 10.41354763 5.4375 16.8125 C5.43282715 17.69744141 5.4281543 18.58238281 5.42333984 19.49414062 C5.27581107 26.00459732 4.26037295 31.28839775 1 37 C0.32963735 38.33147893 -0.33810799 39.66429 -1 41 C-3 39 -3 39 -3.3125 36.6875 C-2.93541816 33.44459614 -1.73899594 31.74226282 0 29 C2.13572023 23.89885528 2.30348222 19.37040234 2.25 13.9375 C2.25773437 13.14794922 2.26546875 12.35839844 2.2734375 11.54492188 C2.25903006 7.24790163 1.98550203 3.91585122 0 0 Z " fill="#C99302" transform="translate(41,34)"/>
<path d="M0 0 C-0.33 0.66 -0.66 1.32 -1 2 C-1.66 2 -2.32 2 -3 2 C-3 2.99 -3 3.98 -3 5 C-1.68 5.33 -0.36 5.66 1 6 C0.42655063 8.86724686 0.1385485 9.8614515 -2 12 C-5.00726248 12.33952963 -7.10112665 12.57289987 -10 12 C-12.5 9.6875 -12.5 9.6875 -14 7 C-14 6.01 -14 5.02 -14 4 C-13.34 4 -12.68 4 -12 4 C-11.67 4.99 -11.34 5.98 -11 7 C-10.01 6.67 -9.02 6.34 -8 6 C-8 5.34 -8 4.68 -8 4 C-7.01 4 -6.02 4 -5 4 C-5 3.34 -5 2.68 -5 2 C-5.99 2 -6.98 2 -8 2 C-8 1.34 -8 0.68 -8 0 C-4.71023192 -1.09658936 -3.28696233 -0.79953138 0 0 Z " fill="#8C8C8C" transform="translate(139,60)"/>
<path d="M0 0 C1.65 0 3.3 0 5 0 C5.33 0.99 5.66 1.98 6 3 C8.97 3.495 8.97 3.495 12 4 C12 4.33 12 4.66 12 5 C9.36 5.33 6.72 5.66 4 6 C4.08378906 6.63808594 4.16757813 7.27617188 4.25390625 7.93359375 C4.35574219 8.75988281 4.45757812 9.58617187 4.5625 10.4375 C4.66691406 11.26121094 4.77132812 12.08492187 4.87890625 12.93359375 C4.91886719 13.61550781 4.95882812 14.29742187 5 15 C4 16 4 16 0.4375 16.0625 C-0.696875 16.041875 -1.83125 16.02125 -3 16 C-3.66 17.32 -4.32 18.64 -5 20 C-5.33 18.35 -5.66 16.7 -6 15 C-5.01 14.67 -4.02 14.34 -3 14 C-2.67 13.34 -2.34 12.68 -2 12 C-1.01 12 -0.02 12 1 12 C1 10.68 1 9.36 1 8 C1.66 8 2.32 8 3 8 C3 7.34 3 6.68 3 6 C1.35 5.67 -0.3 5.34 -2 5 C-1.34 3.35 -0.68 1.7 0 0 Z " fill="#B2B2B2" transform="translate(130,42)"/>
<path d="M0 0 C-0.33 0.99 -0.66 1.98 -1 3 C-1.06970052 5.39490986 -1.08448003 7.79167691 -1.0625 10.1875 C-1.05347656 11.45980469 -1.04445313 12.73210937 -1.03515625 14.04296875 C-1.02355469 15.01878906 -1.01195312 15.99460937 -1 17 C0.11375 16.95875 1.2275 16.9175 2.375 16.875 C6 17 6 17 8 19 C2.26157749 19.20413361 -2.60539047 19.27141454 -8 17 C-8 16.34 -8 15.68 -8 15 C-7.34 14.67 -6.68 14.34 -6 14 C-6.33 13.67 -6.66 13.34 -7 13 C-6.58667797 8.7014509 -5.9401116 4.8802232 -4 1 C-2 0 -2 0 0 0 Z " fill="#2B2B2B" transform="translate(18,73)"/>
<path d="M0 0 C0.66 0 1.32 0 2 0 C4.19108767 4.38217535 3.27378604 9.90485585 2.125 14.5 C1 17 1 17 -1 18 C-2.9453125 17.44140625 -2.9453125 17.44140625 -5.125 16.5625 C-5.84945312 16.27503906 -6.57390625 15.98757812 -7.3203125 15.69140625 C-7.87460938 15.46324219 -8.42890625 15.23507813 -9 15 C-9 14.01 -9 13.02 -9 12 C-6.03 12.495 -6.03 12.495 -3 13 C-3 12.01 -3 11.02 -3 10 C-2.01 9.67 -1.02 9.34 0 9 C-0.66 8.34 -1.32 7.68 -2 7 C-1.34 4.69 -0.68 2.38 0 0 Z " fill="#7D7D7D" transform="translate(140,63)"/>
<path d="M0 0 C2.79173055 -0.02690104 5.58320348 -0.04679053 8.375 -0.0625 C9.56609375 -0.07506836 9.56609375 -0.07506836 10.78125 -0.08789062 C16.7734375 -0.11328125 16.7734375 -0.11328125 19 1 C19 2.32 19 3.64 19 5 C18.34 5 17.68 5 17 5 C16.67 4.34 16.34 3.68 16 3 C15.01 3 14.02 3 13 3 C13.55728913 6.34373475 14.35173889 9.03312999 16 12 C15.01 12 14.02 12 13 12 C10.89229241 9.11165997 10 7.61537605 10 4 C9.34 4 8.68 4 8 4 C7.67 4.99 7.34 5.98 7 7 C6.67 6.34 6.34 5.68 6 5 C3.6859378 4.26924352 1.35171131 3.59861742 -1 3 C-0.67 2.01 -0.34 1.02 0 0 Z " fill="#5A5A5A" transform="translate(19,50)"/>
<path d="M0 0 C0.66 0.66 1.32 1.32 2 2 C1.34 2 0.68 2 0 2 C0.33 4.31 0.66 6.62 1 9 C4.3 9.33 7.6 9.66 11 10 C11.66 9.01 12.32 8.02 13 7 C13.99 7.33 14.98 7.66 16 8 C12.96402259 11.50305086 10.44325795 12.77101376 6 14 C5.01 14.33 4.02 14.66 3 15 C-1.17971205 12.38767997 -3.2445022 9.58379981 -5 5 C-4.67 4.01 -4.34 3.02 -4 2 C-3.01 2.33 -2.02 2.66 -1 3 C-0.67 2.01 -0.34 1.02 0 0 Z " fill="#363635" transform="translate(21,63)"/>
<path d="M0 0 C0.8971875 0.309375 0.8971875 0.309375 1.8125 0.625 C-0.1675 1.615 -0.1675 1.615 -2.1875 2.625 C-1.1975 2.955 -0.2075 3.285 0.8125 3.625 C0.4825 4.285 0.1525 4.945 -0.1875 5.625 C-3.12890625 6.0390625 -3.12890625 6.0390625 -6.75 6.25 C-7.94753906 6.32476563 -9.14507812 6.39953125 -10.37890625 6.4765625 C-11.76916016 6.55003906 -11.76916016 6.55003906 -13.1875 6.625 C-13.1875 8.935 -13.1875 11.245 -13.1875 13.625 C-13.8475 13.625 -14.5075 13.625 -15.1875 13.625 C-15.5175 14.615 -15.8475 15.605 -16.1875 16.625 C-16.1875 14.975 -16.1875 13.325 -16.1875 11.625 C-16.8475 11.625 -17.5075 11.625 -18.1875 11.625 C-17.58888258 9.27328869 -16.91825648 6.9390622 -16.1875 4.625 C-15.5275 4.295 -14.8675 3.965 -14.1875 3.625 C-14.5175 2.965 -14.8475 2.305 -15.1875 1.625 C-14.1975 1.625 -13.2075 1.625 -12.1875 1.625 C-11.8575 2.285 -11.5275 2.945 -11.1875 3.625 C-7.60344511 2.5099607 -3.46689402 -0.59432469 0 0 Z " fill="#818181" transform="translate(85.1875,23.375)"/>
<path d="M0 0 C0.33 0 0.66 0 1 0 C1.07516846 0.61931396 1.15033691 1.23862793 1.2277832 1.87670898 C1.57981841 4.7315735 1.94606979 7.58444884 2.3125 10.4375 C2.43044922 11.41138672 2.54839844 12.38527344 2.66992188 13.38867188 C3.47466972 19.55840536 4.77803574 25.18472422 7 31 C6.01 31.66 5.02 32.32 4 33 C3.731875 32.030625 3.46375 31.06125 3.1875 30.0625 C2.61124193 27.98548351 1.99680504 25.99197363 1.19921875 23.98828125 C-1.73536013 16.46407664 -2.34337988 7.80496685 0 0 Z " fill="#A2873D" transform="translate(11,41)"/>
<path d="M0 0 C3.96 1.98 7.92 3.96 12 6 C10.68 7.65 9.36 9.3 8 11 C3.16233301 10.58534283 1.14353624 8.5801385 -2 5 C-2.33 4.34 -2.66 3.68 -3 3 C-1.68 3.33 -0.36 3.66 1 4 C0.67 2.68 0.34 1.36 0 0 Z " fill="#9E9E9E" transform="translate(22,79)"/>
<path d="M0 0 C0.33 0 0.66 0 1 0 C1.85378982 5.54963381 -0.24331135 8.41357766 -3.33203125 12.7421875 C-3.88246094 13.48726562 -4.43289062 14.23234375 -5 15 C-5.95932408 16.35346498 -6.91776349 17.70755778 -7.875 19.0625 C-8.926875 20.5165625 -8.926875 20.5165625 -10 22 C-10.66 21.67 -11.32 21.34 -12 21 C-8.535 16.05 -8.535 16.05 -5 11 C-5.66 10.67 -6.32 10.34 -7 10 C-6.52727227 5.74545047 -4.03562624 3.80795427 -1 1 C-0.67 0.67 -0.34 0.34 0 0 Z " fill="#424242" transform="translate(151,78)"/>
<path d="M0 0 C3.05074215 -0.28780586 5.96183742 -0.45787911 9 0 C11.0625 2.5 11.0625 2.5 12 5 C6.62374766 5.84888195 2.34629602 6.0024305 -3 5 C-2.34 4.67 -1.68 4.34 -1 4 C-0.34786708 1.97536745 -0.34786708 1.97536745 0 0 Z " fill="#262626" transform="translate(23,35)"/>
<path d="M0 0 C0.8971875 1.1446875 0.8971875 1.1446875 1.8125 2.3125 C3.46959332 4.3483575 5.10297674 6.1978279 7 8 C6.01 8.99 5.02 9.98 4 11 C3.01 10.67 2.02 10.34 1 10 C1 8.02 1 6.04 1 4 C0.07767578 4.55880859 0.07767578 4.55880859 -0.86328125 5.12890625 C-2.07564453 5.83853516 -2.07564453 5.83853516 -3.3125 6.5625 C-4.51326172 7.27599609 -4.51326172 7.27599609 -5.73828125 8.00390625 C-8 9 -8 9 -11 8 C-11 7.34 -11 6.68 -11 6 C-10.45730469 5.81824219 -9.91460938 5.63648437 -9.35546875 5.44921875 C-8.28232422 5.07216797 -8.28232422 5.07216797 -7.1875 4.6875 C-6.47980469 4.44386719 -5.77210937 4.20023437 -5.04296875 3.94921875 C-2.85527627 2.93275742 -1.59103282 1.79179406 0 0 Z " fill="#4D4C49" transform="translate(37,70)"/>
<path d="M0 0 C3.63 0.33 7.26 0.66 11 1 C11 1.99 11 2.98 11 4 C10.34 3.67 9.68 3.34 9 3 C8.67 3.66 8.34 4.32 8 5 C8 4.34 8 3.68 8 3 C5.36 5.31 2.72 7.62 0 10 C-0.66 9.67 -1.32 9.34 -2 9 C-1.125 2.25 -1.125 2.25 0 0 Z " fill="#6B6A69" transform="translate(143,72)"/>
<path d="M0 0 C1.0625 1.8125 1.0625 1.8125 2 4 C1.67 4.99 1.34 5.98 1 7 C0.01 7.33 -0.98 7.66 -2 8 C-1.34 5.36 -0.68 2.72 0 0 Z M-1.9375 8.125 C0.60824087 9.27468943 0.77115737 10.54231475 2 13 C4.53188648 14.75322937 4.53188648 14.75322937 7 16 C5 17 5 17 3.16015625 16.51171875 C2.46792969 16.23972656 1.77570313 15.96773438 1.0625 15.6875 C0.02802734 15.29111328 0.02802734 15.29111328 -1.02734375 14.88671875 C-3 14 -3 14 -6 12 C-6.99 12.66 -7.98 13.32 -9 14 C-7.52203737 10.589317 -6.1318459 7.87079722 -1.9375 8.125 Z " fill="#E0E0E0" transform="translate(92,59)"/>
<path d="M0 0 C0.99 0.495 0.99 0.495 2 1 C2.103125 1.969375 2.20625 2.93875 2.3125 3.9375 C2.539375 4.948125 2.76625 5.95875 3 7 C5.35346742 8.55849551 5.35346742 8.55849551 8 9 C8.66 8.67 9.32 8.34 10 8 C10 9.65 10 11.3 10 13 C9.34 13 8.68 13 8 13 C7.67 13.66 7.34 14.32 7 15 C5.35 15 3.7 15 2 15 C0.73694665 9.92523206 -0.27036084 5.27203646 0 0 Z " fill="#545352" transform="translate(13,51)"/>
<path d="M0 0 C0.66 2.64 1.32 5.28 2 8 C1.34 8 0.68 8 0 8 C-0.33 7.34 -0.66 6.68 -1 6 C-2.89533342 5.53476937 -2.89533342 5.53476937 -5.0625 5.375 C-6.361875 5.25125 -7.66125 5.1275 -9 5 C-9 5.66 -9 6.32 -9 7 C-9.66 7 -10.32 7 -11 7 C-11.33 5.35 -11.66 3.7 -12 2 C-10.37548581 1.66430703 -8.75037083 1.3315204 -7.125 1 C-6.22007813 0.814375 -5.31515625 0.62875 -4.3828125 0.4375 C-2 0 -2 0 0 0 Z " fill="#555555" transform="translate(92,39)"/>
<path d="M0 0 C0 0.66 0 1.32 0 2 C3.465 3.485 3.465 3.485 7 5 C7 5.33 7 5.66 7 6 C3.37 6.66 -0.26 7.32 -4 8 C-4.33 6.68 -4.66 5.36 -5 4 C-5.99 3.67 -6.98 3.34 -8 3 C-4.93882432 0.37613513 -4.26826873 0 0 0 Z " fill="#85837D" transform="translate(131,31)"/>
<path d="M0 0 C0.66 0.66 1.32 1.32 2 2 C0.71034824 3.37562854 -0.62689293 4.70766393 -2 6 C-2.66 6 -3.32 6 -4 6 C-4 6.66 -4 7.32 -4 8 C-4.66 8 -5.32 8 -6 8 C-6.12375 8.5775 -6.2475 9.155 -6.375 9.75 C-7.00648824 12.02335767 -7.88858191 13.9253529 -9 16 C-11.15377564 13.37801226 -12.40072174 11.35595828 -13 8 C-12.43796875 7.90847656 -11.8759375 7.81695312 -11.296875 7.72265625 C-8.40564279 6.81299986 -6.60080982 5.3388903 -4.25 3.4375 C-3.45078125 2.79683594 -2.6515625 2.15617187 -1.828125 1.49609375 C-1.22484375 1.00238281 -0.6215625 0.50867188 0 0 Z " fill="#6C6C6C" transform="translate(140,80)"/>
<path d="M0 0 C0.66 0.33 1.32 0.66 2 1 C-1.97354032 8.37943203 -9.35875498 14.61190079 -17 18 C-16.01 16.02 -15.02 14.04 -14 12 C-13.34 12 -12.68 12 -12 12 C-12 11.34 -12 10.68 -12 10 C-10.42638552 8.60639308 -8.79004275 7.28297912 -7.125 6 C-3.43096483 3.14925117 -3.43096483 3.14925117 0 0 Z " fill="#5D5D5D" transform="translate(148,76)"/>
<path d="M0 0 C0.66 0 1.32 0 2 0 C2 2.64 2 5.28 2 8 C1.34 8 0.68 8 0 8 C-0.75241109 11.65456815 -1.40049704 15.31733897 -2 19 C-1.34 19 -0.68 19 0 19 C0.66 20.65 1.32 22.3 2 24 C-0.32758311 23.06896676 -1.74357132 22.34617872 -3.25 20.3125 C-5.24208572 14.17023571 -3.66059047 9.6404518 -1 4 C-0.62691369 2.67723944 -0.26953585 1.34767923 0 0 Z " fill="#DAA30E" transform="translate(98,43)"/>
<path d="M0 0 C3.11398457 -0.21231713 5.45304074 -0.21590497 8.375 0.9375 C10.99520534 4.26314524 10.30779383 7.9217317 10 12 C8.35 12 6.7 12 5 12 C5 11.01 5 10.02 5 9 C4.8503356 7.60224142 4.68279513 6.2063129 4.5 4.8125 C4.335 3.554375 4.17 2.29625 4 1 C2.68 0.67 1.36 0.34 0 0 Z " fill="#A0A0A0" transform="translate(79,28)"/>
<path d="M0 0 C3.06098195 3.06098195 3.82645413 4.69822763 5.1875 8.6875 C5.53167969 9.68136719 5.87585938 10.67523438 6.23046875 11.69921875 C6.48441406 12.45847656 6.73835937 13.21773437 7 14 C4.36 14 1.72 14 -1 14 C-0.67 9.38 -0.34 4.76 0 0 Z " fill="#E8E8E8" transform="translate(125,86)"/>
<path d="M0 0 C0.66 0 1.32 0 2 0 C2.12117188 0.58007812 2.24234375 1.16015625 2.3671875 1.7578125 C3.12638891 5.29685908 3.85194863 8.62597547 5.1875 12 C6.28884689 16.06651159 6.06535101 19.91901832 5 24 C4.34 24.33 3.68 24.66 3 25 C3.03480469 24.43152344 3.06960937 23.86304687 3.10546875 23.27734375 C3.25167514 19.10698053 3.17319862 16.4041301 1.5 12.5 C-0.36132069 8.1569184 -0.28448431 4.64657712 0 0 Z " fill="#C0900F" transform="translate(61,41)"/>
<path d="M0 0 C2.3431213 0.25561323 4.67843403 0.59270772 7 1 C8.35439668 3.70879335 8.06501451 6.00933268 8 9 C7.01 9 6.02 9 5 9 C5 8.34 5 7.68 5 7 C3.35 7 1.7 7 0 7 C-0.33 6.01 -0.66 5.02 -1 4 C-0.01 3.34 0.98 2.68 2 2 C1.34 1.34 0.68 0.68 0 0 Z " fill="#B9B9B9" transform="translate(28,41)"/>
<path d="M0 0 C0.33 0 0.66 0 1 0 C1.08119503 2.24940295 1.13927819 4.49964871 1.1875 6.75 C1.22230469 8.00296875 1.25710937 9.2559375 1.29296875 10.546875 C0.98050645 14.22976394 0.39431546 15.32222654 -2 18 C-2.33 18.99 -2.66 19.98 -3 21 C-3.99 20.67 -4.98 20.34 -6 20 C-5.25 13.375 -5.25 13.375 -3 10 C-3 10.66 -3 11.32 -3 12 C-2.34 11.67 -1.68 11.34 -1 11 C-0.5316735 8.41394668 -0.5316735 8.41394668 -0.375 5.4375 C-0.30023438 4.42558594 -0.22546875 3.41367187 -0.1484375 2.37109375 C-0.09945312 1.58863281 -0.05046875 0.80617187 0 0 Z " fill="#CC9604" transform="translate(149,52)"/>
<path d="M0 0 C3 1 3 1 4.1796875 2.671875 C5.22405287 5.63588339 5.19316459 8.11442868 5.125 11.25 C5.10695313 12.32765625 5.08890625 13.4053125 5.0703125 14.515625 C5.04710938 15.33546875 5.02390625 16.1553125 5 17 C4.34 17.33 3.68 17.66 3 18 C2.86722656 17.28972656 2.73445313 16.57945313 2.59765625 15.84765625 C2.42105469 14.92855469 2.24445313 14.00945313 2.0625 13.0625 C1.88847656 12.14597656 1.71445313 11.22945312 1.53515625 10.28515625 C1.22285012 8.04710156 1.22285012 8.04710156 0 7 C-0.04092937 4.66702567 -0.04241723 2.33294775 0 0 Z " fill="#C5C3C0" transform="translate(91,26)"/>
<path d="M0 0 C0.66 0 1.32 0 2 0 C3.625 2.5 3.625 2.5 5 5 C4.34 5 3.68 5 3 5 C3.33 6.32 3.66 7.64 4 9 C3.34 9 2.68 9 2 9 C2 11.64 2 14.28 2 17 C1.34 17.33 0.68 17.66 0 18 C-1.17814715 12.10926427 -1.93753594 5.81260782 0 0 Z " fill="#868686" transform="translate(17,72)"/>
<path d="M0 0 C0 0.66 0 1.32 0 2 C0.5775 1.79375 1.155 1.5875 1.75 1.375 C4.51967567 0.91338739 5.64561267 1.57055055 8 3 C8 3.66 8 4.32 8 5 C2.375 6.125 2.375 6.125 -1 5 C-1.33 4.34 -1.66 3.68 -2 3 C-3.32 3.99 -4.64 4.98 -6 6 C-6.33 4.35 -6.66 2.7 -7 1 C-2.25 0 -2.25 0 0 0 Z " fill="#B6B6B6" transform="translate(76,46)"/>
<path d="M0 0 C6.75 -0.125 6.75 -0.125 9 1 C10.14242743 5.68395246 10.08252495 10.21355271 10 15 C7.53686261 13.17251097 6.16571382 11.77023784 5.51171875 8.73046875 C5.27481707 6.48520654 5.09638651 4.25544422 5 2 C3.35 1.67 1.7 1.34 0 1 C0 0.67 0 0.34 0 0 Z " fill="#727272" transform="translate(30,40)"/>
<path d="M0 0 C0.66 0.99 1.32 1.98 2 3 C1.67 3.66 1.34 4.32 1 5 C-1.06640625 5.4140625 -1.06640625 5.4140625 -3.5625 5.625 C-4.38878906 5.69976562 -5.21507813 5.77453125 -6.06640625 5.8515625 C-7.02353516 5.92503906 -7.02353516 5.92503906 -8 6 C-7.34 7.98 -6.68 9.96 -6 12 C-6.66 12 -7.32 12 -8 12 C-8 11.34 -8 10.68 -8 10 C-8.66 10 -9.32 10 -10 10 C-10 8.02 -10 6.04 -10 4 C-6.5980513 1.90649311 -3.94727588 1.82057837 0 2 C0 1.34 0 0.68 0 0 Z " fill="#929292" transform="translate(77,41)"/>
<path d="M0 0 C0.66 2.97 1.32 5.94 2 9 C0.68 9.33 -0.64 9.66 -2 10 C-2.66 10.66 -3.32 11.32 -4 12 C-5.58867866 10.41132134 -5.20794039 8.75310484 -5.25 6.5625 C-5.27578125 5.75941406 -5.3015625 4.95632812 -5.328125 4.12890625 C-5.21984375 3.42636719 -5.1115625 2.72382812 -5 2 C-2 0 -2 0 0 0 Z " fill="#7C7C7C" transform="translate(38,74)"/>
<path d="M0 0 C2.58099426 0.76588681 4.61002277 1.72534548 7 3 C2.82469786 4.39176738 -0.76213765 3.62816839 -5.08984375 3.15625 C-7.74287026 3.01380562 -9.49469023 3.2377581 -12 4 C-12.66 4 -13.32 4 -14 4 C-14 3.34 -14 2.68 -14 2 C-9.53444222 -0.97703852 -5.23947824 -0.50281502 0 0 Z " fill="#C1BAA5" transform="translate(83,20)"/>
<path d="M0 0 C2.29400986 1.00362931 4.06970438 2.28940003 6 3.875 C4.68 4.205 3.36 4.535 2 4.875 C1.67 6.195 1.34 7.515 1 8.875 C-1.31 6.895 -3.62 4.915 -6 2.875 C-2.59813084 -0.16238318 -2.59813084 -0.16238318 0 0 Z " fill="#7B7A77" transform="translate(124,72.125)"/>
<path d="M0 0 C2.97 0.33 5.94 0.66 9 1 C7.02 1.99 7.02 1.99 5 3 C3.70768358 6.04199472 3.70768358 6.04199472 3 9 C5.475 9.99 5.475 9.99 8 11 C4.63458162 12.08174162 3.70152678 11.92538169 0 11 C0 7.37 0 3.74 0 0 Z " fill="#888888" transform="translate(18,39)"/>
<path d="M0 0 C0 2.31 0 4.62 0 7 C-1.32 7 -2.64 7 -4 7 C-4.268125 6.360625 -4.53625 5.72125 -4.8125 5.0625 C-5.88667752 2.66868314 -5.88667752 2.66868314 -9 2 C-5.5647952 -0.29013653 -4.014669 -0.17842973 0 0 Z " fill="#9A9A9A" transform="translate(144,53)"/>
<path d="M0 0 C2.9425963 0.30652045 5.34542308 0.67271154 8 2 C8 2.66 8 3.32 8 4 C5.69723426 6.21747812 4.47519908 6.96760006 1.25 7.1875 C0.13625 7.0946875 0.13625 7.0946875 -1 7 C-1.625 4.625 -1.625 4.625 -2 2 C-1.34 1.34 -0.68 0.68 0 0 Z " fill="#A1A1A1" transform="translate(78,56)"/>
<path d="M0 0 C1.20217503 2.40435006 1.03897118 3.68381369 0.87890625 6.3515625 C0.83056641 7.20234375 0.78222656 8.053125 0.73242188 8.9296875 C0.64831055 10.26386719 0.64831055 10.26386719 0.5625 11.625 C0.51029297 12.5221875 0.45808594 13.419375 0.40429688 14.34375 C0.2744565 16.56284012 0.13948661 18.78149871 0 21 C-0.99 20.67 -1.98 20.34 -3 20 C-2.67 13.73 -2.34 7.46 -2 1 C-1.34 0.67 -0.68 0.34 0 0 Z " fill="#D79D01" transform="translate(118,42)"/>
<path d="M0 0 C0.33 0 0.66 0 1 0 C1.2954439 5.02254631 0.98514628 7.89542386 -2 12 C-3.32 11.67 -4.64 11.34 -6 11 C-5.67 9.02 -5.34 7.04 -5 5 C-3.68 5 -2.36 5 -1 5 C-0.67 3.35 -0.34 1.7 0 0 Z " fill="#555452" transform="translate(40,57)"/>
<path d="M0 0 C0.66 0 1.32 0 2 0 C2 1.32 2 2.64 2 4 C2.99 4 3.98 4 5 4 C5.12375 4.804375 5.2475 5.60875 5.375 6.4375 C5.684375 7.7059375 5.684375 7.7059375 6 9 C6.66 9.33 7.32 9.66 8 10 C4.7 9.67 1.4 9.34 -2 9 C-2 8.34 -2 7.68 -2 7 C-1.34 7 -0.68 7 0 7 C0 4.69 0 2.38 0 0 Z " fill="#B1B1B1" transform="translate(72,30)"/>
<path d="M0 0 C0.33 0.66 0.66 1.32 1 2 C2.65 2 4.3 2 6 2 C6 2.99 6 3.98 6 5 C5.01 5 4.02 5 3 5 C3.33 6.65 3.66 8.3 4 10 C2.68 9.67 1.36 9.34 0 9 C-0.87890625 2.84765625 -0.87890625 2.84765625 -1 1 C-0.67 0.67 -0.34 0.34 0 0 Z " fill="#8D8D8D" transform="translate(121,52)"/>
<path d="M0 0 C0.33 0.99 0.66 1.98 1 3 C0.01 3.99 -0.98 4.98 -2 6 C-0.68 6.33 0.64 6.66 2 7 C-0.64738916 8.4606285 -1.89448334 9 -5 9 C-4.67 10.65 -4.34 12.3 -4 14 C-4.66 14 -5.32 14 -6 14 C-7.35439668 11.29120665 -7.06501451 8.99066732 -7 6 C-6.38125 5.9175 -5.7625 5.835 -5.125 5.75 C-2.82618538 5.19392091 -2.82618538 5.19392091 -1.8125 3 C-1.544375 2.34 -1.27625 1.68 -1 1 C-0.67 0.67 -0.34 0.34 0 0 Z " fill="#787777" transform="translate(74,48)"/>
<path d="M0 0 C1.89213369 2.38573379 3.02391783 4.07175348 4 7 C3 8 3 8 -0.5625 8.0625 C-1.696875 8.041875 -2.83125 8.02125 -4 8 C-4.66 9.32 -5.32 10.64 -6 12 C-6.33 10.35 -6.66 8.7 -7 7 C-6.01 6.67 -5.02 6.34 -4 6 C-3.67 5.34 -3.34 4.68 -3 4 C-2.01 4 -1.02 4 0 4 C0 2.68 0 1.36 0 0 Z " fill="#A0A0A0" transform="translate(131,50)"/>
<path d="M0 0 C-1.32 0.33 -2.64 0.66 -4 1 C-4 1.99 -4 2.98 -4 4 C-10.625 4.125 -10.625 4.125 -14 3 C-14 2.01 -14 1.02 -14 0 C-12.41773035 -0.19627391 -10.83410729 -0.38165538 -9.25 -0.5625 C-8.36828125 -0.66691406 -7.4865625 -0.77132812 -6.578125 -0.87890625 C-4.11567549 -0.99456676 -2.33461936 -0.73638695 0 0 Z " fill="#494949" transform="translate(141,72)"/>
<path d="M0 0 C-2.57404971 3.86107457 -4.61020259 3.94319692 -9 5 C-9.33 4.01 -9.66 3.02 -10 2 C-10.99 1.67 -11.98 1.34 -13 1 C-8.31506124 -1.48887372 -5.0555786 -0.85687773 0 0 Z " fill="#A7A7A7" transform="translate(83,23)"/>
<path d="M0 0 C1.9375 0.8125 1.9375 0.8125 4 2 C5 5 5 5 5 8 C4.34 8 3.68 8 3 8 C3 7.34 3 6.68 3 6 C2.01 5.67 1.02 5.34 0 5 C0.99 5 1.98 5 3 5 C2.67 4.34 2.34 3.68 2 3 C1.29875 3.350625 0.5975 3.70125 -0.125 4.0625 C-3.50268586 5.1639193 -5.58080593 4.79516141 -9 4 C-9 3.34 -9 2.68 -9 2 C-6.03 2 -3.06 2 0 2 C0 1.34 0 0.68 0 0 Z " fill="#7E7E7E" transform="translate(84,49)"/>
<path d="M0 0 C4.29 0 8.58 0 13 0 C13.99 2.97 14.98 5.94 16 9 C13.69 9 11.38 9 9 9 C10.32 8.34 11.64 7.68 13 7 C12.34 5.35 11.68 3.7 11 2 C9.9275 2.04125 8.855 2.0825 7.75 2.125 C4 2 4 2 0 0 Z " fill="#929292" transform="translate(128,39)"/>
<path d="M0 0 C-1 3 -1 3 -4 5 C-4.72965366 7.56282742 -4.72965366 7.56282742 -5 10 C-6.32 9.34 -7.64 8.68 -9 8 C-9 6.35 -9 4.7 -9 3 C-8.34 3 -7.68 3 -7 3 C-6.67 2.34 -6.34 1.68 -6 1 C-3.911361 0.32624548 -2.19636905 0 0 0 Z " fill="#858585" transform="translate(87,65)"/>
<path d="M0 0 C1.98 0 3.96 0 6 0 C7.125 2.25 7.125 2.25 8 5 C7.0546875 7.171875 7.0546875 7.171875 6 9 C4.99406757 7.8803014 3.9954151 6.7540588 3 5.625 C2.443125 4.99851562 1.88625 4.37203125 1.3125 3.7265625 C0 2 0 2 0 0 Z " fill="#A7A7A7" transform="translate(83,44)"/>
<path d="M0 0 C0.556875 0.28875 1.11375 0.5775 1.6875 0.875 C4.08494645 2.0413253 6.51596939 3.0339881 9 4 C9 4.66 9 5.32 9 6 C1.25 7.125 1.25 7.125 -1 6 C-1.042721 4.33388095 -1.04063832 2.66617115 -1 1 C-0.67 0.67 -0.34 0.34 0 0 Z " fill="#595959" transform="translate(68,37)"/>
<path d="M0 0 C1 3 1 3 0.0625 6.125 C-2 9 -2 9 -3.984375 9.609375 C-5.97935871 9.84990495 -7.99164775 9.93415239 -10 10 C-10 9.34 -10 8.68 -10 8 C-7.36107824 6.21694476 -5.02821137 5.00940379 -2 4 C-0.79117904 1.99983534 -0.79117904 1.99983534 0 0 Z " fill="#4B4B4B" transform="translate(37,82)"/>
<path d="M0 0 C0.5775 0.78375 1.155 1.5675 1.75 2.375 C3.82897637 4.80047244 5.09040333 5.85694417 8 7 C8 7.66 8 8.32 8 9 C6.35 9 4.7 9 3 9 C3.99 10.485 3.99 10.485 5 12 C3.0625 11.3125 3.0625 11.3125 1 10 C-0.07999732 6.67000827 -0.09944115 3.48044019 0 0 Z " fill="#6C6C6C" transform="translate(71,58)"/>
<path d="M0 0 C3.16115776 1.36983503 3.9927092 1.9890638 6 5 C4.68 5 3.36 5 2 5 C0.23621652 5.44896307 -1.51445335 5.95193264 -3.25 6.5 C-4.58804688 6.91765625 -4.58804688 6.91765625 -5.953125 7.34375 C-6.62859375 7.5603125 -7.3040625 7.776875 -8 8 C-5.33333333 5.33333333 -2.66666667 2.66666667 0 0 Z " fill="#E2E2E2" transform="translate(70,69)"/>
<path d="M0 0 C0.66 0 1.32 0 2 0 C5 4.38461538 5 4.38461538 5 7 C2.6875 7.6875 2.6875 7.6875 0 8 C-1.8125 6.5625 -1.8125 6.5625 -3 5 C-1.625 2.5 -1.625 2.5 0 0 Z " fill="#BDBDBD" transform="translate(27,54)"/>
<path d="M0 0 C1.41327251 4.52688851 1.02539946 9.01930407 0.9375 13.7109375 C0.99830961 16.91104322 1.39326176 19.86202566 2 23 C1.34 23 0.68 23 0 23 C-0.93290869 20.20127394 -1.12859447 18.48011055 -1.1328125 15.5859375 C-1.13410156 14.74289063 -1.13539062 13.89984375 -1.13671875 13.03125 C-1.13285156 12.1546875 -1.12898437 11.278125 -1.125 10.375 C-1.12886719 9.49070312 -1.13273438 8.60640625 -1.13671875 7.6953125 C-1.13542969 6.85484375 -1.13414063 6.014375 -1.1328125 5.1484375 C-1.13168457 4.37677246 -1.13055664 3.60510742 -1.12939453 2.81005859 C-1 1 -1 1 0 0 Z " fill="#E3A500" transform="translate(10,41)"/>
<path d="M0 0 C-0.66 1.65 -1.32 3.3 -2 5 C-4.31 5 -6.62 5 -9 5 C-8.00233891 2.50584728 -7.31383315 1.21259665 -5.0625 -0.3125 C-3 -1 -3 -1 0 0 Z " fill="#494949" transform="translate(33,95)"/>
<path d="M0 0 C0.33 0 0.66 0 1 0 C1.06058594 0.75925781 1.12117188 1.51851562 1.18359375 2.30078125 C1.26738281 3.29464844 1.35117188 4.28851563 1.4375 5.3125 C1.51871094 6.29863281 1.59992188 7.28476562 1.68359375 8.30078125 C1.91812559 11.09375599 1.91812559 11.09375599 3 14 C3.12781786 16.67394964 3.04391871 19.32095857 3 22 C0.48817411 16.97634823 -0.12587258 13.52003486 -0.0625 7.875 C-0.05798828 7.12089844 -0.05347656 6.36679687 -0.04882812 5.58984375 C-0.03703499 3.72652873 -0.01909942 1.86325445 0 0 Z " fill="#8C8267" transform="translate(63,32)"/>
<path d="M0 0 C0.99 0 1.98 0 3 0 C2.375 2.4375 2.375 2.4375 1 5 C-2.125 5.8125 -2.125 5.8125 -5 6 C-5.66 5.01 -6.32 4.02 -7 3 C-2.25 1.875 -2.25 1.875 0 3 C0 2.01 0 1.02 0 0 Z " fill="#747474" transform="translate(137,73)"/>
<path d="M0 0 C2.31 0.33 4.62 0.66 7 1 C7 2.98 7 4.96 7 7 C6.01 7 5.02 7 4 7 C0 2.65714286 0 2.65714286 0 0 Z " fill="#A0A0A0" transform="translate(31,55)"/>
<path d="M0 0 C0.33 0 0.66 0 1 0 C1.33 2.31 1.66 4.62 2 7 C2.99 6.67 3.98 6.34 5 6 C5 7.65 5 9.3 5 11 C3.02 11.99 3.02 11.99 1 13 C0.1276588 10.00519083 -0.10829766 7.36424089 -0.0625 4.25 C-0.05347656 3.45078125 -0.04445313 2.6515625 -0.03515625 1.828125 C-0.02355469 1.22484375 -0.01195313 0.6215625 0 0 Z " fill="#84827D" transform="translate(93,36)"/>
<path d="M0 0 C2.31 0 4.62 0 7 0 C6.67 0.99 6.34 1.98 6 3 C5.34 3 4.68 3 4 3 C3.67 3.99 3.34 4.98 3 6 C1.68 5.34 0.36 4.68 -1 4 C-0.67 2.68 -0.34 1.36 0 0 Z " fill="#A6A6A6" transform="translate(18,55)"/>
<path d="M0 0 C0.99 0.33 1.98 0.66 3 1 C3.94921875 3.06640625 3.94921875 3.06640625 4.6875 5.5625 C4.93886719 6.38878906 5.19023437 7.21507813 5.44921875 8.06640625 C5.63097656 8.70449219 5.81273437 9.34257813 6 10 C5.01 10.66 4.02 11.32 3 12 C1.82923301 8.01939223 0.74250597 4.08378283 0 0 Z " fill="#AF8003" transform="translate(12,62)"/>
<path d="M0 0 C0.66 0 1.32 0 2 0 C2 0.66 2 1.32 2 2 C5.3 2 8.6 2 12 2 C12.33 1.34 12.66 0.68 13 0 C13.33 0.99 13.66 1.98 14 3 C11.18772378 3.93742541 9.41253156 4.13470844 6.5 4.125 C5.7265625 4.12757812 4.953125 4.13015625 4.15625 4.1328125 C2 4 2 4 -1 3 C-0.67 2.01 -0.34 1.02 0 0 Z " fill="#A3A3A3" transform="translate(73,51)"/>
<path d="M0 0 C0.515625 0.2475 1.03125 0.495 1.5625 0.75 C-0.4175 1.74 -0.4175 1.74 -2.4375 2.75 C-1.4475 3.08 -0.4575 3.41 0.5625 3.75 C0.2325 4.41 -0.0975 5.07 -0.4375 5.75 C-3.4075 5.75 -6.3775 5.75 -9.4375 5.75 C-9.4375 5.09 -9.4375 4.43 -9.4375 3.75 C-3.0375 -0.31153846 -3.0375 -0.31153846 0 0 Z " fill="#8A8A8A" transform="translate(85.4375,23.25)"/>
<path d="M0 0 C1.70884005 1.62339805 3.37446717 3.29319053 5 5 C5 5.66 5 6.32 5 7 C1.75791433 6.64950425 0.38472296 6.43778819 -1.8125 3.9375 C-2.4003125 2.9784375 -2.4003125 2.9784375 -3 2 C-2.01 2 -1.02 2 0 2 C0 1.34 0 0.68 0 0 Z " fill="#ACACAC" transform="translate(25,83)"/>
<path d="M0 0 C0.66 0 1.32 0 2 0 C2 2.64 2 5.28 2 8 C1.01 8 0.02 8 -1 8 C-1.12375 8.639375 -1.2475 9.27875 -1.375 9.9375 C-1.58125 10.618125 -1.7875 11.29875 -2 12 C-2.99 12.495 -2.99 12.495 -4 13 C-3.79503906 12.39671875 -3.59007813 11.7934375 -3.37890625 11.171875 C-2.97478516 9.97304688 -2.97478516 9.97304688 -2.5625 8.75 C-2.29566406 7.96109375 -2.02882813 7.1721875 -1.75390625 6.359375 C-1.08045292 4.25178012 -0.50849405 2.15246027 0 0 Z " fill="#C79101" transform="translate(98,43)"/>
<path d="M0 0 C2.97 1.98 2.97 1.98 6 4 C5.01 5.32 4.02 6.64 3 8 C2.01 7.67 1.02 7.34 0 7 C0 4.69 0 2.38 0 0 Z " fill="#292825" transform="translate(38,73)"/>
<path d="M0 0 C0.33 0 0.66 0 1 0 C1 3.3 1 6.6 1 10 C0.01 10 -0.98 10 -2 10 C-2.1953125 3.9453125 -2.1953125 3.9453125 -2 2 C-1.34 1.34 -0.68 0.68 0 0 Z " fill="#616161" transform="translate(17,40)"/>
<path d="M0 0 C0.66 0.33 1.32 0.66 2 1 C1.67 2.65 1.34 4.3 1 6 C0.01 6.33 -0.98 6.66 -2 7 C-2.33 7.99 -2.66 8.98 -3 10 C-3.33 10 -3.66 10 -4 10 C-4.25 7.25 -4.25 7.25 -4 4 C-2 1.625 -2 1.625 0 0 Z " fill="#8B8B8B" transform="translate(126,40)"/>
<path d="M0 0 C1 3 1 3 -0.4375 6.1875 C-1.2109375 7.5796875 -1.2109375 7.5796875 -2 9 C-2.99 8.34 -3.98 7.68 -5 7 C-4.60196439 4.11424181 -4.20990931 3.17810487 -1.9375 1.25 C-1.298125 0.8375 -0.65875 0.425 0 0 Z " fill="#585858" transform="translate(149,81)"/>
<path d="M0 0 C0.33 0.66 0.66 1.32 1 2 C1.99 1.67 2.98 1.34 4 1 C3.71125 1.53625 3.4225 2.0725 3.125 2.625 C1.83288192 5.35280484 0.91441408 8.12612718 0 11 C-0.66 10.67 -1.32 10.34 -2 10 C-1.54177532 6.53058454 -1.10868317 3.32604951 0 0 Z " fill="#9B740D" transform="translate(145,62)"/>
<path d="M0 0 C2.875 -0.1875 2.875 -0.1875 6 0 C6.66 0.99 7.32 1.98 8 3 C7.34 3.66 6.68 4.32 6 5 C3.69 4.34 1.38 3.68 -1 3 C-0.67 2.01 -0.34 1.02 0 0 Z " fill="#72716F" transform="translate(131,31)"/>
<path d="M0 0 C0.66 0.33 1.32 0.66 2 1 C-0.31537955 4.72114571 -2.28579473 7.61229661 -6 10 C-6.66 9.67 -7.32 9.34 -8 9 C-5.36 6.03 -2.72 3.06 0 0 Z " fill="#494949" transform="translate(148,76)"/>
<path d="M0 0 C0.33 0.99 0.66 1.98 1 3 C-0.375 4.5 -0.375 4.5 -2 6 C-2.66 6 -3.32 6 -4 6 C-4 7.32 -4 8.64 -4 10 C-4.99 9.67 -5.98 9.34 -7 9 C-6.34 7.68 -5.68 6.36 -5 5 C-4.34 5 -3.68 5 -3 5 C-2.690625 4.360625 -2.38125 3.72125 -2.0625 3.0625 C-1 1 -1 1 0 0 Z " fill="#808080" transform="translate(149,78)"/>
<path d="M0 0 C2.72426311 2.35277269 3.8141763 4.62496331 5 8 C4.34 8.66 3.68 9.32 3 10 C0.875 9.625 0.875 9.625 -1 9 C-0.01 9 0.98 9 2 9 C1.67 8.2575 1.34 7.515 1 6.75 C0 4 0 4 0 0 Z " fill="#D09906" transform="translate(118,64)"/>
<path d="M0 0 C0.33 0.99 0.66 1.98 1 3 C-1.35438733 4.42944945 -2.48032433 5.08661261 -5.25 4.625 C-5.8275 4.41875 -6.405 4.2125 -7 4 C-7 3.34 -7 2.68 -7 2 C-4.69 1.34 -2.38 0.68 0 0 Z " fill="#A4A4A4" transform="translate(139,66)"/>
<path d="M0 0 C0 0.66 0 1.32 0 2 C0.66 2.33 1.32 2.66 2 3 C1 4 1 4 -2.5625 4.0625 C-3.696875 4.041875 -4.83125 4.02125 -6 4 C-6 3.01 -6 2.02 -6 1 C-3 0 -3 0 0 0 Z " fill="#9B9B9B" transform="translate(31,64)"/>
<path d="M0 0 C2.31 0.33 4.62 0.66 7 1 C7 2.32 7 3.64 7 5 C6.34 5 5.68 5 5 5 C4.67 4.34 4.34 3.68 4 3 C3.01 3 2.02 3 1 3 C0.67 3.66 0.34 4.32 0 5 C0 3.35 0 1.7 0 0 Z " fill="#474747" transform="translate(31,50)"/>
<path d="M0 0 C1.32 0.66 2.64 1.32 4 2 C3.34 3.65 2.68 5.3 2 7 C0.35 7 -1.3 7 -3 7 C-2.34 6.67 -1.68 6.34 -1 6 C-0.34227572 2.97065509 -0.34227572 2.97065509 0 0 Z " fill="#B4B4B4" transform="translate(22,42)"/>
<path d="M0 0 C1.65 0 3.3 0 5 0 C5.33 0.66 5.66 1.32 6 2 C6.99 2.66 7.98 3.32 9 4 C6.36 4.33 3.72 4.66 1 5 C0.67 3.35 0.34 1.7 0 0 Z " fill="#363636" transform="translate(26,36)"/>
<path d="M0 0 C2.97 0.33 5.94 0.66 9 1 C9 1.33 9 1.66 9 2 C8.43410156 2.10957031 7.86820313 2.21914062 7.28515625 2.33203125 C6.18494141 2.56986328 6.18494141 2.56986328 5.0625 2.8125 C4.33160156 2.96332031 3.60070312 3.11414063 2.84765625 3.26953125 C2.23792969 3.51058594 1.62820312 3.75164062 1 4 C0.67 4.99 0.34 5.98 0 7 C-0.66 6.01 -1.32 5.02 -2 4 C-1.34 2.68 -0.68 1.36 0 0 Z " fill="#807557" transform="translate(143,72)"/>
<path d="M0 0 C2.64 0 5.28 0 8 0 C7.01 0.33 6.02 0.66 5 1 C5.33 1.99 5.66 2.98 6 4 C4.68 4.33 3.36 4.66 2 5 C1.34 3.35 0.68 1.7 0 0 Z " fill="#696969" transform="translate(126,63)"/>
<path d="M0 0 C2 2 2 2 2.046875 3.91015625 C1.94890625 4.62042969 1.8509375 5.33070312 1.75 6.0625 C1.61851563 7.13177734 1.61851563 7.13177734 1.484375 8.22265625 C1.32453125 8.80917969 1.1646875 9.39570312 1 10 C0.01 10.495 0.01 10.495 -1 11 C-1.70074844 7.846632 -2 5.27275026 -2 2 C-1.34 2 -0.68 2 0 2 C0 1.34 0 0.68 0 0 Z " fill="#868686" transform="translate(71,55)"/>
<path d="M0 0 C0.33 0 0.66 0 1 0 C1.66 3.63 2.32 7.26 3 11 C2.01 11.33 1.02 11.66 0 12 C-1.28571429 3.42857143 -1.28571429 3.42857143 0 0 Z " fill="#706956" transform="translate(146,42)"/>
<path d="M0 0 C2.99332739 0.9977758 3.94766315 1.7522025 6 4 C3.36 4.33 0.72 4.66 -2 5 C-2 3.68 -2 2.36 -2 1 C-1.34 0.67 -0.68 0.34 0 0 Z " fill="#505050" transform="translate(137,48)"/>
<path d="M0 0 C-3 1.5 -3 1.5 -6 3 C-6 3.66 -6 4.32 -6 5 C-6.66 5 -7.32 5 -8 5 C-8.33 3.35 -8.66 1.7 -9 0 C-5.52176885 -1.15941038 -3.54104422 -0.70820884 0 0 Z " fill="#6A6A6A" transform="translate(89,41)"/>
<path d="M0 0 C0.66 0 1.32 0 2 0 C2.66 2.97 3.32 5.94 4 9 C3.01 9.495 3.01 9.495 2 10 C-0.13262124 6.80106814 -0.59021548 4.77001757 -1 1 C-0.67 0.67 -0.34 0.34 0 0 Z " fill="#686868" transform="translate(36,74)"/>
<path d="M0 0 C0.66 0 1.32 0 2 0 C2.33 1.98 2.66 3.96 3 6 C1.35 6.66 -0.3 7.32 -2 8 C-1.34 5.36 -0.68 2.72 0 0 Z " fill="#8F8F8F" transform="translate(140,63)"/>
<path d="M0 0 C0.66 0 1.32 0 2 0 C3.04449911 3.13349732 2.93423645 3.98968256 2 7 C1.34 7 0.68 7 0 7 C0 8.65 0 10.3 0 12 C-0.33 12 -0.66 12 -1 12 C-1.14285714 3.42857143 -1.14285714 3.42857143 0 0 Z " fill="#5E5D5B" transform="translate(17,72)"/>
<path d="M0 0 C0.99 0 1.98 0 3 0 C3.2475 0.61875 3.495 1.2375 3.75 1.875 C5.20628639 4.35068687 6.37812506 4.95125002 9 6 C8.34 6 7.68 6 7 6 C6.67 6.66 6.34 7.32 6 8 C1.125 3.375 1.125 3.375 0 0 Z " fill="#74663F" transform="translate(120,66)"/>
<path d="M0 0 C1.65 0.33 3.3 0.66 5 1 C5 1.99 5 2.98 5 4 C3.35 4 1.7 4 0 4 C0 2.68 0 1.36 0 0 Z " fill="#AAAAAA" transform="translate(77,59)"/>
<path d="M0 0 C-0.33 1.65 -0.66 3.3 -1 5 C-2.9375 4.6875 -2.9375 4.6875 -5 4 C-5.33 3.01 -5.66 2.02 -6 1 C-3.92446352 0.4465236 -2.15634036 0 0 0 Z " fill="#B1B1B1" transform="translate(143,54)"/>
<path d="M0 0 C1.09658936 3.28976808 0.79953138 4.71303767 0 8 C-2.475 7.01 -2.475 7.01 -5 6 C-3.35 4.02 -1.7 2.04 0 0 Z " fill="#8C8C8C" transform="translate(33,77)"/>
<path d="M0 0 C2.31 0 4.62 0 7 0 C6.02391783 2.92824652 4.89213369 4.61426621 3 7 C1.25372522 4.38058783 0.61277612 2.96175123 0 0 Z " fill="#5B5B5A" transform="translate(149,75)"/>
<path d="M0 0 C-1 2 -1 2 -2.875 2.6875 C-5 3 -5 3 -8 2 C-8 1.34 -8 0.68 -8 0 C-4.71023192 -1.09658936 -3.28696233 -0.79953138 0 0 Z " fill="#AAAAAA" transform="translate(139,60)"/>
<path d="M0 0 C0 1.98 0 3.96 0 6 C-1.32 6.33 -2.64 6.66 -4 7 C-4 3 -4 3 -2.5625 1.25 C-1 0 -1 0 0 0 Z " fill="#80807E" transform="translate(148,58)"/>
<path d="M0 0 C0 0.66 0 1.32 0 2 C-0.66 2 -1.32 2 -2 2 C-2 3.32 -2 4.64 -2 6 C-3.32 6.33 -4.64 6.66 -6 7 C-5.67 5.02 -5.34 3.04 -5 1 C-2 0 -2 0 0 0 Z " fill="#717171" transform="translate(133,48)"/>
<path d="M0 0 C1.32 0.33 2.64 0.66 4 1 C3.34 2.32 2.68 3.64 2 5 C0.68 5 -0.64 5 -2 5 C-1.34 3.35 -0.68 1.7 0 0 Z " fill="#4A4A4A" transform="translate(125,49)"/>
<path d="M0 0 C1.98 0.66 3.96 1.32 6 2 C6 2.66 6 3.32 6 4 C4.02 4.33 2.04 4.66 0 5 C0 3.35 0 1.7 0 0 Z " fill="#BFBFBF" transform="translate(78,47)"/>
<path d="M0 0 C2.97 0.99 5.94 1.98 9 3 C9 3.99 9 4.98 9 6 C8.67 5.34 8.34 4.68 8 4 C5.87423218 3.53348793 5.87423218 3.53348793 3.4375 3.375 C2.61121094 3.30023438 1.78492188 3.22546875 0.93359375 3.1484375 C0.29550781 3.09945312 -0.34257812 3.05046875 -1 3 C-0.67 2.01 -0.34 1.02 0 0 Z " fill="#322C1A" transform="translate(31,30)"/>
<path d="M0 0 C2.0625 0.4375 2.0625 0.4375 4 1 C3.6875 2.9375 3.6875 2.9375 3 5 C2.01 5.33 1.02 5.66 0 6 C-0.38218767 4.34385343 -0.71395102 2.67542976 -1 1 C-0.67 0.67 -0.34 0.34 0 0 Z " fill="#A0A0A0" transform="translate(132,80)"/>
<path d="M0 0 C-0.66 3.3 -1.32 6.6 -2 10 C-3.88343932 6.23312136 -4.22057835 4.97041037 -4 1 C-2 0 -2 0 0 0 Z " fill="#1D1B18" transform="translate(18,73)"/>
<path d="M0 0 C0.99 0.33 1.98 0.66 3 1 C0.70850887 3.7321625 -0.64386075 4.90028101 -4.125 5.875 C-5.07375 5.91625 -6.0225 5.9575 -7 6 C-7.66 5.34 -8.32 4.68 -9 4 C-7.88625 3.896875 -6.7725 3.79375 -5.625 3.6875 C-4.42875 3.460625 -3.2325 3.23375 -2 3 C-1.34 2.01 -0.68 1.02 0 0 Z " fill="#1D1D1D" transform="translate(34,70)"/>
<path d="M0 0 C0.33 0 0.66 0 1 0 C1 2.31 1 4.62 1 7 C1.66 7 2.32 7 3 7 C3 7.99 3 8.98 3 10 C2.34 10 1.68 10 1 10 C0.67 10.66 0.34 11.32 0 12 C-0.19401633 10.18818595 -0.38004375 8.37551468 -0.5625 6.5625 C-0.66691406 5.55316406 -0.77132812 4.54382812 -0.87890625 3.50390625 C-0.91886719 2.67761719 -0.95882812 1.85132813 -1 1 C-0.67 0.67 -0.34 0.34 0 0 Z " fill="#676662" transform="translate(66,44)"/>
<path d="M0 0 C2.97 0.495 2.97 0.495 6 1 C6 1.66 6 2.32 6 3 C4.02 3.33 2.04 3.66 0 4 C0 2.68 0 1.36 0 0 Z " fill="#454545" transform="translate(19,50)"/>
<path d="M0 0 C0.66 0.99 1.32 1.98 2 3 C1.67 3.66 1.34 4.32 1 5 C-1.31 4.67 -3.62 4.34 -6 4 C-6 3.34 -6 2.68 -6 2 C-4.02 2 -2.04 2 0 2 C0 1.34 0 0.68 0 0 Z " fill="#7C7C7C" transform="translate(77,41)"/>
<path d="M0 0 C1.32 0.33 2.64 0.66 4 1 C3.01 1.33 2.02 1.66 1 2 C-0.22520264 5.00847418 -0.22520264 5.00847418 -1 8 C-1.93065133 5.39417629 -2.14917407 4.35801776 -1.0625 1.75 C-0.711875 1.1725 -0.36125 0.595 0 0 Z " fill="#656565" transform="translate(68,26)"/>
<path d="M0 0 C0.763125 0.20625 1.52625 0.4125 2.3125 0.625 C1.9825 1.615 1.6525 2.605 1.3125 3.625 C-0.9975 2.965 -3.3075 2.305 -5.6875 1.625 C-2.6875 -0.375 -2.6875 -0.375 0 0 Z " fill="#585858" transform="translate(87.6875,24.375)"/>
<path d="M0 0 C2.31 0.33 4.62 0.66 7 1 C5 4 5 4 2.875 4.6875 C2.25625 4.790625 1.6375 4.89375 1 5 C0.67 3.35 0.34 1.7 0 0 Z " fill="#999999" transform="translate(76,22)"/>
<path d="M0 0 C2.64 0.66 5.28 1.32 8 2 C7.34 3.32 6.68 4.64 6 6 C5.01 5.34 4.02 4.68 3 4 C3.33 3.67 3.66 3.34 4 3 C2.68 2.67 1.36 2.34 0 2 C0 1.34 0 0.68 0 0 Z " fill="#959595" transform="translate(131,78)"/>
<path d="M0 0 C2.475 0.495 2.475 0.495 5 1 C4.67 2.32 4.34 3.64 4 5 C3.01 5 2.02 5 1 5 C0.67 3.35 0.34 1.7 0 0 Z " fill="#757474" transform="translate(119,61)"/>
<path d="M0 0 C1.32 0.33 2.64 0.66 4 1 C3.67 3.31 3.34 5.62 3 8 C2.34 7.67 1.68 7.34 1 7 C0.59270772 4.67843403 0.25561323 2.3431213 0 0 Z " fill="#7F714E" transform="translate(117,57)"/>
<path d="M0 0 C0.33 0.66 0.66 1.32 1 2 C1.66 2 2.32 2 3 2 C2 5 2 5 -0.0625 6.1875 C-0.701875 6.455625 -1.34125 6.72375 -2 7 C-1.125 2.25 -1.125 2.25 0 0 Z " fill="#7E7C76" transform="translate(121,37)"/>
<path d="M0 0 C0.66 0 1.32 0 2 0 C3.35439668 2.70879335 3.06501451 5.00933268 3 8 C1.5 6.8125 1.5 6.8125 0 5 C-0.1875 2.3125 -0.1875 2.3125 0 0 Z " fill="#A2A2A2" transform="translate(33,42)"/>
</svg>
