<?xml version="1.0" encoding="UTF-8"?>
<svg version="1.1" xmlns="http://www.w3.org/2000/svg" width="160" height="100">
<path d="M0 0 C52.8 0 105.6 0 160 0 C160 33 160 66 160 100 C107.2 100 54.4 100 0 100 C0 67 0 34 0 0 Z " fill="#FEB900" transform="translate(0,0)"/>
<path d="M0 0 C0.99 0.99 0.99 0.99 2 2 C1.72317437 6.24465971 0.81645906 8.81617671 -2 12 C-2.928125 11.484375 -3.85625 10.96875 -4.8125 10.4375 C-10.5910209 7.92047556 -17.17062302 9.05687434 -23 11 C-22.34 14.3 -21.68 17.6 -21 21 C-20.14535156 21.26554687 -19.29070312 21.53109375 -18.41015625 21.8046875 C-17.30542969 22.15789063 -16.20070312 22.51109375 -15.0625 22.875 C-13.96035156 23.22304688 -12.85820313 23.57109375 -11.72265625 23.9296875 C-9 25 -9 25 -8 27 C-8.59167969 26.9278125 -9.18335937 26.855625 -9.79296875 26.78125 C-13.88261722 26.30089977 -17.8738531 25.86689849 -22 26 C-21.81535634 30.34184202 -21.81535634 30.34184202 -20 34 C-17.56576916 34.18108303 -15.18685234 34.27808118 -12.75 34.3125 C-12.08097656 34.34150391 -11.41195312 34.37050781 -10.72265625 34.40039062 C-7.13480211 34.44620802 -5.1387275 34.08589652 -2.06640625 32.18359375 C0.47681978 29.4961394 0.75208211 27.6361291 1 24 C1.33 24 1.66 24 2 24 C2.60318451 30.03184515 2.60318451 30.03184515 0.921875 32.73046875 C-0.33754781 34.19617633 -1.66644937 35.60139812 -3 37 C-4.00016187 39.00032373 -4.49396008 40.83125748 -5 43 C-6.32 43 -7.64 43 -9 43 C-9 42.34 -9 41.68 -9 41 C-8.34 40.67 -7.68 40.34 -7 40 C-7.66 39.67 -8.32 39.34 -9 39 C-9.23074219 39.64324219 -9.46148437 40.28648438 -9.69921875 40.94921875 C-11 43 -11 43 -13.20703125 43.64453125 C-21.96873715 44.20937886 -21.96873715 44.20937886 -26 43 C-26 42.01 -26 41.02 -26 40 C-26.99 40.99 -27.98 41.98 -29 43 C-29.33 42.34 -29.66 41.68 -30 41 C-29.67 40.01 -29.34 39.02 -29 38 C-29.721875 38.825 -30.44375 39.65 -31.1875 40.5 C-34 43 -34 43 -36.625 43.25 C-37.40875 43.1675 -38.1925 43.085 -39 43 C-39.99 43.33 -40.98 43.66 -42 44 C-42.495 41.525 -42.495 41.525 -43 39 C-43.33 40.65 -43.66 42.3 -44 44 C-44.8353125 43.7215625 -44.8353125 43.7215625 -45.6875 43.4375 C-49.38666769 42.73765746 -52.26219175 43.72358466 -55.7421875 45.02734375 C-59.23547013 46.07030223 -62.11284835 46.26676107 -65.75 46.25 C-66.87921875 46.25515625 -68.0084375 46.2603125 -69.171875 46.265625 C-72 46 -72 46 -74 44 C-73.57736533 39.24536 -72.1193864 35.2387728 -70 31 C-69.49339844 31.4846875 -68.98679687 31.969375 -68.46484375 32.46875 C-65.08784846 34.5666615 -62.51453331 34.46866574 -58.5625 34.5 C-57.26441406 34.5309375 -55.96632813 34.561875 -54.62890625 34.59375 C-50.17920842 33.86570471 -48.73493459 32.51113507 -46 29 C-45.54135661 25.78949624 -45.96928805 24.09213585 -47 21 C-49.9239038 20.0371028 -49.9239038 20.0371028 -53.375 19.4375 C-59.7077769 18.1948154 -59.7077769 18.1948154 -63 16 C-62.67 15.01 -62.34 14.02 -62 13 C-59.625 12.875 -59.625 12.875 -57 13 C-56.34 13.66 -55.68 14.32 -55 15 C-52.79749008 15.46006346 -52.79749008 15.46006346 -50.375 15.625 C-49.55773437 15.69976562 -48.74046875 15.77453125 -47.8984375 15.8515625 C-47.27195312 15.90054688 -46.64546875 15.94953125 -46 16 C-46.495 15.21625 -46.99 14.4325 -47.5 13.625 C-49 11 -49 11 -49 9 C-46.03 9 -43.06 9 -40 9 C-40 9.66 -40 10.32 -40 11 C-38.35064453 10.18595703 -38.35064453 10.18595703 -36.66796875 9.35546875 C-24.78194504 3.56674209 -13.60553842 -1.6815834 0 0 Z " fill="#4E4D4B" transform="translate(114,27)"/>
<path d="M0 0 C1.875 2.125 1.875 2.125 1.875 5.125 C-4.1796875 5.3203125 -4.1796875 5.3203125 -6.125 5.125 C-6.785 4.465 -7.445 3.805 -8.125 3.125 C-10.70854218 2.95812552 -10.70854218 2.95812552 -13.125 3.125 C-13.455 4.115 -13.785 5.105 -14.125 6.125 C-13.38894531 6.23457031 -12.65289062 6.34414063 -11.89453125 6.45703125 C-1.0272082 8.2227918 -1.0272082 8.2227918 2.875 12.125 C3.45667462 16.44601143 3.34584901 18.45439687 0.8125 22.0625 C-4.25309299 25.79116893 -12.20261613 24.79799817 -18.125 24.125 C-20.125 22.125 -20.125 22.125 -20.25 18.5 C-20.20875 17.38625 -20.1675 16.2725 -20.125 15.125 C-12.5 14.125 -12.5 14.125 -9.125 14.125 C-9.83527344 13.92003906 -10.54554687 13.71507813 -11.27734375 13.50390625 C-12.19644531 13.23449219 -13.11554688 12.96507812 -14.0625 12.6875 C-14.97902344 12.42066406 -15.89554687 12.15382813 -16.83984375 11.87890625 C-19.125 11.125 -19.125 11.125 -20.125 10.125 C-20.35787008 8.44316052 -20.53764166 6.7537584 -20.6875 5.0625 C-20.77128906 4.14339844 -20.85507813 3.22429688 -20.94140625 2.27734375 C-21.03228516 1.21193359 -21.03228516 1.21193359 -21.125 0.125 C-14.79617249 -4.09421834 -6.48709989 -3.89225994 0 0 Z " fill="#DCDBDB" transform="translate(112.125,37.875)"/>
<path d="M0 0 C1.12148438 -0.02578125 2.24296875 -0.0515625 3.3984375 -0.078125 C6.99067297 0.28718708 8.82474592 0.98943125 11.625 3.25 C12.4375 5.4375 12.4375 5.4375 12.625 7.25 C11.16707116 7.30399736 9.70857288 7.34279177 8.25 7.375 C7.43789063 7.39820313 6.62578125 7.42140625 5.7890625 7.4453125 C3.625 7.25 3.625 7.25 1.625 5.25 C-0.95854218 5.08312552 -0.95854218 5.08312552 -3.375 5.25 C-3.375 5.91 -3.375 6.57 -3.375 7.25 C-2.31539062 7.57613281 -1.25578125 7.90226562 -0.1640625 8.23828125 C1.2241361 8.6791281 2.61214737 9.12056518 4 9.5625 C4.69867188 9.77583984 5.39734375 9.98917969 6.1171875 10.20898438 C11.3984375 11.91015625 11.3984375 11.91015625 13.625 15.25 C13.55139365 19.29834902 13.37304098 21.46846465 10.53125 24.4375 C5.11979095 27.81238844 -1.25042095 27.0365815 -7.375 26.25 C-10.43102962 24.92379847 -11.27975075 23.96149902 -13.375 21.25 C-14.0078125 19.078125 -14.0078125 19.078125 -14.375 17.25 C-12.91757537 17.16903197 -11.45887193 17.11082226 -10 17.0625 C-9.18789063 17.02769531 -8.37578125 16.99289063 -7.5390625 16.95703125 C-6.82492188 17.05371094 -6.11078125 17.15039062 -5.375 17.25 C-4.715 18.24 -4.055 19.23 -3.375 20.25 C0.20857241 20.50015873 0.20857241 20.50015873 3.625 20.25 C3.955 19.26 4.285 18.27 4.625 17.25 C3.81675781 17.07984375 3.00851563 16.9096875 2.17578125 16.734375 C-9.26270999 14.14036251 -9.26270999 14.14036251 -12.375 10.25 C-12.875 7.1875 -12.875 7.1875 -12.375 4.25 C-9.23833804 -0.0815808 -4.99134867 0.0685311 0 0 Z " fill="#DBDBDA" transform="translate(55.375,35.75)"/>
<path d="M0 0 C1.65 0 3.3 0 5 0 C5.495 8.415 5.495 8.415 6 17 C10.23068356 16.94003283 14.45783123 16.85299882 18.6875 16.75 C19.88568359 16.73582031 21.08386719 16.72164062 22.31835938 16.70703125 C23.47529297 16.67480469 24.63222656 16.64257812 25.82421875 16.609375 C26.88729248 16.58842773 27.95036621 16.56748047 29.0456543 16.54589844 C32.69600279 15.87139391 34.3936995 14.60659443 37 12 C37.88593998 8.86136296 37.88593998 8.86136296 38 6 C38.33 6 38.66 6 39 6 C39.60318451 12.03184515 39.60318451 12.03184515 37.921875 14.73046875 C36.66245219 16.19617633 35.33355063 17.60139812 34 19 C32.99983813 21.00032373 32.50603992 22.83125748 32 25 C30.68 25 29.36 25 28 25 C28 24.34 28 23.68 28 23 C28.66 22.67 29.32 22.34 30 22 C29.34 21.67 28.68 21.34 28 21 C27.76925781 21.64324219 27.53851563 22.28648438 27.30078125 22.94921875 C26 25 26 25 23.79296875 25.64453125 C15.03126285 26.20937886 15.03126285 26.20937886 11 25 C11 24.01 11 23.02 11 22 C10.01 22.99 9.02 23.98 8 25 C7.67 24.34 7.34 23.68 7 23 C7.33 22.01 7.66 21.02 8 20 C6.9171875 21.2375 6.9171875 21.2375 5.8125 22.5 C3 25 3 25 0.375 25.25 C-0.40875 25.1675 -1.1925 25.085 -2 25 C-2.99 25.33 -3.98 25.66 -5 26 C-5.33 24.35 -5.66 22.7 -6 21 C-6.33 22.65 -6.66 24.3 -7 26 C-8.32 25.34 -9.64 24.68 -11 24 C-10.505 22.515 -10.505 22.515 -10 21 C-9.34 21 -8.68 21 -8 21 C-8 20.34 -8 19.68 -8 19 C-6.02 19 -4.04 19 -2 19 C-2.02320312 17.79601562 -2.04640625 16.59203125 -2.0703125 15.3515625 C-2.08906863 13.77604785 -2.10726899 12.20052652 -2.125 10.625 C-2.14175781 9.8309375 -2.15851563 9.036875 -2.17578125 8.21875 C-2.19335473 6.14507985 -2.10335168 4.07116759 -2 2 C-1.34 1.34 -0.68 0.68 0 0 Z " fill="#AC965B" transform="translate(77,45)"/>
<path d="M0 0 C1.04542969 -0.01417969 2.09085938 -0.02835938 3.16796875 -0.04296875 C5.8125 0.1875 5.8125 0.1875 7.8125 2.1875 C7.53567437 6.43215971 6.62895906 9.00367671 3.8125 12.1875 C2.884375 11.671875 1.95625 11.15625 1 10.625 C-4.7785209 8.10797556 -11.35812302 9.24437434 -17.1875 11.1875 C-17.5175 11.8475 -17.8475 12.5075 -18.1875 13.1875 C-18.5175 11.8675 -18.8475 10.5475 -19.1875 9.1875 C-21.4975 8.8575 -23.8075 8.5275 -26.1875 8.1875 C-23.19750375 5.72515015 -20.39610977 4.3469825 -16.75 3.0625 C-15.35974609 2.56363281 -15.35974609 2.56363281 -13.94140625 2.0546875 C-9.22461749 0.56940083 -4.94664157 0.03072448 0 0 Z " fill="#85837E" transform="translate(108.1875,26.8125)"/>
<path d="M0 0 C0.66 0.33 1.32 0.66 2 1 C2 1.99 2 2.98 2 4 C7.80766296 5.5056904 12.9981863 6.21824777 19 6 C18.67 6.66 18.34 7.32 18 8 C18.66 8.33 19.32 8.66 20 9 C20 8.01 20 7.02 20 6 C21.65 6 23.3 6 25 6 C24.01 6.495 24.01 6.495 23 7 C22.814375 7.78375 22.62875 8.5675 22.4375 9.375 C20.80864521 12.34943049 20.24497701 12.64641844 17.1875 13.8125 C11.28705345 15.50383321 5.08292071 15.67200128 -1 15 C-1.66 14.34 -2.32 13.68 -3 13 C-2.64438703 8.99935404 -1.53487777 5.68370664 0 2 C0 1.34 0 0.68 0 0 Z " fill="#8F8E89" transform="translate(43,58)"/>
<path d="M0 0 C0.78375 0.04125 1.5675 0.0825 2.375 0.125 C2.45571788 2.91724073 2.51535408 5.70716566 2.5625 8.5 C2.58763672 9.2940625 2.61277344 10.088125 2.63867188 10.90625 C2.66504405 12.98086148 2.52986462 15.05600865 2.375 17.125 C1.385 17.785 0.395 18.445 -0.625 19.125 C-1.35465366 21.68782742 -1.35465366 21.68782742 -1.625 24.125 C-0.965 24.455 -0.305 24.785 0.375 25.125 C-0.388125 25.104375 -1.15125 25.08375 -1.9375 25.0625 C-4.72685786 24.99557159 -4.72685786 24.99557159 -7.625 26.125 C-7.955 24.475 -8.285 22.825 -8.625 21.125 C-8.955 22.775 -9.285 24.425 -9.625 26.125 C-10.945 25.465 -12.265 24.805 -13.625 24.125 C-13.13 22.64 -13.13 22.64 -12.625 21.125 C-11.965 21.125 -11.305 21.125 -10.625 21.125 C-10.625 20.465 -10.625 19.805 -10.625 19.125 C-8.645 19.125 -6.665 19.125 -4.625 19.125 C-4.64820312 17.92101562 -4.67140625 16.71703125 -4.6953125 15.4765625 C-4.71406863 13.90104785 -4.73226899 12.32552652 -4.75 10.75 C-4.76675781 9.9559375 -4.78351563 9.161875 -4.80078125 8.34375 C-4.81835473 6.27007985 -4.72835168 4.19616759 -4.625 2.125 C-2.625 0.125 -2.625 0.125 0 0 Z " fill="#918971" transform="translate(79.625,44.875)"/>
<path d="M0 0 C0.78375 0.04125 1.5675 0.0825 2.375 0.125 C2.662803 3.17571175 2.8222872 6.08560262 2.375 9.125 C-0.0473468 11.22861696 -1.40745634 12.125 -4.625 12.125 C-4.67895478 10.50036158 -4.71777195 8.87521459 -4.75 7.25 C-4.77320312 6.34507813 -4.79640625 5.44015625 -4.8203125 4.5078125 C-4.53030547 0.96972669 -3.50613188 0.16695866 0 0 Z " fill="#F0B106" transform="translate(79.625,44.875)"/>
<path d="M0 0 C2.375 -0.125 2.375 -0.125 5 0 C5.66 0.66 6.32 1.32 7 2 C9.65537372 2.56520003 12.29144713 2.73788198 15 3 C15.33 2.34 15.66 1.68 16 1 C16 2.32 16 3.64 16 5 C13.54159395 5.02691685 11.08348118 5.04679802 8.625 5.0625 C7.92632812 5.07087891 7.22765625 5.07925781 6.5078125 5.08789062 C1.2265625 5.11328125 1.2265625 5.11328125 -1 4 C-0.67 2.68 -0.34 1.36 0 0 Z " fill="#6B665A" transform="translate(99,40)"/>
<path d="M0 0 C1.95903745 0.47627975 3.91721097 0.95611423 5.875 1.4375 C6.96554688 1.70433594 8.05609375 1.97117188 9.1796875 2.24609375 C12 3 12 3 14 4 C13.67 5.32 13.34 6.64 13 8 C10.69 8 8.38 8 6 8 C6 6.68 6 5.36 6 4 C4.02 3.01 2.04 2.02 0 1 C0 0.67 0 0.34 0 0 Z " fill="#6D6B65" transform="translate(46,49)"/>
<path d="M0 0 C3.63 0 7.26 0 11 0 C10.67 0.66 10.34 1.32 10 2 C9.64830932 3.32860925 9.31229724 4.66158328 9 6 C7.68 6 6.36 6 5 6 C5 5.34 5 4.68 5 4 C5.66 3.67 6.32 3.34 7 3 C6.34 2.67 5.68 2.34 5 2 C4.34 3.32 3.68 4.64 3 6 C1.35 6 -0.3 6 -2 6 C-1.34 4.02 -0.68 2.04 0 0 Z " fill="#CFC097" transform="translate(100,64)"/>
<path d="M0 0 C0.33 0 0.66 0 1 0 C1.4308069 4.3942304 1.52544547 6.32859745 -1.25 9.875 C-4.96971928 12.74932853 -7.87380461 13.14789216 -12.5 13.1875 C-13.2528125 13.20167969 -14.005625 13.21585938 -14.78125 13.23046875 C-17.24864173 12.97417278 -18.86356256 12.22845153 -21 11 C-19.46279297 10.96132813 -19.46279297 10.96132813 -17.89453125 10.921875 C-16.53381301 10.86556942 -15.17313757 10.80822263 -13.8125 10.75 C-13.13896484 10.73582031 -12.46542969 10.72164062 -11.77148438 10.70703125 C-6.95858813 10.47225582 -4.33584356 9.48747281 -1 6 C-0.11406002 2.86136296 -0.11406002 2.86136296 0 0 Z " fill="#59513B" transform="translate(115,51)"/>
<path d="M0 0 C2.3125 -0.25 2.3125 -0.25 5 0 C6.5625 1.875 6.5625 1.875 8 4 C10.08334635 5.2516467 10.08334635 5.2516467 12 6 C9.18185434 7.40907283 7.82722796 6.50872691 4.875 5.5625 C3.96492188 5.27503906 3.05484375 4.98757812 2.1171875 4.69140625 C1.41851562 4.46324219 0.71984375 4.23507813 0 4 C0 2.68 0 1.36 0 0 Z " fill="#AC8B30" transform="translate(52,40)"/>
<path d="M0 0 C2.31 0 4.62 0 7 0 C6.01 1.98 5.02 3.96 4 6 C3.34 4.68 2.68 3.36 2 2 C1.67 3.65 1.34 5.3 1 7 C-0.32 6.34 -1.64 5.68 -3 5 C-2.67 4.01 -2.34 3.02 -2 2 C-1.34 2 -0.68 2 0 2 C0 1.34 0 0.68 0 0 Z " fill="#A49D8C" transform="translate(69,64)"/>
<path d="M0 0 C4.95 0.99 4.95 0.99 10 2 C10 2.66 10 3.32 10 4 C7.23749964 5.38125018 5.05268901 5.19079306 2 5 C1.34 4.34 0.68 3.68 0 3 C0 2.01 0 1.02 0 0 Z " fill="#EEB10B" transform="translate(97,52)"/>
<path d="M0 0 C-0.66 1.65 -1.32 3.3 -2 5 C-3.65 4.67 -5.3 4.34 -7 4 C-6.625 2.0625 -6.625 2.0625 -6 0 C-3.50907189 -1.24546405 -2.58919267 -0.7767578 0 0 Z " fill="#BFAF83" transform="translate(98,65)"/>
<path d="M0 0 C-1.875 4.75 -1.875 4.75 -3 7 C-3.66 7 -4.32 7 -5 7 C-5 5.02 -5 3.04 -5 1 C-3 0 -3 0 0 0 Z " fill="#D3A014" transform="translate(83,62)"/>
</svg>
