<?xml version="1.0" encoding="UTF-8"?>
<svg version="1.1" xmlns="http://www.w3.org/2000/svg" width="160" height="100">
<path d="M0 0 C52.8 0 105.6 0 160 0 C160 33 160 66 160 100 C107.2 100 54.4 100 0 100 C0 67 0 34 0 0 Z " fill="#FDB900" transform="translate(0,0)"/>
<path d="M0 0 C0 0.66 0 1.32 0 2 C-2.64 2 -5.28 2 -8 2 C-7.505 2.99 -7.505 2.99 -7 4 C-6.960008 5.99960012 -6.95653201 8.00047242 -7 10 C-6.01 10 -5.02 10 -4 10 C-4.3585454 14.30254485 -5.03213421 17.32897446 -7.125 21.125 C-8.77322438 24.20240773 -8.77322438 24.20240773 -8.8125 27.6875 C-8.4103125 28.8321875 -8.4103125 28.8321875 -8 30 C-7.66666667 31.66666667 -7.33333333 33.33333333 -7 35 C-7.66 34.67 -8.32 34.34 -9 34 C-9.40729228 31.67843403 -9.74438677 29.3431213 -10 27 C-11.670625 26.7834375 -11.670625 26.7834375 -13.375 26.5625 C-17 26 -17 26 -19 25 C-19 25.66 -19 26.32 -19 27 C-18.29875 27.185625 -17.5975 27.37125 -16.875 27.5625 C-13.44233901 29.2788305 -11.8279407 31.33576728 -9.52734375 34.34375 C-7.83701099 36.17674511 -6.27499926 37.0215057 -4 38 C-4.185625 37.05125 -4.37125 36.1025 -4.5625 35.125 C-5 32 -5 32 -4 30 C-0.06212739 30.58338854 2.17201647 32.24271605 5 35 C6.09909756 36.95256347 7.03000422 38.94100929 7.95703125 40.98046875 C9.00666243 43.01290066 10.16070022 44.49445841 11.6875 46.1875 C15.45671078 50.77167527 15.4082363 55.18263272 15 61 C13.5 64.4375 13.5 64.4375 12 67 C9.69 66.67 7.38 66.34 5 66 C5.33 66.66 5.66 67.32 6 68 C7 71 7 71 7 79 C-32.27 79 -71.54 79 -112 79 C-111 55 -111 55 -109 48 C-108.90533704 44.92278436 -108.90533704 44.92278436 -109.125 41.9375 C-109.19673812 36.70713854 -108.73156996 33.92293253 -105 30 C-102.73136812 28.17829346 -100.44210727 26.59676245 -98 25 C-97.01 25.66 -96.02 26.32 -95 27 C-95 27.66 -95 28.32 -95 29 C-94.34 29 -93.68 29 -93 29 C-92.74605469 30.0621875 -92.49210937 31.124375 -92.23046875 32.21875 C-90.01594527 45.10527861 -90.01594527 45.10527861 -83 55 C-81.0103005 55.39013716 -79.00980131 55.73202649 -77 56 C-77 56.99 -77 57.98 -77 59 C-76.34 59 -75.68 59 -75 59 C-75 57.68 -75 56.36 -75 55 C-75.66 55 -76.32 55 -77 55 C-77 54.34 -77 53.68 -77 53 C-77.62648437 52.84144531 -78.25296875 52.68289062 -78.8984375 52.51953125 C-80.12433594 52.16955078 -80.12433594 52.16955078 -81.375 51.8125 C-82.18710938 51.59207031 -82.99921875 51.37164062 -83.8359375 51.14453125 C-86 50 -86 50 -87.25 47.90625 C-88.21795871 44.15540999 -88.45944499 40.54700129 -88.625 36.6875 C-88.66367188 35.94693359 -88.70234375 35.20636719 -88.7421875 34.44335938 C-88.83581705 32.62928691 -88.91896851 30.81467884 -89 29 C-88.34 29 -87.68 29 -87 29 C-86.67 29.66 -86.34 30.32 -86 31 C-85.67 30.01 -85.34 29.02 -85 28 C-85.61488281 28.04640625 -86.22976562 28.0928125 -86.86328125 28.140625 C-93.51839465 28.43782305 -93.51839465 28.43782305 -96.0625 26.125 C-97 24 -97 24 -97 22 C-96.01 22 -95.02 22 -94 22 C-94.33 21.0925 -94.66 20.185 -95 19.25 C-96 16 -96 16 -96 12 C-95.34 12 -94.68 12 -94 12 C-94.020625 10.88625 -94.04125 9.7725 -94.0625 8.625 C-94 5 -94 5 -93 3 C-93.99 3.495 -93.99 3.495 -95 4 C-97.3329866 4.04022391 -99.66706666 4.04320247 -102 4 C-101.67 3.34 -101.34 2.68 -101 2 C-91.74723889 0.53130776 -82.34241881 0.90840766 -73 1 C-73 1.33 -73 1.66 -73 2 C-74.98 2 -76.96 2 -79 2 C-78.505 2.99 -78.505 2.99 -78 4 C-77.960008 5.99960012 -77.95653201 8.00047242 -78 10 C-80.31 10.33 -82.62 10.66 -85 11 C-84.67 12.32 -84.34 13.64 -84 15 C-87.75 16.125 -87.75 16.125 -90 15 C-89.67 15.886875 -89.34 16.77375 -89 17.6875 C-88.08777857 20.70923347 -87.81669042 22.88373706 -88 26 C-86.35 26 -84.7 26 -83 26 C-82.75121094 26.55816406 -82.50242187 27.11632812 -82.24609375 27.69140625 C-80.7877572 30.39321471 -79.01922609 32.57266717 -77.0625 34.9375 C-74.92715097 37.51987537 -73.07687557 39.85603303 -71.49609375 42.81640625 C-71.00238281 43.53699219 -70.50867188 44.25757813 -70 45 C-66.09424192 45.46400906 -66.09424192 45.46400906 -64.34375 43.39453125 C-62.72580785 40.51139597 -62.1398753 37.92877308 -61.5 34.6875 C-60.44310226 29.74608804 -59.1765928 25.54245454 -57 21 C-56.32723284 19.3357865 -55.65793165 17.67013418 -55 16 C-57.97 15.67 -60.94 15.34 -64 15 C-64 14.34 -64 13.68 -64 13 C-41.43935253 11.98780744 -41.43935253 11.98780744 -31 18 C-30.505 18.99 -30.505 18.99 -30 20 C-33.63 19.67 -37.26 19.34 -41 19 C-40.690625 19.99 -40.38125 20.98 -40.0625 22 C-38.75632175 27.0175261 -38.65337395 32.11593056 -38.60571289 37.27539062 C-38.44324897 42.19334605 -37.35747114 44.47050296 -34 48 C-32.66666667 49.66666667 -31.33333333 51.33333333 -30 53 C-30.16048828 51.58847656 -30.16048828 51.58847656 -30.32421875 50.1484375 C-30.44410156 48.90320313 -30.56398438 47.65796875 -30.6875 46.375 C-30.81511719 45.14523438 -30.94273438 43.91546875 -31.07421875 42.6484375 C-30.9471803 36.40349453 -28.23115411 33.23115411 -24 29 C-23.2127322 26.8618034 -23.2127322 26.8618034 -23 25 C-22.01 25 -21.02 25 -20 25 C-20.639375 24.525625 -21.27875 24.05125 -21.9375 23.5625 C-24.85860535 19.9332479 -25.1029579 16.5855865 -25 12 C-24.0625 8.4375 -24.0625 8.4375 -23 6 C-26.3 6 -29.6 6 -33 6 C-30.43336819 3.43336819 -28.85822782 3.46468213 -25.29296875 2.9296875 C-24.14892578 2.75566406 -23.00488281 2.58164062 -21.82617188 2.40234375 C-20.0250293 2.14130859 -20.0250293 2.14130859 -18.1875 1.875 C-16.99833984 1.69324219 -15.80917969 1.51148437 -14.58398438 1.32421875 C-4.9334809 -0.1171254 -4.9334809 -0.1171254 0 0 Z " fill="#121210" transform="translate(130,21)"/>
<path d="M0 0 C0 0.66 0 1.32 0 2 C-2.64 2 -5.28 2 -8 2 C-7.505 2.99 -7.505 2.99 -7 4 C-6.960008 5.99960012 -6.95653201 8.00047242 -7 10 C-6.01 10 -5.02 10 -4 10 C-4.3585454 14.30254485 -5.03213421 17.32897446 -7.125 21.125 C-8.77322438 24.20240773 -8.77322438 24.20240773 -8.8125 27.6875 C-8.544375 28.450625 -8.27625 29.21375 -8 30 C-7.66666667 31.66666667 -7.33333333 33.33333333 -7 35 C-7.99 34.505 -7.99 34.505 -9 34 C-9.40729228 31.67843403 -9.74438677 29.3431213 -10 27 C-11.11375 26.855625 -12.2275 26.71125 -13.375 26.5625 C-17 26 -17 26 -19 25 C-19 25.66 -19 26.32 -19 27 C-18.29875 27.185625 -17.5975 27.37125 -16.875 27.5625 C-13.44233901 29.2788305 -11.8279407 31.33576728 -9.52734375 34.34375 C-7.83701099 36.17674511 -6.27499926 37.0215057 -4 38 C-4.185625 37.05125 -4.37125 36.1025 -4.5625 35.125 C-5 32 -5 32 -4 30 C-0.06212739 30.58338854 2.17201647 32.24271605 5 35 C6.09909756 36.95256347 7.03000422 38.94100929 7.95703125 40.98046875 C9.00666243 43.01290066 10.16070022 44.49445841 11.6875 46.1875 C15.45671078 50.77167527 15.4082363 55.18263272 15 61 C13.5 64.4375 13.5 64.4375 12 67 C9.69 66.67 7.38 66.34 5 66 C5.33 66.66 5.66 67.32 6 68 C7 71 7 71 7 79 C-14.12 79 -35.24 79 -57 79 C-57.33 74.38 -57.66 69.76 -58 65 C-57.34 65 -56.68 65 -56 65 C-56.01160156 64.40832031 -56.02320312 63.81664062 -56.03515625 63.20703125 C-56.08322386 58.99768215 -56.06006883 55.1077667 -55 51 C-54.01 51 -53.02 51 -52 51 C-52 55.95 -52 60.9 -52 66 C-47.71 66.33 -43.42 66.66 -39 67 C-39.21248296 60.94423575 -40.16901584 58.33404268 -44.30078125 53.9921875 C-48.43183637 49.1488815 -52 43.40810714 -52 37 C-52.7425 36.38125 -52.7425 36.38125 -53.5 35.75 C-55.64480289 33.24772996 -55.36204872 31.13971229 -55.3984375 27.9375 C-54.8733778 25.38426851 -54.13005479 24.48915335 -52 23 C-49.7734375 22.890625 -49.7734375 22.890625 -47.375 23.25 C-46.57835938 23.35828125 -45.78171875 23.4665625 -44.9609375 23.578125 C-43 24 -43 24 -42 25 C-41.8754514 26.64230364 -41.82431476 28.29052276 -41.8125 29.9375 C-41.79832031 30.83339844 -41.78414062 31.72929688 -41.76953125 32.65234375 C-42 35 -42 35 -44 37 C-44.24212873 38.98128508 -44.24212873 38.98128508 -44.125 41.125 C-44.063125 43.043125 -44.063125 43.043125 -44 45 C-42.68 45.33 -41.36 45.66 -40 46 C-39.34 45.01 -38.68 44.02 -38 43 C-34 48 -34 48 -30 53 C-30.10699219 52.05898437 -30.21398437 51.11796875 -30.32421875 50.1484375 C-30.44410156 48.90320313 -30.56398438 47.65796875 -30.6875 46.375 C-30.81511719 45.14523438 -30.94273438 43.91546875 -31.07421875 42.6484375 C-30.9471803 36.40349453 -28.23115411 33.23115411 -24 29 C-23.2127322 26.8618034 -23.2127322 26.8618034 -23 25 C-22.01 25 -21.02 25 -20 25 C-20.639375 24.525625 -21.27875 24.05125 -21.9375 23.5625 C-24.85860535 19.9332479 -25.1029579 16.5855865 -25 12 C-24.0625 8.4375 -24.0625 8.4375 -23 6 C-26.3 6 -29.6 6 -33 6 C-30.43336819 3.43336819 -28.85822782 3.46468213 -25.29296875 2.9296875 C-24.14892578 2.75566406 -23.00488281 2.58164062 -21.82617188 2.40234375 C-20.0250293 2.14130859 -20.0250293 2.14130859 -18.1875 1.875 C-16.99833984 1.69324219 -15.80917969 1.51148437 -14.58398438 1.32421875 C-4.9334809 -0.1171254 -4.9334809 -0.1171254 0 0 Z " fill="#121212" transform="translate(130,21)"/>
<path d="M0 0 C0.79664062 0.10828125 1.59328125 0.2165625 2.4140625 0.328125 C4.375 0.75 4.375 0.75 5.375 1.75 C5.4995486 3.39230364 5.55068524 5.04052276 5.5625 6.6875 C5.57667969 7.58339844 5.59085938 8.47929688 5.60546875 9.40234375 C5.375 11.75 5.375 11.75 3.375 13.75 C3.13287127 15.73128508 3.13287127 15.73128508 3.25 17.875 C3.29125 19.15375 3.3325 20.4325 3.375 21.75 C4.695 22.08 6.015 22.41 7.375 22.75 C8.035 21.76 8.695 20.77 9.375 19.75 C9.931875 20.471875 10.48875 21.19375 11.0625 21.9375 C13.32905207 24.79834845 13.32905207 24.79834845 16 27.3125 C18.08481899 29.45218264 19.26311642 31.02083122 20.375 33.75 C18.375 34.75 18.375 34.75 16.375 34.75 C18.85 37.225 18.85 37.225 21.375 39.75 C20.715 39.75 20.055 39.75 19.375 39.75 C19.375 41.4 19.375 43.05 19.375 44.75 C17.89 45.245 17.89 45.245 16.375 45.75 C15.64176204 47.76508358 15.64176204 47.76508358 15.375 49.75 C14.055 49.75 12.735 49.75 11.375 49.75 C11.375 50.41 11.375 51.07 11.375 51.75 C7.10883684 52.88764351 3.81013689 53.75 -0.625 53.75 C-0.625 52.76 -0.625 51.77 -0.625 50.75 C-1.945 50.75 -3.265 50.75 -4.625 50.75 C-4.625 52.4 -4.625 54.05 -4.625 55.75 C-6.275 55.75 -7.925 55.75 -9.625 55.75 C-9.955 51.13 -10.285 46.51 -10.625 41.75 C-9.965 41.75 -9.305 41.75 -8.625 41.75 C-8.63660156 41.15832031 -8.64820312 40.56664062 -8.66015625 39.95703125 C-8.70822386 35.74768215 -8.68506883 31.8577667 -7.625 27.75 C-6.635 27.75 -5.645 27.75 -4.625 27.75 C-4.625 32.7 -4.625 37.65 -4.625 42.75 C-0.335 43.08 3.955 43.41 8.375 43.75 C8.16251704 37.69423575 7.20598416 35.08404268 3.07421875 30.7421875 C-1.05683637 25.8988815 -4.625 20.15810714 -4.625 13.75 C-5.12 13.3375 -5.615 12.925 -6.125 12.5 C-8.26980289 9.99772996 -7.98704872 7.88971229 -8.0234375 4.6875 C-7.06193748 0.01197047 -4.3272711 -0.6483859 0 0 Z " fill="#373737" transform="translate(82.625,44.25)"/>
<path d="M0 0 C3.93787261 0.58338854 6.17201647 2.24271605 9 5 C10.09909756 6.95256347 11.03000422 8.94100929 11.95703125 10.98046875 C13.00666243 13.01290066 14.16070022 14.49445841 15.6875 16.1875 C19.45671078 20.77167527 19.4082363 25.18263272 19 31 C17.5 34.4375 17.5 34.4375 16 37 C12.535 36.505 12.535 36.505 9 36 C9.33 36.66 9.66 37.32 10 38 C11.28687011 41.86061033 11.13757618 44.94150283 11 49 C8.36 49 5.72 49 3 49 C3 48.34 3 47.68 3 47 C2.40832031 46.90460938 1.81664063 46.80921875 1.20703125 46.7109375 C-1.47458909 45.84712351 -2.50007759 44.75673257 -4.3125 42.625 C-5.11107422 41.71621094 -5.11107422 41.71621094 -5.92578125 40.7890625 C-6.28027344 40.19867188 -6.63476562 39.60828125 -7 39 C-5.85408232 35.56224696 -4.44249373 32.3240073 -3 29 C3 36.71428571 3 36.71428571 3 40 C3.66 39.34 4.32 38.68 5 38 C5 37.01 5 36.02 5 35 C6.65 34.34 8.3 33.68 10 33 C10.495 33.495 10.495 33.495 11 34 C10.505 31.525 10.505 31.525 10 29 C9.40832031 28.95746094 8.81664062 28.91492188 8.20703125 28.87109375 C5.24991364 28.33562873 3.47308218 27.74864397 1 26 C-0.74515581 22.30131156 -1.81038457 18.70362568 -2.83203125 14.76171875 C-4.04090286 10.86826268 -5.43074596 8.15651211 -8 5 C-8.99 5 -9.98 5 -11 5 C-11 4.01 -11 3.02 -11 2 C-6.16743695 2.41421969 -4.17320782 4.46413986 -1 8 C-1 7.34 -1 6.68 -1 6 C-0.67966043 3.99787771 -0.34740923 1.99760305 0 0 Z " fill="#36342F" transform="translate(126,51)"/>
<path d="M0 0 C0 0.33 0 0.66 0 1 C-1.98 1 -3.96 1 -6 1 C-5.67 1.66 -5.34 2.32 -5 3 C-4.960008 4.99960012 -4.95653201 7.00047242 -5 9 C-7.31 9.33 -9.62 9.66 -12 10 C-11.67 11.32 -11.34 12.64 -11 14 C-14.75 15.125 -14.75 15.125 -17 14 C-16.67 14.886875 -16.34 15.77375 -16 16.6875 C-15.08777857 19.70923347 -14.81669042 21.88373706 -15 25 C-13.35 25 -11.7 25 -10 25 C-9.73445313 25.57234375 -9.46890625 26.1446875 -9.1953125 26.734375 C-7.94323109 29.1076012 -6.5063648 31.12213286 -4.875 33.25 C-4.33617188 33.95640625 -3.79734375 34.6628125 -3.2421875 35.390625 C-2.83226563 35.92171875 -2.42234375 36.4528125 -2 37 C-2.33 37.66 -2.66 38.32 -3 39 C-3.66 39 -4.32 39 -5 39 C-4.67 42.3 -4.34 45.6 -4 49 C-10.625 50.25 -10.625 50.25 -14 48 C-15.3927668 44.07479103 -15.34012826 39.87663627 -15.5625 35.75 C-15.60568359 35.00492188 -15.64886719 34.25984375 -15.69335938 33.4921875 C-15.79896725 31.661651 -15.89994201 29.83084824 -16 28 C-15.34 28 -14.68 28 -14 28 C-13.67 28.66 -13.34 29.32 -13 30 C-12.67 29.01 -12.34 28.02 -12 27 C-12.61488281 27.04640625 -13.22976562 27.0928125 -13.86328125 27.140625 C-20.51839465 27.43782305 -20.51839465 27.43782305 -23.0625 25.125 C-24 23 -24 23 -24 21 C-23.01 21 -22.02 21 -21 21 C-21.33 20.0925 -21.66 19.185 -22 18.25 C-23 15 -23 15 -23 11 C-22.34 11 -21.68 11 -21 11 C-21.020625 9.88625 -21.04125 8.7725 -21.0625 7.625 C-21 4 -21 4 -20 2 C-20.99 2.495 -20.99 2.495 -22 3 C-24.3329866 3.04022391 -26.66706666 3.04320247 -29 3 C-28.67 2.34 -28.34 1.68 -28 1 C-18.74723889 -0.46869224 -9.34241881 -0.09159234 0 0 Z " fill="#0C0C0C" transform="translate(57,22)"/>
<path d="M0 0 C1.32 1.32 2.64 2.64 4 4 C3.01 4 2.02 4 1 4 C1.33 4.99 1.66 5.98 2 7 C2.99 7 3.98 7 5 7 C13 20.37549407 13 20.37549407 13 28 C13.62648438 28.12117188 14.25296875 28.24234375 14.8984375 28.3671875 C15.71570313 28.53476563 16.53296875 28.70234375 17.375 28.875 C18.59316406 29.11863281 18.59316406 29.11863281 19.8359375 29.3671875 C22 30 22 30 24 32 C24 32.99 24 33.98 24 35 C24.66 35.66 25.32 36.32 26 37 C24.68 37 23.36 37 22 37 C22 36.34 22 35.68 22 35 C20.35 35.66 18.7 36.32 17 37 C17.33 38.32 17.66 39.64 18 41 C16.515 41.495 16.515 41.495 15 42 C12.525 37.545 12.525 37.545 10 33 C9.01 35.31 8.02 37.62 7 40 C2.35320324 35.79575531 -0.27516318 29.81470162 -3.25 24.375 C-3.62640625 23.70726563 -4.0028125 23.03953125 -4.390625 22.3515625 C-5.33900437 20.60821807 -6.17782447 18.80629472 -7 17 C-6.67 16.01 -6.34 15.02 -6 14 C-3.36 19.28 -0.72 24.56 2 30 C-0.45682701 22.62951898 -2.72245905 15.84299177 -8 10 C-7.34 9.67 -6.68 9.34 -6 9 C-6 9.66 -6 10.32 -6 11 C-5.01 11.33 -4.02 11.66 -3 12 C-1.3125 14.5625 -1.3125 14.5625 0 17 C-0.28875 16.443125 -0.5775 15.88625 -0.875 15.3125 C-2 13 -2 13 -2.8125 10.3125 C-3.204375 9.549375 -3.59625 8.78625 -4 8 C-6.54775306 7.10613836 -6.54775306 7.10613836 -9 7 C-8.67 6.01 -8.34 5.02 -8 4 C-5.0625 2.75 -5.0625 2.75 -2 2 C-1.34 2.33 -0.68 2.66 0 3 C0 2.01 0 1.02 0 0 Z " fill="#414141" transform="translate(114,49)"/>
<path d="M0 0 C2.86697492 1.28519565 4.97607712 2.57129254 7 5 C7 5.66 7 6.32 7 7 C7.66 7 8.32 7 9 7 C11 10 11 10 11.9375 13.5625 C12.67850977 17.24149406 12.67850977 17.24149406 16 19 C17.65549531 19.38499891 19.3222433 19.72793135 21 20 C21 20.99 21 21.98 21 23 C21.66 23.33 22.32 23.66 23 24 C23 25.98 23 27.96 23 30 C22.34 30 21.68 30 21 30 C21.33 33.63 21.66 37.26 22 41 C22.66 41 23.32 41 24 41 C23.95875 40.2575 23.9175 39.515 23.875 38.75 C24.00615101 35.86467775 24.38861907 34.37466663 26 32 C26.99 31.67 27.98 31.34 29 31 C30.5625 32.5 30.5625 32.5 32 35 C31.96823234 37.77437543 31.50364148 40.25286467 31 43 C27.37 43 23.74 43 20 43 C19.67 42.34 19.34 41.68 19 41 C18.319375 40.62875 17.63875 40.2575 16.9375 39.875 C10.77870705 35.94385557 5.76328199 30.82693197 3 24 C2.67 23.34 2.34 22.68 2 22 C3.32 22.33 4.64 22.66 6 23 C4.46124218 19.5175481 3.1197154 17.11686504 0.375 14.4375 C-2.20175026 11.79294053 -2.81382808 10.63035235 -3 7 C-2.6073105 4.70931122 -2.03907184 3.07814369 -1 1 C1.31 3.97 3.62 6.94 6 10 C5.01 10.33 4.02 10.66 3 11 C3 11.99 3 12.98 3 14 C3.66 14.66 4.32 15.32 5 16 C5.99 15.67 6.98 15.34 8 15 C7.67 12.69 7.34 10.38 7 8 C6.01 7.67 5.02 7.34 4 7 C2.41034429 4.78298853 1.27672514 2.42137527 0 0 Z " fill="#333333" transform="translate(31,57)"/>
<path d="M0 0 C0 0.66 0 1.32 0 2 C-2.64 2 -5.28 2 -8 2 C-7.67 2.66 -7.34 3.32 -7 4 C-6.960008 5.99960012 -6.95653201 8.00047242 -7 10 C-6.01 10 -5.02 10 -4 10 C-4.3585454 14.30254485 -5.03213421 17.32897446 -7.125 21.125 C-8.77322438 24.20240773 -8.77322438 24.20240773 -8.8125 27.6875 C-8.544375 28.450625 -8.27625 29.21375 -8 30 C-7.66666667 31.66666667 -7.33333333 33.33333333 -7 35 C-7.66 34.67 -8.32 34.34 -9 34 C-9.40729228 31.67843403 -9.74438677 29.3431213 -10 27 C-13.3 26.67 -16.6 26.34 -20 26 C-20.33 25.01 -20.66 24.02 -21 23 C-21.99 22.34 -22.98 21.68 -24 21 C-25.56462494 15.74958075 -25.18566282 11.01416766 -23 6 C-26.3 6 -29.6 6 -33 6 C-30.43336819 3.43336819 -28.85822782 3.46468213 -25.29296875 2.9296875 C-24.14892578 2.75566406 -23.00488281 2.58164062 -21.82617188 2.40234375 C-20.0250293 2.14130859 -20.0250293 2.14130859 -18.1875 1.875 C-16.99833984 1.69324219 -15.80917969 1.51148437 -14.58398438 1.32421875 C-4.9334809 -0.1171254 -4.9334809 -0.1171254 0 0 Z " fill="#403E37" transform="translate(130,21)"/>
<path d="M0 0 C1.66666667 1.66666667 3.33333333 3.33333333 5 5 C5.75990234 5.67482422 5.75990234 5.67482422 6.53515625 6.36328125 C8.35172337 8.39299224 9.14574286 10.33818427 10.125 12.875 C10.45757812 13.71804687 10.79015625 14.56109375 11.1328125 15.4296875 C11.98077444 17.94301613 12.54163983 20.39015331 13 23 C9.68060603 21.34030301 8.8364081 17.69596481 7.375 14.4375 C7.05015625 13.72658203 6.7253125 13.01566406 6.390625 12.28320312 C5.58809007 10.52470748 4.79331041 8.76267633 4 7 C5.45145829 10.77795841 7.1241175 14.38246342 8.9375 18 C9.44152344 19.010625 9.94554688 20.02125 10.46484375 21.0625 C11.45445075 22.95609915 12.49714789 24.82332541 13.6015625 26.65234375 C15 29 15 29 16.4375 32.5625 C17.95583576 35.90283867 19.18075509 37.70936351 22 40 C23.485 40.495 23.485 40.495 25 41 C25 41.66 25 42.32 25 43 C18.73 43 12.46 43 6 43 C6 39.04 6 35.08 6 31 C7.32 31.33 8.64 31.66 10 32 C9.5875 31.21625 9.175 30.4325 8.75 29.625 C6.53243432 25.21108936 4.79062067 20.59925919 3 16 C2.34 16.33 1.68 16.66 1 17 C-1.12757316 12.60301547 -2.10973216 7.88308109 -2 3 C-1.34 2.01 -0.68 1.02 0 0 Z " fill="#161616" transform="translate(104,57)"/>
<path d="M0 0 C22.56064747 -1.01219256 22.56064747 -1.01219256 33 5 C33.495 5.99 33.495 5.99 34 7 C28.555 6.505 28.555 6.505 23 6 C23.32742187 7.1034375 23.65484375 8.206875 23.9921875 9.34375 C25.26012023 14.41548092 25.22325309 19.30014394 25.125 24.5 C25.11597656 25.4178125 25.10695313 26.335625 25.09765625 27.28125 C25.07432432 29.52111556 25.04159235 31.76041183 25 34 C23.02 33.34 21.04 32.68 19 32 C18.8046875 25.9453125 18.8046875 25.9453125 19 24 C19.66 23.34 20.32 22.68 21 22 C21.24287489 19.55987051 21.24287489 19.55987051 21.125 16.875 C21.08375 15.26625 21.0425 13.6575 21 12 C15.06 11.01 15.06 11.01 9 10 C9 10.66 9 11.32 9 12 C8.34 12 7.68 12 7 12 C7.875 5.25 7.875 5.25 9 3 C6.03 2.67 3.06 2.34 0 2 C0 1.34 0 0.68 0 0 Z " fill="#292723" transform="translate(66,34)"/>
<path d="M0 0 C3.89086767 0.57642484 6.20617303 2.28168187 9 5 C9.9375 7.5625 9.9375 7.5625 10 10 C9.01 11.485 9.01 11.485 8 13 C7.97584416 15.9824577 7.97584416 15.9824577 8.375 19.1875 C8.48585937 20.27417969 8.59671875 21.36085938 8.7109375 22.48046875 C8.85402344 23.72763672 8.85402344 23.72763672 9 25 C9.62390625 25.12246094 10.2478125 25.24492188 10.890625 25.37109375 C13.67390599 26.20092382 14.4595 27.612225 16 30 C15.401875 29.690625 14.80375 29.38125 14.1875 29.0625 C10.75736339 27.28133167 10.75736339 27.28133167 7.0625 27.5625 C5 28 5 28 3.02734375 27.48046875 C-0.00945454 25.26284534 -0.53291357 22.22484157 -1.5 18.75 C-2.99001019 13.51955043 -4.54832008 9.27477282 -8 5 C-8.99 5 -9.98 5 -11 5 C-11 4.01 -11 3.02 -11 2 C-6.16743695 2.41421969 -4.17320782 4.46413986 -1 8 C-1 7.34 -1 6.68 -1 6 C-0.67966043 3.99787771 -0.34740923 1.99760305 0 0 Z " fill="#171717" transform="translate(126,51)"/>
<path d="M0 0 C0.79664062 0.10828125 1.59328125 0.2165625 2.4140625 0.328125 C4.375 0.75 4.375 0.75 5.375 1.75 C5.4995486 3.39230364 5.55068524 5.04052276 5.5625 6.6875 C5.57667969 7.58339844 5.59085938 8.47929688 5.60546875 9.40234375 C5.375 11.75 5.375 11.75 3.375 13.75 C2.25187481 20.77606221 3.81711131 25.74606283 7.375 31.75 C2.96035458 30.41359373 1.37409082 28.86417688 -0.875 24.875 C-1.37515625 24.01132813 -1.8753125 23.14765625 -2.390625 22.2578125 C-3.81598099 19.36199431 -4.625 16.97602903 -4.625 13.75 C-5.12 13.37875 -5.615 13.0075 -6.125 12.625 C-8.21190902 10.01636373 -7.98645297 7.94213859 -8.0234375 4.6875 C-7.06193748 0.01197047 -4.3272711 -0.6483859 0 0 Z " fill="#A6A6A6" transform="translate(82.625,44.25)"/>
<path d="M0 0 C0.99 0.66 1.98 1.32 3 2 C3 2.66 3 3.32 3 4 C3.66 4 4.32 4 5 4 C6.485 10.435 6.485 10.435 8 17 C7.34 17.33 6.68 17.66 6 18 C4.35 16.02 2.7 14.04 1 12 C2.09901242 14.47277795 3.21512286 16.24873581 5 18.3125 C7.41722596 21.56064738 8.07940632 24.08747686 9 28 C6.75 28.25 6.75 28.25 4 28 C1.6875 26 1.6875 26 0 24 C2 21 2 21 3 20 C1.35 17.69 -0.3 15.38 -2 13 C-2.99 14.32 -3.98 15.64 -5 17 C-5.33 16.01 -5.66 15.02 -6 14 C-6.9590625 14.99 -6.9590625 14.99 -7.9375 16 C-10 18 -10 18 -11 18 C-11.45892255 12.26346813 -10.73458249 9.40489216 -7 5 C-4.74110504 3.16192701 -2.44444659 1.598292 0 0 Z " fill="#22211E" transform="translate(32,46)"/>
<path d="M0 0 C1.32 0 2.64 0 4 0 C6.66590937 4.55426184 7.31563182 7.73946963 7 13 C7.66 13 8.32 13 9 13 C9.04254356 14.99954746 9.04080783 17.00041636 9 19 C8.67 19.33 8.34 19.66 8 20 C7.95907063 22.33297433 7.95758277 24.66705225 8 27 C7.34 26.67 6.68 26.34 6 26 C3.6670134 25.95977609 1.33293334 25.95679753 -1 26 C-2.4606285 23.35261084 -3 22.10551666 -3 19 C-3.33 18.67 -3.66 18.34 -4 18 C-4.04080783 16.00041636 -4.04254356 13.99954746 -4 12 C-3.34 12 -2.68 12 -2 12 C-1.34 8.04 -0.68 4.08 0 0 Z " fill="#1E1E1E" transform="translate(65,67)"/>
<path d="M0 0 C0.99 0 1.98 0 3 0 C3 4.95 3 9.9 3 15 C8.61 15.33 14.22 15.66 20 16 C20.33 17.65 20.66 19.3 21 21 C15.06 21.33 9.12 21.66 3 22 C3 23.98 3 25.96 3 28 C1.35 28 -0.3 28 -2 28 C-2.33 23.38 -2.66 18.76 -3 14 C-2.34 14 -1.68 14 -1 14 C-1.01160156 13.40832031 -1.02320312 12.81664063 -1.03515625 12.20703125 C-1.08322386 7.99768215 -1.06006883 4.1077667 0 0 Z " fill="#A2A2A2" transform="translate(75,72)"/>
<path d="M0 0 C3 1 3 1 4.4375 3.5625 C4.953125 4.366875 5.46875 5.17125 6 6 C9.76687864 6 10.91190305 5.76462683 14 4 C18 8.625 18 8.625 18 12 C18.66 12 19.32 12 20 12 C20 14.64 20 17.28 20 20 C19.34 20 18.68 20 18 20 C17.80083984 19.09507813 17.80083984 19.09507813 17.59765625 18.171875 C17.33275391 16.97304687 17.33275391 16.97304687 17.0625 15.75 C16.88847656 14.96109375 16.71445313 14.1721875 16.53515625 13.359375 C16.052444 11.23121297 15.53836822 9.11467158 15 7 C14.01 7.33 13.02 7.66 12 8 C11.34 11.96 10.68 15.92 10 20 C9.01 19.67 8.02 19.34 7 19 C7 19.66 7 20.32 7 21 C6.34 21 5.68 21 5 21 C4.34 19.35 3.68 17.7 3 16 C1.68 16 0.36 16 -1 16 C-1 15.34 -1 14.68 -1 14 C-2.45833358 12.37485532 -2.45833358 12.37485532 -4 11 C-3.01 11 -2.02 11 -1 11 C-1.33 10.01 -1.66 9.02 -2 8 C-2.03954234 5.66700175 -2.04401732 3.33291811 -2 1 C-1.34 0.67 -0.68 0.34 0 0 Z " fill="#121211" transform="translate(54,60)"/>
<path d="M0 0 C0 1.98 0 3.96 0 6 C-0.66 6 -1.32 6 -2 6 C-1.67 9.63 -1.34 13.26 -1 17 C-0.34 17 0.32 17 1 17 C0.95875 16.2575 0.9175 15.515 0.875 14.75 C1.00615101 11.86467775 1.38861907 10.37466663 3 8 C3.99 7.67 4.98 7.34 6 7 C7.5625 8.5 7.5625 8.5 9 11 C8.96823234 13.77437543 8.50364148 16.25286467 8 19 C4.37 19 0.74 19 -3 19 C-3.33 18.34 -3.66 17.68 -4 17 C-4.99 16.34 -5.98 15.68 -7 15 C-6.34 15 -5.68 15 -5 15 C-5 14.34 -5 13.68 -5 13 C-6.32 12.67 -7.64 12.34 -9 12 C-8.67 10.35 -8.34 8.7 -8 7 C-9.98 7 -11.96 7 -14 7 C-14.66 5.68 -15.32 4.36 -16 3 C-15.22914062 2.86722656 -14.45828125 2.73445313 -13.6640625 2.59765625 C-12.66117188 2.42105469 -11.65828125 2.24445313 -10.625 2.0625 C-9.62726562 1.88847656 -8.62953125 1.71445313 -7.6015625 1.53515625 C-0.13868613 0 -0.13868613 0 0 0 Z " fill="#28261E" transform="translate(54,81)"/>
<path d="M0 0 C6 7.71428571 6 7.71428571 6 11 C6.66 10.34 7.32 9.68 8 9 C8 8.01 8 7.02 8 6 C9.32 5.67 10.64 5.34 12 5 C12.144375 5.598125 12.28875 6.19625 12.4375 6.8125 C12.8872439 8.56150404 13.42892341 10.28677023 14 12 C14.12781786 14.67394964 14.04391871 17.32095857 14 20 C11.36 20 8.72 20 6 20 C6 19.34 6 18.68 6 18 C5.40832031 17.90460938 4.81664063 17.80921875 4.20703125 17.7109375 C1.52541091 16.84712351 0.49992241 15.75673257 -1.3125 13.625 C-1.84488281 13.01914063 -2.37726563 12.41328125 -2.92578125 11.7890625 C-3.28027344 11.19867188 -3.63476562 10.60828125 -4 10 C-2.85408232 6.56224696 -1.44249373 3.3240073 0 0 Z " fill="#343434" transform="translate(123,80)"/>
<path d="M0 0 C2.96175123 0.61277612 4.38058783 1.25372522 7 3 C7 3.99 7 4.98 7 6 C5.8553125 6.2165625 5.8553125 6.2165625 4.6875 6.4375 C1.91827092 6.9632594 1.91827092 6.9632594 -1 8 C-1.33 8.66 -1.66 9.32 -2 10 C-1.278125 10.020625 -0.55625 10.04125 0.1875 10.0625 C3.85541451 11.28513817 4.99500166 13.13667898 7.1796875 16.2109375 C8 18 8 18 7 21 C6.38125 20.030625 5.7625 19.06125 5.125 18.0625 C3.34321154 14.97164638 3.34321154 14.97164638 1 14 C1 13.34 1 12.68 1 12 C-0.32 12 -1.64 12 -3 12 C-4.59789351 16.95346987 -3.28306814 21.13282415 -2 26 C-1.34 25.67 -0.68 25.34 0 25 C0.79441072 26.87383903 1.58539974 28.74912886 2.375 30.625 C2.81585938 31.66914062 3.25671875 32.71328125 3.7109375 33.7890625 C4.93136322 36.82903202 5.9981391 39.88205905 7 43 C6.34 43 5.68 43 5 43 C2.525 37.555 2.525 37.555 0 32 C-0.66 32 -1.32 32 -2 32 C-2.66 30.35 -3.32 28.7 -4 27 C-4.66 27 -5.32 27 -6 27 C-8.22810797 21.29047334 -9.03011455 16.62679211 -6.75 10.8125 C-5.06528189 8.10491733 -3.23917946 6.23917946 -1 4 C-0.2127322 1.8618034 -0.2127322 1.8618034 0 0 Z " fill="#2D2A25" transform="translate(107,46)"/>
<path d="M0 0 C0 0.33 0 0.66 0 1 C-1.98 1 -3.96 1 -6 1 C-5.67 1.66 -5.34 2.32 -5 3 C-5 4.98 -5 6.96 -5 9 C-8.96 9 -12.92 9 -17 9 C-17.66 10.32 -18.32 11.64 -19 13 C-19.66 12.67 -20.32 12.34 -21 12 C-21.125 4.25 -21.125 4.25 -20 2 C-20.99 2.495 -20.99 2.495 -22 3 C-24.3329866 3.04022391 -26.66706666 3.04320247 -29 3 C-28.67 2.34 -28.34 1.68 -28 1 C-18.74723889 -0.46869224 -9.34241881 -0.09159234 0 0 Z " fill="#433D2B" transform="translate(57,22)"/>
<path d="M0 0 C0.99 0 1.98 0 3 0 C3.67220351 1.93558599 4.33758077 3.87354372 5 5.8125 C5.556875 7.43091797 5.556875 7.43091797 6.125 9.08203125 C7 12 7 12 7 15 C7.62648438 15.12117188 8.25296875 15.24234375 8.8984375 15.3671875 C10.12433594 15.61855469 10.12433594 15.61855469 11.375 15.875 C12.18710938 16.03742188 12.99921875 16.19984375 13.8359375 16.3671875 C16 17 16 17 18 19 C18 19.99 18 20.98 18 22 C18.66 22.66 19.32 23.32 20 24 C18.68 24 17.36 24 16 24 C16 23.34 16 22.68 16 22 C14.35 22.66 12.7 23.32 11 24 C11.33 25.32 11.66 26.64 12 28 C11.01 28.33 10.02 28.66 9 29 C6.08718499 24.43658982 4.56508804 20.70994338 3.57421875 15.41015625 C2.71674877 11.81111557 1.21959632 8.53125683 -0.29296875 5.1640625 C-1 3 -1 3 0 0 Z " fill="#949494" transform="translate(120,62)"/>
<path d="M0 0 C0.99 0.66 1.98 1.32 3 2 C3 2.99 3 3.98 3 5 C4.32 5 5.64 5 7 5 C6.34 3.35 5.68 1.7 5 0 C10.05506114 1.29315518 12.44448547 3.25735313 16 7 C18.16620544 8.29519995 18.16620544 8.29519995 20 9 C20 9.66 20 10.32 20 11 C12.74 11 5.48 11 -2 11 C-1 1 -1 1 0 0 Z " fill="#151515" transform="translate(31,89)"/>
<path d="M0 0 C2.64 0 5.28 0 8 0 C8.61719218 9.78935379 8.61719218 9.78935379 6.375 14.1875 C3.39263517 16.46351526 1.66577816 16.4165657 -2 16 C-3.19287411 12.12315913 -4 9.08378077 -4 5 C-2.35 4.67 -0.7 4.34 1 4 C0.67 2.68 0.34 1.36 0 0 Z " fill="#969696" transform="translate(44,31)"/>
<path d="M0 0 C1.98 0.99 1.98 0.99 4 2 C4 2.66 4 3.32 4 4 C4.928125 3.814375 5.85625 3.62875 6.8125 3.4375 C10 3 10 3 13 4 C12.67 5.32 12.34 6.64 12 8 C11.67 7.01 11.34 6.02 11 5 C10.67 5.33 10.34 5.66 10 6 C10.06512218 8.45392223 10.19198735 10.86699341 10.375 13.3125 C10.41882812 13.98990234 10.46265625 14.66730469 10.5078125 15.36523438 C10.64018232 17.24598884 10.81858296 19.12334154 11 21 C11.07347656 21.78246094 11.14695312 22.56492187 11.22265625 23.37109375 C11.90694469 25.25279133 11.90694469 25.25279133 14.28515625 26.046875 C15.20167969 26.27890625 16.11820313 26.5109375 17.0625 26.75 C17.98160156 26.99234375 18.90070312 27.2346875 19.84765625 27.484375 C20.55792969 27.65453125 21.26820312 27.8246875 22 28 C21.67 28.99 21.34 29.98 21 31 C21.66 31 22.32 31 23 31 C23 32.32 23 33.64 23 35 C22.34 35 21.68 35 21 35 C21 34.01 21 33.02 21 32 C20.113125 32.0825 19.22625 32.165 18.3125 32.25 C14.15774287 31.93643342 12.81088379 31.04512411 10 28 C8.3174597 22.93972843 7.31397054 17.79869796 6.375 12.5625 C6.2409375 11.83095703 6.106875 11.09941406 5.96875 10.34570312 C5.64275312 8.56436303 5.320935 6.78225902 5 5 C4.34 5 3.68 5 3 5 C1.375 2.5 1.375 2.5 0 0 Z " fill="#B4B4B4" transform="translate(32,45)"/>
<path d="M0 0 C1.32 1.32 2.64 2.64 4 4 C3.01 4 2.02 4 1 4 C1.33 4.99 1.66 5.98 2 7 C2.99 7 3.98 7 5 7 C5.99 8.98 6.98 10.96 8 13 C6.02 13.99 6.02 13.99 4 15 C3.5978125 14.0409375 3.5978125 14.0409375 3.1875 13.0625 C2.11332248 10.66868314 2.11332248 10.66868314 -1 10 C-0.54625 10.53625 -0.0925 11.0725 0.375 11.625 C2.25799477 14.37706927 3.24041347 16.75449392 4 20 C3.34 20.99 2.68 21.98 2 23 C0.70376621 21.42040347 -0.58681327 19.83616587 -1.875 18.25 C-2.95394531 16.92742187 -2.95394531 16.92742187 -4.0546875 15.578125 C-5.68442588 13.41823076 -6.90784005 11.460234 -8 9 C-7.34 9 -6.68 9 -6 9 C-6 9.66 -6 10.32 -6 11 C-5.01 11.33 -4.02 11.66 -3 12 C-1.3125 14.5625 -1.3125 14.5625 0 17 C-0.28875 16.443125 -0.5775 15.88625 -0.875 15.3125 C-2 13 -2 13 -2.8125 10.3125 C-3.204375 9.549375 -3.59625 8.78625 -4 8 C-6.54775306 7.10613836 -6.54775306 7.10613836 -9 7 C-8.67 6.01 -8.34 5.02 -8 4 C-5.0625 2.75 -5.0625 2.75 -2 2 C-1.34 2.33 -0.68 2.66 0 3 C0 2.01 0 1.02 0 0 Z " fill="#474747" transform="translate(114,49)"/>
<path d="M0 0 C2.97 0 5.94 0 9 0 C7.515 1.98 7.515 1.98 6 4 C6.61875 3.814375 7.2375 3.62875 7.875 3.4375 C10 3 10 3 12 4 C11.43761722 7.93667948 10.56264345 10.90715445 8 14 C4.81493478 14.5308442 2.96259618 14.59747349 0.1875 12.875 C-1.42228269 10.33323785 -1.67109009 7.9601892 -2 5 C-0.35 4.67 1.3 4.34 3 4 C2.01 3.34 1.02 2.68 0 2 C0 1.34 0 0.68 0 0 Z " fill="#8B8679" transform="translate(113,31)"/>
<path d="M0 0 C1.69370811 1.64531645 3.3531784 3.30866971 5 5 C5.47695312 5.46921875 5.95390625 5.9384375 6.4453125 6.421875 C9.19629369 9.34577501 9.98555024 10.82082295 10.3125 14.875 C10.1578125 16.421875 10.1578125 16.421875 10 18 C3.375 20.125 3.375 20.125 0 19 C0 14.71 0 10.42 0 6 C0.99 6 1.98 6 3 6 C2.2575 5.071875 2.2575 5.071875 1.5 4.125 C0 2 0 2 0 0 Z " fill="#3C3C3C" transform="translate(78,68)"/>
<path d="M0 0 C2.3125 -0.25 2.3125 -0.25 5 0 C6.8125 2 6.8125 2 8 4 C7.34 4 6.68 4 6 4 C6 5.65 6 7.3 6 9 C5.01 9.33 4.02 9.66 3 10 C2.26676204 12.01508358 2.26676204 12.01508358 2 14 C0.68 14 -0.64 14 -2 14 C-2 14.66 -2 15.32 -2 16 C-6.26616316 17.13764351 -9.56486311 18 -14 18 C-14 17.01 -14 16.02 -14 15 C-15.32 14.67 -16.64 14.34 -18 14 C-14.24600202 12.7960663 -10.66782588 12.90122383 -6.75 12.9375 C-4.85507813 12.95103516 -4.85507813 12.95103516 -2.921875 12.96484375 C-1.95765625 12.97644531 -0.9934375 12.98804687 0 13 C-0.185625 12.21625 -0.37125 11.4325 -0.5625 10.625 C-1 8 -1 8 0 6 C-0.66 6 -1.32 6 -2 6 C-1.34 4.02 -0.68 2.04 0 0 Z " fill="#3B3B3B" transform="translate(96,80)"/>
<path d="M0 0 C0.99 0 1.98 0 3 0 C3 0.66 3 1.32 3 2 C4.32 2.33 5.64 2.66 7 3 C6.67 3.66 6.34 4.32 6 5 C3.9375 5.625 3.9375 5.625 2 6 C2.48026848 8.94818931 2.48026848 8.94818931 4 12 C6.32481174 13.01965427 8.65794699 14.02059602 11 15 C11.875 17.375 11.875 17.375 12 20 C12.185625 20.928125 12.37125 21.85625 12.5625 22.8125 C12.706875 23.534375 12.85125 24.25625 13 25 C12.34 24.67 11.68 24.34 11 24 C10.59270772 21.67843403 10.25561323 19.3431213 10 17 C6.7 16.67 3.4 16.34 0 16 C-0.33 15.01 -0.66 14.02 -1 13 C-1.99 12.34 -2.98 11.68 -4 11 C-4.6875 7.375 -4.6875 7.375 -5 4 C-4.67 4.66 -4.34 5.32 -4 6 C-3.34 6 -2.68 6 -2 6 C-1.34 4.02 -0.68 2.04 0 0 Z " fill="#433F34" transform="translate(110,31)"/>
<path d="M0 0 C0.33 0.99 0.66 1.98 1 3 C1.99 3.33 2.98 3.66 4 4 C4 5.32 4 6.64 4 8 C4.66 7.67 5.32 7.34 6 7 C6 7.66 6 8.32 6 9 C6.66 9.33 7.32 9.66 8 10 C7.52820312 10.39058594 7.05640625 10.78117187 6.5703125 11.18359375 C4.60495742 13.45695223 4.35227285 15.11642489 3.875 18.0625 C3.07284768 22.85430464 3.07284768 22.85430464 2 25 C1.34 25 0.68 25 0 25 C-1.5162613 16.85009554 -1.89726713 8.10102949 0 0 Z " fill="#181612" transform="translate(20,71)"/>
<path d="M0 0 C2.86697492 1.28519565 4.97607712 2.57129254 7 5 C7 5.66 7 6.32 7 7 C7.66 7 8.32 7 9 7 C11.29633824 10.44450737 11.54016485 12.93812283 12 17 C10.0625 16.4375 10.0625 16.4375 8 15 C7.25 11.375 7.25 11.375 7 8 C6.01 7.67 5.02 7.34 4 7 C2.41034429 4.78298853 1.27672514 2.42137527 0 0 Z M-2 1 C1.25524265 4.02272532 3.61820737 7.25718301 6 11 C5.01 11 4.02 11 3 11 C3 11.99 3 12.98 3 14 C5.35953094 16.35953094 6.77895617 16.49141413 10 17 C9.34 17.66 8.68 18.32 8 19 C3.85868819 17.56646899 1.54907456 16.57652829 -1.5 13.375 C-3.48004282 8.91990366 -2.95666183 5.67932416 -2 1 Z " fill="#3F3F3F" transform="translate(31,57)"/>
<path d="M0 0 C0.99 0.33 1.98 0.66 3 1 C2.34 1.66 1.68 2.32 1 3 C0.75712511 5.44012949 0.75712511 5.44012949 0.875 8.125 C0.89304687 9.03507812 0.91109375 9.94515625 0.9296875 10.8828125 C0.95289062 11.58148438 0.97609375 12.28015625 1 13 C2.32 13.66 3.64 14.32 5 15 C4.01 15 3.02 15 2 15 C1.67 15.99 1.34 16.98 1 18 C0.01 18.33 -0.98 18.66 -2 19 C-2 18.34 -2 17.68 -2 17 C-2.99 17 -3.98 17 -5 17 C-6.90086774 13.19826452 -6.47533866 8.54485065 -5.25 4.5625 C-3.6637767 2.57972087 -2.47407292 2.32987639 0 2 C0 1.34 0 0.68 0 0 Z " fill="#131210" transform="translate(75,44)"/>
<path d="M0 0 C0.99 0.33 1.98 0.66 3 1 C4 4 4 4 4 8 C6.64 7.67 9.28 7.34 12 7 C13.35439668 9.70879335 13.06501451 12.00933268 13 15 C9.37 15 5.74 15 2 15 C2.061875 13.783125 2.12375 12.56625 2.1875 11.3125 C2.21535698 7.37770224 1.21955062 5.28107483 -1 2 C-0.67 1.34 -0.34 0.68 0 0 Z " fill="#0C0C0A" transform="translate(60,85)"/>
<path d="M0 0 C1.2375 0.0825 2.475 0.165 3.75 0.25 C3.75 0.58 3.75 0.91 3.75 1.25 C2.1 1.58 0.45 1.91 -1.25 2.25 C-0.92 3.57 -0.59 4.89 -0.25 6.25 C-4 7.375 -4 7.375 -6.25 6.25 C-5.7240625 7.673125 -5.7240625 7.673125 -5.1875 9.125 C-4.25 12.25 -4.25 12.25 -5.25 14.25 C-6.24 14.745 -6.24 14.745 -7.25 15.25 C-6.92 15.91 -6.59 16.57 -6.25 17.25 C-7.24 16.92 -8.23 16.59 -9.25 16.25 C-9.25 15.59 -9.25 14.93 -9.25 14.25 C-10.57 13.92 -11.89 13.59 -13.25 13.25 C-12.26 13.25 -11.27 13.25 -10.25 13.25 C-10.745 11.88875 -10.745 11.88875 -11.25 10.5 C-12.25 7.25 -12.25 7.25 -12.25 3.25 C-11.38375 3.62125 -11.38375 3.62125 -10.5 4 C-9.7575 4.0825 -9.015 4.165 -8.25 4.25 C-7.6725 3.610625 -7.095 2.97125 -6.5 2.3125 C-3.92524891 -0.0476885 -3.34170575 -0.02941642 0 0 Z " fill="#62615C" transform="translate(46.25,29.75)"/>
<path d="M0 0 C2.5 2.5 2.5 2.5 5 5 C5.886875 5.845625 6.77375 6.69125 7.6875 7.5625 C9.71171046 9.69612724 10.90335323 11.30823065 12 14 C10 15 10 15 8 15 C7.01 15.33 6.02 15.66 5 16 C4.67 16.99 4.34 17.98 4 19 C3.67 15.37 3.34 11.74 3 8 C2.01 7.67 1.02 7.34 0 7 C-0.33 7.99 -0.66 8.98 -1 10 C-1.66 10 -2.32 10 -3 10 C-4.06775224 8.03533587 -5.06553465 6.03144641 -6 4 C-5.67 3.34 -5.34 2.68 -5 2 C-3.02 2.495 -3.02 2.495 -1 3 C-0.67 2.01 -0.34 1.02 0 0 Z " fill="#3D3B35" transform="translate(91,64)"/>
<path d="M0 0 C4.25177923 0.47241991 6.29969203 2.84964071 9 6 C9 6.99 9 7.98 9 9 C7.68 9 6.36 9 5 9 C4.67 9.99 4.34 10.98 4 12 C3.34 12 2.68 12 2 12 C1.67 12.99 1.34 13.98 1 15 C-1.0625 12.6875 -1.0625 12.6875 -3 10 C-2.67 9.01 -2.34 8.02 -2 7 C-1.34 7.33 -0.68 7.66 0 8 C-0.185625 7.05125 -0.37125 6.1025 -0.5625 5.125 C-1 2 -1 2 0 0 Z " fill="#403E37" transform="translate(126,51)"/>
<path d="M0 0 C0.598125 0.226875 1.19625 0.45375 1.8125 0.6875 C0.8225 0.6875 -0.1675 0.6875 -1.1875 0.6875 C-1.1875 1.3475 -1.1875 2.0075 -1.1875 2.6875 C1.4525 2.6875 4.0925 2.6875 6.8125 2.6875 C6.8125 3.6775 6.8125 4.6675 6.8125 5.6875 C5.1625 5.3575 3.5125 5.0275 1.8125 4.6875 C1.8125 7.6575 1.8125 10.6275 1.8125 13.6875 C0.8225 14.0175 -0.1675 14.3475 -1.1875 14.6875 C-3.48746485 12.96252636 -5.00521456 11.64114066 -5.55859375 8.74609375 C-5.65496718 5.66781301 -5.55237017 3.28953578 -3.9375 0.625 C-2.1875 -0.3125 -2.1875 -0.3125 0 0 Z " fill="#646464" transform="translate(80.1875,44.3125)"/>
<path d="M0 0 C1.32 0 2.64 0 4 0 C6.66590937 4.55426184 7.31563182 7.73946963 7 13 C7.66 13 8.32 13 9 13 C9 14.98 9 16.96 9 19 C7.5 17.625 7.5 17.625 6 16 C6 15.34 6 14.68 6 14 C3.35261084 12.5393715 2.10551666 12 -1 12 C-0.67 8.04 -0.34 4.08 0 0 Z " fill="#323232" transform="translate(65,67)"/>
<path d="M0 0 C1.65 0 3.3 0 5 0 C5 1.98 5 3.96 5 6 C-1.93 6 -8.86 6 -16 6 C-16 4.35 -16 2.7 -16 1 C-14.68 1 -13.36 1 -12 1 C-12 1.99 -12 2.98 -12 4 C-8.04 3.34 -4.08 2.68 0 2 C0 1.34 0 0.68 0 0 Z " fill="#1F1F1F" transform="translate(94,94)"/>
<path d="M0 0 C2.26171875 0.15234375 2.26171875 0.15234375 5 1 C7.01953125 3.50390625 7.01953125 3.50390625 8.8125 6.5625 C9.41707031 7.57441406 10.02164063 8.58632813 10.64453125 9.62890625 C11.09183594 10.41136719 11.53914063 11.19382812 12 12 C12.33 11.34 12.66 10.68 13 10 C13.66 10 14.32 10 15 10 C15.33 8.68 15.66 7.36 16 6 C16.99 6 17.98 6 19 6 C19.33 5.34 19.66 4.68 20 4 C20.8125 5.6875 20.8125 5.6875 21 8 C18.625 10.75 18.625 10.75 16 13 C15.67 13 15.34 13 15 13 C14.67 13.99 14.34 14.98 14 16 C13.01 15.34 12.02 14.68 11 14 C11 15.65 11 17.3 11 19 C9.36069893 16.5410484 8.4977145 14.84082063 7.5625 12.125 C6.35210172 8.82833736 5.1252871 5.83371613 3 3 C2.01 3 1.02 3 0 3 C0 2.01 0 1.02 0 0 Z " fill="#30302F" transform="translate(115,53)"/>
<path d="M0 0 C1.32 0.66 2.64 1.32 4 2 C4 2.66 4 3.32 4 4 C5.65 4 7.3 4 9 4 C10.0625 6.375 10.0625 6.375 11 9 C10.67 9.66 10.34 10.32 10 11 C10.33 11.78375 10.66 12.5675 11 13.375 C12.07720707 16.20266855 12.0264725 17.22852426 11 20 C10.67 19.01 10.34 18.02 10 17 C9.01 16.67 8.02 16.34 7 16 C5 13 5 13 5.3125 11 C5.539375 10.34 5.76625 9.68 6 9 C6.33 8.01 6.66 7.02 7 6 C6.38511719 6.05800781 5.77023438 6.11601563 5.13671875 6.17578125 C2.67343941 6.31328488 0.44205675 6.36804047 -2 6 C-4.0625 3.5 -4.0625 3.5 -5 1 C-3.68 1 -2.36 1 -1 1 C-0.67 1.33 -0.34 1.66 0 2 C0 1.34 0 0.68 0 0 Z " fill="#585858" transform="translate(38,43)"/>
<path d="M0 0 C0.33 2.31 0.66 4.62 1 7 C-0.32 7 -1.64 7 -3 7 C-3.33 9.31 -3.66 11.62 -4 14 C-4.99 13.67 -5.98 13.34 -7 13 C-8.37407134 10.14615953 -7.95284958 8.8365452 -7.0625 5.75 C-6.711875 4.8425 -6.36125 3.935 -6 3 C-9.3 3 -12.6 3 -16 3 C-11.918638 -1.081362 -5.43630843 -0.09372946 0 0 Z " fill="#2B2514" transform="translate(113,24)"/>
<path d="M0 0 C0.66 0.33 1.32 0.66 2 1 C2 7.6 2 14.2 2 21 C0.02 20.34 -1.96 19.68 -4 19 C-4.28482666 13.39840894 -4.12706867 10.75314438 -1 6 C-0.28598768 2.80604974 -0.28598768 2.80604974 0 0 Z " fill="#171717" transform="translate(89,47)"/>
<path d="M0 0 C1.48206495 0.254496 2.96068615 0.52911762 4.4375 0.8125 C5.67306641 1.03873047 5.67306641 1.03873047 6.93359375 1.26953125 C7.95646484 1.63111328 7.95646484 1.63111328 9 2 C9.33 2.99 9.66 3.98 10 5 C10 3.35 10 1.7 10 0 C12.475 0.99 12.475 0.99 15 2 C14.98839844 2.60328125 14.97679688 3.2065625 14.96484375 3.828125 C14.95582031 4.62734375 14.94679688 5.4265625 14.9375 6.25 C14.92589844 7.03890625 14.91429688 7.8278125 14.90234375 8.640625 C14.99614694 10.90691002 15.36758937 12.8288895 16 15 C12.28915169 12.52610113 9.07799621 10.3298655 6.3125 6.8125 C4.21531006 4.26186359 3.03079621 3.12251711 0 2 C0 1.34 0 0.68 0 0 Z " fill="#B4B4B4" transform="translate(111,46)"/>
<path d="M0 0 C3.375 -0.125 3.375 -0.125 7 0 C7.66 0.66 8.32 1.32 9 2 C8.9765625 4.6015625 8.9765625 4.6015625 8.625 7.625 C8.45871094 9.12933594 8.45871094 9.12933594 8.2890625 10.6640625 C8.14597656 11.82035156 8.14597656 11.82035156 8 13 C7.01 12.67 6.02 12.34 5 12 C4.67 11.01 4.34 10.02 4 9 C3.01 8.67 2.02 8.34 1 8 C0.67 5.36 0.34 2.72 0 0 Z " fill="#D3A11B" transform="translate(122,23)"/>
<path d="M0 0 C2.96175123 0.61277612 4.38058783 1.25372522 7 3 C7 3.99 7 4.98 7 6 C5.8553125 6.2165625 5.8553125 6.2165625 4.6875 6.4375 C1.91827092 6.9632594 1.91827092 6.9632594 -1 8 C-1.33 8.66 -1.66 9.32 -2 10 C-1.278125 10.020625 -0.55625 10.04125 0.1875 10.0625 C3.85541451 11.28513817 4.99500166 13.13667898 7.1796875 16.2109375 C8 18 8 18 7 21 C6.38125 20.030625 5.7625 19.06125 5.125 18.0625 C3.34321154 14.97164638 3.34321154 14.97164638 1 14 C1 13.34 1 12.68 1 12 C-0.32 11.67 -1.64 11.34 -3 11 C-3.6875 9.1875 -3.6875 9.1875 -4 7 C-2.625 5.5 -2.625 5.5 -1 4 C-0.28552357 1.89667109 -0.28552357 1.89667109 0 0 Z " fill="#272726" transform="translate(107,46)"/>
<path d="M0 0 C5.875 4.625 5.875 4.625 7 8 C6.01 8.33 5.02 8.66 4 9 C4.33 12.3 4.66 15.6 5 19 C2.69 19.33 0.38 19.66 -2 20 C-1.01 19.67 -0.02 19.34 1 19 C1.39804845 9.79307538 1.39804845 9.79307538 -1 1 C-0.67 0.67 -0.34 0.34 0 0 Z " fill="#26241E" transform="translate(48,52)"/>
<path d="M0 0 C0.66 0.33 1.32 0.66 2 1 C2 1.66 2 2.32 2 3 C2.99 3 3.98 3 5 3 C8.06475363 8.76173683 8.19937786 12.62740199 7 19 C6.67 19 6.34 19 6 19 C6 17.35 6 15.7 6 14 C5.34 14 4.68 14 4 14 C3.05598958 12.20963542 2.11197917 10.41927083 1.16796875 8.62890625 C0.00980201 6.67732013 0.00980201 6.67732013 -3 6 C-2.34 5.34 -1.68 4.68 -1 4 C-0.3574765 1.93125966 -0.3574765 1.93125966 0 0 Z " fill="#444240" transform="translate(68,58)"/>
<path d="M0 0 C2.0625 1.5 2.0625 1.5 4 4 C4.05928384 6.82406647 3.55954815 9.20225927 3 12 C1.02 12 -0.96 12 -3 12 C-4.22159091 5.64772727 -4.22159091 5.64772727 -3.1875 2.625 C-2 1 -2 1 0 0 Z " fill="#F4B200" transform="translate(59,88)"/>
<path d="M0 0 C2.97 0 5.94 0 9 0 C7.515 1.98 7.515 1.98 6 4 C7.32 3.67 8.64 3.34 10 3 C9.67 4.65 9.34 6.3 9 8 C5.86314002 9.04561999 3.27634061 9 0 9 C-0.66 7.68 -1.32 6.36 -2 5 C-0.35 4.67 1.3 4.34 3 4 C2.01 3.34 1.02 2.68 0 2 C0 1.34 0 0.68 0 0 Z " fill="#A0A0A0" transform="translate(113,31)"/>
<path d="M0 0 C9.18746945 -0.73304278 15.7698902 0.91412989 24 5 C21.11584117 6.44207941 18.58278472 6.09394887 15.375 6.0625 C14.18648437 6.05347656 12.99796875 6.04445313 11.7734375 6.03515625 C10.85820313 6.02355469 9.94296875 6.01195312 9 6 C9 5.01 9 4.02 9 3 C6.03 3 3.06 3 0 3 C0 2.01 0 1.02 0 0 Z " fill="#1B1A19" transform="translate(76,35)"/>
<path d="M0 0 C2.5 2.3125 2.5 2.3125 5 5 C5 5.99 5 6.98 5 8 C5.66 8 6.32 8 7 8 C7 10.64 7 13.28 7 16 C6.34 16 5.68 16 5 16 C4.86722656 15.39671875 4.73445313 14.7934375 4.59765625 14.171875 C4.42105469 13.37265625 4.24445313 12.5734375 4.0625 11.75 C3.88847656 10.96109375 3.71445313 10.1721875 3.53515625 9.359375 C3.052444 7.23121297 2.53836822 5.11467158 2 3 C1.01 3.33 0.02 3.66 -1 4 C-1.33 5.98 -1.66 7.96 -2 10 C-3.32 10.33 -4.64 10.66 -6 11 C-5.63076923 4.6 -5.63076923 4.6 -2.4375 1.5625 C-1.633125 1.046875 -0.82875 0.53125 0 0 Z " fill="#272623" transform="translate(67,64)"/>
<path d="M0 0 C3 1 3 1 4 3 C4.66 3 5.32 3 6 3 C6.83796731 7.65537393 7.0161692 11.37078475 6 16 C5.67 16 5.34 16 5 16 C4.67 13.69 4.34 11.38 4 9 C3.21625 8.9175 2.4325 8.835 1.625 8.75 C-1 8 -1 8 -2.375 6.0625 C-3 4 -3 4 -2 2 C-1.34 2 -0.68 2 0 2 C0 1.34 0 0.68 0 0 Z " fill="#444444" transform="translate(83,37)"/>
<path d="M0 0 C2.20914 3.31371 2.22481553 4.3446021 2.125 8.1875 C2.10695313 9.08855469 2.08890625 9.98960938 2.0703125 10.91796875 C2.03550781 11.94857422 2.03550781 11.94857422 2 13 C0.35 13.33 -1.3 13.66 -3 14 C-3.33 10.7 -3.66 7.4 -4 4 C-2.68 3.67 -1.36 3.34 0 3 C0 2.01 0 1.02 0 0 Z " fill="#414141" transform="translate(102,86)"/>
<path d="M0 0 C0.33 1.32 0.66 2.64 1 4 C0.01 4 -0.98 4 -2 4 C-2 4.66 -2 5.32 -2 6 C-6.26616316 7.13764351 -9.56486311 8 -14 8 C-14 7.01 -14 6.02 -14 5 C-15.32 4.67 -16.64 4.34 -18 4 C-14.24600202 2.7960663 -10.66782588 2.90122383 -6.75 2.9375 C-4.85507813 2.95103516 -4.85507813 2.95103516 -2.921875 2.96484375 C-1.95765625 2.97644531 -0.9934375 2.98804687 0 3 C0 2.01 0 1.02 0 0 Z " fill="#595959" transform="translate(96,90)"/>
<path d="M0 0 C-0.33 0.99 -0.66 1.98 -1 3 C-0.01 3.33 0.98 3.66 2 4 C1.01 5.98 0.02 7.96 -1 10 C-1.99 9.67 -2.98 9.34 -4 9 C-3.67 7.35 -3.34 5.7 -3 4 C-4.98 4 -6.96 4 -9 4 C-9.66 2.68 -10.32 1.36 -11 0 C-3.375 -1.125 -3.375 -1.125 0 0 Z " fill="#282828" transform="translate(49,84)"/>
<path d="M0 0 C0.99 0.66 1.98 1.32 3 2 C2.34 2 1.68 2 1 2 C1.66 3.32 2.32 4.64 3 6 C3.33 4.02 3.66 2.04 4 0 C4.33 0 4.66 0 5 0 C5.02578125 0.556875 5.0515625 1.11375 5.078125 1.6875 C5.52373169 7.68293548 7.05072502 11.76741536 10 17 C5.58535458 15.66359373 3.99909082 14.11417688 1.75 10.125 C0.99976562 8.82949219 0.99976562 8.82949219 0.234375 7.5078125 C-0.85075472 5.30321352 -1.53131205 3.39923591 -2 1 C-1.34 0.67 -0.68 0.34 0 0 Z " fill="#797979" transform="translate(80,59)"/>
<path d="M0 0 C3.95116871 0.86086916 5.58993756 1.3656299 7.828125 4.828125 C8.53195313 6.52195312 8.53195313 6.52195312 9.25 8.25 C9.72953125 9.36890625 10.2090625 10.4878125 10.703125 11.640625 C11.89808631 14.73600669 12.98542079 17.84140436 14 21 C13.01 21 12.02 21 11 21 C10.731875 20.278125 10.46375 19.55625 10.1875 18.8125 C9.00332388 16.00787236 7.57402556 13.60319612 6 11 C4.96519919 8.9663567 3.95962715 6.92067613 2.96484375 4.8671875 C1.91843986 2.75759661 1.91843986 2.75759661 0 0 Z " fill="#282828" transform="translate(111,57)"/>
<path d="M0 0 C2.64 0 5.28 0 8 0 C7.34 0.66 6.68 1.32 6 2 C5.35232207 4.57061311 5.35232207 4.57061311 5 7 C4.34 7 3.68 7 3 7 C2.34 8.32 1.68 9.64 1 11 C0.34 10.67 -0.32 10.34 -1 10 C-1.125 2.25 -1.125 2.25 0 0 Z " fill="#0B0A08" transform="translate(37,24)"/>
<path d="M0 0 C4.12873718 2.91440272 6.84766584 6.23941208 9.765625 10.29296875 C10.88985147 11.94273656 10.88985147 11.94273656 12 13 C12.14115161 15.67058851 12.04247107 18.32432238 12 21 C9.03 21 6.06 21 3 21 C3 20.67 3 20.34 3 20 C4.65 19.67 6.3 19.34 8 19 C8.72676373 14.82110853 8.652539 12.96020541 6.21875 9.37890625 C4.75817715 7.60719023 3.26891306 5.85868095 1.75 4.13671875 C0 2 0 2 0 0 Z " fill="#0B0B0B" transform="translate(79,67)"/>
<path d="M0 0 C0.33 0.66 0.66 1.32 1 2 C1.7425 1.7525 2.485 1.505 3.25 1.25 C6 1 6 1 8.3125 2.8125 C10 5 10 5 10 7 C6.37 7 2.74 7 -1 7 C-0.67 4.69 -0.34 2.38 0 0 Z " fill="#252525" transform="translate(112,93)"/>
<path d="M0 0 C0 0.66 0 1.32 0 2 C-2.64 2 -5.28 2 -8 2 C-8 2.66 -8 3.32 -8 4 C-8.99 4 -9.98 4 -11 4 C-11 4.66 -11 5.32 -11 6 C-11.99 6.33 -12.98 6.66 -14 7 C-16.38561992 5.52652887 -17.73867769 4.52264461 -19 2 C-16.77149723 1.66225668 -14.54216533 1.3299813 -12.3125 1 C-10.45044922 0.7215625 -10.45044922 0.7215625 -8.55078125 0.4375 C-5.64113629 0.07899589 -2.92299978 -0.08942256 0 0 Z " fill="#463C21" transform="translate(130,21)"/>
<path d="M0 0 C6 7.71428571 6 7.71428571 6 11 C6.99 11.33 7.98 11.66 9 12 C8.01 12.99 7.02 13.98 6 15 C4.68 14.34 3.36 13.68 2 13 C2 11.68 2 10.36 2 9 C1.34 9 0.68 9 0 9 C0 6.03 0 3.06 0 0 Z " fill="#1C1C1C" transform="translate(123,80)"/>
<path d="M0 0 C1.65 0.33 3.3 0.66 5 1 C4.4 6.4 4.4 6.4 2.75 8.875 C0.41786614 10.37422891 -1.28371825 10.22023906 -4 10 C-3.34 9.67 -2.68 9.34 -2 9 C-2 8.01 -2 7.02 -2 6 C-1.34 6 -0.68 6 0 6 C-0.185625 5.38125 -0.37125 4.7625 -0.5625 4.125 C-1 2 -1 2 0 0 Z " fill="#A7A5A1" transform="translate(47,37)"/>
<path d="M0 0 C1.32 0 2.64 0 4 0 C4 3.63 4 7.26 4 11 C2.35 11 0.7 11 -1 11 C-0.67 7.37 -0.34 3.74 0 0 Z " fill="#262626" transform="translate(106,89)"/>
<path d="M0 0 C0.33 1.65 0.66 3.3 1 5 C0.34 5 -0.32 5 -1 5 C-0.67 6.32 -0.34 7.64 0 9 C-0.99 9.33 -1.98 9.66 -3 10 C-7 3.25 -7 3.25 -7 1 C-4.50935112 0.31292445 -2.62113708 0 0 0 Z " fill="#999999" transform="translate(132,81)"/>
<path d="M0 0 C0.99 0 1.98 0 3 0 C3.50692692 1.5811292 4.00526443 3.16501383 4.5 4.75 C4.7784375 5.63171875 5.056875 6.5134375 5.34375 7.421875 C6 10 6 10 6 14 C3 13 3 13 1.796875 10.8203125 C1.45140625 9.93085937 1.1059375 9.04140625 0.75 8.125 C0.39421875 7.24070312 0.0384375 6.35640625 -0.328125 5.4453125 C-1 3 -1 3 0 0 Z " fill="#CDCDCD" transform="translate(120,62)"/>
<path d="M0 0 C6.6 0 13.2 0 20 0 C20 0.33 20 0.66 20 1 C16.7 1 13.4 1 10 1 C10.66 2.32 11.32 3.64 12 5 C10.02 5.99 10.02 5.99 8 7 C8.33 5.68 8.66 4.36 9 3 C6.03 2.67 3.06 2.34 0 2 C0 1.34 0 0.68 0 0 Z " fill="#564413" transform="translate(66,34)"/>
<path d="M0 0 C0.33 0 0.66 0 1 0 C1.33 3.3 1.66 6.6 2 10 C2.99 10.33 3.98 10.66 5 11 C4.125 17.75 4.125 17.75 3 20 C2.34 20 1.68 20 1 20 C-0.23839599 13.34362157 -0.09139136 6.7528064 0 0 Z " fill="#282317" transform="translate(19,76)"/>
<path d="M0 0 C4 4.75 4 4.75 4 7 C3.34 7 2.68 7 2 7 C2 7.99 2 8.98 2 10 C1.34 10 0.68 10 0 10 C-0.33 10.66 -0.66 11.32 -1 12 C-2.82438348 8.24391637 -3.30070333 6.01050192 -2 2 C-1.34 1.34 -0.68 0.68 0 0 Z " fill="#43413C" transform="translate(136,60)"/>
<path d="M0 0 C0.33 0 0.66 0 1 0 C1.33 1.65 1.66 3.3 2 5 C3.11375 5.103125 4.2275 5.20625 5.375 5.3125 C7.169375 5.6528125 7.169375 5.6528125 9 6 C9.99 7.485 9.99 7.485 11 9 C10.01 9 9.02 9 8 9 C7.67 9.66 7.34 10.32 7 11 C6.01 11.33 5.02 11.66 4 12 C4 11.34 4 10.68 4 10 C3.01 10 2.02 10 1 10 C-0.60725635 6.78548731 -0.05748185 3.56387464 0 0 Z " fill="#1F1C14" transform="translate(69,51)"/>
<path d="M0 0 C0.66 0.33 1.32 0.66 2 1 C2.6328125 3.72265625 2.6328125 3.72265625 3.125 7.0625 C3.29257812 8.16722656 3.46015625 9.27195312 3.6328125 10.41015625 C3.75398438 11.26480469 3.87515625 12.11945312 4 13 C3.34 13 2.68 13 2 13 C0.31267723 11.01739574 -1.35366057 9.0167658 -3 7 C-3.66 6.67 -4.32 6.34 -5 6 C-4.67 5.34 -4.34 4.68 -4 4 C-3.34 4.33 -2.68 4.66 -2 5 C-2 4.01 -2 3.02 -2 2 C-1.34 2 -0.68 2 0 2 C0 1.34 0 0.68 0 0 Z " fill="#242424" transform="translate(36,51)"/>
<path d="M0 0 C2.50298434 2.93828597 3.46930939 5.17902761 4 9 C1.75 9.25 1.75 9.25 -1 9 C-3.3125 7 -3.3125 7 -5 5 C-3 2 -3 2 -1 1 C-0.67 0.67 -0.34 0.34 0 0 Z " fill="#333333" transform="translate(37,65)"/>
<path d="M0 0 C1.65 0 3.3 0 5 0 C5 1.98 5 3.96 5 6 C2.69 6 0.38 6 -2 6 C-2.33 4.68 -2.66 3.36 -3 2 C-2.01 2 -1.02 2 0 2 C0 1.34 0 0.68 0 0 Z " fill="#0A0A0A" transform="translate(94,94)"/>
<path d="M0 0 C2 2 2 2 3 5 C3.66 4.67 4.32 4.34 5 4 C5.76173392 8.3164922 6.16063604 11.74433453 5 16 C4.731875 15.443125 4.46375 14.88625 4.1875 14.3125 C3.01338571 11.93549341 3.01338571 11.93549341 1.4375 9.5625 C-0.02752738 6.95092946 -0.67946953 4.96490682 -1 2 C-0.67 1.34 -0.34 0.68 0 0 Z " fill="#070706" transform="translate(102,71)"/>
<path d="M0 0 C0.99 0 1.98 0 3 0 C3.18451025 10.55808656 3.18451025 10.55808656 2 15 C1.34 15 0.68 15 0 15 C0 10.05 0 5.1 0 0 Z " fill="#DADADA" transform="translate(75,72)"/>
<path d="M0 0 C0 1.98 0 3.96 0 6 C-0.66 6 -1.32 6 -2 6 C-2 7.98 -2 9.96 -2 12 C-2.33 12 -2.66 12 -3 12 C-3.103125 11.236875 -3.20625 10.47375 -3.3125 9.6875 C-4.04364039 6.82940576 -4.76951913 5.84257115 -7 4 C-6.34 3.67 -5.68 3.34 -5 3 C-5 2.34 -5 1.68 -5 1 C-3 0 -3 0 0 0 Z " fill="#1C1A15" transform="translate(54,81)"/>
<path d="M0 0 C2.97 0.495 2.97 0.495 6 1 C5.67 1.99 5.34 2.98 5 4 C5.66 4 6.32 4 7 4 C7 5.32 7 6.64 7 8 C6.34 8 5.68 8 5 8 C5 7.01 5 6.02 5 5 C4.05125 5.04125 3.1025 5.0825 2.125 5.125 C-1 5 -1 5 -3 3 C-2.01 2.67 -1.02 2.34 0 2 C0 1.34 0 0.68 0 0 Z " fill="#898989" transform="translate(48,72)"/>
<path d="M0 0 C0.33 2.97 0.66 5.94 1 9 C0.01 9.33 -0.98 9.66 -2 10 C-4.76223278 7.23776722 -4.57856291 4.79293383 -5 1 C-2 0 -2 0 0 0 Z " fill="#868686" transform="translate(81,49)"/>
<path d="M0 0 C3.2107419 2.67079731 4.50977252 5.92193387 6.1875 9.6875 C6.71730469 10.86699219 7.24710937 12.04648438 7.79296875 13.26171875 C8.19128906 14.16535156 8.58960937 15.06898437 9 16 C9.66 15.67 10.32 15.34 11 15 C11.33 15.99 11.66 16.98 12 18 C10.68 18 9.36 18 8 18 C6.6589995 15.5664433 5.32705144 13.12864699 4 10.6875 C3.6184375 9.99720703 3.236875 9.30691406 2.84375 8.59570312 C0 3.33984375 0 3.33984375 0 0 Z " fill="#353535" transform="translate(107,63)"/>
<path d="M0 0 C4.62 0 9.24 0 14 0 C14 0.99 14 1.98 14 3 C13.34 3 12.68 3 12 3 C10.906875 3.020625 9.81375 3.04125 8.6875 3.0625 C5.6008363 3.01018367 2.98300242 2.7231521 0 2 C0 1.34 0 0.68 0 0 Z " fill="#B3B3B3" transform="translate(81,88)"/>
<path d="M0 0 C2.29296875 0.18359375 2.29296875 0.18359375 5 1 C6.80078125 3.28515625 6.80078125 3.28515625 8.3125 6.0625 C8.82425781 6.98160156 9.33601563 7.90070312 9.86328125 8.84765625 C10.23839844 9.55792969 10.61351563 10.26820312 11 11 C10.01 11.33 9.02 11.66 8 12 C6.35 9.03 4.7 6.06 3 3 C2.01 3 1.02 3 0 3 C0 2.01 0 1.02 0 0 Z " fill="#161616" transform="translate(115,53)"/>
<path d="M0 0 C0.66 0.33 1.32 0.66 2 1 C2.125 7.625 2.125 7.625 1 11 C0.01 11 -0.98 11 -2 11 C-1.85957123 9.35369672 -1.71250671 7.70795821 -1.5625 6.0625 C-1.48128906 5.14597656 -1.40007813 4.22945313 -1.31640625 3.28515625 C-1 1 -1 1 0 0 Z " fill="#282828" transform="translate(31,89)"/>
<path d="M0 0 C0.66 0 1.32 0 2 0 C2 2.31 2 4.62 2 7 C1.34 7 0.68 7 0 7 C-0.33 7.99 -0.66 8.98 -1 10 C-3.0625 7.6875 -3.0625 7.6875 -5 5 C-4.67 4.01 -4.34 3.02 -4 2 C-2.515 2.99 -2.515 2.99 -1 4 C-0.67 2.68 -0.34 1.36 0 0 Z " fill="#414141" transform="translate(128,56)"/>
<path d="M0 0 C4.24223102 -0.3636198 6.58168085 0.4606772 10 3 C10 3.66 10 4.32 10 5 C7.36 5 4.72 5 2 5 C1.34 3.35 0.68 1.7 0 0 Z " fill="#0A0A0A" transform="translate(41,95)"/>
<path d="M0 0 C2.8340587 3.3738794 4.29859374 6.95916013 6 11 C6.556875 11.9075 7.11375 12.815 7.6875 13.75 C9 16 9 16 9 19 C8.34 19 7.68 19 7 19 C0 5.7 0 5.7 0 0 Z " fill="#101010" transform="translate(107,70)"/>
<path d="M0 0 C0.66 0 1.32 0 2 0 C2 0.66 2 1.32 2 2 C2.99 2.33 3.98 2.66 5 3 C6.33827304 4.66270287 7.67189785 6.32916181 9 8 C9.66 8 10.32 8 11 8 C11.33 8.99 11.66 9.98 12 11 C11.01 12.485 11.01 12.485 10 14 C8.70376621 12.42040347 7.41318673 10.83616587 6.125 9.25 C5.40570313 8.36828125 4.68640625 7.4865625 3.9453125 6.578125 C2.31557412 4.41823076 1.09215995 2.460234 0 0 Z " fill="#3B3B3B" transform="translate(106,58)"/>
<path d="M0 0 C0.66 0 1.32 0 2 0 C2 1.98 2 3.96 2 6 C2.598125 6.0825 3.19625 6.165 3.8125 6.25 C6.5966296 7.20455872 7.43311142 8.57132271 9 11 C8.401875 10.690625 7.80375 10.38125 7.1875 10.0625 C3.38527771 8.21570631 2.27196618 7.93200845 -2 9 C-1.34 6.03 -0.68 3.06 0 0 Z " fill="#0F0F0F" transform="translate(133,70)"/>
<path d="M0 0 C4.455 0.99 4.455 0.99 9 2 C9.33 4.31 9.66 6.62 10 9 C9.44570312 8.57847656 8.89140625 8.15695313 8.3203125 7.72265625 C7.59585938 7.17480469 6.87140625 6.62695312 6.125 6.0625 C5.40570313 5.51722656 4.68640625 4.97195312 3.9453125 4.41015625 C2.05642921 2.96035376 2.05642921 2.96035376 0 2 C0 1.34 0 0.68 0 0 Z " fill="#B6B6B6" transform="translate(111,46)"/>
<path d="M0 0 C0.33 0 0.66 0 1 0 C1 2.31 1 4.62 1 7 C-1.31 7.66 -3.62 8.32 -6 9 C-6.33 7.68 -6.66 6.36 -7 5 C-3.535 4.505 -3.535 4.505 0 4 C0 2.68 0 1.36 0 0 Z " fill="#242424" transform="translate(87,79)"/>
<path d="M0 0 C1.32 1.32 2.64 2.64 4 4 C3.01 4 2.02 4 1 4 C0.67 4.66 0.34 5.32 0 6 C-0.99 6 -1.98 6 -3 6 C-5.00309329 6.31421071 -7.00371336 6.6451046 -9 7 C-8.67 6.01 -8.34 5.02 -8 4 C-5.0625 2.75 -5.0625 2.75 -2 2 C-1.34 2.33 -0.68 2.66 0 3 C0 2.01 0 1.02 0 0 Z " fill="#373737" transform="translate(114,49)"/>
<path d="M0 0 C1.32 0.66 2.64 1.32 4 2 C4 2.66 4 3.32 4 4 C4.66 4 5.32 4 6 4 C6 4.66 6 5.32 6 6 C0.62694301 6.44041451 0.62694301 6.44041451 -2 6 C-4 3.5 -4 3.5 -5 1 C-3.68 1 -2.36 1 -1 1 C-0.67 1.33 -0.34 1.66 0 2 C0 1.34 0 0.68 0 0 Z " fill="#262626" transform="translate(38,43)"/>
<path d="M0 0 C0.33 0 0.66 0 1 0 C1 2.31 1 4.62 1 7 C0.34 6.67 -0.32 6.34 -1 6 C-3.3329866 5.95977609 -5.66706666 5.95679753 -8 6 C-8.66 4.68 -9.32 3.36 -10 2 C-7.69 2.66 -5.38 3.32 -3 4 C-2.67 3.34 -2.34 2.68 -2 2 C-1.34 2 -0.68 2 0 2 C0 1.34 0 0.68 0 0 Z " fill="#333333" transform="translate(72,87)"/>
<path d="M0 0 C2.46800047 1.15173355 4.04783565 2.04783565 6 4 C5.67 4.99 5.34 5.98 5 7 C2 7 2 7 -0.1875 5 C-0.785625 4.34 -1.38375 3.68 -2 3 C-1.34 2.67 -0.68 2.34 0 2 C0 1.34 0 0.68 0 0 Z " fill="#333333" transform="translate(29,50)"/>
<path d="M0 0 C2 1 2 1 3.1875 3.8125 C3.96421451 6.85961076 4.10096399 8.13749363 3 11 C0.17940253 9.58970126 0.01898286 7.92108419 -1 5 C-1.35858516 3.67323492 -1.7018576 2.34164079 -2 1 C-1.34 0.67 -0.68 0.34 0 0 Z " fill="#2A2417" transform="translate(133,85)"/>
<path d="M0 0 C3.42227589 1.25483449 5.54080489 3.3651481 8 6 C7.34 6 6.68 6 6 6 C6 6.66 6 7.32 6 8 C4.68 7.67 3.36 7.34 2 7 C1.896875 6.38125 1.79375 5.7625 1.6875 5.125 C1.12474627 2.63473516 1.12474627 2.63473516 -2 1 C-1.34 0.67 -0.68 0.34 0 0 Z " fill="#333333" transform="translate(135,77)"/>
<path d="M0 0 C0.103125 0.639375 0.20625 1.27875 0.3125 1.9375 C0.539375 2.618125 0.76625 3.29875 1 4 C1.99 4.33 2.98 4.66 4 5 C4 7.31 4 9.62 4 12 C3.01 11.67 2.02 11.34 1 11 C-0.47666292 7.50970582 -0.07164685 3.72563614 0 0 Z " fill="#373737" transform="translate(42,59)"/>
<path d="M0 0 C6.15234375 -0.09765625 6.15234375 -0.09765625 8 0 C9 1 9 1 9.0625 4.5625 C9.041875 5.696875 9.02125 6.83125 9 8 C7.68 7.67 6.36 7.34 5 7 C5.99 5.35 6.98 3.7 8 2 C5.36 2 2.72 2 0 2 C0 1.34 0 0.68 0 0 Z " fill="#BCBCBC" transform="translate(79,45)"/>
<path d="M0 0 C0.33 0 0.66 0 1 0 C1.66 2.97 2.32 5.94 3 9 C0.69 9.33 -1.62 9.66 -4 10 C-3.01 9.67 -2.02 9.34 -1 9 C-1.020625 7.700625 -1.04125 6.40125 -1.0625 5.0625 C-1.08399454 3.70834367 -1.07148199 2.35243917 -1 1 C-0.67 0.67 -0.34 0.34 0 0 Z " fill="#323232" transform="translate(50,62)"/>
<path d="M0 0 C2.64 0 5.28 0 8 0 C8 0.99 8 1.98 8 3 C5.69 3.33 3.38 3.66 1 4 C0.67 2.68 0.34 1.36 0 0 Z " fill="#B3B3B3" transform="translate(44,31)"/>
<path d="M0 0 C1.32 1.32 2.64 2.64 4 4 C3.01 4.33 2.02 4.66 1 5 C-0.21869929 7.50447516 -0.21869929 7.50447516 -1 10 C-1.33 10 -1.66 10 -2 10 C-2.1953125 3.9453125 -2.1953125 3.9453125 -2 2 C-1.34 1.34 -0.68 0.68 0 0 Z " fill="#131313" transform="translate(112,90)"/>
<path d="M0 0 C2.97 0.495 2.97 0.495 6 1 C6 1.66 6 2.32 6 3 C5.34 3 4.68 3 4 3 C4 3.99 4 4.98 4 6 C3.01 6.33 2.02 6.66 1 7 C0.67 4.69 0.34 2.38 0 0 Z " fill="#828282" transform="translate(41,40)"/>
<path d="M0 0 C0.99 0 1.98 0 3 0 C3 0.66 3 1.32 3 2 C4.32 2.33 5.64 2.66 7 3 C6 5 6 5 2.9375 6.125 C1.968125 6.41375 0.99875 6.7025 0 7 C0 4.69 0 2.38 0 0 Z " fill="#515151" transform="translate(110,31)"/>
<path d="M0 0 C1.81982071 2.72973106 3.08326247 4.86781344 4 8 C3.125 10.3125 3.125 10.3125 2 12 C1.67 11.01 1.34 10.02 1 9 C0.34 8.34 -0.32 7.68 -1 7 C-1 4.37886292 -0.68707555 2.49064888 0 0 Z " fill="#2F2C26" transform="translate(25,51)"/>
<path d="M0 0 C0.66 0 1.32 0 2 0 C2.33 0.66 2.66 1.32 3 2 C3.66 2 4.32 2 5 2 C5.33 4.31 5.66 6.62 6 9 C3.5625 7.875 3.5625 7.875 1 6 C0.1875 2.8125 0.1875 2.8125 0 0 Z " fill="#504A3B" transform="translate(84,38)"/>
<path d="M0 0 C0.66 0 1.32 0 2 0 C3.125 1.6875 3.125 1.6875 4 4 C3.125 6.75 3.125 6.75 2 9 C0.4375 7.875 0.4375 7.875 -1 6 C-0.6875 2.8125 -0.6875 2.8125 0 0 Z " fill="#2F2E2E" transform="translate(126,51)"/>
<path d="M0 0 C3 1 3 1 4.1875 3.0625 C4.455625 3.701875 4.72375 4.34125 5 5 C3.02 6.32 1.04 7.64 -1 9 C-0.67 6.03 -0.34 3.06 0 0 Z " fill="#4C4942" transform="translate(44,47)"/>
<path d="M0 0 C0.33 0.66 0.66 1.32 1 2 C1.66 2 2.32 2 3 2 C3.33 1.34 3.66 0.68 4 0 C6 2 6 2 6 6 C5.01 6.33 4.02 6.66 3 7 C1.5 5.75 1.5 5.75 0 4 C0 2.68 0 1.36 0 0 Z " fill="#656565" transform="translate(112,38)"/>
<path d="M0 0 C2.64 0 5.28 0 8 0 C8 0.99 8 1.98 8 3 C5.03 3 2.06 3 -1 3 C-0.67 2.01 -0.34 1.02 0 0 Z " fill="#222222" transform="translate(35,97)"/>
<path d="M0 0 C0.99 0 1.98 0 3 0 C3.33 1.98 3.66 3.96 4 6 C2.35 6.33 0.7 6.66 -1 7 C-0.67 4.69 -0.34 2.38 0 0 Z " fill="#313131" transform="translate(100,93)"/>
<path d="M0 0 C1.32 0 2.64 0 4 0 C3.67 1.65 3.34 3.3 3 5 C1.35 5.33 -0.3 5.66 -2 6 C-1.34 4.02 -0.68 2.04 0 0 Z " fill="#9A9A9A" transform="translate(96,80)"/>
<path d="M0 0 C0.86625 1.11375 0.86625 1.11375 1.75 2.25 C3.72253526 4.66087643 5.76044282 6.84042701 8 9 C7.67 9.66 7.34 10.32 7 11 C3.45756544 9.13556076 1.29293437 7.87880311 0 4 C0 2.68 0 1.36 0 0 Z " fill="#141414" transform="translate(65,75)"/>
<path d="M0 0 C3.25524265 3.02272532 5.61820737 6.25718301 8 10 C7.01 10 6.02 10 5 10 C5 9.34 5 8.68 5 8 C4.01 8 3.02 8 2 8 C1.34 5.36 0.68 2.72 0 0 Z " fill="#444444" transform="translate(29,58)"/>
<path d="M0 0 C3.3 0 6.6 0 10 0 C7.60236815 2.39763185 6.66726502 2.34280586 3.375 2.625 C2.55773437 2.69976562 1.74046875 2.77453125 0.8984375 2.8515625 C0.27195312 2.90054688 -0.35453125 2.94953125 -1 3 C-0.67 2.01 -0.34 1.02 0 0 Z " fill="#8E8E8E" transform="translate(83,95)"/>
<path d="M0 0 C0.66 0 1.32 0 2 0 C2 1.98 2 3.96 2 6 C0.35 6 -1.3 6 -3 6 C-1.125 1.125 -1.125 1.125 0 0 Z " fill="#1B1B1B" transform="translate(71,94)"/>
<path d="M0 0 C4.59306496 1.4859916 7.43569245 3.85014682 11 7 C7.00095031 7 5.19799578 5.27413033 2 3 C1.01 3.495 1.01 3.495 0 4 C0 2.68 0 1.36 0 0 Z " fill="#050505" transform="translate(110,88)"/>
<path d="M0 0 C1.485 0.99 1.485 0.99 3 2 C3.29296875 4.8203125 3.29296875 4.8203125 3.1875 8.125 C3.16042969 9.22070312 3.13335937 10.31640625 3.10546875 11.4453125 C3.07066406 12.28835937 3.03585938 13.13140625 3 14 C2.67 14 2.34 14 2 14 C-0.29612756 4.58997722 -0.29612756 4.58997722 0 0 Z " fill="#1F1F1F" transform="translate(92,70)"/>
<path d="M0 0 C0.33 0 0.66 0 1 0 C1 4.62 1 9.24 1 14 C0.01 14.33 -0.98 14.66 -2 15 C-2 13.02 -2 11.04 -2 9 C-1.67 9 -1.34 9 -1 9 C-0.67 6.03 -0.34 3.06 0 0 Z " fill="#3D3728" transform="translate(90,48)"/>
<path d="M0 0 C2.475 0.99 2.475 0.99 5 2 C5 3.65 5 5.3 5 7 C4.34 6.67 3.68 6.34 3 6 C2.34 6.66 1.68 7.32 1 8 C0.67 5.36 0.34 2.72 0 0 Z " fill="#989387" transform="translate(121,46)"/>
<path d="M0 0 C3.465 1.485 3.465 1.485 7 3 C7 4.98 7 6.96 7 9 C6.4225 8.236875 5.845 7.47375 5.25 6.6875 C3.28296907 4.33799083 1.51523256 2.70676495 -1 1 C-0.67 0.67 -0.34 0.34 0 0 Z " fill="#1B1B1B" transform="translate(98,77)"/>
<path d="M0 0 C1.0625 1.8125 1.0625 1.8125 2 4 C1 7 1 7 -1 9 C-1.66 6.36 -2.32 3.72 -3 1 C-2.01 1.495 -2.01 1.495 -1 2 C-0.67 1.34 -0.34 0.68 0 0 Z " fill="#1A1A1A" transform="translate(132,63)"/>
<path d="M0 0 C0.33 0.66 0.66 1.32 1 2 C0.01 2 -0.98 2 -2 2 C-2.33 2.66 -2.66 3.32 -3 4 C-3.99 4 -4.98 4 -6 4 C-6.33 2.68 -6.66 1.36 -7 0 C-4.30234372 -1.34882814 -2.84835666 -0.80338265 0 0 Z " fill="#141414" transform="translate(79,58)"/>
<path d="M0 0 C0.33 0.99 0.66 1.98 1 3 C2.32 2.67 3.64 2.34 5 2 C5.33 3.32 5.66 4.64 6 6 C5.01 6.33 4.02 6.66 3 7 C3 6.34 3 5.68 3 5 C2.01 5.33 1.02 5.66 0 6 C0 4.02 0 2.04 0 0 Z " fill="#060606" transform="translate(70,51)"/>
<path d="M0 0 C0.99 0.99 1.98 1.98 3 3 C2.34 3 1.68 3 1 3 C0.34 4.32 -0.32 5.64 -1 7 C-1.66 6.67 -2.32 6.34 -3 6 C-2.42655063 3.13275314 -2.1385485 2.1385485 0 0 Z " fill="#111111" transform="translate(39,28)"/>
<path d="M0 0 C0.99 0.33 1.98 0.66 3 1 C3 3.64 3 6.28 3 9 C2.34 9 1.68 9 1 9 C0.67 6.03 0.34 3.06 0 0 Z " fill="#121212" transform="translate(71,71)"/>
<path d="M0 0 C0.66 1.98 1.32 3.96 2 6 C1.401875 5.690625 0.80375 5.38125 0.1875 5.0625 C-2.08956772 3.89790296 -2.08956772 3.89790296 -5 3 C-5 2.34 -5 1.68 -5 1 C-2 0 -2 0 0 0 Z " fill="#464646" transform="translate(140,73)"/>
<path d="M0 0 C0.33 1.32 0.66 2.64 1 4 C-2 5 -2 5 -5 4 C-4.67 3.01 -4.34 2.02 -4 1 C-2 0 -2 0 0 0 Z " fill="#383838" transform="translate(132,73)"/>
<path d="M0 0 C0.99 0.33 1.98 0.66 3 1 C3.33 3.31 3.66 5.62 4 8 C3.34 8 2.68 8 2 8 C0.3125 5.6875 0.3125 5.6875 -1 3 C-0.67 2.01 -0.34 1.02 0 0 Z " fill="#171717" transform="translate(36,56)"/>
<path d="M0 0 C0.33 2.97 0.66 5.94 1 9 C0.34 8.67 -0.32 8.34 -1 8 C-1.40729228 5.67843403 -1.74438677 3.3431213 -2 1 C-3.32 0.67 -4.64 0.34 -6 0 C-3 -1 -3 -1 0 0 Z " fill="#5E5E5C" transform="translate(122,47)"/>
<path d="M0 0 C4.455 0.99 4.455 0.99 9 2 C8.67 2.66 8.34 3.32 8 4 C6.02 4 4.04 4 2 4 C1.34 2.68 0.68 1.36 0 0 Z " fill="#242424" transform="translate(111,43)"/>
<path d="M0 0 C0.99 0 1.98 0 3 0 C3 1.98 3 3.96 3 6 C1.68 5.67 0.36 5.34 -1 5 C-0.67 3.35 -0.34 1.7 0 0 Z " fill="#363635" transform="translate(49,25)"/>
<path d="M0 0 C0.99 0.33 1.98 0.66 3 1 C4 4 4 4 4 7 C2.0625 6.25 2.0625 6.25 0 5 C-0.8125 2.9375 -0.8125 2.9375 -1 1 C-0.67 0.67 -0.34 0.34 0 0 Z " fill="#161410" transform="translate(60,85)"/>
<path d="M0 0 C0.71542969 0.28746094 1.43085937 0.57492188 2.16796875 0.87109375 C2.71066406 1.09925781 3.25335938 1.32742187 3.8125 1.5625 C0.45588305 3.24080848 -2.54885594 2.1978188 -6.1875 1.5625 C-6.5175 0.9025 -6.8475 0.2425 -7.1875 -0.4375 C-3.77818103 -1.57393966 -3.18414544 -1.30497764 0 0 Z " fill="#3B3423" transform="translate(96.1875,38.4375)"/>
<path d="M0 0 C1.32 0 2.64 0 4 0 C3.67 1.65 3.34 3.3 3 5 C2.01 5 1.02 5 0 5 C0 3.35 0 1.7 0 0 Z " fill="#252525" transform="translate(78,95)"/>
<path d="M0 0 C2.62187494 1.04874998 3.79371361 1.64931313 5.25 4.125 C5.4975 4.74375 5.745 5.3625 6 6 C4.35 5.67 2.7 5.34 1 5 C0.67 3.35 0.34 1.7 0 0 Z " fill="#020202" transform="translate(33,89)"/>
<path d="M0 0 C0.33 0.99 0.66 1.98 1 3 C1.66 3 2.32 3 3 3 C3 4.98 3 6.96 3 9 C1.5 7.625 1.5 7.625 0 6 C0 5.34 0 4.68 0 4 C-0.66 3.67 -1.32 3.34 -2 3 C-1.34 3 -0.68 3 0 3 C0 2.01 0 1.02 0 0 Z " fill="#2C2C2C" transform="translate(71,77)"/>
<path d="M0 0 C2.475 0.99 2.475 0.99 5 2 C5 2.66 5 3.32 5 4 C3.68 4.33 2.36 4.66 1 5 C0.34 3.68 -0.32 2.36 -1 1 C-0.67 0.67 -0.34 0.34 0 0 Z " fill="#A1A1A1" transform="translate(43,70)"/>
<path d="M0 0 C3.73639216 1.24546405 4.18756513 2.63404953 6 6 C4.68 5.67 3.36 5.34 2 5 C2 4.34 2 3.68 2 3 C0.68 2.34 -0.64 1.68 -2 1 C-1.34 0.67 -0.68 0.34 0 0 Z " fill="#1D1D1D" transform="translate(76,69)"/>
<path d="M0 0 C2.99324263 1.0975223 3.84610901 1.67682892 5.25 4.625 C5.4975 5.40875 5.745 6.1925 6 7 C3.5625 6.3125 3.5625 6.3125 1 5 C0.1875 2.375 0.1875 2.375 0 0 Z " fill="#6C6C6C" transform="translate(84,69)"/>
<path d="M0 0 C0.33 0 0.66 0 1 0 C1.33 2.97 1.66 5.94 2 9 C1.01 8.67 0.02 8.34 -1 8 C-0.67 5.36 -0.34 2.72 0 0 Z " fill="#716B5C" transform="translate(65,40)"/>
<path d="M0 0 C1.98 0.99 1.98 0.99 4 2 C4 3.32 4 4.64 4 6 C2.68 5.34 1.36 4.68 0 4 C0 2.68 0 1.36 0 0 Z " fill="#544E3D" transform="translate(34,33)"/>
<path d="M0 0 C2.64 0 5.28 0 8 0 C8 0.33 8 0.66 8 1 C6.7934375 1.185625 6.7934375 1.185625 5.5625 1.375 C4.716875 1.58125 3.87125 1.7875 3 2 C2.67 2.66 2.34 3.32 2 4 C1.01 4 0.02 4 -1 4 C-0.67 2.68 -0.34 1.36 0 0 Z " fill="#7F7F7F" transform="translate(42,30)"/>
<path d="M0 0 C0.99 0.33 1.98 0.66 3 1 C3 1.66 3 2.32 3 3 C2.34 3 1.68 3 1 3 C1 3.99 1 4.98 1 6 C0.34 6 -0.32 6 -1 6 C-1.33 6.66 -1.66 7.32 -2 8 C-1.47731534 5.23723823 -0.89130413 2.6739124 0 0 Z " fill="#3C3B38" transform="translate(137,64)"/>
<path d="M0 0 C2.4375 0.75 2.4375 0.75 5 2 C5.8125 4.125 5.8125 4.125 6 6 C3.5625 5.25 3.5625 5.25 1 4 C0.1875 1.875 0.1875 1.875 0 0 Z " fill="#191919" transform="translate(108,46)"/>
</svg>
