<?xml version="1.0" encoding="UTF-8"?>
<svg version="1.1" xmlns="http://www.w3.org/2000/svg" width="160" height="100">
<path d="M0 0 C52.8 0 105.6 0 160 0 C160 33 160 66 160 100 C107.2 100 54.4 100 0 100 C0 67 0 34 0 0 Z " fill="#FEB900" transform="translate(0,0)"/>
<path d="M0 0 C0 0.66 0 1.32 0 2 C0.598125 2.268125 1.19625 2.53625 1.8125 2.8125 C5.31088537 4.71162349 6.73345454 6.20036361 8 10 C8.38325354 17.07891824 8.75815372 24.68655644 5.375 31.0625 C3.71596079 34.60681105 3.8244466 36.30540359 5 40 C5.99 40.66 6.98 41.32 8 42 C8 42.66 8 43.32 8 44 C8.721875 44.103125 9.44375 44.20625 10.1875 44.3125 C13.4281274 45.10465336 15.42563454 45.85469545 18 48 C18.8125 51.6875 18.8125 51.6875 19 55 C17.29115995 53.37660195 15.62553283 51.70680947 14 50 C14 49.34 14 48.68 14 48 C12.5590974 48.22957777 11.12222985 48.48456354 9.6875 48.75 C8.88699219 48.88921875 8.08648437 49.0284375 7.26171875 49.171875 C4.32050052 50.24879774 3.5314304 51.27897635 2 54 C-1.09021093 63.98278015 -2.04706261 73.76468695 0 84 C-15.51 84 -31.02 84 -47 84 C-51.49423077 75.01153846 -51.49423077 75.01153846 -52.16015625 71.4921875 C-52.31419922 70.73292969 -52.46824219 69.97367187 -52.62695312 69.19140625 C-52.77068359 68.42699219 -52.91441406 67.66257812 -53.0625 66.875 C-54.11179077 61.38569721 -55.43319117 57.01560346 -58 52 C-57.6875 48.625 -57.6875 48.625 -57 46 C-56.34 46 -55.68 46 -55 46 C-54.67 45.01 -54.34 44.02 -54 43 C-53.34 43 -52.68 43 -52 43 C-52.66 39.7 -53.32 36.4 -54 33 C-53.01 33.33 -52.02 33.66 -51 34 C-50.19140625 35.92578125 -50.19140625 35.92578125 -49.5625 38.3125 C-48.61726562 41.5222531 -48.23586031 42.77724304 -45.75 45.125 C-45.1725 45.74375 -44.595 46.3625 -44 47 C-44.25 50.25 -44.25 50.25 -45 54 C-45.52500942 60.83858423 -44.39127736 66.94414757 -41 73 C-37.26064981 69.50126887 -34.56075181 66.0162088 -31.9375 61.625 C-31.5880835 61.05136719 -31.23866699 60.47773437 -30.87866211 59.88671875 C-29.12102116 56.98296915 -27.53048425 54.05717821 -26.0625 51 C-23.21307145 46.85537666 -19.59273808 44.92398487 -15 43 C-14.34 43 -13.68 43 -13 43 C-14.04033666 39.53221112 -15.26697171 36.48121427 -17.046875 33.34765625 C-19.33001573 28.82404059 -19.60186522 24.94162892 -19.5 19.9375 C-19.51546875 19.17373047 -19.5309375 18.40996094 -19.546875 17.62304688 C-19.50830534 11.98705517 -18.12922833 8.67521613 -15 4 C-13.68 4 -12.36 4 -11 4 C-10.67 3.01 -10.34 2.02 -10 1 C-6.52674819 -0.1577506 -3.63932552 -0.06866652 0 0 Z " fill="#5A5850" transform="translate(93,16)"/>
<path d="M0 0 C0.99 0.33 1.98 0.66 3 1 C3.80859375 2.92578125 3.80859375 2.92578125 4.4375 5.3125 C5.38273438 8.5222531 5.76413969 9.77724304 8.25 12.125 C8.8275 12.74375 9.405 13.3625 10 14 C9.75 17.25 9.75 17.25 9 21 C8.47499058 27.83858423 9.60872264 33.94414757 13 40 C16.73935019 36.50126887 19.43924819 33.0162088 22.0625 28.625 C22.40539062 28.05499268 22.74828125 27.48498535 23.1015625 26.89770508 C25.45884524 22.96460571 27.76528133 19.00387095 30 15 C30.99 15 31.98 15 33 15 C31.68 17.31 30.36 19.62 29 22 C29.33 22.33 29.66 22.66 30 23 C30.47050781 22.3503125 30.94101563 21.700625 31.42578125 21.03125 C32.04839844 20.1959375 32.67101562 19.360625 33.3125 18.5 C33.92738281 17.6646875 34.54226562 16.829375 35.17578125 15.96875 C35.77777344 15.3190625 36.37976563 14.669375 37 14 C37.99 14 38.98 14 40 14 C39.67 15.65 39.34 17.3 39 19 C44.61716257 17.00528281 44.61716257 17.00528281 49.875 14.25 C50.926875 13.63125 50.926875 13.63125 52 13 C52.66 13.33 53.32 13.66 54 14 C53.59007812 14.67546875 53.18015625 15.3509375 52.7578125 16.046875 C52.21898437 16.93890625 51.68015625 17.8309375 51.125 18.75 C50.59132812 19.63171875 50.05765625 20.5134375 49.5078125 21.421875 C46.09186433 27.26261539 45.43912705 31.21559454 46 38 C46.63106429 40.01151741 47.29373761 42.01363702 48 44 C48 46.31 48 48.62 48 51 C34.47 51 20.94 51 7 51 C2.50576923 42.01153846 2.50576923 42.01153846 1.83984375 38.4921875 C1.68580078 37.73292969 1.53175781 36.97367188 1.37304688 36.19140625 C1.22931641 35.42699219 1.08558594 34.66257813 0.9375 33.875 C-0.11179077 28.38569721 -1.43319117 24.01560346 -4 19 C-3.6875 15.625 -3.6875 15.625 -3 13 C-2.34 13 -1.68 13 -1 13 C-0.67 12.01 -0.34 11.02 0 10 C0.66 10 1.32 10 2 10 C1.34 6.7 0.68 3.4 0 0 Z " fill="#777368" transform="translate(39,49)"/>
<path d="M0 0 C6.84 1.976 6.84 1.976 9 5 C11.27318715 10.11467109 11.25756557 13.72371076 9.2578125 18.93359375 C8.53818611 20.63670953 7.77266956 22.32028358 7 24 C6.67 23.01 6.34 22.02 6 21 C5.01 21.33 4.02 21.66 3 22 C2.11484006 24.72652946 1.42444289 27.27711412 0.8125 30.0625 C-0.0846875 33.9915625 -0.0846875 33.9915625 -1 38 C-6.61 38 -12.22 38 -18 38 C-21.35145092 29.6213727 -20.30386262 22.17509436 -18.3125 13.5625 C-18.16409668 12.87631592 -18.01569336 12.19013184 -17.86279297 11.4831543 C-16.67839855 6.79015059 -15.13214744 4.51059261 -11 2 C-7.4375 1.375 -7.4375 1.375 -4 2 C-1.5625 5 -1.5625 5 0 8 C-0.185625 6.865625 -0.37125 5.73125 -0.5625 4.5625 C-0.706875 3.386875 -0.85125 2.21125 -1 1 C-0.67 0.67 -0.34 0.34 0 0 Z " fill="#D0D0D0" transform="translate(111,62)"/>
<path d="M0 0 C0.66 0.33 1.32 0.66 2 1 C1.67 2.65 1.34 4.3 1 6 C6.61716257 4.00528281 6.61716257 4.00528281 11.875 1.25 C12.926875 0.63125 12.926875 0.63125 14 0 C14.66 0.33 15.32 0.66 16 1 C15.59007812 1.67546875 15.18015625 2.3509375 14.7578125 3.046875 C14.21898437 3.93890625 13.68015625 4.8309375 13.125 5.75 C12.59132812 6.63171875 12.05765625 7.5134375 11.5078125 8.421875 C8.09186433 14.26261539 7.43912705 18.21559454 8 25 C8.63106429 27.01151741 9.29373761 29.01363702 10 31 C10.07522969 33.33212027 10.09325876 35.6685311 10 38 C8.515 37.505 8.515 37.505 7 37 C7 36.34 7 35.68 7 35 C6.4225 34.7525 5.845 34.505 5.25 34.25 C2.53776451 32.7432025 0.88248076 31.48756387 -1 29 C-1.33094958 25.22717474 -1.19754817 22.59264452 0 19 C-0.99 19 -1.98 19 -3 19 C-3.14285714 11.57142857 -3.14285714 11.57142857 -2 8 C-2.66 8 -3.32 8 -4 8 C-3.94779297 8.93972656 -3.94779297 8.93972656 -3.89453125 9.8984375 C-3.86746094 10.71570313 -3.84039062 11.53296875 -3.8125 12.375 C-3.76029297 13.59316406 -3.76029297 13.59316406 -3.70703125 14.8359375 C-3.80371094 15.55007812 -3.90039062 16.26421875 -4 17 C-7.28463659 19.18975773 -10.20696275 19.99806563 -14 21 C-14.5534764 23.07553648 -15 24.84365964 -15 27 C-16.9375 26.1875 -16.9375 26.1875 -19 25 C-19.33 24.01 -19.66 23.02 -20 22 C-18.84991614 19.80087323 -17.67251586 17.81200681 -16.3125 15.75 C-15.56823023 14.58513353 -14.82473373 13.41977262 -14.08203125 12.25390625 C-13.39496094 11.18011719 -12.70789063 10.10632813 -12 9 C-10.63010162 6.68430877 -9.3113165 4.34944205 -8 2 C-7.01 2 -6.02 2 -5 2 C-6.32 4.31 -7.64 6.62 -9 9 C-8.67 9.33 -8.34 9.66 -8 10 C-7.50628906 9.36191406 -7.01257813 8.72382812 -6.50390625 8.06640625 C-5.86324219 7.24011719 -5.22257812 6.41382812 -4.5625 5.5625 C-3.92441406 4.73878906 -3.28632812 3.91507812 -2.62890625 3.06640625 C-1 1 -1 1 0 0 Z " fill="#D7D7D7" transform="translate(77,62)"/>
<path d="M0 0 C5.875 1.875 5.875 1.875 7 3 C7.144375 4.093125 7.28875 5.18625 7.4375 6.3125 C7.7558292 9.80625604 7.7558292 9.80625604 9.0234375 11.875 C10.27248807 14.59293405 10.23124115 16.70912556 10.1875 19.6875 C10.18105469 20.66074219 10.17460937 21.63398437 10.16796875 22.63671875 C10 25 10 25 9 26 C7.43827255 26.08685603 5.87270656 26.10702219 4.30859375 26.09765625 C3.36435547 26.09443359 2.42011719 26.09121094 1.44726562 26.08789062 C-0.04256836 26.07532227 -0.04256836 26.07532227 -1.5625 26.0625 C-2.55958984 26.05798828 -3.55667969 26.05347656 -4.58398438 26.04882812 C-7.05604849 26.03700007 -9.52799518 26.02051849 -12 26 C-11.14023349 15.46497722 -11.14023349 15.46497722 -9.4375 10.875 C-9.16808594 10.12992188 -8.89867188 9.38484375 -8.62109375 8.6171875 C-8.41613281 8.08351563 -8.21117188 7.54984375 -8 7 C-7.67 7.66 -7.34 8.32 -7 9 C-6.34 9 -5.68 9 -5 9 C-4.67 9.66 -4.34 10.32 -4 11 C-2.68 7.37 -1.36 3.74 0 0 Z " fill="#262626" transform="translate(122,74)"/>
<path d="M0 0 C1.09898702 3.29696105 0.87124444 4.40494903 0.0625 7.6875 C-0.13214844 8.49574219 -0.32679687 9.30398437 -0.52734375 10.13671875 C-0.68332031 10.75160156 -0.83929688 11.36648437 -1 12 C-0.01 12 0.98 12 2 12 C1.91878906 12.65226562 1.83757812 13.30453125 1.75390625 13.9765625 C1.25496596 19.32077406 1.25496596 19.32077406 3.55859375 23.9296875 C5.46514636 25.51522636 5.46514636 25.51522636 7.46875 26.84375 C7.9740625 27.2253125 8.479375 27.606875 9 28 C9 28.66 9 29.32 9 30 C9.66 30.33 10.32 30.66 11 31 C2.09 31 -6.82 31 -16 31 C-14.35 29.35 -12.7 27.7 -11 26 C-10.67 24.68 -10.34 23.36 -10 22 C-14.95 23.485 -14.95 23.485 -20 25 C-20.33 23.02 -20.66 21.04 -21 19 C-19.68 18.34 -18.36 17.68 -17 17 C-15.68 17.99 -14.36 18.98 -13 20 C-13.20625 19.21625 -13.4125 18.4325 -13.625 17.625 C-13.74875 16.75875 -13.8725 15.8925 -14 15 C-11.77174356 12.77174356 -10.34238372 12.30760631 -7.375 11.375 C-6.55773437 11.11460938 -5.74046875 10.85421875 -4.8984375 10.5859375 C-4.27195312 10.39257812 -3.64546875 10.19921875 -3 10 C-2.95101562 9.36191406 -2.90203125 8.72382812 -2.8515625 8.06640625 C-2.77679688 7.24011719 -2.70203125 6.41382812 -2.625 5.5625 C-2.55539063 4.73878906 -2.48578125 3.91507812 -2.4140625 3.06640625 C-2.27742188 2.38449219 -2.14078125 1.70257813 -2 1 C-1.34 0.67 -0.68 0.34 0 0 Z " fill="#767676" transform="translate(75,69)"/>
<path d="M0 0 C2.82103993 1.08769993 4.48757851 2.12799967 7 4 C7.9375 7.75 7.9375 7.75 8 11 C6.29115995 9.37660195 4.62553283 7.70680947 3 6 C3 5.34 3 4.68 3 4 C1.5590974 4.22957777 0.12222985 4.48456354 -1.3125 4.75 C-2.11300781 4.88921875 -2.91351563 5.0284375 -3.73828125 5.171875 C-6.67949948 6.24879774 -7.4685696 7.27897635 -9 10 C-12.047542 19.84494019 -13.23348307 29.89529031 -11 40 C-12.98 40 -14.96 40 -17 40 C-17.13277344 39.31292969 -17.26554687 38.62585938 -17.40234375 37.91796875 C-17.57894531 37.01691406 -17.75554687 36.11585937 -17.9375 35.1875 C-18.11152344 34.29417969 -18.28554687 33.40085938 -18.46484375 32.48046875 C-18.97741153 29.88602829 -18.97741153 29.88602829 -20 27 C-21.52202366 18.04081528 -18.04618215 11.26374267 -13 4 C-9.10576136 -0.23834162 -5.64162097 -1.9980741 0 0 Z " fill="#4D4D4D" transform="translate(104,60)"/>
<path d="M0 0 C0 0.66 0 1.32 0 2 C0.8971875 2.4021875 0.8971875 2.4021875 1.8125 2.8125 C5.31088537 4.71162349 6.73345454 6.20036361 8 10 C8.5595043 16.75709035 8.20352111 21.99339792 5 28 C4.67 28 4.34 28 4 28 C3.34 24.7 2.68 21.4 2 18 C-0.31 18 -2.62 18 -5 18 C-5 17.34 -5 16.68 -5 16 C-4.34 15.67 -3.68 15.34 -3 15 C-3.95314787 12.4597161 -3.95314787 12.4597161 -6 10 C-8.66921593 8.95231959 -11.15432483 8.51315454 -14 8 C-14.19335938 8.71027344 -14.38671875 9.42054687 -14.5859375 10.15234375 C-14.84632812 11.07144531 -15.10671875 11.99054687 -15.375 12.9375 C-15.63023438 13.85402344 -15.88546875 14.77054688 -16.1484375 15.71484375 C-17 18 -17 18 -19 19 C-19.45356243 12.53673535 -18.59378942 9.39068413 -15 4 C-13.68 4 -12.36 4 -11 4 C-10.67 3.01 -10.34 2.02 -10 1 C-6.52674819 -0.1577506 -3.63932552 -0.06866652 0 0 Z " fill="#1D1D1C" transform="translate(93,16)"/>
<path d="M0 0 C6.84 1.976 6.84 1.976 9 5 C11.27318715 10.11467109 11.25756557 13.72371076 9.2578125 18.93359375 C8.53818611 20.63670953 7.77266956 22.32028358 7 24 C6.67 23.01 6.34 22.02 6 21 C5.01 21.33 4.02 21.66 3 22 C2.11917378 24.71318044 1.42123771 27.28883517 0.8125 30.0625 C0.63525391 30.82111328 0.45800781 31.57972656 0.27539062 32.36132812 C-0.16136967 34.23821697 -0.58219156 36.1188016 -1 38 C-2.89294858 34.6338436 -3.76552027 31.31729781 -4.625 27.5625 C-4.88539062 26.45003906 -5.14578125 25.33757812 -5.4140625 24.19140625 C-5.93359454 21.3616884 -6.11779254 18.86450045 -6 16 C-5.34 16.99 -4.68 17.98 -4 19 C-1.63019987 16.04622502 -1.63019987 16.04622502 -2 12 C-2 11.34 -2 10.68 -2 10 C-1.34 9.67 -0.68 9.34 0 9 C-0.185625 7.700625 -0.37125 6.40125 -0.5625 5.0625 C-0.87890625 2.84765625 -0.87890625 2.84765625 -1 1 C-0.67 0.67 -0.34 0.34 0 0 Z " fill="#92918D" transform="translate(111,62)"/>
<path d="M0 0 C5.28497409 0.0880829 5.28497409 0.0880829 8 1 C9.94583442 3.22381076 10.79889012 5.24745652 12 8 C4.25 9 4.25 9 2 9 C0.66216607 9.31478446 -0.67203709 9.64587656 -2 10 C-0.02 10.66 1.96 11.32 4 12 C4.33 11.34 4.66 10.68 5 10 C5 12.64 5 15.28 5 18 C3.35 18.33 1.7 18.66 0 19 C-0.33 18.34 -0.66 17.68 -1 17 C-1.33 18.32 -1.66 19.64 -2 21 C1.465 20.505 1.465 20.505 5 20 C5.66 20.99 6.32 21.98 7 23 C5.35 23.66 3.7 24.32 2 25 C3.32 25.33 4.64 25.66 6 26 C6 26.66 6 27.32 6 28 C3.25 28.3125 3.25 28.3125 0 28 C-4.53244396 23.34505755 -5.33338038 20.03414545 -5.296875 13.74609375 C-4.82495321 9.38081724 -3.05571638 5.83073253 -1 2 C-0.67 1.34 -0.34 0.68 0 0 Z " fill="#978E78" transform="translate(79,24)"/>
<path d="M0 0 C0.33 0 0.66 0 1 0 C0.85892253 1.45880109 0.71197585 2.91703551 0.5625 4.375 C0.48128906 5.18710938 0.40007812 5.99921875 0.31640625 6.8359375 C0 9 0 9 -1 11 C-0.34 11 0.32 11 1 11 C1.185625 9.2984375 1.185625 9.2984375 1.375 7.5625 C1.58125 6.386875 1.7875 5.21125 2 4 C2.66 3.67 3.32 3.34 4 3 C4 4.98 4 6.96 4 9 C4.66 9 5.32 9 6 9 C6.33 14.61 6.66 20.22 7 26 C2.75176275 26.84964745 -0.71005077 27.16499805 -5 27 C-6 26 -6 26 -6.0625 22.4375 C-6.041875 21.303125 -6.02125 20.16875 -6 19 C-5.67 19 -5.34 19 -5 19 C-4.70996094 17.44539063 -4.70996094 17.44539063 -4.4140625 15.859375 C-4.15135133 14.48952391 -3.88831329 13.11973548 -3.625 11.75 C-3.49867187 11.06808594 -3.37234375 10.38617188 -3.2421875 9.68359375 C-2.56093633 6.17515024 -1.83146585 3.08960327 0 0 Z " fill="#D2D2D2" transform="translate(98,73)"/>
<path d="M0 0 C0.66 0 1.32 0 2 0 C3.52448631 2.9826906 4.93940067 5.818202 6 9 C6.99 9 7.98 9 9 9 C9 10.65 9 12.3 9 14 C10.093125 13.505 11.18625 13.01 12.3125 12.5 C16 11 16 11 19 11 C18.72117762 14.34586856 18.26556204 15.73053263 15.875 18.15625 C12.35059747 20.41646466 10.33160971 20.41743878 6.1875 20.25 C5.02605469 20.21390625 3.86460938 20.1778125 2.66796875 20.140625 C1.78753906 20.09421875 0.90710937 20.0478125 0 20 C-0.66 18.35 -1.32 16.7 -2 15 C-1.484375 14.608125 -0.96875 14.21625 -0.4375 13.8125 C0.2740625 12.9153125 0.2740625 12.9153125 1 12 C0.71433121 9.64934822 0.71433121 9.64934822 0 7 C-0.03824623 4.66698014 -0.04574284 2.33288492 0 0 Z " fill="#5A5854" transform="translate(46,80)"/>
<path d="M0 0 C4.1249003 -0.24264119 7.12162682 0.65444196 11 2 C12.99369031 2.36920191 14.99279077 2.71325582 17 3 C17.33 2.34 17.66 1.68 18 1 C19.26237731 3.52475462 19.09856404 5.31200466 19.0625 8.125 C19.05347656 9.03507812 19.04445313 9.94515625 19.03515625 10.8828125 C19.02355469 11.58148438 19.01195313 12.28015625 19 13 C18.01 13 17.02 13 16 13 C14.28288757 15.44496043 14.28288757 15.44496043 13 18 C12.67 17.34 12.34 16.68 12 16 C11.34 16 10.68 16 10 16 C10 15.34 10 14.68 10 14 C6.7 14 3.4 14 0 14 C0.33 12.35 0.66 10.7 1 9 C1.66 9.33 2.32 9.66 3 10 C4.32860925 10.35169068 5.66158328 10.68770276 7 11 C6.67 9.02 6.34 7.04 6 5 C4.02 5 2.04 5 0 5 C0 4.34 0 3.68 0 3 C0.66 2.67 1.32 2.34 2 2 C1.34 1.34 0.68 0.68 0 0 Z " fill="#3A3A3A" transform="translate(77,31)"/>
<path d="M0 0 C0 1.32 0 2.64 0 4 C0.66 4.66 1.32 5.32 2 6 C0.35 7.98 -1.3 9.96 -3 12 C-2.34 12 -1.68 12 -1 12 C0.38938077 13.96147874 1.7260411 15.96166576 3 18 C-1.29 18 -5.58 18 -10 18 C-9.195625 17.2575 -8.39125 16.515 -7.5625 15.75 C-4.68347114 13.10501953 -4.68347114 13.10501953 -4 9 C-8.95 10.485 -8.95 10.485 -14 12 C-14.33 10.02 -14.66 8.04 -15 6 C-13.68 5.34 -12.36 4.68 -11 4 C-9.68 4.99 -8.36 5.98 -7 7 C-7.309375 5.824375 -7.309375 5.824375 -7.625 4.625 C-7.74875 3.75875 -7.8725 2.8925 -8 2 C-5.01914162 -0.98085838 -3.92387184 -1.17716155 0 0 Z " fill="#959595" transform="translate(69,82)"/>
<path d="M0 0 C0.66 0.33 1.32 0.66 2 1 C2 1.99 2 2.98 2 4 C3.2375 3.979375 4.475 3.95875 5.75 3.9375 C8.15190811 3.92061488 9.88550886 3.96401707 12.1875 4.6875 C15.07418745 5.18520473 16.69365334 3.60162963 19 2 C19.66 2.66 20.32 3.32 21 4 C17.70575807 5.72947701 14.43544715 7.245518 10.9375 8.5 C8.43965743 9.39922332 6.54179412 10.28117179 4.25 11.6875 C2 13 2 13 -2 13 C-2 11.35 -2 9.7 -2 8 C-6.16510947 12.04941198 -9.77697825 16.16546738 -13 21 C-12.73496034 14.63904821 -10.56352511 10.47959822 -6 6 C-2.625 4.5 -2.625 4.5 0 4 C0 2.68 0 1.36 0 0 Z " fill="#908F8B" transform="translate(80,55)"/>
<path d="M0 0 C1.32 0 2.64 0 4 0 C4.66 1.65 5.32 3.3 6 5 C5.34 5 4.68 5 4 5 C4.350625 5.7425 4.70125 6.485 5.0625 7.25 C6.04509293 10.1322726 6.0326802 11.21176345 5 14 C4.67 13.34 4.34 12.68 4 12 C3.67 13.65 3.34 15.3 3 17 C2.34 16.01 1.68 15.02 1 14 C1.2165625 15.03640625 1.433125 16.0728125 1.65625 17.140625 C1.93770537 18.51037448 2.218944 19.88016851 2.5 21.25 C2.64308594 21.93191406 2.78617187 22.61382812 2.93359375 23.31640625 C3.61251049 26.64633121 4 29.58332551 4 33 C1.03 33 -1.94 33 -5 33 C-3.68 32.34 -2.36 31.68 -1 31 C-1.00523682 30.13197754 -1.01047363 29.26395508 -1.01586914 28.36962891 C-1.03289862 25.15299727 -1.04544408 21.93638859 -1.05493164 18.71972656 C-1.0599643 17.32681523 -1.06679098 15.9339092 -1.07543945 14.54101562 C-1.08755152 12.54038754 -1.09270412 10.53972112 -1.09765625 8.5390625 C-1.10289307 7.33459473 -1.10812988 6.13012695 -1.11352539 4.88916016 C-1 2 -1 2 0 0 Z " fill="#B5B5B5" transform="translate(105,67)"/>
<path d="M0 0 C0.33 0 0.66 0 1 0 C1 1.98 1 3.96 1 6 C1.99 6 2.98 6 4 6 C4 6.99 4 7.98 4 9 C4.66 9 5.32 9 6 9 C6 9.66 6 10.32 6 11 C6.99 11.33 7.98 11.66 9 12 C9 9.69 9 7.38 9 5 C9.33 5 9.66 5 10 5 C10.13277344 5.75925781 10.26554687 6.51851563 10.40234375 7.30078125 C10.57894531 8.29464844 10.75554687 9.28851563 10.9375 10.3125 C11.11152344 11.29863281 11.28554687 12.28476563 11.46484375 13.30078125 C11.95746847 16.08189213 11.95746847 16.08189213 13 19 C13.03954234 21.33299825 13.04401732 23.66708189 13 26 C12.01 25.67 11.02 25.34 10 25 C10 24.34 10 23.68 10 23 C9.4225 22.7525 8.845 22.505 8.25 22.25 C5.53776451 20.7432025 3.88248076 19.48756387 2 17 C1.66905042 13.22717474 1.80245183 10.59264452 3 7 C2.01 7 1.02 7 0 7 C0 4.69 0 2.38 0 0 Z " fill="#C6C6C6" transform="translate(74,74)"/>
<path d="M0 0 C0.66 0.33 1.32 0.66 2 1 C1.34 2.051875 0.68 3.10375 0 4.1875 C-1.7771585 7.26623937 -2.43806506 9.38596328 -2 13 C-0.68 13.66 0.64 14.32 2 15 C2 13.02 2 11.04 2 9 C2.33 9 2.66 9 3 9 C3.1875 12.375 3.1875 12.375 3 16 C-0.28463659 18.18975773 -3.20696275 18.99806563 -7 20 C-7.5534764 22.07553648 -8 23.84365964 -8 26 C-9.9375 25.1875 -9.9375 25.1875 -12 24 C-12.33 23.01 -12.66 22.02 -13 21 C-11.84990344 18.80084896 -10.67259974 16.81198271 -9.3125 14.75 C-8.5668882 13.58385731 -7.82208898 12.41719464 -7.078125 11.25 C-6.39234375 10.1775 -5.7065625 9.105 -5 8 C-4.17481026 6.59068719 -3.35864107 5.1759243 -2.5625 3.75 C-1 1 -1 1 0 0 Z " fill="#A5A5A5" transform="translate(70,63)"/>
<path d="M0 0 C0.45375 0.495 0.9075 0.99 1.375 1.5 C2.87635519 3.22609337 2.87635519 3.22609337 5 3 C5 3.99 5 4.98 5 6 C5.66 6 6.32 6 7 6 C7.33 7.32 7.66 8.64 8 10 C7.01 10.495 7.01 10.495 6 11 C6 10.01 6 9.02 6 8 C5.01 8.33 4.02 8.66 3 9 C2.11917378 11.71318044 1.42123771 14.28883517 0.8125 17.0625 C0.63525391 17.82111328 0.45800781 18.57972656 0.27539062 19.36132812 C-0.16136967 21.23821697 -0.58219156 23.1188016 -1 25 C-2.89294858 21.6338436 -3.76552027 18.31729781 -4.625 14.5625 C-4.88539062 13.45003906 -5.14578125 12.33757812 -5.4140625 11.19140625 C-5.93359454 8.3616884 -6.11779254 5.86450045 -6 3 C-5.01 4.485 -5.01 4.485 -4 6 C-3.34 5.01 -2.68 4.02 -2 3 C-1.67 3.33 -1.34 3.66 -1 4 C-0.67 2.68 -0.34 1.36 0 0 Z " fill="#919191" transform="translate(111,75)"/>
<path d="M0 0 C0.99 0.33 1.98 0.66 3 1 C3.87890625 3.03125 3.87890625 3.03125 4.5625 5.5 C5.20384717 7.91495405 5.20384717 7.91495405 6 10 C6.66 10.33 7.32 10.66 8 11 C8 11.99 8 12.98 8 14 C7.01 13.67 6.02 13.34 5 13 C5 12.34 5 11.68 5 11 C4.34 11 3.68 11 3 11 C3.33 12.32 3.66 13.64 4 15 C3.34 15 2.68 15 2 15 C2.33 16.32 2.66 17.64 3 19 C2.34 19 1.68 19 1 19 C1 20.32 1 21.64 1 23 C1.66 23.33 2.32 23.66 3 24 C1.68 24.33 0.36 24.66 -1 25 C-3.05257931 21.55166676 -4.0632763 19.68338409 -3.6875 15.625 C-3.460625 14.75875 -3.23375 13.8925 -3 13 C-2.34 13 -1.68 13 -1 13 C-0.67 12.01 -0.34 11.02 0 10 C0.66 10 1.32 10 2 10 C1.34 6.7 0.68 3.4 0 0 Z " fill="#ABA491" transform="translate(39,49)"/>
<path d="M0 0 C0.33 0.66 0.66 1.32 1 2 C1.66 2 2.32 2 3 2 C4.87978657 4.73177617 5.01655381 5.88384275 4.5390625 9.234375 C4.23742187 10.39453125 3.93578125 11.5546875 3.625 12.75 C3.18027344 14.50570312 3.18027344 14.50570312 2.7265625 16.296875 C2.48679687 17.18890625 2.24703125 18.0809375 2 19 C0.02 19 -1.96 19 -4 19 C-3.59060025 12.23784552 -2.43046191 6.32837252 0 0 Z " fill="#494949" transform="translate(114,81)"/>
<path d="M0 0 C6.84 1.976 6.84 1.976 9 5 C10.1875 8.1875 10.1875 8.1875 11 11 C3.65306122 11.48979592 3.65306122 11.48979592 0.5 9.125 C-1 7 -1 7 -1 5 C-1.66 5 -2.32 5 -3 5 C-1.125 1.125 -1.125 1.125 0 0 Z " fill="#7B7B7B" transform="translate(69,89)"/>
<path d="M0 0 C1.65 0.33 3.3 0.66 5 1 C4.67 2.32 4.34 3.64 4 5 C3.34 5 2.68 5 2 5 C2 5.66 2 6.32 2 7 C3.65 7 5.3 7 7 7 C7 8.98 7 10.96 7 13 C5 12 5 12 4 9 C2.12612784 8.19787372 2.12612784 8.19787372 -0.0625 7.8125 C-0.79597656 7.65394531 -1.52945313 7.49539062 -2.28515625 7.33203125 C-2.85105469 7.22246094 -3.41695313 7.11289062 -4 7 C-4.19335938 7.71027344 -4.38671875 8.42054687 -4.5859375 9.15234375 C-4.84632812 10.07144531 -5.10671875 10.99054687 -5.375 11.9375 C-5.63023438 12.85402344 -5.88546875 13.77054688 -6.1484375 14.71484375 C-7 17 -7 17 -9 18 C-9.45356243 11.53673535 -8.59378942 8.39068413 -5 3 C-3.68 3 -2.36 3 -1 3 C-0.67 2.01 -0.34 1.02 0 0 Z " fill="#3C3932" transform="translate(83,17)"/>
<path d="M0 0 C2.31 0.33 4.62 0.66 7 1 C7.33 1.99 7.66 2.98 8 4 C8.66 4 9.32 4 10 4 C11.4783226 6.95664519 11.06032783 9.74229737 11 13 C7.25 14.125 7.25 14.125 5 13 C5 11.02 5 9.04 5 7 C3.35 7 1.7 7 0 7 C0 6.34 0 5.68 0 5 C0.66 5 1.32 5 2 5 C2 4.01 2 3.02 2 2 C1.34 1.34 0.68 0.68 0 0 Z " fill="#0A0A0A" transform="translate(85,17)"/>
<path d="M0 0 C2.59184839 2.22637035 3.39896254 3.6201552 3.73046875 7.01171875 C3.81103516 7.76904297 3.89160156 8.52636719 3.97460938 9.30664062 C4.04486328 10.09232422 4.11511719 10.87800781 4.1875 11.6875 C4.26935547 12.48478516 4.35121094 13.28207031 4.43554688 14.10351562 C4.63550845 16.067844 4.81932254 18.03380412 5 20 C3.02 20 1.04 20 -1 20 C-1.33820166 18.4176994 -1.67035939 16.83410625 -2 15.25 C-2.185625 14.36828125 -2.37125 13.4865625 -2.5625 12.578125 C-3 10 -3 10 -3 6 C-2.34 6 -1.68 6 -1 6 C-1.0309375 4.7934375 -1.0309375 4.7934375 -1.0625 3.5625 C-1 1 -1 1 0 0 Z " fill="#252525" transform="translate(88,80)"/>
<path d="M0 0 C0.33 0 0.66 0 1 0 C1 1.65 1 3.3 1 5 C2.6396875 4.2575 2.6396875 4.2575 4.3125 3.5 C8 2 8 2 11 2 C10.71897086 5.37234971 10.19628348 6.78639739 7.875 9.3125 C4.35183346 11.38044558 2.01922848 11.31523361 -2 11 C-1.85957123 9.35369672 -1.71250671 7.70795821 -1.5625 6.0625 C-1.48128906 5.14597656 -1.40007813 4.22945313 -1.31640625 3.28515625 C-1 1 -1 1 0 0 Z " fill="#4B4B48" transform="translate(54,89)"/>
<path d="M0 0 C4.02487815 1.28796101 6.70308791 2.45034001 10.125 5 C11.0625 8.75 11.0625 8.75 11.125 12 C9.41615995 10.37660195 7.75053283 8.70680947 6.125 7 C6.125 6.34 6.125 5.68 6.125 5 C5.36574219 5.17917969 4.60648438 5.35835938 3.82421875 5.54296875 C2.33341797 5.86201172 2.33341797 5.86201172 0.8125 6.1875 C-0.17363281 6.40792969 -1.15976563 6.62835938 -2.17578125 6.85546875 C-4.875 7 -4.875 7 -6.73046875 5.55078125 C-7.10816406 5.03902344 -7.48585938 4.52726562 -7.875 4 C-3.75378788 0 -3.75378788 0 0 0 Z " fill="#3B3A37" transform="translate(100.875,59)"/>
<path d="M0 0 C0.66 0.33 1.32 0.66 2 1 C3.03876383 4.11629149 3.13361625 6.3594429 3.125 9.625 C3.12757813 10.60726562 3.13015625 11.58953125 3.1328125 12.6015625 C3 15 3 15 2 16 C0.33382885 16.04063832 -1.33388095 16.042721 -3 16 C-2.57910004 10.39538469 -2.08386889 5.27913453 0 0 Z " fill="#5B5340" transform="translate(129,84)"/>
<path d="M0 0 C0.66 0 1.32 0 2 0 C2 0.99 2 1.98 2 3 C3.32 3 4.64 3 6 3 C6 2.01 6 1.02 6 0 C6.66 0 7.32 0 8 0 C8 2.97 8 5.94 8 9 C7.01 9 6.02 9 5 9 C3.28288757 11.44496043 3.28288757 11.44496043 2 14 C1.67 13.01 1.34 12.02 1 11 C0.443125 9.8553125 0.443125 9.8553125 -0.125 8.6875 C-1.18729727 5.4247298 -0.76815888 3.3030832 0 0 Z " fill="#818181" transform="translate(88,35)"/>
<path d="M0 0 C0.33 0 0.66 0 1 0 C1.33 3.3 1.66 6.6 2 10 C2.99 10 3.98 10 5 10 C5.33 11.98 5.66 13.96 6 16 C3.03 16 0.06 16 -3 16 C-2.88487847 14.27014758 -2.75744323 12.54111249 -2.625 10.8125 C-2.55539063 9.84957031 -2.48578125 8.88664062 -2.4140625 7.89453125 C-1.99784147 4.98491062 -1.20125904 2.67109226 0 0 Z " fill="#090909" transform="translate(119,84)"/>
<path d="M0 0 C0.66 0 1.32 0 2 0 C1.67 2.97 1.34 5.94 1 9 C-3.68520915 7.78184562 -7.70543612 6.30440013 -12 4 C-12 3.67 -12 3.34 -12 3 C-10.82630859 2.80083984 -10.82630859 2.80083984 -9.62890625 2.59765625 C-8.61699219 2.42105469 -7.60507813 2.24445312 -6.5625 2.0625 C-5.55316406 1.88847656 -4.54382813 1.71445312 -3.50390625 1.53515625 C-1.0712562 1.25248903 -1.0712562 1.25248903 0 0 Z " fill="#191919" transform="translate(92,50)"/>
<path d="M0 0 C1.45254871 2.90509742 0.47142151 4.59301401 -0.375 7.6875 C-1.30570773 11.17975018 -2.15008916 14.52700371 -2.5 18.125 C-2.665 19.07375 -2.83 20.0225 -3 21 C-3.99 21.66 -4.98 22.32 -6 23 C-6.02725341 21.2709226 -6.04650987 19.54171824 -6.0625 17.8125 C-6.07410156 16.84957031 -6.08570312 15.88664062 -6.09765625 14.89453125 C-6.00393905 12.11675356 -5.75532296 9.67450835 -5 7 C-4.34 6.67 -3.68 6.34 -3 6 C-1.95191959 4.02477154 -0.9479589 2.02518491 0 0 Z " fill="#B6B6B6" transform="translate(97,72)"/>
<path d="M0 0 C0.33 0 0.66 0 1 0 C1 2.64 1 5.28 1 8 C-0.65 8.33 -2.3 8.66 -4 9 C-4.33 8.34 -4.66 7.68 -5 7 C-5.99 7.99 -6.98 8.98 -8 10 C-8.36075949 4.58860759 -8.36075949 4.58860759 -6.8125 2.0625 C-5 1 -5 1 -2.3125 1.3125 C-1.549375 1.539375 -0.78625 1.76625 0 2 C0 1.34 0 0.68 0 0 Z " fill="#A8A8A8" transform="translate(83,34)"/>
<path d="M0 0 C0.66 0 1.32 0 2 0 C2 1.010625 2 2.02125 2 3.0625 C2.48918073 6.88276854 4.16352055 8.37878886 7.0625 10.8125 C7.79597656 11.37582031 8.52945313 11.93914062 9.28515625 12.51953125 C9.85105469 13.00808594 10.41695312 13.49664062 11 14 C11 14.66 11 15.32 11 16 C11.66 16.33 12.32 16.66 13 17 C10.3125 17.5 10.3125 17.5 7 17 C5.49553044 15.07322319 4.40190327 13.05958523 3.234375 10.9140625 C1.59463024 8.37142031 -0.09290226 7.66447948 -3 7 C-3 6.34 -3 5.68 -3 5 C-2.01 5 -1.02 5 0 5 C0 3.35 0 1.7 0 0 Z " fill="#5C5C5C" transform="translate(73,83)"/>
<path d="M0 0 C0.33 0.66 0.66 1.32 1 2 C1.66 2 2.32 2 3 2 C4.38938077 3.96147874 5.7260411 5.96166576 7 8 C2.71 8 -1.58 8 -6 8 C-5.195625 7.236875 -4.39125 6.47375 -3.5625 5.6875 C-0.83200976 3.20569102 -0.83200976 3.20569102 0 0 Z " fill="#D4D4D4" transform="translate(65,92)"/>
<path d="M0 0 C0.99 0.66 1.98 1.32 3 2 C-1.57368727 4.40118582 -6.10522486 6.36840829 -11 8 C-11.66 7.67 -12.32 7.34 -13 7 C-12.67 6.34 -12.34 5.68 -12 5 C-13.32 5 -14.64 5 -16 5 C-16.33 3.68 -16.66 2.36 -17 1 C-15.58297487 1.14230808 -14.1663904 1.28900746 -12.75 1.4375 C-11.56664063 1.55931641 -11.56664063 1.55931641 -10.359375 1.68359375 C-8 2 -8 2 -5.84375 2.625 C-3.82818338 3.25752244 -3.82818338 3.25752244 -1.75 1.5625 C-1.1725 1.046875 -0.595 0.53125 0 0 Z " fill="#787776" transform="translate(98,57)"/>
<path d="M0 0 C0.33 0 0.66 0 1 0 C1 1.98 1 3.96 1 6 C1.99 6 2.98 6 4 6 C4 6.99 4 7.98 4 9 C4.66 9 5.32 9 6 9 C6 9.66 6 10.32 6 11 C6.99 11.33 7.98 11.66 9 12 C9 9.69 9 7.38 9 5 C9.33 5 9.66 5 10 5 C10.33 8.3 10.66 11.6 11 15 C8.03 14.67 5.06 14.34 2 14 C2.33 11.69 2.66 9.38 3 7 C2.01 7 1.02 7 0 7 C0 4.69 0 2.38 0 0 Z " fill="#B7B7B7" transform="translate(74,74)"/>
<path d="M0 0 C3.09092239 1.03030746 6.08687073 2.03900319 9.0625 3.375 C10.031875 3.58125 11.00125 3.7875 12 4 C14.8900216 2.25590249 14.8900216 2.25590249 17 0 C17.33 1.32 17.66 2.64 18 4 C15.57676011 6.29446869 14.44930306 6.99523286 11.0546875 7.03125 C10.00539063 6.8559375 8.95609375 6.680625 7.875 6.5 C6.82054688 6.3453125 5.76609375 6.190625 4.6796875 6.03125 C2 5 2 5 0.6328125 2.40625 C0.42398438 1.6121875 0.21515625 0.818125 0 0 Z " fill="#303030" transform="translate(80,54)"/>
<path d="M0 0 C-0.886875 0.680625 -1.77375 1.36125 -2.6875 2.0625 C-6.15517806 4.93993498 -8.54802596 8.25096723 -11 12 C-11.66 12.99 -12.32 13.98 -13 15 C-12.73147898 8.55549559 -10.34253164 4.72264714 -6 0 C-3.50907189 -1.24546405 -2.58919267 -0.7767578 0 0 Z " fill="#4A4948" transform="translate(80,61)"/>
<path d="M0 0 C1.32 0.33 2.64 0.66 4 1 C3.67 1.66 3.34 2.32 3 3 C3.66 3 4.32 3 5 3 C5.33 3.99 5.66 4.98 6 6 C4.68 6.33 3.36 6.66 2 7 C2 7.66 2 8.32 2 9 C-0.31 9.33 -2.62 9.66 -5 10 C-5.66 8.68 -6.32 7.36 -7 6 C-4.36 6.66 -1.72 7.32 1 8 C1 7.34 1 6.68 1 6 C-0.65 5.67 -2.3 5.34 -4 5 C-4 4.67 -4 4.34 -4 4 C-2.35 3.67 -0.7 3.34 1 3 C0.67 2.01 0.34 1.02 0 0 Z " fill="#51504E" transform="translate(84,44)"/>
<path d="M0 0 C5.28497409 0.0880829 5.28497409 0.0880829 8 1 C9.94583442 3.22381076 10.79889012 5.24745652 12 8 C10.35 8.33 8.7 8.66 7 9 C7 8.34 7 7.68 7 7 C6.175 6.34 5.35 5.68 4.5 5 C3.675 4.34 2.85 3.68 2 3 C2 2.34 2 1.68 2 1 C1.34 0.67 0.68 0.34 0 0 Z " fill="#969696" transform="translate(79,24)"/>
<path d="M0 0 C1.65 0.33 3.3 0.66 5 1 C5 1.99 5 2.98 5 4 C3.68 4.33 2.36 4.66 1 5 C2.32 5.33 3.64 5.66 5 6 C5 6.66 5 7.32 5 8 C3.00045254 8.04254356 0.99958364 8.04080783 -1 8 C-2 7 -2 7 -2.0625 4.4375 C-2.041875 3.633125 -2.02125 2.82875 -2 2 C-1.34 2 -0.68 2 0 2 C0 1.34 0 0.68 0 0 Z " fill="#9E9E9E" transform="translate(80,44)"/>
<path d="M0 0 C2.88437779 1.29299694 4.87219421 2.65941363 7 5 C1.25 8 1.25 8 -1 8 C-1.625 5.125 -1.625 5.125 -2 2 C-1.34 1.34 -0.68 0.68 0 0 Z " fill="#757471" transform="translate(56,86)"/>
<path d="M0 0 C5.875 1.875 5.875 1.875 7 3 C7.07179964 4.51928038 7.08392007 6.04167482 7.0625 7.5625 C7.05347656 8.38878906 7.04445312 9.21507813 7.03515625 10.06640625 C7.02355469 10.70449219 7.01195312 11.34257813 7 12 C6.67 12 6.34 12 6 12 C6 9.36 6 6.72 6 4 C5.01 3.67 4.02 3.34 3 3 C3.33 5.31 3.66 7.62 4 10 C3.34 9.67 2.68 9.34 2 9 C2 8.01 2 7.02 2 6 C0.68 6.33 -0.64 6.66 -2 7 C-1.34 4.69 -0.68 2.38 0 0 Z " fill="#5A5341" transform="translate(122,74)"/>
<path d="M0 0 C2.31 0 4.62 0 7 0 C7 0.66 7 1.32 7 2 C7.8971875 2.4021875 7.8971875 2.4021875 8.8125 2.8125 C11.06604393 4.03585242 12.42858036 4.97960332 14 7 C14.6875 9.6875 14.6875 9.6875 15 12 C14.01 12 13.02 12 12 12 C11.67 10.35 11.34 8.7 11 7 C10.34 7 9.68 7 9 7 C9 6.34 9 5.68 9 5 C8.34 5 7.68 5 7 5 C6 4 5 3 4 2 C1.90010348 0.82425289 1.90010348 0.82425289 0 0 Z " fill="#343023" transform="translate(86,16)"/>
<path d="M0 0 C1.67542976 0.28604898 3.34385343 0.61781233 5 1 C4.75 3.375 4.75 3.375 4 6 C1.9375 7.3125 1.9375 7.3125 0 8 C-0.33 7.01 -0.66 6.02 -1 5 C-1.66 5 -2.32 5 -3 5 C-1.125 1.125 -1.125 1.125 0 0 Z " fill="#868686" transform="translate(69,89)"/>
<path d="M0 0 C0.33 0 0.66 0 1 0 C1.34615998 5.65394631 0.43425238 9.03006806 -2 14 C-2.33 14 -2.66 14 -3 14 C-3.33 10.7 -3.66 7.4 -4 4 C-3.34 4 -2.68 4 -2 4 C-1.34 2.68 -0.68 1.36 0 0 Z " fill="#2B2922" transform="translate(100,30)"/>
<path d="M0 0 C-0.33 0.99 -0.66 1.98 -1 3 C-1.66 3 -2.32 3 -3 3 C-3.19335938 3.71027344 -3.38671875 4.42054687 -3.5859375 5.15234375 C-3.84632812 6.07144531 -4.10671875 6.99054687 -4.375 7.9375 C-4.63023438 8.85402344 -4.88546875 9.77054688 -5.1484375 10.71484375 C-6 13 -6 13 -8 14 C-8.29530201 5.1409396 -8.29530201 5.1409396 -6 2 C-3 0 -3 0 0 0 Z " fill="#1F1C13" transform="translate(82,21)"/>
<path d="M0 0 C2 0 2 0 4.625 2.3125 C7 5 7 5 7 8 C3.85262818 7.30058404 0.97411124 6.23921302 -2 5 C-1.125 1.125 -1.125 1.125 0 0 Z " fill="#A3A3A3" transform="translate(79,25)"/>
<path d="M0 0 C2 0 2 0 3.625 1.5 C4.07875 1.995 4.5325 2.49 5 3 C5.33 2.34 5.66 1.68 6 1 C6.84454356 4.37817425 7.10844919 6.67465243 6 10 C4.68 10 3.36 10 2 10 C2.66 8.35 3.32 6.7 4 5 C2.68 4.67 1.36 4.34 0 4 C0 2.68 0 1.36 0 0 Z " fill="#7F7D76" transform="translate(42,60)"/>
<path d="M0 0 C2.05883923 4.11767846 2.96165128 7.54993405 4 12 C2.02 12 0.04 12 -2 12 C-1.34 8.04 -0.68 4.08 0 0 Z " fill="#151515" transform="translate(89,88)"/>
<path d="M0 0 C0.66 1.32 1.32 2.64 2 4 C1.34 4 0.68 4 0 4 C0 5.32 0 6.64 0 8 C0.66 8.33 1.32 8.66 2 9 C0.68 9.33 -0.64 9.66 -2 10 C-2.99 7.69 -3.98 5.38 -5 3 C-4.360625 2.87625 -3.72125 2.7525 -3.0625 2.625 C-2.0415625 2.315625 -2.0415625 2.315625 -1 2 C-0.67 1.34 -0.34 0.68 0 0 Z " fill="#888680" transform="translate(40,64)"/>
<path d="M0 0 C0.33 0 0.66 0 1 0 C0.41386812 6.94103544 -0.81344824 12.74689215 -4 19 C-3.66944259 12.05829437 -3.24571282 6.20918975 0 0 Z " fill="#D8D8D8" transform="translate(98,73)"/>
<path d="M0 0 C1.65 0.99 3.3 1.98 5 3 C4.690625 3.53625 4.38125 4.0725 4.0625 4.625 C2.82172561 7.3984957 2.4090325 10.00042837 2 13 C0.00203045 10.00304568 -0.34510261 8.82142616 -0.6875 5.375 C-0.77386719 4.57835938 -0.86023438 3.78171875 -0.94921875 2.9609375 C-0.96597656 2.31382813 -0.98273438 1.66671875 -1 1 C-0.67 0.67 -0.34 0.34 0 0 Z " fill="#5E5E5E" transform="translate(92,63)"/>
<path d="M0 0 C0.33 0.99 0.66 1.98 1 3 C0.67 3.33 0.34 3.66 0 4 C-0.07179964 5.51928038 -0.08392007 7.04167482 -0.0625 8.5625 C-0.05347656 9.38878906 -0.04445313 10.21507813 -0.03515625 11.06640625 C-0.02355469 11.70449219 -0.01195312 12.34257813 0 13 C-1.9375 12.1875 -1.9375 12.1875 -4 11 C-5 8 -5 8 -4.00390625 5.95703125 C-3.52824219 5.24933594 -3.05257812 4.54164062 -2.5625 3.8125 C-2.08941406 3.09707031 -1.61632813 2.38164063 -1.12890625 1.64453125 C-0.75636719 1.10183594 -0.38382813 0.55914062 0 0 Z " fill="#D1CEC8" transform="translate(62,76)"/>
<path d="M0 0 C0.66 0 1.32 0 2 0 C2 2.64 2 5.28 2 8 C-1.65316671 6.75023244 -2.78065836 6.32901247 -5 3 C-4.360625 2.87625 -3.72125 2.7525 -3.0625 2.625 C-2.0415625 2.315625 -2.0415625 2.315625 -1 2 C-0.67 1.34 -0.34 0.68 0 0 Z " fill="#595959" transform="translate(44,71)"/>
<path d="M0 0 C0.66 0.33 1.32 0.66 2 1 C0.02 4.96 -1.96 8.92 -4 13 C-4.99 13 -5.98 13 -7 13 C-5.41393504 8.63832137 -3.3254914 3.3254914 0 0 Z " fill="#D8D3C6" transform="translate(70,63)"/>
<path d="M0 0 C0.66 0.66 1.32 1.32 2 2 C1.67 2.33 1.34 2.66 1 3 C0.60333773 5.18019479 0.25684763 7.3696463 -0.0625 9.5625 C-0.32740234 11.35880859 -0.32740234 11.35880859 -0.59765625 13.19140625 C-0.73042969 14.11824219 -0.86320313 15.04507813 -1 16 C-1.66 16 -2.32 16 -3 16 C-2.57910004 10.39538469 -2.08386889 5.27913453 0 0 Z " fill="#918E87" transform="translate(129,84)"/>
<path d="M0 0 C3.14624993 -0.26218749 4.61837017 -0.24754367 7.3125 1.5 C8.1478125 2.2425 8.1478125 2.2425 9 3 C8.34 4.32 7.68 5.64 7 7 C6.67 6.34 6.34 5.68 6 5 C4.02 5 2.04 5 0 5 C0 4.34 0 3.68 0 3 C0.66 2.67 1.32 2.34 2 2 C1.34 1.34 0.68 0.68 0 0 Z " fill="#626262" transform="translate(77,31)"/>
<path d="M0 0 C0.66 0 1.32 0 2 0 C2 0.99 2 1.98 2 3 C2.99 2.67 3.98 2.34 5 2 C5.66 3.98 6.32 5.96 7 8 C6.01 8.495 6.01 8.495 5 9 C5 8.34 5 7.68 5 7 C4.34 7 3.68 7 3 7 C3 6.01 3 5.02 3 4 C2.34 4 1.68 4 1 4 C0.67 4.66 0.34 5.32 0 6 C-1.125 2.25 -1.125 2.25 0 0 Z " fill="#949494" transform="translate(113,74)"/>
<path d="M0 0 C0.66 0 1.32 0 2 0 C2 2.64 2 5.28 2 8 C0.68 7.67 -0.64 7.34 -2 7 C-1.67 6.34 -1.34 5.68 -1 5 C-1.66 4.67 -2.32 4.34 -3 4 C-1.625 2 -1.625 2 0 0 Z " fill="#DEDEDE" transform="translate(81,78)"/>
<path d="M0 0 C0.99 0.33 1.98 0.66 3 1 C2.67 3.31 2.34 5.62 2 8 C0.68 7.67 -0.64 7.34 -2 7 C-1.125 2.25 -1.125 2.25 0 0 Z " fill="#CDCDCD" transform="translate(70,70)"/>
<path d="M0 0 C2.08466413 3.38757921 2.42905061 6.05273438 2 10 C1.01 10.66 0.02 11.32 -1 12 C-1.02687279 10.18757948 -1.04633715 8.37504767 -1.0625 6.5625 C-1.07410156 5.55316406 -1.08570312 4.54382813 -1.09765625 3.50390625 C-1 1 -1 1 0 0 Z " fill="#BEBEBE" transform="translate(92,83)"/>
<path d="M0 0 C0.66 0.33 1.32 0.66 2 1 C2.625 3.5625 2.625 3.5625 3 6 C2.34 6 1.68 6 1 6 C1 5.01 1 4.02 1 3 C0.34 3 -0.32 3 -1 3 C-1.33 3.66 -1.66 4.32 -2 5 C-2.99 5.495 -2.99 5.495 -4 6 C-4.33 4.35 -4.66 2.7 -5 1 C-2.525 1.495 -2.525 1.495 0 2 C0 1.34 0 0.68 0 0 Z " fill="#A9A9A9" transform="translate(114,71)"/>
<path d="M0 0 C0.66 0.66 1.32 1.32 2 2 C1.625 5.125 1.625 5.125 1 8 C0.01 8 -0.98 8 -2 8 C-2 5.69 -2 3.38 -2 1 C-1.34 0.67 -0.68 0.34 0 0 Z " fill="#BFBDB7" transform="translate(120,71)"/>
<path d="M0 0 C1.98 0 3.96 0 6 0 C4.68 2.31 3.36 4.62 2 7 C1.01 7 0.02 7 -1 7 C-1 6.01 -1 5.02 -1 4 C-0.34 4 0.32 4 1 4 C0.67 2.68 0.34 1.36 0 0 Z " fill="#3A3A3A" transform="translate(41,64)"/>
<path d="M0 0 C0.66 0 1.32 0 2 0 C1.67 2.97 1.34 5.94 1 9 C-2.79303725 7.99806563 -5.71536341 7.18975773 -9 5 C-5.87709365 5.48578543 -3.00419641 5.9986012 0 7 C-0.185625 6.030625 -0.37125 5.06125 -0.5625 4.0625 C-0.706875 3.051875 -0.85125 2.04125 -1 1 C-0.67 0.67 -0.34 0.34 0 0 Z " fill="#292929" transform="translate(92,50)"/>
<path d="M0 0 C1.32 0 2.64 0 4 0 C4.33 1.98 4.66 3.96 5 6 C3.35 6 1.7 6 0 6 C0 4.02 0 2.04 0 0 Z " fill="#121212" transform="translate(120,94)"/>
<path d="M0 0 C0.66 0 1.32 0 2 0 C2.33 2.97 2.66 5.94 3 9 C2.01 9.33 1.02 9.66 0 10 C0 6.7 0 3.4 0 0 Z " fill="#404040" transform="translate(84,77)"/>
<path d="M0 0 C0.66 0.33 1.32 0.66 2 1 C2.36923077 6.53846154 2.36923077 6.53846154 0.5 8.875 C-0.2425 9.431875 -0.2425 9.431875 -1 10 C-1.9765625 3.9453125 -1.9765625 3.9453125 -2 2 C-1.34 1.34 -0.68 0.68 0 0 Z " fill="#424242" transform="translate(90,77)"/>
<path d="M0 0 C1.65 0 3.3 0 5 0 C5 2.62113708 4.68707555 4.50935112 4 7 C2.68 7 1.36 7 0 7 C0 6.34 0 5.68 0 5 C0.66 5 1.32 5 2 5 C2 4.01 2 3.02 2 2 C1.34 1.34 0.68 0.68 0 0 Z " fill="#1F1F1F" transform="translate(85,17)"/>
<path d="M0 0 C0.99 0 1.98 0 3 0 C2.67 3.3 2.34 6.6 2 10 C1.67 10 1.34 10 1 10 C0.63883954 8.5225254 0.28624952 7.04295325 -0.0625 5.5625 C-0.25972656 4.73878906 -0.45695312 3.91507812 -0.66015625 3.06640625 C-0.82837891 2.04353516 -0.82837891 2.04353516 -1 1 C-0.67 0.67 -0.34 0.34 0 0 Z " fill="#333333" transform="translate(86,88)"/>
<path d="M0 0 C1.32 0 2.64 0 4 0 C4.33 2.31 4.66 4.62 5 7 C3.29115995 5.37660195 1.62553283 3.70680947 0 2 C0 1.34 0 0.68 0 0 Z " fill="#1E1E1E" transform="translate(107,64)"/>
<path d="M0 0 C1.98 0.495 1.98 0.495 4 1 C3.67 2.32 3.34 3.64 3 5 C1.68 5 0.36 5 -1 5 C-0.67 3.35 -0.34 1.7 0 0 Z " fill="#ADAAA2" transform="translate(36,62)"/>
<path d="M0 0 C0.33 0.99 0.66 1.98 1 3 C1.99 3 2.98 3 4 3 C3.67 4.32 3.34 5.64 3 7 C1.68 6.34 0.36 5.68 -1 5 C-0.67 3.35 -0.34 1.7 0 0 Z " fill="#9E9E9E" transform="translate(88,36)"/>
<path d="M0 0 C0.66 0.99 1.32 1.98 2 3 C1.34 3 0.68 3 0 3 C0 3.99 0 4.98 0 6 C-1.32 6 -2.64 6 -4 6 C-4.33 4.68 -4.66 3.36 -5 2 C-3.35 2 -1.7 2 0 2 C0 1.34 0 0.68 0 0 Z " fill="#474747" transform="translate(94,32)"/>
<path d="M0 0 C0.66 0.33 1.32 0.66 2 1 C3.32860925 1.35169068 4.66158328 1.68770276 6 2 C6 2.66 6 3.32 6 4 C3.69 4.33 1.38 4.66 -1 5 C-0.67 3.35 -0.34 1.7 0 0 Z " fill="#565656" transform="translate(78,40)"/>
<path d="M0 0 C0.99 0.33 1.98 0.66 3 1 C3 3.31 3 5.62 3 8 C1 7 1 7 -0.125 3.9375 C-0.41375 2.968125 -0.7025 1.99875 -1 1 C-0.67 0.67 -0.34 0.34 0 0 Z " fill="#C4C0B6" transform="translate(111,62)"/>
<path d="M0 0 C0.99 0.33 1.98 0.66 3 1 C3.6875 3.0625 3.6875 3.0625 4 5 C3.01 5.33 2.02 5.66 1 6 C1 5.34 1 4.68 1 4 C0.01 3.67 -0.98 3.34 -2 3 C-2 2.34 -2 1.68 -2 1 C-1.34 0.67 -0.68 0.34 0 0 Z " fill="#202020" transform="translate(86,41)"/>
<path d="M0 0 C2.64 0.33 5.28 0.66 8 1 C8.33 1.99 8.66 2.98 9 4 C6.69 3.67 4.38 3.34 2 3 C2 2.34 2 1.68 2 1 C1.34 0.67 0.68 0.34 0 0 Z " fill="#787878" transform="translate(79,24)"/>
<path d="M0 0 C0 1.65 0 3.3 0 5 C-1.98 5 -3.96 5 -6 5 C-1.125 0 -1.125 0 0 0 Z " fill="#EFB516" transform="translate(65,95)"/>
<path d="M0 0 C0.66 0 1.32 0 2 0 C2.80967438 2.91482778 3.21845993 4.46113217 2.0625 7.3125 C1.5365625 8.1478125 1.5365625 8.1478125 1 9 C-0.4783226 6.04335481 -0.06032783 3.25770263 0 0 Z " fill="#5F5E5C" transform="translate(46,80)"/>
<path d="M0 0 C2.9375 0.8125 2.9375 0.8125 6 2 C6.33 2.99 6.66 3.98 7 5 C5.35 5 3.7 5 2 5 C1.34 3.35 0.68 1.7 0 0 Z " fill="#515151" transform="translate(80,54)"/>
<path d="M0 0 C1.9375 0.6875 1.9375 0.6875 4 2 C4.75 4.625 4.75 4.625 5 7 C4.01 7 3.02 7 2 7 C1.34 4.69 0.68 2.38 0 0 Z " fill="#464132" transform="translate(96,21)"/>
<path d="M0 0 C0.99 0 1.98 0 3 0 C3.66 2.31 4.32 4.62 5 7 C4.34 6.67 3.68 6.34 3 6 C3 5.01 3 4.02 3 3 C1.68 3.33 0.36 3.66 -1 4 C-0.67 2.68 -0.34 1.36 0 0 Z " fill="#3C3C3C" transform="translate(121,77)"/>
<path d="M0 0 C1.98 0 3.96 0 6 0 C4.35830472 2.02054804 2.69088222 4.02043058 1 6 C0.67 6 0.34 6 0 6 C0 4.02 0 2.04 0 0 Z " fill="#C1C1C1" transform="translate(75,38)"/>
<path d="M0 0 C2.97 1.98 2.97 1.98 6 4 C5.67 4.66 5.34 5.32 5 6 C3.68 5.67 2.36 5.34 1 5 C0.67 3.35 0.34 1.7 0 0 Z " fill="#B7B7B6" transform="translate(81,27)"/>
</svg>
