<?xml version="1.0" encoding="UTF-8"?>
<svg version="1.1" xmlns="http://www.w3.org/2000/svg" width="160" height="100">
<path d="M0 0 C52.8 0 105.6 0 160 0 C160 33 160 66 160 100 C107.2 100 54.4 100 0 100 C0 67 0 34 0 0 Z " fill="#FEB900" transform="translate(0,0)"/>
<path d="M0 0 C2.03219488 3.40351338 2.36891039 6.3232927 2.625 10.25 C2.73714844 11.86648437 2.73714844 11.86648437 2.8515625 13.515625 C2.90054688 14.33546875 2.94953125 15.1553125 3 16 C2.34 16 1.68 16 1 16 C0.6568889 19.08799987 0.74434842 20.59984971 2.4375 23.25 C6.01041992 25.69004287 9.68970235 26.24963114 14 26 C14.66 25.34 15.32 24.68 16 24 C15.70280706 21.77105292 15.1068008 20.18273901 13.97265625 18.2421875 C12.73570564 15.39074312 12.69912887 13.10103136 12.6875 10 C12.67074219 8.96875 12.65398437 7.9375 12.63671875 6.875 C13.04892564 3.61280354 13.61144759 2.24555703 16 0 C18.15625 -0.53125 18.15625 -0.53125 20.5 -0.5 C21.2734375 -0.5103125 22.046875 -0.520625 22.84375 -0.53125 C25 0 25 0 26.73046875 1.6953125 C29.57225303 6.85424396 29.48215968 13.10350526 28.0625 18.6875 C27.711875 19.450625 27.36125 20.21375 27 21 C28.01157259 22.60506456 28.01157259 22.60506456 30 24 C31.2375 24.0825 32.475 24.165 33.75 24.25 C38.39549725 24.66065169 40.50183036 26.77810904 43.52734375 30.17578125 C47.01993353 34.50214578 48.13816759 37.28702935 48.61328125 42.8828125 C49.05662456 45.31000516 49.93428139 47.03364041 51.125 49.1875 C52.49481326 51.74649181 52.99653296 52.84398319 53.0625 55.8125 C52 58 52 58 47 61 C47.66 65.29 48.32 69.58 49 74 C3.46 74 -42.08 74 -89 74 C-88.01 69.05 -87.02 64.1 -86 59 C-86.33 58.67 -86.66 58.34 -87 58 C-87.41270147 53.66663455 -86.6455865 50.82317175 -84.78125 46.921875 C-83.90542997 44.76735772 -83.52437253 42.72621179 -83.125 40.4375 C-82.13493269 35.67381549 -80.52551023 33.36525976 -77 30 C-75.99710938 29.60296875 -74.99421875 29.2059375 -73.9609375 28.796875 C-70.68956662 27.22282112 -70.68956662 27.22282112 -69.6796875 23.6015625 C-69.38659302 22.28131707 -69.118956 20.95520218 -68.875 19.625 C-67.87036592 14.53220152 -66.77237224 10.77237224 -63 7 C-59.5625 5.8125 -59.5625 5.8125 -56 6 C-49.87453067 11.85914458 -49.76953119 17.32117168 -49.48242188 25.28320312 C-49.4192722 29.60387212 -49.4192722 29.60387212 -47 33 C-44.89179203 32.6814823 -44.89179203 32.6814823 -43 32 C-42.96261719 31.05898438 -42.92523438 30.11796875 -42.88671875 29.1484375 C-42.82097656 27.90320313 -42.75523438 26.65796875 -42.6875 25.375 C-42.60048828 23.53035156 -42.60048828 23.53035156 -42.51171875 21.6484375 C-41.97209713 17.80105894 -41.03328667 15.29382782 -39 12 C-36 10 -36 10 -32.5 10.125 C-29 11 -29 11 -27.1875 12.625 C-23.78897326 19.42205348 -23.75639275 25.51584393 -24 33 C-23.01 33 -22.02 33 -21 33 C-20.9071875 32.1646875 -20.9071875 32.1646875 -20.8125 31.3125 C-19.62311214 27.92731917 -17.75140329 26.25114815 -15 24 C-12.1875 23.6875 -12.1875 23.6875 -10 24 C-10.51627613 19.90716864 -10.51627613 19.90716864 -12.01953125 16.11328125 C-13.19142451 13.58740773 -13.29994237 11.71273676 -13.3125 8.9375 C-13.32925781 8.08027344 -13.34601563 7.22304688 -13.36328125 6.33984375 C-12.92594102 3.52299648 -12.25294308 2.69366447 -10 1 C-6.52674819 -0.1577506 -3.63932552 -0.06866652 0 0 Z " fill="#B8B7B7" transform="translate(99,26)"/>
<path d="M0 0 C0.7734375 -0.0103125 1.546875 -0.020625 2.34375 -0.03125 C4.5 0.5 4.5 0.5 6.23046875 2.1953125 C9.07225303 7.35424396 8.98215968 13.60350526 7.5625 19.1875 C7.211875 19.950625 6.86125 20.71375 6.5 21.5 C7.51157259 23.10506456 7.51157259 23.10506456 9.5 24.5 C10.7375 24.5825 11.975 24.665 13.25 24.75 C17.89549725 25.16065169 20.00183036 27.27810904 23.02734375 30.67578125 C26.51993353 35.00214578 27.63816759 37.78702935 28.11328125 43.3828125 C28.55662456 45.81000516 29.43428139 47.53364041 30.625 49.6875 C31.99481326 52.24649181 32.49653296 53.34398319 32.5625 56.3125 C31.5 58.5 31.5 58.5 26.5 61.5 C27.16 65.79 27.82 70.08 28.5 74.5 C17.28 74.5 6.06 74.5 -5.5 74.5 C-5.17 72.19 -4.84 69.88 -4.5 67.5 C-4.41464045 65.556057 -4.36948946 63.60987732 -4.3671875 61.6640625 C-4.36589844 60.59929687 -4.36460938 59.53453125 -4.36328125 58.4375 C-4.36714844 57.344375 -4.37101562 56.25125 -4.375 55.125 C-4.37113281 54.03960937 -4.36726563 52.95421875 -4.36328125 51.8359375 C-3.97499616 40.25218058 -3.97499616 40.25218058 -7.5 29.5 C-8.16 29.17 -8.82 28.84 -9.5 28.5 C-9.48839844 29.2528125 -9.47679688 30.005625 -9.46484375 30.78125 C-9.38881764 39.73060948 -9.85877971 48.58016778 -10.5 57.5 C-12.85565992 55.14434008 -12.89741777 54.21820298 -13.3515625 50.9921875 C-13.48046875 50.08726563 -13.609375 49.18234375 -13.7421875 48.25 C-13.86851563 47.30125 -13.99484375 46.3525 -14.125 45.375 C-14.2590625 44.44945312 -14.393125 43.52390625 -14.53125 42.5703125 C-15.28034585 37.15847714 -15.64136579 31.96186022 -15.5 26.5 C-14.56027344 26.53480469 -14.56027344 26.53480469 -13.6015625 26.5703125 C-12.37566406 26.59738281 -12.37566406 26.59738281 -11.125 26.625 C-10.31289062 26.64820312 -9.50078125 26.67140625 -8.6640625 26.6953125 C-6.28657757 26.71370051 -6.28657757 26.71370051 -4.5 24.5 C-4.79719294 22.27105292 -5.3931992 20.68273901 -6.52734375 18.7421875 C-7.76429436 15.89074312 -7.80087113 13.60103136 -7.8125 10.5 C-7.82925781 9.46875 -7.84601563 8.4375 -7.86328125 7.375 C-7.21238871 2.22385046 -5.24941567 -0.06999221 0 0 Z " fill="#31302E" transform="translate(119.5,25.5)"/>
<path d="M0 0 C4.82062993 4.9301897 6.11877667 8.12535656 6.08789062 14.95117188 C6.07532227 16.0581543 6.07532227 16.0581543 6.0625 17.1875 C6.05798828 17.93708984 6.05347656 18.68667969 6.04882812 19.45898438 C6.03706354 21.30602383 6.01912865 23.15302213 6 25 C3.36 25 0.72 25 -2 25 C-2.28875 24.360625 -2.5775 23.72125 -2.875 23.0625 C-3.82823451 20.84793921 -3.82823451 20.84793921 -6 20 C-5.98839844 20.99902344 -5.97679688 21.99804688 -5.96484375 23.02734375 C-5.95582031 24.31769531 -5.94679688 25.60804687 -5.9375 26.9375 C-5.92589844 28.22527344 -5.91429688 29.51304688 -5.90234375 30.83984375 C-6 34 -6 34 -7 35 C-7.36760731 37.32817964 -7.70241581 39.6618385 -8 42 C-6.515 42.495 -6.515 42.495 -5 43 C-4.234375 44.70703125 -4.234375 44.70703125 -3.75 46.8125 C-3.57984375 47.49957031 -3.4096875 48.18664062 -3.234375 48.89453125 C-2.97829334 51.19499821 -3.30984633 52.80629727 -4 55 C-1.6568787 54.74438677 0.67843403 54.40729228 3 54 C3.495 53.01 3.495 53.01 4 52 C1.03 52.495 1.03 52.495 -2 53 C-0.824375 51.7315625 -0.824375 51.7315625 0.375 50.4375 C3.16931023 47.12074083 4.07512901 44.20395906 5 40 C5.33 40 5.66 40 6 40 C6.07006227 43.01267767 6.05642672 45.73040567 5.4375 48.6875 C4.77798502 51.1457356 4.77798502 51.1457356 6 54 C6.886875 54.103125 7.77375 54.20625 8.6875 54.3125 C12 55 12 55 14.3125 56.5 C18.91625273 59.06953641 23.89747716 59.30036041 29.0625 58.5625 C29.701875 58.376875 30.34125 58.19125 31 58 C31 61.3 31 64.6 31 68 C9.88 68 -11.24 68 -33 68 C-32.01 63.05 -31.02 58.1 -30 53 C-30.33 52.67 -30.66 52.34 -31 52 C-31.41270147 47.66663455 -30.6455865 44.82317175 -28.78125 40.921875 C-27.90542997 38.76735772 -27.52437253 36.72621179 -27.125 34.4375 C-26.13493269 29.67381549 -24.52551023 27.36525976 -21 24 C-19.99710938 23.60296875 -18.99421875 23.2059375 -17.9609375 22.796875 C-14.68956662 21.22282112 -14.68956662 21.22282112 -13.6796875 17.6015625 C-13.38659302 16.28131707 -13.118956 14.95520218 -12.875 13.625 C-11.86670688 8.51365268 -10.70303612 4.84712313 -7 1 C-4.32590305 -0.33704848 -2.97186266 -0.4837916 0 0 Z " fill="#8C8C8C" transform="translate(43,32)"/>
<path d="M0 0 C2.64 0 5.28 0 8 0 C8 0.99 8 1.98 8 3 C7.01 3.495 7.01 3.495 6 4 C6 5.98 6 7.96 6 10 C6 8.66666667 6 7.33333333 6 6 C7.32 6 8.64 6 10 6 C10.37254569 9.35291118 10.31050198 10.6038423 8.1875 13.3125 C6 15 6 15 3 15 C3 15.66 3 16.32 3 17 C3.66 17 4.32 17 5 17 C5 17.66 5 18.32 5 19 C6.32 19.33 7.64 19.66 9 20 C9 22 9 22 7.5 23.625 C7.005 24.07875 6.51 24.5325 6 25 C8.31 25 10.62 25 13 25 C13 26.65 13 28.3 13 30 C14.32 30.66 15.64 31.32 17 32 C17 32.66 17 33.32 17 34 C17.7425 34.391875 18.485 34.78375 19.25 35.1875 C23.00576727 37.66289207 24.10996464 39.9291546 26 44 C25 47 25 47 22 49 C20.00827818 49.69100553 18.00838196 50.35902703 16 51 C15.01 51.495 15.01 51.495 14 52 C14 52.99 14 53.98 14 55 C11.36 55.33 8.72 55.66 6 56 C3.79953886 52.69930828 3.61436525 51.1133343 3.25390625 47.23046875 C3.13853516 46.09416016 3.02316406 44.95785156 2.90429688 43.78710938 C2.67756984 41.39934982 2.45358328 39.01132836 2.23242188 36.62304688 C1.62611691 30.69733699 1.00522302 26.14807769 -2 21 C-1.125 18.875 -1.125 18.875 0 17 C-0.28913094 14.68695246 -0.91449872 13.15088461 -2.0625 11.125 C-3.28980643 8.34310544 -3.13660754 6.00536594 -3 3 C-2.34 3 -1.68 3 -1 3 C-0.67 2.01 -0.34 1.02 0 0 Z " fill="#60605F" transform="translate(115,33)"/>
<path d="M0 0 C3.5 0.875 3.5 0.875 5.3125 2.5 C8.71102674 9.29705348 8.74360725 15.39084393 8.5 22.875 C9.82 22.875 11.14 22.875 12.5 22.875 C12.07446809 43.59840426 12.07446809 43.59840426 7.5 51.875 C6.28085326 48.12305228 6.47066683 44.6043844 6.5625 40.6875 C6.64859072 34.78095934 6.09826025 29.56880215 4.5 23.875 C3.736875 23.75125 2.97375 23.6275 2.1875 23.5 C-0.5 22.875 -0.5 22.875 -3.5 20.875 C-3.62117188 21.79023437 -3.74234375 22.70546875 -3.8671875 23.6484375 C-4.03476562 24.83695313 -4.20234375 26.02546875 -4.375 27.25 C-4.53742187 28.43335937 -4.69984375 29.61671875 -4.8671875 30.8359375 C-5.5 33.875 -5.5 33.875 -7.5 35.875 C-7.85179197 38.2056218 -8.18330179 40.53935067 -8.5 42.875 C-9.5625 45.8125 -9.5625 45.8125 -10.5 47.875 C-11.16 47.875 -11.82 47.875 -12.5 47.875 C-12.86452514 45.00097533 -13.21689691 42.12630957 -13.5625 39.25 C-13.66626953 38.44175781 -13.77003906 37.63351563 -13.87695312 36.80078125 C-14.40590859 32.31377968 -14.79532253 28.28316567 -13.5 23.875 C-12.51 23.215 -11.52 22.555 -10.5 21.875 C-10.0251197 18.72829792 -10.0251197 18.72829792 -10 15.125 C-9.8665093 9.89661416 -9.28005586 6.35980709 -6.5 1.875 C-3.5 -0.125 -3.5 -0.125 0 0 Z " fill="#474233" transform="translate(66.5,36.125)"/>
<path d="M0 0 C4.82062993 4.9301897 6.11877667 8.12535656 6.08789062 14.95117188 C6.07951172 15.68916016 6.07113281 16.42714844 6.0625 17.1875 C6.05798828 17.93708984 6.05347656 18.68667969 6.04882812 19.45898438 C6.03706354 21.30602383 6.01912865 23.15302213 6 25 C3.36 25 0.72 25 -2 25 C-2.28875 24.360625 -2.5775 23.72125 -2.875 23.0625 C-3.82823451 20.84793921 -3.82823451 20.84793921 -6 20 C-5.96519531 20.66386719 -5.93039063 21.32773437 -5.89453125 22.01171875 C-5.61495063 31.13137215 -5.61495063 31.13137215 -9 35 C-10.33333333 35.66666667 -11.66666667 36.33333333 -13 37 C-13.515625 37.86625 -14.03125 38.7325 -14.5625 39.625 C-15.036875 40.40875 -15.51125 41.1925 -16 42 C-16.99 42 -17.98 42 -19 42 C-19.86567601 37.63857887 -20.08342998 33.6871174 -19.8125 29.25 C-19.75707031 28.12078125 -19.70164062 26.9915625 -19.64453125 25.828125 C-19.43183594 24.89484375 -19.21914063 23.9615625 -19 23 C-18.36449219 22.69191406 -17.72898437 22.38382813 -17.07421875 22.06640625 C-14.6085093 21.1021857 -14.6085093 21.1021857 -13.875 17.69921875 C-13.56714285 16.36561344 -13.27603395 15.02805377 -13 13.6875 C-11.93034744 8.58188986 -10.6986852 4.85038909 -7 1 C-4.32590305 -0.33704848 -2.97186266 -0.4837916 0 0 Z " fill="#2C2C2B" transform="translate(43,32)"/>
<path d="M0 0 C3 1 3 1 4.14916992 2.81494141 C6.99531078 10.1242558 6.18292412 18.91922302 6.1875 26.625 C6.19974609 27.718125 6.21199219 28.81125 6.22460938 29.9375 C6.23505843 35.69144488 5.96637795 40.5749731 4 46 C1.69 46 -0.62 46 -3 46 C-3 42.7 -3 39.4 -3 36 C-3.721875 36.144375 -4.44375 36.28875 -5.1875 36.4375 C-6.115625 36.623125 -7.04375 36.80875 -8 37 C-9.175625 37.2784375 -9.175625 37.2784375 -10.375 37.5625 C-17.15256578 38.6920943 -21.80174097 37.60979327 -28 35 C-27.4140625 28.84765625 -27.4140625 28.84765625 -27 27 C-26.34 26.67 -25.68 26.34 -25 26 C-24.34 27.98 -23.68 29.96 -23 32 C-21.68 32 -20.36 32 -19 32 C-17.65835921 32.2981424 -16.32148827 32.62243192 -15 33 C-15 32.34 -15 31.68 -15 31 C-15.66 31 -16.32 31 -17 31 C-17.33 29.68 -17.66 28.36 -18 27 C-15.66666667 27 -13.33333333 27 -11 27 C-10.34 26.01 -9.68 25.02 -9 24 C-6.875 22.8125 -6.875 22.8125 -5 22 C-5.33 22 -5.66 22 -6 22 C-7.32 22 -8.64 22 -10 22 C-9.79503906 21.43152344 -9.59007813 20.86304687 -9.37890625 20.27734375 C-7.70907331 15.4915546 -6.53623064 11.04056799 -6 6 C-5.67 6 -5.34 6 -5 6 C-3.515 16.395 -3.515 16.395 -2 27 C-1.34 18.09 -0.68 9.18 0 0 Z " fill="#AFAFAF" transform="translate(110,54)"/>
<path d="M0 0 C0.33 0 0.66 0 1 0 C1.07006227 3.01267767 1.05642672 5.73040567 0.4375 8.6875 C-0.22201498 11.1457356 -0.22201498 11.1457356 1 14 C2.3303125 14.1546875 2.3303125 14.1546875 3.6875 14.3125 C7 15 7 15 9.3125 16.5 C13.91625273 19.06953641 18.89747716 19.30036041 24.0625 18.5625 C24.701875 18.376875 25.34125 18.19125 26 18 C26 21.3 26 24.6 26 28 C12.8 28 -0.4 28 -14 28 C-14 25.36 -14 22.72 -14 20 C-12.68 20 -11.36 20 -10 20 C-10.66 18.68 -11.32 17.36 -12 16 C-11.28972656 15.87882812 -10.57945313 15.75765625 -9.84765625 15.6328125 C-8.92855469 15.46523437 -8.00945313 15.29765625 -7.0625 15.125 C-5.68771484 14.88136719 -5.68771484 14.88136719 -4.28515625 14.6328125 C-3.53105469 14.42398438 -2.77695312 14.21515625 -2 14 C-1.67 13.34 -1.34 12.68 -1 12 C-2.98 12.33 -4.96 12.66 -7 13 C-6.21625 12.154375 -5.4325 11.30875 -4.625 10.4375 C-1.83068977 7.12074083 -0.92487099 4.20395906 0 0 Z " fill="#444444" transform="translate(48,72)"/>
<path d="M0 0 C1.32 0.33 2.64 0.66 4 1 C3.67 2.11246094 3.34 3.22492187 3 4.37109375 C1.76487938 9.31048899 1.84745734 14.00189732 2 19.0625 C2.18399595 25.19416505 1.94353767 30.16179506 0 36 C0 36.66 0 37.32 0 38 C9.15209283 41.18333664 17.05758661 40.62880543 26 37 C26 37.66 26 38.32 26 39 C25.34 39 24.68 39 24 39 C24.185625 39.9075 24.37125 40.815 24.5625 41.75 C25 45 25 45 24 49 C14.1 49 4.2 49 -6 49 C-5.525625 46.23625 -5.05125 43.4725 -4.5625 40.625 C-2.99882019 30.93167127 -2.54548705 21.30557286 -2.37915039 11.49658203 C-2.3558667 10.4342334 -2.33258301 9.37188477 -2.30859375 8.27734375 C-2.29626709 7.33109131 -2.28394043 6.38483887 -2.27124023 5.40991211 C-2 3 -2 3 0 0 Z " fill="#333333" transform="translate(83,51)"/>
<path d="M0 0 C-1.65 7.59 -3.3 15.18 -5 23 C-11.6 23 -18.2 23 -25 23 C-23.5 15.625 -23.5 15.625 -23.02539062 13.30712891 C-22.26544669 9.68234878 -22.26544669 9.68234878 -22 6 C-18.25 4.875 -18.25 4.875 -16 6 C-16 5.34 -16 4.68 -16 4 C-15.34 4 -14.68 4 -14 4 C-13.67 3.01 -13.34 2.02 -13 1 C-8.54459632 0.39587747 -4.52021205 0 0 0 Z " fill="#555555" transform="translate(35,77)"/>
<path d="M0 0 C2.15625 0.53125 2.15625 0.53125 3.88671875 2.2265625 C6.72850303 7.38549396 6.63840968 13.63475526 5.21875 19.21875 C4.868125 19.981875 4.5175 20.745 4.15625 21.53125 C5.56508499 23.5564503 6.66013059 24.44158987 9.1015625 24.8828125 C9.82085937 24.95242187 10.54015625 25.02203125 11.28125 25.09375 C12.56 25.238125 13.83875 25.3825 15.15625 25.53125 C15.48625 26.19125 15.81625 26.85125 16.15625 27.53125 C15.16625 27.86125 14.17625 28.19125 13.15625 28.53125 C13.6097679 35.56077752 15.27684087 41.1161943 18.15625 47.53125 C15.15625 46.53125 15.15625 46.53125 13.15625 43.53125 C10.59342258 42.80159634 10.59342258 42.80159634 8.15625 42.53125 C9.14625 42.03625 9.14625 42.03625 10.15625 41.53125 C9.49625 40.974375 8.83625 40.4175 8.15625 39.84375 C6.15625 37.53125 6.15625 37.53125 5.90625 34.78125 C5.98875 34.03875 6.07125 33.29625 6.15625 32.53125 C1.70125 33.02625 1.70125 33.02625 -2.84375 33.53125 C-1.46875 31.53125 -1.46875 31.53125 0.15625 29.53125 C0.81625 29.53125 1.47625 29.53125 2.15625 29.53125 C2.15625 28.87125 2.15625 28.21125 2.15625 27.53125 C0.83625 27.20125 -0.48375 26.87125 -1.84375 26.53125 C-1.84375 25.87125 -1.84375 25.21125 -1.84375 24.53125 C-2.50375 24.53125 -3.16375 24.53125 -3.84375 24.53125 C-3.84375 23.87125 -3.84375 23.21125 -3.84375 22.53125 C-2.19375 22.20125 -0.54375 21.87125 1.15625 21.53125 C1.81625 18.89125 2.47625 16.25125 3.15625 13.53125 C1.83625 13.53125 0.51625 13.53125 -0.84375 13.53125 C-0.18375 15.18125 0.47625 16.83125 1.15625 18.53125 C0.16625 18.20125 -0.82375 17.87125 -1.84375 17.53125 C-1.84375 15.55125 -1.84375 13.57125 -1.84375 11.53125 C-0.85375 11.20125 0.13625 10.87125 1.15625 10.53125 C1.15625 9.54125 1.15625 8.55125 1.15625 7.53125 C-0.143125 7.655 -1.4425 7.77875 -2.78125 7.90625 C-3.51214844 7.97585937 -4.24304688 8.04546875 -4.99609375 8.1171875 C-5.60582031 8.25382812 -6.21554688 8.39046875 -6.84375 8.53125 C-7.17375 9.19125 -7.50375 9.85125 -7.84375 10.53125 C-8.50375 10.53125 -9.16375 10.53125 -9.84375 10.53125 C-10.05606713 7.41726543 -10.05965497 5.07820926 -8.90625 2.15625 C-6.00390176 -0.13044861 -3.60862608 0.04811501 0 0 Z " fill="#414141" transform="translate(121.84375,25.46875)"/>
<path d="M0 0 C2.03219488 3.40351338 2.36891039 6.3232927 2.625 10.25 C2.69976562 11.32765625 2.77453125 12.4053125 2.8515625 13.515625 C2.92503906 14.74539062 2.92503906 14.74539062 3 16 C2.34 16 1.68 16 1 16 C1.12375 17.5778125 1.12375 17.5778125 1.25 19.1875 C1 23 1 23 -0.5 25.875 C-3.99787404 28.84819293 -6.46360202 28.7731801 -11 29 C-10.89300781 28.41992188 -10.78601563 27.83984375 -10.67578125 27.2421875 C-9.80967955 21.59855706 -10.38072371 19.13378152 -13 14 C-14.06931257 5.391357 -14.06931257 5.391357 -11.6640625 2.26171875 C-8.02551617 -0.49708515 -4.37561141 -0.08255871 0 0 Z " fill="#585756" transform="translate(99,26)"/>
<path d="M0 0 C2.5 1.3125 2.5 1.3125 5 3 C5 3.99 5 4.98 5 6 C6.65 6 8.3 6 10 6 C7.82575883 8.50037734 6.26954202 9.43628586 3 10 C3.99 10 4.98 10 6 10 C8.33333333 10 10.66666667 10 13 10 C12.79822665 12.90011553 12.56479333 15.79170839 12.3125 18.6875 C12.25900391 19.50412109 12.20550781 20.32074219 12.15039062 21.16210938 C11.76585781 25.29165748 11.42455178 28.07544822 8.41796875 31.08203125 C7.22107422 32.03142578 7.22107422 32.03142578 6 33 C7.65 33 9.3 33 11 33 C10.67 33.99 10.34 34.98 10 36 C7.69 36 5.38 36 3 36 C2.96261719 35.31292969 2.92523438 34.62585938 2.88671875 33.91796875 C2.82097656 33.01691406 2.75523438 32.11585937 2.6875 31.1875 C2.62949219 30.29417969 2.57148437 29.40085937 2.51171875 28.48046875 C1.92329053 25.62816403 1.06196734 24.94164034 -1 23 C-1.2426704 19.72394954 -1.18417508 16.85057959 -0.48828125 13.63671875 C0.0442239 10.76119093 0.09770135 8.10921196 0.0625 5.1875 C0.05347656 4.21167969 0.04445312 3.23585937 0.03515625 2.23046875 C0.02355469 1.49441406 0.01195312 0.75835937 0 0 Z " fill="#C2C2C2" transform="translate(36,51)"/>
<path d="M0 0 C0.5775 0.309375 1.155 0.61875 1.75 0.9375 C3.84904107 1.92871384 5.75074138 2.47548801 8 3 C10.86695266 10.96889529 11.20096183 16.81368874 9 25 C6.525 24.01 6.525 24.01 4 23 C4.33 23.66 4.66 24.32 5 25 C5.66 25 6.32 25 7 25 C7 25.66 7 26.32 7 27 C4.24921116 27.91692961 2.64051087 28.10886083 -0.1875 28.0625 C-2.0746875 28.0315625 -2.0746875 28.0315625 -4 28 C-3.01 26.68 -2.02 25.36 -1 24 C-1.66 24 -2.32 24 -3 24 C-5.00071014 17.99786959 -3.89335262 12.89043037 -2 7 C-1.6202581 5.6888641 -1.24510916 4.37638754 -0.875 3.0625 C-0.58625 2.051875 -0.2975 1.04125 0 0 Z " fill="#BABABA" transform="translate(63,57)"/>
<path d="M0 0 C8.30475494 0.34820775 8.30475494 0.34820775 11 2.875 C13.60546761 8.41161866 13.86502003 14.30222027 14.5625 20.3125 C14.69889893 21.48409668 14.83529785 22.65569336 14.97583008 23.86279297 C15.87494713 31.95877267 16.4000228 39.85138732 16 48 C14.02 48 12.04 48 10 48 C10.16242188 47.10023437 10.32484375 46.20046875 10.4921875 45.2734375 C11.27851806 39.74689517 11.1447071 34.19553946 11.125 28.625 C11.12886719 27.53960937 11.13273437 26.45421875 11.13671875 25.3359375 C11.52500384 13.75218058 11.52500384 13.75218058 8 3 C7.34 2.67 6.68 2.34 6 2 C6.01160156 2.7528125 6.02320312 3.505625 6.03515625 4.28125 C6.11118236 13.23060948 5.64122029 22.08016778 5 31 C2.64434008 28.64434008 2.60258223 27.71820298 2.1484375 24.4921875 C2.01953125 23.58726563 1.890625 22.68234375 1.7578125 21.75 C1.56832031 20.326875 1.56832031 20.326875 1.375 18.875 C1.2409375 17.94945313 1.106875 17.02390625 0.96875 16.0703125 C0.21965415 10.65847714 -0.14136579 5.46186022 0 0 Z " fill="#2E2E2D" transform="translate(104,52)"/>
<path d="M0 0 C2 3 2 3 4 13 C-3.59 13 -11.18 13 -19 13 C-19.66 9.7 -20.32 6.4 -21 3 C-19.81921875 2.95101562 -18.6384375 2.90203125 -17.421875 2.8515625 C-15.86456063 2.77651121 -14.30727009 2.70096439 -12.75 2.625 C-11.97269531 2.5940625 -11.19539062 2.563125 -10.39453125 2.53125 C-4.92620093 2.27341758 -4.92620093 2.27341758 0 0 Z " fill="#A3A3A3" transform="translate(144,87)"/>
<path d="M0 0 C1.6784999 2.2847808 2.76786604 4.39882831 4 7 C3 10 3 10 0 12 C-4.31535044 12.90695501 -8.56427802 13.18328366 -12.9375 12.625 C-16.32273692 9.95784364 -16.97100942 6.06576766 -18 2 C-4.29394813 -3.4351585 -4.29394813 -3.4351585 0 0 Z " fill="#ABABAB" transform="translate(137,70)"/>
<path d="M0 0 C2.5 0.3125 2.5 0.3125 5 1 C6 3 6 3 6.4375 5.9375 C6.82069364 9.15924167 6.82069364 9.15924167 9 12 C9.44111565 13.88154883 9.8109267 15.78062638 10.125 17.6875 C10.29257813 18.68136719 10.46015625 19.67523438 10.6328125 20.69921875 C10.75398438 21.45847656 10.87515625 22.21773437 11 23 C10.01 23.66 9.02 24.32 8 25 C9.32 25.33 10.64 25.66 12 26 C10.75 27.5 10.75 27.5 9 29 C7.68 29 6.36 29 5 29 C4.34 30.98 3.68 32.96 3 35 C0.03 34.67 -2.94 34.34 -6 34 C-5.67 32.68 -5.34 31.36 -5 30 C-3.22265625 28.98828125 -3.22265625 28.98828125 -1.0625 28.3125 C-0.35222656 28.08175781 0.35804688 27.85101563 1.08984375 27.61328125 C1.72019531 27.41089844 2.35054687 27.20851563 3 27 C3.66 26.67 4.32 26.34 5 26 C4.63571383 21.71963747 3.87954968 18.49986872 2 14.625 C-0.09461727 10.19202817 -1.05488794 5.91795916 -1 1 C-0.67 0.67 -0.34 0.34 0 0 Z " fill="#4F4E4E" transform="translate(135,53)"/>
<path d="M0 0 C0 3.96 0 7.92 0 12 C-5.28 12 -10.56 12 -16 12 C-16 9.36 -16 6.72 -16 4 C-14.68 4 -13.36 4 -12 4 C-12.66 2.68 -13.32 1.36 -14 0 C-12.42074025 -0.39180108 -10.83631206 -0.76280736 -9.25 -1.125 C-8.36828125 -1.33382812 -7.4865625 -1.54265625 -6.578125 -1.7578125 C-4 -2 -4 -2 0 0 Z " fill="#242424" transform="translate(50,88)"/>
<path d="M0 0 C2.64 0 5.28 0 8 0 C8 0.99 8 1.98 8 3 C7.01 3.495 7.01 3.495 6 4 C6 5.98 6 7.96 6 10 C6 8.66666667 6 7.33333333 6 6 C7.32 6 8.64 6 10 6 C10.37254569 9.35291118 10.31050198 10.6038423 8.1875 13.3125 C6 15 6 15 3 15 C3 15.66 3 16.32 3 17 C3.66 17 4.32 17 5 17 C5 17.66 5 18.32 5 19 C6.32 19.33 7.64 19.66 9 20 C9 20.66 9 21.32 9 22 C6 24 6 24 2 24 C1.89042969 23.33613281 1.78085938 22.67226563 1.66796875 21.98828125 C0.76230679 16.94455406 -0.31653912 13.3911178 -3 9 C-3.1875 5.6875 -3.1875 5.6875 -3 3 C-2.34 3 -1.68 3 -1 3 C-0.67 2.01 -0.34 1.02 0 0 Z " fill="#7B7A77" transform="translate(115,33)"/>
<path d="M0 0 C0.33 0 0.66 0 1 0 C1.103125 1.0725 1.20625 2.145 1.3125 3.25 C1.97400493 6.85820872 2.57483421 8.36395023 5 11 C4.01 11 3.02 11 2 11 C2.19207031 11.98742188 2.38414063 12.97484375 2.58203125 13.9921875 C3.18706638 18.24777974 2.5595233 21.95033642 1.6875 26.125 C1.55666016 26.81464844 1.42582031 27.50429687 1.29101562 28.21484375 C0.54254009 31.99699551 -0.43058328 35.47737906 -2 39 C-2.66 39 -3.32 39 -4 39 C-4.36452514 36.12597533 -4.71689691 33.25130957 -5.0625 30.375 C-5.16626953 29.56675781 -5.27003906 28.75851563 -5.37695312 27.92578125 C-5.90845754 23.4171576 -6.20756901 19.45075434 -5 15 C-4.01 14.1646875 -4.01 14.1646875 -3 13.3125 C0.27654362 9.52399644 -0.16747926 4.85689864 0 0 Z " fill="#1B1B1B" transform="translate(58,45)"/>
<path d="M0 0 C0.33 0 0.66 0 1 0 C1.35006153 15.3326951 1.04803296 29.94126574 -2 45 C-3.98 45.495 -3.98 45.495 -6 46 C-7.69298695 39.5666496 -6.30300561 33.39957102 -3.9609375 27.2890625 C-2.69876603 22.96894713 -2.57875741 18.85389344 -2.4375 14.375 C-2.37732347 12.6951787 -2.31364626 11.01547835 -2.24609375 9.3359375 C-2.22216553 8.59907715 -2.1982373 7.8622168 -2.17358398 7.10302734 C-1.73010249 1.73010249 -1.73010249 1.73010249 0 0 Z " fill="#AFAFAF" transform="translate(80,54)"/>
<path d="M0 0 C-1.65 7.59 -3.3 15.18 -5 23 C-6.32 23 -7.64 23 -9 23 C-8.5003731 15.50559651 -6.56235522 9.04349737 -4 2 C-8.98458536 3.48711386 -11.4991336 5.11014845 -15 9 C-15.66 9.66 -16.32 10.32 -17 11 C-18.32 11 -19.64 11 -21 11 C-21.33 9.35 -21.66 7.7 -22 6 C-18.25 4.875 -18.25 4.875 -16 6 C-16 5.34 -16 4.68 -16 4 C-15.34 4 -14.68 4 -14 4 C-13.67 3.01 -13.34 2.02 -13 1 C-8.54459632 0.39587747 -4.52021205 0 0 0 Z " fill="#3E3E3E" transform="translate(35,77)"/>
<path d="M0 0 C1 2 2 4 3 6 C4.32 6 5.64 6 7 6 C8.34164079 6.2981424 9.67851173 6.62243192 11 7 C11 6.34 11 5.68 11 5 C10.34 5 9.68 5 9 5 C8.67 3.68 8.34 2.36 8 1 C11.27275026 1 13.846632 1.29925156 17 2 C17 2.66 17 3.32 17 4 C16.67 4.33 16.34 4.66 16 5 C16.33 5.99 16.66 6.98 17 8 C18.65 7.34 20.3 6.68 22 6 C21.04254012 8.61125422 20.34378312 9.79164659 17.9375 11.25 C10.59710068 13.12414451 4.84771693 11.98809466 -2 9 C-1.125 1.125 -1.125 1.125 0 0 Z " fill="#ACACAC" transform="translate(84,80)"/>
<path d="M0 0 C2.5 0.6875 2.5 0.6875 4.8125 3.375 C6.45386636 6.59694137 6.91451116 8.16415512 6.5 11.6875 C5.84 11.6875 5.18 11.6875 4.5 11.6875 C3.84 13.0075 3.18 14.3275 2.5 15.6875 C-4.25 14.9375 -4.25 14.9375 -6.5 12.6875 C-6.96398201 8.58899228 -6.88430032 6.35646723 -4.8125 2.75 C-2.5 0.6875 -2.5 0.6875 0 0 Z " fill="#ABABAB" transform="translate(40.5,35.3125)"/>
<path d="M0 0 C1.0813931 3.4340422 1.04962921 6.42069117 0.8125 10 C0.75707031 11.03125 0.70164062 12.0625 0.64453125 13.125 C-0.12898274 16.5753412 -1.48238636 17.61752666 -4 20 C-4.33417929 23.6675213 -4.33417929 23.6675213 -4 27 C-5.98 27.33 -7.96 27.66 -10 28 C-10.31736448 23.66268547 -9.65001589 20.83244066 -7.78125 16.921875 C-6.90542997 14.76735772 -6.52437253 12.72621179 -6.125 10.4375 C-5.19777693 5.76941145 -3.29271213 3.37936245 0 0 Z " fill="#B3B3B1" transform="translate(22,56)"/>
<path d="M0 0 C0.33 0 0.66 0 1 0 C1.99 6.93 2.98 13.86 4 21 C4.66 20.67 5.32 20.34 6 20 C6 22.97 6 25.94 6 29 C4.33388095 29.042721 2.66617115 29.04063832 1 29 C0.67 28.67 0.34 28.34 0 28 C-0.99 28 -1.98 28 -3 28 C-4.6875 26.5 -4.6875 26.5 -6 25 C-5.67 24.34 -5.34 23.68 -5 23 C-4.34 23.33 -3.68 23.66 -3 24 C-3.33 22.35 -3.66 20.7 -4 19 C-2.35 18.01 -0.7 17.02 1 16 C0.67 16 0.34 16 0 16 C-1.32 16 -2.64 16 -4 16 C-3.79503906 15.43152344 -3.59007813 14.86304687 -3.37890625 14.27734375 C-1.70907331 9.4915546 -0.53623064 5.04056799 0 0 Z " fill="#9D9D9D" transform="translate(104,60)"/>
<path d="M0 0 C0.928125 0.103125 1.85625 0.20625 2.8125 0.3125 C3.1425 1.3025 3.4725 2.2925 3.8125 3.3125 C2.375 5.5 2.375 5.5 0.8125 7.3125 C2.4625 7.3125 4.1125 7.3125 5.8125 7.3125 C6.17804789 10.60243102 6.07468503 11.94349885 4.125 14.6875 C1.8125 16.3125 1.8125 16.3125 -0.75 16.25 C-4.64173729 14.75317797 -4.64173729 14.75317797 -6.1875 12.3125 C-6.609352 8.51583199 -6.43066571 5.94743269 -5.0625 2.375 C-3.1875 0.3125 -3.1875 0.3125 0 0 Z " fill="#B3B3B3" transform="translate(65.1875,39.6875)"/>
<path d="M0 0 C0.33 0.66 0.66 1.32 1 2 C0.34 2 -0.32 2 -1 2 C-1.33 2.99 -1.66 3.98 -2 5 C-4.77332334 6.75480194 -7.55742544 7.46770524 -10.75 8.125 C-11.54921875 8.29257813 -12.3484375 8.46015625 -13.171875 8.6328125 C-13.77515625 8.75398438 -14.3784375 8.87515625 -15 9 C-15 9.33 -15 9.66 -15 10 C-18.3 10 -21.6 10 -25 10 C-25.33 7.03 -25.66 4.06 -26 1 C-24.329375 1.495 -24.329375 1.495 -22.625 2 C-14.40740542 4.01810185 -7.69856493 3.42158441 0 0 Z " fill="#1C1C1C" transform="translate(108,88)"/>
<path d="M0 0 C0.33 0 0.66 0 1 0 C3.125 6.625 3.125 6.625 2 10 C3.41750563 9.88490339 4.83401169 9.75746342 6.25 9.625 C7.03890625 9.55539063 7.8278125 9.48578125 8.640625 9.4140625 C11.11100931 8.98051823 12.79243628 8.15886079 15 7 C16.34300212 6.6056059 17.69818858 6.250319 19.0625 5.9375 C21.44374944 5.3844651 23.67237643 4.77587452 26 4 C27.08174162 7.36541838 26.92538169 8.29847322 26 12 C17.09 12 8.18 12 -1 12 C-0.67 8.04 -0.34 4.08 0 0 Z " fill="#1A1A1A" transform="translate(81,88)"/>
<path d="M0 0 C2.00293347 3.00440021 2.49271626 4.70993945 3.125 8.1875 C3.29257813 9.08855469 3.46015625 9.98960938 3.6328125 10.91796875 C3.75398438 11.60503906 3.87515625 12.29210937 4 13 C3.34 13 2.68 13 2 13 C2 12.34 2 11.68 2 11 C1.34 11 0.68 11 0 11 C0 10.34 0 9.68 0 9 C-0.99 9.33 -1.98 9.66 -3 10 C-5.15625 9.51171875 -5.15625 9.51171875 -7.5 8.6875 C-8.2734375 8.42324219 -9.046875 8.15898438 -9.84375 7.88671875 C-12 7 -12 7 -15 5 C-16.65549531 4.61500109 -18.3222433 4.27206865 -20 4 C-20.33 4.66 -20.66 5.32 -21 6 C-21 5.01 -21 4.02 -21 3 C-19.81921875 2.95101562 -18.6384375 2.90203125 -17.421875 2.8515625 C-15.86456063 2.77651121 -14.30727009 2.70096439 -12.75 2.625 C-11.97269531 2.5940625 -11.19539062 2.563125 -10.39453125 2.53125 C-4.92620093 2.27341758 -4.92620093 2.27341758 0 0 Z " fill="#7F7E7C" transform="translate(144,87)"/>
<path d="M0 0 C0.33 0 0.66 0 1 0 C2.93194504 11.43067484 4.51968621 22.37442705 4 34 C2.02 34 0.04 34 -2 34 C-1.84660156 33.13246094 -1.69320312 32.26492187 -1.53515625 31.37109375 C-0.66917066 25.30919464 -0.63300585 19.17446159 -0.4375 13.0625 C-0.39431641 11.80630859 -0.35113281 10.55011719 -0.30664062 9.25585938 C-0.20106381 6.17067032 -0.09895449 3.08540737 0 0 Z " fill="#171717" transform="translate(116,66)"/>
<path d="M0 0 C0.99 0.33 1.98 0.66 3 1 C1.66958425 9.35010941 1.66958425 9.35010941 -1.125 12.0625 C-1.74375 12.371875 -2.3625 12.68125 -3 13 C-1.35 13 0.3 13 2 13 C1.67 13.99 1.34 14.98 1 16 C-1.31 16 -3.62 16 -6 16 C-6.03738281 15.31292969 -6.07476562 14.62585938 -6.11328125 13.91796875 C-6.17902344 13.01691406 -6.24476562 12.11585937 -6.3125 11.1875 C-6.37050781 10.29417969 -6.42851563 9.40085937 -6.48828125 8.48046875 C-7.07122445 5.65475171 -7.89983712 4.87494434 -10 3 C-10 2.34 -10 1.68 -10 1 C-8.02 1 -6.04 1 -4 1 C-4 1.99 -4 2.98 -4 4 C-3.34 4 -2.68 4 -2 4 C-1.34 2.68 -0.68 1.36 0 0 Z " fill="#B3B3B3" transform="translate(45,71)"/>
<path d="M0 0 C2.09765625 0.375 2.09765625 0.375 4.16015625 1.875 C5.51728795 5.49401787 5.29040393 8.52004636 5.09765625 12.375 C4.43765625 11.715 3.77765625 11.055 3.09765625 10.375 C3.09765625 9.385 3.09765625 8.395 3.09765625 7.375 C1.45099422 7.4885629 -0.19470457 7.61617381 -1.83984375 7.75 C-2.75636719 7.81960937 -3.67289062 7.88921875 -4.6171875 7.9609375 C-5.37128906 8.09757812 -6.12539062 8.23421875 -6.90234375 8.375 C-7.23234375 9.035 -7.56234375 9.695 -7.90234375 10.375 C-8.56234375 10.375 -9.22234375 10.375 -9.90234375 10.375 C-10.11466088 7.26101543 -10.11824872 4.92195926 -8.96484375 2 C-6.04452232 -0.30085931 -3.64028455 -0.18941318 0 0 Z " fill="#161514" transform="translate(121.90234375,25.625)"/>
<path d="M0 0 C0.66 0 1.32 0 2 0 C1.57446809 20.72340426 1.57446809 20.72340426 -3 29 C-3.86963087 26.00293305 -4.11763099 23.35043474 -4.09765625 20.234375 C-4.09443359 19.34492187 -4.09121094 18.45546875 -4.08789062 17.5390625 C-4.07532227 16.15847656 -4.07532227 16.15847656 -4.0625 14.75 C-4.05798828 13.81414062 -4.05347656 12.87828125 -4.04882812 11.9140625 C-4.03706918 9.60930959 -4.02063426 7.30468773 -4 5 C-3.34 5 -2.68 5 -2 5 C-1.34 3.35 -0.68 1.7 0 0 Z " fill="#2D2D2D" transform="translate(77,59)"/>
<path d="M0 0 C0.33 0 0.66 0 1 0 C1.05843491 4.02077152 1.0937424 8.04143259 1.125 12.0625 C1.14175781 13.19623047 1.15851563 14.32996094 1.17578125 15.49804688 C1.21019727 21.40039384 1.04944811 26.44067027 -1 32 C-3.31 32 -5.62 32 -8 32 C-8 28.7 -8 25.4 -8 22 C-7.34 22 -6.68 22 -6 22 C-6 22.99 -6 23.98 -6 25 C-3.21370722 23.60685361 -2.69296014 21.64066049 -1.6640625 18.80859375 C-0.21415859 12.67635308 -0.22090385 6.27671638 0 0 Z " fill="#959595" transform="translate(115,68)"/>
<path d="M0 0 C0.66 1.32 1.32 2.64 2 4 C2.556875 3.67 3.11375 3.34 3.6875 3 C6.30284522 1.8690399 8.1806646 1.84337026 11 2 C11.33 2.99 11.66 3.98 12 5 C11.01 5.66 10.02 6.32 9 7 C7.89859314 10.13477337 7.87891917 11.6367575 8.9375 14.8125 C9.288125 15.534375 9.63875 16.25625 10 17 C8.35 17 6.7 17 5 17 C4.67 16.01 4.34 15.02 4 14 C4.33 13.67 4.66 13.34 5 13 C4.34 12.67 3.68 12.34 3 12 C2.67 12.66 2.34 13.32 2 14 C0.09391902 10.78817851 -0.22266247 8.46117397 -0.125 4.75 C-0.09792969 3.41195312 -0.09792969 3.41195312 -0.0703125 2.046875 C-0.04710938 1.37140625 -0.02390625 0.6959375 0 0 Z " fill="#9E9D9C" transform="translate(86,30)"/>
<path d="M0 0 C0.33 0 0.66 0 1 0 C1.33 2.97 1.66 5.94 2 9 C2.66 9 3.32 9 4 9 C3.67 9.99 3.34 10.98 3 12 C5.97 12 8.94 12 12 12 C12 11.34 12 10.68 12 10 C11.01 10.33 10.02 10.66 9 11 C9 9.68 9 8.36 9 7 C10.32 7.66 11.64 8.32 13 9 C13.33 7.35 13.66 5.7 14 4 C14.66 4.66 15.32 5.32 16 6 C15.9765625 8.1640625 15.9765625 8.1640625 15.625 10.625 C15.45871094 11.85089844 15.45871094 11.85089844 15.2890625 13.1015625 C15.14597656 14.04128906 15.14597656 14.04128906 15 15 C12.77110504 15.05428973 10.54182529 15.09292338 8.3125 15.125 C6.45044922 15.15980469 6.45044922 15.15980469 4.55078125 15.1953125 C1.18762143 15.01032021 -0.9985587 14.45767895 -4 13 C-3.34 12.67 -2.68 12.34 -2 12 C-0.96197813 8.07858405 -0.5510927 4.01510396 0 0 Z " fill="#7C7C7C" transform="translate(58,72)"/>
<path d="M0 0 C0.66 0.33 1.32 0.66 2 1 C3.16644591 4.49933773 3.06447632 7.32484973 3 11 C3 12.32 3 13.64 3 15 C1.68 15 0.36 15 -1 15 C-1 17.64 -1 20.28 -1 23 C-2.32 23 -3.64 23 -5 23 C-1.53278689 1.53278689 -1.53278689 1.53278689 0 0 Z " fill="#5D5D5D" transform="translate(35,77)"/>
<path d="M0 0 C2.02558881 3.34939881 2.21738987 5.86962551 2.125 9.75 C2.10695313 10.73484375 2.08890625 11.7196875 2.0703125 12.734375 C2.03550781 13.85585938 2.03550781 13.85585938 2 15 C1.67 15 1.34 15 1 15 C0.34 12.36 -0.32 9.72 -1 7 C-2.45922693 7.11409593 -3.91740598 7.24165544 -5.375 7.375 C-6.18710938 7.44460937 -6.99921875 7.51421875 -7.8359375 7.5859375 C-10.20334191 7.82892588 -10.20334191 7.82892588 -12 10 C-12.3125 6.6875 -12.3125 6.6875 -12 3 C-8.3337004 -0.44409963 -4.85225623 -0.28542684 0 0 Z " fill="#2D2C2B" transform="translate(99,26)"/>
<path d="M0 0 C0.33 0 0.66 0 1 0 C1.33 2.64 1.66 5.28 2 8 C1.236875 8.391875 0.47375 8.78375 -0.3125 9.1875 C-3.26285415 11.17727373 -4.21342701 12.99530906 -6 16 C-6.99 16 -7.98 16 -9 16 C-10.20577428 11.05632546 -9.6290678 7.79137588 -8 3 C-7.67 3.66 -7.34 4.32 -7 5 C-6.01 4.67 -5.02 4.34 -4 4 C-4 4.99 -4 5.98 -4 7 C-2.68 4.69 -1.36 2.38 0 0 Z " fill="#242423" transform="translate(33,58)"/>
<path d="M0 0 C2.77995714 0.27799571 3.79782921 0.77536579 5.6875 2.875 C8.35834615 7.19922711 8.1182132 11.28045317 8.0625 16.1875 C8.05798828 16.93708984 8.05347656 17.68667969 8.04882812 18.45898438 C8.03706354 20.30602383 8.01912865 22.15302213 8 24 C6.02 23.34 4.04 22.68 2 22 C1.79913557 18.28400809 1.8480563 17.22791555 4 14 C4.66 14 5.32 14 6 14 C4.74875245 8.31251115 2.95897432 5.27152492 -1 1 C-0.67 0.67 -0.34 0.34 0 0 Z " fill="#1A1916" transform="translate(41,33)"/>
<path d="M0 0 C-0.33 3.63 -0.66 7.26 -1 11 C-2.32 11.33 -3.64 11.66 -5 12 C-5.99 12.495 -5.99 12.495 -7 13 C-7 11.35 -7 9.7 -7 8 C-7.66 8 -8.32 8 -9 8 C-9.6875 5.6875 -9.6875 5.6875 -10 3 C-7.7638263 -1.05306482 -4.16821004 -0.23593642 0 0 Z " fill="#CACACA" transform="translate(49,61)"/>
<path d="M0 0 C1.670625 0.37125 1.670625 0.37125 3.375 0.75 C4.98225635 3.96451269 4.43248185 7.18612536 4.375 10.75 C2.725 10.75 1.075 10.75 -0.625 10.75 C-0.295 9.96625 0.035 9.1825 0.375 8.375 C1.49366511 5.90667503 1.49366511 5.90667503 1.375 3.75 C-0.605 3.75 -2.585 3.75 -4.625 3.75 C-5.285 5.4 -5.945 7.05 -6.625 8.75 C-7.285 8.75 -7.945 8.75 -8.625 8.75 C-8.625 12.38 -8.625 16.01 -8.625 19.75 C-8.955 19.75 -9.285 19.75 -9.625 19.75 C-10.19207317 6.7703252 -10.19207317 6.7703252 -6.625 1.75 C-3.625 -0.25 -3.625 -0.25 0 0 Z " fill="#3E3A31" transform="translate(66.625,36.25)"/>
<path d="M0 0 C0.66 0 1.32 0 2 0 C3.41446097 2.64032715 4.64825551 5.01017182 5 8 C4.3711811 10.01222047 3.70381157 12.01276732 3 14 C3 15.32 3 16.64 3 18 C-0.62326739 19.2077558 -1.64146369 18.54311128 -5 17 C-5 16.34 -5 15.68 -5 15 C-3.35 14.67 -1.7 14.34 0 14 C0.66 11.36 1.32 8.72 2 6 C0.68 6 -0.64 6 -2 6 C-1.34 7.65 -0.68 9.3 0 11 C-0.99 10.67 -1.98 10.34 -3 10 C-3 8.02 -3 6.04 -3 4 C-2.01 3.67 -1.02 3.34 0 3 C0 2.01 0 1.02 0 0 Z " fill="#393836" transform="translate(123,33)"/>
<path d="M0 0 C5.48525126 0.60947236 5.48525126 0.60947236 7.66723633 2.26489258 C9.33962354 4.4421514 9.42025429 5.7235778 9.51171875 8.44921875 C9.54716797 9.29677734 9.58261719 10.14433594 9.61914062 11.01757812 C9.64169922 11.89865234 9.66425781 12.77972656 9.6875 13.6875 C9.73874023 15.02651367 9.73874023 15.02651367 9.79101562 16.39257812 C9.87345648 18.59492671 9.94261551 20.79687938 10 23 C9.34 23 8.68 23 8 23 C7.92652344 22.06027344 7.92652344 22.06027344 7.8515625 21.1015625 C7.77679688 20.28429687 7.70203125 19.46703125 7.625 18.625 C7.55539063 17.81289062 7.48578125 17.00078125 7.4140625 16.1640625 C7.17107412 13.79665809 7.17107412 13.79665809 5 12 C4.875 8.375 4.875 8.375 5 5 C1.7 5.66 -1.6 6.32 -5 7 C-5 6.34 -5 5.68 -5 5 C-3.02 4.01 -1.04 3.02 1 2 C0.67 1.34 0.34 0.68 0 0 Z " fill="#919191" transform="translate(44,56)"/>
<path d="M0 0 C0.99 0 1.98 0 3 0 C2.35451147 2.75008135 1.70862234 5.50006756 1.0625 8.25 C0.88009766 9.02730469 0.69769531 9.80460937 0.50976562 10.60546875 C0.33251953 11.35957031 0.15527344 12.11367187 -0.02734375 12.890625 C-0.27085571 13.92751465 -0.27085571 13.92751465 -0.51928711 14.98535156 C-0.9985662 16.99399101 -1.49546602 18.99756942 -2 21 C-2.99 21 -3.98 21 -5 21 C-4.27044025 4.27044025 -4.27044025 4.27044025 0 0 Z " fill="#7A7A7A" transform="translate(28,79)"/>
<path d="M0 0 C-1.0625 1.4375 -1.0625 1.4375 -3 3 C-4.11375 3.12375 -5.2275 3.2475 -6.375 3.375 C-10.80984978 4.13962927 -12.12972587 5.63767887 -15 9 C-15.66 9.66 -16.32 10.32 -17 11 C-18.32 11 -19.64 11 -21 11 C-21.33 9.35 -21.66 7.7 -22 6 C-18.25 4.875 -18.25 4.875 -16 6 C-16 5.34 -16 4.68 -16 4 C-15.34 4 -14.68 4 -14 4 C-13.67 3.01 -13.34 2.02 -13 1 C-8.62426048 0.40667939 -4.42471556 -0.13827236 0 0 Z " fill="#1A1A19" transform="translate(35,77)"/>
<path d="M0 0 C0.33 0 0.66 0 1 0 C0.98839844 1.03640625 0.97679687 2.0728125 0.96484375 3.140625 C0.95546163 4.51041486 0.94636188 5.88020668 0.9375 7.25 C0.92912109 7.93191406 0.92074219 8.61382812 0.91210938 9.31640625 C0.89553395 12.73094335 1.13048278 15.70993485 2 19 C1.67 19.66 1.34 20.32 1 21 C2.98 21 4.96 21 7 21 C7 21.33 7 21.66 7 22 C3.92382812 22.29296875 3.92382812 22.29296875 0.84765625 22.5859375 C0.23792969 22.72257812 -0.37179688 22.85921875 -1 23 C-1.33 23.66 -1.66 24.32 -2 25 C-2.66 25 -3.32 25 -4 25 C-3.67 25.99 -3.34 26.98 -3 28 C-3.66 28 -4.32 28 -5 28 C-5 25.36 -5 22.72 -5 20 C-5.66 19.67 -6.32 19.34 -7 19 C-5.68 19 -4.36 19 -3 19 C-1.46667709 12.66226532 -0.51553879 6.49850211 0 0 Z " fill="#858074" transform="translate(23,56)"/>
<path d="M0 0 C0.99 0.33 1.98 0.66 3 1 C3 1.66 3 2.32 3 3 C4.65 3 6.3 3 8 3 C8 5.64 8 8.28 8 11 C5.36 11 2.72 11 0 11 C0 7.37 0 3.74 0 0 Z " fill="#CDC09E" transform="translate(50,89)"/>
<path d="M0 0 C1.98 0 3.96 0 6 0 C5.01 0.66 4.02 1.32 3 2 C3.4535179 9.02952752 5.12059087 14.5849443 8 21 C5 20 5 20 3 17 C0.43717258 16.27034634 0.43717258 16.27034634 -2 16 C-1.34 15.67 -0.68 15.34 0 15 C-0.66 14.01 -1.32 13.02 -2 12 C-2.125 9.3125 -2.125 9.3125 -2 7 C-1.34 7 -0.68 7 0 7 C0 4.69 0 2.38 0 0 Z " fill="#111111" transform="translate(132,52)"/>
<path d="M0 0 C0.33 0 0.66 0 1 0 C1.41893981 2.70653202 1.81052658 5.41257588 2.1875 8.125 C2.30802734 8.88554688 2.42855469 9.64609375 2.55273438 10.4296875 C3.2364747 15.54671186 2.86659294 18.47988116 0 23 C-0.66 23 -1.32 23 -2 23 C-2.33 21.35 -2.66 19.7 -3 18 C-1.68 17.34 -0.36 16.68 1 16 C0.67 16 0.34 16 0 16 C-1.32 16 -2.64 16 -4 16 C-3.79503906 15.43152344 -3.59007813 14.86304687 -3.37890625 14.27734375 C-1.70907331 9.4915546 -0.53623064 5.04056799 0 0 Z " fill="#888888" transform="translate(104,60)"/>
<path d="M0 0 C2 1 2 1 4 3 C4.36933645 5.75372909 4.18336678 8.20365661 4 11 C3.34 10.01 2.68 9.02 2 8 C-0.43717258 8.27034634 -0.43717258 8.27034634 -3 9 C-3.99 10.485 -3.99 10.485 -5 12 C-5.66 12 -6.32 12 -7 12 C-7 10.68 -7 9.36 -7 8 C-7.99 8 -8.98 8 -10 8 C-10.33 7.34 -10.66 6.68 -11 6 C-9.39125 5.9071875 -9.39125 5.9071875 -7.75 5.8125 C-3.86468039 5.33854041 -3.86468039 5.33854041 -1.5625 2.4375 C-1.046875 1.633125 -0.53125 0.82875 0 0 Z " fill="#A09F9C" transform="translate(100,48)"/>
<path d="M0 0 C0.33 0 0.66 0 1 0 C1.07006227 3.01267767 1.05642672 5.73040567 0.4375 8.6875 C-0.22201498 11.1457356 -0.22201498 11.1457356 1 14 C2.3921875 14.1546875 2.3921875 14.1546875 3.8125 14.3125 C7.03254358 15.0070192 8.02579865 15.47740939 10 18 C9.34 18.66 8.68 19.32 8 20 C7.01 20 6.02 20 5 20 C5 19.34 5 18.68 5 18 C4.38125 17.7525 3.7625 17.505 3.125 17.25 C0.64931313 15.79371361 0.04874998 14.62187494 -1 12 C-2.98 12.33 -4.96 12.66 -7 13 C-6.21625 12.154375 -5.4325 11.30875 -4.625 10.4375 C-1.83068977 7.12074083 -0.92487099 4.20395906 0 0 Z " fill="#777777" transform="translate(48,72)"/>
<path d="M0 0 C3.32104626 0.55350771 6.16244492 1.14091219 9 3 C9.66 4.32 10.32 5.64 11 7 C7.37 7 3.74 7 0 7 C0 4.69 0 2.38 0 0 Z " fill="#C7C7C7" transform="translate(62,93)"/>
<path d="M0 0 C0.33 0.66 0.66 1.32 1 2 C0.34 2 -0.32 2 -1 2 C-1.33 2.99 -1.66 3.98 -2 5 C-5.07044321 7.08845462 -7.59912751 7.22107559 -11.25 7.125 C-12.14203125 7.10695313 -13.0340625 7.08890625 -13.953125 7.0703125 C-14.96632813 7.03550781 -14.96632813 7.03550781 -16 7 C-15.67 6.01 -15.34 5.02 -15 4 C-13.14453125 3.33984375 -13.14453125 3.33984375 -10.8125 2.9375 C-7.07885164 2.22774895 -3.58554114 1.28711733 0 0 Z " fill="#454544" transform="translate(108,88)"/>
<path d="M0 0 C0.33 0.66 0.66 1.32 1 2 C4.465 1.505 4.465 1.505 8 1 C8 1.66 8 2.32 8 3 C6.35 3 4.7 3 3 3 C3.66 6.3 4.32 9.6 5 13 C3.35 13 1.7 13 0 13 C0 8.71 0 4.42 0 0 Z " fill="#373737" transform="translate(120,87)"/>
<path d="M0 0 C0.99 0.33 1.98 0.66 3 1 C2.67 2.32 2.34 3.64 2 5 C3.65 5 5.3 5 7 5 C6.34 5.66 5.68 6.32 5 7 C6.32 7.66 7.64 8.32 9 9 C7 12 7 12 5.0546875 12.51171875 C4.33539063 12.56972656 3.61609375 12.62773438 2.875 12.6875 C0.956875 12.8421875 0.956875 12.8421875 -1 13 C-0.9278125 12.39671875 -0.855625 11.7934375 -0.78125 11.171875 C-0.6884375 10.37265625 -0.595625 9.5734375 -0.5 8.75 C-0.4071875 7.96109375 -0.314375 7.1721875 -0.21875 6.359375 C0.06154619 3.73109603 0.06154619 3.73109603 0 0 Z " fill="#6A6968" transform="translate(89,42)"/>
<path d="M0 0 C0.625 2.0625 0.625 2.0625 1 4 C1.33 3.34 1.66 2.68 2 2 C1.67 3.98 1.34 5.96 1 8 C-1.31 8 -3.62 8 -6 8 C-6 5.36 -6 2.72 -6 0 C-2.25 -1.125 -2.25 -1.125 0 0 Z " fill="#1C1C1C" transform="translate(40,92)"/>
<path d="M0 0 C0.33 0.99 0.66 1.98 1 3 C1.99 3 2.98 3 4 3 C4 2.34 4 1.68 4 1 C4.66 1.33 5.32 1.66 6 2 C5.505 2.350625 5.01 2.70125 4.5 3.0625 C2.26936034 5.94374289 2.80019379 8.47009026 3 12 C1.02 12.33 -0.96 12.66 -3 13 C-3.38281159 7.76824163 -2.21854707 4.62197306 0 0 Z " fill="#9A9893" transform="translate(15,71)"/>
<path d="M0 0 C0.33 0 0.66 0 1 0 C2.13076015 5.22073128 2.45408159 10.3645774 2.75 15.6875 C2.81832031 16.64978516 2.88664062 17.61207031 2.95703125 18.60351562 C3.00730469 19.52197266 3.05757813 20.44042969 3.109375 21.38671875 C3.16061523 22.22420654 3.21185547 23.06169434 3.26464844 23.92456055 C3.17731445 24.60945557 3.08998047 25.29435059 3 26 C2.01 26.66 1.02 27.32 0 28 C0 18.76 0 9.52 0 0 Z " fill="#0B0B0B" transform="translate(116,66)"/>
<path d="M0 0 C3 3 3 3 3.36328125 4.9375 C3.34652344 5.618125 3.32976563 6.29875 3.3125 7 C3.30863281 7.680625 3.30476563 8.36125 3.30078125 9.0625 C3 11 3 11 1 14 C0.34 12.35 -0.32 10.7 -1 9 C-2.32 10.98 -3.64 12.96 -5 15 C-6.24546405 12.50907189 -5.7767578 11.58919267 -5 9 C-4.34 9 -3.68 9 -3 9 C-2.01 6.03 -1.02 3.06 0 0 Z " fill="#333333" transform="translate(34,51)"/>
<path d="M0 0 C-2 3 -2 3 -5 4.4375 C-8.10649159 6.05546437 -8.88829667 6.77606034 -10 10 C-10.66 10 -11.32 10 -12 10 C-12.21231713 6.88601543 -12.21590497 4.54695926 -11.0625 1.625 C-7.73685476 -0.99520534 -4.0782683 -0.30779383 0 0 Z " fill="#302F2C" transform="translate(124,26)"/>
<path d="M0 0 C0.66 0 1.32 0 2 0 C2.33 1.65 2.66 3.3 3 5 C1.35 5.33 -0.3 5.66 -2 6 C-2 6.66 -2 7.32 -2 8 C-1.21625 7.814375 -0.4325 7.62875 0.375 7.4375 C3 7 3 7 5 8 C4.67 8.99 4.34 9.98 4 11 C-2.875 10.125 -2.875 10.125 -4 9 C-4.04092937 6.66702567 -4.04241723 4.33294775 -4 2 C-2.68 1.67 -1.36 1.34 0 1 C0 0.67 0 0.34 0 0 Z " fill="#ADADAD" transform="translate(39,40)"/>
<path d="M0 0 C1.5625 1.25 1.5625 1.25 3 3 C2.6875 5.1875 2.6875 5.1875 2 7 C1.34 6.67 0.68 6.34 0 6 C0.33 5.34 0.66 4.68 1 4 C0.34 4 -0.32 4 -1 4 C-0.88623383 6.12563103 -0.75864369 8.2505261 -0.625 10.375 C-0.55539063 11.55835937 -0.48578125 12.74171875 -0.4140625 13.9609375 C-0.29782654 17.10562319 -0.29782654 17.10562319 2 19 C1.34 19 0.68 19 0 19 C0.33 20.98 0.66 22.96 1 25 C0.34 25 -0.32 25 -1 25 C-1.36452514 22.12597533 -1.71689691 19.25130957 -2.0625 16.375 C-2.16626953 15.56675781 -2.27003906 14.75851563 -2.37695312 13.92578125 C-2.90762343 9.42423317 -3.22584208 5.44105074 -2 1 C-1.34 0.67 -0.68 0.34 0 0 Z " fill="#383837" transform="translate(55,59)"/>
<path d="M0 0 C0.33 0 0.66 0 1 0 C1.05789006 3.45826342 1.09355821 6.91640293 1.125 10.375 C1.14175781 11.35984375 1.15851563 12.3446875 1.17578125 13.359375 C1.18222656 14.30039063 1.18867187 15.24140625 1.1953125 16.2109375 C1.20578613 17.08024902 1.21625977 17.94956055 1.22705078 18.84521484 C1 21 1 21 -1 23 C-2.64291702 7.56831517 -2.64291702 7.56831517 -2 2 C-1.34 1.34 -0.68 0.68 0 0 Z " fill="#B8B8B8" transform="translate(80,54)"/>
<path d="M0 0 C3 2 3 2 3.9375 5.5 C4.46971071 10.8615301 2.26678551 15.25239773 0 20 C-0.66 20 -1.32 20 -2 20 C-2.125 17.625 -2.125 17.625 -2 15 C-1.34 14.34 -0.68 13.68 0 13 C0.24360073 9.87185486 0.24360073 9.87185486 0.125 6.375 C0.10695313 5.18648437 0.08890625 3.99796875 0.0703125 2.7734375 C0.04710938 1.85820313 0.02390625 0.94296875 0 0 Z " fill="#1A1814" transform="translate(70,39)"/>
<path d="M0 0 C3.375 -0.1875 3.375 -0.1875 7 0 C9 3 9 3 8.9375 5.5625 C8 8 8 8 5.4375 9.3125 C4.2309375 9.6528125 4.2309375 9.6528125 3 10 C2.67 8.68 2.34 7.36 2 6 C2.66 6 3.32 6 4 6 C4.33 5.01 4.66 4.02 5 3 C3.02 3 1.04 3 -1 3 C-0.67 2.01 -0.34 1.02 0 0 Z " fill="#2C2A25" transform="translate(143,76)"/>
<path d="M0 0 C1.32 0.66 2.64 1.32 4 2 C5.3242287 2.36784131 6.65613912 2.71202981 8 3 C8.33 4.32 8.66 5.64 9 7 C8.01 7.495 8.01 7.495 7 8 C7 7.34 7 6.68 7 6 C6.34 6 5.68 6 5 6 C5 5.34 5 4.68 5 4 C4.34 4 3.68 4 3 4 C3 4.99 3 5.98 3 7 C1.625 8.6875 1.625 8.6875 0 10 C-0.66 10 -1.32 10 -2 10 C-1.34 6.7 -0.68 3.4 0 0 Z " fill="#888888" transform="translate(63,57)"/>
<path d="M0 0 C2.64 0 5.28 0 8 0 C8 0.99 8 1.98 8 3 C7.01 3.495 7.01 3.495 6 4 C5.34444881 6.52733235 5.34444881 6.52733235 5 9 C3.02 9 1.04 9 -1 9 C-1 8.34 -1 7.68 -1 7 C0.32 7 1.64 7 3 7 C2.67 6.01 2.34 5.02 2 4 C1.34 3.67 0.68 3.34 0 3 C0 2.01 0 1.02 0 0 Z " fill="#9C9C9C" transform="translate(115,33)"/>
<path d="M0 0 C3.89059081 4.31181619 3.89059081 4.31181619 4.390625 7.45703125 C4.34421875 8.23433594 4.2978125 9.01164062 4.25 9.8125 C4.21390625 10.60269531 4.1778125 11.39289063 4.140625 12.20703125 C4.09421875 12.79871094 4.0478125 13.39039062 4 14 C4.66 14.33 5.32 14.66 6 15 C4.0625 15.5625 4.0625 15.5625 2 16 C0.00383446 14.00383446 0.59016573 10.18298037 0.4375 7.4375 C0.39431641 6.72658203 0.35113281 6.01566406 0.30664062 5.28320312 C0.20028223 3.52238088 0.09961154 1.7612168 0 0 Z " fill="#ACACAC" transform="translate(48,65)"/>
<path d="M0 0 C0 3.3 0 6.6 0 10 C-0.515625 9.401875 -1.03125 8.80375 -1.5625 8.1875 C-4.56533687 5.4926464 -7.24873609 4.44279381 -11 3 C-10.67 2.34 -10.34 1.68 -10 1 C-6.63471927 0.46582846 -3.40372484 0 0 0 Z " fill="#606060" transform="translate(74,90)"/>
<path d="M0 0 C3 1 3 1 4 3 C4.07033769 4.87379605 4.0843022 6.75001102 4.0625 8.625 C4.05347656 9.62789062 4.04445313 10.63078125 4.03515625 11.6640625 C4.02355469 12.43492188 4.01195313 13.20578125 4 14 C3.67 14 3.34 14 3 14 C2.34 11.36 1.68 8.72 1 6 C-1.31 5.67 -3.62 5.34 -6 5 C-5.67 4.34 -5.34 3.68 -5 3 C-2.4375 2.375 -2.4375 2.375 0 2 C0 1.34 0 0.68 0 0 Z " fill="#101010" transform="translate(97,27)"/>
<path d="M0 0 C0.33 0 0.66 0 1 0 C1.02688151 1.64574566 1.04634123 3.29161413 1.0625 4.9375 C1.07410156 5.85402344 1.08570313 6.77054687 1.09765625 7.71484375 C1 10 1 10 0 11 C-0.23287008 12.68183948 -0.41264166 14.3712416 -0.5625 16.0625 C-0.68818359 17.44115234 -0.68818359 17.44115234 -0.81640625 18.84765625 C-0.87699219 19.55792969 -0.93757813 20.26820312 -1 21 C-1.99 21 -2.98 21 -4 21 C-2.87723429 13.94090922 -1.62436599 6.96156852 0 0 Z " fill="#757575" transform="translate(34,79)"/>
<path d="M0 0 C1.65 0 3.3 0 5 0 C4.67 0.66 4.34 1.32 4 2 C3.92934383 4.04055005 3.91578024 6.08334257 3.9375 8.125 C3.95103516 9.76855469 3.95103516 9.76855469 3.96484375 11.4453125 C3.97644531 12.28835937 3.98804687 13.13140625 4 14 C3.34 13.34 2.68 12.68 2 12 C2 10.68 2 9.36 2 8 C1.34 8 0.68 8 0 8 C0 5.36 0 2.72 0 0 Z " fill="#32302D" transform="translate(104,52)"/>
<path d="M0 0 C0.33 0 0.66 0 1 0 C2.09943046 5.08486587 1.88035075 9.07046128 1 14.1875 C0.814375 15.27417969 0.62875 16.36085938 0.4375 17.48046875 C0.293125 18.31191406 0.14875 19.14335938 0 20 C-0.99 19.67 -1.98 19.34 -3 19 C-2.01 12.73 -1.02 6.46 0 0 Z " fill="#666666" transform="translate(80,80)"/>
<path d="M0 0 C0.66 1.65 1.32 3.3 2 5 C-1.69541586 5.95024979 -4.30458414 5.95024979 -8 5 C-7.625 3.0625 -7.625 3.0625 -7 1 C-4.53721199 -0.231394 -2.7204945 -0.07159196 0 0 Z " fill="#404040" transform="translate(137,82)"/>
<path d="M0 0 C1.3357457 3.77371512 0.72408671 6.85831347 0.0625 10.75 C-0.13214844 11.92046875 -0.32679687 13.0909375 -0.52734375 14.296875 C-0.68332031 15.18890625 -0.83929688 16.0809375 -1 17 C-1.99 17 -2.98 17 -4 17 C-3.58411954 10.80481527 -2.39748106 5.73310689 0 0 Z " fill="#5F5538" transform="translate(33,36)"/>
<path d="M0 0 C1.98 0 3.96 0 6 0 C6 0.99 6 1.98 6 3 C6.99 2.67 7.98 2.34 9 2 C8.01 4.97 7.02 7.94 6 11 C4 9 4 9 3 5.9375 C2.34247444 2.87849194 2.34247444 2.87849194 0 2 C0 1.34 0 0.68 0 0 Z " fill="#ABABAB" transform="translate(35,72)"/>
<path d="M0 0 C0.33 0 0.66 0 1 0 C1 1.65 1 3.3 1 5 C1.66 4.67 2.32 4.34 3 4 C4.99960012 3.960008 7.00047242 3.95653201 9 4 C9.33 4.99 9.66 5.98 10 7 C9.34 7.66 8.68 8.32 8 9 C1.42307692 8.42307692 1.42307692 8.42307692 0 7 C-0.04092937 4.66702567 -0.04241723 2.33294775 0 0 Z " fill="#878787" transform="translate(59,45)"/>
<path d="M0 0 C0.33 0 0.66 0 1 0 C3.125 6.625 3.125 6.625 2 10 C4.97 10 7.94 10 11 10 C6.7975546 12.80163026 3.99895065 12.14489712 -1 12 C-0.67 8.04 -0.34 4.08 0 0 Z " fill="#0D0D0D" transform="translate(81,88)"/>
<path d="M0 0 C0 1.32 0 2.64 0 4 C0.99 4.33 1.98 4.66 3 5 C-0.37462715 4.45276317 -2.08235 3.9451 -5 2 C-5.12117188 2.92683594 -5.24234375 3.85367188 -5.3671875 4.80859375 C-5.53476562 6.00613281 -5.70234375 7.20367187 -5.875 8.4375 C-6.11863281 10.22994141 -6.11863281 10.22994141 -6.3671875 12.05859375 C-6.68042969 13.51458984 -6.68042969 13.51458984 -7 15 C-7.99 15.495 -7.99 15.495 -9 16 C-8.67 11.05 -8.34 6.1 -8 1 C-5.07175348 0.02391783 -3.04386724 -0.08226668 0 0 Z " fill="#404040" transform="translate(68,55)"/>
<path d="M0 0 C0.99 0.33 1.98 0.66 3 1 C2.67 3.97 2.34 6.94 2 10 C0.68 10 -0.64 10 -2 10 C-1.85950482 8.52031676 -1.71245174 7.04125484 -1.5625 5.5625 C-1.48128906 4.73878906 -1.40007813 3.91507812 -1.31640625 3.06640625 C-1 1 -1 1 0 0 Z " fill="#373737" transform="translate(28,90)"/>
<path d="M0 0 C0.33 1.32 0.66 2.64 1 4 C1.66 4 2.32 4 3 4 C2.01 6.97 1.02 9.94 0 13 C-0.99 13 -1.98 13 -3 13 C-2.01 8.71 -1.02 4.42 0 0 Z " fill="#676150" transform="translate(13,86)"/>
<path d="M0 0 C2.875 0.3125 2.875 0.3125 6 1 C6.66 1.99 7.32 2.98 8 4 C7.34 4 6.68 4 6 4 C5.67 4.66 5.34 5.32 5 6 C3.906875 5.979375 2.81375 5.95875 1.6875 5.9375 C-1.94384191 5.81455548 -1.94384191 5.81455548 -5 7 C-5 6.34 -5 5.68 -5 5 C-3.02 4.01 -1.04 3.02 1 2 C0.67 1.34 0.34 0.68 0 0 Z " fill="#9B9A97" transform="translate(44,56)"/>
<path d="M0 0 C0.99 1.32 1.98 2.64 3 4 C2.34 5.32 1.68 6.64 1 8 C-1.31 7.34 -3.62 6.68 -6 6 C-6 5.34 -6 4.68 -6 4 C-4.35 3.67 -2.7 3.34 -1 3 C-0.67 2.01 -0.34 1.02 0 0 Z " fill="#2C2C2B" transform="translate(124,44)"/>
<path d="M0 0 C1.15941038 3.47823115 0.70820884 5.45895578 0 9 C-1.98 8.34 -3.96 7.68 -6 7 C-5.8125 4.625 -5.8125 4.625 -5 2 C-2.4375 0.6875 -2.4375 0.6875 0 0 Z " fill="#ABABAB" transform="translate(72,73)"/>
<path d="M0 0 C0.33 0.66 0.66 1.32 1 2 C3.52733235 2.65555119 3.52733235 2.65555119 6 3 C6.33 4.65 6.66 6.3 7 8 C5.68127338 7.60348083 4.37002899 7.18201309 3.0625 6.75 C1.96615234 6.40195313 1.96615234 6.40195313 0.84765625 6.046875 C-1 5 -1 5 -1.75390625 2.890625 C-1.83511719 2.26671875 -1.91632813 1.6428125 -2 1 C-1.34 0.67 -0.68 0.34 0 0 Z " fill="#777777" transform="translate(121,79)"/>
<path d="M0 0 C3.2542015 2.83430453 4.5206753 4.68607774 5 9 C3.25 10.5625 3.25 10.5625 1 12 C-1.25 11.6875 -1.25 11.6875 -3 11 C-2.01 11 -1.02 11 0 11 C0.33 8.36 0.66 5.72 1 3 C0.34 2.67 -0.32 2.34 -1 2 C-0.67 1.34 -0.34 0.68 0 0 Z " fill="#909090" transform="translate(136,70)"/>
<path d="M0 0 C3.82601307 1.45124634 5.22329124 3.35774704 7 7 C7 7.99 7 8.98 7 10 C6.34 10 5.68 10 5 10 C5 9.34 5 8.68 5 8 C4.360625 7.79375 3.72125 7.5875 3.0625 7.375 C1 6 1 6 0.25 2.875 C0.1675 1.92625 0.085 0.9775 0 0 Z " fill="#333026" transform="translate(140,56)"/>
<path d="M0 0 C2.97 0.99 5.94 1.98 9 3 C9 3.99 9 4.98 9 6 C3.375 6.25 3.375 6.25 0 4 C0 2.68 0 1.36 0 0 Z " fill="#585858" transform="translate(82,89)"/>
<path d="M0 0 C0.66 0.66 1.32 1.32 2 2 C1.34 2 0.68 2 0 2 C0 2.66 0 3.32 0 4 C-0.66 4 -1.32 4 -2 4 C-1.67 5.32 -1.34 6.64 -1 8 C-2.65 8.33 -4.3 8.66 -6 9 C-6.66 7.35 -7.32 5.7 -8 4 C-7.34 3.67 -6.68 3.34 -6 3 C-5.01 3.33 -4.02 3.66 -3 4 C-2.67 3.34 -2.34 2.68 -2 2 C-1.34 1.34 -0.68 0.68 0 0 Z " fill="#363636" transform="translate(147,78)"/>
<path d="M0 0 C0.33 0 0.66 0 1 0 C1.33 1.98 1.66 3.96 2 6 C2.33 6 2.66 6 3 6 C2.67 9.63 2.34 13.26 2 17 C1.34 15.68 0.68 14.36 0 13 C-0.99 13.495 -0.99 13.495 -2 14 C-1.34 9.38 -0.68 4.76 0 0 Z " fill="#A0A0A0" transform="translate(78,69)"/>
<path d="M0 0 C2 2 2 2 2.125 4.625 C2.08375 5.40875 2.0425 6.1925 2 7 C1.34 7 0.68 7 0 7 C-0.33 7.66 -0.66 8.32 -1 9 C-3.31 8.67 -5.62 8.34 -8 8 C-8 7.34 -8 6.68 -8 6 C-2.375 4.875 -2.375 4.875 1 6 C1 5.01 1 4.02 1 3 C-0.32 2.67 -1.64 2.34 -3 2 C-2.01 1.34 -1.02 0.68 0 0 Z " fill="#6C6C6C" transform="translate(45,40)"/>
<path d="M0 0 C0.66 1.32 1.32 2.64 2 4 C2.66 3.67 3.32 3.34 4 3 C4 3.99 4 4.98 4 6 C4.66 6 5.32 6 6 6 C6 6.99 6 7.98 6 9 C4.68 9 3.36 9 2 9 C1.67 9.66 1.34 10.32 1 11 C0 10 0 10 -0.09765625 7.71484375 C-0.08605469 6.79832031 -0.07445313 5.88179687 -0.0625 4.9375 C-0.05347656 4.01839844 -0.04445313 3.09929688 -0.03515625 2.15234375 C-0.02355469 1.44207031 -0.01195313 0.73179688 0 0 Z " fill="#81775B" transform="translate(86,30)"/>
<path d="M0 0 C1.9375 0.3125 1.9375 0.3125 4 1 C4.33 1.99 4.66 2.98 5 4 C1.49223216 5.60355101 -1.14354879 6.22036864 -5 6 C-4.01 5.67 -3.02 5.34 -2 5 C-0.78130071 2.49552484 -0.78130071 2.49552484 0 0 Z " fill="#959595" transform="translate(69,86)"/>
<path d="M0 0 C2 2 2 2 2.125 5.125 C2.08375 6.07375 2.0425 7.0225 2 8 C-0.31 8.33 -2.62 8.66 -5 9 C-4.01 8.67 -3.02 8.34 -2 8 C-2 7.34 -2 6.68 -2 6 C-2.99 6.33 -3.98 6.66 -5 7 C-5 5.68 -5 4.36 -5 3 C-3.68 3.66 -2.36 4.32 -1 5 C-0.67 3.35 -0.34 1.7 0 0 Z " fill="#838383" transform="translate(72,76)"/>
<path d="M0 0 C1.42944945 2.35438733 2.08661261 3.48032433 1.625 6.25 C1.41875 6.8275 1.2125 7.405 1 8 C-0.32 7.67 -1.64 7.34 -3 7 C-3 6.34 -3 5.68 -3 5 C-3.99 4.34 -4.98 3.68 -6 3 C-4.02 2.01 -2.04 1.02 0 0 Z " fill="#101010" transform="translate(106,92)"/>
<path d="M0 0 C1.15957207 3.47871621 0.77456651 4.34219645 -0.4375 7.6875 C-0.72496094 8.49574219 -1.01242188 9.30398437 -1.30859375 10.13671875 C-1.53675781 10.75160156 -1.76492187 11.36648437 -2 12 C-3.65 12 -5.3 12 -7 12 C-6.01 11.67 -5.02 11.34 -4 11 C-3.26733263 8.95811462 -3.26733263 8.95811462 -2.9375 6.5625 C-2.2027027 2.2027027 -2.2027027 2.2027027 0 0 Z " fill="#585858" transform="translate(19,88)"/>
<path d="M0 0 C-0.66 0 -1.32 0 -2 0 C-1.67 0.66 -1.34 1.32 -1 2 C-0.960008 3.99960012 -0.95653201 6.00047242 -1 8 C-1.99 7.67 -2.98 7.34 -4 7 C-5.1875 3.4375 -5.1875 3.4375 -6 0 C-3 -1 -3 -1 0 0 Z " fill="#CACACA" transform="translate(125,72)"/>
<path d="M0 0 C0.99 0 1.98 0 3 0 C4.25541557 3.76624671 3.37061958 5.37188934 2 9 C0.5 7.8125 0.5 7.8125 -1 6 C-1.25 3.375 -1.25 3.375 -1 1 C-0.67 0.67 -0.34 0.34 0 0 Z " fill="#616161" transform="translate(135,53)"/>
<path d="M0 0 C-1.20381448 2.49361571 -2.45428722 4.68143083 -4 7 C-4.66 7 -5.32 7 -6 7 C-6 5.68 -6 4.36 -6 3 C-6.99 3 -7.98 3 -9 3 C-9.33 2.34 -9.66 1.68 -10 1 C-3.375 0 -3.375 0 0 0 Z " fill="#898989" transform="translate(99,53)"/>
<path d="M0 0 C-1 1.5 -1 1.5 -3 3 C-5.66666667 3 -8.33333333 3 -11 3 C-12.87890434 4.37506099 -12.87890434 4.37506099 -14 6 C-14.66 6 -15.32 6 -16 6 C-16 5.34 -16 4.68 -16 4 C-15.34 4 -14.68 4 -14 4 C-13.67 3.01 -13.34 2.02 -13 1 C-8.62426048 0.40667939 -4.42471556 -0.13827236 0 0 Z " fill="#2D2D2D" transform="translate(35,77)"/>
<path d="M0 0 C2.0357824 4.07156479 3.12165065 6.51124928 3.0625 11.125 C3.05347656 12.03507812 3.04445313 12.94515625 3.03515625 13.8828125 C3.02355469 14.58148438 3.01195313 15.28015625 3 16 C0.3668962 12.05034431 -0.12274339 9.45124115 -0.0625 4.8125 C-0.05347656 3.91144531 -0.04445313 3.01039062 -0.03515625 2.08203125 C-0.02355469 1.39496094 -0.01195313 0.70789062 0 0 Z " fill="#1B1B1B" transform="translate(105,60)"/>
<path d="M0 0 C2.5 1.3125 2.5 1.3125 5 3 C5 3.99 5 4.98 5 6 C5.99 6.33 6.98 6.66 8 7 C5.03 6.505 5.03 6.505 2 6 C2 7.65 2 9.3 2 11 C1.67 11 1.34 11 1 11 C0.67 7.37 0.34 3.74 0 0 Z " fill="#9C9C9C" transform="translate(36,51)"/>
<path d="M0 0 C1.32 0 2.64 0 4 0 C4.25 2.8125 4.25 2.8125 4 6 C2 7.875 2 7.875 0 9 C0 6.03 0 3.06 0 0 Z " fill="#2D2D2D" transform="translate(129,53)"/>
<path d="M0 0 C-0.66 0.66 -1.32 1.32 -2 2 C-1.67 2.66 -1.34 3.32 -1 4 C-1.61875 4.12375 -2.2375 4.2475 -2.875 4.375 C-5.19120832 4.87197356 -5.19120832 4.87197356 -7 7 C-7.66 5.68 -8.32 4.36 -9 3 C-5.92807025 0.26939578 -4.09590633 -0.34132553 0 0 Z " fill="#413D31" transform="translate(43,32)"/>
<path d="M0 0 C0.99 0 1.98 0 3 0 C5.27678571 8.03571429 5.27678571 8.03571429 4 12 C4.66 12.33 5.32 12.66 6 13 C5.01 13 4.02 13 3 13 C2.81824219 11.95199219 2.81824219 11.95199219 2.6328125 10.8828125 C2.46523438 9.97273438 2.29765625 9.06265625 2.125 8.125 C1.96257813 7.22007813 1.80015625 6.31515625 1.6328125 5.3828125 C1.16955297 2.83494012 1.16955297 2.83494012 -1 1 C-0.67 0.67 -0.34 0.34 0 0 Z " fill="#888888" transform="translate(35,75)"/>
<path d="M0 0 C1.98 0 3.96 0 6 0 C5.01 0.66 4.02 1.32 3 2 C2.74984127 5.58357241 2.74984127 5.58357241 3 9 C2.360625 9.12375 1.72125 9.2475 1.0625 9.375 C0.381875 9.58125 -0.29875 9.7875 -1 10 C-1.33 10.66 -1.66 11.32 -2 12 C-2 10.35 -2 8.7 -2 7 C-1.34 7 -0.68 7 0 7 C0 4.69 0 2.38 0 0 Z " fill="#171717" transform="translate(132,52)"/>
<path d="M0 0 C0.33 0 0.66 0 1 0 C1.103125 1.0725 1.20625 2.145 1.3125 3.25 C1.97400493 6.85820872 2.57483421 8.36395023 5 11 C4.01 11 3.02 11 2 11 C2 11.66 2 12.32 2 13 C1.01 12.67 0.02 12.34 -1 12 C-0.67 8.04 -0.34 4.08 0 0 Z " fill="#232323" transform="translate(58,45)"/>
<path d="M0 0 C1.98 0 3.96 0 6 0 C6 1.65 6 3.3 6 5 C5.01 5.33 4.02 5.66 3 6 C3 5.34 3 4.68 3 4 C1.68 4 0.36 4 -1 4 C-0.67 2.68 -0.34 1.36 0 0 Z " fill="#807967" transform="translate(96,37)"/>
<path d="M0 0 C0.99 0.33 1.98 0.66 3 1 C2.67 3.97 2.34 6.94 2 10 C1.01 10 0.02 10 -1 10 C-0.67 6.7 -0.34 3.4 0 0 Z " fill="#686868" transform="translate(24,90)"/>
<path d="M0 0 C0.33 0 0.66 0 1 0 C1 2.97 1 5.94 1 9 C-0.65 9 -2.3 9 -4 9 C-3.34 7.02 -2.68 5.04 -2 3 C-1.34 3 -0.68 3 0 3 C0 2.01 0 1.02 0 0 Z " fill="#959595" transform="translate(109,80)"/>
<path d="M0 0 C0.33 0 0.66 0 1 0 C1.1953125 2.01822917 1.390625 4.03645833 1.5859375 6.0546875 C1.86374749 8.22668245 1.86374749 8.22668245 4 10 C3.34 10 2.68 10 2 10 C2.33 11.98 2.66 13.96 3 16 C2.34 16 1.68 16 1 16 C-0.12862175 10.63904667 -0.09688221 5.44693314 0 0 Z " fill="#303030" transform="translate(53,68)"/>
<path d="M0 0 C0.99 0.33 1.98 0.66 3 1 C3.1875 3.8125 3.1875 3.8125 3 7 C2.01 7.99 1.02 8.98 0 10 C0 6.7 0 3.4 0 0 Z " fill="#BDBDBD" transform="translate(110,54)"/>
<path d="M0 0 C1.98 0.495 1.98 0.495 4 1 C3.67 2.98 3.34 4.96 3 7 C2.01 7.33 1.02 7.66 0 8 C-1.125 2.25 -1.125 2.25 0 0 Z " fill="#31302F" transform="translate(83,51)"/>
<path d="M0 0 C0.66 0.33 1.32 0.66 2 1 C2.625 3.0625 2.625 3.0625 3 5 C1.68 5 0.36 5 -1 5 C-1 7.64 -1 10.28 -1 13 C-1.33 13 -1.66 13 -2 13 C-2.05416188 11.39620659 -2.09286638 9.79188594 -2.125 8.1875 C-2.14820313 7.29417969 -2.17140625 6.40085937 -2.1953125 5.48046875 C-2 3 -2 3 0 0 Z " fill="#545454" transform="translate(35,87)"/>
<path d="M0 0 C0.598125 0.20625 1.19625 0.4125 1.8125 0.625 C0.8225 1.12 0.8225 1.12 -0.1875 1.625 C0.4725 2.285 1.1325 2.945 1.8125 3.625 C-0.89629335 4.97939668 -3.19683268 4.69001451 -6.1875 4.625 C-5.03076352 1.15479057 -3.91311293 -0.67081936 0 0 Z " fill="#ADADAD" transform="translate(30.1875,72.375)"/>
<path d="M0 0 C0.33 0 0.66 0 1 0 C1 3.63 1 7.26 1 11 C0.34 11 -0.32 11 -1 11 C-1.22174933 9.54364629 -1.42698698 8.08477044 -1.625 6.625 C-1.74101563 5.81289063 -1.85703125 5.00078125 -1.9765625 4.1640625 C-1.98429687 3.44992188 -1.99203125 2.73578125 -2 2 C-1.34 1.34 -0.68 0.68 0 0 Z " fill="#B6B3AB" transform="translate(80,54)"/>
<path d="M0 0 C0.33 0 0.66 0 1 0 C1.05447047 1.41623216 1.09300508 2.83308191 1.125 4.25 C1.14820312 5.03890625 1.17140625 5.8278125 1.1953125 6.640625 C0.9828378 9.20731941 0.28654105 10.7916067 -1 13 C-1.66 13 -2.32 13 -3 13 C-3.125 10.625 -3.125 10.625 -3 8 C-2.34 7.34 -1.68 6.68 -1 6 C-0.60235737 4.01178687 -0.26224651 2.01055661 0 0 Z " fill="#202020" transform="translate(71,46)"/>
<path d="M0 0 C1.98 0 3.96 0 6 0 C6.33 0.99 6.66 1.98 7 3 C6 4 6 4 3.4375 4.0625 C2.2309375 4.0315625 2.2309375 4.0315625 1 4 C0.67 2.68 0.34 1.36 0 0 Z " fill="#BABABA" transform="translate(62,40)"/>
<path d="M0 0 C0.99 0.33 1.98 0.66 3 1 C3.33 3.31 3.66 5.62 4 8 C2.68 8 1.36 8 0 8 C0 5.36 0 2.72 0 0 Z " fill="#434343" transform="translate(121,92)"/>
<path d="M0 0 C0.66 0 1.32 0 2 0 C2.33 2.97 2.66 5.94 3 9 C2.01 9.33 1.02 9.66 0 10 C0 6.7 0 3.4 0 0 Z " fill="#B7A575" transform="translate(107,90)"/>
<path d="M0 0 C-0.33 0.99 -0.66 1.98 -1 3 C-3.31 3 -5.62 3 -8 3 C-7.67 2.01 -7.34 1.02 -7 0 C-4.05610218 -1.17755913 -3.10046087 -1.03348696 0 0 Z " fill="#585858" transform="translate(100,92)"/>
<path d="M0 0 C2.31 0.66 4.62 1.32 7 2 C7 2.99 7 3.98 7 5 C7.66 5.66 8.32 6.32 9 7 C6.69 7 4.38 7 2 7 C2.99 6.67 3.98 6.34 5 6 C3.36587557 4.29159719 2.13093906 3.06546953 0 2 C0 1.34 0 0.68 0 0 Z " fill="#989898" transform="translate(88,85)"/>
<path d="M0 0 C0 0.66 0 1.32 0 2 C0.66 2.33 1.32 2.66 2 3 C-1 5 -1 5 -3.0625 4.75 C-5 4 -5 4 -7 2 C-2.25 0 -2.25 0 0 0 Z " fill="#969696" transform="translate(35,72)"/>
<path d="M0 0 C3.3 0.66 6.6 1.32 10 2 C10 2.33 10 2.66 10 3 C5.545 3.495 5.545 3.495 1 4 C0.67 5.32 0.34 6.64 0 8 C-0.79953138 4.71303767 -1.09658936 3.28976808 0 0 Z " fill="#534C39" transform="translate(127,49)"/>
<path d="M0 0 C2 3 2 3 1.625 5.1875 C1.41875 5.785625 1.2125 6.38375 1 7 C-1.31 6.34 -3.62 5.68 -6 5 C-5.38125 4.731875 -4.7625 4.46375 -4.125 4.1875 C-1.7004767 3.04443152 -1.7004767 3.04443152 0 0 Z " fill="#2D2C2B" transform="translate(98,44)"/>
<path d="M0 0 C1.32 0 2.64 0 4 0 C4.36923077 4.55384615 4.36923077 4.55384615 2.5 6.8125 C2.005 7.204375 1.51 7.59625 1 8 C0.34 7.34 -0.32 6.68 -1 6 C-0.34 5.34 0.32 4.68 1 4 C0.6814823 1.89179203 0.6814823 1.89179203 0 0 Z " fill="#757575" transform="translate(121,39)"/>
<path d="M0 0 C0.66 0 1.32 0 2 0 C2.33 1.65 2.66 3.3 3 5 C0.69 5.33 -1.62 5.66 -4 6 C-3.6875 4.0625 -3.6875 4.0625 -3 2 C-2.01 1.67 -1.02 1.34 0 1 C0 0.67 0 0.34 0 0 Z " fill="#BBBBBB" transform="translate(39,40)"/>
<path d="M0 0 C2.91387197 0.2913872 3.82565583 0.79452294 5.75 3.0625 C6.1625 3.701875 6.575 4.34125 7 5 C6.67 5.66 6.34 6.32 6 7 C2.31197956 5.77065985 1.27643027 4.06140622 -1 1 C-0.67 0.67 -0.34 0.34 0 0 Z " fill="#22201C" transform="translate(41,33)"/>
<path d="M0 0 C1.32 0.33 2.64 0.66 4 1 C3.34 3.31 2.68 5.62 2 8 C1.34 8 0.68 8 0 8 C0 5.36 0 2.72 0 0 Z " fill="#0C0C0C" transform="translate(34,92)"/>
<path d="M0 0 C2 2 2 2 2 6 C2.66 6.33 3.32 6.66 4 7 C2.0625 7.5625 2.0625 7.5625 0 8 C-0.33 7.67 -0.66 7.34 -1 7 C-0.71269945 4.66055264 -0.38063221 2.3260857 0 0 Z " fill="#BABABA" transform="translate(50,73)"/>
<path d="M0 0 C1.32 0 2.64 0 4 0 C2.515 5.445 2.515 5.445 1 11 C0.34 11 -0.32 11 -1 11 C-0.01 8.03 0.98 5.06 2 2 C1.34 2 0.68 2 0 2 C0 1.34 0 0.68 0 0 Z " fill="#404040" transform="translate(14,88)"/>
<path d="M0 0 C0.33 0.66 0.66 1.32 1 2 C0.06553465 4.03144641 -0.93224776 6.03533587 -2 8 C-2.66 8 -3.32 8 -4 8 C-4.33 6.35 -4.66 4.7 -5 3 C-3.35 2.01 -1.7 1.02 0 0 Z " fill="#7D7D7D" transform="translate(106,75)"/>
<path d="M0 0 C0.33 0 0.66 0 1 0 C1.05416188 1.60379341 1.09286638 3.20811406 1.125 4.8125 C1.14820313 5.70582031 1.17140625 6.59914063 1.1953125 7.51953125 C1 10 1 10 -1 13 C-1.99 12.67 -2.98 12.34 -4 12 C-3.34 12 -2.68 12 -2 12 C-1.1558062 8.02022924 -0.55312735 4.02992782 0 0 Z " fill="#616161" transform="translate(58,72)"/>
<path d="M0 0 C1.32 0 2.64 0 4 0 C4 1.32 4 2.64 4 4 C4.99 4.33 5.98 4.66 7 5 C5.35 5.33 3.7 5.66 2 6 C1.34 4.02 0.68 2.04 0 0 Z " fill="#5B5B5B" transform="translate(39,51)"/>
<path d="M0 0 C0.99 0 1.98 0 3 0 C3.33 1.32 3.66 2.64 4 4 C2.35 4.33 0.7 4.66 -1 5 C-1 1 -1 1 0 0 Z " fill="#969696" transform="translate(118,43)"/>
<path d="M0 0 C1.5 1.25 1.5 1.25 3 3 C3 4.32 3 5.64 3 7 C1.35 7 -0.3 7 -2 7 C-1.67 6.21625 -1.34 5.4325 -1 4.625 C0.11866511 2.15667503 0.11866511 2.15667503 0 0 Z " fill="#6C6C6C" transform="translate(68,40)"/>
<path d="M0 0 C0.66 0.33 1.32 0.66 2 1 C2 1.99 2 2.98 2 4 C2.66 4 3.32 4 4 4 C4.33 3.34 4.66 2.68 5 2 C5.66 2.66 6.32 3.32 7 4 C4 6 4 6 1.3125 5.625 C0.549375 5.41875 -0.21375 5.2125 -1 5 C-0.67 3.35 -0.34 1.7 0 0 Z " fill="#222222" transform="translate(139,83)"/>
<path d="M0 0 C0.99 0 1.98 0 3 0 C2.91291331 1.45945288 2.80473093 2.91765868 2.6875 4.375 C2.62949219 5.18710938 2.57148437 5.99921875 2.51171875 6.8359375 C2 9 2 9 -1 11 C-0.67 7.37 -0.34 3.74 0 0 Z " fill="#535353" transform="translate(31,79)"/>
<path d="M0 0 C0.33 1.32 0.66 2.64 1 4 C-0.98 5.32 -2.96 6.64 -5 8 C-3.8141763 4.62496331 -2.72426311 2.35277269 0 0 Z " fill="#BEB9AC" transform="translate(22,56)"/>
<path d="M0 0 C0.66 0.33 1.32 0.66 2 1 C1.34 3.64 0.68 6.28 0 9 C-0.66 9 -1.32 9 -2 9 C-2.25 3.375 -2.25 3.375 0 0 Z " fill="#1E1D1A" transform="translate(114,27)"/>
<path d="M0 0 C2.64 0.33 5.28 0.66 8 1 C7.67 2.32 7.34 3.64 7 5 C4.69 4.01 2.38 3.02 0 2 C0 1.34 0 0.68 0 0 Z " fill="#6F6F6F" transform="translate(63,91)"/>
<path d="M0 0 C1.32 0.33 2.64 0.66 4 1 C4.33 2.98 4.66 4.96 5 7 C3.0625 6.3125 3.0625 6.3125 1 5 C0.25 2.375 0.25 2.375 0 0 Z " fill="#252525" transform="translate(38,90)"/>
<path d="M0 0 C2.97 0.495 2.97 0.495 6 1 C6.33 2.32 6.66 3.64 7 5 C2.25 3.125 2.25 3.125 0 2 C0 1.34 0 0.68 0 0 Z " fill="#A9A9A9" transform="translate(53,85)"/>
<path d="M0 0 C-0.33 0.99 -0.66 1.98 -1 3 C-3.0625 3.6875 -3.0625 3.6875 -5 4 C-5.33 2.68 -5.66 1.36 -6 0 C-3.50907189 -1.24546405 -2.58919267 -0.7767578 0 0 Z " fill="#1E1D1B" transform="translate(151,82)"/>
<path d="M0 0 C0 2.31 0 4.62 0 7 C-1.37562854 5.71034824 -2.70766393 4.37310707 -4 3 C-4 2.34 -4 1.68 -4 1 C-2 0 -2 0 0 0 Z " fill="#BDBDBD" transform="translate(18,76)"/>
<path d="M0 0 C1.67542976 0.28604898 3.34385343 0.61781233 5 1 C4.67 1.66 4.34 2.32 4 3 C3.01 3 2.02 3 1 3 C0.67 4.65 0.34 6.3 0 8 C-0.33 8 -0.66 8 -1 8 C-1.04241723 5.66705225 -1.04092937 3.33297433 -1 1 C-0.67 0.67 -0.34 0.34 0 0 Z " fill="#717171" transform="translate(35,40)"/>
<path d="M0 0 C1.76462683 3.08809695 2 4.23312136 2 8 C1.01 8 0.02 8 -1 8 C-1.125 2.25 -1.125 2.25 0 0 Z " fill="#C7C7C7" transform="translate(126,92)"/>
<path d="M0 0 C0.66 0.33 1.32 0.66 2 1 C2 3.31 2 5.62 2 8 C1.01 8 0.02 8 -1 8 C-0.67 5.36 -0.34 2.72 0 0 Z " fill="#6C6C6C" transform="translate(31,92)"/>
<path d="M0 0 C0.66 0 1.32 0 2 0 C2 2.31 2 4.62 2 7 C0.68 7 -0.64 7 -2 7 C-1.34 4.69 -0.68 2.38 0 0 Z " fill="#9D9D9D" transform="translate(102,69)"/>
<path d="M0 0 C1.65 0 3.3 0 5 0 C5 1.32 5 2.64 5 4 C5.99 4.33 6.98 4.66 8 5 C4.97580475 4.41196203 1.98241547 3.77321882 -1 3 C-0.67 2.01 -0.34 1.02 0 0 Z " fill="#4B4B4B" transform="translate(63,55)"/>
<path d="M0 0 C0.66 0 1.32 0 2 0 C2.33 1.65 2.66 3.3 3 5 C2.34 5 1.68 5 1 5 C1 6.65 1 8.3 1 10 C0.67 10 0.34 10 0 10 C0 6.7 0 3.4 0 0 Z " fill="#4F4E4A" transform="translate(24,55)"/>
<path d="M0 0 C0.33 0.66 0.66 1.32 1 2 C1.99 2.33 2.98 2.66 4 3 C4 3.66 4 4.32 4 5 C2.02 5 0.04 5 -2 5 C-2 4.01 -2 3.02 -2 2 C-1.34 2 -0.68 2 0 2 C0 1.34 0 0.68 0 0 Z " fill="#5B5953" transform="translate(114,34)"/>
<path d="M0 0 C2.475 0.495 2.475 0.495 5 1 C5 3.31 5 5.62 5 8 C4.34 7.34 3.68 6.68 3 6 C3 5.01 3 4.02 3 3 C2.34 3 1.68 3 1 3 C0.67 2.01 0.34 1.02 0 0 Z " fill="#070707" transform="translate(122,30)"/>
<path d="M0 0 C0.66 0.33 1.32 0.66 2 1 C1.67 1.66 1.34 2.32 1 3 C2.32 3.33 3.64 3.66 5 4 C2 6 2 6 -2 6 C-1.34 4.02 -0.68 2.04 0 0 Z " fill="#2B2B2B" transform="translate(91,92)"/>
<path d="M0 0 C4.455 0.99 4.455 0.99 9 2 C8.01 3.485 8.01 3.485 7 5 C6.01 5 5.02 5 4 5 C4 4.34 4 3.68 4 3 C2.68 2.34 1.36 1.68 0 1 C0 0.67 0 0.34 0 0 Z " fill="#696251" transform="translate(49,87)"/>
<path d="M0 0 C1.5 1.25 1.5 1.25 3 3 C3 4.32 3 5.64 3 7 C2.01 7 1.02 7 0 7 C0 4.69 0 2.38 0 0 Z " fill="#464646" transform="translate(118,73)"/>
<path d="M0 0 C0.66 0.33 1.32 0.66 2 1 C2.625 3.0625 2.625 3.0625 3 5 C0.36 5 -2.28 5 -5 5 C-3.35 3.35 -1.7 1.7 0 0 Z " fill="#4A4A4A" transform="translate(130,64)"/>
<path d="M0 0 C1.423125 0.2784375 1.423125 0.2784375 2.875 0.5625 C5.89868793 1.28686632 5.89868793 1.28686632 8 0 C7.34 1.32 6.68 2.64 6 4 C4.35 3.67 2.7 3.34 1 3 C0.67 2.01 0.34 1.02 0 0 Z " fill="#B3B3B3" transform="translate(61,52)"/>
<path d="M0 0 C1.32 0.66 2.64 1.32 4 2 C4 2.99 4 3.98 4 5 C2.68 5 1.36 5 0 5 C-0.5625 3.0625 -0.5625 3.0625 -1 1 C-0.67 0.67 -0.34 0.34 0 0 Z " fill="#808080" transform="translate(61,42)"/>
<path d="M0 0 C0 0.66 0 1.32 0 2 C-2.64 2 -5.28 2 -8 2 C-7 0 -7 0 -5.125 -0.6875 C-3 -1 -3 -1 0 0 Z " fill="#1C1C1C" transform="translate(123,31)"/>
</svg>
