<?xml version="1.0" encoding="UTF-8"?>
<svg version="1.1" xmlns="http://www.w3.org/2000/svg" width="160" height="100">
<path d="M0 0 C52.8 0 105.6 0 160 0 C160 33 160 66 160 100 C107.2 100 54.4 100 0 100 C0 67 0 34 0 0 Z " fill="#FEB900" transform="translate(0,0)"/>
<path d="M0 0 C2.875 1.3125 2.875 1.3125 5 3 C6.80498095 8.41494284 7.12444495 14.99493313 5.10546875 20.390625 C4.39228049 21.71115732 3.66532669 23.02439087 2.921875 24.328125 C1.86098595 26.10073873 1.86098595 26.10073873 1.25 28.6875 C2.36488532 32.12506308 4.62846105 33.12941903 7.69140625 34.87109375 C9.90955705 35.95577324 12.11543741 36.85189339 14.4375 37.6875 C18 39 18 39 19 41 C19.039992 42.99960012 19.04346799 45.00047242 19 47 C17 47 15 47 13 47 C11.59431196 48.94982535 10.2704964 50.95950578 9 53 C7.67618483 54.67423683 6.34423339 56.34211215 5 58 C1.84068791 62.20894625 1.84068791 62.20894625 2 74 C-39.25 74 -80.5 74 -123 74 C-132.1336478 49.64360587 -132.1336478 49.64360587 -130 40 C-127.15539503 36.04944554 -123.90923238 32.89667711 -120 30 C-119.34 30 -118.68 30 -118 30 C-119.2375 28.576875 -119.2375 28.576875 -120.5 27.125 C-123.76555273 22.56432721 -123.68726115 18.42668548 -123 13 C-122.125 9.4375 -122.125 9.4375 -121 7 C-115.94007398 4.47003699 -108.07581487 5.45802896 -102.75 7 C-101.8425 7.33 -100.935 7.66 -100 8 C-99.80664062 8.89203125 -99.61328125 9.7840625 -99.4140625 10.703125 C-99.02347656 12.45882812 -99.02347656 12.45882812 -98.625 14.25 C-98.36976562 15.41015625 -98.11453125 16.5703125 -97.8515625 17.765625 C-97.14203595 20.46052401 -96.36903611 22.59525832 -95 25 C-95.66 25 -96.32 25 -97 25 C-97 25.66 -97 26.32 -97 27 C-95.6078125 27.0928125 -95.6078125 27.0928125 -94.1875 27.1875 C-91 28 -91 28 -89.3125 30 C-87.59662823 33.92199262 -86.2697926 37.91524549 -85 42 C-84.67 42.99 -84.34 43.98 -84 45 C-84.495 45.99 -84.495 45.99 -85 47 C-84.34 46.67 -83.68 46.34 -83 46 C-82.731875 44.7625 -82.46375 43.525 -82.1875 42.25 C-81.16613242 37.8838485 -79.59571567 35.81403835 -76 33 C-73.92095791 31.8741791 -71.83448378 30.84981896 -69.671875 29.89453125 C-67.81273058 29.10684401 -67.81273058 29.10684401 -67 27 C-66.66659529 24.04195427 -66.66659529 24.04195427 -67 21 C-67.48082031 20.56300781 -67.96164063 20.12601563 -68.45703125 19.67578125 C-71.70276383 16.15066916 -71.17829794 10.5619681 -71 6 C-69.625 2.75 -69.625 2.75 -67 1 C-62.15945413 0.00072064 -58.85350879 0.54276315 -54.5 2.875 C-52 5 -52 5 -51 7 C-50.87672071 9.10148182 -50.82441994 11.20743907 -50.8125 13.3125 C-50.79832031 14.44300781 -50.78414063 15.57351562 -50.76953125 16.73828125 C-50.99519863 19.93204843 -51.63657346 22.1276429 -53 25 C-52.23816406 24.95359375 -51.47632812 24.9071875 -50.69140625 24.859375 C-41.23261227 24.52873052 -41.23261227 24.52873052 -36.6875 27.0625 C-30.56101435 30.29592298 -23.62714585 28.80329041 -17 28 C-17.99 26.515 -17.99 26.515 -19 25 C-19 22.66666667 -19 20.33333333 -19 18 C-19.89363605 15.39068734 -19.89363605 15.39068734 -21 13 C-21.8125 10.375 -21.8125 10.375 -22 8 C-19.99028144 5.49101174 -18.07525401 4.44946152 -15.0625 3.4375 C-12.85765773 2.67582721 -10.96384283 1.97918224 -8.9375 0.8125 C-5.86474083 -0.47607643 -3.28676805 -0.28831299 0 0 Z " fill="#ABA9A2" transform="translate(139,26)"/>
<path d="M0 0 C0.9075 0.33 1.815 0.66 2.75 1 C2.94335938 1.89203125 3.13671875 2.7840625 3.3359375 3.703125 C3.72652344 5.45882812 3.72652344 5.45882812 4.125 7.25 C4.38023438 8.41015625 4.63546875 9.5703125 4.8984375 10.765625 C5.60796405 13.46052401 6.38096389 15.59525832 7.75 18 C7.09 18 6.43 18 5.75 18 C5.41048381 19.56116819 5.07867456 21.12401338 4.75 22.6875 C4.564375 23.55761719 4.37875 24.42773438 4.1875 25.32421875 C3.76027953 27.93712964 3.67383799 30.35813038 3.75 33 C4.74 32.505 4.74 32.505 5.75 32 C5.255 29.03 5.255 29.03 4.75 26 C8.75 26 8.75 26 10.5 27.5625 C12.15926837 30.79807331 11.81428855 33.39984116 11.75 37 C12.63064927 39.35369807 12.63064927 39.35369807 13.75 41 C12.76 41.495 12.76 41.495 11.75 42 C11.75 42.66 11.75 43.32 11.75 44 C17.83650115 42.15231215 21.48256695 39.82469992 25.98828125 35.328125 C26.56964844 34.88984375 27.15101562 34.4515625 27.75 34 C31.24107379 35.16369126 31.60222763 35.88973538 33.4375 38.9375 C33.87449219 39.64777344 34.31148437 40.35804687 34.76171875 41.08984375 C35.75 43 35.75 43 35.75 45 C36.74 45.33 37.73 45.66 38.75 46 C38.75 46.66 38.75 47.32 38.75 48 C37.76 48.66 36.77 49.32 35.75 50 C40.64562693 48.12297673 40.64562693 48.12297673 44.75 45 C46.703125 44.21875 46.703125 44.21875 49 43.5 C49.80824219 43.24347656 50.61648437 42.98695312 51.44921875 42.72265625 C52.20847656 42.48417969 52.96773438 42.24570313 53.75 42 C54.760625 41.649375 55.77125 41.29875 56.8125 40.9375 C60.42595532 39.78426958 64.06297843 38.88997072 67.75 38 C67.75 37.34 67.75 36.68 67.75 36 C70.06 36 72.37 36 74.75 36 C73.76 37.32 72.77 38.64 71.75 40 C82.51130278 43.61512515 92.44201205 45 103.75 45 C104 50.625 104 50.625 101.75 54 C94.18860841 52.31791077 87.40459513 49.7005032 80.49804688 46.24975586 C75.8642178 44.06097899 72.90047391 43.7991123 67.75 45 C68.245 44.01 68.245 44.01 68.75 43 C67.1 43 65.45 43 63.75 43 C63.75 50.92 63.75 58.84 63.75 67 C36.03 67 8.31 67 -20.25 67 C-29.3836478 42.64360587 -29.3836478 42.64360587 -27.25 33 C-24.40539503 29.04944554 -21.15923238 25.89667711 -17.25 23 C-16.59 23 -15.93 23 -15.25 23 C-16.4875 21.576875 -16.4875 21.576875 -17.75 20.125 C-21.01555273 15.56432721 -20.93726115 11.42668548 -20.25 6 C-19.375 2.4375 -19.375 2.4375 -18.25 0 C-13.19007398 -2.52996301 -5.32581487 -1.54197104 0 0 Z " fill="#5C5C5C" transform="translate(36.25,33)"/>
<path d="M0 0 C2.31 0 4.62 0 7 0 C6.01 1.32 5.02 2.64 4 4 C14.76130278 7.61512515 24.69201205 9 36 9 C36.25 14.625 36.25 14.625 34 18 C26.43860841 16.31791077 19.65459513 13.7005032 12.74804688 10.24975586 C8.1142178 8.06097899 5.15047391 7.7991123 0 9 C0.33 8.34 0.66 7.68 1 7 C-0.65 7 -2.3 7 -4 7 C-4 14.92 -4 22.84 -4 31 C-17.86 31 -31.72 31 -46 31 C-48.01094018 25.97264956 -48.08031762 25.68137633 -47 21 C-47.33135081 19.6661726 -47.66495315 18.33290378 -48 17 C-48.06548492 15.41788427 -48.08578381 13.83329919 -48.0625 12.25 C-48.05347656 11.45078125 -48.04445312 10.6515625 -48.03515625 9.828125 C-48.02355469 9.22484375 -48.01195312 8.6215625 -48 8 C-46.56359829 7.80426392 -45.12580496 7.61872184 -43.6875 7.4375 C-42.88699219 7.33308594 -42.08648437 7.22867188 -41.26171875 7.12109375 C-39 7 -39 7 -36 8 C-36.33 9.98 -36.66 11.96 -37 14 C-31.64097277 13.54584515 -28.55455697 12.92792948 -24 10 C-16.19194634 6.57657006 -8.27726511 3.99796054 0 2 C0 1.34 0 0.68 0 0 Z " fill="#616161" transform="translate(104,69)"/>
<path d="M0 0 C0.66 0 1.32 0 2 0 C6.23699588 0.61384039 9.73748769 2.11114001 13.625 3.875 C19.61988613 6.53886308 25.61145873 8.51368632 32 10 C32.33 9.34 32.66 8.68 33 8 C33.66 8 34.32 8 35 8 C35.103125 7.21625 35.20625 6.4325 35.3125 5.625 C36 3 36 3 39 1 C39.99 1 40.98 1 42 1 C42 0.34 42 -0.32 42 -1 C42.66 -1 43.32 -1 44 -1 C42.46920333 2.44429252 40.38345294 5.09516673 38 8 C34.84068791 12.20894625 34.84068791 12.20894625 35 24 C21.47 24 7.94 24 -6 24 C-6 16.08 -6 8.16 -6 0 C-3.48314464 -1.25842768 -2.63419763 -0.74086808 0 0 Z " fill="#86847F" transform="translate(106,76)"/>
<path d="M0 0 C5.46341463 2.92682927 5.46341463 2.92682927 7 6 C7.14833651 8.1423215 7.22127413 10.29024129 7.25 12.4375 C7.27578125 13.59121094 7.3015625 14.74492188 7.328125 15.93359375 C7 19 7 19 5.484375 20.91015625 C4.74960938 21.44962891 4.74960938 21.44962891 4 22 C4 21.34 4 20.68 4 20 C2.35 20.33 0.7 20.66 -1 21 C-1 21.99 -1 22.98 -1 24 C-0.34 24.33 0.32 24.66 1 25 C1 24.34 1 23.68 1 23 C1.66 23 2.32 23 3 23 C5.4294516 26.6441774 5.16179575 28.71241272 5 33 C1.21812119 34.83691257 -0.94568308 35.15837626 -5 34 C-5 34.66 -5 35.32 -5 36 C0.354594 35.8028913 0.354594 35.8028913 4.875 33.4375 C5.24625 32.963125 5.6175 32.48875 6 32 C6.66 32 7.32 32 8 32 C8 31.34 8 30.68 8 30 C8.66 30 9.32 30 10 30 C9.34 28.68 8.68 27.36 8 26 C11 27 11 27 12.25 28.75 C13.2057139 31.6171417 12.95081589 33.14755232 12 36 C10.5625 37.8125 10.5625 37.8125 9 39 C8.34 39 7.68 39 7 39 C7.33 39.66 7.66 40.32 8 41 C8.66 41 9.32 41 10 41 C10 40.34 10 39.68 10 39 C11.32 39.66 12.64 40.32 14 41 C14 41.66 14 42.32 14 43 C12.824375 43.5775 11.64875 44.155 10.4375 44.75 C7.60422843 46.1590871 4.85070692 47.6432675 2.125 49.25 C-1 51 -1 51 -3 51 C-3.33 50.34 -3.66 49.68 -4 49 C-4.99 49 -5.98 49 -7 49 C-7.33 47.02 -7.66 45.04 -8 43 C-8.86625 42.9071875 -8.86625 42.9071875 -9.75 42.8125 C-12.88690987 41.67972699 -14.09167504 39.65802405 -16 37 C-14.9171875 37.2784375 -14.9171875 37.2784375 -13.8125 37.5625 C-10.87173027 38.01995307 -8.85896942 37.73516357 -6 37 C-6.495 36.05125 -6.99 35.1025 -7.5 34.125 C-9.27945448 30.08827456 -9.13621092 26.57749656 -8.8125 22.234375 C-8.76296927 19.92598903 -8.76296927 19.92598903 -10.44140625 18.5703125 C-13.30330221 15.68689852 -12.90193231 11.7778648 -13.11328125 7.8984375 C-13 5 -13 5 -11.625 1.75 C-7.77331611 -0.81778926 -4.49439442 -0.86311035 0 0 Z " fill="#6F6F6F" transform="translate(81,27)"/>
<path d="M0 0 C2.875 1.3125 2.875 1.3125 5 3 C6.80099802 8.40299406 7.05826536 14.88807117 5.2109375 20.3203125 C4.21225185 22.26431892 3.11629251 24.12185821 2 26 C1.525625 27.19625 1.05125 28.3925 0.5625 29.625 C-1.81950783 34.77013691 -5.10964652 38.96460819 -10 42 C-10.66 42 -11.32 42 -12 42 C-12.71281039 40.09917229 -13.42538638 38.19825631 -14.13671875 36.296875 C-14.69723088 34.80555767 -15.26208822 33.31586361 -15.83203125 31.828125 C-17.62989789 27.11647449 -18.9709769 22.88298267 -19.4375 17.875 C-19.60626041 13.99494452 -19.60626041 13.99494452 -22 12 C-21.67028521 8.70285207 -21.3773161 7.3773161 -19 5 C-17.1953125 4.21875 -17.1953125 4.21875 -15.125 3.5 C-12.90999369 2.71659561 -10.9774481 1.98701557 -8.9375 0.8125 C-5.86474083 -0.47607643 -3.28676805 -0.28831299 0 0 Z " fill="#464646" transform="translate(139,26)"/>
<path d="M0 0 C1.65 0 3.3 0 5 0 C5.495 1.98 5.495 1.98 6 4 C7.12535156 3.91298828 7.12535156 3.91298828 8.2734375 3.82421875 C16.15763434 3.47667859 21.30339373 4.85165984 28 9 C27.63033201 10.79724763 27.2282752 12.58785578 26.8125 14.375 C26.48185547 15.87160156 26.48185547 15.87160156 26.14453125 17.3984375 C25 20 25 20 22.38671875 21.3515625 C21.20529297 21.67253906 21.20529297 21.67253906 20 22 C20.99 22.66 21.98 23.32 23 24 C19.60236788 26.23272968 16.95639566 27.24640083 13 28 C10.65794699 28.97940398 8.32481174 29.98034573 6 31 C4.96875 31.33 3.9375 31.66 2.875 32 C-0.03387092 32.89253804 -0.03387092 32.89253804 -2.5 34.5625 C-5.35131786 36.20200777 -7.75516724 36.62269387 -11 37 C-7.25 34 -7.25 34 -5 34 C-5.39832031 33.48050781 -5.79664063 32.96101563 -6.20703125 32.42578125 C-9.02177323 28.72073158 -11.71385974 25.06424935 -14 21 C-16.94866234 22.3297889 -19.0003373 23.81655676 -21.3125 26.0625 C-24.85320462 29.21234761 -27.31526502 29.80878633 -32 30 C-32 28.68 -32 27.36 -32 26 C-32.33 25.34 -32.66 24.68 -33 24 C-33.13415472 21.3276379 -33.04318541 18.67749512 -33 16 C-34.32 15.34 -35.64 14.68 -37 14 C-37 13.34 -37 12.68 -37 12 C-37.66 12 -38.32 12 -39 12 C-38.34 14.31 -37.68 16.62 -37 19 C-37.99 19 -38.98 19 -40 19 C-41.0070238 13.96488101 -40.97387813 10.76052962 -39 6 C-35.6875 6.1875 -35.6875 6.1875 -32 7 C-28.64164484 10.83812018 -27.49582343 16.18813426 -26 21 C-25.67 21.99 -25.34 22.98 -25 24 C-25.33 24.66 -25.66 25.32 -26 26 C-25.34 25.67 -24.68 25.34 -24 25 C-23.731875 23.7625 -23.46375 22.525 -23.1875 21.25 C-22.15508712 16.87006657 -20.64654011 14.79309455 -17 12 C-14.06134187 10.4961565 -11.07459123 9.19902359 -8 8 C-7.80664062 8.63808594 -7.61328125 9.27617188 -7.4140625 9.93359375 C-7.02347656 11.17302734 -7.02347656 11.17302734 -6.625 12.4375 C-6.36976562 13.26121094 -6.11453125 14.08492187 -5.8515625 14.93359375 C-5.19117773 17.17798016 -5.19117773 17.17798016 -3 18 C-5.97 18.33 -8.94 18.66 -12 19 C-12 19.33 -12 19.66 -12 20 C-11.21625 20.391875 -10.4325 20.78375 -9.625 21.1875 C-6.36023579 23.44174195 -5.92312936 25.22356171 -5 29 C-4.01 29 -3.02 29 -2 29 C-2 29.66 -2 30.32 -2 31 C-0.22821947 30.043419 1.54239076 29.08467012 3.3125 28.125 C4.29863281 27.59132813 5.28476563 27.05765625 6.30078125 26.5078125 C9.09586458 24.99277874 9.09586458 24.99277874 12 23 C12.99 23 13.98 23 15 23 C13.68 21.68 12.36 20.36 11 19 C11 19.66 11 20.32 11 21 C10.01 21.33 9.02 21.66 8 22 C8 21.01 8 20.02 8 19 C8.66 19 9.32 19 10 19 C10.495 17.515 10.495 17.515 11 16 C11.66 15.67 12.32 15.34 13 15 C12.34414811 11.39007621 12.34414811 11.39007621 11 8 C11 8.66 11 9.32 11 10 C10.34 10 9.68 10 9 10 C9 10.66 9 11.32 9 12 C8.34 12 7.68 12 7 12 C6.67 12.99 6.34 13.98 6 15 C-0.15789474 17.28070175 -0.15789474 17.28070175 -4 16 C-4 15.34 -4 14.68 -4 14 C-0.7 13.67 2.6 13.34 6 13 C5.54177532 9.53058454 5.10868317 6.32604951 4 3 C3.34 3 2.68 3 2 3 C2 3.66 2 4.32 2 5 C1.01 4.67 0.02 4.34 -1 4 C-0.67 2.68 -0.34 1.36 0 0 Z " fill="#94938F" transform="translate(80,47)"/>
<path d="M0 0 C0.9075 0.33 1.815 0.66 2.75 1 C2.94335938 1.89203125 3.13671875 2.7840625 3.3359375 3.703125 C3.72652344 5.45882812 3.72652344 5.45882812 4.125 7.25 C4.38023438 8.41015625 4.63546875 9.5703125 4.8984375 10.765625 C5.60796405 13.46052401 6.38096389 15.59525832 7.75 18 C7.09 18 6.43 18 5.75 18 C4.76 20.97 3.77 23.94 2.75 27 C1.43 27 0.11 27 -1.25 27 C-1.25 29.97 -1.25 32.94 -1.25 36 C-10.39285714 38.28571429 -10.39285714 38.28571429 -14.25 37 C-13.26 36.01 -12.27 35.02 -11.25 34 C-11.724375 33.319375 -12.19875 32.63875 -12.6875 31.9375 C-14.25 29 -14.25 29 -14.625 25.5625 C-15.31209874 21.64603718 -16.54322449 20.55582302 -19.1640625 17.73046875 C-21.39227791 14.17975138 -20.75048723 10.01039769 -20.25 6 C-19.375 2.4375 -19.375 2.4375 -18.25 0 C-13.19007398 -2.52996301 -5.32581487 -1.54197104 0 0 Z " fill="#21201E" transform="translate(36.25,33)"/>
<path d="M0 0 C1 3 1 3 1 5 C-0.32 5 -1.64 5 -3 5 C-2.67 6.32 -2.34 7.64 -2 9 C-2.66 9 -3.32 9 -4 9 C-4 9.66 -4 10.32 -4 11 C-3.01 11 -2.02 11 -1 11 C-0.34 13.31 0.32 15.62 1 18 C0.67 18.33 0.34 18.66 0 19 C0.77988281 19.05671875 1.55976563 19.1134375 2.36328125 19.171875 C5 20 5 20 6.29296875 22.328125 C6.58816406 23.29234375 6.88335937 24.2565625 7.1875 25.25 C7.49042969 26.20390625 7.79335938 27.1578125 8.10546875 28.140625 C8.40066406 29.08421875 8.69585938 30.0278125 9 31 C9.37511719 31.87527344 9.75023438 32.75054687 10.13671875 33.65234375 C11.26757041 36.72764623 10.73079641 38.85757545 10 42 C6.37 42 2.74 42 -1 42 C-1.98611151 39.46083825 -2.96400876 36.9189977 -3.9375 34.375 C-4.21529297 33.66214844 -4.49308594 32.94929688 -4.77929688 32.21484375 C-6.32921784 28.14396699 -7.47405113 24.35103158 -8 20 C-8.12503906 19.03320312 -8.25007812 18.06640625 -8.37890625 17.0703125 C-8.86696011 9.24068252 -8.86696011 9.24068252 -6.21484375 5.4453125 C-4.22821468 3.47620221 -2.22693649 1.69008573 0 0 Z " fill="#7F7F7D" transform="translate(17,58)"/>
<path d="M0 0 C2.31 0 4.62 0 7 0 C6.01 1.32 5.02 2.64 4 4 C14.76130278 7.61512515 24.69201205 9 36 9 C36.25 14.625 36.25 14.625 34 18 C26.43860841 16.31791077 19.65459513 13.7005032 12.74804688 10.24975586 C8.1142178 8.06097899 5.15047391 7.7991123 0 9 C0.33 8.34 0.66 7.68 1 7 C-0.65 7 -2.3 7 -4 7 C-4 14.92 -4 22.84 -4 31 C-9.28 31 -14.56 31 -20 31 C-19 29 -19 29 -16 28 C-15.67 27.01 -15.34 26.02 -15 25 C-13.0625 22.8125 -13.0625 22.8125 -11 21 C-10.34 21 -9.68 21 -9 21 C-8.65725594 19.33524314 -8.32635698 17.66804677 -8 16 C-7.62875 14.5459375 -7.62875 14.5459375 -7.25 13.0625 C-6.93652395 9.22241839 -8.05844258 7.26181647 -10 4 C-8.906875 3.855625 -7.81375 3.71125 -6.6875 3.5625 C-3.06877013 3.11711896 -3.06877013 3.11711896 0 2 C0 1.34 0 0.68 0 0 Z " fill="#6C6B6A" transform="translate(104,69)"/>
<path d="M0 0 C2.48351743 2.48351743 2.98041975 4.66937119 4 8 C4.33 8.99 4.66 9.98 5 11 C4.34 11 3.68 11 3 11 C2.01 13.97 1.02 16.94 0 20 C-1.32 20 -2.64 20 -4 20 C-4 22.97 -4 25.94 -4 29 C-13.14285714 31.28571429 -13.14285714 31.28571429 -17 30 C-16.01 29.01 -15.02 28.02 -14 27 C-14.515625 26.278125 -15.03125 25.55625 -15.5625 24.8125 C-17 22 -17 22 -16.8125 19.4375 C-16.05014293 17.1504288 -15.16971114 15.10548006 -14 13 C-11.69 13 -9.38 13 -7 13 C-6.34 11.68 -5.68 10.36 -5 9 C-4.34 9 -3.68 9 -3 9 C-3.20625 8.401875 -3.4125 7.80375 -3.625 7.1875 C-4 5 -4 5 -2 2 C-1.34 2 -0.68 2 0 2 C0 1.34 0 0.68 0 0 Z " fill="#353535" transform="translate(39,40)"/>
<path d="M0 0 C0.66 0 1.32 0 2 0 C5.73839102 0.4792809 7.62641024 1.04132369 10 4 C10.6171875 6.15625 10.6171875 6.15625 10.875 8.5 C11.02582031 9.66015625 11.02582031 9.66015625 11.1796875 10.84375 C11 13 11 13 9.73828125 14.70703125 C7.08773183 16.67856351 4.17199226 17.22196416 1 18 C1.33 19.98 1.66 21.96 2 24 C-0.64 24 -3.28 24 -6 24 C-6 16.08 -6 8.16 -6 0 C-3.48314464 -1.25842768 -2.63419763 -0.74086808 0 0 Z " fill="#A6A6A5" transform="translate(106,76)"/>
<path d="M0 0 C1.65 0 3.3 0 5 0 C5.33 1.32 5.66 2.64 6 4 C7.12535156 3.91298828 7.12535156 3.91298828 8.2734375 3.82421875 C16.34198718 3.4685522 21.04805125 4.91061838 28 9 C27.01 12.63 26.02 16.26 25 20 C21.0776106 20.98059735 18.01841207 21.21918611 14 21 C13.01 20.34 12.02 19.68 11 19 C11 19.66 11 20.32 11 21 C10.01 21.33 9.02 21.66 8 22 C8 21.01 8 20.02 8 19 C8.66 19 9.32 19 10 19 C10.33 18.01 10.66 17.02 11 16 C11.66 15.67 12.32 15.34 13 15 C12.34414811 11.39007621 12.34414811 11.39007621 11 8 C11 8.66 11 9.32 11 10 C10.34 10 9.68 10 9 10 C9 10.66 9 11.32 9 12 C8.34 12 7.68 12 7 12 C6.67 12.99 6.34 13.98 6 15 C-0.15789474 17.28070175 -0.15789474 17.28070175 -4 16 C-4 15.34 -4 14.68 -4 14 C-0.7 13.67 2.6 13.34 6 13 C5.54177532 9.53058454 5.10868317 6.32604951 4 3 C3.34 3 2.68 3 2 3 C2 3.66 2 4.32 2 5 C1.01 4.67 0.02 4.34 -1 4 C-0.67 2.68 -0.34 1.36 0 0 Z " fill="#8C8B8B" transform="translate(80,47)"/>
<path d="M0 0 C1.43023178 4.67209049 2.40380045 9.13103697 3 14 C1.35 12.35 -0.3 10.7 -2 9 C-2 11.97 -2 14.94 -2 18 C-3.32 17.67 -4.64 17.34 -6 17 C-6.99 17.33 -7.98 17.66 -9 18 C-11.48046875 17.66015625 -11.48046875 17.66015625 -14.1875 17.0625 C-15.08855469 16.86785156 -15.98960938 16.67320313 -16.91796875 16.47265625 C-17.60503906 16.31667969 -18.29210937 16.16070312 -19 16 C-19.33 16.66 -19.66 17.32 -20 18 C-21.98 17.34 -23.96 16.68 -26 16 C-22.91190305 14.23537317 -21.76687864 14 -18 14 C-17.97421875 13.38511719 -17.9484375 12.77023438 -17.921875 12.13671875 C-17.86515625 11.32847656 -17.8084375 10.52023438 -17.75 9.6875 C-17.70359375 8.88699219 -17.6571875 8.08648437 -17.609375 7.26171875 C-17 5 -17 5 -15.33984375 3.28125 C-12.48519807 1.71810512 -10.02934516 1.27092982 -6.8125 0.8125 C-5.21341797 0.57466797 -5.21341797 0.57466797 -3.58203125 0.33203125 C-1 0 -1 0 0 0 Z " fill="#BCBBB8" transform="translate(123,53)"/>
<path d="M0 0 C2.67678017 4.08561183 2.56275516 8.27775018 2 13 C0.5 16.5625 0.5 16.5625 -1 19 C-1.66 18.34 -2.32 17.68 -3 17 C-6.59679066 17.32326553 -6.59679066 17.32326553 -10 18 C-10.66 15.69 -11.32 13.38 -12 11 C-14.64 10.67 -17.28 10.34 -20 10 C-19.67 8.68 -19.34 7.36 -19 6 C-18.34 6 -17.68 6 -17 6 C-16.67 4.68 -16.34 3.36 -16 2 C-15.01 2 -14.02 2 -13 2 C-12.67 1.34 -12.34 0.68 -12 0 C-7.5753124 -2.60275741 -4.63522999 -1.92405773 0 0 Z " fill="#111110" transform="translate(143,31)"/>
<path d="M0 0 C3 1 3 1 4 3 C4.66 2.67 5.32 2.34 6 2 C6 3.32 6 4.64 6 6 C6.7425 5.67 7.485 5.34 8.25 5 C11 4 11 4 15 4 C14.690625 4.763125 14.38125 5.52625 14.0625 6.3125 C13.32106407 8.18789677 12.63771783 10.08684652 12 12 C13.32 12 14.64 12 16 12 C16.66 13.32 17.32 14.64 18 16 C17 17 17 17 13.89453125 17.01953125 C12.53335786 16.96112269 11.17264413 16.89131941 9.8125 16.8125 C9.10158203 16.77133057 8.39066406 16.73016113 7.65820312 16.68774414 C0.43829296 16.1488134 -6.1362896 14.30577771 -13 12 C-13 11.01 -13 10.02 -13 9 C-12.0925 8.855625 -11.185 8.71125 -10.25 8.5625 C-7.78523044 8.13590527 -5.41152893 7.64925779 -3 7 C-3 7.66 -3 8.32 -3 9 C-2.01 9 -1.02 9 0 9 C0 6.03 0 3.06 0 0 Z " fill="#838383" transform="translate(121,62)"/>
<path d="M0 0 C1.32 0 2.64 0 4 0 C4.66 1.32 5.32 2.64 6 4 C7.32 3.67 8.64 3.34 10 3 C9.8125 5.8125 9.8125 5.8125 9 9 C6.5625 10.9375 6.5625 10.9375 4 12 C3.34 11.67 2.68 11.34 2 11 C2.66 10.34 3.32 9.68 4 9 C4.6425235 6.93125966 4.6425235 6.93125966 5 5 C4.01 5.495 4.01 5.495 3 6 C3 6.99 3 7.98 3 9 C2.01 9.495 2.01 9.495 1 10 C1.33 11.32 1.66 12.64 2 14 C-0.49064888 14.68707555 -2.37886292 15 -5 15 C-5.144375 15.61875 -5.28875 16.2375 -5.4375 16.875 C-6 19 -6 19 -7 21 C-9.97 21 -12.94 21 -16 21 C-15.67 20.34 -15.34 19.68 -15 19 C-14.34 19 -13.68 19 -13 19 C-13 17.68 -13 16.36 -13 15 C-14.98 15.33 -16.96 15.66 -19 16 C-19.66 14.68 -20.32 13.36 -21 12 C-19.515 12.99 -19.515 12.99 -18 14 C-17.154375 13.236875 -16.30875 12.47375 -15.4375 11.6875 C-12.22572225 8.99962926 -8.90980336 7.52047908 -5 6 C-4.236875 5.5875 -3.47375 5.175 -2.6875 4.75 C-2.130625 4.5025 -1.57375 4.255 -1 4 C-0.34 4.33 0.32 4.66 1 5 C1 4.34 1 3.68 1 3 C0.34 3 -0.32 3 -1 3 C-0.67 2.01 -0.34 1.02 0 0 Z " fill="#33312A" transform="translate(82,79)"/>
<path d="M0 0 C3.56920528 0.66073523 5.64276068 1.93366952 8.2578125 4.41796875 C9.1328125 7.66796875 9.1328125 7.66796875 9.2578125 10.41796875 C7.2778125 11.07796875 5.2978125 11.73796875 3.2578125 12.41796875 C3.2578125 13.40796875 3.2578125 14.39796875 3.2578125 15.41796875 C2.5978125 15.41796875 1.9378125 15.41796875 1.2578125 15.41796875 C0.9278125 14.42796875 0.5978125 13.43796875 0.2578125 12.41796875 C-2.15838573 12.16765898 -2.15838573 12.16765898 -4.7421875 12.41796875 C-5.7321875 13.90296875 -5.7321875 13.90296875 -6.7421875 15.41796875 C-9.490174 13.18522972 -10.63851502 12.02704458 -11.2421875 8.48046875 C-10.10072708 1.48902368 -6.65261752 -0.40618292 0 0 Z " fill="#212121" transform="translate(78.7421875,26.58203125)"/>
<path d="M0 0 C3 1 3 1 4.25 2.75 C5.2057139 5.6171417 4.95081589 7.14755232 4 10 C2.5625 11.8125 2.5625 11.8125 1 13 C0.34 13 -0.32 13 -1 13 C-0.67 13.66 -0.34 14.32 0 15 C0.66 15 1.32 15 2 15 C2 14.34 2 13.68 2 13 C3.32 13.66 4.64 14.32 6 15 C6 15.66 6 16.32 6 17 C4.730447 17.64834654 3.45930294 18.29357815 2.1875 18.9375 C1.47980469 19.29714844 0.77210937 19.65679687 0.04296875 20.02734375 C-2 21 -2 21 -5 22 C-5.33 21.67 -5.66 21.34 -6 21 C-7.67542976 21.28604898 -9.34385343 21.61781233 -11 22 C-12.65 19.69 -14.3 17.38 -16 15 C-15.67 14.34 -15.34 13.68 -15 13 C-14.34 13.66 -13.68 14.32 -13 15 C-12.236875 14.38125 -11.47375 13.7625 -10.6875 13.125 C-8 11 -8 11 -5 9 C-4.484375 8.46375 -3.96875 7.9275 -3.4375 7.375 C-2 6 -2 6 0 6 C0 5.34 0 4.68 0 4 C0.66 4 1.32 4 2 4 C1.34 2.68 0.68 1.36 0 0 Z " fill="#767676" transform="translate(89,53)"/>
<path d="M0 0 C2.31 0 4.62 0 7 0 C5.515 1.98 5.515 1.98 4 4 C14.76130278 7.61512515 24.69201205 9 36 9 C36.25 14.625 36.25 14.625 34 18 C26.43860841 16.31791077 19.65459513 13.7005032 12.74804688 10.24975586 C8.1142178 8.06097899 5.15047391 7.7991123 0 9 C0.33 8.34 0.66 7.68 1 7 C0.34 6.67 -0.32 6.34 -1 6 C-0.67 4.02 -0.34 2.04 0 0 Z " fill="#696969" transform="translate(104,69)"/>
<path d="M0 0 C2.77765279 2.45087011 2.88385033 4.25775498 3.125 7.875 C2.75375 7.235625 2.3825 6.59625 2 5.9375 C-0.51602498 3.16987252 -2.19365062 3.09588096 -5.875 2.875 C-8.64364953 3.24358988 -8.64364953 3.24358988 -10.875 3.875 C-11.205 4.865 -11.535 5.855 -11.875 6.875 C-12.865 6.545 -13.855 6.215 -14.875 5.875 C-15.205 7.855 -15.535 9.835 -15.875 11.875 C-16.535 11.875 -17.195 11.875 -17.875 11.875 C-17.875 12.205 -17.875 12.535 -17.875 12.875 C-13.42 13.865 -13.42 13.865 -8.875 14.875 C-9.205 15.865 -9.535 16.855 -9.875 17.875 C-16.3402248 16.91239986 -20.16885826 15.46047143 -24.875 10.875 C-24.125 6.125 -24.125 6.125 -21.875 3.875 C-20.0703125 3.09375 -20.0703125 3.09375 -18 2.375 C-15.78499369 1.59159561 -13.8524481 0.86201557 -11.8125 -0.3125 C-7.76171847 -2.01121483 -4.00569855 -1.56744726 0 0 Z " fill="#2F2F2F" transform="translate(141.875,27.125)"/>
<path d="M0 0 C1.48034764 0.47550561 2.95925021 0.95551216 4.4375 1.4375 C5.26121094 1.70433594 6.08492187 1.97117187 6.93359375 2.24609375 C9 3 9 3 10 4 C10.04063832 5.66617115 10.042721 7.33388095 10 9 C9.34 8.67 8.68 8.34 8 8 C8.33 8.66 8.66 9.32 9 10 C9.33 10 9.66 10 10 10 C9.67 12.97 9.34 15.94 9 19 C6.03 19 3.06 19 0 19 C-0.33 17.68 -0.66 16.36 -1 15 C-2.9837767 13.71563266 -2.9837767 13.71563266 -5 13 C-4.154375 12.505 -3.30875 12.01 -2.4375 11.5 C0.21276785 9.34131246 0.21276785 9.34131246 0.07421875 6.98828125 C-0.22467204 4.98247199 -0.60856012 2.98981941 -1 1 C-0.67 0.67 -0.34 0.34 0 0 Z " fill="#8D8D8D" transform="translate(116,79)"/>
<path d="M0 0 C0.99 0.33 1.98 0.66 3 1 C3 2.32 3 3.64 3 5 C3.99 5 4.98 5 6 5 C6 4.34 6 3.68 6 3 C6.99 2.67 7.98 2.34 9 2 C9.45375 2.825 9.9075 3.65 10.375 4.5 C10.91125 5.325 11.4475 6.15 12 7 C12.66 7 13.32 7 14 7 C14.33 5.68 14.66 4.36 15 3 C16.23120634 6.70031036 17.11551154 10.08310885 17 14 C14.80018659 17.05471719 12.16923694 19.00732527 9 21 C5.56563684 17.89953326 4.48016124 14.27349118 3 10 C2.44026619 8.54060272 1.87787061 7.08222285 1.3125 5.625 C0 2 0 2 0 0 Z " fill="#4C4C4C" transform="translate(21,76)"/>
<path d="M0 0 C1.32 0 2.64 0 4 0 C5.44977894 2.34112451 6.04314411 3.5796929 5.7578125 6.359375 C5.54898438 7.14828125 5.34015625 7.9371875 5.125 8.75 C4.92132813 9.54921875 4.71765625 10.3484375 4.5078125 11.171875 C4.34023438 11.77515625 4.17265625 12.3784375 4 13 C3.34 12.67 2.68 12.34 2 12 C1.67 14.97 1.34 17.94 1 21 C1.33 20.34 1.66 19.68 2 19 C2.66 19 3.32 19 4 19 C3.67 20.32 3.34 21.64 3 23 C2.34 23 1.68 23 1 23 C1 23.66 1 24.32 1 25 C-2.33333333 25 -5.66666667 25 -9 25 C-10.66666667 21.66666667 -12.33333333 18.33333333 -14 15 C-12.02 15.66 -10.04 16.32 -8 17 C-7.67 15.68 -7.34 14.36 -7 13 C-6.34 13.33 -5.68 13.66 -5 14 C-4.375 16.5625 -4.375 16.5625 -4 19 C-3.34 19 -2.68 19 -2 19 C-2.66 16.36 -3.32 13.72 -4 11 C-3.34 10.67 -2.68 10.34 -2 10 C-1.67 9.01 -1.34 8.02 -1 7 C-0.34 6.67 0.32 6.34 1 6 C0.67 4.02 0.34 2.04 0 0 Z " fill="#737373" transform="translate(41,59)"/>
<path d="M0 0 C3.3125 0.1875 3.3125 0.1875 7 1 C10.35835516 4.83812018 11.50417657 10.18813426 13 15 C13.33 15.99 13.66 16.98 14 18 C12.75 19.5625 12.75 19.5625 11 21 C8.875 20.8125 8.875 20.8125 7 20 C5.39274365 16.78548731 5.94251815 13.56387464 6 10 C4.68 9.34 3.36 8.68 2 8 C2 7.34 2 6.68 2 6 C1.34 6 0.68 6 0 6 C0.66 8.31 1.32 10.62 2 13 C1.01 13 0.02 13 -1 13 C-2.0070238 7.96488101 -1.97387813 4.76052962 0 0 Z " fill="#95938E" transform="translate(41,53)"/>
<path d="M0 0 C0 2.97 0 5.94 0 9 C-3.96 9 -7.92 9 -12 9 C-12.33 10.32 -12.66 11.64 -13 13 C-13.99 14.485 -13.99 14.485 -15 16 C-15.103125 15.071875 -15.20625 14.14375 -15.3125 13.1875 C-15.69335949 10.02428277 -15.69335949 10.02428277 -17.5625 8.4375 C-19 7 -19 7 -19.1875 4.3125 C-19.125625 3.549375 -19.06375 2.78625 -19 2 C-17.515 2.99 -17.515 2.99 -16 4 C-15.34 3.01 -14.68 2.02 -14 1 C-11.375 0.8125 -11.375 0.8125 -9 1 C-8.67 2.32 -8.34 3.64 -8 5 C-7.34 5 -6.68 5 -6 5 C-6.33 3.68 -6.66 2.36 -7 1 C-2.25 0 -2.25 0 0 0 Z " fill="#767675" transform="translate(88,37)"/>
<path d="M0 0 C0.9075 0.33 1.815 0.66 2.75 1 C2.75 1.99 2.75 2.98 2.75 4 C1.43 4 0.11 4 -1.25 4 C-7.46857348 4.02298918 -11.31749699 4.99958045 -15.875 9.3671875 C-17.60758431 11.42463137 -18.5629088 13.40432212 -19.25 16 C-19.58 16 -19.91 16 -20.25 16 C-20.6353211 5.16819572 -20.6353211 5.16819572 -18.25 0 C-13.19007398 -2.52996301 -5.32581487 -1.54197104 0 0 Z " fill="#2F2E2E" transform="translate(36.25,33)"/>
<path d="M0 0 C3.49107379 1.16369126 3.85222763 1.88973538 5.6875 4.9375 C6.34298828 6.00291016 6.34298828 6.00291016 7.01171875 7.08984375 C8 9 8 9 8 11 C8.99 11.33 9.98 11.66 11 12 C11 12.66 11 13.32 11 14 C7.91190305 15.76462683 6.76687864 16 3 16 C2.67 15.01 2.34 14.02 2 13 C2.66 13 3.32 13 4 13 C4 12.01 4 11.02 4 10 C0.7 10.33 -2.6 10.66 -6 11 C-6.33 10.34 -6.66 9.68 -7 9 C-7.66 8.67 -8.32 8.34 -9 8 C-6.03 5.36 -3.06 2.72 0 0 Z " fill="#6C6C6C" transform="translate(64,67)"/>
<path d="M0 0 C-0.33 0.99 -0.66 1.98 -1 3 C-0.88714673 4.8790069 -0.71264883 6.75465692 -0.5 8.625 C0.01408268 13.97406281 -0.20433794 18.69558629 -1 24 C-2.65 24 -4.3 24 -6 24 C-6 16.08 -6 8.16 -6 0 C-3.50907189 -1.24546405 -2.58919267 -0.7767578 0 0 Z " fill="#F8B707" transform="translate(106,76)"/>
<path d="M0 0 C0.66 0 1.32 0 2 0 C2.19335938 0.97582031 2.38671875 1.95164062 2.5859375 2.95703125 C2.84632812 4.22933594 3.10671875 5.50164062 3.375 6.8125 C3.63023438 8.07707031 3.88546875 9.34164062 4.1484375 10.64453125 C4.82777181 14.10239018 4.82777181 14.10239018 7 17 C10.465 16.505 10.465 16.505 14 16 C13.6875 18.375 13.6875 18.375 13 21 C9.91111478 23.05925681 9.29064073 23.2390374 5.8125 23.125 C4.554375 23.08375 3.29625 23.0425 2 23 C0.11699484 19.12322467 0.04457238 17.14018633 1 13 C0.66864919 11.6661726 0.33504685 10.33290378 0 9 C-0.06548492 7.41788427 -0.08578381 5.83329919 -0.0625 4.25 C-0.05347656 3.45078125 -0.04445312 2.6515625 -0.03515625 1.828125 C-0.02355469 1.22484375 -0.01195312 0.6215625 0 0 Z " fill="#F7B503" transform="translate(56,77)"/>
<path d="M0 0 C1.96920593 2.93777301 2.22757856 5.26232906 2.125 8.75 C2.10695312 9.54921875 2.08890625 10.3484375 2.0703125 11.171875 C2.04710937 11.77515625 2.02390625 12.3784375 2 13 C1.67 13 1.34 13 1 13 C0.67 10.69 0.34 8.38 0 6 C-6.00558333 5.8478119 -6.00558333 5.8478119 -11.9375 6.625 C-12.618125 6.74875 -13.29875 6.8725 -14 7 C-14.66 6.34 -15.32 5.68 -16 5 C-16 4.01 -16 3.02 -16 2 C-15.01 2 -14.02 2 -13 2 C-12.67 1.34 -12.34 0.68 -12 0 C-7.5753124 -2.60275741 -4.63522999 -1.92405773 0 0 Z " fill="#171717" transform="translate(143,31)"/>
<path d="M0 0 C0.99 0 1.98 0 3 0 C2.67 1.65 2.34 3.3 2 5 C2.66 5 3.32 5 4 5 C5.50751963 7.39429588 6.00562203 8.76387491 5.9375 11.625 C5 14 5 14 3 15.3125 C-1.03346104 16.23683482 -4.88164486 16.16150412 -9 16 C-8.3125 13.125 -8.3125 13.125 -7 10 C-4.375 8.625 -4.375 8.625 -2 8 C-2 7.01 -2 6.02 -2 5 C-1.01 4.67 -0.02 4.34 1 4 C0.67 2.68 0.34 1.36 0 0 Z " fill="#606060" transform="translate(84,84)"/>
<path d="M0 0 C0.33 0.66 0.66 1.32 1 2 C1.66 2 2.32 2 3 2 C3 3.65 3 5.3 3 7 C2.34 6.34 1.68 5.68 1 5 C-1.51599015 5.33652369 -1.51599015 5.33652369 -4 6 C-4.66 6 -5.32 6 -6 6 C-6 6.66 -6 7.32 -6 8 C-7.134375 8.268125 -8.26875 8.53625 -9.4375 8.8125 C-10.613125 9.204375 -11.78875 9.59625 -13 10 C-13.33 10.99 -13.66 11.98 -14 13 C-16.5625 14.1875 -16.5625 14.1875 -19 15 C-18.67 13.02 -18.34 11.04 -18 9 C-17.01 8.67 -16.02 8.34 -15 8 C-14.67 6.35 -14.34 4.7 -14 3 C-13.01 3 -12.02 3 -11 3 C-8.99568551 2.34641919 -6.9959722 1.67863055 -5 1 C-3.33911955 0.63893903 -1.67381019 0.29537827 0 0 Z " fill="#1A1A1A" transform="translate(36,35)"/>
<path d="M0 0 C1.83600745 1.14154359 3.66874805 2.28834316 5.5 3.4375 C6.5209375 4.07558594 7.541875 4.71367188 8.59375 5.37109375 C9.3878125 5.90863281 10.181875 6.44617187 11 7 C11 7.33 11 7.66 11 8 C7.37471432 8.20140476 5.13498292 7.85776765 2 6 C2 6.99 2 7.98 2 9 C2 9.66 2 10.32 2 11 C1.34 11 0.68 11 0 11 C-0.66 13.31 -1.32 15.62 -2 18 C-3.32 18 -4.64 18 -6 18 C-5.45276317 14.62537285 -4.9451 12.91765 -3 10 C-5.31 10.66 -7.62 11.32 -10 12 C-9.278125 11.319375 -8.55625 10.63875 -7.8125 9.9375 C-4.76544307 6.90785482 -2.42792046 3.53782696 0 0 Z " fill="#AEADAA" transform="translate(139,56)"/>
<path d="M0 0 C-0.33 1.98 -0.66 3.96 -1 6 C2.3 5.67 5.6 5.34 9 5 C5.85017765 8.14982235 5.19550869 8.42234978 1.0625 9.0625 C-2.33904952 9.60120694 -4.98476279 10.31398569 -8 12 C-9.80230168 8.17010894 -10.19622241 5.21878192 -10 1 C-6.21812119 -0.83691257 -4.05431692 -1.15837626 0 0 Z " fill="#696866" transform="translate(68,77)"/>
<path d="M0 0 C2.48351743 2.48351743 2.98041975 4.66937119 4 8 C4.33 8.99 4.66 9.98 5 11 C4.34 11 3.68 11 3 11 C2.34 12.98 1.68 14.96 1 17 C0.67 16.34 0.34 15.68 0 15 C-2.32156597 14.59270772 -4.6568787 14.25561323 -7 14 C-6.6875 12.0625 -6.6875 12.0625 -6 10 C-5.01 9.67 -4.02 9.34 -3 9 C-3.20625 8.401875 -3.4125 7.80375 -3.625 7.1875 C-4 5 -4 5 -2 2 C-1.34 2 -0.68 2 0 2 C0 1.34 0 0.68 0 0 Z " fill="#5C5C5B" transform="translate(39,40)"/>
<path d="M0 0 C2.64 0.66 5.28 1.32 8 2 C7.34 2.99 6.68 3.98 6 5 C4.96875 5.144375 3.9375 5.28875 2.875 5.4375 C-1.12267826 6.01780813 -3.59080181 7.1476697 -7.0859375 9.0234375 C-9.62734624 10.32007461 -12.29710926 11.09903642 -15 12 C-15.825 12.515625 -16.65 13.03125 -17.5 13.5625 C-20.35131786 15.20200777 -22.75516724 15.62269387 -26 16 C-23.06171403 13.49701566 -20.82097239 12.53069061 -17 12 C-17 11.34 -17 10.68 -17 10 C-16.24074219 9.59007813 -15.48148438 9.18015625 -14.69921875 8.7578125 C-13.70535156 8.21898438 -12.71148437 7.68015625 -11.6875 7.125 C-10.70136719 6.59132813 -9.71523437 6.05765625 -8.69921875 5.5078125 C-5.90413542 3.99277874 -5.90413542 3.99277874 -3 2 C-2.01 2 -1.02 2 0 2 C0 1.34 0 0.68 0 0 Z " fill="#A5A5A5" transform="translate(95,68)"/>
<path d="M0 0 C0.61875 0.7734375 0.61875 0.7734375 1.25 1.5625 C2.11625 2.2740625 2.11625 2.2740625 3 3 C5.02919843 2.74276031 5.02919843 2.74276031 7 2 C7.99 2 8.98 2 10 2 C9.6875 3.9375 9.6875 3.9375 9 6 C8.01 6.33 7.02 6.66 6 7 C5.67 7.99 5.34 8.98 5 10 C4.071875 9.690625 3.14375 9.38125 2.1875 9.0625 C-2.77871546 7.6216844 -7.86205306 7.35305964 -13 7 C-13 6.01 -13 5.02 -13 4 C-12.0925 3.855625 -11.185 3.71125 -10.25 3.5625 C-7.78523044 3.13590527 -5.41152893 2.64925779 -3 2 C-3 2.66 -3 3.32 -3 4 C-2.01 4 -1.02 4 0 4 C0 2.68 0 1.36 0 0 Z " fill="#919191" transform="translate(121,67)"/>
<path d="M0 0 C1.4391134 0.28359887 2.87625518 0.57721399 4.3125 0.875 C5.11300781 1.03742187 5.91351563 1.19984375 6.73828125 1.3671875 C9 2 9 2 12 4 C12.1875 6.625 12.1875 6.625 12 9 C8.36576791 11.32590854 5.22911669 11.16265833 1 11 C-0.17571451 7.32589215 -0.07366746 3.83070817 0 0 Z " fill="#57554F" transform="translate(120,41)"/>
<path d="M0 0 C2.31 0 4.62 0 7 0 C7 0.99 7 1.98 7 3 C7.66 3 8.32 3 9 3 C9 5.31 9 7.62 9 10 C5.7 10.33 2.4 10.66 -1 11 C-1.125 3.375 -1.125 3.375 0 0 Z " fill="#7F7F7F" transform="translate(96,57)"/>
<path d="M0 0 C1.32 0 2.64 0 4 0 C4.66 1.32 5.32 2.64 6 4 C7.32 3.67 8.64 3.34 10 3 C9.8125 5.8125 9.8125 5.8125 9 9 C6.5625 10.9375 6.5625 10.9375 4 12 C3.34 11.67 2.68 11.34 2 11 C2.66 10.34 3.32 9.68 4 9 C4.6425235 6.93125966 4.6425235 6.93125966 5 5 C4.01 5.495 4.01 5.495 3 6 C3 6.99 3 7.98 3 9 C2.34 9 1.68 9 1 9 C1 8.01 1 7.02 1 6 C0.48050781 6.26554687 -0.03898437 6.53109375 -0.57421875 6.8046875 C-8.92223138 11.03270129 -8.92223138 11.03270129 -12 12 C-12.99 11.67 -13.98 11.34 -15 11 C-11.66666667 9.33333333 -8.33333333 7.66666667 -5 6 C-4.27296875 5.59523438 -3.5459375 5.19046875 -2.796875 4.7734375 C-2.20390625 4.51820312 -1.6109375 4.26296875 -1 4 C-0.34 4.33 0.32 4.66 1 5 C1 4.34 1 3.68 1 3 C0.34 3 -0.32 3 -1 3 C-0.67 2.01 -0.34 1.02 0 0 Z " fill="#414141" transform="translate(82,79)"/>
<path d="M0 0 C1 3 1 3 0.36328125 4.90234375 C-1.67982404 8.85943616 -3.56245694 12.05353452 -7 15 C-7.66 14.34 -8.32 13.68 -9 13 C-8.34 11.68 -7.68 10.36 -7 9 C-7.66 8.67 -8.32 8.34 -9 8 C-8.7452486 6.68428397 -8.47065859 5.37239624 -8.1875 4.0625 C-8.03667969 3.33160156 -7.88585937 2.60070313 -7.73046875 1.84765625 C-7.48941406 1.23792969 -7.24835938 0.62820312 -7 0 C-3.89953913 -1.03348696 -2.94389782 -1.17755913 0 0 Z " fill="#5B5A56" transform="translate(141,48)"/>
<path d="M0 0 C5.19209404 -0.21192221 9.126739 0.4087311 14 2 C14.5625 3.9375 14.5625 3.9375 15 6 C14.67 6.33 14.34 6.66 14 7 C10.98053018 6.81727868 7.98800745 6.47861712 4.98046875 6.15625 C2.30595904 6.01603979 0.47808533 6.02956099 -2 7 C-2.33 7.66 -2.66 8.32 -3 9 C-2.44271087 5.65626525 -1.64826111 2.96687001 0 0 Z " fill="#4C4C4C" transform="translate(25,53)"/>
<path d="M0 0 C0.66 0.33 1.32 0.66 2 1 C1.67 2.65 1.34 4.3 1 6 C1.66 5.67 2.32 5.34 3 5 C3.33 4.01 3.66 3.02 4 2 C5.65 2.33 7.3 2.66 9 3 C8.125 8.875 8.125 8.875 7 10 C4.64686445 10.07271741 2.29166332 10.08370868 -0.0625 10.0625 C-1.35285156 10.05347656 -2.64320312 10.04445313 -3.97265625 10.03515625 C-4.97167969 10.02355469 -5.97070312 10.01195313 -7 10 C-3.25 4.125 -3.25 4.125 -1 3 C-0.67 2.01 -0.34 1.02 0 0 Z " fill="#666563" transform="translate(45,90)"/>
<path d="M0 0 C0.66 0.33 1.32 0.66 2 1 C1.67 1.66 1.34 2.32 1 3 C1.66 3 2.32 3 3 3 C3 3.66 3 4.32 3 5 C2.2575 5.103125 1.515 5.20625 0.75 5.3125 C-2.25801106 6.06450276 -3.56259304 7.13610056 -6 9 C-7.175625 9.495 -8.35125 9.99 -9.5625 10.5 C-12.50531333 11.78413673 -14.03028768 12.56682595 -16 15 C-17.32 14.01 -18.64 13.02 -20 12 C-19.05130162 9.62825405 -18.4474347 8.27321234 -16.234375 6.921875 C-13.80189202 5.91826314 -11.5989218 5.51325356 -9 5.125 C-4.85680965 4.36724837 -2.58229784 3.52131524 0 0 Z " fill="#616161" transform="translate(80,79)"/>
<path d="M0 0 C2.77765279 2.45087011 2.88385033 4.25775498 3.125 7.875 C2.75375 7.235625 2.3825 6.59625 2 5.9375 C0.23251706 3.6396516 0.23251706 3.6396516 -2.75 3 C-6.12724018 2.86491039 -7.82163996 3.54404819 -10.875 4.875 C-13.6875 5 -13.6875 5 -15.875 4.875 C-15.875 5.535 -15.875 6.195 -15.875 6.875 C-17.525 6.875 -19.175 6.875 -20.875 6.875 C-21.205 5.885 -21.535 4.895 -21.875 3.875 C-20.6375 3.42125 -19.4 2.9675 -18.125 2.5 C-15.88699399 1.67299603 -13.88265058 0.87940488 -11.8125 -0.3125 C-7.76171847 -2.01121483 -4.00569855 -1.56744726 0 0 Z " fill="#655F51" transform="translate(141.875,27.125)"/>
<path d="M0 0 C0.7425 0.185625 1.485 0.37125 2.25 0.5625 C5.02319878 1.00369071 6.35307668 0.68307699 9 0 C10.33333333 0.33333333 11.66666667 0.66666667 13 1 C15.18703385 0.62092718 15.18703385 0.62092718 17 0 C14.87219421 2.34058637 12.88437779 3.70700306 10 5 C11.79857668 7.5609294 11.79857668 7.5609294 14 10 C14.99 10 15.98 10 17 10 C17.33 9.34 17.66 8.68 18 8 C18.99 8.33 19.98 8.66 21 9 C20.34 9 19.68 9 19 9 C18.7525 9.639375 18.505 10.27875 18.25 10.9375 C17 13 17 13 14.875 13.75 C13.946875 13.87375 13.946875 13.87375 13 14 C12.67 13.34 12.34 12.68 12 12 C11.01 12 10.02 12 9 12 C8.67 10.02 8.34 8.04 8 6 C7.4225 5.938125 6.845 5.87625 6.25 5.8125 C3.11309013 4.67972699 1.90832496 2.65802405 0 0 Z " fill="#5F5F5F" transform="translate(65,64)"/>
<path d="M0 0 C1.65 0.33 3.3 0.66 5 1 C5 3.97 5 6.94 5 10 C4.34 10 3.68 10 3 10 C3 11.65 3 13.3 3 15 C3.66 15.33 4.32 15.66 5 16 C4.67 16.66 4.34 17.32 4 18 C2.68 17.67 1.36 17.34 0 17 C-0.103125 16.360625 -0.20625 15.72125 -0.3125 15.0625 C-0.539375 14.381875 -0.76625 13.70125 -1 13 C-1.99 12.67 -2.98 12.34 -4 12 C-3.34 10.68 -2.68 9.36 -2 8 C-1.67 8.33 -1.34 8.66 -1 9 C-0.67 6.03 -0.34 3.06 0 0 Z " fill="#686868" transform="translate(35,60)"/>
<path d="M0 0 C1.32 0 2.64 0 4 0 C5.44977894 2.34112451 6.04314411 3.5796929 5.7578125 6.359375 C5.54898438 7.14828125 5.34015625 7.9371875 5.125 8.75 C4.92132813 9.54921875 4.71765625 10.3484375 4.5078125 11.171875 C4.25644531 12.07679687 4.25644531 12.07679687 4 13 C3.34 12.67 2.68 12.34 2 12 C1.34 14.31 0.68 16.62 0 19 C-0.66 19 -1.32 19 -2 19 C-2.66 16.36 -3.32 13.72 -4 11 C-3.34 10.67 -2.68 10.34 -2 10 C-1.67 9.01 -1.34 8.02 -1 7 C-0.34 6.67 0.32 6.34 1 6 C0.67 4.02 0.34 2.04 0 0 Z " fill="#767676" transform="translate(41,59)"/>
<path d="M0 0 C0.19401633 1.81181405 0.38004375 3.62448532 0.5625 5.4375 C0.66691406 6.44683594 0.77132812 7.45617187 0.87890625 8.49609375 C0.93884766 9.73552734 0.93884766 9.73552734 1 11 C0 12 0 12 -1.84765625 12.09765625 C-3.8984375 12.06510417 -5.94921875 12.03255208 -8 12 C-8.39397781 8.55269416 -8.1644697 7.24386886 -6.1875 4.3125 C-2.10810811 0 -2.10810811 0 0 0 Z " fill="#858585" transform="translate(56,79)"/>
<path d="M0 0 C4.64100049 0.04441149 7.26169062 1.20554179 10.8125 4.3125 C11.1425 5.3025 11.4725 6.2925 11.8125 7.3125 C10.67361328 7.0959375 10.67361328 7.0959375 9.51171875 6.875 C8.51785156 6.689375 7.52398437 6.50375 6.5 6.3125 C5.02080078 6.0340625 5.02080078 6.0340625 3.51171875 5.75 C0.77468195 5.23250204 0.77468195 5.23250204 -2.1875 5.3125 C-2.5175 5.9725 -2.8475 6.6325 -3.1875 7.3125 C-4.1775 6.9825 -5.1675 6.6525 -6.1875 6.3125 C-5.5275 5.3225 -4.8675 4.3325 -4.1875 3.3125 C-5.1775 3.9725 -6.1675 4.6325 -7.1875 5.3125 C-4.68914636 0.14923581 -4.68914636 0.14923581 0 0 Z " fill="#69655A" transform="translate(76.1875,26.6875)"/>
<path d="M0 0 C0 0.66 0 1.32 0 2 C-1.98 2.66 -3.96 3.32 -6 4 C-5.01 4.33 -4.02 4.66 -3 5 C-3.50603992 7.16874252 -3.99983813 8.99967627 -5 11 C-7.97 11 -10.94 11 -14 11 C-13.67 10.34 -13.34 9.68 -13 9 C-12.34 9 -11.68 9 -11 9 C-11 7.02 -11 5.04 -11 3 C-9.54293274 2.49632243 -8.08429904 1.99717444 -6.625 1.5 C-5.81289062 1.2215625 -5.00078125 0.943125 -4.1640625 0.65625 C-2 0 -2 0 0 0 Z " fill="#5A5852" transform="translate(80,89)"/>
<path d="M0 0 C0 2.97 0 5.94 0 9 C-2.64 9 -5.28 9 -8 9 C-9.20628008 6.66785852 -10.1654738 4.50357861 -11 2 C-11.99 1.67 -12.98 1.34 -14 1 C-12.35 1 -10.7 1 -9 1 C-8.67 2.32 -8.34 3.64 -8 5 C-7.34 5 -6.68 5 -6 5 C-6.33 3.68 -6.66 2.36 -7 1 C-2.25 0 -2.25 0 0 0 Z " fill="#867F6D" transform="translate(88,37)"/>
<path d="M0 0 C-0.33 0.99 -0.66 1.98 -1 3 C-1.33 2.34 -1.66 1.68 -2 1 C-3.65 1.33 -5.3 1.66 -7 2 C-7 2.99 -7 3.98 -7 5 C-6.34 5.33 -5.68 5.66 -5 6 C-5 5.34 -5 4.68 -5 4 C-4.34 4 -3.68 4 -3 4 C-1 7 -1 7 -1.375 9.6875 C-1.58125 10.450625 -1.7875 11.21375 -2 12 C-2.66 11.01 -3.32 10.02 -4 9 C-7.02934491 8.34227572 -7.02934491 8.34227572 -10 8 C-11 7 -11 7 -11.0625 3.4375 C-11.041875 2.303125 -11.02125 1.16875 -11 0 C-6.98195309 -0.84098656 -3.98196457 -1.05404945 0 0 Z " fill="#5C5C5C" transform="translate(87,46)"/>
<path d="M0 0 C0.9075 0.33 1.815 0.66 2.75 1 C2.75 1.99 2.75 2.98 2.75 4 C1.43 4 0.11 4 -1.25 4 C-3.00162469 4.1486227 -4.75174037 4.31597267 -6.5 4.5 C-7.83804687 4.63921875 -7.83804687 4.63921875 -9.203125 4.78125 C-9.87859375 4.8534375 -10.5540625 4.925625 -11.25 5 C-11.25 3.68 -11.25 2.36 -11.25 1 C-12.03375 1.20625 -12.8175 1.4125 -13.625 1.625 C-14.49125 1.74875 -15.3575 1.8725 -16.25 2 C-16.91 1.34 -17.57 0.68 -18.25 0 C-13.19007398 -2.52996301 -5.32581487 -1.54197104 0 0 Z " fill="#4B4842" transform="translate(36.25,33)"/>
<path d="M0 0 C3 1 3 1 4 3 C4.66 2.67 5.32 2.34 6 2 C6 3.32 6 4.64 6 6 C6.7425 5.67 7.485 5.34 8.25 5 C11 4 11 4 15 4 C13.87548273 6.9719385 12.77706209 9.33440687 11 12 C10.34 12 9.68 12 9 12 C9 10.68 9 9.36 9 8 C6.58354218 7.83312552 6.58354218 7.83312552 4 8 C3.34 8.66 2.68 9.32 2 10 C0.39644899 6.49223216 -0.22036864 3.85645121 0 0 Z " fill="#878787" transform="translate(121,62)"/>
<path d="M0 0 C2.31 0 4.62 0 7 0 C5.515 1.98 5.515 1.98 4 4 C6.97 4.99 9.94 5.98 13 7 C13 7.66 13 8.32 13 9 C14.98 9.66 16.96 10.32 19 11 C16 12 16 12 13.984375 11.1875 C12.87835938 10.5996875 12.87835938 10.5996875 11.75 10 C7.26616255 7.85715133 4.76907526 7.78236376 0 9 C0.33 8.34 0.66 7.68 1 7 C0.34 6.67 -0.32 6.34 -1 6 C-0.67 4.02 -0.34 2.04 0 0 Z " fill="#3C3B37" transform="translate(104,69)"/>
<path d="M0 0 C1 3 1 3 1 5 C-0.32 5 -1.64 5 -3 5 C-2.67 6.32 -2.34 7.64 -2 9 C-2.99 9.66 -3.98 10.32 -5 11 C-5 11.99 -5 12.98 -5 14 C-5.165 14.7425 -5.33 15.485 -5.5 16.25 C-6.09744828 19.53596556 -6.06534741 22.66728222 -6 26 C-6.33 26 -6.66 26 -7 26 C-8.30390596 20.1324232 -9.12364052 13.93592167 -8 8 C-5.74074232 4.76683912 -3.13230885 2.37719868 0 0 Z " fill="#958F7F" transform="translate(17,58)"/>
<path d="M0 0 C2.9555377 2.75170751 5.11563315 5.41970299 7 9 C7 9.66 7 10.32 7 11 C7.99 11.33 8.98 11.66 10 12 C10 12.66 10 13.32 10 14 C6.91190305 15.76462683 5.76687864 16 2 16 C1.67 15.01 1.34 14.02 1 13 C1.66 13 2.32 13 3 13 C2.42547254 9.06924356 2.42547254 9.06924356 0 6 C0.66 6 1.32 6 2 6 C1.34 4.02 0.68 2.04 0 0 Z " fill="#404040" transform="translate(65,67)"/>
<path d="M0 0 C0 3 0 3 -2 6 C-1.01 5.34 -0.02 4.68 1 4 C0 6 -1 8 -2 10 C-1.34 10.33 -0.68 10.66 0 11 C-1 12 -1 12 -4.0625 12.0625 C-5.031875 12.041875 -6.00125 12.02125 -7 12 C-7.33 9.03 -7.66 6.06 -8 3 C-6.68 2.67 -5.36 2.34 -4 2 C-2.6520257 1.36345658 -1.31403276 0.70394612 0 0 Z " fill="#797977" transform="translate(23,88)"/>
<path d="M0 0 C0.66 0.33 1.32 0.66 2 1 C1.67 1.99 1.34 2.98 1 4 C4.3 3.67 7.6 3.34 11 3 C10.814375 3.721875 10.62875 4.44375 10.4375 5.1875 C9.98004693 8.12826973 10.26483643 10.14103058 11 13 C9.02 13 7.04 13 5 13 C5.33 10.69 5.66 8.38 6 6 C4.68 5.67 3.36 5.34 2 5 C1.67 6.32 1.34 7.64 1 9 C-0.65 9.33 -2.3 9.66 -4 10 C-3.01 9.34 -2.02 8.68 -1 8 C-1.33 6.02 -1.66 4.04 -2 2 C-1.34 2 -0.68 2 0 2 C0 1.34 0 0.68 0 0 Z " fill="#4A4844" transform="translate(47,87)"/>
<path d="M0 0 C3 1 3 1 4.25 2.75 C5.2057139 5.6171417 4.95081589 7.14755232 4 10 C2.5625 11.8125 2.5625 11.8125 1 13 C-1 13 -1 13 -2.625 11.5 C-3.07875 11.005 -3.5325 10.51 -4 10 C-4.33 11.32 -4.66 12.64 -5 14 C-5.33 13.01 -5.66 12.02 -6 11 C-4.1875 8.3125 -4.1875 8.3125 -2 6 C-1.34 6 -0.68 6 0 6 C0 5.34 0 4.68 0 4 C0.66 4 1.32 4 2 4 C1.34 2.68 0.68 1.36 0 0 Z " fill="#7E7E7E" transform="translate(89,53)"/>
<path d="M0 0 C0.66 2.31 1.32 4.62 2 7 C-0.97 7 -3.94 7 -7 7 C-7.33 5.02 -7.66 3.04 -8 1 C-5.29120665 -0.35439668 -2.99066732 -0.06501451 0 0 Z " fill="#525250" transform="translate(115,93)"/>
<path d="M0 0 C0.99 0.33 1.98 0.66 3 1 C3 2.32 3 3.64 3 5 C3.99 5 4.98 5 6 5 C6 4.34 6 3.68 6 3 C6.66 3 7.32 3 8 3 C8.66 6.63 9.32 10.26 10 14 C8.68 13.67 7.36 13.34 6 13 C6.33 12.01 6.66 11.02 7 10 C6.34 10 5.68 10 5 10 C4.67 10.99 4.34 11.98 4 13 C3.32942113 11.2097939 2.6636531 9.41778511 2 7.625 C1.62875 6.62726563 1.2575 5.62953125 0.875 4.6015625 C0 2 0 2 0 0 Z " fill="#5A5A5A" transform="translate(21,76)"/>
<path d="M0 0 C0.66 0 1.32 0 2 0 C1.9278125 0.79664063 1.855625 1.59328125 1.78125 2.4140625 C1.6884375 3.47367187 1.595625 4.53328125 1.5 5.625 C1.4071875 6.66914062 1.314375 7.71328125 1.21875 8.7890625 C0.93730121 12.0091443 0.93730121 12.0091443 1.15625 15.2734375 C1.07890625 16.62308594 1.07890625 16.62308594 1 18 C0.01 18.66 -0.98 19.32 -2 20 C-1.67 18.35 -1.34 16.7 -1 15 C-1.66 15 -2.32 15 -3 15 C-3.33 15.99 -3.66 16.98 -4 18 C-5.40742022 15.18515955 -4.66652164 13.43063887 -4.0625 10.375 C-3.86785156 9.37210938 -3.67320313 8.36921875 -3.47265625 7.3359375 C-3.31667969 6.56507812 -3.16070312 5.79421875 -3 5 C-2.34 5.33 -1.68 5.66 -1 6 C-0.67 4.02 -0.34 2.04 0 0 Z " fill="#646464" transform="translate(46,63)"/>
<path d="M0 0 C0.66 0.33 1.32 0.66 2 1 C1.01 2.485 1.01 2.485 0 4 C0.99 4.33 1.98 4.66 3 5 C3 5.66 3 6.32 3 7 C3.99 6.67 4.98 6.34 6 6 C5.67 6.99 5.34 7.98 5 9 C4.01 9.33 3.02 9.66 2 10 C1.01 11.485 1.01 11.485 0 13 C-2.81638438 10.71168769 -3.90531749 9.57993036 -4.5 5.9375 C-4 3 -4 3 -2 1.125 C-1.34 0.75375 -0.68 0.3825 0 0 Z " fill="#0D0D0D" transform="translate(72,29)"/>
<path d="M0 0 C2.4375 0.6875 2.4375 0.6875 5 2 C5.8125 4.625 5.8125 4.625 6 7 C5.34 7 4.68 7 4 7 C3.67 9.64 3.34 12.28 3 15 C2.67 15 2.34 15 2 15 C1.46467177 13.44240657 0.94734622 11.87861955 0.4375 10.3125 C0.14746094 9.44238281 -0.14257812 8.57226562 -0.44140625 7.67578125 C-1.05141961 4.75368926 -0.77703633 2.85599447 0 0 Z " fill="#969696" transform="translate(116,79)"/>
<path d="M0 0 C0 3 0 3 -1.5 4.6875 C-1.995 5.120625 -2.49 5.55375 -3 6 C-2.34 6.33 -1.68 6.66 -1 7 C-1.33 7.99 -1.66 8.98 -2 10 C-2.66 10 -3.32 10 -4 10 C-4 10.66 -4 11.32 -4 12 C-6.64 12 -9.28 12 -12 12 C-11.8125 10.125 -11.8125 10.125 -11 8 C-9.33333333 7.33333333 -7.66666667 6.66666667 -6 6 C-3.84390234 4.1172105 -1.95925525 2.09594748 0 0 Z " fill="#646462" transform="translate(39,88)"/>
<path d="M0 0 C0.99773437 0.02320313 1.99546875 0.04640625 3.0234375 0.0703125 C4.52777344 0.09738281 4.52777344 0.09738281 6.0625 0.125 C6.83335938 0.14820313 7.60421875 0.17140625 8.3984375 0.1953125 C7.4084375 1.1853125 6.4184375 2.1753125 5.3984375 3.1953125 C4.4084375 2.8653125 3.4184375 2.5353125 2.3984375 2.1953125 C-0.38089303 2.62966182 -0.38089303 2.62966182 -2.6015625 4.1953125 C-2.64249187 6.52828683 -2.64397973 8.86236475 -2.6015625 11.1953125 C-3.2409375 11.4840625 -3.8803125 11.7728125 -4.5390625 12.0703125 C-6.75362329 13.02354701 -6.75362329 13.02354701 -7.6015625 15.1953125 C-9.5815625 14.5353125 -11.5615625 13.8753125 -13.6015625 13.1953125 C-10.51346555 11.43068567 -9.36844114 11.1953125 -5.6015625 11.1953125 C-5.55257812 10.56882812 -5.50359375 9.94234375 -5.453125 9.296875 C-5.37835938 8.47960937 -5.30359375 7.66234375 -5.2265625 6.8203125 C-5.12214844 5.60214844 -5.12214844 5.60214844 -5.015625 4.359375 C-4.37902838 1.03225683 -3.34314927 0.25098718 0 0 Z " fill="#C9C9C8" transform="translate(110.6015625,55.8046875)"/>
<path d="M0 0 C-0.99 0.495 -0.99 0.495 -2 1 C-2.33 1.99 -2.66 2.98 -3 4 C-6.71055417 6.01430083 -9.82851735 6.19402245 -14 6 C-13.34 5.01 -12.68 4.02 -12 3 C-11.34 3 -10.68 3 -10 3 C-9.814375 2.0409375 -9.814375 2.0409375 -9.625 1.0625 C-9.41875 0.381875 -9.2125 -0.29875 -9 -1 C-5.79937313 -2.60031344 -3.27728194 -1.03173691 0 0 Z " fill="#0B0B0B" transform="translate(32,45)"/>
<path d="M0 0 C0 2.31 0 4.62 0 7 C-0.99 6.67 -1.98 6.34 -3 6 C-2.835 7.258125 -2.67 8.51625 -2.5 9.8125 C-2.17841759 12.26456585 -2 14.51650694 -2 17 C-6.8 13.67692308 -6.8 13.67692308 -7.8125 10.25 C-7.874375 9.5075 -7.93625 8.765 -8 8 C-6.68 8 -5.36 8 -4 8 C-4.33 7.01 -4.66 6.02 -5 5 C-3.08823529 0 -3.08823529 0 0 0 Z " fill="#7B7975" transform="translate(22,55)"/>
<path d="M0 0 C6.64615385 3.2 6.64615385 3.2 8.4375 7.25 C8.623125 8.1575 8.80875 9.065 9 10 C9.99 10 10.98 10 12 10 C12 11.32 12 12.64 12 14 C11.01 14.33 10.02 14.66 9 15 C0 3.26213592 0 3.26213592 0 0 Z " fill="#7F7F7F" transform="translate(66,66)"/>
<path d="M0 0 C2.31 0 4.62 0 7 0 C7.33 1.98 7.66 3.96 8 6 C7.01 6 6.02 6 5 6 C3.7934375 6.2784375 3.7934375 6.2784375 2.5625 6.5625 C-0.04150999 7.00708707 -1.52538884 6.82487039 -4 6 C-3.525625 5.38125 -3.05125 4.7625 -2.5625 4.125 C-0.97582559 2.09294454 -0.97582559 2.09294454 0 0 Z " fill="#454545" transform="translate(26,64)"/>
<path d="M0 0 C0.66 1.32 1.32 2.64 2 4 C3.65 4 5.3 4 7 4 C7.33 5.32 7.66 6.64 8 8 C4.25 9.125 4.25 9.125 2 8 C2 7.34 2 6.68 2 6 C1.34 6 0.68 6 0 6 C0.66 8.31 1.32 10.62 2 13 C1.01 13 0.02 13 -1 13 C-2.0070238 7.96488101 -1.97387813 4.76052962 0 0 Z " fill="#8D8D8D" transform="translate(41,53)"/>
<path d="M0 0 C0.33 0.66 0.66 1.32 1 2 C2.32 1.34 3.64 0.68 5 0 C4.84518205 2.70931419 4.51827919 4.46584039 2.59765625 6.4453125 C1.10228292 7.67679642 -0.4462924 8.8429837 -2 10 C-2.66 9.67 -3.32 9.34 -4 9 C-3.67 8.34 -3.34 7.68 -3 7 C-3.99 6.01 -4.98 5.02 -6 4 C-5.01 4 -4.02 4 -3 4 C-3 3.34 -3 2.68 -3 2 C-2.01 1.34 -1.02 0.68 0 0 Z " fill="#171717" transform="translate(33,39)"/>
<path d="M0 0 C5.94 0.99 5.94 0.99 12 2 C12 2.99 12 3.98 12 5 C6.72 5 1.44 5 -4 5 C-3 3 -3 3 0 2 C0 1.34 0 0.68 0 0 Z " fill="#383733" transform="translate(88,95)"/>
<path d="M0 0 C0.66 0 1.32 0 2 0 C3.125 6.625 3.125 6.625 2 10 C-1.71599191 10.20086443 -2.77208445 10.1519437 -6 8 C-5.38125 7.4225 -4.7625 6.845 -4.125 6.25 C-2.18652947 4.19750179 -1.09985751 2.56633418 0 0 Z " fill="#807F7E" transform="translate(25,90)"/>
<path d="M0 0 C3.5625 1.25 3.5625 1.25 7 3 C7.33 3.99 7.66 4.98 8 6 C6.68 5.67 5.36 5.34 4 5 C4 5.66 4 6.32 4 7 C1.69 8.32 -0.62 9.64 -3 11 C-3 10.01 -3 9.02 -3 8 C-2.360625 7.71125 -1.72125 7.4225 -1.0625 7.125 C1.15206079 6.17176549 1.15206079 6.17176549 2 4 C0.68 4.33 -0.64 4.66 -2 5 C-2 3.68 -2 2.36 -2 1 C-1.34 0.67 -0.68 0.34 0 0 Z " fill="#9E9C99" transform="translate(62,60)"/>
<path d="M0 0 C3.11547441 0.67883043 5.85137721 1.74106902 8.75 3.0625 C9.54921875 3.42472656 10.3484375 3.78695312 11.171875 4.16015625 C11.77515625 4.43730469 12.3784375 4.71445312 13 5 C12.34 7.64 11.68 10.28 11 13 C10.67 11.68 10.34 10.36 10 9 C9.34 9 8.68 9 8 9 C7.5875 8.21625 7.175 7.4325 6.75 6.625 C4.55111113 3.3266667 2.76889042 2.92128432 -1 2 C-0.67 1.34 -0.34 0.68 0 0 Z " fill="#9F9C93" transform="translate(95,51)"/>
<path d="M0 0 C0 2 0 2 -1.25 3.625 C-3 5 -3 5 -7 5 C-7.33 5.66 -7.66 6.32 -8 7 C-8.33 7.33 -8.66 7.66 -9 8 C-9.99 7.34 -10.98 6.68 -12 6 C-12 5.01 -12 4.02 -12 3 C-11.01 3 -10.02 3 -9 3 C-8.67 2.34 -8.34 1.68 -8 1 C-3.6 -1.2 -3.6 -1.2 0 0 Z " fill="#252525" transform="translate(139,30)"/>
<path d="M0 0 C0.99 0.33 1.98 0.66 3 1 C3.6875 3.0625 3.6875 3.0625 4 5 C4.66 5 5.32 5 6 5 C6 5.66 6 6.32 6 7 C6.99 7.33 7.98 7.66 9 8 C8.01 8.66 7.02 9.32 6 10 C1.65517241 8.65517241 1.65517241 8.65517241 0 7 C-0.04092937 4.66702567 -0.04241723 2.33294775 0 0 Z " fill="#B4B3B1" transform="translate(105,79)"/>
<path d="M0 0 C-0.66 0.66 -1.32 1.32 -2 2 C-1.34 2.33 -0.68 2.66 0 3 C-0.8125 4.9375 -0.8125 4.9375 -2 7 C-2.99 7.33 -3.98 7.66 -5 8 C-5.66 7.34 -6.32 6.68 -7 6 C-7 5.01 -7 4.02 -7 3 C-8.65 3 -10.3 3 -12 3 C-12 2.67 -12 2.34 -12 2 C-10.56656 1.46809459 -9.12804633 0.94984742 -7.6875 0.4375 C-6.48673828 0.00244141 -6.48673828 0.00244141 -5.26171875 -0.44140625 C-3 -1 -3 -1 0 0 Z " fill="#7E7E7E" transform="translate(93,76)"/>
<path d="M0 0 C4.38249366 1.33909529 6.57949251 3.08994944 9 7 C8.75 9.3125 8.75 9.3125 8 11 C6.35 11 4.7 11 3 11 C3.33 10.01 3.66 9.02 4 8 C3.67 7.67 3.34 7.34 3 7 C2.95936168 5.33382885 2.957279 3.66611905 3 2 C2.01 2 1.02 2 0 2 C0 1.34 0 0.68 0 0 Z " fill="#666666" transform="translate(13,67)"/>
<path d="M0 0 C2.375 0.75 2.375 0.75 4.375 1.75 C3.5625 3.6875 3.5625 3.6875 2.375 5.75 C1.385 6.08 0.395 6.41 -0.625 6.75 C-0.955 7.41 -1.285 8.07 -1.625 8.75 C-1.74875 7.821875 -1.74875 7.821875 -1.875 6.875 C-2.43758459 4.56562433 -2.43758459 4.56562433 -4.6875 3.5 C-5.326875 3.2525 -5.96625 3.005 -6.625 2.75 C-4.24919631 0.55018177 -3.30267199 -0.31454019 0 0 Z " fill="#7F7F7F" transform="translate(117.625,89.25)"/>
<path d="M0 0 C0.66 0 1.32 0 2 0 C2 3 2 6 2 9 C-1 9 -4 9 -7 9 C-7.33 8.34 -7.66 7.68 -8 7 C-4.535 6.505 -4.535 6.505 -1 6 C-1.33 5.01 -1.66 4.02 -2 3 C-1.34 2.01 -0.68 1.02 0 0 Z " fill="#353535" transform="translate(81,85)"/>
<path d="M0 0 C0.99 0.33 1.98 0.66 3 1 C2.67 3.97 2.34 6.94 2 10 C1.01 10.33 0.02 10.66 -1 11 C-2.67357513 5.62694301 -2.67357513 5.62694301 -3 3 C-1.625 1 -1.625 1 0 0 Z " fill="#7F7F7F" transform="translate(40,67)"/>
<path d="M0 0 C2.375 -0.1875 2.375 -0.1875 5 0 C7.29013653 3.4352048 7.17842973 4.985331 7 9 C5.33333333 9 3.66666667 9 2 9 C2 8.34 2 7.68 2 7 C2.66 7 3.32 7 4 7 C4 6.01 4 5.02 4 4 C3.01 3.67 2.02 3.34 1 3 C0.67 2.01 0.34 1.02 0 0 Z " fill="#736E5E" transform="translate(151,64)"/>
<path d="M0 0 C0.66 0 1.32 0 2 0 C2 0.66 2 1.32 2 2 C2.66 2 3.32 2 4 2 C4 1.34 4 0.68 4 0 C4.66 0 5.32 0 6 0 C6 2.31 6 4.62 6 7 C4.34385343 7.38218767 2.67542976 7.71395102 1 8 C0 7 0 7 -0.0625 3.4375 C-0.041875 2.303125 -0.02125 1.16875 0 0 Z " fill="#5E5849" transform="translate(99,60)"/>
<path d="M0 0 C0.268125 0.639375 0.53625 1.27875 0.8125 1.9375 C1.88667752 4.33131686 1.88667752 4.33131686 5 5 C5 5.66 5 6.32 5 7 C3.35 7.33 1.7 7.66 0 8 C-0.33 9.32 -0.66 10.64 -1 12 C-2.76462683 8.91190305 -3 7.76687864 -3 4 C-2.34 4 -1.68 4 -1 4 C-0.67 2.68 -0.34 1.36 0 0 Z " fill="#5E5E5D" transform="translate(75,49)"/>
<path d="M0 0 C4.455 1.98 4.455 1.98 9 4 C9 4.66 9 5.32 9 6 C5.33694766 6.74926071 2.57644848 7.2380014 -1 6 C-0.67 4.02 -0.34 2.04 0 0 Z " fill="#6B6963" transform="translate(121,45)"/>
<path d="M0 0 C7.425 0.99 7.425 0.99 15 2 C15.33 1.34 15.66 0.68 16 0 C16 1.65 16 3.3 16 5 C11.94087374 6.35304209 10.22850409 5.15216503 6.3125 3.5625 C5.13300781 3.08941406 3.95351562 2.61632812 2.73828125 2.12890625 C1.83464844 1.75636719 0.93101563 1.38382812 0 1 C0 0.67 0 0.34 0 0 Z " fill="#383838" transform="translate(123,81)"/>
<path d="M0 0 C0.99 0.33 1.98 0.66 3 1 C2.34 5.62 1.68 10.24 1 15 C0.34 15 -0.32 15 -1 15 C-0.95875 13.88625 -0.9175 12.7725 -0.875 11.625 C-0.58878141 7.95633975 -0.58878141 7.95633975 -3 6 C-2.625 3.875 -2.625 3.875 -2 2 C-1.67 2.66 -1.34 3.32 -1 4 C-0.67 2.68 -0.34 1.36 0 0 Z " fill="#656565" transform="translate(126,83)"/>
<path d="M0 0 C1.98 0.66 3.96 1.32 6 2 C6 2.99 6 3.98 6 5 C5.34 5 4.68 5 4 5 C4 4.01 4 3.02 4 2 C3.48050781 2.26554687 2.96101563 2.53109375 2.42578125 2.8046875 C-5.92223138 7.03270129 -5.92223138 7.03270129 -9 8 C-9.99 7.67 -10.98 7.34 -12 7 C-11.30132812 6.66226563 -10.60265625 6.32453125 -9.8828125 5.9765625 C-8.97273438 5.53054687 -8.06265625 5.08453125 -7.125 4.625 C-6.22007813 4.18414062 -5.31515625 3.74328125 -4.3828125 3.2890625 C-1.90465528 2.09497301 -1.90465528 2.09497301 0 0 Z " fill="#4A4A4A" transform="translate(79,83)"/>
<path d="M0 0 C2.48351743 2.48351743 2.98041975 4.66937119 4 8 C4.33 8.99 4.66 9.98 5 11 C3.68 11.33 2.36 11.66 1 12 C1 12.66 1 13.32 1 14 C0.34 14 -0.32 14 -1 14 C-0.814375 12.948125 -0.62875 11.89625 -0.4375 10.8125 C-0.04482521 7.39061965 -0.2497946 5.28214864 -1 2 C-0.67 1.34 -0.34 0.68 0 0 Z " fill="#857F6F" transform="translate(39,40)"/>
<path d="M0 0 C3.96 0.99 3.96 0.99 8 2 C6 5 6 5 4.0546875 5.51171875 C3.33539063 5.56972656 2.61609375 5.62773438 1.875 5.6875 C-0.043125 5.8421875 -0.043125 5.8421875 -2 6 C-1.49396008 3.83125748 -1.00016187 2.00032373 0 0 Z " fill="#9D9D9D" transform="translate(95,68)"/>
<path d="M0 0 C1.65 0.33 3.3 0.66 5 1 C5 3.97 5 6.94 5 10 C4.01 10 3.02 10 2 10 C2 9.34 2 8.68 2 8 C2.66 8 3.32 8 4 8 C3.67 6.68 3.34 5.36 3 4 C2.34 5.98 1.68 7.96 1 10 C0.34 9.67 -0.32 9.34 -1 9 C-0.67 6.03 -0.34 3.06 0 0 Z " fill="#616161" transform="translate(35,60)"/>
<path d="M0 0 C2.97 0.495 2.97 0.495 6 1 C5.67 2.65 5.34 4.3 5 6 C2.69 6 0.38 6 -2 6 C-1.34 4.02 -0.68 2.04 0 0 Z " fill="#A9A8A6" transform="translate(77,94)"/>
<path d="M0 0 C1.32 0.66 2.64 1.32 4 2 C3.01 3.485 3.01 3.485 2 5 C1.34 5 0.68 5 0 5 C0.33 6.98 0.66 8.96 1 11 C0.01 11 -0.98 11 -2 11 C-2.05399736 9.54207116 -2.09279177 8.08357288 -2.125 6.625 C-2.15980469 5.40683594 -2.15980469 5.40683594 -2.1953125 4.1640625 C-2 2 -2 2 0 0 Z " fill="#A4A19A" transform="translate(107,89)"/>
<path d="M0 0 C1.32 0.33 2.64 0.66 4 1 C2.77782954 5.04256383 1.37245704 8.49288959 -1 12 C-1.33 12 -1.66 12 -2 12 C-1.85904936 10.3745692 -1.71207913 8.74965949 -1.5625 7.125 C-1.48128906 6.22007813 -1.40007812 5.31515625 -1.31640625 4.3828125 C-1 2 -1 2 0 0 Z " fill="#949494" transform="translate(129,84)"/>
<path d="M0 0 C1.32 0.33 2.64 0.66 4 1 C3.34 1 2.68 1 2 1 C2 1.66 2 2.32 2 3 C3.65 3.33 5.3 3.66 7 4 C7 4.33 7 4.66 7 5 C6.36191406 5.12117188 5.72382813 5.24234375 5.06640625 5.3671875 C4.24011719 5.53476562 3.41382813 5.70234375 2.5625 5.875 C1.73878906 6.03742187 0.91507813 6.19984375 0.06640625 6.3671875 C-0.61550781 6.57601562 -1.29742188 6.78484375 -2 7 C-2.33 7.66 -2.66 8.32 -3 9 C-2.44271087 5.65626525 -1.64826111 2.96687001 0 0 Z " fill="#535353" transform="translate(25,53)"/>
<path d="M0 0 C0.33 0.66 0.66 1.32 1 2 C1.66 2 2.32 2 3 2 C3 3.65 3 5.3 3 7 C2.34 6.34 1.68 5.68 1 5 C-0.67422986 5.29299023 -2.34178227 5.62690101 -4 6 C-4.66 5.67 -5.32 5.34 -6 5 C-5.67 3.68 -5.34 2.36 -5 1 C-3.35 0.67 -1.7 0.34 0 0 Z " fill="#2D2D2D" transform="translate(36,35)"/>
<path d="M0 0 C1.67542976 0.28604898 3.34385343 0.61781233 5 1 C4.67 2.65 4.34 4.3 4 6 C3.01 5.67 2.02 5.34 1 5 C1.33 4.34 1.66 3.68 2 3 C1.34 3 0.68 3 0 3 C-0.33 3.99 -0.66 4.98 -1 6 C-1.66 6 -2.32 6 -3 6 C-3.33 4.35 -3.66 2.7 -4 1 C-3.01 1 -2.02 1 -1 1 C-0.67 0.67 -0.34 0.34 0 0 Z " fill="#232323" transform="translate(26,37)"/>
<path d="M0 0 C0.33 0 0.66 0 1 0 C1 3.63 1 7.26 1 11 C-0.65 11 -2.3 11 -4 11 C-3.52269162 9.5410574 -3.04308958 8.08286504 -2.5625 6.625 C-2.29566406 5.81289062 -2.02882813 5.00078125 -1.75390625 4.1640625 C-1 2 -1 2 0 0 Z " fill="#5D5B58" transform="translate(99,86)"/>
<path d="M0 0 C0 0.99 0 1.98 0 3 C-1.98 3.33 -3.96 3.66 -6 4 C-6 3.34 -6 2.68 -6 2 C-6.99 2 -7.98 2 -9 2 C-9 3.65 -9 5.3 -9 7 C-9.33 7 -9.66 7 -10 7 C-10 5.02 -10 3.04 -10 1 C-6.21812119 -0.83691257 -4.05431692 -1.15837626 0 0 Z " fill="#8E897A" transform="translate(68,77)"/>
<path d="M0 0 C0.66 0.66 1.32 1.32 2 2 C1.113125 1.95875 0.22625 1.9175 -0.6875 1.875 C-4.00437032 2.00016492 -5.99484736 2.70047453 -9 4 C-9.99 4 -10.98 4 -12 4 C-11 1 -11 1 -9.375 -0.25 C-5.99040393 -1.31881981 -3.42587414 -0.76130536 0 0 Z " fill="#484848" transform="translate(140,28)"/>
<path d="M0 0 C1.9375 0.75 1.9375 0.75 4 2 C4.33 3.32 4.66 4.64 5 6 C2.03 6 -0.94 6 -4 6 C-3.67 5.34 -3.34 4.68 -3 4 C-2.34 4 -1.68 4 -1 4 C-0.67 2.68 -0.34 1.36 0 0 Z " fill="#44423C" transform="translate(70,94)"/>
<path d="M0 0 C1 4 1 4 0.0625 6.25 C-0.4634375 7.11625 -0.4634375 7.11625 -1 8 C-3.4375 7.625 -3.4375 7.625 -6 7 C-6.33 6.34 -6.66 5.68 -7 5 C-4.69 3.35 -2.38 1.7 0 0 Z " fill="#767676" transform="translate(96,89)"/>
<path d="M0 0 C3.3 0.99 6.6 1.98 10 3 C10 3.66 10 4.32 10 5 C11.423125 4.938125 11.423125 4.938125 12.875 4.875 C16 5 16 5 18 7 C11.18012971 6.56699236 6.08356979 5.09212176 0 2 C0 1.34 0 0.68 0 0 Z " fill="#535353" transform="translate(117,76)"/>
<path d="M0 0 C1.65 0 3.3 0 5 0 C5 0.66 5 1.32 5 2 C7.97 2.495 7.97 2.495 11 3 C7.61981469 4.04005702 4.5219721 4.08004482 1 4 C0.67 4.66 0.34 5.32 0 6 C-0.99 5.67 -1.98 5.34 -3 5 C-2.505 4.360625 -2.01 3.72125 -1.5 3.0625 C0.09802862 1.29025661 0.09802862 1.29025661 0 0 Z " fill="#4B4B4B" transform="translate(73,28)"/>
<path d="M0 0 C0.66 0 1.32 0 2 0 C2 0.99 2 1.98 2 3 C2.99 3.33 3.98 3.66 5 4 C5.33 5.65 5.66 7.3 6 9 C5.01 9.66 4.02 10.32 3 11 C0 4.5 0 4.5 0 0 Z " fill="#3F3F3F" transform="translate(26,86)"/>
<path d="M0 0 C0.99 0.495 0.99 0.495 2 1 C2.33333333 2.66666667 2.66666667 4.33333333 3 6 C3.66 6.33 4.32 6.66 5 7 C4.67 8.32 4.34 9.64 4 11 C3.01 10.67 2.02 10.34 1 10 C-0.60725635 6.78548731 -0.05748185 3.56387464 0 0 Z " fill="#3F3F3F" transform="translate(29,78)"/>
<path d="M0 0 C3.48325743 0.44383441 6.26857514 0.49259109 9.6875 -0.5 C7.99570672 1.54219706 7.05022334 2.41793306 4.42578125 3.01171875 C3.62527344 3.06972656 2.82476562 3.12773438 2 3.1875 C0.78763672 3.28611328 0.78763672 3.28611328 -0.44921875 3.38671875 C-1.06410156 3.42410156 -1.67898437 3.46148437 -2.3125 3.5 C-2.3125 2.84 -2.3125 2.18 -2.3125 1.5 C-3.9625 2.16 -5.6125 2.82 -7.3125 3.5 C-6.9825 2.51 -6.6525 1.52 -6.3125 0.5 C-3.8320747 -0.74021265 -2.71410851 -0.40141437 0 0 Z " fill="#808080" transform="translate(67.3125,82.5)"/>
<path d="M0 0 C3.68754757 0.49831724 5.60490662 1.10067643 8 4 C7.01 4.33 6.02 4.66 5 5 C4.67 5.66 4.34 6.32 4 7 C2 5.1875 2 5.1875 0 3 C0 2.01 0 1.02 0 0 Z " fill="#B8B8B8" transform="translate(108,76)"/>
<path d="M0 0 C1 3 1 3 1 5 C-0.32 5 -1.64 5 -3 5 C-2.67 6.32 -2.34 7.64 -2 9 C-3.65 9.33 -5.3 9.66 -7 10 C-6.42424336 6.64749299 -5.40693737 5.06181371 -2.9375 2.75 C-2.38964844 2.22921875 -1.84179688 1.7084375 -1.27734375 1.171875 C-0.64505859 0.59179688 -0.64505859 0.59179688 0 0 Z " fill="#9C9B99" transform="translate(17,58)"/>
<path d="M0 0 C2.475 0.99 2.475 0.99 5 2 C5 1.34 5 0.68 5 0 C5.66 0 6.32 0 7 0 C9 3 9 3 8.625 5.6875 C8.41875 6.450625 8.2125 7.21375 8 8 C7.34 7.01 6.68 6.02 6 5 C3.94074861 4.27617533 3.94074861 4.27617533 2 4 C2 3.34 2 2.68 2 2 C1.34 2 0.68 2 0 2 C0 1.34 0 0.68 0 0 Z " fill="#3D3D3D" transform="translate(77,50)"/>
<path d="M0 0 C4.95 0.99 4.95 0.99 10 2 C10 2.99 10 3.98 10 5 C6.18492784 5 4.32091002 4.70533217 1 3 C0.67 2.01 0.34 1.02 0 0 Z " fill="#5D584B" transform="translate(29,32)"/>
<path d="M0 0 C0.66 0 1.32 0 2 0 C2.66 4.29 3.32 8.58 4 13 C3.01 13 2.02 13 1 13 C0.1276588 10.00519083 -0.10829766 7.36424089 -0.0625 4.25 C-0.05347656 3.45078125 -0.04445312 2.6515625 -0.03515625 1.828125 C-0.02355469 1.22484375 -0.01195312 0.6215625 0 0 Z " fill="#EBAF0E" transform="translate(56,77)"/>
<path d="M0 0 C0.66 0 1.32 0 2 0 C2.66 1.65 3.32 3.3 4 5 C3.34 5 2.68 5 2 5 C2 5.99 2 6.98 2 8 C1.01 8 0.02 8 -1 8 C-1.33 7.01 -1.66 6.02 -2 5 C-2.66 4.67 -3.32 4.34 -4 4 C-2.68 3.34 -1.36 2.68 0 2 C0 1.34 0 0.68 0 0 Z " fill="#565656" transform="translate(93,74)"/>
<path d="M0 0 C0.66 0 1.32 0 2 0 C0.71700242 2.86207152 -0.530636 5.0245088 -3 7 C-3.99 7 -4.98 7 -6 7 C-6 7.99 -6 8.98 -6 10 C-6.99 10.33 -7.98 10.66 -9 11 C-9 10.34 -9 9.68 -9 9 C-8.34 9 -7.68 9 -7 9 C-6.896875 8.21625 -6.79375 7.4325 -6.6875 6.625 C-6 4 -6 4 -3 2 C-2.01 2 -1.02 2 0 2 C0 1.34 0 0.68 0 0 Z " fill="#959491" transform="translate(148,75)"/>
<path d="M0 0 C1.98 0 3.96 0 6 0 C5.01 0.495 5.01 0.495 4 1 C4.66 3.64 5.32 6.28 6 9 C5.01 9 4.02 9 3 9 C2.01 6.03 1.02 3.06 0 0 Z " fill="#7B7B7B" transform="translate(21,72)"/>
<path d="M0 0 C0.680625 0.33 1.36125 0.66 2.0625 1 C5.50840238 2.17307315 8.38397422 2.14180493 12 2 C12 2.99 12 3.98 12 5 C11.06027344 4.98259766 11.06027344 4.98259766 10.1015625 4.96484375 C8.87566406 4.95130859 8.87566406 4.95130859 7.625 4.9375 C6.40683594 4.92009766 6.40683594 4.92009766 5.1640625 4.90234375 C2.95062858 4.85533666 2.95062858 4.85533666 1 6 C1 5.34 1 4.68 1 4 C0.34 3.67 -0.32 3.34 -1 3 C-0.67 2.01 -0.34 1.02 0 0 Z " fill="#9D9C98" transform="translate(140,61)"/>
<path d="M0 0 C2.475 0.495 2.475 0.495 5 1 C5 1.99 5 2.98 5 4 C4.01 4.495 4.01 4.495 3 5 C2.27840576 6.64363134 1.60648579 8.31050386 1 10 C0.67 10 0.34 10 0 10 C0 6.7 0 3.4 0 0 Z " fill="#383326" transform="translate(16,39)"/>
<path d="M0 0 C-0.33 2.31 -0.66 4.62 -1 7 C-2.98 6.01 -4.96 5.02 -7 4 C-7 3.34 -7 2.68 -7 2 C-4 0 -4 0 0 0 Z " fill="#848077" transform="translate(70,57)"/>
<path d="M0 0 C2.8125 0.1875 2.8125 0.1875 6 1 C7.9375 3.4375 7.9375 3.4375 9 6 C8.67 6.66 8.34 7.32 8 8 C7.34 6.68 6.68 5.36 6 4 C4.35 4 2.7 4 1 4 C0.67 2.68 0.34 1.36 0 0 Z " fill="#B9B6AC" transform="translate(42,53)"/>
<path d="M0 0 C1.6266848 0.28211877 3.25132896 0.57602375 4.875 0.875 C5.77992187 1.03742187 6.68484375 1.19984375 7.6171875 1.3671875 C10 2 10 2 12 4 C11.67 4.66 11.34 5.32 11 6 C9.53815942 5.77139942 8.08044581 5.51629608 6.625 5.25 C5.40683594 5.04117188 5.40683594 5.04117188 4.1640625 4.828125 C2 4 2 4 0.7109375 1.921875 C0.47632812 1.28765625 0.24171875 0.6534375 0 0 Z " fill="#262626" transform="translate(121,39)"/>
<path d="M0 0 C0.86625 0.3403125 0.86625 0.3403125 1.75 0.6875 C1.75 2.0075 1.75 3.3275 1.75 4.6875 C-0.89 4.6875 -3.53 4.6875 -6.25 4.6875 C-6.25 4.0275 -6.25 3.3675 -6.25 2.6875 C-3.02697842 -0.42041367 -3.02697842 -0.42041367 0 0 Z " fill="#9E9E9E" transform="translate(123.25,93.3125)"/>
<path d="M0 0 C0.99 0 1.98 0 3 0 C3.33 1.65 3.66 3.3 4 5 C3.34 5 2.68 5 2 5 C2 5.66 2 6.32 2 7 C2.66 7.33 3.32 7.66 4 8 C3.6875 9.9375 3.6875 9.9375 3 12 C2.01 12.33 1.02 12.66 0 13 C0 8.71 0 4.42 0 0 Z " fill="#797979" transform="translate(46,70)"/>
<path d="M0 0 C0.66 0.33 1.32 0.66 2 1 C1.01 2.485 1.01 2.485 0 4 C0.66 4.66 1.32 5.32 2 6 C1.01 6.495 1.01 6.495 0 7 C-0.66 6.67 -1.32 6.34 -2 6 C-1.67 7.32 -1.34 8.64 -1 10 C-1.99 9.67 -2.98 9.34 -4 9 C-4.25 6.1875 -4.25 6.1875 -4 3 C-2 1.125 -2 1.125 0 0 Z " fill="#252423" transform="translate(72,29)"/>
<path d="M0 0 C1.32 0 2.64 0 4 0 C4.1875 2.875 4.1875 2.875 4 6 C3.01 6.66 2.02 7.32 1 8 C1.33 6.35 1.66 4.7 2 3 C1.34 3 0.68 3 0 3 C-0.33 3.99 -0.66 4.98 -1 6 C-1.33 5.34 -1.66 4.68 -2 4 C-1.0625 1.875 -1.0625 1.875 0 0 Z " fill="#545454" transform="translate(43,75)"/>
<path d="M0 0 C1.98 0 3.96 0 6 0 C5.34 1.32 4.68 2.64 4 4 C3.01 4 2.02 4 1 4 C1 4.99 1 5.98 1 7 C0.34 7 -0.32 7 -1 7 C-0.67 4.69 -0.34 2.38 0 0 Z " fill="#7F7D76" transform="translate(58,64)"/>
<path d="M0 0 C0.33 0.99 0.66 1.98 1 3 C-0.32 3.99 -1.64 4.98 -3 6 C-3 5.01 -3 4.02 -3 3 C-3.66 3 -4.32 3 -5 3 C-5 2.34 -5 1.68 -5 1 C-5.66 0.67 -6.32 0.34 -7 0 C-3.89953913 -1.03348696 -2.94389782 -1.17755913 0 0 Z " fill="#42403A" transform="translate(141,48)"/>
<path d="M0 0 C1.65 0 3.3 0 5 0 C5.33 1.98 5.66 3.96 6 6 C5.34 5.67 4.68 5.34 4 5 C4 4.34 4 3.68 4 3 C3.34 3 2.68 3 2 3 C2 3.66 2 4.32 2 5 C1.01 4.67 0.02 4.34 -1 4 C-0.67 2.68 -0.34 1.36 0 0 Z " fill="#8D8C89" transform="translate(80,47)"/>
<path d="M0 0 C2 2 2 2 2.1953125 4.1640625 C2.17210937 4.97617187 2.14890625 5.78828125 2.125 6.625 C2.10695312 7.44226562 2.08890625 8.25953125 2.0703125 9.1015625 C2.03550781 10.04128906 2.03550781 10.04128906 2 11 C1.67 11 1.34 11 1 11 C0.67 8.69 0.34 6.38 0 4 C-1.32 4 -2.64 4 -4 4 C-4.33 3.01 -4.66 2.02 -5 1 C-2.625 0.375 -2.625 0.375 0 0 Z " fill="#2A271F" transform="translate(143,33)"/>
<path d="M0 0 C0 3 0 3 -2 6 C-1.34 6.33 -0.68 6.66 0 7 C-1 8 -1 8 -4.0625 8.0625 C-5.031875 8.041875 -6.00125 8.02125 -7 8 C-6.8125 6.1875 -6.8125 6.1875 -6 4 C-3.5 2.3125 -3.5 2.3125 -1 1 C-0.67 0.67 -0.34 0.34 0 0 Z " fill="#6E6D6A" transform="translate(23,92)"/>
<path d="M0 0 C1.32 0 2.64 0 4 0 C3.67 1.65 3.34 3.3 3 5 C1.35 5 -0.3 5 -2 5 C-2.33 4.34 -2.66 3.68 -3 3 C-2.34 3 -1.68 3 -1 3 C-0.67 2.01 -0.34 1.02 0 0 Z " fill="#8B8A88" transform="translate(53,86)"/>
<path d="M0 0 C1.98 0.99 1.98 0.99 4 2 C3.67 2.99 3.34 3.98 3 5 C4.32 5.33 5.64 5.66 7 6 C5.625 7.5 5.625 7.5 4 9 C3.34 9 2.68 9 2 9 C1.34 6.03 0.68 3.06 0 0 Z " fill="#272727" transform="translate(125,59)"/>
<path d="M0 0 C1.485 0.99 1.485 0.99 3 2 C3.66 1.34 4.32 0.68 5 0 C4.67 2.64 4.34 5.28 4 8 C3.01 7.67 2.02 7.34 1 7 C0.67 4.69 0.34 2.38 0 0 Z " fill="#6D6B66" transform="translate(69,39)"/>
<path d="M0 0 C4.97963801 4.81900452 4.97963801 4.81900452 5.0625 9.625 C5.041875 10.73875 5.02125 11.8525 5 13 C4.34 12.01 3.68 11.02 3 10 C2.00612666 8.66209359 1.0073108 7.32781878 0 6 C0.66 6 1.32 6 2 6 C1.34 4.02 0.68 2.04 0 0 Z " fill="#212121" transform="translate(65,67)"/>
<path d="M0 0 C2.37783838 2.37783838 2.59009208 3.72073665 3 7 C2.67 7.66 2.34 8.32 2 9 C1.34 9 0.68 9 0 9 C-1.125 6.1875 -1.125 6.1875 -2 3 C-1.34 2.01 -0.68 1.02 0 0 Z " fill="#515151" transform="translate(37,42)"/>
<path d="M0 0 C0.99 0 1.98 0 3 0 C5.1875 2.5 5.1875 2.5 7 5 C4.625 5.625 4.625 5.625 2 6 C1.34 5.34 0.68 4.68 0 4 C0 2.68 0 1.36 0 0 Z " fill="#888888" transform="translate(74,39)"/>
<path d="M0 0 C0.66666667 2 1.33333333 4 2 6 C1.34 6.66 0.68 7.32 0 8 C-1.32 7.01 -2.64 6.02 -4 5 C-2.25 1.125 -2.25 1.125 0 0 Z " fill="#50504F" transform="translate(64,86)"/>
<path d="M0 0 C-0.33 0.99 -0.66 1.98 -1 3 C-3.97 3 -6.94 3 -10 3 C-10 2.34 -10 1.68 -10 1 C-6.61981469 -0.04005702 -3.5219721 -0.08004482 0 0 Z " fill="#747474" transform="translate(22,78)"/>
<path d="M0 0 C0 3.9478088 -1.33724565 5.18508826 -4 8 C-4.99 8 -5.98 8 -7 8 C-7 7.34 -7 6.68 -7 6 C-5.46875 4.4921875 -5.46875 4.4921875 -3.5 2.875 C-2.8503125 2.33617188 -2.200625 1.79734375 -1.53125 1.2421875 C-1.0259375 0.83226563 -0.520625 0.42234375 0 0 Z " fill="#2F2F2E" transform="translate(42,92)"/>
<path d="M0 0 C0 1.32 0 2.64 0 4 C-6.625 3.25 -6.625 3.25 -10 1 C-6.61981469 -0.04005702 -3.5219721 -0.08004482 0 0 Z " fill="#858585" transform="translate(22,80)"/>
<path d="M0 0 C2.90118942 0.46419031 4.40719244 0.44077954 7.125 -0.5 C4.99719421 1.84058637 3.00937779 3.20700306 0.125 4.5 C-0.205 3.84 -0.535 3.18 -0.875 2.5 C-2.195 2.5 -3.515 2.5 -4.875 2.5 C-4.875 1.84 -4.875 1.18 -4.875 0.5 C-2.875 -0.5 -2.875 -0.5 0 0 Z " fill="#353535" transform="translate(74.875,64.5)"/>
<path d="M0 0 C1.98 0.66 3.96 1.32 6 2 C3.44931155 4.35448165 2.28982642 4.98327924 -1.25 5.1875 C-2.1575 5.125625 -3.065 5.06375 -4 5 C-3 3 -3 3 0 2 C0 1.34 0 0.68 0 0 Z " fill="#2B2A27" transform="translate(88,95)"/>
<path d="M0 0 C0.66 0.33 1.32 0.66 2 1 C1.01 3.31 0.02 5.62 -1 8 C-1.99 8 -2.98 8 -4 8 C-4 6.35 -4 4.7 -4 3 C-3.01 2.67 -2.02 2.34 -1 2 C-0.67 1.34 -0.34 0.68 0 0 Z " fill="#676767" transform="translate(52,83)"/>
<path d="M0 0 C0.66 0 1.32 0 2 0 C1.67 1.32 1.34 2.64 1 4 C0.34 4 -0.32 4 -1 4 C-1 4.66 -1 5.32 -1 6 C-2.65 6 -4.3 6 -6 6 C-6 5.34 -6 4.68 -6 4 C-5.01 4 -4.02 4 -3 4 C-2.67 3.01 -2.34 2.02 -2 1 C-1.67 1.33 -1.34 1.66 -1 2 C-0.67 1.34 -0.34 0.68 0 0 Z " fill="#797979" transform="translate(43,78)"/>
<path d="M0 0 C0.66 0 1.32 0 2 0 C2.33 0.99 2.66 1.98 3 3 C2.01 4.485 2.01 4.485 1 6 C0.01 5.34 -0.98 4.68 -2 4 C-2.33 5.32 -2.66 6.64 -3 8 C-3.33 7.01 -3.66 6.02 -4 5 C-2.1875 2.3125 -2.1875 2.3125 0 0 Z " fill="#5A5A5A" transform="translate(87,59)"/>
<path d="M0 0 C1.9375 0.8125 1.9375 0.8125 4 2 C4.33 2.99 4.66 3.98 5 5 C4.34 5 3.68 5 3 5 C3 5.66 3 6.32 3 7 C2.34 7 1.68 7 1 7 C0.67 4.69 0.34 2.38 0 0 Z " fill="#A5A5A3" transform="translate(86,52)"/>
<path d="M0 0 C2.475 0.99 2.475 0.99 5 2 C5 3.65 5 5.3 5 7 C3.66666667 7 2.33333333 7 1 7 C0.67 4.69 0.34 2.38 0 0 Z " fill="#7C7C7C" transform="translate(121,81)"/>
<path d="M0 0 C0.99 0 1.98 0 3 0 C1.87548273 2.9719385 0.77706209 5.33440687 -1 8 C-1.66 8 -2.32 8 -3 8 C-2.37240135 5.07120629 -1.41377341 2.63904371 0 0 Z " fill="#676767" transform="translate(133,66)"/>
<path d="M0 0 C0.33 0.66 0.66 1.32 1 2 C1.99 2 2.98 2 4 2 C4 3.65 4 5.3 4 7 C2.68 7 1.36 7 0 7 C-1.04449911 3.86650268 -0.93423645 3.01031744 0 0 Z " fill="#848484" transform="translate(12,67)"/>
<path d="M0 0 C0.99 0.33 1.98 0.66 3 1 C3 3.97 3 6.94 3 10 C0.70366176 6.55549263 0.45983515 4.06187717 0 0 Z " fill="#777777" transform="translate(121,62)"/>
<path d="M0 0 C0.66 0 1.32 0 2 0 C1.34 1.65 0.68 3.3 0 5 C-1.65 4.67 -3.3 4.34 -5 4 C-4.67 3.01 -4.34 2.02 -4 1 C-2.02 1.495 -2.02 1.495 0 2 C0 1.34 0 0.68 0 0 Z " fill="#676767" transform="translate(42,82)"/>
<path d="M0 0 C0.86625 0.556875 0.86625 0.556875 1.75 1.125 C1.75 1.785 1.75 2.445 1.75 3.125 C-0.89 3.125 -3.53 3.125 -6.25 3.125 C-6.25 2.465 -6.25 1.805 -6.25 1.125 C-2.80384615 -1.09038462 -2.80384615 -1.09038462 0 0 Z " fill="#525252" transform="translate(66.25,73.875)"/>
<path d="M0 0 C0 1.65 0 3.3 0 5 C-1.65 4.67 -3.3 4.34 -5 4 C-5.33 3.01 -5.66 2.02 -6 1 C-1.125 0 -1.125 0 0 0 Z " fill="#585858" transform="translate(87,37)"/>
<path d="M0 0 C0.99 0.33 1.98 0.66 3 1 C2.1875 2.9375 2.1875 2.9375 1 5 C0.01 5.33 -0.98 5.66 -2 6 C-2.33 6.66 -2.66 7.32 -3 8 C-2.45276317 4.62537285 -1.9451 2.91765 0 0 Z " fill="#858585" transform="translate(119,90)"/>
<path d="M0 0 C0 2.97 0 5.94 0 9 C-0.99 8.67 -1.98 8.34 -3 8 C-3 5.69 -3 3.38 -3 1 C-1 0 -1 0 0 0 Z " fill="#857B61" transform="translate(100,77)"/>
<path d="M0 0 C0.99 0.99 1.98 1.98 3 3 C3.66 2.67 4.32 2.34 5 2 C5.66 4.31 6.32 6.62 7 9 C1.21538462 5.67692308 1.21538462 5.67692308 0.125 2.25 C0.08375 1.5075 0.0425 0.765 0 0 Z " fill="#848484" transform="translate(14,63)"/>
<path d="M0 0 C0 0.99 0 1.98 0 3 C-2.97 2.505 -2.97 2.505 -6 2 C-6 1.34 -6 0.68 -6 0 C-3.50907189 -1.24546405 -2.58919267 -0.7767578 0 0 Z " fill="#3F3F3F" transform="translate(33,54)"/>
<path d="M0 0 C1.32 0 2.64 0 4 0 C3.34 1.32 2.68 2.64 2 4 C0.68 4 -0.64 4 -2 4 C-2.33 3.34 -2.66 2.68 -3 2 C-2.01 2 -1.02 2 0 2 C0 1.34 0 0.68 0 0 Z " fill="#080808" transform="translate(133,36)"/>
<path d="M0 0 C2.97 1.98 2.97 1.98 6 4 C5.01 4.495 5.01 4.495 4 5 C3.67 5.66 3.34 6.32 3 7 C1.5 5.75 1.5 5.75 0 4 C0 2.68 0 1.36 0 0 Z " fill="#3F3B30" transform="translate(117,34)"/>
<path d="M0 0 C1.98 0 3.96 0 6 0 C5.67 1.32 5.34 2.64 5 4 C3.35 3.67 1.7 3.34 0 3 C0 2.01 0 1.02 0 0 Z " fill="#A9A9A9" transform="translate(125,69)"/>
<path d="M0 0 C0.33 0 0.66 0 1 0 C1 2.31 1 4.62 1 7 C0.01 7 -0.98 7 -2 7 C-2.33 6.01 -2.66 5.02 -3 4 C-2.67 3.34 -2.34 2.68 -2 2 C-1.34 2 -0.68 2 0 2 C0 1.34 0 0.68 0 0 Z " fill="#AEAEAE" transform="translate(120,64)"/>
<path d="M0 0 C0.99 0.99 1.98 1.98 3 3 C2.01 4.485 2.01 4.485 1 6 C0.34 6 -0.32 6 -1 6 C-1.33 4.35 -1.66 2.7 -2 1 C-1.34 0.67 -0.68 0.34 0 0 Z " fill="#A0A09F" transform="translate(49,60)"/>
<path d="M0 0 C0.66 1.32 1.32 2.64 2 4 C-1 6 -1 6 -4 6 C-3.67 5.01 -3.34 4.02 -3 3 C-2.34 3 -1.68 3 -1 3 C-0.67 2.01 -0.34 1.02 0 0 Z " fill="#282828" transform="translate(34,45)"/>
<path d="M0 0 C2.375 0.3125 2.375 0.3125 5 1 C5.66 1.99 6.32 2.98 7 4 C5.35 4 3.7 4 2 4 C1.34 2.68 0.68 1.36 0 0 Z " fill="#313131" transform="translate(122,44)"/>
<path d="M0 0 C-0.33 0.99 -0.66 1.98 -1 3 C-1.33 2.34 -1.66 1.68 -2 1 C-4.31 1.33 -6.62 1.66 -9 2 C-9 1.34 -9 0.68 -9 0 C-5.67465243 -1.10844919 -3.37817425 -0.84454356 0 0 Z " fill="#434341" transform="translate(87,46)"/>
<path d="M0 0 C0.66 0.33 1.32 0.66 2 1 C1.67 2.65 1.34 4.3 1 6 C-0.32 6 -1.64 6 -3 6 C-3 5.34 -3 4.68 -3 4 C-2.34 3.67 -1.68 3.34 -1 3 C-0.67 2.01 -0.34 1.02 0 0 Z " fill="#7B7B7B" transform="translate(45,90)"/>
<path d="M0 0 C0.99 0.33 1.98 0.66 3 1 C2.67 2.65 2.34 4.3 2 6 C0.68 5.67 -0.64 5.34 -2 5 C-2 4.34 -2 3.68 -2 3 C-1.34 3 -0.68 3 0 3 C0 2.01 0 1.02 0 0 Z " fill="#544F41" transform="translate(155,68)"/>
<path d="M0 0 C-0.66 1.32 -1.32 2.64 -2 4 C-3.98 3.34 -5.96 2.68 -8 2 C-4.91190305 0.23537317 -3.76687864 0 0 0 Z " fill="#D5B869" transform="translate(105,67)"/>
<path d="M0 0 C3.37503669 1.1858237 5.64722731 2.27573689 8 5 C7.01 5.33 6.02 5.66 5 6 C3.35 4.02 1.7 2.04 0 0 Z " fill="#666666" transform="translate(65,64)"/>
<path d="M0 0 C0.66 0 1.32 0 2 0 C2 1.98 2 3.96 2 6 C0.68 5.67 -0.64 5.34 -2 5 C-2 4.01 -2 3.02 -2 2 C-1.34 2 -0.68 2 0 2 C0 1.34 0 0.68 0 0 Z " fill="#565656" transform="translate(103,60)"/>
<path d="M0 0 C0.66 0 1.32 0 2 0 C2 2.97 2 5.94 2 9 C0.25165733 6.377486 -0.51529754 5.00515522 -1 2 C-0.67 1.34 -0.34 0.68 0 0 Z " fill="#111111" transform="translate(33,60)"/>
<path d="M0 0 C0.99 0.33 1.98 0.66 3 1 C3.33 3.31 3.66 5.62 4 8 C2.68 7.34 1.36 6.68 0 6 C0 5.34 0 4.68 0 4 C0.66 4 1.32 4 2 4 C1.34 2.68 0.68 1.36 0 0 Z " fill="#595959" transform="translate(89,53)"/>
</svg>
