<?xml version="1.0" encoding="UTF-8"?>
<svg version="1.1" xmlns="http://www.w3.org/2000/svg" width="160" height="100">
<path d="M0 0 C52.8 0 105.6 0 160 0 C160 33 160 66 160 100 C107.2 100 54.4 100 0 100 C0 67 0 34 0 0 Z " fill="#9F9F9E" transform="translate(0,0)"/>
<path d="M0 0 C52.8 0 105.6 0 160 0 C160 33 160 33 157 38 C157.21329449 40.74239143 157.21329449 40.74239143 158 43 C152.25 47 152.25 47 150 47 C150 48.32 150 49.64 150 51 C149.34 51 148.68 51 148 51 C147.67 48.03 147.34 45.06 147 42 C146.01 42.99 145.02 43.98 144 45 C143.34 45 142.68 45 142 45 C142 44.34 142 43.68 142 43 C141.01 43.33 140.02 43.66 139 44 C138.67 46.31 138.34 48.62 138 51 C135.525 51.495 135.525 51.495 133 52 C133 49.69 133 47.38 133 45 C132.278125 45.04125 131.55625 45.0825 130.8125 45.125 C127.79270631 44.99078695 125.73064271 44.24829381 123 43 C123.020625 44.134375 123.04125 45.26875 123.0625 46.4375 C123 50 123 50 122 51 C115.47457627 51.23728814 115.47457627 51.23728814 113 50 C112.40644386 47.35139573 112.25790731 44.70802678 112 42 C110.68 42 109.36 42 108 42 C107.67 44.64 107.34 47.28 107 50 C103.49223216 51.60355101 100.85645121 52.22036864 97 52 C96.505 48.04 96.505 48.04 96 44 C94.02 43.505 94.02 43.505 92 43 C92 45.64 92 48.28 92 51 C89.47356605 51.99252762 88.36712644 52.14685058 85.8125 51.125 C83.00946018 47.83867745 83.17615255 44.20123834 83 40 C81.68 40.33 80.36 40.66 79 41 C78.9175 42.11375 78.835 43.2275 78.75 44.375 C78.37875 46.169375 78.37875 46.169375 78 48 C76 49.25 76 49.25 74 50 C73.67 50.99 73.34 51.98 73 53 C71.02 52.505 71.02 52.505 69 52 C69 49.69 69 47.38 69 45 C67.68 45 66.36 45 65 45 C64.67 46.65 64.34 48.3 64 50 C61.03 49.505 61.03 49.505 58 49 C57.505 45.04 57.505 45.04 57 41 C55.68 40.67 54.36 40.34 53 40 C52.40267181 42.76264289 52 45.16032769 52 48 C49.04335481 49.4783226 46.25770263 49.06032783 43 49 C43 46.36 43 43.72 43 41 C41.68 41 40.36 41 39 41 C38.81824219 41.84884766 38.81824219 41.84884766 38.6328125 42.71484375 C38.46523438 43.44832031 38.29765625 44.18179688 38.125 44.9375 C37.96257813 45.66839844 37.80015625 46.39929687 37.6328125 47.15234375 C37 49 37 49 35 50 C33.00039988 50.039992 30.99952758 50.04346799 29 50 C29 47.36 29 44.72 29 42 C27.68 42 26.36 42 25 42 C25 44.97 25 47.94 25 51 C22.69 51 20.38 51 18 51 C17.505 48.525 17.505 48.525 17 46 C15.35 45.67 13.7 45.34 12 45 C11.7834375 45.928125 11.7834375 45.928125 11.5625 46.875 C11 49 11 49 10 51 C8.35 50.67 6.7 50.34 5 50 C4.83564453 49.04287109 4.83564453 49.04287109 4.66796875 48.06640625 C4.50941406 47.24011719 4.35085937 46.41382813 4.1875 45.5625 C4.03667969 44.73878906 3.88585937 43.91507813 3.73046875 43.06640625 C3.48941406 42.38449219 3.24835938 41.70257813 3 41 C2.01 40.67 1.02 40.34 0 40 C0 26.8 0 13.6 0 0 Z " fill="#FEB900" transform="translate(0,0)"/>
<path d="M0 0 C1.32 0.33 2.64 0.66 4 1 C5.4783226 3.95664519 5.06032783 6.74229737 5 10 C6.65 10.33 8.3 10.66 10 11 C10.66 9.02 11.32 7.04 12 5 C13.65 5 15.3 5 17 5 C17.680625 6.670625 17.680625 6.670625 18.375 8.375 C19.72465986 11.96199008 19.72465986 11.96199008 22 14 C21.01 15.485 21.01 15.485 20 17 C21.98 16.67 23.96 16.34 26 16 C26 16.99 26 17.98 26 19 C25.34 19 24.68 19 24 19 C24.2547514 20.31571603 24.52934141 21.62760376 24.8125 22.9375 C24.96332031 23.66839844 25.11414063 24.39929688 25.26953125 25.15234375 C25.51058594 25.76207031 25.75164063 26.37179688 26 27 C26.99 27.33 27.98 27.66 29 28 C29 29.98 29 31.96 29 34 C28.34 34 27.68 34 27 34 C27 32.02 27 30.04 27 28 C26.071875 27.896875 25.14375 27.79375 24.1875 27.6875 C21 27 21 27 19.0625 25.75 C18 24 18 24 18.3125 21.3125 C18.6528125 20.1678125 18.6528125 20.1678125 19 19 C17.35 19 15.7 19 14 19 C14 20.65 14 22.3 14 24 C13.34 24.33 12.68 24.66 12 25 C11.31270746 27.11846285 11.31270746 27.11846285 10.875 29.5625 C10.70742187 30.38878906 10.53984375 31.21507813 10.3671875 32.06640625 C10.24601563 32.70449219 10.12484375 33.34257813 10 34 C10.66 34.33 11.32 34.66 12 35 C12 33.68 12 32.36 12 31 C14 29.25 14 29.25 16 28 C16 29.65 16 31.3 16 33 C17.32 33 18.64 33 20 33 C21.485 33.495 21.485 33.495 23 34 C23 34.66 23 35.32 23 36 C21.515 36.495 21.515 36.495 20 37 C23.465 37.495 23.465 37.495 27 38 C27 37.34 27 36.68 27 36 C31.38461538 33 31.38461538 33 34 33 C33.34 30.69 32.68 28.38 32 26 C32.66 26 33.32 26 34 26 C33.649375 25.4225 33.29875 24.845 32.9375 24.25 C31.85082593 21.64198224 32.06934867 20.60582371 33 18 C33.268125 18.61875 33.53625 19.2375 33.8125 19.875 C34.95556848 22.2995233 34.95556848 22.2995233 38 24 C41.06630664 23.1025444 42.73038808 22.26961192 45 20 C45.66 20.33 46.32 20.66 47 21 C48.3764647 26.81751117 48.09421723 33.06431476 48 39 C46.68 39 45.36 39 44 39 C41.75 36 41.75 36 40 33 C39.71125 33.598125 39.4225 34.19625 39.125 34.8125 C38 37 38 37 36 40 C33.375 40.1875 33.375 40.1875 31 40 C30.67 39.34 30.34 38.68 30 38 C29.67 38.66 29.34 39.32 29 40 C22.4 39.67 15.8 39.34 9 39 C9 38.34 9 37.68 9 37 C8.34 37 7.68 37 7 37 C7 37.66 7 38.32 7 39 C5.68 39 4.36 39 3 39 C3 39.99 3 40.98 3 42 C54.81 42 106.62 42 160 42 C160 47.94 160 53.88 160 60 C107.2 60 54.4 60 0 60 C0 40.2 0 20.4 0 0 Z " fill="#292929" transform="translate(0,40)"/>
<path d="M0 0 C3.875 0.875 3.875 0.875 5 2 C5.14115161 4.67058851 5.04247107 7.32432238 5 10 C7.475 10.495 7.475 10.495 10 11 C10 11.66 10 12.32 10 13 C10.66 13 11.32 13 12 13 C12 13.66 12 14.32 12 15 C12.66 15 13.32 15 14 15 C14 15.66 14 16.32 14 17 C15.65 17.33 17.3 17.66 19 18 C19.625 20.8125 19.625 20.8125 20 24 C19.01 25.485 19.01 25.485 18 27 C11.375 26.25 11.375 26.25 8 24 C8.495 22.515 8.495 22.515 9 21 C9 21.66 9 22.32 9 23 C9.66 23 10.32 23 11 23 C11 22.01 11 21.02 11 20 C8.525 19.01 8.525 19.01 6 18 C6 19.98 6 21.96 6 24 C4.02 23.67 2.04 23.34 0 23 C-0.33 28.61 -0.66 34.22 -1 40 C0.65 40 2.3 40 4 40 C4.33 39.01 4.66 38.02 5 37 C5.66 37.99 6.32 38.98 7 40 C7.495 39.01 7.495 39.01 8 38 C8.66 38 9.32 38 10 38 C10 38.99 10 39.98 10 41 C11.98 41 13.96 41 16 41 C16 40.01 16 39.02 16 38 C16.66 38 17.32 38 18 38 C18 38.99 18 39.98 18 41 C18.99 41 19.98 41 21 41 C20.0022242 38.00667261 19.2477975 37.05233685 17 35 C19.38564077 35.57584432 21.66682784 36.22227595 24 37 C24 37.99 24 38.98 24 40 C27.3 40 30.6 40 34 40 C34 39.34 34 38.68 34 38 C35.875 35.875 35.875 35.875 38 34 C38.66 34 39.32 34 40 34 C40 37 40 37 38.5 38.6875 C38.005 39.120625 37.51 39.55375 37 40 C37.99 40 38.98 40 40 40 C40 39.34 40 38.68 40 38 C40.66 38 41.32 38 42 38 C42 38.99 42 39.98 42 41 C44.64 41 47.28 41 50 41 C49.608125 39.865625 49.21625 38.73125 48.8125 37.5625 C47.49210435 32.47214712 48.97535264 28.70240678 51 24 C50.34 24 49.68 24 49 24 C48.505 25.485 48.505 25.485 48 27 C48.33 24.69 48.66 22.38 49 20 C50.98 20 52.96 20 55 20 C55 20.99 55 21.98 55 23 C56.65 23.33 58.3 23.66 60 24 C60 24.66 60 25.32 60 26 C60.66 26 61.32 26 62 26 C62 25.01 62 24.02 62 23 C63.051875 23.309375 64.10375 23.61875 65.1875 23.9375 C69.2240619 25.06244348 72.80949411 26 77 26 C76.26308894 29.1415682 75.43358826 32.10108352 74 35 C70.9375 36.625 70.9375 36.625 68 37 C67.34 36.67 66.68 36.34 66 36 C66 36.66 66 37.32 66 38 C68.97 38 71.94 38 75 38 C75 38.99 75 39.98 75 41 C76.32 41 77.64 41 79 41 C79.33 39.02 79.66 37.04 80 35 C79.34 35 78.68 35 78 35 C78.22243545 29.4391137 79.46312785 26.88377939 83.33203125 23.1640625 C85.20212824 21.85893626 86.7726709 21.41551042 89 21 C88.979375 22.0725 88.95875 23.145 88.9375 24.25 C88.9857984 27.14790424 89.13155885 29.28612141 90 32 C92.7972908 29.93243723 93.02692273 28.85559629 93.6875 25.3125 C93.8421875 23.6728125 93.8421875 23.6728125 94 22 C96.75 22.375 96.75 22.375 100 24 C101.74930294 27.20175447 102.90994586 30.52465093 104 34 C103.525625 34.433125 103.05125 34.86625 102.5625 35.3125 C100.76313043 37.02309613 100.76313043 37.02309613 100 40 C100.99 40 101.98 40 103 40 C103.33 39.34 103.66 38.68 104 38 C104 38.66 104 39.32 104 40 C104.99 40 105.98 40 107 40 C107 40.99 107 41.98 107 43 C55.19 43 3.38 43 -50 43 C-50 42.01 -50 41.02 -50 40 C-48.68 40 -47.36 40 -46 40 C-46 39.34 -46 38.68 -46 38 C-45.34 38 -44.68 38 -44 38 C-44 38.66 -44 39.32 -44 40 C-43.2265625 39.98839844 -42.453125 39.97679687 -41.65625 39.96484375 C-35.66063636 39.91290155 -29.92697017 40.08815844 -24 41 C-23.67 40.01 -23.34 39.02 -23 38 C-22.67 38.99 -22.34 39.98 -22 41 C-19.57732914 41.05167527 -19.57732914 41.05167527 -17 40 C-15.13016255 36.52692672 -15.13016255 36.52692672 -14 33 C-12.29115995 34.62339805 -10.62553283 36.29319053 -9 38 C-9 38.66 -9 39.32 -9 40 C-7.68 40 -6.36 40 -5 40 C-5.165 38.700625 -5.33 37.40125 -5.5 36.0625 C-6.0315638 31.34580713 -6.07529541 26.74361065 -6 22 C-6.5775 22.33 -7.155 22.66 -7.75 23 C-10 24 -10 24 -14 24 C-14.33 24.66 -14.66 25.32 -15 26 C-18.875 23.375 -18.875 23.375 -20 20 C-19.814375 21.134375 -19.62875 22.26875 -19.4375 23.4375 C-19.293125 24.613125 -19.14875 25.78875 -19 27 C-19.33 27.33 -19.66 27.66 -20 28 C-19.71325582 30.00720923 -19.38133299 32.0085944 -19 34 C-22.625 37 -22.625 37 -26 37 C-26 37.66 -26 38.32 -26 39 C-29.375 39.125 -29.375 39.125 -33 39 C-33.66 38.34 -34.32 37.68 -35 37 C-33.35 37 -31.7 37 -30 37 C-30 36.34 -30 35.68 -30 35 C-32.90073181 34.32198966 -32.90073181 34.32198966 -36 34 C-36.66 34.66 -37.32 35.32 -38 36 C-38 34.02 -38 32.04 -38 30 C-38.99 30.99 -39.98 31.98 -41 33 C-40.2236068 36.0745356 -40.2236068 36.0745356 -38 38 C-40.55222336 37.65970355 -41.70810113 37.32997263 -43.4375 35.375 C-44.31149327 31.68480621 -42.64299217 29.28598434 -41 26 C-41.66 25.67 -42.32 25.34 -43 25 C-41.68 25 -40.36 25 -39 25 C-39 23.35 -39 21.7 -39 20 C-37.35 20 -35.7 20 -34 20 C-34 22.31 -34 24.62 -34 27 C-31.36 27.66 -28.72 28.32 -26 29 C-26 30.98 -26 32.96 -26 35 C-25.34 35 -24.68 35 -24 35 C-24.39578073 30.47408157 -24.39578073 30.47408157 -27.0625 26.9375 C-29 25 -29 25 -29.25 22.25 C-29.1675 21.5075 -29.085 20.765 -29 20 C-28.34 20 -27.68 20 -27 20 C-27.33 19.34 -27.66 18.68 -28 18 C-29.65 18 -31.3 18 -33 18 C-33 16.68 -33 15.36 -33 14 C-33.33 13.01 -33.66 12.02 -34 11 C-32.35 11 -30.7 11 -29 11 C-29 8.36 -29 5.72 -29 3 C-27.34385343 2.61781233 -25.67542976 2.28604898 -24 2 C-23.67 2.33 -23.34 2.66 -23 3 C-23.17635452 5.69082872 -23.61835921 8.32851446 -24 11 C-21.36 10.67 -18.72 10.34 -16 10 C-15.67 7.36 -15.34 4.72 -15 2 C-13.34385343 1.61781233 -11.67542976 1.28604898 -10 1 C-9 2 -9 2 -8.875 4.9375 C-9 8 -9 8 -10 10 C-5.545 9.505 -5.545 9.505 -1 9 C-1.20625 8.071875 -1.4125 7.14375 -1.625 6.1875 C-2 3 -2 3 0 0 Z " fill="#8E8E8E" transform="translate(53,39)"/>
<path d="M0 0 C0.33 0 0.66 0 1 0 C1 15.18 1 30.36 1 46 C-1.31 46 -3.62 46 -6 46 C-5.38722388 43.03824877 -4.74627478 41.61941217 -3 39 C-3.41156563 36.6749291 -3.41156563 36.6749291 -4.375 34.3125 C-4.81972656 33.10013672 -4.81972656 33.10013672 -5.2734375 31.86328125 C-5.51320312 31.24839844 -5.75296875 30.63351563 -6 30 C-7.65 29.67 -9.3 29.34 -11 29 C-11.185625 30.3921875 -11.185625 30.3921875 -11.375 31.8125 C-12 35 -12 35 -14 38 C-14.66 38 -15.32 38 -16 38 C-18.09350689 34.5980513 -18.17942163 31.94727588 -18 28 C-24.167074 31.49211493 -24.167074 31.49211493 -27.1875 37.6875 C-27.455625 38.780625 -27.72375 39.87375 -28 41 C-27.34 41 -26.68 41 -26 41 C-26.33 42.98 -26.66 44.96 -27 47 C-28.32 47 -29.64 47 -31 47 C-31 46.01 -31 45.02 -31 44 C-31.928125 44.185625 -32.85625 44.37125 -33.8125 44.5625 C-37 45 -37 45 -40 44 C-40 43.34 -40 42.68 -40 42 C-37.36 41.67 -34.72 41.34 -32 41 C-31.34 38.36 -30.68 35.72 -30 33 C-30.825 33.0825 -31.65 33.165 -32.5 33.25 C-37.01303847 32.92764011 -40.11795056 31.20705349 -44 29 C-44 29.99 -44 30.98 -44 32 C-44.66 32 -45.32 32 -46 32 C-46.33 31.34 -46.66 30.68 -47 30 C-49.02463255 29.34786708 -49.02463255 29.34786708 -51 29 C-51 28.01 -51 27.02 -51 26 C-52.98 26 -54.96 26 -57 26 C-57.33 27.98 -57.66 29.96 -58 32 C-58.66 32 -59.32 32 -60 32 C-59.36593786 20.73993096 -59.36593786 20.73993096 -56 17 C-54.68 17 -53.36 17 -52 17 C-52 14.36 -52 11.72 -52 9 C-50.34385343 8.61781233 -48.67542976 8.28604898 -47 8 C-46 9 -46 9 -45.90234375 10.84765625 C-45.95117188 13.92382812 -45.95117188 13.92382812 -46 17 C-43.03 17 -40.06 17 -37 17 C-36.67 14.69 -36.34 12.38 -36 10 C-34.35369672 10.14042877 -32.70795821 10.28749329 -31.0625 10.4375 C-29.68771484 10.55931641 -29.68771484 10.55931641 -28.28515625 10.68359375 C-26 11 -26 11 -25 12 C-25.28730055 14.33944736 -25.61936779 16.6739143 -26 19 C-24.35 18.67 -22.7 18.34 -21 18 C-21 15.69 -21 13.38 -21 11 C-19.68 10.67 -18.36 10.34 -17 10 C-17 10.66 -17 11.32 -17 12 C-16.34 12 -15.68 12 -15 12 C-14.67 11.01 -14.34 10.02 -14 9 C-13.34 9 -12.68 9 -12 9 C-10.5216774 11.95664519 -10.93967217 14.74229737 -11 18 C-10.34 18 -9.68 18 -9 18 C-9 16.68 -9 15.36 -9 14 C-5.535 12.02 -5.535 12.02 -2 10 C-2.226875 9.278125 -2.45375 8.55625 -2.6875 7.8125 C-3.08519221 4.23327008 -2.10849785 2.83836249 0 0 Z " fill="#B1AFAB" transform="translate(159,33)"/>
<path d="M0 0 C1.32 0.33 2.64 0.66 4 1 C5.4783226 3.95664519 5.06032783 6.74229737 5 10 C6.65 10.33 8.3 10.66 10 11 C10.66 9.02 11.32 7.04 12 5 C13.65 5 15.3 5 17 5 C17.680625 6.670625 17.680625 6.670625 18.375 8.375 C19.72465986 11.96199008 19.72465986 11.96199008 22 14 C21.01 15.485 21.01 15.485 20 17 C21.98 16.67 23.96 16.34 26 16 C26 16.99 26 17.98 26 19 C25.34 19 24.68 19 24 19 C24.2547514 20.31571603 24.52934141 21.62760376 24.8125 22.9375 C24.96332031 23.66839844 25.11414063 24.39929688 25.26953125 25.15234375 C25.51058594 25.76207031 25.75164063 26.37179688 26 27 C26.99 27.33 27.98 27.66 29 28 C29 29.98 29 31.96 29 34 C28.34 34 27.68 34 27 34 C27 32.02 27 30.04 27 28 C26.071875 27.896875 25.14375 27.79375 24.1875 27.6875 C21 27 21 27 19.0625 25.75 C18 24 18 24 18.3125 21.3125 C18.6528125 20.1678125 18.6528125 20.1678125 19 19 C17.35 19 15.7 19 14 19 C14 20.65 14 22.3 14 24 C13.34 24.33 12.68 24.66 12 25 C11.31270746 27.11846285 11.31270746 27.11846285 10.875 29.5625 C10.70742187 30.38878906 10.53984375 31.21507813 10.3671875 32.06640625 C10.24601563 32.70449219 10.12484375 33.34257813 10 34 C10.66 34.33 11.32 34.66 12 35 C12 33.68 12 32.36 12 31 C14 29.25 14 29.25 16 28 C16 29.65 16 31.3 16 33 C17.32 33 18.64 33 20 33 C21.485 33.495 21.485 33.495 23 34 C23 34.66 23 35.32 23 36 C21.515 36.495 21.515 36.495 20 37 C23.465 37.495 23.465 37.495 27 38 C27 37.34 27 36.68 27 36 C31.38461538 33 31.38461538 33 34 33 C33.34 30.69 32.68 28.38 32 26 C32.66 26 33.32 26 34 26 C33.649375 25.4225 33.29875 24.845 32.9375 24.25 C31.85082593 21.64198224 32.06934867 20.60582371 33 18 C33.268125 18.61875 33.53625 19.2375 33.8125 19.875 C34.95556848 22.2995233 34.95556848 22.2995233 38 24 C41.06630664 23.1025444 42.73038808 22.26961192 45 20 C45.66 20.33 46.32 20.66 47 21 C48.3764647 26.81751117 48.09421723 33.06431476 48 39 C46.68 39 45.36 39 44 39 C41.75 36 41.75 36 40 33 C39.71125 33.598125 39.4225 34.19625 39.125 34.8125 C38 37 38 37 36 40 C33.375 40.1875 33.375 40.1875 31 40 C30.67 39.34 30.34 38.68 30 38 C29.67 38.66 29.34 39.32 29 40 C22.4 39.67 15.8 39.34 9 39 C9 38.34 9 37.68 9 37 C8.34 37 7.68 37 7 37 C7 37.66 7 38.32 7 39 C5.68 39 4.36 39 3 39 C3 39.99 3 40.98 3 42 C54.81 42 106.62 42 160 42 C160 42.33 160 42.66 160 43 C107.2 43 54.4 43 0 43 C0 28.81 0 14.62 0 0 Z " fill="#353535" transform="translate(0,40)"/>
<path d="M0 0 C1.67542976 0.28604898 3.34385343 0.61781233 5 1 C5.125 6.75 5.125 6.75 4 9 C5.98 9 7.96 9 10 9 C9.175 9.78375 8.35 10.5675 7.5 11.375 C4.77011494 13.63721264 4.77011494 13.63721264 5 16 C6.65 15.67 8.3 15.34 10 15 C10.495 15.99 10.495 15.99 11 17 C11.99 17 12.98 17 14 17 C13.52433594 18.22589844 13.52433594 18.22589844 13.0390625 19.4765625 C11.84890917 23.51234559 11.55640657 27.19509032 11.375 31.375 C11.33632813 32.11105469 11.29765625 32.84710938 11.2578125 33.60546875 C11.16442002 35.40327406 11.0811629 37.20160108 11 39 C10.34 39 9.68 39 9 39 C8.22959149 32.93303301 7.90293888 27.11485027 8 21 C7.4225 21.33 6.845 21.66 6.25 22 C4 23 4 23 0 23 C-0.33 23.66 -0.66 24.32 -1 25 C-4.875 22.375 -4.875 22.375 -6 19 C-5.814375 20.134375 -5.62875 21.26875 -5.4375 22.4375 C-5.293125 23.613125 -5.14875 24.78875 -5 26 C-5.33 26.33 -5.66 26.66 -6 27 C-5.71325582 29.00720923 -5.38133299 31.0085944 -5 33 C-8.625 36 -8.625 36 -12 36 C-12 36.66 -12 37.32 -12 38 C-15.375 38.125 -15.375 38.125 -19 38 C-19.66 37.34 -20.32 36.68 -21 36 C-19.35 36 -17.7 36 -16 36 C-16 35.34 -16 34.68 -16 34 C-18.90073181 33.32198966 -18.90073181 33.32198966 -22 33 C-22.66 33.66 -23.32 34.32 -24 35 C-24 33.02 -24 31.04 -24 29 C-24.99 29.99 -25.98 30.98 -27 32 C-26.2236068 35.0745356 -26.2236068 35.0745356 -24 37 C-26.55222336 36.65970355 -27.70810113 36.32997263 -29.4375 34.375 C-30.31149327 30.68480621 -28.64299217 28.28598434 -27 25 C-27.66 24.67 -28.32 24.34 -29 24 C-27.68 24 -26.36 24 -25 24 C-25 22.35 -25 20.7 -25 19 C-23.35 19 -21.7 19 -20 19 C-20 21.31 -20 23.62 -20 26 C-17.36 26.66 -14.72 27.32 -12 28 C-12 29.98 -12 31.96 -12 34 C-11.34 34 -10.68 34 -10 34 C-10.39578073 29.47408157 -10.39578073 29.47408157 -13.0625 25.9375 C-15 24 -15 24 -15.25 21.25 C-15.1675 20.5075 -15.085 19.765 -15 19 C-14.34 19 -13.68 19 -13 19 C-13.33 18.34 -13.66 17.68 -14 17 C-15.65 17 -17.3 17 -19 17 C-19 15.68 -19 14.36 -19 13 C-19.33 12.01 -19.66 11.02 -20 10 C-18.35 10 -16.7 10 -15 10 C-15 7.36 -15 4.72 -15 2 C-13.34385343 1.61781233 -11.67542976 1.28604898 -10 1 C-9.67 1.33 -9.34 1.66 -9 2 C-9.17635452 4.69082872 -9.61835921 7.32851446 -10 10 C-7.36 9.67 -4.72 9.34 -2 9 C-1.855625 7.700625 -1.71125 6.40125 -1.5625 5.0625 C-1.125 1.125 -1.125 1.125 0 0 Z " fill="#928F88" transform="translate(39,40)"/>
<path d="M0 0 C1.67542976 0.28604898 3.34385343 0.61781233 5 1 C5 3.64 5 6.28 5 9 C7.97 9 10.94 9 14 9 C14.33 6.69 14.66 4.38 15 2 C16.64630328 2.14042877 18.29204179 2.28749329 19.9375 2.4375 C21.31228516 2.55931641 21.31228516 2.55931641 22.71484375 2.68359375 C25 3 25 3 26 4 C25.71269945 6.33944736 25.38063221 8.6739143 25 11 C26.65 10.67 28.3 10.34 30 10 C30 7.69 30 5.38 30 3 C31.32 2.67 32.64 2.34 34 2 C34 2.66 34 3.32 34 4 C34.66 4 35.32 4 36 4 C36.33 3.01 36.66 2.02 37 1 C37.66 1 38.32 1 39 1 C40.52846661 4.05693322 40.23242445 6.62984547 40 10 C38.5 12.4375 38.5 12.4375 37 14 C35.68 13.67 34.36 13.34 33 13 C32.01 14.32 31.02 15.64 30 17 C29.01 16.01 28.02 15.02 27 14 C22.70309161 16.33732425 22.70309161 16.33732425 20.125 20.25 C20.08375 20.8275 20.0425 21.405 20 22 C18.35 21.67 16.7 21.34 15 21 C15 19.68 15 18.36 15 17 C14.34 17 13.68 17 13 17 C12.67 15.35 12.34 13.7 12 12 C11.443125 12.99 10.88625 13.98 10.3125 15 C8 18 8 18 5.25 18.375 C4.5075 18.25125 3.765 18.1275 3 18 C3 18.99 3 19.98 3 21 C2.01 21 1.02 21 0 21 C0 20.01 0 19.02 0 18 C-1.98 18 -3.96 18 -6 18 C-6.33 19.98 -6.66 21.96 -7 24 C-7.66 24 -8.32 24 -9 24 C-8.36593786 12.73993096 -8.36593786 12.73993096 -5 9 C-3.68 9 -2.36 9 -1 9 C-1.020625 7.700625 -1.04125 6.40125 -1.0625 5.0625 C-1.08399454 3.70834367 -1.07148199 2.35243917 -1 1 C-0.67 0.67 -0.34 0.34 0 0 Z " fill="#8B8578" transform="translate(108,41)"/>
<path d="M0 0 C1.01382963 3.6208201 1.49897691 7.27811418 2 11 C4.7972908 8.93243723 5.02692273 7.85559629 5.6875 4.3125 C5.790625 3.219375 5.89375 2.12625 6 1 C8.75 1.375 8.75 1.375 12 3 C13.74930294 6.20175447 14.90994586 9.52465093 16 13 C15.525625 13.433125 15.05125 13.86625 14.5625 14.3125 C12.76313043 16.02309613 12.76313043 16.02309613 12 19 C12.99 19 13.98 19 15 19 C15.33 18.34 15.66 17.68 16 17 C16 17.66 16 18.32 16 19 C16.99 19 17.98 19 19 19 C19 19.99 19 20.98 19 22 C4.15 22 -10.7 22 -26 22 C-26.33 21.34 -26.66 20.68 -27 20 C-26.67 19.34 -26.34 18.68 -26 18 C-23.05859375 17.5859375 -23.05859375 17.5859375 -19.4375 17.375 C-18.23996094 17.30023438 -17.04242188 17.22546875 -15.80859375 17.1484375 C-14.41833984 17.07496094 -14.41833984 17.07496094 -13 17 C-13 17.99 -13 18.98 -13 20 C-11.68 20 -10.36 20 -9 20 C-8.67 18.02 -8.34 16.04 -8 14 C-8.66 14 -9.32 14 -10 14 C-9.77560344 8.39008601 -8.51447236 5.87038358 -4.5703125 2.1640625 C-3 1 -3 1 0 0 Z " fill="#797979" transform="translate(141,60)"/>
<path d="M0 0 C2 1.1875 2 1.1875 4 3 C4.25 5.6875 4.25 5.6875 4 8 C4.99 8.33 5.98 8.66 7 9 C6.34 9 5.68 9 5 9 C5 9.66 5 10.32 5 11 C5.99 11 6.98 11 8 11 C8 11.66 8 12.32 8 13 C8.66 13 9.32 13 10 13 C10.33 13.66 10.66 14.32 11 15 C14.3 15 17.6 15 21 15 C20.979375 16.03125 20.95875 17.0625 20.9375 18.125 C20.99276661 21.55152969 21.34550715 24.64572414 22 28 C19.36 28 16.72 28 14 28 C14 27.01 14 26.02 14 25 C13.34 25 12.68 25 12 25 C12 25.66 12 26.32 12 27 C11.01 27 10.02 27 9 27 C9.33 26.01 9.66 25.02 10 24 C10.66 24 11.32 24 12 24 C12 23.01 12 22.02 12 21 C11.34 21 10.68 21 10 21 C9.34 22.32 8.68 23.64 8 25 C7.34 25 6.68 25 6 25 C6 25.66 6 26.32 6 27 C2.7 27 -0.6 27 -4 27 C-4 26.01 -4 25.02 -4 24 C-4.61875 23.9175 -5.2375 23.835 -5.875 23.75 C-8 23 -8 23 -9.25 20.9375 C-9.4975 20.298125 -9.745 19.65875 -10 19 C-9.34 19 -8.68 19 -8 19 C-8.33 18.01 -8.66 17.02 -9 16 C-7.68 15.34 -6.36 14.68 -5 14 C-4.67 14.33 -4.34 14.66 -4 15 C-3.67 13.35 -3.34 11.7 -3 10 C-4.32 10 -5.64 10 -7 10 C-7 9.34 -7 8.68 -7 8 C-6.01 7.67 -5.02 7.34 -4 7 C-4 5.35 -4 3.7 -4 2 C-2.68 1.34 -1.36 0.68 0 0 Z " fill="#696969" transform="translate(81,52)"/>
<path d="M0 0 C1.0625 1.875 1.0625 1.875 2 4 C1.67 4.66 1.34 5.32 1 6 C1.66 6 2.32 6 3 6 C3.33 7.32 3.66 8.64 4 10 C5.32 10.33 6.64 10.66 8 11 C8.020625 10.2575 8.04125 9.515 8.0625 8.75 C9.14587926 5.57208751 9.74474412 5.27248768 12.5625 3.6875 C13.696875 3.130625 14.83125 2.57375 16 2 C16.99 3.485 16.99 3.485 18 5 C19.32 3.68 20.64 2.36 22 1 C22 1.66 22 2.32 22 3 C23.65 3 25.3 3 27 3 C27 3.66 27 4.32 27 5 C26.01 5 25.02 5 24 5 C24.66 5.33 25.32 5.66 26 6 C26 7.98 26 9.96 26 12 C25.01 12 24.02 12 23 12 C22.34 11.01 21.68 10.02 21 9 C14.832926 12.49211493 14.832926 12.49211493 11.8125 18.6875 C11.544375 19.780625 11.27625 20.87375 11 22 C11.66 22 12.32 22 13 22 C12.67 23.98 12.34 25.96 12 28 C10.68 28 9.36 28 8 28 C8 27.01 8 26.02 8 25 C7.071875 25.185625 6.14375 25.37125 5.1875 25.5625 C2 26 2 26 -1 25 C-1 24.34 -1 23.68 -1 23 C2.96 22.505 2.96 22.505 7 22 C7.66 19.36 8.32 16.72 9 14 C7.7625 14.12375 7.7625 14.12375 6.5 14.25 C1.98696153 13.92764011 -1.11795056 12.20705349 -5 10 C-5 10.99 -5 11.98 -5 13 C-5.66 13 -6.32 13 -7 13 C-9 10 -9 10 -9 7 C-8.2575 6.95875 -7.515 6.9175 -6.75 6.875 C-2.90448224 5.65142617 -1.95694517 3.40653418 0 0 Z " fill="#5F5F5F" transform="translate(120,52)"/>
<path d="M0 0 C2.475 0.99 2.475 0.99 5 2 C5 2.99 5 3.98 5 5 C4.67 5.33 4.34 5.66 4 6 C5.96822886 7.96822886 9.34808709 7.66248381 12 8 C11.62875 8.9075 11.2575 9.815 10.875 10.75 C9.73413909 13.84216275 9.73413909 13.84216275 10.6875 16.25 C12.05720346 18.27850572 12.05720346 18.27850572 15 20 C15 20.99 15 21.98 15 23 C14.01 23 13.02 23 12 23 C12 22.01 12 21.02 12 20 C11.34 20 10.68 20 10 20 C10 20.99 10 21.98 10 23 C8.02 23 6.04 23 4 23 C4 22.01 4 21.02 4 20 C3.34 20 2.68 20 2 20 C1.67 20.99 1.34 21.98 1 23 C0.34 22.01 -0.32 21.02 -1 20 C-1.33 20.66 -1.66 21.32 -2 22 C-3.65 22 -5.3 22 -7 22 C-7.02691685 19.54159395 -7.04679802 17.08348118 -7.0625 14.625 C-7.07087891 13.92632812 -7.07925781 13.22765625 -7.08789062 12.5078125 C-7.11328125 7.2265625 -7.11328125 7.2265625 -6 5 C-3.03 5.495 -3.03 5.495 0 6 C0 4.02 0 2.04 0 0 Z " fill="#383838" transform="translate(59,57)"/>
<path d="M0 0 C1.32 0 2.64 0 4 0 C4.12117188 0.62648437 4.24234375 1.25296875 4.3671875 1.8984375 C4.53476563 2.71570312 4.70234375 3.53296875 4.875 4.375 C5.11863281 5.59316406 5.11863281 5.59316406 5.3671875 6.8359375 C5.86658932 9.18673923 5.86658932 9.18673923 8 11 C5.03 11.99 2.06 12.98 -1 14 C-1 16.31 -1 18.62 -1 21 C-2.32 20.67 -3.64 20.34 -5 20 C-5 20.66 -5 21.32 -5 22 C-3.68 22 -2.36 22 -1 22 C-1 23.98 -1 25.96 -1 28 C-1.99 27.67 -2.98 27.34 -4 27 C-4.66 27.66 -5.32 28.32 -6 29 C-6 29.66 -6 30.32 -6 31 C-6.66 31 -7.32 31 -8 31 C-7.67 31.99 -7.34 32.98 -7 34 C-7.66 34 -8.32 34 -9 34 C-9 33.34 -9 32.68 -9 32 C-9.66 31.67 -10.32 31.34 -11 31 C-9.68 28.69 -8.36 26.38 -7 24 C-7.66 23.67 -8.32 23.34 -9 23 C-8.34 22.34 -7.68 21.68 -7 21 C-7.3185177 18.89179203 -7.3185177 18.89179203 -8 17 C-9.32 16.67 -10.64 16.34 -12 16 C-12 15.34 -12 14.68 -12 14 C-12.66 14 -13.32 14 -14 14 C-14 13.34 -14 12.68 -14 12 C-14.66 12 -15.32 12 -16 12 C-15.75 8.625 -15.75 8.625 -15 5 C-12.9375 3.5625 -12.9375 3.5625 -11 3 C-9 5 -9 5 -8.875 8.625 C-8.91625 9.73875 -8.9575 10.8525 -9 12 C-8.01 12.33 -7.02 12.66 -6 13 C-5.896875 12.360625 -5.79375 11.72125 -5.6875 11.0625 C-5.3471875 10.0415625 -5.3471875 10.0415625 -5 9 C-4.01 8.67 -3.02 8.34 -2 8 C-1.855625 6.865625 -1.71125 5.73125 -1.5625 4.5625 C-1 1 -1 1 0 0 Z " fill="#88857D" transform="translate(79,40)"/>
<path d="M0 0 C1.65 0 3.3 0 5 0 C5.45375 1.11375 5.9075 2.2275 6.375 3.375 C7.72465986 6.96199008 7.72465986 6.96199008 10 9 C9.01 10.485 9.01 10.485 8 12 C9.98 11.67 11.96 11.34 14 11 C14 11.99 14 12.98 14 14 C13.34 14 12.68 14 12 14 C12.2547514 15.31571603 12.52934141 16.62760376 12.8125 17.9375 C12.96332031 18.66839844 13.11414063 19.39929688 13.26953125 20.15234375 C13.51058594 20.76207031 13.75164063 21.37179688 14 22 C14.99 22.33 15.98 22.66 17 23 C17 24.98 17 26.96 17 29 C16.34 29 15.68 29 15 29 C15 27.02 15 25.04 15 23 C14.071875 22.896875 13.14375 22.79375 12.1875 22.6875 C9 22 9 22 7.0625 20.75 C6 19 6 19 6.3125 16.3125 C6.539375 15.549375 6.76625 14.78625 7 14 C5.35 14 3.7 14 2 14 C2 15.65 2 17.3 2 19 C1.360625 19.28875 0.72125 19.5775 0.0625 19.875 C-2.15206079 20.82823451 -2.15206079 20.82823451 -3 23 C-3 20.03 -3 17.06 -3 14 C-3.66 14 -4.32 14 -5 14 C-5.33 11.03 -5.66 8.06 -6 5 C-4.68 5.33 -3.36 5.66 -2 6 C-1.34 4.02 -0.68 2.04 0 0 Z " fill="#6F6F6F" transform="translate(12,45)"/>
<path d="M0 0 C1.98 0 3.96 0 6 0 C6 0.99 6 1.98 6 3 C7.65 3.33 9.3 3.66 11 4 C11 4.66 11 5.32 11 6 C11.66 6 12.32 6 13 6 C13 5.01 13 4.02 13 3 C19.22918134 4.07812754 19.22918134 4.07812754 21.35546875 6.62109375 C24 11.21322202 24 11.21322202 24 14 C21.03 13.505 21.03 13.505 18 13 C18 13.66 18 14.32 18 15 C15.47524538 16.26237731 13.68799534 16.09856404 10.875 16.0625 C9.96492188 16.05347656 9.05484375 16.04445313 8.1171875 16.03515625 C7.06917969 16.01775391 7.06917969 16.01775391 6 16 C5.67 15.01 5.34 14.02 5 13 C4.67 13.66 4.34 14.32 4 15 C2.68 14.67 1.36 14.34 0 14 C0.66 10.7 1.32 7.4 2 4 C1.34 4 0.68 4 0 4 C-0.33 4.99 -0.66 5.98 -1 7 C-0.67 4.69 -0.34 2.38 0 0 Z " fill="#C1C1C1" transform="translate(102,59)"/>
<path d="M0 0 C0.268125 0.61875 0.53625 1.2375 0.8125 1.875 C1.95556848 4.2995233 1.95556848 4.2995233 5 6 C8.06630664 5.1025444 9.73038808 4.26961192 12 2 C12.66 2.33 13.32 2.66 14 3 C15.3764647 8.81751117 15.09421723 15.06431476 15 21 C13.68 21 12.36 21 11 21 C8.75 18 8.75 18 7 15 C6.566875 15.8971875 6.566875 15.8971875 6.125 16.8125 C5 19 5 19 3 22 C0.375 22.1875 0.375 22.1875 -2 22 C-2.33 21.34 -2.66 20.68 -3 20 C-3.33 20.33 -3.66 20.66 -4 21 C-5.66617115 21.04063832 -7.33388095 21.042721 -9 21 C-8.01 20.67 -7.02 20.34 -6 20 C-6 19.34 -6 18.68 -6 18 C-1.61538462 15 -1.61538462 15 1 15 C0.34 12.69 -0.32 10.38 -1 8 C-0.34 8 0.32 8 1 8 C0.649375 7.4225 0.29875 6.845 -0.0625 6.25 C-1.14917407 3.64198224 -0.93065133 2.60582371 0 0 Z " fill="#474747" transform="translate(33,58)"/>
<path d="M0 0 C1.67542976 0.28604898 3.34385343 0.61781233 5 1 C5.125 6.75 5.125 6.75 4 9 C5.98 9 7.96 9 10 9 C9.175 9.78375 8.35 10.5675 7.5 11.375 C4.77011494 13.63721264 4.77011494 13.63721264 5 16 C6.65 15.67 8.3 15.34 10 15 C10.33 15.66 10.66 16.32 11 17 C11.99 17 12.98 17 14 17 C13.68289062 17.81726563 13.36578125 18.63453125 13.0390625 19.4765625 C11.84890917 23.51234559 11.55640657 27.19509032 11.375 31.375 C11.33632813 32.11105469 11.29765625 32.84710938 11.2578125 33.60546875 C11.16442002 35.40327406 11.0811629 37.20160108 11 39 C10.34 39 9.68 39 9 39 C8.22959149 32.93303301 7.90293888 27.11485027 8 21 C7.4225 21.33 6.845 21.66 6.25 22 C4 23 4 23 0 23 C-0.33 23.66 -0.66 24.32 -1 25 C-3 23.625 -3 23.625 -5 22 C-5 21.34 -5 20.68 -5 20 C-4.34 20 -3.68 20 -3 20 C-3 18.02 -3 16.04 -3 14 C-2.360625 13.690625 -1.72125 13.38125 -1.0625 13.0625 C0.93610821 12.1654837 0.93610821 12.1654837 2 11 C0.68 10.34 -0.64 9.68 -2 9 C-1.125 1.125 -1.125 1.125 0 0 Z " fill="#91908D" transform="translate(39,40)"/>
<path d="M0 0 C1.60875 0.3403125 1.60875 0.3403125 3.25 0.6875 C3.25 1.3475 3.25 2.0075 3.25 2.6875 C3.91 2.6875 4.57 2.6875 5.25 2.6875 C5.25 3.3475 5.25 4.0075 5.25 4.6875 C5.91 4.6875 6.57 4.6875 7.25 4.6875 C7.25 5.3475 7.25 6.0075 7.25 6.6875 C9.725 7.1825 9.725 7.1825 12.25 7.6875 C12.875 10.5 12.875 10.5 13.25 13.6875 C12.26 15.1725 12.26 15.1725 11.25 16.6875 C4.625 15.9375 4.625 15.9375 1.25 13.6875 C1.58 12.6975 1.91 11.7075 2.25 10.6875 C2.25 11.3475 2.25 12.0075 2.25 12.6875 C2.91 12.6875 3.57 12.6875 4.25 12.6875 C4.25 11.6975 4.25 10.7075 4.25 9.6875 C1.775 8.6975 1.775 8.6975 -0.75 7.6875 C-0.75 9.6675 -0.75 11.6475 -0.75 13.6875 C-2.4 13.3575 -4.05 13.0275 -5.75 12.6875 C-6.41 9.3875 -7.07 6.0875 -7.75 2.6875 C-3.75 -0.3125 -3.75 -0.3125 0 0 Z " fill="#767676" transform="translate(59.75,49.3125)"/>
<path d="M0 0 C1.32 0 2.64 0 4 0 C4.33 2.31 4.66 4.62 5 7 C4.34 7 3.68 7 3 7 C3 7.99 3 8.98 3 10 C54.81 10 106.62 10 160 10 C160 10.33 160 10.66 160 11 C107.2 11 54.4 11 0 11 C0 7.37 0 3.74 0 0 Z " fill="#5D5D5D" transform="translate(0,72)"/>
<path d="M0 0 C1.01382963 3.6208201 1.49897691 7.27811418 2 11 C4.7972908 8.93243723 5.02692273 7.85559629 5.6875 4.3125 C5.790625 3.219375 5.89375 2.12625 6 1 C8.75 1.375 8.75 1.375 12 3 C13.74930294 6.20175447 14.90994586 9.52465093 16 13 C13.07034088 15.92965912 10.319947 16.94133569 6.1875 17.125 C5.465625 17.08375 4.74375 17.0425 4 17 C4 15.68 4 14.36 4 13 C3.01 13.495 3.01 13.495 2 14 C1.67 14.99 1.34 15.98 1 17 C0.34 17 -0.32 17 -1 17 C-0.49396008 14.83125748 -0.00016187 13.00032373 1 11 C0.01 11 -0.98 11 -2 11 C-2 10.34 -2 9.68 -2 9 C-3.65 9.33 -5.3 9.66 -7 10 C-7.33 9.34 -7.66 8.68 -8 8 C-6.10267152 3.88912162 -3.9945793 2.05127045 0 0 Z " fill="#BEBEBE" transform="translate(141,60)"/>
<path d="M0 0 C1.98 0 3.96 0 6 0 C5.26308894 3.1415682 4.43358826 6.10108352 3 9 C-0.0625 10.625 -0.0625 10.625 -3 11 C-3.66 10.67 -4.32 10.34 -5 10 C-5 10.66 -5 11.32 -5 12 C-4.01 12.33 -3.02 12.66 -2 13 C-4.31 13 -6.62 13 -9 13 C-9 14.32 -9 15.64 -9 17 C-16.59 17 -24.18 17 -32 17 C-31.67 15.35 -31.34 13.7 -31 12 C-30.34 12 -29.68 12 -29 12 C-29 12.99 -29 13.98 -29 15 C-26.36 15 -23.72 15 -21 15 C-21.66 12.36 -22.32 9.72 -23 7 C-20.525 7.99 -20.525 7.99 -18 9 C-17.67 8.01 -17.34 7.02 -17 6 C-16.67 7.32 -16.34 8.64 -16 10 C-10.06 9.505 -10.06 9.505 -4 9 C-4 8.34 -4 7.68 -4 7 C-1.03 7.495 -1.03 7.495 2 8 C1.2265625 6.8553125 1.2265625 6.8553125 0.4375 5.6875 C-0.036875 4.800625 -0.51125 3.91375 -1 3 C-0.67 2.01 -0.34 1.02 0 0 Z " fill="#707070" transform="translate(124,65)"/>
<path d="M0 0 C1.67542976 0.28604898 3.34385343 0.61781233 5 1 C5.08121924 2.60332791 5.13929134 4.20784026 5.1875 5.8125 C5.22230469 6.70582031 5.25710937 7.59914063 5.29296875 8.51953125 C4.95081002 11.41647515 4.24606427 12.22555028 2 14 C3.98 14 5.96 14 8 14 C8 15.32 8 16.64 8 18 C6.35 18 4.7 18 3 18 C3 18.99 3 19.98 3 21 C2.01 21 1.02 21 0 21 C0 20.01 0 19.02 0 18 C-1.98 18 -3.96 18 -6 18 C-6.33 19.98 -6.66 21.96 -7 24 C-7.66 24 -8.32 24 -9 24 C-8.36593786 12.73993096 -8.36593786 12.73993096 -5 9 C-3.68 9 -2.36 9 -1 9 C-1.020625 7.700625 -1.04125 6.40125 -1.0625 5.0625 C-1.08399454 3.70834367 -1.07148199 2.35243917 -1 1 C-0.67 0.67 -0.34 0.34 0 0 Z " fill="#6F6E6B" transform="translate(108,41)"/>
<path d="M0 0 C3.875 0.875 3.875 0.875 5 2 C5.51179673 7.28856624 5.51179673 7.28856624 5 10 C2.5 12 2.5 12 0 13 C0.08378906 13.69867188 0.16757812 14.39734375 0.25390625 15.1171875 C0.35574219 16.02726562 0.45757812 16.93734375 0.5625 17.875 C0.66691406 18.77992187 0.77132812 19.68484375 0.87890625 20.6171875 C1 23 1 23 0 25 C-0.23172827 27.54615009 -0.41894529 30.07396225 -0.5625 32.625 C-0.60568359 33.33140625 -0.64886719 34.0378125 -0.69335938 34.765625 C-0.79944751 36.51018537 -0.90022889 38.25506697 -1 40 C-1.66 40 -2.32 40 -3 40 C-3.05420701 37.43721301 -3.09377007 34.87558517 -3.125 32.3125 C-3.15013672 31.2306543 -3.15013672 31.2306543 -3.17578125 30.12695312 C-3.21391569 25.95123219 -2.8789919 22.7505862 -1 19 C-1.99 18.67 -2.98 18.34 -4 18 C-4 17.34 -4 16.68 -4 16 C-6.31 16.99 -8.62 17.98 -11 19 C-9.87548273 16.0280615 -8.77706209 13.66559313 -7 11 C-3.875 9.8125 -3.875 9.8125 -1 9 C-1.20625 8.071875 -1.4125 7.14375 -1.625 6.1875 C-2 3 -2 3 0 0 Z " fill="#969696" transform="translate(53,39)"/>
<path d="M0 0 C1.32 0.33 2.64 0.66 4 1 C5.45387529 3.90775059 5.02196009 6.60438893 4.9375 9.80859375 C4.8994813 12.18019941 4.8994813 12.18019941 6 15 C6.07051114 17.73865287 6.09357765 20.45027588 6.0625 23.1875 C6.05798828 23.93708984 6.05347656 24.68667969 6.04882812 25.45898438 C6.03706354 27.30602383 6.01912865 29.15302213 6 31 C4.02 31 2.04 31 0 31 C0 20.77 0 10.54 0 0 Z " fill="#646464" transform="translate(0,40)"/>
<path d="M0 0 C0.8353125 0.2165625 0.8353125 0.2165625 1.6875 0.4375 C4.10940438 1.02661188 6.55587958 1.51117592 9 2 C9 9.26 9 16.52 9 24 C6.69 24 4.38 24 2 24 C2.61277612 21.03824877 3.25372522 19.61941217 5 17 C4.58843437 14.6749291 4.58843437 14.6749291 3.625 12.3125 C3.32851562 11.50425781 3.03203125 10.69601563 2.7265625 9.86328125 C2.48679688 9.24839844 2.24703125 8.63351563 2 8 C0.35 7.67 -1.3 7.34 -3 7 C-3 6.34 -3 5.68 -3 5 C-2.34 5 -1.68 5 -1 5 C-0.67 3.35 -0.34 1.7 0 0 Z " fill="#7E7E7E" transform="translate(151,55)"/>
<path d="M0 0 C1.70884005 1.62339805 3.37446717 3.29319053 5 5 C5 5.66 5 6.32 5 7 C5.66 7.33 6.32 7.66 7 8 C6.67 8.66 6.34 9.32 6 10 C-7.86 10 -21.72 10 -36 10 C-36 9.01 -36 8.02 -36 7 C-34.68 7 -33.36 7 -32 7 C-32 6.34 -32 5.68 -32 5 C-31.34 5 -30.68 5 -30 5 C-30 5.66 -30 6.32 -30 7 C-29.2265625 6.98839844 -28.453125 6.97679688 -27.65625 6.96484375 C-21.66063636 6.91290155 -15.92697017 7.08815844 -10 8 C-9.67 7.01 -9.34 6.02 -9 5 C-8.67 5.99 -8.34 6.98 -8 8 C-5.57732914 8.05167527 -5.57732914 8.05167527 -3 7 C-1.13016255 3.52692672 -1.13016255 3.52692672 0 0 Z " fill="#7B7B7B" transform="translate(39,72)"/>
<path d="M0 0 C1.65 0 3.3 0 5 0 C5 2.31 5 4.62 5 7 C7.64 7.66 10.28 8.32 13 9 C12.67 10.32 12.34 11.64 12 13 C11.01 13 10.02 13 9 13 C9 13.66 9 14.32 9 15 C8.05125 14.79375 7.1025 14.5875 6.125 14.375 C5.09375 14.25125 4.0625 14.1275 3 14 C2.34 14.66 1.68 15.32 1 16 C1 14.02 1 12.04 1 10 C0.01 10.99 -0.98 11.98 -2 13 C-1.2236068 16.0745356 -1.2236068 16.0745356 1 18 C-1.55222336 17.65970355 -2.70810113 17.32997263 -4.4375 15.375 C-5.31149327 11.68480621 -3.64299217 9.28598434 -2 6 C-2.66 5.67 -3.32 5.34 -4 5 C-2.68 5 -1.36 5 0 5 C0 3.35 0 1.7 0 0 Z " fill="#7B7B7B" transform="translate(14,59)"/>
<path d="M0 0 C3.69230769 0.69230769 3.69230769 0.69230769 5 2 C5.14115161 4.67058851 5.04247107 7.32432238 5 10 C5.99 10.33 6.98 10.66 8 11 C7.01 12.98 6.02 14.96 5 17 C3.68 17 2.36 17 1 17 C1 19.31 1 21.62 1 24 C-1.10633718 22.29171079 -1.93801608 21.47851584 -2.29296875 18.73828125 C-2.25816406 17.93777344 -2.22335938 17.13726562 -2.1875 16.3125 C-2.16042969 15.50425781 -2.13335937 14.69601563 -2.10546875 13.86328125 C-2.07066406 13.24839844 -2.03585938 12.63351563 -2 12 C-1.01 12 -0.02 12 1 12 C0.505 10.948125 0.505 10.948125 0 9.875 C-1.09758996 6.71942887 -1.22620981 4.31774392 -1 1 C-0.67 0.67 -0.34 0.34 0 0 Z " fill="#7E7B73" transform="translate(92,42)"/>
<path d="M0 0 C1.670625 0.061875 1.670625 0.061875 3.375 0.125 C3.354375 1.15625 3.33375 2.1875 3.3125 3.25 C3.36776661 6.67652969 3.72050715 9.77072414 4.375 13.125 C1.735 13.125 -0.905 13.125 -3.625 13.125 C-3.625 12.135 -3.625 11.145 -3.625 10.125 C-4.285 10.125 -4.945 10.125 -5.625 10.125 C-5.625 10.785 -5.625 11.445 -5.625 12.125 C-6.615 12.125 -7.605 12.125 -8.625 12.125 C-8.295 11.135 -7.965 10.145 -7.625 9.125 C-6.965 9.125 -6.305 9.125 -5.625 9.125 C-5.66625 8.01125 -5.7075 6.8975 -5.75 5.75 C-5.57901299 0.79137666 -4.95862334 0.17098701 0 0 Z " fill="#1A1A1A" transform="translate(98.625,66.875)"/>
<path d="M0 0 C0.99 0.33 1.98 0.66 3 1 C3 2.32 3 3.64 3 5 C4.98 4.67 6.96 4.34 9 4 C9 5.32 9 6.64 9 8 C9.30830925 10.00401011 9.63729412 12.00511766 10 14 C6.375 17 6.375 17 3 17 C3 17.66 3 18.32 3 19 C-0.375 19.125 -0.375 19.125 -4 19 C-4.66 18.34 -5.32 17.68 -6 17 C-4.35 17 -2.7 17 -1 17 C-1 15.68 -1 14.36 -1 13 C0.32 12.67 1.64 12.34 3 12 C3 12.99 3 13.98 3 15 C3.66 15 4.32 15 5 15 C4.60421927 10.47408157 4.60421927 10.47408157 1.9375 6.9375 C0 5 0 5 -0.25 2.25 C-0.1675 1.5075 -0.085 0.765 0 0 Z " fill="#7F7F7F" transform="translate(24,59)"/>
<path d="M0 0 C0.66 0.99 1.32 1.98 2 3 C2.66 2.67 3.32 2.34 4 2 C4.66 2.33 5.32 2.66 6 3 C6 3.66 6 4.32 6 5 C6.99 5 7.98 5 9 5 C8.34 6.98 7.68 8.96 7 11 C7.66 11 8.32 11 9 11 C9.33 9.68 9.66 8.36 10 7 C10.66 7 11.32 7 12 7 C12 8.32 12 9.64 12 11 C13.98 11 15.96 11 18 11 C17.34 11.66 16.68 12.32 16 13 C16.66 13.66 17.32 14.32 18 15 C13.85872031 15.0986019 10.07170625 14.74031023 6 14 C5.34 14 4.68 14 4 14 C4 13.01 4 12.02 4 11 C4.66 11 5.32 11 6 11 C6 10.34 6 9.68 6 9 C5.05125 9.020625 4.1025 9.04125 3.125 9.0625 C0 9 0 9 -2 8 C-1.125 1.125 -1.125 1.125 0 0 Z " fill="#9F9F9F" transform="translate(133,66)"/>
<path d="M0 0 C0.66 0 1.32 0 2 0 C3.52846661 3.05693322 3.23242445 5.62984547 3 9 C1.5 11.4375 1.5 11.4375 0 13 C-3.34373475 12.44271087 -6.03312999 11.64826111 -9 10 C-8.34 9.67 -7.68 9.34 -7 9 C-7 6.69 -7 4.38 -7 2 C-5.68 1.67 -4.36 1.34 -3 1 C-3 1.66 -3 2.32 -3 3 C-2.34 3 -1.68 3 -1 3 C-0.67 2.01 -0.34 1.02 0 0 Z " fill="#74736E" transform="translate(145,42)"/>
<path d="M0 0 C0.33 0 0.66 0 1 0 C1 7.92 1 15.84 1 24 C-0.65 24.33 -2.3 24.66 -4 25 C-4 24.34 -4 23.68 -4 23 C-3.34 22.67 -2.68 22.34 -2 22 C-3.65 21.67 -5.3 21.34 -7 21 C-6.1875 17.5625 -6.1875 17.5625 -5 14 C-4.01 13.67 -3.02 13.34 -2 13 C-1.91773332 9.95613276 -2.02391783 7.92824652 -3 5 C-1.625 2.3125 -1.625 2.3125 0 0 Z " fill="#A7A7A7" transform="translate(159,33)"/>
<path d="M0 0 C1.60875 0.3403125 1.60875 0.3403125 3.25 0.6875 C3.25 1.3475 3.25 2.0075 3.25 2.6875 C3.91 2.6875 4.57 2.6875 5.25 2.6875 C5.25 3.3475 5.25 4.0075 5.25 4.6875 C5.91 4.6875 6.57 4.6875 7.25 4.6875 C7.25 5.3475 7.25 6.0075 7.25 6.6875 C4.28 6.3575 1.31 6.0275 -1.75 5.6875 C-1.42 6.3475 -1.09 7.0075 -0.75 7.6875 C-0.710008 9.68710012 -0.70653201 11.68797242 -0.75 13.6875 C-2.4 13.3575 -4.05 13.0275 -5.75 12.6875 C-6.41 9.3875 -7.07 6.0875 -7.75 2.6875 C-3.75 -0.3125 -3.75 -0.3125 0 0 Z " fill="#D6D4CF" transform="translate(59.75,49.3125)"/>
<path d="M0 0 C0.268125 0.61875 0.53625 1.2375 0.8125 1.875 C1.95556848 4.2995233 1.95556848 4.2995233 5 6 C5 6.66 5 7.32 5 8 C4.34 8 3.68 8 3 8 C3.144375 9.258125 3.28875 10.51625 3.4375 11.8125 C3.55931641 12.87404297 3.55931641 12.87404297 3.68359375 13.95703125 C3.97170735 16.19396393 3.97170735 16.19396393 5 19 C4.34 19.99 3.68 20.98 3 22 C0.375 22.1875 0.375 22.1875 -2 22 C-2.33 21.34 -2.66 20.68 -3 20 C-3.33 20.33 -3.66 20.66 -4 21 C-5.66617115 21.04063832 -7.33388095 21.042721 -9 21 C-8.01 20.67 -7.02 20.34 -6 20 C-6 19.34 -6 18.68 -6 18 C-1.61538462 15 -1.61538462 15 1 15 C0.34 12.69 -0.32 10.38 -1 8 C-0.34 8 0.32 8 1 8 C0.649375 7.4225 0.29875 6.845 -0.0625 6.25 C-1.14917407 3.64198224 -0.93065133 2.60582371 0 0 Z " fill="#1B1B1B" transform="translate(33,58)"/>
<path d="M0 0 C2.31 0.33 4.62 0.66 7 1 C6.79375 1.5775 6.5875 2.155 6.375 2.75 C5.90255307 5.58468159 6.42342045 6.63513068 8 9 C8.99 9.66 9.98 10.32 11 11 C11 11.99 11 12.98 11 14 C10.01 14 9.02 14 8 14 C8 13.01 8 12.02 8 11 C7.34 11 6.68 11 6 11 C6 11.99 6 12.98 6 14 C4.02 14 2.04 14 0 14 C0.33 13.01 0.66 12.02 1 11 C0.68404492 9.32995171 0.34820041 7.66362417 0 6 C-0.03772913 4.0003559 -0.04649906 1.99945939 0 0 Z " fill="#4C4C4C" transform="translate(63,66)"/>
<path d="M0 0 C1.98 0 3.96 0 6 0 C5.26308894 3.1415682 4.43358826 6.10108352 3 9 C-0.0625 10.625 -0.0625 10.625 -3 11 C-3.66 10.67 -4.32 10.34 -5 10 C-5 10.66 -5 11.32 -5 12 C-4.01 12.33 -3.02 12.66 -2 13 C-2.94875 12.855625 -3.8975 12.71125 -4.875 12.5625 C-8.79322468 11.98793345 -12.71963902 11.67114483 -16.66796875 11.37890625 C-19.11674844 10.98103082 -20.85349953 10.21881751 -23 9 C-22.67 8.34 -22.34 7.68 -22 7 C-20.68 7.66 -19.36 8.32 -18 9 C-17.67 8.01 -17.34 7.02 -17 6 C-16.67 7.32 -16.34 8.64 -16 10 C-10.06 9.505 -10.06 9.505 -4 9 C-4 8.34 -4 7.68 -4 7 C-1.03 7.495 -1.03 7.495 2 8 C1.2265625 6.8553125 1.2265625 6.8553125 0.4375 5.6875 C-0.036875 4.800625 -0.51125 3.91375 -1 3 C-0.67 2.01 -0.34 1.02 0 0 Z " fill="#888888" transform="translate(124,65)"/>
<path d="M0 0 C0.33 0.66 0.66 1.32 1 2 C4.465 1.505 4.465 1.505 8 1 C8 1.99 8 2.98 8 4 C7.34 4 6.68 4 6 4 C6.2547514 5.31571603 6.52934141 6.62760376 6.8125 7.9375 C6.96332031 8.66839844 7.11414062 9.39929688 7.26953125 10.15234375 C7.63111328 11.06693359 7.63111328 11.06693359 8 12 C8.99 12.33 9.98 12.66 11 13 C11 14.98 11 16.96 11 19 C10.34 19 9.68 19 9 19 C9 17.02 9 15.04 9 13 C8.071875 12.896875 7.14375 12.79375 6.1875 12.6875 C3 12 3 12 1.125 10.75 C-0.37422891 8.41786614 -0.22023906 6.71628175 0 4 C-1.65 3.67 -3.3 3.34 -5 3 C-4.67 2.34 -4.34 1.68 -4 1 C-1.9375 0.375 -1.9375 0.375 0 0 Z " fill="#4E4E4E" transform="translate(18,55)"/>
<path d="M0 0 C1.32 0 2.64 0 4 0 C4.33 2.31 4.66 4.62 5 7 C4.34 7 3.68 7 3 7 C3 7.99 3 8.98 3 10 C17.19 10 31.38 10 46 10 C46 10.33 46 10.66 46 11 C30.82 11 15.64 11 0 11 C0 7.37 0 3.74 0 0 Z " fill="#5D5D5D" transform="translate(0,72)"/>
<path d="M0 0 C6.49828347 2.2069642 6.49828347 2.2069642 8.9375 6.0625 C10 9 10 9 10 11 C7.03 10.505 7.03 10.505 4 10 C4 10.66 4 11.32 4 12 C1.03 12 -1.94 12 -5 12 C-4.01 11.01 -3.02 10.02 -2 9 C-1.34 9 -0.68 9 0 9 C0 6.03 0 3.06 0 0 Z " fill="#D2D2D2" transform="translate(116,62)"/>
<path d="M0 0 C1.64630328 0.14042877 3.29204179 0.28749329 4.9375 0.4375 C6.31228516 0.55931641 6.31228516 0.55931641 7.71484375 0.68359375 C10 1 10 1 11 2 C10.71269945 4.33944736 10.38063221 6.6739143 10 9 C8.52093108 9.02689216 7.04172517 9.04634621 5.5625 9.0625 C4.32693359 9.07990234 4.32693359 9.07990234 3.06640625 9.09765625 C1 9 1 9 0 8 C-0.14115161 5.32941149 -0.04247107 2.67567762 0 0 Z " fill="#615F59" transform="translate(123,43)"/>
<path d="M0 0 C6.625 -0.125 6.625 -0.125 10 1 C9.67 2.65 9.34 4.3 9 6 C7.68 5.01 6.36 4.02 5 3 C0.70309161 5.33732425 0.70309161 5.33732425 -1.875 9.25 C-1.91625 9.8275 -1.9575 10.405 -2 11 C-3.65 10.67 -5.3 10.34 -7 10 C-6.67 7.69 -6.34 5.38 -6 3 C-4.02 3.495 -4.02 3.495 -2 4 C-1.34 2.68 -0.68 1.36 0 0 Z " fill="#B2B2B2" transform="translate(130,52)"/>
<path d="M0 0 C0.66 0 1.32 0 2 0 C2.33 0.66 2.66 1.32 3 2 C3.99 2 4.98 2 6 2 C5.52433594 3.22589844 5.52433594 3.22589844 5.0390625 4.4765625 C3.84890917 8.51234559 3.55640657 12.19509032 3.375 16.375 C3.31699219 17.47908203 3.31699219 17.47908203 3.2578125 18.60546875 C3.16442002 20.40327406 3.0811629 22.20160108 3 24 C2.34 24 1.68 24 1 24 C0.6371686 20.18827189 0.28618563 16.37554607 -0.0625 12.5625 C-0.16626953 11.47388672 -0.27003906 10.38527344 -0.37695312 9.26367188 C-0.47041016 8.22919922 -0.56386719 7.19472656 -0.66015625 6.12890625 C-0.74918213 5.17056885 -0.83820801 4.21223145 -0.92993164 3.22485352 C-0.9530542 2.49065186 -0.97617676 1.7564502 -1 1 C-0.67 0.67 -0.34 0.34 0 0 Z " fill="#686868" transform="translate(47,55)"/>
<path d="M0 0 C0.66 0 1.32 0 2 0 C2 2.31 2 4.62 2 7 C2.66 7 3.32 7 4 7 C3.67 8.98 3.34 10.96 3 13 C1.68 13 0.36 13 -1 13 C-1 12.01 -1 11.02 -1 10 C-1.928125 10.185625 -2.85625 10.37125 -3.8125 10.5625 C-7 11 -7 11 -10 10 C-10 9.34 -10 8.68 -10 8 C-7.36 7.67 -4.72 7.34 -2 7 C-1.34 4.69 -0.68 2.38 0 0 Z " fill="#494949" transform="translate(129,67)"/>
<path d="M0 0 C0 0.66 0 1.32 0 2 C0.99 2.33 1.98 2.66 3 3 C2.34 3 1.68 3 1 3 C1 3.66 1 4.32 1 5 C1.99 5 2.98 5 4 5 C4 5.66 4 6.32 4 7 C4.66 7 5.32 7 6 7 C6.33 7.66 6.66 8.32 7 9 C9.52733235 9.65555119 9.52733235 9.65555119 12 10 C11.01 10.66 10.02 11.32 9 12 C8.67 12.99 8.34 13.98 8 15 C7.34 15 6.68 15 6 15 C6 14.01 6 13.02 6 12 C5.34 11.34 4.68 10.68 4 10 C4.33 9.34 4.66 8.68 5 8 C4.01 8 3.02 8 2 8 C1.67 8.99 1.34 9.98 1 11 C0.01 11 -0.98 11 -2 11 C-1.814375 10.236875 -1.62875 9.47375 -1.4375 8.6875 C-0.77180827 5.91032625 -0.77180827 5.91032625 -2 3 C-2.99 2.67 -3.98 2.34 -5 2 C-5.33 1.34 -5.66 0.68 -6 0 C-3.50907189 -1.24546405 -2.58919267 -0.7767578 0 0 Z " fill="#5F5F5F" transform="translate(85,58)"/>
<path d="M0 0 C0.33 0.99 0.66 1.98 1 3 C2.84046388 4.84046388 5.56857771 5.22401416 8 6 C8 6.66 8 7.32 8 8 C7.01 8.33 6.02 8.66 5 9 C9.455 9.99 9.455 9.99 14 11 C14 11.33 14 11.66 14 12 C8.72 11.67 3.44 11.34 -2 11 C-3 7 -3 7 -3 3 C-1.5 1.25 -1.5 1.25 0 0 Z " fill="#575757" transform="translate(15,68)"/>
<path d="M0 0 C1.32 0.99 2.64 1.98 4 3 C3.67 3.99 3.34 4.98 3 6 C2.01 6 1.02 6 0 6 C1.32 8.31 2.64 10.62 4 13 C1.525 12.01 1.525 12.01 -1 11 C-0.67 11.99 -0.34 12.98 0 14 C-0.99 14 -1.98 14 -3 14 C-3 12.68 -3 11.36 -3 10 C-4.32 10 -5.64 10 -7 10 C-7 9.34 -7 8.68 -7 8 C-6.01 7.67 -5.02 7.34 -4 7 C-4 5.35 -4 3.7 -4 2 C-2.68 1.34 -1.36 0.68 0 0 Z " fill="#323232" transform="translate(81,52)"/>
<path d="M0 0 C0.33 0.99 0.66 1.98 1 3 C0.01 3.66 -0.98 4.32 -2 5 C-2 4.34 -2 3.68 -2 3 C-5.31460705 4.70892499 -5.31460705 4.70892499 -5.6875 8.125 C-5.8421875 9.548125 -5.8421875 9.548125 -6 11 C-6.66 11 -7.32 11 -8 11 C-8.33 8.36 -8.66 5.72 -9 3 C-9.66 4.65 -10.32 6.3 -11 8 C-11.99 7.67 -12.98 7.34 -14 7 C-13.34 5.02 -12.68 3.04 -12 1 C-7.9472484 0.01751476 -4.16138263 -0.08159574 0 0 Z " fill="#8B8A89" transform="translate(42,49)"/>
<path d="M0 0 C0.99 0 1.98 0 3 0 C4.11658501 4.68965706 3.80619523 7.53763531 2 12 C0.35 12 -1.3 12 -3 12 C-3.28999491 7.07008655 -3.19703098 3.90748231 0 0 Z " fill="#181818" transform="translate(55,67)"/>
<path d="M0 0 C0.99 0 1.98 0 3 0 C4.52784106 2.97080205 5.15535109 4.39271846 4.3125 7.6875 C3 10 3 10 0 12 C-2.04296875 12.1953125 -2.04296875 12.1953125 -4.1875 12.125 C-6.0746875 12.063125 -6.0746875 12.063125 -8 12 C-8 11.67 -8 11.34 -8 11 C-3.545 10.505 -3.545 10.505 1 10 C1 9.34 1 8.68 1 8 C-0.32 8 -1.64 8 -3 8 C-3.33 6.35 -3.66 4.7 -4 3 C-3.01 2.67 -2.02 2.34 -1 2 C-0.67 1.34 -0.34 0.68 0 0 Z " fill="#4D4D4D" transform="translate(87,66)"/>
<path d="M0 0 C3.875 0.875 3.875 0.875 5 2 C5.14115161 4.67058851 5.04247107 7.32432238 5 10 C1.25 11.125 1.25 11.125 -1 10 C-1.75 6.625 -1.75 6.625 -2 3 C-1.34 2.01 -0.68 1.02 0 0 Z " fill="#837B66" transform="translate(53,39)"/>
<path d="M0 0 C1.65 0.33 3.3 0.66 5 1 C4.625 3.4375 4.625 3.4375 4 6 C3.01 6.495 3.01 6.495 2 7 C1.65458149 9.33157492 1.32205743 11.66508361 1 14 C0.01 15.485 0.01 15.485 -1 17 C-1.66 17 -2.32 17 -3 17 C-4.42944945 14.64561267 -5.08661261 13.51967567 -4.625 10.75 C-4.41875 10.1725 -4.2125 9.595 -4 9 C-3.01 9.33 -2.02 9.66 -1 10 C-0.67 8.02 -0.34 6.04 0 4 C-1.32 3.67 -2.64 3.34 -4 3 C-3.01 2.67 -2.02 2.34 -1 2 C-0.34 2.33 0.32 2.66 1 3 C0.67 2.01 0.34 1.02 0 0 Z " fill="#909090" transform="translate(146,54)"/>
<path d="M0 0 C1.67542976 0.28604898 3.34385343 0.61781233 5 1 C4.67 3.64 4.34 6.28 4 9 C3.34 9 2.68 9 2 9 C1.67 9.99 1.34 10.98 1 12 C-0.32 11.34 -1.64 10.68 -3 10 C-2.34 9.67 -1.68 9.34 -1 9 C-1.020625 7.700625 -1.04125 6.40125 -1.0625 5.0625 C-1.08399454 3.70834367 -1.07148199 2.35243917 -1 1 C-0.67 0.67 -0.34 0.34 0 0 Z " fill="#838079" transform="translate(108,41)"/>
<path d="M0 0 C1.65 0 3.3 0 5 0 C4.75 1.875 4.75 1.875 4 4 C1.9375 5.25 1.9375 5.25 0 6 C0.061875 7.11375 0.061875 7.11375 0.125 8.25 C-0.00398134 11.08758952 -0.57051222 12.58773938 -2 15 C-1.01 15.99 -0.02 16.98 1 18 C-1.55222336 17.65970355 -2.70810113 17.32997263 -4.4375 15.375 C-5.31149327 11.68480621 -3.64299217 9.28598434 -2 6 C-2.66 5.67 -3.32 5.34 -4 5 C-2.68 5 -1.36 5 0 5 C0 3.35 0 1.7 0 0 Z " fill="#8C8C8C" transform="translate(14,59)"/>
<path d="M0 0 C-0.33 1.32 -0.66 2.64 -1 4 C0.32 4.33 1.64 4.66 3 5 C-2.28 5 -7.56 5 -13 5 C-13.33 4.34 -13.66 3.68 -14 3 C-13.67 2.34 -13.34 1.68 -13 1 C-10.56640625 0.5859375 -10.56640625 0.5859375 -7.5625 0.375 C-6.57378906 0.30023438 -5.58507812 0.22546875 -4.56640625 0.1484375 C-3.04600783 0.06049969 -1.5229394 0 0 0 Z " fill="#A3A3A3" transform="translate(128,77)"/>
<path d="M0 0 C0.91058531 3.07322544 1.08886184 5.80097361 1 9 C-2 10 -2 10 -5 9 C-5.99 9 -6.98 9 -8 9 C-6.82191948 5.6470016 -5.80593388 3.2447471 -3 1 C-2.01 0.67 -1.02 0.34 0 0 Z " fill="#BCBCBC" transform="translate(141,60)"/>
<path d="M0 0 C1.70884005 1.62339805 3.37446717 3.29319053 5 5 C5 5.66 5 6.32 5 7 C5.66 7.33 6.32 7.66 7 8 C6.67 8.66 6.34 9.32 6 10 C3.69 10 1.38 10 -1 10 C-2.15837626 5.94568308 -1.83691257 3.78187881 0 0 Z " fill="#878787" transform="translate(39,72)"/>
<path d="M0 0 C2 1.75 2 1.75 4 4 C4 5.32 4 6.64 4 8 C4.66 8 5.32 8 6 8 C5.67 9.65 5.34 11.3 5 13 C5.99 13 6.98 13 8 13 C8 13.66 8 14.32 8 15 C6.68 15 5.36 15 4 15 C1.82542733 12.12645755 1 10.63563409 1 7 C0.34 7 -0.32 7 -1 7 C-0.67 4.69 -0.34 2.38 0 0 Z " fill="#1A1A1A" transform="translate(40,64)"/>
<path d="M0 0 C1.32 0.33 2.64 0.66 4 1 C5.26026798 3.52053595 4.91874445 4.8542098 4.5625 7.625 C4.46066406 8.44226562 4.35882812 9.25953125 4.25390625 10.1015625 C4.17011719 10.72804688 4.08632812 11.35453125 4 12 C2.68 12 1.36 12 0 12 C0 8.04 0 4.08 0 0 Z " fill="#6B6553" transform="translate(0,40)"/>
<path d="M0 0 C1.67542976 0.28604898 3.34385343 0.61781233 5 1 C5.125 6.75 5.125 6.75 4 9 C2.02 9 0.04 9 -2 9 C-1.125 1.125 -1.125 1.125 0 0 Z " fill="#726C5E" transform="translate(39,40)"/>
<path d="M0 0 C1.98 0.66 3.96 1.32 6 2 C6 3.32 6 4.64 6 6 C5.34 6 4.68 6 4 6 C3.67 7.65 3.34 9.3 3 11 C1.35 10.67 -0.3 10.34 -2 10 C-1.67 8.906875 -1.34 7.81375 -1 6.6875 C0.13086649 3.15421116 0.13086649 3.15421116 0 0 Z " fill="#CBCBCB" transform="translate(147,61)"/>
<path d="M0 0 C1.32 0.66 2.64 1.32 4 2 C3.67 4.64 3.34 7.28 3 10 C0.03 9.505 0.03 9.505 -3 9 C-2.25 2.25 -2.25 2.25 0 0 Z " fill="#7C745E" transform="translate(66,43)"/>
<path d="M0 0 C0 3 0 3 -1.5 4.6875 C-1.995 5.120625 -2.49 5.55375 -3 6 C-2.34 6 -1.68 6 -1 6 C-1 6.99 -1 7.98 -1 9 C-4.63 9 -8.26 9 -12 9 C-12 8.01 -12 7.02 -12 6 C-10.02 6 -8.04 6 -6 6 C-6 5.34 -6 4.68 -6 4 C-2.47058824 0 -2.47058824 0 0 0 Z " fill="#B1B1B1" transform="translate(93,73)"/>
<path d="M0 0 C1.32 0 2.64 0 4 0 C3.979375 1.0725 3.95875 2.145 3.9375 3.25 C3.9857984 6.14790424 4.13155885 8.28612141 5 11 C3.02 11 1.04 11 -1 11 C-0.67 7.37 -0.34 3.74 0 0 Z " fill="#111111" transform="translate(98,67)"/>
<path d="M0 0 C0.99 0.33 1.98 0.66 3 1 C2.01 4.96 1.02 8.92 0 13 C0.66 13 1.32 13 2 13 C2.33 12.34 2.66 11.68 3 11 C3.66 11 4.32 11 5 11 C4.67 13.64 4.34 16.28 4 19 C3.67 17.68 3.34 16.36 3 15 C0.69 15 -1.62 15 -4 15 C-3.01 14.67 -2.02 14.34 -1 14 C-1 12.02 -1 10.04 -1 8 C-1.99 7.67 -2.98 7.34 -4 7 C-3.525625 6.5875 -3.05125 6.175 -2.5625 5.75 C-0.83733482 3.817815 -0.43415125 2.51807725 0 0 Z " fill="#A5A194" transform="translate(99,52)"/>
<path d="M0 0 C0.33 0.66 0.66 1.32 1 2 C2.65 2 4.3 2 6 2 C6 2.66 6 3.32 6 4 C5.01 4 4.02 4 3 4 C3.66 4.33 4.32 4.66 5 5 C5 6.98 5 8.96 5 11 C2 11 2 11 0.3125 9.9375 C-1.67745079 6.9999536 -1.25554354 4.44983777 -1 1 C-0.67 0.67 -0.34 0.34 0 0 Z " fill="#4F4F4F" transform="translate(141,53)"/>
<path d="M0 0 C0.66 1.32 1.32 2.64 2 4 C1.57847656 4.39832031 1.15695313 4.79664063 0.72265625 5.20703125 C0.17480469 5.73683594 -0.37304688 6.26664063 -0.9375 6.8125 C-1.48277344 7.33457031 -2.02804688 7.85664062 -2.58984375 8.39453125 C-4.23519092 10.05812198 -4.23519092 10.05812198 -5 13 C-5.66 13 -6.32 13 -7 13 C-9 10 -9 10 -9 7 C-8.2575 6.95875 -7.515 6.9175 -6.75 6.875 C-2.90448224 5.65142617 -1.95694517 3.40653418 0 0 Z " fill="#505050" transform="translate(120,52)"/>
<path d="M0 0 C-0.99 1.32 -1.98 2.64 -3 4 C-5.97 3.505 -5.97 3.505 -9 3 C-9 3.99 -9 4.98 -9 6 C-10.98 6.99 -10.98 6.99 -13 8 C-10.34017972 0.97047497 -10.34017972 0.97047497 -7.1875 -1.3125 C-4.20409677 -2.25014101 -2.72764187 -1.36382093 0 0 Z " fill="#9F9E9A" transform="translate(55,50)"/>
<path d="M0 0 C1.32 0 2.64 0 4 0 C4 2.97 4 5.94 4 9 C1.69 9 -0.62 9 -3 9 C-2.38722388 6.03824877 -1.74627478 4.61941217 0 2 C0 1.34 0 0.68 0 0 Z " fill="#212121" transform="translate(156,70)"/>
<path d="M0 0 C0.66 0 1.32 0 2 0 C3.5912689 4.873261 4.21192221 8.80790596 4 14 C3.01 14 2.02 14 1 14 C1.33 12.35 1.66 10.7 2 9 C1.34 9 0.68 9 0 9 C-0.66 6.69 -1.32 4.38 -2 2 C-1.34 1.34 -0.68 0.68 0 0 Z " fill="#343434" transform="translate(44,63)"/>
<path d="M0 0 C1.77706209 2.66559313 2.87548273 5.0280615 4 8 C3.34 8.66 2.68 9.32 2 10 C-1.0625 9.75 -1.0625 9.75 -4 9 C-4.33 8.34 -4.66 7.68 -5 7 C-4.34 7 -3.68 7 -3 7 C-2.67 5.35 -2.34 3.7 -2 2 C-1.34 2 -0.68 2 0 2 C0 1.34 0 0.68 0 0 Z " fill="#979797" transform="translate(153,65)"/>
<path d="M0 0 C0.66 0 1.32 0 2 0 C3.4783226 2.95664519 3.06032783 5.74229737 3 9 C1.68 9.33 0.36 9.66 -1 10 C-2.4606285 7.35261084 -3 6.10551666 -3 3 C-2.34 3 -1.68 3 -1 3 C-0.67 2.01 -0.34 1.02 0 0 Z " fill="#6C685E" transform="translate(145,42)"/>
<path d="M0 0 C0 1.65 0 3.3 0 5 C-2.35438733 6.42944945 -3.48032433 7.08661261 -6.25 6.625 C-6.8275 6.41875 -7.405 6.2125 -8 6 C-6.53781513 1.3697479 -6.53781513 1.3697479 -4 -0.375 C-2 -1 -2 -1 0 0 Z " fill="#797979" transform="translate(135,57)"/>
<path d="M0 0 C0.66 0 1.32 0 2 0 C2 0.66 2 1.32 2 2 C5.3 2.33 8.6 2.66 12 3 C12 3.33 12 3.66 12 4 C8.32612505 4.85298376 4.9552607 5.10789471 1.1875 5.0625 C-0.27623047 5.04896484 -0.27623047 5.04896484 -1.76953125 5.03515625 C-2.87361328 5.01775391 -2.87361328 5.01775391 -4 5 C-4 4.01 -4 3.02 -4 2 C-2.68 2 -1.36 2 0 2 C0 1.34 0 0.68 0 0 Z " fill="#AFAFAF" transform="translate(7,77)"/>
<path d="M0 0 C0.33 0.99 0.66 1.98 1 3 C1.66 3 2.32 3 3 3 C3.33 2.34 3.66 1.68 4 1 C4.33 1.99 4.66 2.98 5 4 C3.68 4.33 2.36 4.66 1 5 C1 5.66 1 6.32 1 7 C-2.375 7.125 -2.375 7.125 -6 7 C-6.66 6.34 -7.32 5.68 -8 5 C-6.35 5 -4.7 5 -3 5 C-3 3.68 -3 2.36 -3 1 C-2.01 0.67 -1.02 0.34 0 0 Z " fill="#6E6E6E" transform="translate(26,71)"/>
<path d="M0 0 C2.475 0.99 2.475 0.99 5 2 C5 2.99 5 3.98 5 5 C4.34 5 3.68 5 3 5 C2.34 6.32 1.68 7.64 1 9 C-0.98 9 -2.96 9 -5 9 C-5.33 7.68 -5.66 6.36 -6 5 C-3.03 5.495 -3.03 5.495 0 6 C0 4.02 0 2.04 0 0 Z " fill="#676767" transform="translate(59,57)"/>
<path d="M0 0 C1.67542976 0.28604898 3.34385343 0.61781233 5 1 C5.20086443 4.71599191 5.1519437 5.77208445 3 9 C2.01 8.67 1.02 8.34 0 8 C-0.38063221 5.6739143 -0.71269945 3.33944736 -1 1 C-0.67 0.67 -0.34 0.34 0 0 Z " fill="#6E685A" transform="translate(25,41)"/>
<path d="M0 0 C1.32 0.66 2.64 1.32 4 2 C3.67 3.98 3.34 5.96 3 8 C3.99 8.33 4.98 8.66 6 9 C5.34 9 4.68 9 4 9 C3.67 9.66 3.34 10.32 3 11 C3 10.34 3 9.68 3 9 C1.68 9.33 0.36 9.66 -1 10 C-1.66 8.68 -2.32 7.36 -3 6 C-2.01 6 -1.02 6 0 6 C0 4.02 0 2.04 0 0 Z " fill="#525252" transform="translate(80,63)"/>
<path d="M0 0 C0.99 1.485 0.99 1.485 2 3 C2.33 2.34 2.66 1.68 3 1 C3.66 1 4.32 1 5 1 C5.66 3.97 6.32 6.94 7 10 C5.02 10.99 5.02 10.99 3 12 C2.67 12.66 2.34 13.32 2 14 C2 11.03 2 8.06 2 5 C1.34 5 0.68 5 0 5 C0 3.35 0 1.7 0 0 Z " fill="#525252" transform="translate(7,54)"/>
<path d="M0 0 C2 0.3125 2 0.3125 4 1 C5.35439668 3.70879335 5.06501451 6.00933268 5 9 C3.35 8.67 1.7 8.34 0 8 C-0.38063221 5.6739143 -0.71269945 3.33944736 -1 1 C-0.67 0.67 -0.34 0.34 0 0 Z " fill="#B7B7B7" transform="translate(54,54)"/>
<path d="M0 0 C0.33 0 0.66 0 1 0 C1 4.95 1 9.9 1 15 C-0.32 14.34 -1.64 13.68 -3 13 C-2.814375 12.236875 -2.62875 11.47375 -2.4375 10.6875 C-1.77180827 7.91032625 -1.77180827 7.91032625 -3 5 C-1.625 2.3125 -1.625 2.3125 0 0 Z " fill="#756F61" transform="translate(159,33)"/>
<path d="M0 0 C2.475 0.495 2.475 0.495 5 1 C5 3.31 5 5.62 5 8 C3.35 8 1.7 8 0 8 C0 5.36 0 2.72 0 0 Z " fill="#9D9D9D" transform="translate(1,63)"/>
<path d="M0 0 C0.99 0.33 1.98 0.66 3 1 C3.103125 1.78375 3.20625 2.5675 3.3125 3.375 C3.77595022 6.33045181 3.77595022 6.33045181 7 8 C5.68 8 4.36 8 3 8 C2.67 8.66 2.34 9.32 2 10 C-0 8.625 -0 8.625 -2 7 C-2 6.34 -2 5.68 -2 5 C-1.34 5 -0.68 5 0 5 C0 3.35 0 1.7 0 0 Z " fill="#737373" transform="translate(36,55)"/>
<path d="M0 0 C0.99 0.495 0.99 0.495 2 1 C2.4140625 3.06640625 2.4140625 3.06640625 2.625 5.5625 C2.69976562 6.38878906 2.77453125 7.21507812 2.8515625 8.06640625 C2.92503906 9.02353516 2.92503906 9.02353516 3 10 C3.66 10 4.32 10 5 10 C5 12.97 5 15.94 5 19 C4.34 19.33 3.68 19.66 3 20 C2.49685437 17.22970414 1.99736162 14.4588348 1.5 11.6875 C1.35691406 10.90181641 1.21382813 10.11613281 1.06640625 9.30664062 C0.93105469 8.54931641 0.79570313 7.79199219 0.65625 7.01171875 C0.53056641 6.31522217 0.40488281 5.61872559 0.27539062 4.90112305 C0 3 0 3 0 0 Z " fill="#1E1E1E" transform="translate(4,49)"/>
<path d="M0 0 C1.65 0 3.3 0 5 0 C4.34 1.98 3.68 3.96 3 6 C2.34 6 1.68 6 1 6 C0.67 7.98 0.34 9.96 0 12 C-0.66 12 -1.32 12 -2 12 C-1.85904936 10.3745692 -1.71207913 8.74965949 -1.5625 7.125 C-1.48128906 6.22007813 -1.40007812 5.31515625 -1.31640625 4.3828125 C-1 2 -1 2 0 0 Z " fill="#5B5B5B" transform="translate(101,53)"/>
<path d="M0 0 C1.32 0 2.64 0 4 0 C4 0.66 4 1.32 4 2 C4.66 2 5.32 2 6 2 C6 2.66 6 3.32 6 4 C4.04072937 5.7143618 2.04119788 7.38405168 0 9 C-0.87890625 2.84765625 -0.87890625 2.84765625 -1 1 C-0.67 0.67 -0.34 0.34 0 0 Z " fill="#A8A6A0" transform="translate(74,49)"/>
<path d="M0 0 C1.98 0 3.96 0 6 0 C6 0.99 6 1.98 6 3 C6.66 3.33 7.32 3.66 8 4 C7.195625 4.12375 6.39125 4.2475 5.5625 4.375 C4.2940625 4.684375 4.2940625 4.684375 3 5 C2.67 5.66 2.34 6.32 2 7 C2 6.01 2 5.02 2 4 C1.34 4 0.68 4 0 4 C-0.33 4.99 -0.66 5.98 -1 7 C-0.67 4.69 -0.34 2.38 0 0 Z " fill="#B9B9B9" transform="translate(102,59)"/>
<path d="M0 0 C1.65 0.33 3.3 0.66 5 1 C5 2.98 5 4.96 5 7 C4.01 7 3.02 7 2 7 C2 7.66 2 8.32 2 9 C1.01 8.67 0.02 8.34 -1 8 C-0.34 8 0.32 8 1 8 C0.67 7.34 0.34 6.68 0 6 C-0.039992 4.00039988 -0.04346799 1.99952758 0 0 Z " fill="#B3B3B3" transform="translate(93,59)"/>
<path d="M0 0 C2.475 0.495 2.475 0.495 5 1 C5.33 2.98 5.66 4.96 6 7 C4.35 7.33 2.7 7.66 1 8 C0.67 5.36 0.34 2.72 0 0 Z " fill="#C0C0C0" transform="translate(67,56)"/>
<path d="M0 0 C0.33 0 0.66 0 1 0 C1 2.31 1 4.62 1 7 C1.66 7 2.32 7 3 7 C2.67 8.98 2.34 10.96 2 13 C0.68 13 -0.64 13 -2 13 C-1.48041715 8.62065881 -0.94324258 4.31196609 0 0 Z " fill="#202020" transform="translate(130,67)"/>
<path d="M0 0 C1.4540625 0.0309375 1.4540625 0.0309375 2.9375 0.0625 C1.9475 3.0325 0.9575 6.0025 -0.0625 9.0625 C-1.83956209 6.39690687 -2.93798273 4.0344385 -4.0625 1.0625 C-3.0625 0.0625 -3.0625 0.0625 0 0 Z " fill="#737373" transform="translate(127.0625,64.9375)"/>
<path d="M0 0 C0.99 0.33 1.98 0.66 3 1 C3.33 2.65 3.66 4.3 4 6 C1.6875 6.6875 1.6875 6.6875 -1 7 C-2.8125 5.5625 -2.8125 5.5625 -4 4 C-2.68 2.68 -1.36 1.36 0 0 Z " fill="#6B6B6B" transform="translate(120,57)"/>
<path d="M0 0 C3.3 0 6.6 0 10 0 C10 0.99 10 1.98 10 3 C6.37 3 2.74 3 -1 3 C-0.67 2.01 -0.34 1.02 0 0 Z " fill="#BCBCBC" transform="translate(46,79)"/>
<path d="M0 0 C1.32 0 2.64 0 4 0 C4.33 2.31 4.66 4.62 5 7 C3.35 7.33 1.7 7.66 0 8 C0 5.36 0 2.72 0 0 Z " fill="#484848" transform="translate(0,72)"/>
<path d="M0 0 C3.96 0.33 7.92 0.66 12 1 C11.34 3.64 10.68 6.28 10 9 C9.67 9 9.34 9 9 9 C8.34 7.02 7.68 5.04 7 3 C5.02 3 3.04 3 1 3 C0.67 2.01 0.34 1.02 0 0 Z " fill="#404040" transform="translate(122,63)"/>
<path d="M0 0 C2.3431213 0.25561323 4.67843403 0.59270772 7 1 C8.38125018 3.76250036 8.19079306 5.94731099 8 9 C7.34 9.66 6.68 10.32 6 11 C5 8 5 8 6 5 C5.01 4.67 4.02 4.34 3 4 C3 3.34 3 2.68 3 2 C2.01 2.33 1.02 2.66 0 3 C0 2.01 0 1.02 0 0 Z " fill="#7C7C7C" transform="translate(46,53)"/>
<path d="M0 0 C0.99 0 1.98 0 3 0 C2.67 1.98 2.34 3.96 2 6 C1.01 6 0.02 6 -1 6 C-1.33 7.98 -1.66 9.96 -2 12 C-2.99 12 -3.98 12 -5 12 C-4.67 11.01 -4.34 10.02 -4 9 C-3.34 9 -2.68 9 -2 9 C-2.04125 7.88625 -2.0825 6.7725 -2.125 5.625 C-2 2 -2 2 0 0 Z " fill="#353535" transform="translate(95,67)"/>
<path d="M0 0 C0.99 0 1.98 0 3 0 C3 0.66 3 1.32 3 2 C3.66 2 4.32 2 5 2 C5.28875 2.804375 5.5775 3.60875 5.875 4.4375 C6.73262568 7.1326468 6.73262568 7.1326468 9 8 C9 8.66 9 9.32 9 10 C8.01 10 7.02 10 6 10 C6 9.34 6 8.68 6 8 C5.34 8 4.68 8 4 8 C4 7.34 4 6.68 4 6 C3.01 6 2.02 6 1 6 C0.67 4.02 0.34 2.04 0 0 Z " fill="#8B8B8B" transform="translate(85,57)"/>
<path d="M0 0 C2.31 0 4.62 0 7 0 C6.67 1.32 6.34 2.64 6 4 C5.01 4 4.02 4 3 4 C3 4.66 3 5.32 3 6 C2.01 6 1.02 6 0 6 C0 4.02 0 2.04 0 0 Z " fill="#9E9E9E" transform="translate(20,68)"/>
<path d="M0 0 C1.69752187 0.25245197 3.38471545 0.57645775 5.0625 0.9375 C5.98160156 1.13214844 6.90070313 1.32679687 7.84765625 1.52734375 C8.91306641 1.76130859 8.91306641 1.76130859 10 2 C10 2.66 10 3.32 10 4 C7.36 4 4.72 4 2 4 C1.67 4.66 1.34 5.32 1 6 C0.34 6 -0.32 6 -1 6 C-1.042721 4.33388095 -1.04063832 2.66617115 -1 1 C-0.67 0.67 -0.34 0.34 0 0 Z " fill="#1C1C1C" transform="translate(61,63)"/>
<path d="M0 0 C1.98 0 3.96 0 6 0 C6.33 1.65 6.66 3.3 7 5 C5.02 5.33 3.04 5.66 1 6 C0.67 4.02 0.34 2.04 0 0 Z " fill="#A3A3A3" transform="translate(26,58)"/>
<path d="M0 0 C0.66 0 1.32 0 2 0 C2 0.99 2 1.98 2 3 C3.65 2.67 5.3 2.34 7 2 C7 2.66 7 3.32 7 4 C5.68 4 4.36 4 3 4 C3 6.31 3 8.62 3 11 C1.5 10 1.5 10 0 8 C-0.27345479 5.28153765 -0.13491285 2.74322801 0 0 Z " fill="#575757" transform="translate(90,55)"/>
<path d="M0 0 C1.32 0.66 2.64 1.32 4 2 C4 3.98 4 5.96 4 8 C2.35 7.67 0.7 7.34 -1 7 C-0.67 4.69 -0.34 2.38 0 0 Z " fill="#BCBCBC" transform="translate(124,55)"/>
<path d="M0 0 C0.66 0 1.32 0 2 0 C2.33 0.66 2.66 1.32 3 2 C3.99 2 4.98 2 6 2 C5.34 3.65 4.68 5.3 4 7 C2.68 6.67 1.36 6.34 0 6 C-0.38218767 4.34385343 -0.71395102 2.67542976 -1 1 C-0.67 0.67 -0.34 0.34 0 0 Z " fill="#4D4D4D" transform="translate(47,55)"/>
<path d="M0 0 C0.66 0 1.32 0 2 0 C2 0.99 2 1.98 2 3 C4.64 3 7.28 3 10 3 C10 3.66 10 4.32 10 5 C6.37 5 2.74 5 -1 5 C-0.67 3.35 -0.34 1.7 0 0 Z " fill="#868686" transform="translate(93,77)"/>
<path d="M0 0 C0.99 0 1.98 0 3 0 C3.33 1.65 3.66 3.3 4 5 C3.01 4.67 2.02 4.34 1 4 C0.34 5.32 -0.32 6.64 -1 8 C-1.66 8 -2.32 8 -3 8 C-2.37240135 5.07120629 -1.41377341 2.63904371 0 0 Z " fill="#292929" transform="translate(55,67)"/>
<path d="M0 0 C0.268125 0.61875 0.53625 1.2375 0.8125 1.875 C1.95556848 4.2995233 1.95556848 4.2995233 5 6 C5 6.66 5 7.32 5 8 C4.34 8 3.68 8 3 8 C3 9.98 3 11.96 3 14 C1.02103213 11.03154819 0.47758046 9.30541501 -0.1875 5.875 C-0.36667969 4.98554687 -0.54585937 4.09609375 -0.73046875 3.1796875 C-0.81941406 2.46039063 -0.90835938 1.74109375 -1 1 C-0.67 0.67 -0.34 0.34 0 0 Z " fill="#303030" transform="translate(33,58)"/>
<path d="M0 0 C0.99 0.33 1.98 0.66 3 1 C2.01 2.32 1.02 3.64 0 5 C-1.32 4.67 -2.64 4.34 -4 4 C-4 5.98 -4 7.96 -4 10 C-4.33 9.01 -4.66 8.02 -5 7 C-5.66 7 -6.32 7 -7 7 C-6.67 5.02 -6.34 3.04 -6 1 C-5.67 1.66 -5.34 2.32 -5 3 C-3.35 2.67 -1.7 2.34 0 2 C0 1.34 0 0.68 0 0 Z " fill="#9C9C9C" transform="translate(128,51)"/>
<path d="M0 0 C2.64 0.33 5.28 0.66 8 1 C8.33 2.65 8.66 4.3 9 6 C8.01 6.495 8.01 6.495 7 7 C6.67 6.34 6.34 5.68 6 5 C3.97536745 4.34786708 3.97536745 4.34786708 2 4 C2 3.34 2 2.68 2 2 C1.34 2 0.68 2 0 2 C0 1.34 0 0.68 0 0 Z " fill="#8B8982" transform="translate(65,52)"/>
<path d="M0 0 C0.66 0.99 1.32 1.98 2 3 C2.33 2.34 2.66 1.68 3 1 C3.66 1 4.32 1 5 1 C4.67 2.65 4.34 4.3 4 6 C2.02 6 0.04 6 -2 6 C-1.125 1.125 -1.125 1.125 0 0 Z " fill="#848484" transform="translate(58,76)"/>
<path d="M0 0 C0.66 0.66 1.32 1.32 2 2 C1.625 5.625 1.625 5.625 1 9 C-0.65 9.33 -2.3 9.66 -4 10 C-3.505 9.1028125 -3.505 9.1028125 -3 8.1875 C-1.79212012 5.94613529 -1.79212012 5.94613529 -2 3 C-1.34 3 -0.68 3 0 3 C0 2.01 0 1.02 0 0 Z " fill="#B9B9B9" transform="translate(115,62)"/>
<path d="M0 0 C0.66 0.33 1.32 0.66 2 1 C1 3 1 3 -0.8125 3.75 C-3.49828639 4.05694702 -4.7252187 3.38111722 -7 2 C-7 1.34 -7 0.68 -7 0 C-4.30919898 -1.34540051 -2.86443593 -0.71610898 0 0 Z " fill="#919191" transform="translate(65,55)"/>
<path d="M0 0 C1.1875 1.6875 1.1875 1.6875 2 4 C0.625 6.75 0.625 6.75 -1 9 C-1.33 7.68 -1.66 6.36 -2 5 C-2.66 5 -3.32 5 -4 5 C-4 3.68 -4 2.36 -4 1 C-2.68 1.33 -1.36 1.66 0 2 C0 1.34 0 0.68 0 0 Z " fill="#908E88" transform="translate(10,49)"/>
<path d="M0 0 C0.33 0.99 0.66 1.98 1 3 C3.01508358 3.73323796 3.01508358 3.73323796 5 4 C4.67 4.99 4.34 5.98 4 7 C-0.67692308 5.52307692 -0.67692308 5.52307692 -2.3125 2.875 C-2.539375 2.25625 -2.76625 1.6375 -3 1 C-2.01 0.67 -1.02 0.34 0 0 Z " fill="#292929" transform="translate(74,70)"/>
<path d="M0 0 C0.99 0 1.98 0 3 0 C3 0.66 3 1.32 3 2 C3.66 2 4.32 2 5 2 C5.33 2.66 5.66 3.32 6 4 C8.52733235 4.65555119 8.52733235 4.65555119 11 5 C10.01 5.66 9.02 6.32 8 7 C7.67 7.99 7.34 8.98 7 10 C6.34 10 5.68 10 5 10 C5 9.01 5 8.02 5 7 C4.34 6.34 3.68 5.68 3 5 C3.33 4.34 3.66 3.68 4 3 C3.34 3 2.68 3 2 3 C2 2.34 2 1.68 2 1 C1.34 0.67 0.68 0.34 0 0 Z " fill="#6B6B6B" transform="translate(86,63)"/>
<path d="M0 0 C0.33 0.66 0.66 1.32 1 2 C1.99 2 2.98 2 4 2 C4 2.99 4 3.98 4 5 C1.36 5 -1.28 5 -4 5 C-4 4.01 -4 3.02 -4 2 C-2.68 2 -1.36 2 0 2 C0 1.34 0 0.68 0 0 Z " fill="#B8B8B8" transform="translate(156,77)"/>
<path d="M0 0 C2.0625 0.4375 2.0625 0.4375 4 1 C4 3.64 4 6.28 4 9 C3.67 8.01 3.34 7.02 3 6 C2.34 6 1.68 6 1 6 C0.34 4.35 -0.32 2.7 -1 1 C-0.67 0.67 -0.34 0.34 0 0 Z " fill="#A49877" transform="translate(54,40)"/>
<path d="M0 0 C0.66 0 1.32 0 2 0 C2.1875 2.375 2.1875 2.375 2 5 C-1.08888522 7.05925681 -1.70935927 7.2390374 -5.1875 7.125 C-7.0746875 7.063125 -7.0746875 7.063125 -9 7 C-9 6.67 -9 6.34 -9 6 C-4.545 5.505 -4.545 5.505 0 5 C0 4.34 0 3.68 0 3 C-1.32 2.67 -2.64 2.34 -4 2 C-2.68 2 -1.36 2 0 2 C0 1.34 0 0.68 0 0 Z " fill="#2D2D2D" transform="translate(88,71)"/>
<path d="M0 0 C1.67542976 0.28604898 3.34385343 0.61781233 5 1 C5 1.99 5 2.98 5 4 C3.824375 3.9690625 3.824375 3.9690625 2.625 3.9375 C0.01885039 3.81315937 0.01885039 3.81315937 -2 5 C-1.125 1.125 -1.125 1.125 0 0 Z " fill="#929292" transform="translate(111,52)"/>
<path d="M0 0 C1.32 0 2.64 0 4 0 C5 3 5 3 4 6 C2.68 6 1.36 6 0 6 C0 4.02 0 2.04 0 0 Z " fill="#494948" transform="translate(0,46)"/>
<path d="M0 0 C1.65 0 3.3 0 5 0 C4.75 1.875 4.75 1.875 4 4 C1.9375 5.25 1.9375 5.25 0 6 C0 4.02 0 2.04 0 0 Z " fill="#A1A1A1" transform="translate(14,59)"/>
<path d="M0 0 C1.65 0 3.3 0 5 0 C5.33 1.65 5.66 3.3 6 5 C4.68 5.33 3.36 5.66 2 6 C1.33333333 4 0.66666667 2 0 0 Z " fill="#86806F" transform="translate(12,45)"/>
<path d="M0 0 C0.33 1.32 0.66 2.64 1 4 C2.65 4 4.3 4 6 4 C6 4.33 6 4.66 6 5 C-2.57142857 5.28571429 -2.57142857 5.28571429 -6 3 C-5.67 2.34 -5.34 1.68 -5 1 C-3.68 1.66 -2.36 2.32 -1 3 C-0.67 2.01 -0.34 1.02 0 0 Z " fill="#909090" transform="translate(107,71)"/>
<path d="M0 0 C0.66 0 1.32 0 2 0 C1.67 2.64 1.34 5.28 1 8 C0.67 6.68 0.34 5.36 0 4 C-2.31 4 -4.62 4 -7 4 C-6.01 3.67 -5.02 3.34 -4 3 C-3.67 2.34 -3.34 1.68 -3 1 C-2.34 1.33 -1.68 1.66 -1 2 C-0.67 1.34 -0.34 0.68 0 0 Z " fill="#878787" transform="translate(102,63)"/>
<path d="M0 0 C4.75 1.875 4.75 1.875 7 3 C7 3.99 7 4.98 7 6 C5.35 6.33 3.7 6.66 2 7 C2 6.34 2 5.68 2 5 C2.66 4.67 3.32 4.34 4 4 C2.35 3.67 0.7 3.34 -1 3 C-0.67 2.01 -0.34 1.02 0 0 Z " fill="#979797" transform="translate(153,51)"/>
<path d="M0 0 C2.15377564 2.62198774 3.40072174 4.64404172 4 8 C2.35 7.67 0.7 7.34 -1 7 C-0.67 4.69 -0.34 2.38 0 0 Z " fill="#C2C2C2" transform="translate(122,65)"/>
<path d="M0 0 C0 0.66 0 1.32 0 2 C-0.45375 2.433125 -0.9075 2.86625 -1.375 3.3125 C-3.34309231 5.35628817 -4.06726871 7.34530324 -5 10 C-5.66 10 -6.32 10 -7 10 C-4.54716981 0 -4.54716981 0 0 0 Z " fill="#D7D7D7" transform="translate(109,63)"/>
<path d="M0 0 C2.1875 1.4375 2.1875 1.4375 4 3 C3.67 3.99 3.34 4.98 3 6 C1.35 6 -0.3 6 -2 6 C-1.67 5.01 -1.34 4.02 -1 3 C-1.66 2.34 -2.32 1.68 -3 1 C-2.01 0.67 -1.02 0.34 0 0 Z " fill="#4A4A4A" transform="translate(81,52)"/>
<path d="M0 0 C0.33 0.66 0.66 1.32 1 2 C1.66 2 2.32 2 3 2 C3 2.66 3 3.32 3 4 C3.66 4 4.32 4 5 4 C5 4.66 5 5.32 5 6 C2.36 5.67 -0.28 5.34 -3 5 C-2.625 3.0625 -2.625 3.0625 -2 1 C-1.34 0.67 -0.68 0.34 0 0 Z " fill="#B6B6B5" transform="translate(62,50)"/>
<path d="M0 0 C1.5 1.375 1.5 1.375 3 3 C3 3.66 3 4.32 3 5 C3.66 5.33 4.32 5.66 5 6 C4.67 6.66 4.34 7.32 4 8 C3.01 8 2.02 8 1 8 C-0.35439668 5.29120665 -0.06501451 2.99066732 0 0 Z " fill="#7B7B7B" transform="translate(41,74)"/>
<path d="M0 0 C0.91058531 3.07322544 1.08886184 5.80097361 1 9 C-0.32 8.67 -1.64 8.34 -3 8 C-1.125 1.125 -1.125 1.125 0 0 Z " fill="#C5C5C5" transform="translate(141,60)"/>
<path d="M0 0 C1.32 0 2.64 0 4 0 C4 3.96 4 7.92 4 12 C3.67 12 3.34 12 3 12 C2.67 8.7 2.34 5.4 2 2 C1.34 2 0.68 2 0 2 C0 1.34 0 0.68 0 0 Z " fill="#535353" transform="translate(156,57)"/>
<path d="M0 0 C0 1.65 0 3.3 0 5 C-0.66 5 -1.32 5 -2 5 C-2 4.34 -2 3.68 -2 3 C-2.99 2.67 -3.98 2.34 -5 2 C-5.33 1.34 -5.66 0.68 -6 0 C-3.50907189 -1.24546405 -2.58919267 -0.7767578 0 0 Z " fill="#696969" transform="translate(85,58)"/>
<path d="M0 0 C0.99 0 1.98 0 3 0 C2.34 2.31 1.68 4.62 1 7 C0.01 6.67 -0.98 6.34 -2 6 C-1.34 4.02 -0.68 2.04 0 0 Z " fill="#A8A8A7" transform="translate(30,50)"/>
<path d="M0 0 C0.99 0 1.98 0 3 0 C3 1.98 3 3.96 3 6 C1.68 5.67 0.36 5.34 -1 5 C-0.67 3.35 -0.34 1.7 0 0 Z " fill="#86847C" transform="translate(139,43)"/>
<path d="M0 0 C0.99 0 1.98 0 3 0 C3 0.66 3 1.32 3 2 C6.63 2 10.26 2 14 2 C14 2.33 14 2.66 14 3 C9.38 3 4.76 3 0 3 C0 2.01 0 1.02 0 0 Z " fill="#656565" transform="translate(0,80)"/>
<path d="M0 0 C1.65 0 3.3 0 5 0 C5 0.99 5 1.98 5 3 C6.32 3.33 7.64 3.66 9 4 C7.35 4 5.7 4 4 4 C3.67 3.34 3.34 2.68 3 2 C2.67 2.33 2.34 2.66 2 3 C0.33382885 3.04063832 -1.33388095 3.042721 -3 3 C-2.01 2.67 -1.02 2.34 0 2 C0 1.34 0 0.68 0 0 Z " fill="#2C2C2C" transform="translate(27,76)"/>
<path d="M0 0 C1.32 0.66 2.64 1.32 4 2 C3.67 2.99 3.34 3.98 3 5 C1.35 5 -0.3 5 -2 5 C-2 4.01 -2 3.02 -2 2 C-1.34 2 -0.68 2 0 2 C0 1.34 0 0.68 0 0 Z " fill="#B2B2B2" transform="translate(147,72)"/>
<path d="M0 0 C0.66 0.99 1.32 1.98 2 3 C1.67 3.99 1.34 4.98 1 6 C0.34 5.67 -0.32 5.34 -1 5 C-1 5.99 -1 6.98 -1 8 C-1.66 8 -2.32 8 -3 8 C-2.67 6.02 -2.34 4.04 -2 2 C-1.34 2 -0.68 2 0 2 C0 1.34 0 0.68 0 0 Z " fill="#B0B0B0" transform="translate(153,65)"/>
<path d="M0 0 C2.475 0.99 2.475 0.99 5 2 C5 2.99 5 3.98 5 5 C3.35 5.33 1.7 5.66 0 6 C0 4.02 0 2.04 0 0 Z " fill="#535353" transform="translate(59,57)"/>
<path d="M0 0 C1.65 0 3.3 0 5 0 C5 1.65 5 3.3 5 5 C3.35 4.67 1.7 4.34 0 4 C0 2.68 0 1.36 0 0 Z " fill="#8B8B8B" transform="translate(0,52)"/>
<path d="M0 0 C0.99 0.33 1.98 0.66 3 1 C2.34 2.65 1.68 4.3 1 6 C0.34 6 -0.32 6 -1 6 C-1.33 4.35 -1.66 2.7 -2 1 C-1.34 0.67 -0.68 0.34 0 0 Z " fill="#5A5A58" transform="translate(94,47)"/>
<path d="M0 0 C1.65 0 3.3 0 5 0 C4.01 0.495 4.01 0.495 3 1 C3 1.66 3 2.32 3 3 C-0.375 3.125 -0.375 3.125 -4 3 C-4.66 2.34 -5.32 1.68 -6 1 C-3.03 1.495 -3.03 1.495 0 2 C0 1.34 0 0.68 0 0 Z " fill="#858585" transform="translate(24,75)"/>
<path d="M0 0 C0.99 0 1.98 0 3 0 C3.33 1.65 3.66 3.3 4 5 C3.01 5 2.02 5 1 5 C0.34 5.66 -0.32 6.32 -1 7 C-0.67 4.69 -0.34 2.38 0 0 Z " fill="#8C8C8C" transform="translate(16,68)"/>
<path d="M0 0 C0.66 0 1.32 0 2 0 C2 0.66 2 1.32 2 2 C2.66 2.33 3.32 2.66 4 3 C3.03114628 4.68496298 2.03013277 6.35178756 1 8 C0.67 8 0.34 8 0 8 C0 5.36 0 2.72 0 0 Z " fill="#4B4B4B" transform="translate(52,64)"/>
<path d="M0 0 C1.32 0 2.64 0 4 0 C4.33 1.98 4.66 3.96 5 6 C3.35 5.67 1.7 5.34 0 5 C0 3.33333333 0 1.66666667 0 0 Z " fill="#2D2D2D" transform="translate(20,60)"/>
<path d="M0 0 C0 1.32 0 2.64 0 4 C-2.97 3.505 -2.97 3.505 -6 3 C-6 2.34 -6 1.68 -6 1 C-4 0 -4 0 0 0 Z " fill="#51504F" transform="translate(69,49)"/>
<path d="M0 0 C0.66 0.33 1.32 0.66 2 1 C1.67 3.64 1.34 6.28 1 9 C0.01 8.34 -0.98 7.68 -2 7 C-1.34 4.69 -0.68 2.38 0 0 Z " fill="#555555" transform="translate(59,70)"/>
<path d="M0 0 C1 3 1 3 0.0625 5.1875 C-0.4634375 6.0846875 -0.4634375 6.0846875 -1 7 C-1.99 6.67 -2.98 6.34 -4 6 C-2.84826645 3.53199953 -1.95216435 1.95216435 0 0 Z " fill="#383838" transform="translate(15,68)"/>
<path d="M0 0 C0.66 0 1.32 0 2 0 C2 1.65 2 3.3 2 5 C0.35 5 -1.3 5 -3 5 C-3 4.34 -3 3.68 -3 3 C-2.34 3 -1.68 3 -1 3 C-0.67 2.01 -0.34 1.02 0 0 Z " fill="#515151" transform="translate(151,57)"/>
<path d="M0 0 C0 1.32 0 2.64 0 4 C-0.99 4.33 -1.98 4.66 -3 5 C-3.66 4.67 -4.32 4.34 -5 4 C-5 3.01 -5 2.02 -5 1 C-2 0 -2 0 0 0 Z " fill="#474644" transform="translate(18,50)"/>
<path d="M0 0 C2.475 0.495 2.475 0.495 5 1 C5 2.65 5 4.3 5 6 C4.67 5.34 4.34 4.68 4 4 C3.01 4 2.02 4 1 4 C0.67 2.68 0.34 1.36 0 0 Z " fill="#7C786E" transform="translate(129,44)"/>
<path d="M0 0 C0.99 0.33 1.98 0.66 3 1 C2.34 2.65 1.68 4.3 1 6 C-0.32 5.34 -1.64 4.68 -3 4 C-2.01 2.68 -1.02 1.36 0 0 Z " fill="#818181" transform="translate(151,75)"/>
<path d="M0 0 C0.99 0 1.98 0 3 0 C2.67 2.31 2.34 4.62 2 7 C1.34 7 0.68 7 0 7 C0 4.69 0 2.38 0 0 Z " fill="#0E0E0E" transform="translate(5,72)"/>
<path d="M0 0 C0.99 0.66 1.98 1.32 3 2 C3 2.66 3 3.32 3 4 C2.34 4 1.68 4 1 4 C1.33 4.99 1.66 5.98 2 7 C1.34 7 0.68 7 0 7 C0 6.34 0 5.68 0 5 C-0.66 4.67 -1.32 4.34 -2 4 C-1.34 2.68 -0.68 1.36 0 0 Z " fill="#757575" transform="translate(70,67)"/>
<path d="M0 0 C1.32 0.33 2.64 0.66 4 1 C4 2.32 4 3.64 4 5 C2.68 5 1.36 5 0 5 C0 3.35 0 1.7 0 0 Z " fill="#919191" transform="translate(1,64)"/>
<path d="M0 0 C1.0625 1.875 1.0625 1.875 2 4 C1.67 4.66 1.34 5.32 1 6 C0.01 5.67 -0.98 5.34 -2 5 C-2 5.66 -2 6.32 -2 7 C-2.66 6.67 -3.32 6.34 -4 6 C-3.0022242 3.00667261 -2.2477975 2.05233685 0 0 Z " fill="#767676" transform="translate(76,55)"/>
<path d="M0 0 C0.33 0 0.66 0 1 0 C1 2.31 1 4.62 1 7 C0.01 7 -0.98 7 -2 7 C-1.125 1.125 -1.125 1.125 0 0 Z " fill="#717171" transform="translate(33,51)"/>
<path d="M0 0 C0.99 0.33 1.98 0.66 3 1 C3 1.99 3 2.98 3 4 C1.68 4.33 0.36 4.66 -1 5 C-1.33 3.68 -1.66 2.36 -2 1 C-1.34 0.67 -0.68 0.34 0 0 Z " fill="#63615E" transform="translate(80,45)"/>
</svg>
