<?xml version="1.0" encoding="UTF-8"?>
<svg version="1.1" xmlns="http://www.w3.org/2000/svg" width="160" height="100">
<path d="M0 0 C52.8 0 105.6 0 160 0 C160 33 160 66 160 100 C107.2 100 54.4 100 0 100 C0 67 0 34 0 0 Z " fill="#6D6D6D" transform="translate(0,0)"/>
<path d="M0 0 C52.8 0 105.6 0 160 0 C160 28.71 160 57.42 160 87 C151 85.875 151 85.875 147 85 C147 84.01 147 83.02 147 82 C148.32 81.67 149.64 81.34 151 81 C151 79.68 151 78.36 151 77 C150.505 76.54625 150.01 76.0925 149.5 75.625 C148 74 148 74 147.5625 71 C148 68 148 68 150 66.125 C150.66 65.75375 151.32 65.3825 152 65 C151.84660156 64.35675781 151.69320312 63.71351562 151.53515625 63.05078125 C150.84253326 59.10232463 150.64199119 55.1868113 150.4375 51.1875 C150.39431641 50.39923828 150.35113281 49.61097656 150.30664062 48.79882812 C150.20121679 46.86605785 150.10016906 44.93304974 150 43 C149.34 42.67 148.68 42.34 148 42 C147.87882813 42.56589844 147.75765625 43.13179687 147.6328125 43.71484375 C147.38144531 44.81505859 147.38144531 44.81505859 147.125 45.9375 C146.88136719 47.03384766 146.88136719 47.03384766 146.6328125 48.15234375 C146 50 146 50 144 51 C143.86722656 50.38511719 143.73445312 49.77023438 143.59765625 49.13671875 C143.33275391 47.92435547 143.33275391 47.92435547 143.0625 46.6875 C142.88847656 45.88699219 142.71445313 45.08648437 142.53515625 44.26171875 C142.00113841 41.854599 142.00113841 41.854599 141 39 C139.19588033 41.75924185 138.9872755 42.88972103 139.375 46.25 C139.58125 47.1575 139.7875 48.065 140 49 C139.195625 49.5775 138.39125 50.155 137.5625 50.75 C135.00554916 52.71957757 135.00554916 52.71957757 134.0625 54.8125 C133.93744073 59.18957434 135.30290697 62.94145132 137.6875 66.5625 C139.42002807 69.78005213 139.01766891 71.55558215 138 75 C137.01 75.495 137.01 75.495 136 76 C136.33 77.98 136.66 79.96 137 82 C134.525 82.99 134.525 82.99 132 84 C130.5316954 71.04745583 130.90529221 58.01285012 131 45 C122.7027769 41.75355733 122.7027769 41.75355733 114 40 C114.05800781 38.90300781 114.11601563 37.80601563 114.17578125 36.67578125 C114.22269688 35.22139686 114.26819511 33.76696626 114.3125 32.3125 C114.35439453 31.59126953 114.39628906 30.87003906 114.43945312 30.12695312 C114.53451633 25.96318482 114.34746368 24.44834023 111.69921875 21.03125 C109.06994396 18.76723375 109.06994396 18.76723375 105.5 18.1875 C101.59314039 19.09444955 101.1863534 19.51074478 99.0625 22.6875 C97.33659411 25.87901122 96.33068573 28.31877152 97 32 C97.33 32.33 97.66 32.66 98 33 C98.22594495 43.52257916 98.22594495 43.52257916 94.5625 47.9375 C93.716875 48.618125 92.87125 49.29875 92 50 C90.680982 52.66533035 90.680982 52.66533035 90 55 C86.5625 54.1875 86.5625 54.1875 83 53 C82.67 52.01 82.34 51.02 82 50 C82.495 49.01 82.495 49.01 83 48 C83.43270043 42.40508286 83.38827402 37.1745937 81 32 C77.86128812 30.43064406 75.46144178 30.64798897 72 31 C68.89649551 32.85341334 68.89649551 32.85341334 67 36 C66.30448118 40.03720696 66.70386754 44.11160262 68 48 C66.02 48.66 64.04 49.32 62 50 C61.8453125 50.99 61.8453125 50.99 61.6875 52 C60.80786436 55.83841009 59.43030104 59.33096691 58 63 C56.88997008 59.66991025 57.31483728 58.34016824 58 55 C57.67 54.34 57.34 53.68 57 53 C54.97536745 52.34786708 54.97536745 52.34786708 53 52 C53.22816406 51.40574219 53.45632812 50.81148437 53.69140625 50.19921875 C56.45452197 42.23202859 56.61974065 35.3964389 53.6875 27.4375 C51.82932823 24.75347412 51.12994255 23.84593042 48 23 C43.58416364 22.57944416 41.09787808 22.50945873 37.0625 24.3125 C34.7121049 27.37513603 34.7304931 28.43915385 34.5625 32.1875 C34.27252698 38.59249225 31.76820962 42.010436 28 47 C26.57726421 49.29427924 25.29719523 51.62926388 24 54 C23.46375 54.969375 22.9275 55.93875 22.375 56.9375 C19.74989252 62.7843303 18.36778872 68.5514449 19 75 C20.5469721 77.32045815 21.53895974 77.85510163 24.1875 78.6875 C24.785625 78.790625 25.38375 78.89375 26 79 C27.17571451 82.67410785 27.07366746 86.16929183 27 90 C25.515 90.495 25.515 90.495 24 91 C24 93.97 24 96.94 24 100 C16.08 100 8.16 100 0 100 C0 67 0 34 0 0 Z " fill="#FEB900" transform="translate(0,0)"/>
<path d="M0 0 C2.1244975 3.54082916 2.46508363 6.94991891 3 11 C3.495 11.495 3.495 11.495 4 12 C4.99 9.36 5.98 6.72 7 4 C7.99 4.33 8.98 4.66 10 5 C10.06058594 6.15757813 10.12117188 7.31515625 10.18359375 8.5078125 C10.26805502 10.04688457 10.35270018 11.58594655 10.4375 13.125 C10.47681641 13.88554688 10.51613281 14.64609375 10.55664062 15.4296875 C10.79509002 19.68509203 11.20230237 23.80370826 12 28 C10.68 28.66 9.36 29.32 8 30 C8 32.64 8 35.28 8 38 C9.485 38.495 9.485 38.495 11 39 C10.67 40.32 10.34 41.64 10 43 C8.68 43.33 7.36 43.66 6 44 C6 44.99 6 45.98 6 47 C7.216875 47.144375 8.43375 47.28875 9.6875 47.4375 C12.85641121 47.81347252 15.84877745 48.36975549 19 49 C19 53.29 19 57.58 19 62 C-5.75 62 -30.5 62 -56 62 C-56 56 -56 56 -55 54 C-55.69867188 53.87882812 -56.39734375 53.75765625 -57.1171875 53.6328125 C-58.02726562 53.46523437 -58.93734375 53.29765625 -59.875 53.125 C-60.77992187 52.96257812 -61.68484375 52.80015625 -62.6171875 52.6328125 C-65 52 -65 52 -67 50 C-67 48.68 -67 47.36 -67 46 C-67.66 46 -68.32 46 -69 46 C-69 45.34 -69 44.68 -69 44 C-69.99 44 -70.98 44 -72 44 C-72 43.01 -72 42.02 -72 41 C-72.66 41 -73.32 41 -74 41 C-74 40.34 -74 39.68 -74 39 C-74.66 39 -75.32 39 -76 39 C-76.33 33.06 -76.66 27.12 -77 21 C-73.23931982 21.94017005 -71.77788613 22.49990248 -69 25 C-67.75 27.1875 -67.75 27.1875 -67 29 C-67.99 29 -68.98 29 -70 29 C-70 29.99 -70 30.98 -70 32 C-70.66 32 -71.32 32 -72 32 C-71.505 32.61875 -71.01 33.2375 -70.5 33.875 C-69 36 -69 36 -69 38 C-68.34 38 -67.68 38 -67 38 C-66.87625 37.4225 -66.7525 36.845 -66.625 36.25 C-65.99351176 33.97664233 -65.11141809 32.0746471 -64 30 C-63.01 30.33 -62.02 30.66 -61 31 C-60.78175223 37.0018137 -61.4943096 42.19233704 -63 48 C-62.01 48.66 -61.02 49.32 -60 50 C-60 50.66 -60 51.32 -60 52 C-54.69235173 52.97772468 -49.36891879 53.50130596 -44 54 C-44 52.35 -44 50.7 -44 49 C-44.66 49 -45.32 49 -46 49 C-48.65960145 42.1847713 -48.65960145 36.8152287 -46 30 C-47.32 30 -48.64 30 -50 30 C-49.43454163 26.04179141 -48.19097652 23.3340947 -46 20 C-45.21625 20.33 -44.4325 20.66 -43.625 21 C-41.15667503 22.11866511 -41.15667503 22.11866511 -39 22 C-38.34 21.01 -37.68 20.02 -37 19 C-37.763125 18.236875 -38.52625 17.47375 -39.3125 16.6875 C-41.20833333 14.79166667 -43.10416667 12.89583333 -45 11 C-44.34 11 -43.68 11 -43 11 C-43 10.01 -43 9.02 -43 8 C-42.01 8.33 -41.02 8.66 -40 9 C-40 9.66 -40 10.32 -40 11 C-39.38125 11.391875 -38.7625 11.78375 -38.125 12.1875 C-35.18512515 14.69504032 -34.95061661 17.33333593 -34 21 C-33.34 21.33 -32.68 21.66 -32 22 C-31.5859375 24.28515625 -31.5859375 24.28515625 -31.375 27.0625 C-31.30023438 27.98160156 -31.22546875 28.90070313 -31.1484375 29.84765625 C-31.09945312 30.55792969 -31.05046875 31.26820312 -31 32 C-32.32 32 -33.64 32 -35 32 C-35 31.34 -35 30.68 -35 30 C-37.475 29.01 -37.475 29.01 -40 28 C-39.505 36.415 -39.505 36.415 -39 45 C-37.68 45 -36.36 45 -35 45 C-34.34 45.66 -33.68 46.32 -33 47 C-32.67 45.35 -32.34 43.7 -32 42 C-31.01 42 -30.02 42 -29 42 C-29 41.34 -29 40.68 -29 40 C-30.11375 40.1546875 -30.11375 40.1546875 -31.25 40.3125 C-34 40 -34 40 -36.3125 37.5 C-36.869375 36.675 -37.42625 35.85 -38 35 C-36 34 -36 34 -28 34 C-28 25.09 -28 16.18 -28 7 C-27.01 6.67 -26.02 6.34 -25 6 C-25 4.68 -25 3.36 -25 2 C-20.94545401 2.42679431 -17.52020745 3.51382674 -13.7734375 5.046875 C-12.43031494 5.59359863 -12.43031494 5.59359863 -11.06005859 6.15136719 C-10.38023926 6.43141602 -9.70041992 6.71146484 -9 7 C-9.00785522 8.40693115 -9.00785522 8.40693115 -9.01586914 9.84228516 C-9.03297297 13.34229148 -9.04548027 16.84225299 -9.05493164 20.34228516 C-9.05994162 21.85336002 -9.06675144 23.36443009 -9.07543945 24.87548828 C-9.08765176 27.05502512 -9.09326178 29.23449753 -9.09765625 31.4140625 C-9.10551147 33.37786865 -9.10551147 33.37786865 -9.11352539 35.38134766 C-9.00972117 38.69013513 -8.63432368 41.75595018 -8 45 C-6.68 44.67 -5.36 44.34 -4 44 C-4.66 43.01 -5.32 42.02 -6 41 C-5.625 38.8125 -5.625 38.8125 -5 37 C-4.34 37 -3.68 37 -3 37 C-2.63041978 33.11940768 -2.72067963 31.41447539 -4.9375 28.125 C-7.37401641 24.43330847 -8.54675597 21.44459691 -8 17 C-6.61038262 14.41771888 -5.19698991 13.04371154 -3 11 C-2.34 11 -1.68 11 -1 11 C-1.99 9.515 -1.99 9.515 -3 8 C-2.6169847 5.03163146 -1.40416706 2.62111184 0 0 Z " fill="#8C8C8C" transform="translate(141,38)"/>
<path d="M0 0 C3.35940809 1.34376324 4.6797132 2.54244742 6.75 5.5 C9.64159205 13.59645775 9.66482752 20.24748024 6 28 C5.67 28.66 5.34 29.32 5 30 C6.65 30.33 8.3 30.66 10 31 C11.15941038 34.47823115 10.70820884 36.45895578 10 40 C10.33 40 10.66 40 11 40 C11.495 43.96 11.495 43.96 12 48 C12.66 48 13.32 48 14 48 C14 48.66 14 49.32 14 50 C14.99 50.495 14.99 50.495 16 51 C16.12375 51.928125 16.2475 52.85625 16.375 53.8125 C17.11242357 57.57336023 18.27228075 58.43759707 21 61 C22.1875 63.625 22.1875 63.625 23 66 C23.33 66.66 23.66 67.32 24 68 C19.44423903 68.17865729 16.06375254 68.13594996 12 66 C10.43847656 63.90869141 10.43847656 63.90869141 9.140625 61.3515625 C8.42712891 59.96710938 8.42712891 59.96710938 7.69921875 58.5546875 C7.22097656 57.58789062 6.74273437 56.62109375 6.25 55.625 C5.75628906 54.6659375 5.26257812 53.706875 4.75390625 52.71875 C2.77188017 48.81986034 1.02449175 45.25584321 0 41 C-1.89296376 37.98846674 -2.54491619 37.1516946 -6 36 C-5.71872579 37.48117801 -5.42466268 38.95993249 -5.125 40.4375 C-4.96257813 41.26121094 -4.80015625 42.08492187 -4.6328125 42.93359375 C-4.42398438 43.61550781 -4.21515625 44.29742187 -4 45 C-3.34 45.33 -2.68 45.66 -2 46 C-2.66 47.32 -3.32 48.64 -4 50 C-3.34 50 -2.68 50 -2 50 C-1.87625 50.639375 -1.7525 51.27875 -1.625 51.9375 C-1.41875 52.618125 -1.2125 53.29875 -1 54 C-0.34 54.33 0.32 54.66 1 55 C1.28875 55.78375 1.5775 56.5675 1.875 57.375 C3.13500471 60.31501099 4.33889875 61.31463588 7 63 C6.01 64.65 5.02 66.3 4 68 C4.66 68 5.32 68 6 68 C6 68.66 6 69.32 6 70 C6.99 70.33 7.98 70.66 9 71 C8.505 72.485 8.505 72.485 8 74 C13.28 74.66 18.56 75.32 24 76 C24 76.66 24 77.32 24 78 C8.16 78 -7.68 78 -24 78 C-24 75.03 -24 72.06 -24 69 C-23.01 68.505 -23.01 68.505 -22 68 C-22 64.37 -22 60.74 -22 57 C-22.94875 56.896875 -23.8975 56.79375 -24.875 56.6875 C-28 56 -28 56 -30 53 C-30.99146441 45.39877286 -28.537829 36.36601366 -23.953125 30.28515625 C-23.30859375 29.53105469 -22.6640625 28.77695312 -22 28 C-20.98308736 26.00854609 -19.98357352 24.00812926 -19 22 C-17.948125 20.6696875 -17.948125 20.6696875 -16.875 19.3125 C-14.90965882 15.84039724 -14.77054668 14.31527953 -14.625 10.4375 C-14.39610449 6.70395991 -14.22407472 4.4272484 -11.4375 1.8125 C-6.99011533 -0.53248464 -4.9742799 -0.63165459 0 0 Z " fill="#6A6A6A" transform="translate(48,22)"/>
<path d="M0 0 C3.93887451 0.77370749 5.68507467 1.87257467 8.5 4.6875 C9.98619895 7.65989791 9.63177009 10.38369578 9.625 13.6875 C9.62886719 15.5746875 9.62886719 15.5746875 9.6328125 17.5 C9.5 20.6875 9.5 20.6875 8.5 22.6875 C9.16 22.6875 9.82 22.6875 10.5 22.6875 C10.995 24.6675 10.995 24.6675 11.5 26.6875 C10.18 27.0175 8.86 27.3475 7.5 27.6875 C7.7475 29.04875 7.7475 29.04875 8 30.4375 C9.14422093 38.49608454 8.73349326 46.66979382 7.5 54.6875 C4.86 55.0175 2.22 55.3475 -0.5 55.6875 C1.48512949 58.79955929 1.48512949 58.79955929 4.6875 60.4375 C5.285625 60.52 5.88375 60.6025 6.5 60.6875 C6.5 61.3475 6.5 62.0075 6.5 62.6875 C5.51 62.6875 4.52 62.6875 3.5 62.6875 C3.17 65.9875 2.84 69.2875 2.5 72.6875 C2.17 72.6875 1.84 72.6875 1.5 72.6875 C0.51 69.7175 0.51 69.7175 -0.5 66.6875 C-1.985 67.1825 -1.985 67.1825 -3.5 67.6875 C-5.15497356 64.37755287 -4.60084335 60.69627 -4.5625 57.0625 C-4.55798828 56.26070312 -4.55347656 55.45890625 -4.54882812 54.6328125 C-4.53703168 52.65100994 -4.51909605 50.66924567 -4.5 48.6875 C-2.85 49.3475 -1.2 50.0075 0.5 50.6875 C0.5 51.3475 0.5 52.0075 0.5 52.6875 C1.82 52.6875 3.14 52.6875 4.5 52.6875 C3.50973654 45.60785524 1.74738095 39.53552599 -2.5 33.6875 C-3.49 33.0275 -4.48 32.3675 -5.5 31.6875 C-5.5 31.0275 -5.5 30.3675 -5.5 29.6875 C-6.16 29.3575 -6.82 29.0275 -7.5 28.6875 C-7.83 30.0075 -8.16 31.3275 -8.5 32.6875 C-7.015 33.615625 -7.015 33.615625 -5.5 34.5625 C-4.51 35.26375 -3.52 35.965 -2.5 36.6875 C-2.5 37.3475 -2.5 38.0075 -2.5 38.6875 C-1.84 39.0175 -1.18 39.3475 -0.5 39.6875 C-1.49 41.0075 -2.48 42.3275 -3.5 43.6875 C-8.25 42.8125 -8.25 42.8125 -10.5 41.6875 C-10.83 43.0075 -11.16 44.3275 -11.5 45.6875 C-12.16 45.6875 -12.82 45.6875 -13.5 45.6875 C-13.995 48.1625 -13.995 48.1625 -14.5 50.6875 C-13.18 50.6875 -11.86 50.6875 -10.5 50.6875 C-10.41773332 53.73136724 -10.52391783 55.75925348 -11.5 58.6875 C-11.41478259 60.58702346 -11.26270916 62.48413573 -11.0625 64.375 C-10.96066406 65.36886719 -10.85882813 66.36273438 -10.75390625 67.38671875 C-10.62822266 68.52560547 -10.62822266 68.52560547 -10.5 69.6875 C-9.84 69.6875 -9.18 69.6875 -8.5 69.6875 C-8.5 71.3375 -8.5 72.9875 -8.5 74.6875 C-7.84 75.0175 -7.18 75.3475 -6.5 75.6875 C-11.71979128 75.8674928 -15.57262981 75.65844808 -20.5 73.6875 C-20.5 73.0275 -20.5 72.3675 -20.5 71.6875 C-21.49 71.6875 -22.48 71.6875 -23.5 71.6875 C-23.69412181 70.20918779 -23.88012131 68.72980684 -24.0625 67.25 C-24.16691406 66.42628906 -24.27132812 65.60257812 -24.37890625 64.75390625 C-24.41886719 64.07199219 -24.45882812 63.39007813 -24.5 62.6875 C-24.005 62.1925 -24.005 62.1925 -23.5 61.6875 C-23.42738667 58.35182524 -23.50391343 55.02717891 -23.5625 51.69140625 C-23.5 48.6875 -23.5 48.6875 -22.5 46.6875 C-20.85 47.0175 -19.2 47.3475 -17.5 47.6875 C-17.17 50.9875 -16.84 54.2875 -16.5 57.6875 C-16.54640625 56.3365625 -16.5928125 54.985625 -16.640625 53.59375 C-16.67816794 51.79168894 -16.71456538 49.98960375 -16.75 48.1875 C-16.78351563 47.300625 -16.81703125 46.41375 -16.8515625 45.5 C-16.93882714 39.56600415 -16.30615755 34.46072322 -12.5 29.6875 C-10.36035156 28.47070312 -10.36035156 28.47070312 -8.5 27.6875 C-8.83 26.6975 -9.16 25.7075 -9.5 24.6875 C-9.34375 22.4609375 -9.34375 22.4609375 -9 20.0625 C-8.79307644 18.60933224 -8.61658874 17.15068863 -8.5 15.6875 C-8.83 15.3575 -9.16 15.0275 -9.5 14.6875 C-9.29615351 9.59133765 -8.12079689 5.99027115 -5.0234375 2.015625 C-3.5 0.6875 -3.5 0.6875 0 0 Z " fill="#646464" transform="translate(105.5,17.3125)"/>
<path d="M0 0 C3 1.375 3 1.375 5 3 C5 3.66 5 4.32 5 5 C-1.625 7.875 -1.625 7.875 -5 9 C-5 10.65 -5 12.3 -5 14 C-5.66 14 -6.32 14 -7 14 C-7 15.98 -7 17.96 -7 20 C-8.32 20.33 -9.64 20.66 -11 21 C-10.731875 22.051875 -10.46375 23.10375 -10.1875 24.1875 C-10 28 -10 28 -12.125 30.4375 C-13.548125 31.7059375 -13.548125 31.7059375 -15 33 C-19.89179891 38.61699821 -20.49397118 43.31060815 -20.17578125 50.65625 C-20.08876953 51.81640625 -20.08876953 51.81640625 -20 53 C-17.69 53 -15.38 53 -13 53 C-12.67 53.99 -12.34 54.98 -12 56 C-10.515 56.495 -10.515 56.495 -9 57 C-7.4921875 58.4609375 -7.4921875 58.4609375 -5.875 60.375 C-5.27300781 61.0865625 -4.67101562 61.798125 -4.05078125 62.53125 C-3.37402344 63.3459375 -2.69726562 64.160625 -2 65 C-1.18917969 65.9590625 -0.37835938 66.918125 0.45703125 67.90625 C7 75.73720472 7 75.73720472 7 78 C-3.23 78 -13.46 78 -24 78 C-24 75.03 -24 72.06 -24 69 C-23.01 68.505 -23.01 68.505 -22 68 C-22 64.37 -22 60.74 -22 57 C-22.94875 56.896875 -23.8975 56.79375 -24.875 56.6875 C-28 56 -28 56 -30 53 C-30.99146441 45.39877286 -28.537829 36.36601366 -23.953125 30.28515625 C-23.30859375 29.53105469 -22.6640625 28.77695312 -22 28 C-20.98308736 26.00854609 -19.98357352 24.00812926 -19 22 C-17.948125 20.6696875 -17.948125 20.6696875 -16.875 19.3125 C-14.90965882 15.84039724 -14.77054668 14.31527953 -14.625 10.4375 C-14.39610449 6.70395991 -14.22407472 4.4272484 -11.4375 1.8125 C-6.99011533 -0.53248464 -4.9742799 -0.63165459 0 0 Z " fill="#515151" transform="translate(48,22)"/>
<path d="M0 0 C2.1244975 3.54082916 2.46508363 6.94991891 3 11 C3.33 11.33 3.66 11.66 4 12 C4.99 9.36 5.98 6.72 7 4 C7.99 4.33 8.98 4.66 10 5 C10.06058594 6.15757813 10.12117188 7.31515625 10.18359375 8.5078125 C10.26805502 10.04688457 10.35270018 11.58594655 10.4375 13.125 C10.47681641 13.88554688 10.51613281 14.64609375 10.55664062 15.4296875 C10.79509002 19.68509203 11.20230237 23.80370826 12 28 C10.02 28.99 10.02 28.99 8 30 C8 32.64 8 35.28 8 38 C9.485 38.495 9.485 38.495 11 39 C10.67 40.32 10.34 41.64 10 43 C8.02 43.495 8.02 43.495 6 44 C6 44.99 6 45.98 6 47 C7.216875 47.144375 8.43375 47.28875 9.6875 47.4375 C12.85641121 47.81347252 15.84877745 48.36975549 19 49 C19 53.29 19 57.58 19 62 C15.47911436 62.0271069 11.95843996 62.04689102 8.4375 62.0625 C7.44685547 62.07087891 6.45621094 62.07925781 5.43554688 62.08789062 C0.17451301 62.10536914 -4.81764665 61.92308398 -10 61 C-10 60.34 -10 59.68 -10 59 C-11.65 58.34 -13.3 57.68 -15 57 C-15 56.01 -15 55.02 -15 54 C-15.66 54 -16.32 54 -17 54 C-16.8125 52.125 -16.8125 52.125 -16 50 C-12.62176024 48.12320013 -9.82367701 47.78150417 -6 48 C-5.67 49.65 -5.34 51.3 -5 53 C-7.475 53.495 -7.475 53.495 -10 54 C-8.68 54.66 -7.36 55.32 -6 56 C-5.67 55.34 -5.34 54.68 -5 54 C-4.67 55.32 -4.34 56.64 -4 58 C-3.34 56.02 -2.68 54.04 -2 52 C-0.68 52 0.64 52 2 52 C2 52.99 2 53.98 2 55 C1.01 55 0.02 55 -1 55 C-0.67 55.66 -0.34 56.32 0 57 C1.485 57.495 1.485 57.495 3 58 C3 58.99 3 59.98 3 61 C3.99 60.505 3.99 60.505 5 60 C4.67 57.03 4.34 54.06 4 51 C0.535 50.505 0.535 50.505 -3 50 C-3 49.34 -3 48.68 -3 48 C-2.01 47.505 -2.01 47.505 -1 47 C-1.33 45.68 -1.66 44.36 -2 43 C1.465 42.505 1.465 42.505 5 42 C5 40.35 5 38.7 5 37 C4.34 37 3.68 37 3 37 C3 37.99 3 38.98 3 40 C0.6875 40.625 0.6875 40.625 -2 41 C-2.99 40.34 -3.98 39.68 -5 39 C-3.515 38.505 -3.515 38.505 -2 38 C-1.67 37.34 -1.34 36.68 -1 36 C-0.01 36.66 0.98 37.32 2 38 C2 37.34 2 36.68 2 36 C0.515 35.505 0.515 35.505 -1 35 C-1 34.34 -1 33.68 -1 33 C-0.01 33 0.98 33 2 33 C2 32.34 2 31.68 2 31 C1.443125 30.7525 0.88625 30.505 0.3125 30.25 C-6.35676626 26.64499121 -6.35676626 26.64499121 -7.71484375 23.171875 C-8.33171977 20.09336989 -8.51874123 17.96424841 -7.00390625 15.1484375 C-5.6875 13.5 -5.6875 13.5 -3 11 C-2.34 11 -1.68 11 -1 11 C-1.66 10.01 -2.32 9.02 -3 8 C-2.6169847 5.03163146 -1.40416706 2.62111184 0 0 Z " fill="#666666" transform="translate(141,38)"/>
<path d="M0 0 C6.11098427 0.6432615 9.82344341 2.52937737 16 5 C16 17.87 16 30.74 16 44 C3.625 47.375 3.625 47.375 -1 47 C-1.33 44.69 -1.66 42.38 -2 40 C-2.66 40 -3.32 40 -4 40 C-4 39.34 -4 38.68 -4 38 C-5.11375 38.1546875 -5.11375 38.1546875 -6.25 38.3125 C-9 38 -9 38 -11.3125 35.5 C-11.869375 34.675 -12.42625 33.85 -13 33 C-11 32 -11 32 -3 32 C-3 23.09 -3 14.18 -3 5 C-2.01 4.67 -1.02 4.34 0 4 C0 2.68 0 1.36 0 0 Z " fill="#828282" transform="translate(116,40)"/>
<path d="M0 0 C0.66 0.99 1.32 1.98 2 3 C1.34 4.32 0.68 5.64 0 7 C0.99 7.61875 1.98 8.2375 3 8.875 C3.99 9.57625 4.98 10.2775 6 11 C6 11.66 6 12.32 6 13 C6.66 13.33 7.32 13.66 8 14 C7.01 15.32 6.02 16.64 5 18 C0.25 17.125 0.25 17.125 -2 16 C-2.33 17.32 -2.66 18.64 -3 20 C-3.66 20 -4.32 20 -5 20 C-5.33 21.65 -5.66 23.3 -6 25 C-4.68 25 -3.36 25 -2 25 C-1.91773332 28.04386724 -2.02391783 30.07175348 -3 33 C-2.91478259 34.89952346 -2.76270916 36.79663573 -2.5625 38.6875 C-2.46066406 39.68136719 -2.35882813 40.67523438 -2.25390625 41.69921875 C-2.17011719 42.45847656 -2.08632812 43.21773437 -2 44 C-1.34 44 -0.68 44 0 44 C0 45.65 0 47.3 0 49 C0.66 49.33 1.32 49.66 2 50 C-3.21979128 50.1799928 -7.07262981 49.97094808 -12 48 C-12 47.34 -12 46.68 -12 46 C-12.99 46 -13.98 46 -15 46 C-15.19412181 44.52168779 -15.38012131 43.04230684 -15.5625 41.5625 C-15.71912109 40.32693359 -15.71912109 40.32693359 -15.87890625 39.06640625 C-15.91886719 38.38449219 -15.95882812 37.70257813 -16 37 C-15.505 36.505 -15.505 36.505 -15 36 C-14.92738667 32.66432524 -15.00391343 29.33967891 -15.0625 26.00390625 C-15 23 -15 23 -14 21 C-12.35 21.33 -10.7 21.66 -9 22 C-8.67 25.3 -8.34 28.6 -8 32 C-8.04640625 30.6490625 -8.0928125 29.298125 -8.140625 27.90625 C-8.17816794 26.10418894 -8.21456538 24.30210375 -8.25 22.5 C-8.28351563 21.613125 -8.31703125 20.72625 -8.3515625 19.8125 C-8.43882714 13.87850415 -7.80615755 8.77322322 -4 4 C-1.86035156 2.78320312 -1.86035156 2.78320312 0 2 C0 1.34 0 0.68 0 0 Z " fill="#4C4C4B" transform="translate(97,43)"/>
<path d="M0 0 C3 1.375 3 1.375 5 3 C5 3.66 5 4.32 5 5 C-1.625 7.875 -1.625 7.875 -5 9 C-5 10.65 -5 12.3 -5 14 C-5.66 14 -6.32 14 -7 14 C-7 15.98 -7 17.96 -7 20 C-8.32 20.33 -9.64 20.66 -11 21 C-10.731875 22.051875 -10.46375 23.10375 -10.1875 24.1875 C-10 28 -10 28 -12.125 30.4375 C-13.548125 31.7059375 -13.548125 31.7059375 -15 33 C-19.24880838 38.2357837 -20.66944863 43.00909749 -21.34765625 49.6796875 C-22 52 -22 52 -24.05859375 53.3203125 C-24.69925781 53.54460937 -25.33992188 53.76890625 -26 54 C-28.09000634 47.72998099 -27.39317231 41.03991107 -25 35 C-24.154375 34.195625 -23.30875 33.39125 -22.4375 32.5625 C-19.63364619 29.61485882 -19.55182427 27.92633211 -19.30859375 23.9609375 C-19 22 -19 22 -17 19.1875 C-14.84102319 15.74663071 -14.76202225 14.37952473 -14.625 10.4375 C-14.39610449 6.70395991 -14.22407472 4.4272484 -11.4375 1.8125 C-6.99011533 -0.53248464 -4.9742799 -0.63165459 0 0 Z " fill="#262623" transform="translate(48,22)"/>
<path d="M0 0 C3.0483248 0.32660623 4.00507689 1.00522194 6.1875 3.25 C8 6 8 6 8.328125 8.12890625 C9.32129415 12.37297211 11.46104765 15.89330044 13.5625 19.6875 C14.40082088 21.21021638 15.23563938 22.73486791 16.06640625 24.26171875 C16.43709229 24.93162842 16.80777832 25.60153809 17.18969727 26.29174805 C18 28 18 28 18 30 C21.06241127 30.64625456 24.12494467 31.29192853 27.1875 31.9375 C28.05181641 32.11990234 28.91613281 32.30230469 29.80664062 32.49023438 C33.86744081 33.34595855 37.92794314 34.19907784 42 35 C41.67 37.31 41.34 39.62 41 42 C37.37 42 33.74 42 30 42 C30 41.34 30 40.68 30 40 C29.27554688 40.02320313 28.55109375 40.04640625 27.8046875 40.0703125 C22.45421756 40.17018794 18.00553918 40.16455748 13 38 C13.33 37.01 13.66 36.02 14 35 C13.34 34.67 12.68 34.34 12 34 C12 33.34 12 32.68 12 32 C11.34 32 10.68 32 10 32 C10.875 28.125 10.875 28.125 12 27 C11.21625 26.236875 10.4325 25.47375 9.625 24.6875 C7.20555765 22.21045188 5.47318088 20.00550938 4 16.875 C3.14139842 14.82955462 3.14139842 14.82955462 1 14 C1.20625 13.4225 1.4125 12.845 1.625 12.25 C2.22745702 9.99540491 2.22745702 9.99540491 1.0625 8.125 C-0.33114623 5.33770754 -0.13966449 3.07261886 0 0 Z " fill="#808080" transform="translate(42,58)"/>
<path d="M0 0 C3.20147995 2.35898522 4.27031858 4.17949823 5 8 C5.5065127 13.99048679 5.39302212 17.91046681 2 23 C1.74863967 26.20916171 1.74863967 26.20916171 2 29 C1.67 28.34 1.34 27.68 1 27 C-1.088639 26.32624548 -2.80363095 26 -5 26 C-4.67 27.32 -4.34 28.64 -4 30 C-5.1725131 29.04882866 -6.33787015 28.08882991 -7.5 27.125 C-8.1496875 26.59132813 -8.799375 26.05765625 -9.46875 25.5078125 C-9.9740625 25.01023437 -10.479375 24.51265625 -11 24 C-11 23.34 -11 22.68 -11 22 C-12.65 22.66 -14.3 23.32 -16 24 C-15.67 22.35 -15.34 20.7 -15 19 C-14.01 18.67 -13.02 18.34 -12 18 C-12.2475 17.2575 -12.2475 17.2575 -12.5 16.5 C-13.53865779 11.30671106 -13.98012914 7.53553566 -11.125 3.0625 C-7.5289631 -0.42777111 -4.95645076 -0.42728024 0 0 Z " fill="#646361" transform="translate(79,30)"/>
<path d="M0 0 C3.25523142 3.25523142 3.44257923 7.54063386 4 12 C3.67294618 16.2516996 2.43137951 19.99213737 1 24 C-2.66666667 24 -6.33333333 24 -10 24 C-9.67 24.66 -9.34 25.32 -9 26 C-10.9375 25.3125 -10.9375 25.3125 -13 24 C-13.75 21.375 -13.75 21.375 -14 19 C-14.66 19 -15.32 19 -16 19 C-16 18.34 -16 17.68 -16 17 C-14.68 16.67 -13.36 16.34 -12 16 C-12 14.02 -12 12.04 -12 10 C-11.34 10 -10.68 10 -10 10 C-10.0825 9.236875 -10.165 8.47375 -10.25 7.6875 C-10 5 -10 5 -8.375 3.3125 C-5.66142562 1.81289311 -2.96877282 0.87713742 0 0 Z " fill="#666666" transform="translate(53,26)"/>
<path d="M0 0 C3 1.5 3 1.5 6 3 C6 3.66 6 4.32 6 5 C5.01 5 4.02 5 3 5 C3.495 5.45375 3.99 5.9075 4.5 6.375 C6 8 6 8 6 10 C4.68 10 3.36 10 2 10 C1.01 10.495 1.01 10.495 0 11 C2.31 11.33 4.62 11.66 7 12 C7 11.01 7 10.02 7 9 C7.66 9 8.32 9 9 9 C9.495 11.475 9.495 11.475 10 14 C7.69 14.66 5.38 15.32 3 16 C3 17.32 3 18.64 3 20 C2.34 20 1.68 20 1 20 C1 20.66 1 21.32 1 22 C3.31 22.33 5.62 22.66 8 23 C8.66 26.3 9.32 29.6 10 33 C9.01 33 8.02 33 7 33 C7 32.01 7 31.02 7 30 C5.68 29.67 4.36 29.34 3 29 C3 28.34 3 27.68 3 27 C3.99 27 4.98 27 6 27 C6 26.01 6 25.02 6 24 C4.04105639 24.11306697 4.04105639 24.11306697 2 25 C0.70339566 27.49034386 0.70339566 27.49034386 0 30 C-2.48448024 28.75775988 -4.67054766 27.55296823 -7 26 C-6 25 -6 25 -3.4375 24.9375 C-2.2309375 24.9684375 -2.2309375 24.9684375 -1 25 C-1.495 22.525 -1.495 22.525 -2 20 C-3.46184058 20.22860058 -4.91955419 20.48370392 -6.375 20.75 C-7.18710938 20.88921875 -7.99921875 21.0284375 -8.8359375 21.171875 C-11.17709092 21.81749261 -11.17709092 21.81749261 -12.2890625 24.078125 C-12.52367188 24.71234375 -12.75828125 25.3465625 -13 26 C-12.34 26 -11.68 26 -11 26 C-10.67 26.99 -10.34 27.98 -10 29 C-7.99983534 30.20882096 -7.99983534 30.20882096 -6 31 C-6 31.66 -6 32.32 -6 33 C-3.69 33 -1.38 33 1 33 C1 33.33 1 33.66 1 34 C-3.29 34 -7.58 34 -12 34 C-12.33 31.69 -12.66 29.38 -13 27 C-13.66 27 -14.32 27 -15 27 C-15 26.34 -15 25.68 -15 25 C-18.96 24.67 -22.92 24.34 -27 24 C-27.33 23.01 -27.66 22.02 -28 21 C-27.34 21 -26.68 21 -26 21 C-26.33 18.69 -26.66 16.38 -27 14 C-25.68 14 -24.36 14 -23 14 C-22.67 16.31 -22.34 18.62 -22 21 C-19.08318736 20.35482025 -16.16654627 19.7088818 -13.25 19.0625 C-12.425 18.88009766 -11.6 18.69769531 -10.75 18.50976562 C-9.95078125 18.33251953 -9.1515625 18.15527344 -8.328125 17.97265625 C-7.22839355 17.72914429 -7.22839355 17.72914429 -6.10644531 17.48071289 C-4.06338247 17.01446454 -2.03106238 16.51579351 0 16 C-0.66 15.01 -1.32 14.02 -2 13 C-1.625 10.8125 -1.625 10.8125 -1 9 C-0.34 9 0.32 9 1 9 C1.07427838 5.65747276 1.06546953 3.1964086 0 0 Z " fill="#A1A1A0" transform="translate(137,66)"/>
<path d="M0 0 C1.65 0 3.3 0 5 0 C6.80411967 2.75924185 7.0127245 3.88972103 6.625 7.25 C6.41875 8.1575 6.2125 9.065 6 10 C6.33 10 6.66 10 7 10 C7.33 12.64 7.66 15.28 8 18 C8.66 18 9.32 18 10 18 C10 18.66 10 19.32 10 20 C10.66 20.33 11.32 20.66 12 21 C12.12375 21.928125 12.2475 22.85625 12.375 23.8125 C13.11242357 27.57336023 14.27228075 28.43759707 17 31 C18.1875 33.625 18.1875 33.625 19 36 C19.33 36.66 19.66 37.32 20 38 C11.73857257 38.32397755 11.73857257 38.32397755 8 36 C4.64881367 30.91790966 3.0792411 26.30196052 1.875 20.375 C0.89195762 15.72789057 -0.0893392 11.37399207 -2 7 C-2.33 6.01 -2.66 5.02 -3 4 C-2.34 3.67 -1.68 3.34 -1 3 C-0.67 2.01 -0.34 1.02 0 0 Z " fill="#494846" transform="translate(52,52)"/>
<path d="M0 0 C0.99 0.33 1.98 0.66 3 1 C4.63093943 9.97016685 4.38276529 19.01202562 3 28 C-0.96 28.495 -0.96 28.495 -5 29 C-3.01487051 32.11205929 -3.01487051 32.11205929 0.1875 33.75 C0.785625 33.8325 1.38375 33.915 2 34 C2 34.66 2 35.32 2 36 C1.01 36 0.02 36 -1 36 C-1.33 39.3 -1.66 42.6 -2 46 C-2.33 46 -2.66 46 -3 46 C-3.66 44.02 -4.32 42.04 -5 40 C-6.485 40.495 -6.485 40.495 -8 41 C-9.65497356 37.69005287 -9.10084335 34.00877 -9.0625 30.375 C-9.05798828 29.57320312 -9.05347656 28.77140625 -9.04882812 27.9453125 C-9.03703168 25.96350994 -9.01909605 23.98174567 -9 22 C-6.525 22.99 -6.525 22.99 -4 24 C-4 24.66 -4 25.32 -4 26 C-2.68 26 -1.36 26 0 26 C-0.99026346 18.92035524 -2.75261905 12.84802599 -7 7 C-7.99 6.34 -8.98 5.68 -10 5 C-9.34 4.34 -8.68 3.68 -8 3 C-5.375 3.375 -5.375 3.375 -3 4 C-2.01 2.68 -1.02 1.36 0 0 Z " fill="#575757" transform="translate(110,44)"/>
<path d="M0 0 C0.99 0.33 1.98 0.66 3 1 C3 1.66 3 2.32 3 3 C3.928125 3.5878125 3.928125 3.5878125 4.875 4.1875 C7.81487485 6.69504032 8.04938339 9.33333593 9 13 C9.66 13.33 10.32 13.66 11 14 C11.4140625 16.28515625 11.4140625 16.28515625 11.625 19.0625 C11.69976562 19.98160156 11.77453125 20.90070313 11.8515625 21.84765625 C11.90054688 22.55792969 11.94953125 23.26820312 12 24 C10.68 24 9.36 24 8 24 C8 23.34 8 22.68 8 22 C5.525 21.01 5.525 21.01 3 20 C3 23.63 3 27.26 3 31 C1.35 30.67 -0.3 30.34 -2 30 C-1.67 33.63 -1.34 37.26 -1 41 C-1.66 41 -2.32 41 -3 41 C-5.65960145 34.1847713 -5.65960145 28.8152287 -3 22 C-4.32 22 -5.64 22 -7 22 C-6.43454163 18.04179141 -5.19097652 15.3340947 -3 12 C-2.21625 12.33 -1.4325 12.66 -0.625 13 C1.84332497 14.11866511 1.84332497 14.11866511 4 14 C4.66 13.01 5.32 12.02 6 11 C5.236875 10.236875 4.47375 9.47375 3.6875 8.6875 C1.79166667 6.79166667 -0.10416667 4.89583333 -2 3 C-1.34 3 -0.68 3 0 3 C0 2.01 0 1.02 0 0 Z " fill="#7E7E7E" transform="translate(98,46)"/>
<path d="M0 0 C1.5078125 1.4609375 1.5078125 1.4609375 3.125 3.375 C3.72699219 4.0865625 4.32898438 4.798125 4.94921875 5.53125 C5.62597656 6.3459375 6.30273438 7.160625 7 8 C7.81082031 8.9590625 8.62164062 9.918125 9.45703125 10.90625 C16 18.73720472 16 18.73720472 16 21 C12.04 21 8.08 21 4 21 C4 20.34 4 19.68 4 19 C3.34 19 2.68 19 2 19 C2 17.68 2 16.36 2 15 C-0.31 15 -2.62 15 -5 15 C-3.70700306 12.11562221 -2.34058637 10.12780579 0 8 C-1.0725 8.350625 -2.145 8.70125 -3.25 9.0625 C-7.92307692 10.23076923 -7.92307692 10.23076923 -11 9 C-9.6875 7.5 -9.6875 7.5 -8 6 C-7.01 6 -6.02 6 -5 6 C-5 5.34 -5 4.68 -5 4 C-6.98 4 -8.96 4 -11 4 C-11 3.01 -11 2.02 -11 1 C-3.375 -1.125 -3.375 -1.125 0 0 Z " fill="#282828" transform="translate(39,79)"/>
<path d="M0 0 C0.33 0 0.66 0 1 0 C1.33 2.31 1.66 4.62 2 7 C1.34 7 0.68 7 0 7 C0.33 7.66 0.66 8.32 1 9 C3.80980673 9.69227032 3.80980673 9.69227032 7.0625 10.125 C8.16722656 10.29257813 9.27195312 10.46015625 10.41015625 10.6328125 C11.26480469 10.75398438 12.11945313 10.87515625 13 11 C13 11.66 13 12.32 13 13 C13.66 13 14.32 13 15 13 C15.33 15.31 15.66 17.62 16 20 C12.93654856 20.10822792 9.8769399 20.18741479 6.8125 20.25 C5.94818359 20.28351563 5.08386719 20.31703125 4.19335938 20.3515625 C0.07017409 20.41475308 -2.41618916 20.31244148 -6.109375 18.3359375 C-8 16 -8 16 -8.41015625 13.2734375 C-8.29542969 12.31695312 -8.18070312 11.36046875 -8.0625 10.375 C-7.92521484 8.93253906 -7.92521484 8.93253906 -7.78515625 7.4609375 C-7 5 -7 5 -4.93359375 3.6640625 C-4.29550781 3.44492188 -3.65742187 3.22578125 -3 3 C-2.34 3.66 -1.68 4.32 -1 5 C-0.67 3.35 -0.34 1.7 0 0 Z " fill="#808080" transform="translate(109,80)"/>
<path d="M0 0 C5.2584002 0.67415387 10.02638346 2.24265549 15 4 C14.01 4.495 14.01 4.495 13 5 C12.62243192 6.32148827 12.2981424 7.65835921 12 9 C11.3530635 10.6744239 10.69040574 12.34302621 10 14 C9.34 14 8.68 14 8 14 C7.01 15.485 7.01 15.485 6 17 C5.34 17 4.68 17 4 17 C3.731875 17.9075 3.46375 18.815 3.1875 19.75 C2.10423706 22.71471963 1.01640543 24.6169754 -1 27 C-2.61780157 25.38219843 -2.22272147 23.54364482 -2.31640625 21.30859375 C-2.37924805 19.89223633 -2.37924805 19.89223633 -2.44335938 18.44726562 C-2.50233398 16.95743164 -2.50233398 16.95743164 -2.5625 15.4375 C-2.60568359 14.44041016 -2.64886719 13.44332031 -2.69335938 12.41601562 C-2.79980298 9.9441585 -2.90181928 7.4721969 -3 5 C-2.01 4.67 -1.02 4.34 0 4 C0 2.68 0 1.36 0 0 Z " fill="#989896" transform="translate(116,40)"/>
<path d="M0 0 C3.76068018 0.94017005 5.22211387 1.49990248 8 4 C9.25 6.1875 9.25 6.1875 10 8 C9.01 8 8.02 8 7 8 C7 8.99 7 9.98 7 11 C6.34 11 5.68 11 5 11 C5.7425 11.928125 5.7425 11.928125 6.5 12.875 C8 15 8 15 8 17 C8.66 17 9.32 17 10 17 C10.12375 16.4225 10.2475 15.845 10.375 15.25 C11.00648824 12.97664233 11.88858191 11.0746471 13 9 C13.99 9.33 14.98 9.66 16 10 C16.38614349 16.8218683 15.00865708 22.49577707 13 29 C12.01 29 11.02 29 10 29 C10 27.68 10 26.36 10 25 C9.34 25 8.68 25 8 25 C8 24.34 8 23.68 8 23 C7.01 23 6.02 23 5 23 C5 22.01 5 21.02 5 20 C4.34 20 3.68 20 3 20 C3 19.34 3 18.68 3 18 C2.34 18 1.68 18 1 18 C0.67 12.06 0.34 6.12 0 0 Z " fill="#727272" transform="translate(64,59)"/>
<path d="M0 0 C2.1244975 3.54082916 2.46508363 6.94991891 3 11 C3.33 11.33 3.66 11.66 4 12 C4.99 9.36 5.98 6.72 7 4 C7.99 4.33 8.98 4.66 10 5 C10.33 11.6 10.66 18.2 11 25 C10.34 25.33 9.68 25.66 9 26 C8.34 23.69 7.68 21.38 7 19 C6.34 19 5.68 19 5 19 C5.350625 19.886875 5.70125 20.77375 6.0625 21.6875 C7.01755602 25.06203126 6.97151132 26.69686152 6 30 C4.35 29.67 2.7 29.34 1 29 C0.67 26.03 0.34 23.06 0 20 C0.66 19.67 1.32 19.34 2 19 C0.35 18.01 -1.3 17.02 -3 16 C-2.814375 14.9275 -2.62875 13.855 -2.4375 12.75 C-1.77967052 9.2369897 -1.77967052 9.2369897 -2.625 6.875 C-3 5 -3 5 -1.5625 2.25 C-1.046875 1.5075 -0.53125 0.765 0 0 Z " fill="#7E7B72" transform="translate(141,38)"/>
<path d="M0 0 C0.8125 3.1875 0.8125 3.1875 1 7 C-1.125 9.4375 -1.125 9.4375 -4 12 C-8.24880838 17.2357837 -9.66944863 22.00909749 -10.34765625 28.6796875 C-11 31 -11 31 -13.05859375 32.3203125 C-13.69925781 32.54460937 -14.33992188 32.76890625 -15 33 C-17.09000634 26.72998099 -16.39317231 20.03991107 -14 14 C-12.7315625 12.7625 -12.7315625 12.7625 -11.4375 11.5 C-8.6537523 9.13979969 -8.6537523 9.13979969 -8.5 5.375 C-8 2 -8 2 -5.625 0 C-3 -1 -3 -1 0 0 Z " fill="#1B1B1B" transform="translate(37,43)"/>
<path d="M0 0 C1.65 0.33 3.3 0.66 5 1 C5.18451025 10.41002278 5.18451025 10.41002278 4 15 C4.66 15 5.32 15 6 15 C6.33 14.34 6.66 13.68 7 13 C7.50559908 14.43554025 8.0042749 15.8735202 8.5 17.3125 C8.7784375 18.11300781 9.056875 18.91351563 9.34375 19.73828125 C10 22 10 22 10 25 C10.66 25 11.32 25 12 25 C12 25.99 12 26.98 12 28 C11.34 28 10.68 28 10 28 C10 27.34 10 26.68 10 26 C9.34 26 8.68 26 8 26 C8 26.66 8 27.32 8 28 C6.02 27.67 4.04 27.34 2 27 C2 26.34 2 25.68 2 25 C1.01 25 0.02 25 -1 25 C-1.19412181 23.52168779 -1.38012131 22.04230684 -1.5625 20.5625 C-1.66691406 19.73878906 -1.77132812 18.91507813 -1.87890625 18.06640625 C-1.91886719 17.38449219 -1.95882812 16.70257813 -2 16 C-1.67 15.67 -1.34 15.34 -1 15 C-0.92738667 11.66432524 -1.00391343 8.33967891 -1.0625 5.00390625 C-1 2 -1 2 0 0 Z " fill="#272727" transform="translate(83,64)"/>
<path d="M0 0 C-0.33 1.65 -0.66 3.3 -1 5 C1.475 5.99 1.475 5.99 4 7 C3.67 7.66 3.34 8.32 3 9 C2.34 9 1.68 9 1 9 C1.66 11.64 2.32 14.28 3 17 C4.32 17 5.64 17 7 17 C6.67 14.03 6.34 11.06 6 8 C6.66 8 7.32 8 8 8 C8.45375 8.928125 8.9075 9.85625 9.375 10.8125 C10.9421633 14.03921389 10.9421633 14.03921389 13 17 C12.195625 17.391875 11.39125 17.78375 10.5625 18.1875 C7.76935262 19.76948191 7.76935262 19.76948191 7.1875 22.6875 C7.125625 23.450625 7.06375 24.21375 7 25 C5.02 25 3.04 25 1 25 C0.67 24.01 0.34 23.02 0 22 C0.99 22 1.98 22 3 22 C3 21.34 3 20.68 3 20 C2.443125 19.7525 1.88625 19.505 1.3125 19.25 C-5.35676626 15.64499121 -5.35676626 15.64499121 -6.71484375 12.171875 C-7.33171977 9.09336989 -7.51874123 6.96424841 -6.00390625 4.1484375 C-2.6910545 0 -2.6910545 0 0 0 Z " fill="#555454" transform="translate(140,49)"/>
<path d="M0 0 C0.433125 0.9590625 0.433125 0.9590625 0.875 1.9375 C1.82823451 4.15206079 1.82823451 4.15206079 4 5 C3.67 4.34 3.34 3.68 3 3 C8.94 3.99 8.94 3.99 15 5 C14.67 7.31 14.34 9.62 14 12 C13.01 11.67 12.02 11.34 11 11 C11.44859375 11.67933594 11.8971875 12.35867187 12.359375 13.05859375 C14.18880511 16.33850059 15.21586368 19.45459903 16.25 23.0625 C16.78367187 24.87427734 16.78367187 24.87427734 17.328125 26.72265625 C17.94578645 29.73555133 18.09294801 31.19056312 17 34 C16.040062 31.93824636 15.08211576 29.87556531 14.125 27.8125 C13.32449219 26.08966797 13.32449219 26.08966797 12.5078125 24.33203125 C11.58971291 22.30317386 10.70818683 20.25654666 9.89453125 18.18359375 C8.92105514 15.80729181 7.99582108 14.59665687 6 13 C5.01 12.67 4.02 12.34 3 12 C2 10.33333333 1 8.66666667 0 7 C-0.99 6.67 -1.98 6.34 -3 6 C-2.01 5.67 -1.02 5.34 0 5 C0 3.35 0 1.7 0 0 Z " fill="#605F5E" transform="translate(38,45)"/>
<path d="M0 0 C3.0483248 0.32660623 4.00507689 1.00522194 6.1875 3.25 C8 6 8 6 8.421875 8.28515625 C9.12841127 11.60301239 10.4866151 14.18847554 12.0625 17.1875 C15 22.79294118 15 22.79294118 15 25 C13.35 25.33 11.7 25.66 10 26 C7.58564367 23.04046643 5.63956306 20.40703874 4.0625 16.9375 C3.15020819 14.83793327 3.15020819 14.83793327 1 14 C1.20625 13.4225 1.4125 12.845 1.625 12.25 C2.22745702 9.99540491 2.22745702 9.99540491 1.0625 8.125 C-0.33114623 5.33770754 -0.13966449 3.07261886 0 0 Z " fill="#8E8E8E" transform="translate(42,58)"/>
<path d="M0 0 C0 5.28 0 10.56 0 16 C-2.64 16.66 -5.28 17.32 -8 18 C-8.33 15.69 -8.66 13.38 -9 11 C-11.31 10.67 -13.62 10.34 -16 10 C-16 8.35 -16 6.7 -16 5 C-14.989375 4.9175 -13.97875 4.835 -12.9375 4.75 C-8.23985395 4.11027991 -4.41425684 0 0 0 Z " fill="#545454" transform="translate(132,68)"/>
<path d="M0 0 C0.99 0 1.98 0 3 0 C3 6.93 3 13.86 3 21 C0.03 21.66 -2.94 22.32 -6 23 C-7.35113205 23.97581759 -8.68946944 24.97029741 -10 26 C-12.75 26.1875 -12.75 26.1875 -15 26 C-12 24 -12 24 -9.375 22.6875 C-6.75435532 21.2077843 -6.75435532 21.2077843 -6.3125 18.375 C-6.209375 17.59125 -6.10625 16.8075 -6 16 C-5.34 15.67 -4.68 15.34 -4 15 C-4.33 14.34 -4.66 13.68 -5 13 C-5.06996014 11.29297265 -5.08440154 9.58331997 -5.0625 7.875 C-5.05347656 6.96492188 -5.04445313 6.05484375 -5.03515625 5.1171875 C-5.02355469 4.41851562 -5.01195313 3.71984375 -5 3 C-4.01 4.485 -4.01 4.485 -3 6 C-2.01 4.02 -1.02 2.04 0 0 Z " fill="#87806F" transform="translate(129,45)"/>
<path d="M0 0 C0.33 1.65 0.66 3.3 1 5 C-0.65 5.33 -2.3 5.66 -4 6 C-2.68 6.66 -1.36 7.32 0 8 C0.33 7.34 0.66 6.68 1 6 C1.33 7.32 1.66 8.64 2 10 C2.66 8.02 3.32 6.04 4 4 C5.32 4 6.64 4 8 4 C8 4.99 8 5.98 8 7 C7.01 7 6.02 7 5 7 C5.33 7.66 5.66 8.32 6 9 C6.99 9.33 7.98 9.66 9 10 C9 11.32 9 12.64 9 14 C4.71 13.67 0.42 13.34 -4 13 C-4 12.34 -4 11.68 -4 11 C-6.475 10.01 -6.475 10.01 -9 9 C-9 8.01 -9 7.02 -9 6 C-9.66 6 -10.32 6 -11 6 C-10.8125 4.125 -10.8125 4.125 -10 2 C-6.62176024 0.12320013 -3.82367701 -0.21849583 0 0 Z " fill="#6A6A6A" transform="translate(135,86)"/>
<path d="M0 0 C0.33 0 0.66 0 1 0 C1.33 2.31 1.66 4.62 2 7 C2.99 7.33 3.98 7.66 5 8 C4.67 9.32 4.34 10.64 4 12 C2.68 12.33 1.36 12.66 0 13 C0 14.32 0 15.64 0 17 C2.31 17.33 4.62 17.66 7 18 C6.67 19.32 6.34 20.64 6 22 C1.05 21.01 -3.9 20.02 -9 19 C-9 18.34 -9 17.68 -9 17 C-8.34 16.67 -7.68 16.34 -7 16 C-7.33 14.68 -7.66 13.36 -8 12 C-4.535 11.505 -4.535 11.505 -1 11 C-1 9.35 -1 7.7 -1 6 C-1.66 6 -2.32 6 -3 6 C-3 6.99 -3 7.98 -3 9 C-5.3125 9.625 -5.3125 9.625 -8 10 C-8.99 9.34 -9.98 8.68 -11 8 C-10.01 7.67 -9.02 7.34 -8 7 C-7.67 6.34 -7.34 5.68 -7 5 C-6.01 5.66 -5.02 6.32 -4 7 C-3.67 5.68 -3.34 4.36 -3 3 C-3 3.66 -3 4.32 -3 5 C-2.34 4.67 -1.68 4.34 -1 4 C-0.34786708 1.97536745 -0.34786708 1.97536745 0 0 Z " fill="#6F6F6F" transform="translate(147,69)"/>
<path d="M0 0 C2.64 1.32 5.28 2.64 8 4 C8.33 10.6 8.66 17.2 9 24 C8.34 24.33 7.68 24.66 7 25 C7 21.37 7 17.74 7 14 C5.35 13.67 3.7 13.34 2 13 C1.67 14.65 1.34 16.3 1 18 C-2 16 -2 16 -3 13 C-3.66 12.67 -4.32 12.34 -5 12 C-4.67 10.35 -4.34 8.7 -4 7 C-2.02 7.495 -2.02 7.495 0 8 C-0.185625 7.05125 -0.37125 6.1025 -0.5625 5.125 C-1 2 -1 2 0 0 Z " fill="#817963" transform="translate(81,51)"/>
<path d="M0 0 C0.33 0 0.66 0 1 0 C1.33 2.64 1.66 5.28 2 8 C2.66 8 3.32 8 4 8 C4 8.66 4 9.32 4 10 C4.66 10.33 5.32 10.66 6 11 C6.12375 11.928125 6.2475 12.85625 6.375 13.8125 C7.11242357 17.57336023 8.27228075 18.43759707 11 21 C12.1875 23.625 12.1875 23.625 13 26 C13.33 26.66 13.66 27.32 14 28 C9.4932782 28.17673419 6.03374456 28.13551182 2 26 C-0.02650376 21.94699249 0.25487777 16.90240137 -0.125 12.4375 C-0.22425781 11.35791016 -0.32351562 10.27832031 -0.42578125 9.16601562 C-0.51472656 8.14056641 -0.60367188 7.11511719 -0.6953125 6.05859375 C-0.77797363 5.11298584 -0.86063477 4.16737793 -0.94580078 3.19311523 C-0.96368652 2.46938721 -0.98157227 1.74565918 -1 1 C-0.67 0.67 -0.34 0.34 0 0 Z " fill="#1E1E1E" transform="translate(58,62)"/>
<path d="M0 0 C1.00289062 0.10183594 2.00578125 0.20367187 3.0390625 0.30859375 C3.80992188 0.39238281 4.58078125 0.47617188 5.375 0.5625 C5.375 2.2125 5.375 3.8625 5.375 5.5625 C8.015 5.5625 10.655 5.5625 13.375 5.5625 C13.375 8.2025 13.375 10.8425 13.375 13.5625 C8.92 14.0575 8.92 14.0575 4.375 14.5625 C4.045 12.2525 3.715 9.9425 3.375 7.5625 C2.715 7.5625 2.055 7.5625 1.375 7.5625 C1.375 6.9025 1.375 6.2425 1.375 5.5625 C0.6325 5.665625 -0.11 5.76875 -0.875 5.875 C-3.625 5.5625 -3.625 5.5625 -5.9375 3.0625 C-6.494375 2.2375 -7.05125 1.4125 -7.625 0.5625 C-4.89657939 -0.80171031 -3.01546682 -0.31557211 0 0 Z " fill="#818181" transform="translate(110.625,72.4375)"/>
<path d="M0 0 C0.33 0 0.66 0 1 0 C1.32644414 4.16216275 1.40650982 6.36313462 -0.875 9.9375 C-3 12 -3 12 -5 12 C-4.979375 12.969375 -4.95875 13.93875 -4.9375 14.9375 C-5 18 -5 18 -6 19 C-6.07244053 21.01964199 -6.08377188 23.04167124 -6.0625 25.0625 C-6.04896484 26.71958984 -6.04896484 26.71958984 -6.03515625 28.41015625 C-6.02355469 29.26480469 -6.01195312 30.11945313 -6 31 C-2.68539295 29.29107501 -2.68539295 29.29107501 -2.3125 25.875 C-2.209375 24.92625 -2.10625 23.9775 -2 23 C-0.5393715 25.64738916 0 26.89448334 0 30 C2.31 30 4.62 30 7 30 C5 33 5 33 1.875 33.6875 C0.451875 33.8421875 0.451875 33.8421875 -1 34 C-1.33 35.32 -1.66 36.64 -2 38 C-2 36.68 -2 35.36 -2 34 C-2.94875 33.896875 -3.8975 33.79375 -4.875 33.6875 C-8 33 -8 33 -10 30 C-10.99193983 22.39512801 -8.53845151 13.3509483 -3.9375 7.27734375 C-3.298125 6.52582031 -2.65875 5.77429687 -2 5 C-0.75983331 2.3205355 -0.75983331 2.3205355 0 0 Z " fill="#6C6349" transform="translate(28,45)"/>
<path d="M0 0 C3.33501802 0.27791817 4.7252218 0.72873174 7.140625 3.11328125 C9.4250583 6.65991194 9.53612493 8.80950788 9.5 13 C9.5103125 14.19625 9.520625 15.3925 9.53125 16.625 C8.91916508 20.51353948 7.68454662 22.18761783 5 25 C3.68 24.67 2.36 24.34 1 24 C1.66 24 2.32 24 3 24 C2.67 23.01 2.34 22.02 2 21 C2.33 20.34 2.66 19.68 3 19 C3.66 19 4.32 19 5 19 C5 19.66 5 20.32 5 21 C5.66 21 6.32 21 7 21 C6.01 19.35 5.02 17.7 4 16 C4.99 16 5.98 16 7 16 C6.21534984 13.86117944 6.21534984 13.86117944 4.3125 13.375 C1.51555886 12.92144198 -1.17141997 12.93571409 -4 13 C-2.875 10.125 -2.875 10.125 -1 7 C2.1875 5.625 2.1875 5.625 5 5 C3.35 3.35 1.7 1.7 0 0 Z " fill="#666562" transform="translate(106,18)"/>
<path d="M0 0 C1.32 0 2.64 0 4 0 C4.33 2.31 4.66 4.62 5 7 C11.435 6.505 11.435 6.505 18 6 C17.01 6.99 16.02 7.98 15 9 C14.67 9.99 14.34 10.98 14 12 C14.66 12 15.32 12 16 12 C16.33 12.99 16.66 13.98 17 15 C19.00016466 16.20882096 19.00016466 16.20882096 21 17 C21 17.66 21 18.32 21 19 C23.31 19 25.62 19 28 19 C28 19.33 28 19.66 28 20 C23.71 20 19.42 20 15 20 C14.67 17.69 14.34 15.38 14 13 C13.34 13 12.68 13 12 13 C12 12.34 12 11.68 12 11 C8.04 10.67 4.08 10.34 0 10 C-0.33 9.01 -0.66 8.02 -1 7 C-0.34 7 0.32 7 1 7 C0.67 4.69 0.34 2.38 0 0 Z " fill="#CDCDCD" transform="translate(110,80)"/>
<path d="M0 0 C0.33 0.99 0.66 1.98 1 3 C1.66 3 2.32 3 3 3 C3 4.98 3 6.96 3 9 C3.99 9 4.98 9 6 9 C6 11.97 6 14.94 6 18 C6.66 18 7.32 18 8 18 C8 18.66 8 19.32 8 20 C8.66 20 9.32 20 10 20 C10 20.99 10 21.98 10 23 C10.99 23 11.98 23 13 23 C13 23.66 13 24.32 13 25 C13.66 25 14.32 25 15 25 C15.12375 25.763125 15.2475 26.52625 15.375 27.3125 C17.7223273 31.19461823 20.63193166 31.42971619 24.8828125 32.51953125 C25.58148438 32.67808594 26.28015625 32.83664063 27 33 C26.67 35.64 26.34 38.28 26 41 C25.34 41 24.68 41 24 41 C24.33 38.69 24.66 36.38 25 34 C23.80375 33.855625 22.6075 33.71125 21.375 33.5625 C17.8994842 33.12960657 14.45049966 32.60383744 11 32 C11 31.01 11 30.02 11 29 C9.19130295 24.02328797 9.19130295 24.02328797 5.875 20 C3.26429996 17.21525329 3.28598015 14.7177419 3 11 C2.34 11 1.68 11 1 11 C0.63743142 9.5437328 0.28520207 8.08488815 -0.0625 6.625 C-0.35833984 5.40683594 -0.35833984 5.40683594 -0.66015625 4.1640625 C-1 2 -1 2 0 0 Z " fill="#505050" transform="translate(59,59)"/>
<path d="M0 0 C0.66 0.99 1.32 1.98 2 3 C1.34 4.32 0.68 5.64 0 7 C0.99 7.61875 1.98 8.2375 3 8.875 C3.99 9.57625 4.98 10.2775 6 11 C6 11.66 6 12.32 6 13 C6.66 13.33 7.32 13.66 8 14 C7.01 15.32 6.02 16.64 5 18 C0.25 17.125 0.25 17.125 -2 16 C-2.33 17.32 -2.66 18.64 -3 20 C-3.66 20 -4.32 20 -5 20 C-5.33 20.99 -5.66 21.98 -6 23 C-7 21 -7 21 -6.0625 17.875 C-5.711875 16.92625 -5.36125 15.9775 -5 15 C-4.34 15 -3.68 15 -3 15 C-3 13.02 -3 11.04 -3 9 C-3.66 9 -4.32 9 -5 9 C-5.66 10.98 -6.32 12.96 -7 15 C-8 12 -8 12 -7.36328125 10.02734375 C-7.01652344 9.33769531 -6.66976562 8.64804687 -6.3125 7.9375 C-5.97863281 7.24527344 -5.64476563 6.55304687 -5.30078125 5.83984375 C-3.77706755 3.68468113 -2.41756599 2.98229523 0 2 C0 1.34 0 0.68 0 0 Z " fill="#666666" transform="translate(97,43)"/>
<path d="M0 0 C2 2 2 2 2.9375 5.3125 C3.78981777 8.9572171 3.78981777 8.9572171 5.6875 11.5625 C7.42002807 14.78005213 7.01766891 16.55558215 6 20 C5.34 20.33 4.68 20.66 4 21 C4.33 22.98 4.66 24.96 5 27 C3.35 27.66 1.7 28.32 0 29 C-2.00769231 6.77197802 -2.00769231 6.77197802 0 0 Z " fill="#F5B405" transform="translate(132,55)"/>
<path d="M0 0 C3.95820859 0.56545837 6.6659053 1.80902348 10 4 C9.67 4.66 9.34 5.32 9 6 C7.5459375 6.1546875 7.5459375 6.1546875 6.0625 6.3125 C4.5465625 6.6528125 4.5465625 6.6528125 3 7 C1.76709799 9.45704762 1.76709799 9.45704762 1 12 C0.01 12.33 -0.98 12.66 -2 13 C-2 13.99 -2 14.98 -2 16 C-3.32 15.34 -4.64 14.68 -6 14 C-5.62257767 7.83543524 -3.84129692 4.82624485 0 0 Z " fill="#504D44" transform="translate(102,18)"/>
<path d="M0 0 C3 1 3 1 4 3 C4.99 3.33 5.98 3.66 7 4 C7 4.66 7 5.32 7 6 C8.0725 5.690625 9.145 5.38125 10.25 5.0625 C12.82866222 4.33187904 15.39512102 3.62517096 18 3 C18.33 4.32 18.66 5.64 19 7 C17.35 7.33 15.7 7.66 14 8 C13.67 8.99 13.34 9.98 13 11 C12.67 10.01 12.34 9.02 12 8 C11.608125 8.66 11.21625 9.32 10.8125 10 C9 12 9 12 6.3125 12.25 C5.549375 12.1675 4.78625 12.085 4 12 C4 11.34 4 10.68 4 10 C2.68 9.34 1.36 8.68 0 8 C0 7.34 0 6.68 0 6 C-0.66 5.67 -1.32 5.34 -2 5 C-1.34 3.35 -0.68 1.7 0 0 Z " fill="#464646" transform="translate(98,37)"/>
<path d="M0 0 C1.65 0.33 3.3 0.66 5 1 C6.07586122 6.43679488 5.92067058 11.46661961 5.64453125 16.9765625 C6.07657071 20.65127178 7.1726616 21.72257614 10 24 C6.5625 23.1875 6.5625 23.1875 3 22 C2.67 21.01 2.34 20.02 2 19 C1.01 18.67 0.02 18.34 -1 18 C0.65 18 2.3 18 4 18 C4 17.34 4 16.68 4 16 C3.01 16 2.02 16 1 16 C0.08342019 10.61509359 -0.11138159 5.45769811 0 0 Z " fill="#AEAEAE" transform="translate(96,76)"/>
<path d="M0 0 C0.66 0.33 1.32 0.66 2 1 C2 1.66 2 2.32 2 3 C2.66 3 3.32 3 4 3 C4.99 4.485 4.99 4.485 6 6 C6.99 6.33 7.98 6.66 9 7 C10.25 8.875 10.25 8.875 11 11 C10.67 11.99 10.34 12.98 10 14 C10 13.34 10 12.68 10 12 C7.92446352 11.4465236 6.15634036 11 4 11 C4.33 12.32 4.66 13.64 5 15 C3.8274869 14.04882866 2.66212985 13.08882991 1.5 12.125 C0.8503125 11.59132813 0.200625 11.05765625 -0.46875 10.5078125 C-0.9740625 10.01023437 -1.479375 9.51265625 -2 9 C-2 8.34 -2 7.68 -2 7 C-3.65 7.66 -5.3 8.32 -7 9 C-6.8125 6.625 -6.8125 6.625 -6 4 C-3.5 2.8125 -3.5 2.8125 -1 2 C-0.67 1.34 -0.34 0.68 0 0 Z " fill="#424240" transform="translate(70,45)"/>
<path d="M0 0 C2.33294775 -0.04241723 4.66702567 -0.04092937 7 0 C8.81115956 1.81115956 8.38199448 4.61278227 8.5625 7.0625 C8.64628906 8.16722656 8.73007813 9.27195312 8.81640625 10.41015625 C8.87699219 11.26480469 8.93757813 12.11945313 9 13 C7.35 12.67 5.7 12.34 4 12 C4.33 15.63 4.66 19.26 5 23 C4.34 23 3.68 23 3 23 C0.34039855 16.1847713 0.34039855 10.8152287 3 4 C1.68 4 0.36 4 -1 4 C-0.67 2.68 -0.34 1.36 0 0 Z " fill="#8A8A8A" transform="translate(92,64)"/>
<path d="M0 0 C1.65 0.33 3.3 0.66 5 1 C4.67 1.66 4.34 2.32 4 3 C3.01 3 2.02 3 1 3 C1.309375 4.010625 1.61875 5.02125 1.9375 6.0625 C2.97624231 9.67615283 3.50753003 13.27129883 4 17 C4.20625 17.680625 4.4125 18.36125 4.625 19.0625 C5.16350132 21.8447568 4.56224588 24.25124238 4 27 C3.34 27 2.68 27 2 27 C2 26.34 2 25.68 2 25 C1.01 25 0.02 25 -1 25 C-1.19412181 23.52168779 -1.38012131 22.04230684 -1.5625 20.5625 C-1.66691406 19.73878906 -1.77132812 18.91507813 -1.87890625 18.06640625 C-1.91886719 17.38449219 -1.95882812 16.70257813 -2 16 C-1.67 15.67 -1.34 15.34 -1 15 C-0.92738667 11.66432524 -1.00391343 8.33967891 -1.0625 5.00390625 C-1 2 -1 2 0 0 Z " fill="#373737" transform="translate(83,64)"/>
<path d="M0 0 C0.99 0.33 1.98 0.66 3 1 C1.51898226 4.11013725 0.06105725 6.91795432 -2 9.6875 C-5.74147729 15.88432176 -8.01441251 23.75419637 -7 31 C-5.14283813 33.90809543 -5.14283813 33.90809543 -3 36 C-6.96 35.505 -6.96 35.505 -11 35 C-11 25.68827162 -9.82499505 17.04165842 -5 9 C-4.34 9 -3.68 9 -3 9 C-2.86722656 8.43410156 -2.73445313 7.86820313 -2.59765625 7.28515625 C-2.42105469 6.55167969 -2.24445312 5.81820312 -2.0625 5.0625 C-1.88847656 4.33160156 -1.71445312 3.60070313 -1.53515625 2.84765625 C-1 1 -1 1 0 0 Z " fill="#BF931C" transform="translate(26,44)"/>
<path d="M0 0 C3 1 3 1 4.0625 3 C4.371875 3.66 4.68125 4.32 5 5 C5.66 5.33 6.32 5.66 7 6 C7.02698189 7.62490954 7.04638757 9.24994633 7.0625 10.875 C7.07410156 11.77992187 7.08570312 12.68484375 7.09765625 13.6171875 C7 16 7 16 6 18 C5.9310528 19.37342831 5.91532292 20.75002102 5.9375 22.125 C5.958125 23.40375 5.97875 24.6825 6 26 C6.99 26.33 7.98 26.66 9 27 C5 27 5 27 2.625 25.5625 C1 23 1 23 1.1953125 21.01171875 C1.57446041 19.46575649 1.98213963 17.92658708 2.4140625 16.39453125 C3.27784903 12.86452364 3.13161841 9.61950638 3 6 C1.68 5.67 0.36 5.34 -1 5 C-0.67 3.35 -0.34 1.7 0 0 Z " fill="#515151" transform="translate(76,63)"/>
<path d="M0 0 C0 1.32 0 2.64 0 4 C-1.32 4 -2.64 4 -4 4 C-4 4.99 -4 5.98 -4 7 C-3.01 6.67 -2.02 6.34 -1 6 C-0.25 8.1875 -0.25 8.1875 0 11 C-1.9375 13.8125 -1.9375 13.8125 -4 16 C-4 15.01 -4 14.02 -4 13 C-4.9590625 12.8453125 -4.9590625 12.8453125 -5.9375 12.6875 C-6.618125 12.460625 -7.29875 12.23375 -8 12 C-8.33 11.01 -8.66 10.02 -9 9 C-9.66 9 -10.32 9 -11 9 C-10.67 8.34 -10.34 7.68 -10 7 C-8.68 7 -7.36 7 -6 7 C-6.33 6.34 -6.66 5.68 -7 5 C-8.65 5 -10.3 5 -12 5 C-11.34 4.67 -10.68 4.34 -10 4 C-10 3.34 -10 2.68 -10 2 C-6.49223216 0.39644899 -3.85645121 -0.22036864 0 0 Z " fill="#575755" transform="translate(83,39)"/>
<path d="M0 0 C4.28904235 1.5885342 6.32345526 4.43127368 9 8 C9 8.66 9 9.32 9 10 C5.04 10 1.08 10 -3 10 C-3 9.34 -3 8.68 -3 8 C-3.66 8 -4.32 8 -5 8 C-5 7.01 -5 6.02 -5 5 C-4.34 5 -3.68 5 -3 5 C-2.5359375 4.0409375 -2.5359375 4.0409375 -2.0625 3.0625 C-1 1 -1 1 0 0 Z " fill="#272727" transform="translate(46,90)"/>
<path d="M0 0 C0.99 0.33 1.98 0.66 3 1 C3.33 5.62 3.66 10.24 4 15 C3.34 15 2.68 15 2 15 C1.67 16.32 1.34 17.64 1 19 C-1.15305957 15.14243493 -2.39253254 12.44870215 -2 8 C-2.99 7.67 -3.98 7.34 -5 7 C-5 5 -5 5 -2.5 2.375 C-1.675 1.59125 -0.85 0.8075 0 0 Z " fill="#6B6B6B" transform="translate(110,44)"/>
<path d="M0 0 C0.66 0 1.32 0 2 0 C2 1.32 2 2.64 2 4 C2.66 4 3.32 4 4 4 C4 4.66 4 5.32 4 6 C4.99 6.33 5.98 6.66 7 7 C6.67 7.99 6.34 8.98 6 10 C11.28 10.66 16.56 11.32 22 12 C22 12.66 22 13.32 22 14 C6.73776329 15.22369827 6.73776329 15.22369827 2.5703125 12.2890625 C1.08255067 10.23876386 -0.02540851 8.33339693 -1 6 C-1.33 5.34 -1.66 4.68 -2 4 C-1.0625 1.875 -1.0625 1.875 0 0 Z " fill="#595959" transform="translate(50,86)"/>
<path d="M0 0 C0.99 0.33 1.98 0.66 3 1 C3 1.66 3 2.32 3 3 C3.928125 3.5878125 3.928125 3.5878125 4.875 4.1875 C7.81487485 6.69504032 8.04938339 9.33333593 9 13 C9.66 13.33 10.32 13.66 11 14 C11 16.31 11 18.62 11 21 C9.68 21 8.36 21 7 21 C5.9375 19.375 5.9375 19.375 5 17 C5.226875 16.030625 5.45375 15.06125 5.6875 14.0625 C5.8421875 12.5465625 5.8421875 12.5465625 6 11 C3.81268079 8.22930256 3.81268079 8.22930256 1 6 C0 5 -1 4 -2 3 C-1.34 3 -0.68 3 0 3 C0 2.01 0 1.02 0 0 Z " fill="#909090" transform="translate(98,46)"/>
<path d="M0 0 C0.33 0 0.66 0 1 0 C1.33 2.31 1.66 4.62 2 7 C1.34 7 0.68 7 0 7 C1.25541557 9.51083114 2.50063488 9.87125446 5 11 C3.68 11 2.36 11 1 11 C1 11.66 1 12.32 1 13 C-0.98 13.33 -2.96 13.66 -5 14 C-5.33 13.01 -5.66 12.02 -6 11 C-6 12.32 -6 13.64 -6 15 C-5.34 15.33 -4.68 15.66 -4 16 C-4.99 16.33 -5.98 16.66 -7 17 C-8.55347992 12.85738687 -7.88763731 9.23334718 -7 5 C-4.9375 3.5 -4.9375 3.5 -3 3 C-2.34 3.66 -1.68 4.32 -1 5 C-0.67 3.35 -0.34 1.7 0 0 Z " fill="#919191" transform="translate(109,80)"/>
<path d="M0 0 C0.99 0.33 1.98 0.66 3 1 C3.125 8.625 3.125 8.625 2 12 C-0.0625 12.6875 -0.0625 12.6875 -2 13 C-2.33 12.34 -2.66 11.68 -3 11 C-5.52733235 10.34444881 -5.52733235 10.34444881 -8 10 C-8 9.34 -8 8.68 -8 8 C-8.66 8 -9.32 8 -10 8 C-9.34 6.68 -8.68 5.36 -8 4 C-7.01 4.66 -6.02 5.32 -5 6 C-5 6.66 -5 7.32 -5 8 C-4.34 8 -3.68 8 -3 8 C-2.87625 7.4225 -2.7525 6.845 -2.625 6.25 C-1.99351176 3.97664233 -1.11141809 2.0746471 0 0 Z " fill="#8E8E8E" transform="translate(77,68)"/>
<path d="M0 0 C0.99 0.33 1.98 0.66 3 1 C3.33 7.6 3.66 14.2 4 21 C3.34 21.33 2.68 21.66 2 22 C1.71125 20.865625 1.4225 19.73125 1.125 18.5625 C0.75375 17.386875 0.3825 16.21125 0 15 C-0.66 14.67 -1.32 14.34 -2 14 C-2.1799928 8.78020872 -1.97094808 4.92737019 0 0 Z " fill="#62625F" transform="translate(148,42)"/>
<path d="M0 0 C0.33 0.66 0.66 1.32 1 2 C0.67 2.99 0.34 3.98 0 5 C0.99 5.66 1.98 6.32 3 7 C2.77192509 8.79458945 2.51677697 10.58575449 2.25 12.375 C2.11078125 13.37273437 1.9715625 14.37046875 1.828125 15.3984375 C1 18 1 18 -1.078125 19.3515625 C-1.71234375 19.56554687 -2.3465625 19.77953125 -3 20 C-5.13205298 13.60384107 -4.26786441 7.1736309 -2 1 C-1.34 0.67 -0.68 0.34 0 0 Z " fill="#252525" transform="translate(25,56)"/>
<path d="M0 0 C0 0.99 0 1.98 0 3 C-1.65 3 -3.3 3 -5 3 C-5.309375 4.258125 -5.61875 5.51625 -5.9375 6.8125 C-6.53978048 9.26177394 -7.20088641 11.60265923 -8 14 C-8.99 13.67 -9.98 13.34 -11 13 C-11.49029622 5.76813075 -11.49029622 5.76813075 -9.125 2.0625 C-5.75381443 -1.20953306 -4.44249032 -1.05216876 0 0 Z " fill="#3A3834" transform="translate(77,31)"/>
<path d="M0 0 C1.1875 2.0625 1.1875 2.0625 2 4 C0.59447701 5.03612271 -0.82491694 6.05344925 -2.25 7.0625 C-3.03890625 7.63097656 -3.8278125 8.19945313 -4.640625 8.78515625 C-7 10 -7 10 -9.296875 9.68359375 C-9.85890625 9.45800781 -10.4209375 9.23242188 -11 9 C-9.6875 7.5 -9.6875 7.5 -8 6 C-7.01 6 -6.02 6 -5 6 C-5 5.34 -5 4.68 -5 4 C-6.98 4 -8.96 4 -11 4 C-11 3.01 -11 2.02 -11 1 C-3.375 -1.125 -3.375 -1.125 0 0 Z " fill="#2F2F2F" transform="translate(39,79)"/>
<path d="M0 0 C2.97443882 3.8626959 4.58388053 7.08585042 5.625 11.875 C4.76008505 16.19957473 2.60593758 17.8669195 -0.75390625 20.5859375 C-3.94508103 22.59499015 -6.26181205 22.92212108 -10 23 C-7 21 -7 21 -4.375 19.6875 C-1.75435532 18.2077843 -1.75435532 18.2077843 -1.3125 15.375 C-1.209375 14.59125 -1.10625 13.8075 -1 13 C-0.34 12.67 0.32 12.34 1 12 C0.67 11.34 0.34 10.68 0 10 C-0.06996014 8.29297265 -0.08440154 6.58331997 -0.0625 4.875 C-0.05347656 3.96492188 -0.04445313 3.05484375 -0.03515625 2.1171875 C-0.02355469 1.41851562 -0.01195313 0.71984375 0 0 Z " fill="#555555" transform="translate(124,48)"/>
<path d="M0 0 C2.64 0.33 5.28 0.66 8 1 C8 2.32 8 3.64 8 5 C8.66 5 9.32 5 10 5 C10 5.66 10 6.32 10 7 C5.05 7 0.1 7 -5 7 C-4.67 6.01 -4.34 5.02 -4 4 C-3.34 4 -2.68 4 -2 4 C-1.34 2.68 -0.68 1.36 0 0 Z " fill="#3D3D3D" transform="translate(33,93)"/>
<path d="M0 0 C0.33 0 0.66 0 1 0 C1.33 2.31 1.66 4.62 2 7 C2.99 7.33 3.98 7.66 5 8 C4.6875 9.9375 4.6875 9.9375 4 12 C3.01 12.33 2.02 12.66 1 13 C-1 11 -1 11 -1.125 8.375 C-1.08375 7.59125 -1.0425 6.8075 -1 6 C-1.66 6 -2.32 6 -3 6 C-3 6.99 -3 7.98 -3 9 C-5.3125 9.625 -5.3125 9.625 -8 10 C-8.99 9.34 -9.98 8.68 -11 8 C-10.01 7.67 -9.02 7.34 -8 7 C-7.67 6.34 -7.34 5.68 -7 5 C-6.01 5.66 -5.02 6.32 -4 7 C-3.67 5.68 -3.34 4.36 -3 3 C-3 3.66 -3 4.32 -3 5 C-2.34 4.67 -1.68 4.34 -1 4 C-0.34786708 1.97536745 -0.34786708 1.97536745 0 0 Z " fill="#8C8980" transform="translate(147,69)"/>
<path d="M0 0 C2 1 4 2 6 3 C6 3.66 6 4.32 6 5 C5.01 5 4.02 5 3 5 C3.495 5.45375 3.99 5.9075 4.5 6.375 C6 8 6 8 6 10 C4.68 10 3.36 10 2 10 C1.01 10.495 1.01 10.495 0 11 C2.31 11.33 4.62 11.66 7 12 C7 11.01 7 10.02 7 9 C7.66 9 8.32 9 9 9 C9.38218767 10.65614657 9.71395102 12.32457024 10 14 C7.82881288 16.17118712 3.95643659 15.99407528 1 16 C-1.0625 14.8125 -1.0625 14.8125 -2 13 C-1.6875 10.8125 -1.6875 10.8125 -1 9 C-0.34 9 0.32 9 1 9 C1.07427838 5.65747276 1.06546953 3.1964086 0 0 Z " fill="#8E8A7F" transform="translate(137,66)"/>
<path d="M0 0 C0.33 0 0.66 0 1 0 C1.32644414 4.16216275 1.40650982 6.36313462 -0.875 9.9375 C-3 12 -3 12 -5 12 C-4.979375 12.969375 -4.95875 13.93875 -4.9375 14.9375 C-5 18 -5 18 -6 19 C-6.07258946 21.18639453 -6.08373783 23.37500389 -6.0625 25.5625 C-6.05347656 26.76003906 -6.04445313 27.95757812 -6.03515625 29.19140625 C-6.02355469 30.11824219 -6.01195313 31.04507813 -6 32 C-6.66 31.67 -7.32 31.34 -8 31 C-8.73526733 14.17054768 -8.73526733 14.17054768 -4 7 C-3.443125 6.05125 -2.88625 5.1025 -2.3125 4.125 C-1.6628125 3.073125 -1.6628125 3.073125 -1 2 C-0.67 1.34 -0.34 0.68 0 0 Z " fill="#574F3B" transform="translate(28,45)"/>
<path d="M0 0 C3.36652717 0.60116557 5.45627333 1.71064599 8 4 C9.25 6.1875 9.25 6.1875 10 8 C9.01 8 8.02 8 7 8 C7 8.99 7 9.98 7 11 C2.25 10.25 2.25 10.25 0 8 C-0.26991906 5.31160615 -0.08737357 2.70858064 0 0 Z " fill="#8C8C8C" transform="translate(64,59)"/>
<path d="M0 0 C2.01822917 0.06510417 4.03645833 0.13020833 6.0546875 0.1953125 C5.7246875 1.5153125 5.3946875 2.8353125 5.0546875 4.1953125 C5.7146875 4.1953125 6.3746875 4.1953125 7.0546875 4.1953125 C7.3846875 5.1853125 7.7146875 6.1753125 8.0546875 7.1953125 C10.05485216 8.40413346 10.05485216 8.40413346 12.0546875 9.1953125 C12.0546875 9.8553125 12.0546875 10.5153125 12.0546875 11.1953125 C14.3646875 11.1953125 16.6746875 11.1953125 19.0546875 11.1953125 C19.0546875 11.5253125 19.0546875 11.8553125 19.0546875 12.1953125 C14.7646875 12.1953125 10.4746875 12.1953125 6.0546875 12.1953125 C5.7246875 9.8853125 5.3946875 7.5753125 5.0546875 5.1953125 C4.3946875 5.1953125 3.7346875 5.1953125 3.0546875 5.1953125 C3.0546875 4.5353125 3.0546875 3.8753125 3.0546875 3.1953125 C0.7446875 2.8653125 -1.5653125 2.5353125 -3.9453125 2.1953125 C-1.9453125 0.1953125 -1.9453125 0.1953125 0 0 Z " fill="#B9B9B9" transform="translate(118.9453125,87.8046875)"/>
<path d="M0 0 C0.66 0.33 1.32 0.66 2 1 C1.67 1.99 1.34 2.98 1 4 C2.65 3.34 4.3 2.68 6 2 C8.475 5.465 8.475 5.465 11 9 C6.82206651 10.3926445 4.88532354 8.7987609 1 7 C0.67 7 0.34 7 0 7 C0.165 7.515625 0.33 8.03125 0.5 8.5625 C1.15049 11.73363876 1.0620734 14.77218334 1 18 C0.67 18 0.34 18 0 18 C0 16.02 0 14.04 0 12 C-0.66 12 -1.32 12 -2 12 C-3.12377697 8.69564916 -2.89554742 6.9493138 -1.5625 3.75 C-1.27503906 3.04359375 -0.98757812 2.3371875 -0.69140625 1.609375 C-0.46324219 1.07828125 -0.23507813 0.5471875 0 0 Z " fill="#676767" transform="translate(62,50)"/>
<path d="M0 0 C3.81210679 1.70887546 6.29675571 3.32436854 7.94921875 7.26171875 C8.31466797 8.46248047 8.31466797 8.46248047 8.6875 9.6875 C9.06455078 10.89986328 9.06455078 10.89986328 9.44921875 12.13671875 C9.63097656 12.75160156 9.81273438 13.36648437 10 14 C10.33 13.34 10.66 12.68 11 12 C11.66 12 12.32 12 13 12 C12.67 15.96 12.34 19.92 12 24 C11.34 24 10.68 24 10 24 C10.04125 23.21625 10.0825 22.4325 10.125 21.625 C10.28728734 18.83883881 10.28728734 18.83883881 8 17 C7.24768244 15.29910812 6.49869777 13.5964258 5.78515625 11.87890625 C3.45952247 6.10468645 3.45952247 6.10468645 -1 2 C-0.67 1.34 -0.34 0.68 0 0 Z " fill="#565656" transform="translate(101,47)"/>
<path d="M0 0 C0.66 0.66 1.32 1.32 2 2 C-0.475 1.505 -0.475 1.505 -3 1 C-3.66 2.32 -4.32 3.64 -5 5 C-6.65 4.67 -8.3 4.34 -10 4 C-10.33 5.32 -10.66 6.64 -11 8 C-12.9375 7.6875 -12.9375 7.6875 -15 7 C-16 4 -16 4 -16 0 C-15.01 0.495 -15.01 0.495 -14 1 C-14.33 1.66 -14.66 2.32 -15 3 C-13.02 2.67 -11.04 2.34 -9 2 C-9 1.34 -9 0.68 -9 0 C-5.67778618 -1.10740461 -3.35896892 -0.97233311 0 0 Z " fill="#757575" transform="translate(119,91)"/>
<path d="M0 0 C6 6 6 6 6.09765625 8.28515625 C6.08605469 9.20167969 6.07445313 10.11820313 6.0625 11.0625 C6.05347656 11.98160156 6.04445313 12.90070312 6.03515625 13.84765625 C6.02355469 14.55792969 6.01195313 15.26820312 6 16 C5.01 15.34 4.02 14.68 3 14 C2.34 14 1.68 14 1 14 C1 13.01 1 12.02 1 11 C2.32 11 3.64 11 5 11 C5 9.68 5 8.36 5 7 C1.7 7.33 -1.6 7.66 -5 8 C-4.34 7.67 -3.68 7.34 -3 7 C-3 5.68 -3 4.36 -3 3 C-2.01 3 -1.02 3 0 3 C0 2.01 0 1.02 0 0 Z " fill="#9D9D9D" transform="translate(78,32)"/>
<path d="M0 0 C2.375 0.1875 2.375 0.1875 5 1 C7.38038888 4.85396294 7.17371424 8.5702869 7 13 C6.34 13 5.68 13 5 13 C5 13.66 5 14.32 5 15 C4.01 14.67 3.02 14.34 2 14 C2.03480469 13.07767578 2.03480469 13.07767578 2.0703125 12.13671875 C2.08835937 11.32847656 2.10640625 10.52023438 2.125 9.6875 C2.15980469 8.48673828 2.15980469 8.48673828 2.1953125 7.26171875 C2.15817322 4.71611424 2.15817322 4.71611424 0 2 C0 1.34 0 0.68 0 0 Z " fill="#BCBBB7" transform="translate(116,40)"/>
<path d="M0 0 C0 0.66 0 1.32 0 2 C-7.63416866 6.52540926 -13.16137944 9.15099173 -22 7 C-22 6.67 -22 6.34 -22 6 C-21.09507813 5.83564453 -21.09507813 5.83564453 -20.171875 5.66796875 C-15.67834605 4.77651059 -12.54945974 4.02361385 -9 1 C-5.97696027 -0.07269152 -3.19039821 -0.08862217 0 0 Z " fill="#ACACAC" transform="translate(132,66)"/>
<path d="M0 0 C3.96 1.98 3.96 1.98 8 4 C7.67 6.64 7.34 9.28 7 12 C5.68 12 4.36 12 3 12 C3 10.02 3 8.04 3 6 C1.68 5.67 0.36 5.34 -1 5 C-0.67 3.35 -0.34 1.7 0 0 Z " fill="#A2A19D" transform="translate(81,51)"/>
<path d="M0 0 C1.00289062 0.10183594 2.00578125 0.20367187 3.0390625 0.30859375 C3.80992188 0.39238281 4.58078125 0.47617188 5.375 0.5625 C5.705 2.5425 6.035 4.5225 6.375 6.5625 C-2.79786652 6.36993982 -2.79786652 6.36993982 -6.25 3 C-6.70375 2.195625 -7.1575 1.39125 -7.625 0.5625 C-4.89657939 -0.80171031 -3.01546682 -0.31557211 0 0 Z " fill="#6A6A6A" transform="translate(110.625,72.4375)"/>
<path d="M0 0 C0.66 0 1.32 0 2 0 C2.45375 0.928125 2.9075 1.85625 3.375 2.8125 C4.9421633 6.03921389 4.9421633 6.03921389 7 9 C6.195625 9.391875 5.39125 9.78375 4.5625 10.1875 C1.76935262 11.76948191 1.76935262 11.76948191 1.1875 14.6875 C1.125625 15.450625 1.06375 16.21375 1 17 C-0.98 17 -2.96 17 -5 17 C-5.33 16.01 -5.66 15.02 -6 14 C-5.01 14 -4.02 14 -3 14 C-2.67 13.01 -2.34 12.02 -2 11 C-1.01 10.34 -0.02 9.68 1 9 C0.67 6.03 0.34 3.06 0 0 Z " fill="#5D5A52" transform="translate(146,57)"/>
<path d="M0 0 C1.62950412 4.12168689 2.26264601 6.70700357 1 11 C-0.65 10.67 -2.3 10.34 -4 10 C-4.33 7.03 -4.66 4.06 -5 1 C-3 0 -3 0 0 0 Z " fill="#696969" transform="translate(146,57)"/>
<path d="M0 0 C0.25910156 0.60457031 0.51820312 1.20914063 0.78515625 1.83203125 C2.10372924 4.18511167 3.26710603 5.13321787 5.4375 6.6875 C9.62186886 10.07858227 10.80316413 13.87070339 12 19 C11.2575 18.21625 10.515 17.4325 9.75 16.625 C7.29017437 13.99952604 7.29017437 13.99952604 4.875 13 C2.25615674 11.6032836 1.48361353 9.51569251 0 7 C-0.99 6.67 -1.98 6.34 -3 6 C-2.01 5.67 -1.02 5.34 0 5 C0 3.35 0 1.7 0 0 Z " fill="#4C4C4C" transform="translate(38,45)"/>
<path d="M0 0 C1.24546405 2.49092811 0.7767578 3.41080733 0 6 C0.66 6.33 1.32 6.66 2 7 C-1.3 7.66 -4.6 8.32 -8 9 C-7.67 9.99 -7.34 10.98 -7 12 C-7.99 11.67 -8.98 11.34 -10 11 C-10 7.7 -10 4.4 -10 1 C-7.525 1.99 -7.525 1.99 -5 3 C-5 3.66 -5 4.32 -5 5 C-3.68 5 -2.36 5 -1 5 C-0.67 3.35 -0.34 1.7 0 0 Z " fill="#616161" transform="translate(111,65)"/>
<path d="M0 0 C2.475 0.99 2.475 0.99 5 2 C5 2.66 5 3.32 5 4 C6.36125 4.2165625 6.36125 4.2165625 7.75 4.4375 C11 5 11 5 12.90625 5.53125 C15.25014114 6.05600175 17.35104246 6.09777879 19.75 6.0625 C20.94882813 6.04896484 20.94882813 6.04896484 22.171875 6.03515625 C23.07679687 6.01775391 23.07679687 6.01775391 24 6 C24 6.66 24 7.32 24 8 C19.32798795 9.20568053 14.78503708 9.09382426 10 9 C10 8.01 10 7.02 10 6 C6.7 5.34 3.4 4.68 0 4 C0 2.68 0 1.36 0 0 Z " fill="#999999" transform="translate(76,86)"/>
<path d="M0 0 C3.95820859 0.56545837 6.6659053 1.80902348 10 4 C9.67 4.66 9.34 5.32 9 6 C6.71484375 6.6328125 6.71484375 6.6328125 3.9375 7.125 C3.01839844 7.29257812 2.09929687 7.46015625 1.15234375 7.6328125 C0.08693359 7.81457031 0.08693359 7.81457031 -1 8 C-0.67 5.36 -0.34 2.72 0 0 Z " fill="#373633" transform="translate(102,18)"/>
<path d="M0 0 C2.76223278 2.76223278 2.57856291 5.20706617 3 9 C0.07175348 9.97608217 -1.95613276 10.08226668 -5 10 C-4.34 8.68 -3.68 7.36 -3 6 C-3.66 6 -4.32 6 -5 6 C-5 5.34 -5 4.68 -5 4 C-4.01 4 -3.02 4 -2 4 C-2 3.01 -2 2.02 -2 1 C-1.34 0.67 -0.68 0.34 0 0 Z " fill="#898782" transform="translate(53,26)"/>
<path d="M0 0 C0.33 1.65 0.66 3.3 1 5 C-1.97 5.66 -4.94 6.32 -8 7 C-8.66 5.35 -9.32 3.7 -10 2 C-6.49223216 0.39644899 -3.85645121 -0.22036864 0 0 Z " fill="#606060" transform="translate(135,86)"/>
<path d="M0 0 C0.99 0 1.98 0 3 0 C3.33 2.31 3.66 4.62 4 7 C2.35 6.67 0.7 6.34 -1 6 C-0.67 9.63 -0.34 13.26 0 17 C-0.66 17 -1.32 17 -2 17 C-3.42258812 13.17679443 -4.24042276 10.08718695 -4 6 C-3.34 6 -2.68 6 -2 6 C-1.34 4.02 -0.68 2.04 0 0 Z " fill="#929292" transform="translate(97,70)"/>
<path d="M0 0 C0.66 0.99 1.32 1.98 2 3 C1.649375 3.598125 1.29875 4.19625 0.9375 4.8125 C-0.33304698 7.10813214 -0.33304698 7.10813214 1 10 C0.01 10.33 -0.98 10.66 -2 11 C-2.33 10.34 -2.66 9.68 -3 9 C-3.66 9 -4.32 9 -5 9 C-5.66 10.98 -6.32 12.96 -7 15 C-8 12 -8 12 -7.36328125 10.02734375 C-7.01652344 9.33769531 -6.66976562 8.64804687 -6.3125 7.9375 C-5.97863281 7.24527344 -5.64476563 6.55304687 -5.30078125 5.83984375 C-3.77706755 3.68468113 -2.41756599 2.98229523 0 2 C0 1.34 0 0.68 0 0 Z " fill="#6B6964" transform="translate(97,43)"/>
<path d="M0 0 C1.65 0.33 3.3 0.66 5 1 C4.67 1.66 4.34 2.32 4 3 C3.01 3 2.02 3 1 3 C1.15597656 3.65226562 1.31195313 4.30453125 1.47265625 4.9765625 C2.58490411 9.97062904 3.3320153 13.93834187 2 19 C1.67 18.34 1.34 17.68 1 17 C0.01 16.67 -0.98 16.34 -2 16 C-1.67 15.67 -1.34 15.34 -1 15 C-0.92738667 11.66432524 -1.00391343 8.33967891 -1.0625 5.00390625 C-1 2 -1 2 0 0 Z " fill="#434343" transform="translate(83,64)"/>
<path d="M0 0 C1.98 0.495 1.98 0.495 4 1 C4.91892116 4.67568464 4.95904856 6.16380575 4 10 C7.3 10 10.6 10 14 10 C14 10.33 14 10.66 14 11 C9.05 11 4.1 11 -1 11 C-0.34 10.34 0.32 9.68 1 9 C1.02308597 6.77871445 1.02308597 6.77871445 0.625 4.375 C0.51414063 3.55773437 0.40328125 2.74046875 0.2890625 1.8984375 C0.19367188 1.27195312 0.09828125 0.64546875 0 0 Z " fill="#8C8C8C" transform="translate(145,89)"/>
<path d="M0 0 C0.66 0 1.32 0 2 0 C2 0.66 2 1.32 2 2 C2.66 2.33 3.32 2.66 4 3 C4.12375 3.928125 4.2475 4.85625 4.375 5.8125 C5.11242357 9.57336023 6.27228075 10.43759707 9 13 C10.1875 15.625 10.1875 15.625 11 18 C11.33 18.66 11.66 19.32 12 20 C9.69 20 7.38 20 5 20 C5.66 19.67 6.32 19.34 7 19 C7 16.69 7 14.38 7 12 C6.37609375 11.92652344 5.7521875 11.85304688 5.109375 11.77734375 C3 11 3 11 1.953125 9.00390625 C1.72109375 8.19824219 1.4890625 7.39257812 1.25 6.5625 C1.00765625 5.75941406 0.7653125 4.95632812 0.515625 4.12890625 C0 2 0 2 0 0 Z " fill="#313131" transform="translate(60,70)"/>
<path d="M0 0 C0.33 0 0.66 0 1 0 C1.28875 0.969375 1.5775 1.93875 1.875 2.9375 C2.64214682 6.10664203 2.64214682 6.10664203 5 7 C5 7.66 5 8.32 5 9 C5.66 9.33 6.32 9.66 7 10 C5.948125 10.12375 4.89625 10.2475 3.8125 10.375 C0.54041229 10.91140782 -2.00536076 11.63880035 -5 13 C-4.360625 11.96875 -3.72125 10.9375 -3.0625 9.875 C-1.18288629 6.61390342 -0.36873469 3.77953056 0 0 Z " fill="#4A4945" transform="translate(34,32)"/>
<path d="M0 0 C1.7824918 3.33311475 2.48792856 6.24480943 3 10 C3.66 10 4.32 10 5 10 C5 11.65 5 13.3 5 15 C5.66 15.33 6.32 15.66 7 16 C4.36 16 1.72 16 -1 16 C-1 15.01 -1 14.02 -1 13 C-0.34 13 0.32 13 1 13 C1 13.66 1 14.32 1 15 C1.66 15 2.32 15 3 15 C3 14.01 3 13.02 3 12 C2.34 12 1.68 12 1 12 C0.03929566 9.11788698 -0.10581883 7.30149956 -0.0625 4.3125 C-0.05347656 3.50425781 -0.04445313 2.69601563 -0.03515625 1.86328125 C-0.02355469 1.24839844 -0.01195313 0.63351563 0 0 Z " fill="#5C5C5C" transform="translate(92,77)"/>
<path d="M0 0 C0.99 0 1.98 0 3 0 C3.69969682 2.24623699 4.38435043 4.49716414 5.0625 6.75 C5.63677734 8.62945312 5.63677734 8.62945312 6.22265625 10.546875 C6.92656828 13.6738008 7.16653785 15.09466046 6 18 C4.98819502 15.94326547 3.99098523 13.87934652 3 11.8125 C2.443125 10.66394531 1.88625 9.51539062 1.3125 8.33203125 C0.08236325 5.20909481 -0.29804612 3.29713518 0 0 Z " fill="#5F5F5F" transform="translate(49,61)"/>
<path d="M0 0 C3 1 3 1 3.94921875 2.7421875 C4.19285156 3.44601563 4.43648438 4.14984375 4.6875 4.875 C4.93886719 5.57367188 5.19023438 6.27234375 5.44921875 6.9921875 C6 9 6 9 6 12 C5.34 12 4.68 12 4 12 C4 11.34 4 10.68 4 10 C2.68 9.34 1.36 8.68 0 8 C0 7.34 0 6.68 0 6 C-0.66 5.67 -1.32 5.34 -2 5 C-1.34 3.35 -0.68 1.7 0 0 Z " fill="#2F2C23" transform="translate(98,37)"/>
<path d="M0 0 C0.99 0.33 1.98 0.66 3 1 C0.97077784 5.26136653 -1.34566934 9.10145185 -4 13 C-5.82000142 15.9400023 -7.49992383 18.88445719 -9 22 C-9.63934602 16.88523181 -7.40533547 13.32745622 -5 9 C-4.34 9 -3.68 9 -3 9 C-2.80083984 8.15115234 -2.80083984 8.15115234 -2.59765625 7.28515625 C-2.42105469 6.55167969 -2.24445312 5.81820312 -2.0625 5.0625 C-1.88847656 4.33160156 -1.71445312 3.60070313 -1.53515625 2.84765625 C-1 1 -1 1 0 0 Z " fill="#DCA40D" transform="translate(26,44)"/>
<path d="M0 0 C1.5625 1.25 1.5625 1.25 3 3 C3 5 3 5 2 7 C-0.3125 8.5625 -0.3125 8.5625 -3 10 C-4.34631825 10.98244845 -5.68441297 11.97676564 -7 13 C-4.02906977 3.6627907 -4.02906977 3.6627907 0 0 Z " fill="#8B8B8B" transform="translate(123,54)"/>
<path d="M0 0 C0.66 0 1.32 0 2 0 C2 2.64 2 5.28 2 8 C-1.63 7.67 -5.26 7.34 -9 7 C-6.31158141 4.74754119 -4.35358125 3.11786042 -1 2 C-0.67 1.34 -0.34 0.68 0 0 Z " fill="#585858" transform="translate(158,92)"/>
<path d="M0 0 C0 0.99 0 1.98 0 3 C-3.63 3 -7.26 3 -11 3 C-10.67 1.68 -10.34 0.36 -10 -1 C-6.18510326 -2.46726798 -3.70988378 -1.43336419 0 0 Z " fill="#747474" transform="translate(83,97)"/>
<path d="M0 0 C1.859375 0.25390625 1.859375 0.25390625 4 1 C5.265625 2.77734375 5.265625 2.77734375 6.25 4.9375 C6.58515625 5.64777344 6.9203125 6.35804687 7.265625 7.08984375 C8 9 8 9 8 11 C6.68 10.67 5.36 10.34 4 10 C4 9.34 4 8.68 4 8 C3.34 8 2.68 8 2 8 C2 6.35 2 4.7 2 3 C1.34 3 0.68 3 0 3 C0 2.01 0 1.02 0 0 Z " fill="#AEAEAE" transform="translate(49,72)"/>
<path d="M0 0 C2.1229936 3.53832266 2.62231907 6.921046 3 11 C2.67 11.66 2.34 12.32 2 13 C1.34 12.67 0.68 12.34 0 12 C0 11.01 0 10.02 0 9 C-0.99 8.67 -1.98 8.34 -3 8 C-2.37240135 5.07120629 -1.41377341 2.63904371 0 0 Z " fill="#928F89" transform="translate(141,38)"/>
<path d="M0 0 C-0.60335782 6.39559286 -0.60335782 6.39559286 -2.3125 9 C-4 10 -4 10 -6.1875 9.6875 C-6.785625 9.460625 -7.38375 9.23375 -8 9 C-7.34 9 -6.68 9 -6 9 C-6.33 8.01 -6.66 7.02 -7 6 C-6.67 5.34 -6.34 4.68 -6 4 C-5.34 4 -4.68 4 -4 4 C-4 4.66 -4 5.32 -4 6 C-3.34 6 -2.68 6 -2 6 C-2.99 4.35 -3.98 2.7 -5 1 C-2 0 -2 0 0 0 Z " fill="#817F79" transform="translate(115,33)"/>
<path d="M0 0 C1.98 0.99 3.96 1.98 6 3 C6 4.32 6 5.64 6 7 C3.03 6.505 3.03 6.505 0 6 C-0.33 6.66 -0.66 7.32 -1 8 C-1 7.34 -1 6.68 -1 6 C-1.66 5.67 -2.32 5.34 -3 5 C-2.01 3.35 -1.02 1.7 0 0 Z " fill="#757575" transform="translate(95,58)"/>
<path d="M0 0 C2.1875 1.25 2.1875 1.25 4 3 C4 3.99 4 4.98 4 6 C4.99 6.33 5.98 6.66 7 7 C5.68 7.33 4.36 7.66 3 8 C2.67 7.34 2.34 6.68 2 6 C-0.32156597 5.59270772 -2.6568787 5.25561323 -5 5 C-4.1875 3.0625 -4.1875 3.0625 -3 1 C-2.01 0.67 -1.02 0.34 0 0 Z " fill="#656565" transform="translate(37,51)"/>
<path d="M0 0 C0.99 0.33 1.98 0.66 3 1 C3 3.97 3 6.94 3 10 C1.68 9.34 0.36 8.68 -1 8 C-1.33 8.66 -1.66 9.32 -2 10 C-1.125 2.25 -1.125 2.25 0 0 Z " fill="#736E5F" transform="translate(148,42)"/>
<path d="M0 0 C2.64 0.33 5.28 0.66 8 1 C7.67 3.97 7.34 6.94 7 10 C6.67 10 6.34 10 6 10 C5.34 8.02 4.68 6.04 4 4 C3.01 4.33 2.02 4.66 1 5 C0.67 3.35 0.34 1.7 0 0 Z " fill="#676767" transform="translate(101,80)"/>
<path d="M0 0 C0.99 0.33 1.98 0.66 3 1 C3 1.66 3 2.32 3 3 C3.639375 3.45375 4.27875 3.9075 4.9375 4.375 C7.2676157 6.21084873 7.60401298 7.12909413 8 10 C5 10 5 10 3 8.1875 C2.34 7.465625 1.68 6.74375 1 6 C0.4225 5.4225 -0.155 4.845 -0.75 4.25 C-1.1625 3.8375 -1.575 3.425 -2 3 C-1.34 3 -0.68 3 0 3 C0 2.01 0 1.02 0 0 Z " fill="#7D7D7D" transform="translate(98,46)"/>
<path d="M0 0 C2.475 0.99 2.475 0.99 5 2 C5 2.66 5 3.32 5 4 C6.65 4.33 8.3 4.66 10 5 C10 5.33 10 5.66 10 6 C6.7 6 3.4 6 0 6 C0 4.02 0 2.04 0 0 Z " fill="#7C7C7C" transform="translate(85,94)"/>
<path d="M0 0 C1.32 1.32 2.64 2.64 4 4 C1.875 6.5625 1.875 6.5625 -1 9 C-4.3125 8.8125 -4.3125 8.8125 -7 8 C-3.25 4.125 -3.25 4.125 -1 3 C-0.67 2.01 -0.34 1.02 0 0 Z " fill="#343434" transform="translate(44,86)"/>
<path d="M0 0 C1.37432457 3.81756824 0.67975039 7.07255329 0 11 C-0.33 11 -0.66 11 -1 11 C-1 8.69 -1 6.38 -1 4 C-1.66 4 -2.32 4 -3 4 C-3 5.98 -3 7.96 -3 10 C-3.66 9.67 -4.32 9.34 -5 9 C-5 6.69 -5 4.38 -5 2 C-3.35 1.34 -1.7 0.68 0 0 Z " fill="#939393" transform="translate(118,43)"/>
<path d="M0 0 C1.65 1.65 3.3 3.3 5 5 C4.67 5.66 4.34 6.32 4 7 C3.01 6.67 2.02 6.34 1 6 C1 7.98 1 9.96 1 12 C0.34 11.67 -0.32 11.34 -1 11 C-2.425 3.6375 -2.425 3.6375 0 0 Z " fill="#6D6A61" transform="translate(135,52)"/>
<path d="M0 0 C1.38226016 2.76452033 1.09525387 5.0461363 1.0625 8.125 C1.05347656 9.22070312 1.04445313 10.31640625 1.03515625 11.4453125 C1.02355469 12.28835937 1.01195313 13.13140625 1 14 C-1.6924235 11.3075765 -2.84892141 9.23884447 -3.3125 5.4375 C-2.94577441 2.57704037 -2.22050495 1.75789975 0 0 Z " fill="#959595" transform="translate(111,49)"/>
<path d="M0 0 C0.33 1.32 0.66 2.64 1 4 C-3.3164922 4.76173392 -6.74433453 5.16063604 -11 4 C-11 3.34 -11 2.68 -11 2 C-8.02148438 1.65820312 -8.02148438 1.65820312 -5.04296875 1.31640625 C-2.80603607 1.02829265 -2.80603607 1.02829265 0 0 Z " fill="#99958B" transform="translate(56,38)"/>
<path d="M0 0 C1.32 0 2.64 0 4 0 C2.125 5.75 2.125 5.75 1 8 C-1.48448024 6.75775988 -3.67054766 5.55296823 -6 4 C-5 3 -5 3 -2.4375 2.9375 C-1.2309375 2.9684375 -1.2309375 2.9684375 0 3 C0 2.01 0 1.02 0 0 Z " fill="#959595" transform="translate(136,88)"/>
<path d="M0 0 C2.86724686 0.57344937 3.8614515 0.8614515 6 3 C6.125 5.625 6.125 5.625 6 8 C4.68 7.67 3.36 7.34 2 7 C1.34 4.69 0.68 2.38 0 0 Z " fill="#9D9D9D" transform="translate(42,58)"/>
<path d="M0 0 C0.66 0 1.32 0 2 0 C1.67 3.96 1.34 7.92 1 12 C0.34 12 -0.32 12 -1 12 C-0.95875 11.21625 -0.9175 10.4325 -0.875 9.625 C-0.71271266 6.83883881 -0.71271266 6.83883881 -3 5 C-3 4.01 -3 3.02 -3 2 C-2.34 2 -1.68 2 -1 2 C-0.67 1.34 -0.34 0.68 0 0 Z " fill="#4B4B4B" transform="translate(112,59)"/>
<path d="M0 0 C0.33 0.66 0.66 1.32 1 2 C3.02463255 2.65213292 3.02463255 2.65213292 5 3 C5 3.33 5 3.66 5 4 C0.9472484 4.98248524 -2.83861737 5.08159574 -7 5 C-6.67 4.01 -6.34 3.02 -6 2 C-4.02 2 -2.04 2 0 2 C0 1.34 0 0.68 0 0 Z " fill="#3F3F3F" transform="translate(108,29)"/>
<path d="M0 0 C0.33 0 0.66 0 1 0 C1.33 2.31 1.66 4.62 2 7 C1.34 7 0.68 7 0 7 C1.25541557 9.51083114 2.50063488 9.87125446 5 11 C3.68 11 2.36 11 1 11 C1 11.66 1 12.32 1 13 C0.01 13 -0.98 13 -2 13 C-2.8677564 10.57028208 -3.20863003 9.4619665 -2.125 7.0625 C-1.75375 6.381875 -1.3825 5.70125 -1 5 C-0.62331656 3.34259285 -0.27942455 1.67654729 0 0 Z " fill="#8C8C8C" transform="translate(109,80)"/>
<path d="M0 0 C1.32 0.66 2.64 1.32 4 2 C4 2.66 4 3.32 4 4 C6.31 4.66 8.62 5.32 11 6 C11 6.33 11 6.66 11 7 C2.07692308 5.79881657 2.07692308 5.79881657 0 5 C-0.33 4.01 -0.66 3.02 -1 2 C-0.67 1.34 -0.34 0.68 0 0 Z " fill="#9C9C9C" transform="translate(56,84)"/>
<path d="M0 0 C2.475 0.99 2.475 0.99 5 2 C4.34 3.98 3.68 5.96 3 8 C2.34 8 1.68 8 1 8 C-2 4.53846154 -2 4.53846154 -2 2 C-1.34 2 -0.68 2 0 2 C0 1.34 0 0.68 0 0 Z " fill="#666666" transform="translate(71,68)"/>
<path d="M0 0 C1.65 0 3.3 0 5 0 C4.34 1.98 3.68 3.96 3 6 C1.02 6 -0.96 6 -3 6 C-2.01 4.02 -1.02 2.04 0 0 Z " fill="#707070" transform="translate(105,25)"/>
<path d="M0 0 C1.80330533 3.60661066 2.46599103 6.08393425 3 10 C3.66 10 4.32 10 5 10 C5 10.99 5 11.98 5 13 C4.34 13 3.68 13 3 13 C3 12.34 3 11.68 3 11 C2.01 11.33 1.02 11.66 0 12 C0 8.04 0 4.08 0 0 Z " fill="#343434" transform="translate(90,79)"/>
<path d="M0 0 C0.99 0.33 1.98 0.66 3 1 C2.67 3.31 2.34 5.62 2 8 C2.66 8 3.32 8 4 8 C4.33 6.68 4.66 5.36 5 4 C5 5.65 5 7.3 5 9 C3.35 9.33 1.7 9.66 0 10 C0 6.7 0 3.4 0 0 Z " fill="#333333" transform="translate(124,76)"/>
<path d="M0 0 C0.66 0 1.32 0 2 0 C2 0.66 2 1.32 2 2 C2.66 2 3.32 2 4 2 C4.33 4.31 4.66 6.62 5 9 C3.33333333 9 1.66666667 9 0 9 C0 6.03 0 3.06 0 0 Z " fill="#5A5A5A" transform="translate(126,75)"/>
<path d="M0 0 C0.66 0.33 1.32 0.66 2 1 C2 2.32 2 3.64 2 5 C1.34 5.66 0.68 6.32 0 7 C0.2981424 8.34164079 0.64141484 9.67323492 1 11 C1.03888349 13.33300933 1.0448635 15.66709801 1 18 C0.67 18 0.34 18 0 18 C0 16.02 0 14.04 0 12 C-0.66 12 -1.32 12 -2 12 C-3.12377697 8.69564916 -2.89554742 6.9493138 -1.5625 3.75 C-1.27503906 3.04359375 -0.98757812 2.3371875 -0.69140625 1.609375 C-0.46324219 1.07828125 -0.23507813 0.5471875 0 0 Z " fill="#73694F" transform="translate(62,50)"/>
<path d="M0 0 C1.32 0.66 2.64 1.32 4 2 C-0.455 4.97 -0.455 4.97 -5 8 C-4 3 -4 3 -3 1 C-2.01 0.67 -1.02 0.34 0 0 Z " fill="#777777" transform="translate(34,55)"/>
<path d="M0 0 C0.66 0 1.32 0 2 0 C2 0.66 2 1.32 2 2 C2.66 2 3.32 2 4 2 C4 2.99 4 3.98 4 5 C4.99 5 5.98 5 7 5 C7 5.66 7 6.32 7 7 C7.66 7 8.32 7 9 7 C9 8.32 9 9.64 9 11 C7.68 10.34 6.36 9.68 5 9 C5 8.01 5 7.02 5 6 C4.34 6 3.68 6 3 6 C2.01 4.02 1.02 2.04 0 0 Z " fill="#595959" transform="translate(65,77)"/>
<path d="M0 0 C1.32 0.66 2.64 1.32 4 2 C4 2.66 4 3.32 4 4 C3.34 4 2.68 4 2 4 C2.350625 4.763125 2.70125 5.52625 3.0625 6.3125 C4 9 4 9 3 12 C0.52075165 8.28112748 -0.08484002 5.36460914 -1 1 C-0.67 0.67 -0.34 0.34 0 0 Z " fill="#3F3F3F" transform="translate(52,52)"/>
<path d="M0 0 C0.66 0 1.32 0 2 0 C1.67 1.65 1.34 3.3 1 5 C3.475 5.99 3.475 5.99 6 7 C5.01 7.99 4.02 8.98 3 10 C1.35 8.68 -0.3 7.36 -2 6 C-1.125 1.125 -1.125 1.125 0 0 Z " fill="#474643" transform="translate(138,49)"/>
<path d="M0 0 C1.25541557 3.76624671 0.37061958 5.37188934 -1 9 C-2.32 9 -3.64 9 -5 9 C-5.33 8.01 -5.66 7.02 -6 6 C-5.34 6 -4.68 6 -4 6 C-4 5.34 -4 4.68 -4 4 C-3.01 4 -2.02 4 -1 4 C-0.67 2.68 -0.34 1.36 0 0 Z " fill="#7D7B78" transform="translate(55,41)"/>
<path d="M0 0 C0.33 0 0.66 0 1 0 C1 2.97 1 5.94 1 9 C-0.98 8.34 -2.96 7.68 -5 7 C-5 6.34 -5 5.68 -5 5 C-4.01 4.34 -3.02 3.68 -2 3 C-1.67 2.34 -1.34 1.68 -1 1 C-0.67 0.67 -0.34 0.34 0 0 Z " fill="#767061" transform="translate(114,24)"/>
<path d="M0 0 C4.37934119 0.51958285 8.68803391 1.05675742 13 2 C13 2.66 13 3.32 13 4 C12.01 4 11.02 4 10 4 C10 4.66 10 5.32 10 6 C9.01 6 8.02 6 7 6 C7 4.68 7 3.36 7 2 C4.69 1.67 2.38 1.34 0 1 C0 0.67 0 0.34 0 0 Z " fill="#AAA79E" transform="translate(147,85)"/>
<path d="M0 0 C0.99 0.33 1.98 0.66 3 1 C3.33 2.98 3.66 4.96 4 7 C4.66 7 5.32 7 6 7 C5.67 7.99 5.34 8.98 5 10 C1.125 8.25 1.125 8.25 0 6 C-0.039992 4.00039988 -0.04346799 1.99952758 0 0 Z " fill="#7A7A7A" transform="translate(141,58)"/>
<path d="M0 0 C2 1 4 2 6 3 C5.67 3.66 5.34 4.32 5 5 C4.01 4.67 3.02 4.34 2 4 C2.33 6.97 2.66 9.94 3 13 C2.34 13 1.68 13 1 13 C0.63901937 11.02206479 0.28638652 9.04260427 -0.0625 7.0625 C-0.25972656 5.96035156 -0.45695312 4.85820313 -0.66015625 3.72265625 C-0.77230469 2.82417969 -0.88445313 1.92570312 -1 1 C-0.67 0.67 -0.34 0.34 0 0 Z " fill="#797978" transform="translate(62,55)"/>
<path d="M0 0 C0.99 0.66 1.98 1.32 3 2 C2 5 2 5 0.125 6.25 C-2 7 -2 7 -5 6 C-4.67 5.34 -4.34 4.68 -4 4 C-3.34 4 -2.68 4 -2 4 C-1.34 2.68 -0.68 1.36 0 0 Z " fill="#393939" transform="translate(33,93)"/>
<path d="M0 0 C0.99 0.33 1.98 0.66 3 1 C2.34 3.31 1.68 5.62 1 8 C0.01 8 -0.98 8 -2 8 C-2 6.68 -2 5.36 -2 4 C-2.66 3.67 -3.32 3.34 -4 3 C-3.01 3 -2.02 3 -1 3 C-0.67 2.01 -0.34 1.02 0 0 Z " fill="#6C6C6C" transform="translate(76,80)"/>
<path d="M0 0 C2.97 0 5.94 0 9 0 C8.67 1.65 8.34 3.3 8 5 C7.34 5 6.68 5 6 5 C6 4.34 6 3.68 6 3 C5.195625 2.87625 4.39125 2.7525 3.5625 2.625 C2.716875 2.41875 1.87125 2.2125 1 2 C0.67 1.34 0.34 0.68 0 0 Z " fill="#484847" transform="translate(139,81)"/>
<path d="M0 0 C0 0.66 0 1.32 0 2 C-3.96 3.98 -7.92 5.96 -12 8 C-12.33 7.34 -12.66 6.68 -13 6 C-11.40089132 4.99193149 -9.79551738 3.99379615 -8.1875 3 C-7.29417969 2.443125 -6.40085937 1.88625 -5.48046875 1.3125 C-3 0 -3 0 0 0 Z " fill="#939393" transform="translate(132,66)"/>
<path d="M0 0 C1.98 0.99 1.98 0.99 4 2 C4 2.66 4 3.32 4 4 C5.32 4.33 6.64 4.66 8 5 C7.34 6.32 6.68 7.64 6 9 C5.34 9 4.68 9 4 9 C0 2.25 0 2.25 0 0 Z " fill="#4B4B4B" transform="translate(101,40)"/>
<path d="M0 0 C1.98 0.495 1.98 0.495 4 1 C3.01 2.485 3.01 2.485 2 4 C1.60986284 5.9896995 1.26797351 7.99019869 1 10 C1.66 10.33 2.32 10.66 3 11 C2.01 11.33 1.02 11.66 0 12 C-1.53166168 7.91556885 -0.63081652 4.20544343 0 0 Z " fill="#999999" transform="translate(102,85)"/>
<path d="M0 0 C0 1.65 0 3.3 0 5 C-0.33 4.34 -0.66 3.68 -1 3 C-2.98 3 -4.96 3 -7 3 C-7 2.01 -7 1.02 -7 0 C-3.98968256 -0.93423645 -3.13349732 -1.04449911 0 0 Z " fill="#3C3C3C" transform="translate(35,80)"/>
<path d="M0 0 C1.00289062 0.10183594 2.00578125 0.20367187 3.0390625 0.30859375 C3.80992188 0.39238281 4.58078125 0.47617188 5.375 0.5625 C5.375 0.8925 5.375 1.2225 5.375 1.5625 C1.745 2.2225 -1.885 2.8825 -5.625 3.5625 C-6.285 2.5725 -6.945 1.5825 -7.625 0.5625 C-4.89657939 -0.80171031 -3.01546682 -0.31557211 0 0 Z " fill="#868686" transform="translate(110.625,72.4375)"/>
<path d="M0 0 C0.99 0 1.98 0 3 0 C3.33 2.31 3.66 4.62 4 7 C1.03 6.505 1.03 6.505 -2 6 C-1.34 4.02 -0.68 2.04 0 0 Z " fill="#9B9B9B" transform="translate(97,70)"/>
<path d="M0 0 C1.875 0.3125 1.875 0.3125 4 1 C4.66 1.99 5.32 2.98 6 4 C4.35 4.33 2.7 4.66 1 5 C0.67 5.99 0.34 6.98 0 8 C0 5.36 0 2.72 0 0 Z " fill="#8A8A8A" transform="translate(64,59)"/>
<path d="M0 0 C4.95 0.99 4.95 0.99 10 2 C9.67 2.99 9.34 3.98 9 5 C6.1875 4.75 6.1875 4.75 3 4 C2.01 2.68 1.02 1.36 0 0 Z " fill="#434343" transform="translate(41,48)"/>
<path d="M0 0 C1.32 0 2.64 0 4 0 C4.33 1.65 4.66 3.3 5 5 C2.69 5 0.38 5 -2 5 C-1.34 4.67 -0.68 4.34 0 4 C0 2.68 0 1.36 0 0 Z " fill="#414141" transform="translate(131,86)"/>
<path d="M0 0 C1.65 0 3.3 0 5 0 C5.33 3.63 5.66 7.26 6 11 C2.4486737 7.4486737 2.62338982 5.80900717 2 1 C1.34 0.67 0.68 0.34 0 0 Z " fill="#4A4A4A" transform="translate(60,69)"/>
<path d="M0 0 C0.66 0 1.32 0 2 0 C2.28571429 7.42857143 2.28571429 7.42857143 0 11 C-0.33 11 -0.66 11 -1 11 C-1.0270043 9.54176788 -1.04639787 8.08339325 -1.0625 6.625 C-1.07410156 5.81289063 -1.08570312 5.00078125 -1.09765625 4.1640625 C-1 2 -1 2 0 0 Z " fill="#A8A8A8" transform="translate(115,47)"/>
<path d="M0 0 C2.86775051 2.86775051 3.68223363 4.3290794 5 8 C5.33 8.66 5.66 9.32 6 10 C3.69 10 1.38 10 -1 10 C-0.34 9.67 0.32 9.34 1 9 C0.67 6.03 0.34 3.06 0 0 Z " fill="#3C3C3C" transform="translate(66,80)"/>
<path d="M0 0 C0.66 0.66 1.32 1.32 2 2 C1.625 4.625 1.625 4.625 1 7 C-0.65 7 -2.3 7 -4 7 C-3.34 5.35 -2.68 3.7 -2 2 C-1.34 2 -0.68 2 0 2 C0 1.34 0 0.68 0 0 Z " fill="#242424" transform="translate(66,82)"/>
<path d="M0 0 C0.33 0 0.66 0 1 0 C1.98248524 4.0527516 2.08159574 7.83861737 2 12 C0 9 0 9 0 5 C-0.66 5 -1.32 5 -2 5 C-1.125 1.125 -1.125 1.125 0 0 Z " fill="#8B826B" transform="translate(130,72)"/>
<path d="M0 0 C0.33 0 0.66 0 1 0 C1.66 2.64 2.32 5.28 3 8 C0.69 8.33 -1.62 8.66 -4 9 C-3.34 7.68 -2.68 6.36 -2 5 C-1.34 5 -0.68 5 0 5 C0 3.35 0 1.7 0 0 Z " fill="#6D6D6D" transform="translate(129,58)"/>
<path d="M0 0 C1.32 0.33 2.64 0.66 4 1 C3.67 2.98 3.34 4.96 3 7 C2.01 6.67 1.02 6.34 0 6 C0 4.02 0 2.04 0 0 Z " fill="#464646" transform="translate(136,58)"/>
<path d="M0 0 C3.25696479 0.41755959 4.63443291 0.63443291 7 3 C5.35 2.67 3.7 2.34 2 2 C1.34 3.32 0.68 4.64 0 6 C-0.38218767 4.34385343 -0.71395102 2.67542976 -1 1 C-0.67 0.67 -0.34 0.34 0 0 Z " fill="#646464" transform="translate(114,90)"/>
<path d="M0 0 C0.33 0 0.66 0 1 0 C1 2.64 1 5.28 1 8 C1.99 8.33 2.98 8.66 4 9 C2.68 9 1.36 9 0 9 C-1.75 7 -1.75 7 -3 5 C-2.03114628 3.31503702 -1.03013277 1.64821244 0 0 Z " fill="#656565" transform="translate(81,81)"/>
<path d="M0 0 C2.475 0.495 2.475 0.495 5 1 C5 2.32 5 3.64 5 5 C3.35 4.67 1.7 4.34 0 4 C0 2.68 0 1.36 0 0 Z " fill="#7C7C7C" transform="translate(70,78)"/>
<path d="M0 0 C1.65 0.33 3.3 0.66 5 1 C5 1.99 5 2.98 5 4 C2.6875 4.625 2.6875 4.625 0 5 C-0.99 4.34 -1.98 3.68 -3 3 C-2.01 2.67 -1.02 2.34 0 2 C0 1.34 0 0.68 0 0 Z " fill="#646464" transform="translate(139,74)"/>
<path d="M0 0 C1.32 0 2.64 0 4 0 C4.08226668 3.04386724 3.97608217 5.07175348 3 8 C2.01 7.67 1.02 7.34 0 7 C0 4.69 0 2.38 0 0 Z " fill="#646464" transform="translate(91,68)"/>
<path d="M0 0 C0.66 0 1.32 0 2 0 C1.979375 0.78375 1.95875 1.5675 1.9375 2.375 C1.81315937 4.98114961 1.81315937 4.98114961 3 7 C1.35 7 -0.3 7 -2 7 C-2.66 5.68 -3.32 4.36 -4 3 C-3.01 2.67 -2.02 2.34 -1 2 C-0.67 1.34 -0.34 0.68 0 0 Z " fill="#757575" transform="translate(74,63)"/>
<path d="M0 0 C1.9375 0.375 1.9375 0.375 4 1 C4.33 1.66 4.66 2.32 5 3 C6.65 3 8.3 3 10 3 C9.34 3.66 8.68 4.32 8 5 C5.27130593 4.96712417 2.7033382 4.43602229 0 4 C0 2.68 0 1.36 0 0 Z " fill="#424242" transform="translate(101,76)"/>
<path d="M0 0 C0 0.99 0 1.98 0 3 C-3.13498292 4.85776765 -5.37471432 5.20140476 -9 5 C-2.87096774 0 -2.87096774 0 0 0 Z " fill="#72706B" transform="translate(132,68)"/>
<path d="M0 0 C0.33 0 0.66 0 1 0 C1 3.3 1 6.6 1 10 C0.01 9.34 -0.98 8.68 -2 8 C-2.66 8 -3.32 8 -4 8 C-4 7.01 -4 6.02 -4 5 C-2.68 5 -1.36 5 0 5 C0 3.35 0 1.7 0 0 Z " fill="#948D78" transform="translate(83,38)"/>
<path d="M0 0 C0.66 1.32 1.32 2.64 2 4 C1 5 1 5 -2.5625 5.0625 C-3.696875 5.041875 -4.83125 5.02125 -6 5 C-5.195625 4.360625 -4.39125 3.72125 -3.5625 3.0625 C-1.7249496 1.59396498 -1.7249496 1.59396498 0 0 Z " fill="#4D4D4D" transform="translate(37,95)"/>
<path d="M0 0 C1.32 0.33 2.64 0.66 4 1 C4.625 3.3125 4.625 3.3125 5 6 C4.01 7.485 4.01 7.485 3 9 C2.87625 8.195625 2.7525 7.39125 2.625 6.5625 C2.315625 5.2940625 2.315625 5.2940625 2 4 C1.34 3.67 0.68 3.34 0 3 C0 2.01 0 1.02 0 0 Z " fill="#7E7E7E" transform="translate(145,89)"/>
<path d="M0 0 C0.28875 0.598125 0.5775 1.19625 0.875 1.8125 C2.04742026 4.19327792 2.04742026 4.19327792 4 7 C3.34 7.66 2.68 8.32 2 9 C1.01 8.34 0.02 7.68 -1 7 C-1.66 6.67 -2.32 6.34 -3 6 C-2.01 5.67 -1.02 5.34 0 5 C0 3.35 0 1.7 0 0 Z " fill="#454545" transform="translate(38,45)"/>
<path d="M0 0 C0.625 2.0625 0.625 2.0625 1 4 C-1.97 3.505 -1.97 3.505 -5 3 C-5.33 2.01 -5.66 1.02 -6 0 C-2.25 -1.125 -2.25 -1.125 0 0 Z " fill="#747474" transform="translate(78,44)"/>
<path d="M0 0 C0.99 0 1.98 0 3 0 C3.33 1.32 3.66 2.64 4 4 C2.68 4.33 1.36 4.66 0 5 C-0.5625 3.0625 -0.5625 3.0625 -1 1 C-0.67 0.67 -0.34 0.34 0 0 Z " fill="#323232" transform="translate(113,40)"/>
<path d="M0 0 C1.65 0 3.3 0 5 0 C5 1.32 5 2.64 5 4 C3.35 3.67 1.7 3.34 0 3 C0 2.01 0 1.02 0 0 Z " fill="#626262" transform="translate(78,39)"/>
<path d="M0 0 C0 0.66 0 1.32 0 2 C-0.66 2 -1.32 2 -2 2 C-2 2.66 -2 3.32 -2 4 C-2.99 4 -3.98 4 -5 4 C-5 3.34 -5 2.68 -5 2 C-5.99 1.67 -6.98 1.34 -8 1 C-5.29120665 -0.35439668 -2.99066732 -0.06501451 0 0 Z " fill="#444444" transform="translate(52,37)"/>
<path d="M0 0 C0 1.32 0 2.64 0 4 C-1.98 4.33 -3.96 4.66 -6 5 C-5.34 4.67 -4.68 4.34 -4 4 C-4 3.34 -4 2.68 -4 2 C-4.99 1.67 -5.98 1.34 -7 1 C-4.50935112 0.31292445 -2.62113708 0 0 0 Z " fill="#62615F" transform="translate(56,35)"/>
<path d="M0 0 C1.32 1.32 2.64 2.64 4 4 C2.625 5.5 2.625 5.5 1 7 C0.34 7 -0.32 7 -1 7 C-0.67 4.69 -0.34 2.38 0 0 Z " fill="#1D1D1D" transform="translate(102,19)"/>
<path d="M0 0 C1.485 0.99 1.485 0.99 3 2 C3 2.66 3 3.32 3 4 C3.99 3.67 4.98 3.34 6 3 C6 3.99 6 4.98 6 6 C5.01 6.33 4.02 6.66 3 7 C2.67 5.68 2.34 4.36 2 3 C1.34 3 0.68 3 0 3 C0 2.01 0 1.02 0 0 Z " fill="#7A7A7A" transform="translate(124,89)"/>
<path d="M0 0 C4.26987623 0 5.59725801 0.63698473 9 3 C9 3.33 9 3.66 9 4 C6.36 3.67 3.72 3.34 1 3 C0.67 2.01 0.34 1.02 0 0 Z " fill="#C99916" transform="translate(14,76)"/>
<path d="M0 0 C0.33 0 0.66 0 1 0 C1 3.3 1 6.6 1 10 C-0.65 10.33 -2.3 10.66 -4 11 C-3.525625 10.29875 -3.05125 9.5975 -2.5625 8.875 C-0.91260143 5.83918663 -0.39631536 3.40831214 0 0 Z " fill="#42413E" transform="translate(26,68)"/>
<path d="M0 0 C0.66 0.33 1.32 0.66 2 1 C2 2.32 2 3.64 2 5 C2.66 5.33 3.32 5.66 4 6 C2.02 6 0.04 6 -2 6 C-2.33 5.01 -2.66 4.02 -3 3 C-2.01 3 -1.02 3 0 3 C0 2.01 0 1.02 0 0 Z " fill="#393838" transform="translate(143,68)"/>
<path d="M0 0 C-0.33 1.65 -0.66 3.3 -1 5 C-2.32 5 -3.64 5 -5 5 C-5 3.68 -5 2.36 -5 1 C-2 0 -2 0 0 0 Z " fill="#9F9F9F" transform="translate(70,63)"/>
<path d="M0 0 C0.66 0 1.32 0 2 0 C3.33333333 2.66666667 4.66666667 5.33333333 6 8 C4.68 7.67 3.36 7.34 2 7 C1.34 4.69 0.68 2.38 0 0 Z " fill="#40403F" transform="translate(146,57)"/>
<path d="M0 0 C3.375 4.5 3.375 4.5 4 8 C2.02 8.99 2.02 8.99 0 10 C0 6.7 0 3.4 0 0 Z " fill="#646464" transform="translate(124,48)"/>
<path d="M0 0 C1.32 0.66 2.64 1.32 4 2 C4 4 4 4 2.5 5.625 C2.005 6.07875 1.51 6.5325 1 7 C0.34 6.67 -0.32 6.34 -1 6 C-0.67 4.02 -0.34 2.04 0 0 Z " fill="#5A5959" transform="translate(147,50)"/>
<path d="M0 0 C0.97608217 2.92824652 1.08226668 4.95613276 1 8 C0.01 8.33 -0.98 8.66 -2 9 C-2.6875 7.3125 -2.6875 7.3125 -3 5 C-1.5625 2.25 -1.5625 2.25 0 0 Z " fill="#7F7764" transform="translate(141,38)"/>
<path d="M0 0 C2.97 0.495 2.97 0.495 6 1 C5.67 1.99 5.34 2.98 5 4 C3.35 4 1.7 4 0 4 C0 2.68 0 1.36 0 0 Z " fill="#B1B1B1" transform="translate(108,94)"/>
<path d="M0 0 C-0.33 0.66 -0.66 1.32 -1 2 C-3.875 2.75 -3.875 2.75 -7 3 C-7.99 2.34 -8.98 1.68 -10 1 C-6.78548731 -0.60725635 -3.56387464 -0.05748185 0 0 Z " fill="#ADADAD" transform="translate(125,88)"/>
<path d="M0 0 C-2.97 2.475 -2.97 2.475 -6 5 C-6.33 3.35 -6.66 1.7 -7 0 C-3.98968256 -0.93423645 -3.13349732 -1.04449911 0 0 Z " fill="#444444" transform="translate(40,87)"/>
<path d="M0 0 C0.99 0.33 1.98 0.66 3 1 C3 2.65 3 4.3 3 6 C2.01 6 1.02 6 0 6 C-0.38218767 4.34385343 -0.71395102 2.67542976 -1 1 C-0.67 0.67 -0.34 0.34 0 0 Z " fill="#969696" transform="translate(76,73)"/>
<path d="M0 0 C0.66 0 1.32 0 2 0 C3.61949011 2.57213134 4.04408751 3.67669159 3.625 6.75 C3.41875 7.4925 3.2125 8.235 3 9 C1.35173889 6.03312999 0.55728913 3.34373475 0 0 Z " fill="#525252" transform="translate(53,66)"/>
<path d="M0 0 C1.65 0 3.3 0 5 0 C4.34 1.32 3.68 2.64 3 4 C1.68 4 0.36 4 -1 4 C-0.67 2.68 -0.34 1.36 0 0 Z " fill="#919191" transform="translate(92,64)"/>
<path d="M0 0 C0 2.31 0 4.62 0 7 C-0.66 7 -1.32 7 -2 7 C-2.66 5.02 -3.32 3.04 -4 1 C-2 0 -2 0 0 0 Z " fill="#909090" transform="translate(81,60)"/>
<path d="M0 0 C3.465 1.485 3.465 1.485 7 3 C6.67 3.66 6.34 4.32 6 5 C5.34 5 4.68 5 4 5 C3.67 5.66 3.34 6.32 3 7 C2.34 6.67 1.68 6.34 1 6 C0.375 2.9375 0.375 2.9375 0 0 Z " fill="#5C5C5C" transform="translate(73,54)"/>
<path d="M0 0 C0.99 0 1.98 0 3 0 C4.0625 1.8125 4.0625 1.8125 5 4 C4.67 4.99 4.34 5.98 4 7 C2.35 5.02 0.7 3.04 -1 1 C-0.67 0.67 -0.34 0.34 0 0 Z " fill="#4E4E4E" transform="translate(70,53)"/>
<path d="M0 0 C0.99 0 1.98 0 3 0 C2.8125 1.875 2.8125 1.875 2 4 C-0.5625 5.25 -0.5625 5.25 -3 6 C-2.01 4.02 -1.02 2.04 0 0 Z " fill="#413B2A" transform="translate(32,39)"/>
<path d="M0 0 C0.99 0.33 1.98 0.66 3 1 C3 2.32 3 3.64 3 5 C1.35 5 -0.3 5 -2 5 C-1.34 4.67 -0.68 4.34 0 4 C0 2.68 0 1.36 0 0 Z " fill="#828282" transform="translate(75,35)"/>
<path d="M0 0 C0.66 0.33 1.32 0.66 2 1 C1.67 1.66 1.34 2.32 1 3 C2.32 3.33 3.64 3.66 5 4 C2.35261084 5.4606285 1.10551666 6 -2 6 C-2 5.01 -2 4.02 -2 3 C-1.34 3 -0.68 3 0 3 C0 2.01 0 1.02 0 0 Z " fill="#63615C" transform="translate(100,31)"/>
<path d="M0 0 C2.375 0.3125 2.375 0.3125 5 1 C5.66 1.99 6.32 2.98 7 4 C6.67 4.99 6.34 5.98 6 7 C5.01 5.68 4.02 4.36 3 3 C2.01 3.495 2.01 3.495 1 4 C0.67 2.68 0.34 1.36 0 0 Z " fill="#6A624D" transform="translate(76,30)"/>
<path d="M0 0 C0.66 0 1.32 0 2 0 C2.33 1.65 2.66 3.3 3 5 C2.01 5.495 2.01 5.495 1 6 C-1.125 5.0625 -1.125 5.0625 -3 4 C-2.01 3.67 -1.02 3.34 0 3 C0 2.01 0 1.02 0 0 Z " fill="#A3A3A3" transform="translate(144,75)"/>
<path d="M0 0 C0.66 1.32 1.32 2.64 2 4 C-0.31 4.66 -2.62 5.32 -5 6 C-3.625 4 -3.625 4 -2 2 C-1.34 2 -0.68 2 0 2 C0 1.34 0 0.68 0 0 Z " fill="#787878" transform="translate(41,58)"/>
<path d="M0 0 C0.66 0 1.32 0 2 0 C2.33 1.65 2.66 3.3 3 5 C1.68 5 0.36 5 -1 5 C-1.33 4.34 -1.66 3.68 -2 3 C-1.34 3 -0.68 3 0 3 C0 2.01 0 1.02 0 0 Z " fill="#4F4F4F" transform="translate(100,55)"/>
<path d="M0 0 C1.5 1.3125 1.5 1.3125 3 3 C3 3.99 3 4.98 3 6 C1.68 5.67 0.36 5.34 -1 5 C-0.67 3.35 -0.34 1.7 0 0 Z " fill="#99958B" transform="translate(81,51)"/>
<path d="M0 0 C2.475 0.495 2.475 0.495 5 1 C5 1.66 5 2.32 5 3 C4.34 3 3.68 3 3 3 C3 3.66 3 4.32 3 5 C2.01 4.67 1.02 4.34 0 4 C0 2.68 0 1.36 0 0 Z " fill="#AEAEAE" transform="translate(118,50)"/>
<path d="M0 0 C0.99 0.33 1.98 0.66 3 1 C4.1875 3.5625 4.1875 3.5625 5 6 C4.01 6 3.02 6 2 6 C2 5.34 2 4.68 2 4 C1.01 3.67 0.02 3.34 -1 3 C-0.67 2.01 -0.34 1.02 0 0 Z " fill="#373737" transform="translate(100,43)"/>
<path d="M0 0 C0.33 1.32 0.66 2.64 1 4 C-1.92824652 4.97608217 -3.95613276 5.08226668 -7 5 C-3.375 2 -3.375 2 0 2 C0 1.34 0 0.68 0 0 Z " fill="#939086" transform="translate(55,31)"/>
<path d="M0 0 C1.65 0.33 3.3 0.66 5 1 C5 1.66 5 2.32 5 3 C3.02 3 1.04 3 -1 3 C-0.67 2.01 -0.34 1.02 0 0 Z " fill="#26241E" transform="translate(72,30)"/>
<path d="M0 0 C0.99 0.33 1.98 0.66 3 1 C2.34 3.31 1.68 5.62 1 8 C0.01 7.67 -0.98 7.34 -2 7 C-1.34 4.69 -0.68 2.38 0 0 Z " fill="#2F2F2F" transform="translate(99,26)"/>
</svg>
