<?xml version="1.0" encoding="UTF-8"?>
<svg version="1.1" xmlns="http://www.w3.org/2000/svg" width="160" height="100">
<path d="M0 0 C52.8 0 105.6 0 160 0 C160 33 160 66 160 100 C107.2 100 54.4 100 0 100 C0 67 0 34 0 0 Z " fill="#A9A9A9" transform="translate(0,0)"/>
<path d="M0 0 C52.8 0 105.6 0 160 0 C160 33 160 66 160 100 C156.04 100 152.08 100 148 100 C148 82.84 148 65.68 148 48 C135.46 48 122.92 48 110 48 C109.67 43.38 109.34 38.76 109 34 C108.01 33.01 107.02 32.02 106 31 C106 30.34 106 29.68 106 29 C88.18 29 70.36 29 52 29 C50.56872241 32.57819397 49.59312431 35.37498864 48.875 39.0625 C48.70742188 39.89910156 48.53984375 40.73570313 48.3671875 41.59765625 C47.89927277 44.25397272 47.89927277 44.25397272 48 48 C35.46 48 22.92 48 10 48 C10 65.16 10 82.32 10 100 C6.7 100 3.4 100 0 100 C0 67 0 34 0 0 Z " fill="#FDB800" transform="translate(0,0)"/>
<path d="M0 0 C12.21 0 24.42 0 37 0 C37.020625 4.723125 37.04125 9.44625 37.0625 14.3125 C37.071604 15.79919189 37.08070801 17.28588379 37.09008789 18.81762695 C37.09258545 19.98769287 37.09508301 21.15775879 37.09765625 22.36328125 C37.10289307 23.56251221 37.10812988 24.76174316 37.11352539 25.99731445 C37 29 37 29 36 32 C35.8535286 33.55266653 35.75305926 35.10995662 35.68359375 36.66796875 C35.62643188 37.8748938 35.62643188 37.8748938 35.56811523 39.10620117 C35.52501221 40.12302979 35.48190918 41.1398584 35.4375 42.1875 C35.293125 45.425625 35.14875 48.66375 35 52 C23.45 52 11.9 52 0 52 C0 34.84 0 17.68 0 0 Z " fill="#C4C4C4" transform="translate(10,48)"/>
<path d="M0 0 C0.99 0.33 1.98 0.66 3 1 C2.01 2.485 2.01 2.485 1 4 C7.27 4 13.54 4 20 4 C20 4.66 20 5.32 20 6 C22.64 6 25.28 6 28 6 C28 5.34 28 4.68 28 4 C28.66 4 29.32 4 30 4 C30 4.66 30 5.32 30 6 C31.98 6 33.96 6 36 6 C36.33 5.34 36.66 4.68 37 4 C39.82445592 3.05851469 41.14171618 2.92688305 44.01171875 3.12109375 C44.76904297 3.16943359 45.52636719 3.21777344 46.30664062 3.26757812 C47.09232422 3.32365234 47.87800781 3.37972656 48.6875 3.4375 C49.48478516 3.48970703 50.28207031 3.54191406 51.10351562 3.59570312 C53.06936522 3.72519022 55.03473665 3.86190041 57 4 C56.505 2.515 56.505 2.515 56 1 C57.32 1 58.64 1 60 1 C60 9.25 60 17.5 60 26 C56.7 26 53.4 26 50 26 C50 27.32 50 28.64 50 30 C49.34 30 48.68 30 48 30 C47.505 28.515 47.505 28.515 47 27 C45.68 27 44.36 27 43 27 C43 27.99 43 28.98 43 30 C39.7 30 36.4 30 33 30 C33.33 29.34 33.66 28.68 34 28 C32.35 27.67 30.7 27.34 29 27 C29 27.99 29 28.98 29 30 C27.68 30 26.36 30 25 30 C25 29.01 25 28.02 25 27 C24.34 27.99 23.68 28.98 23 30 C22.34 30 21.68 30 21 30 C20.67 29.01 20.34 28.02 20 27 C20 29.31 20 31.62 20 34 C20.90878906 33.83628906 21.81757812 33.67257813 22.75390625 33.50390625 C28.12880056 32.73606421 33.52021545 32.8937851 38.9375 32.9375 C40.53561523 32.94426758 40.53561523 32.94426758 42.16601562 32.95117188 C44.77740291 32.96288213 47.38867124 32.97928276 50 33 C50 33.99 50 34.98 50 36 C32.84 36 15.68 36 -2 36 C-2.33 29.07 -2.66 22.14 -3 15 C-2.01 14.67 -1.02 14.34 0 14 C0 13.01 0 12.02 0 11 C-0.66 11 -1.32 11 -2 11 C-2 7.7 -2 4.4 -2 1 C-1.34 0.67 -0.68 0.34 0 0 Z " fill="#D9D9D9" transform="translate(50,64)"/>
<path d="M0 0 C1.41086632 -0.00596695 1.41086632 -0.00596695 2.85023499 -0.01205444 C4.45220985 -0.03569565 4.45220985 -0.03569565 6.08654785 -0.05981445 C7.23969986 -0.0496933 8.39285187 -0.03957214 9.58094788 -0.02914429 C10.76580276 -0.03392792 11.95065765 -0.03871155 13.17141724 -0.04364014 C15.67895331 -0.047045 18.18653341 -0.03780192 20.69398499 -0.01693726 C24.53556797 0.00979272 28.37422235 -0.01665695 32.2157135 -0.04867554 C34.64996476 -0.04537108 37.08421419 -0.03896412 39.51844788 -0.02914429 C40.66957565 -0.03926544 41.82070343 -0.0493866 43.00671387 -0.05981445 C50.93122292 0.05678764 50.93122292 0.05678764 54.34779358 2.94082642 C56.0155543 6.48341344 56.05644295 9.62234001 55.86610413 13.44741821 C55.84805725 14.14028931 55.83001038 14.8331604 55.81141663 15.54702759 C55.76461477 17.24359485 55.69288036 18.93944297 55.61610413 20.63491821 C53.96610413 20.96491821 52.31610413 21.29491821 50.61610413 21.63491821 C50.61610413 22.29491821 50.61610413 22.95491821 50.61610413 23.63491821 C48.96610413 23.63491821 47.31610413 23.63491821 45.61610413 23.63491821 C45.12110413 25.11991821 45.12110413 25.11991821 44.61610413 26.63491821 C43.29610413 26.30491821 41.97610413 25.97491821 40.61610413 25.63491821 C40.61610413 24.64491821 40.61610413 23.65491821 40.61610413 22.63491821 C39.62610413 22.63491821 38.63610413 22.63491821 37.61610413 22.63491821 C37.61610413 23.95491821 37.61610413 25.27491821 37.61610413 26.63491821 C36.95610413 26.63491821 36.29610413 26.63491821 35.61610413 26.63491821 C36.11110413 28.61491821 36.11110413 28.61491821 36.61610413 30.63491821 C33.61610413 32.63491821 33.61610413 32.63491821 30.91688538 32.39273071 C29.93075256 32.18390259 28.94461975 31.97507446 27.92860413 31.75991821 C26.93473694 31.55624634 25.94086975 31.35257446 24.91688538 31.14273071 C24.15762756 30.97515259 23.39836975 30.80757446 22.61610413 30.63491821 C23.27610413 29.31491821 23.93610413 27.99491821 24.61610413 26.63491821 C23.62610413 26.30491821 22.63610413 25.97491821 21.61610413 25.63491821 C25.36610413 24.50991821 25.36610413 24.50991821 27.61610413 25.63491821 C27.61610413 24.31491821 27.61610413 22.99491821 27.61610413 21.63491821 C26.33993225 21.64651978 25.06376038 21.65812134 23.74891663 21.67007446 C22.07964725 21.67945238 20.4103763 21.68855258 18.74110413 21.69741821 C17.89934631 21.70579712 17.0575885 21.71417603 16.19032288 21.72280884 C15.38465881 21.72603149 14.57899475 21.72925415 13.74891663 21.73257446 C12.63347473 21.74042969 12.63347473 21.74042969 11.49549866 21.7484436 C9.61610413 21.63491821 9.61610413 21.63491821 7.61610413 20.63491821 C6.07941547 20.41023991 4.53642359 20.22695016 2.99110413 20.07241821 C2.1738385 19.98862915 1.35657288 19.90484009 0.51454163 19.81851196 C-0.42518494 19.72763306 -0.42518494 19.72763306 -1.38389587 19.63491821 C-1.65202087 20.58366821 -1.92014587 21.53241821 -2.19639587 22.50991821 C-3.38389587 25.63491821 -3.38389587 25.63491821 -6.38389587 27.63491821 C-9.573419 2.54974982 -9.573419 2.54974982 0 0 Z " fill="#B2B2B2" transform="translate(54.38389587402344,28.365081787109375)"/>
<path d="M0 0 C11.88 0 23.76 0 36 0 C36 17.16 36 34.32 36 52 C23.79 52 11.58 52 -1 52 C-1 50 -1 50 0.5 48.375 C1.2425 47.694375 1.2425 47.694375 2 47 C1.34 47 0.68 47 0 47 C0 45.02 0 43.04 0 41 C0.99 41 1.98 41 3 41 C2.01 40.67 1.02 40.34 0 40 C-0.88376862 35.91257012 -1.34972126 33.04916379 0 29 C1.98 29 3.96 29 6 29 C4.02 28.67 2.04 28.34 0 28 C3 26 3 26 5.6875 26.375 C6.8321875 26.684375 6.8321875 26.684375 8 27 C8 26.34 8 25.68 8 25 C5.69 25 3.38 25 1 25 C1 23.68 1 22.36 1 21 C6.70118778 17.95936652 9.7107739 17.88191536 16 19 C16 18.34 16 17.68 16 17 C28 17 28 17 31 18 C31 22.29 31 26.58 31 31 C31.99 31 32.98 31 34 31 C33.99476318 30.42032471 33.98952637 29.84064941 33.98413086 29.2434082 C33.96325666 26.5997833 33.95030673 23.95617579 33.9375 21.3125 C33.92912109 20.40048828 33.92074219 19.48847656 33.91210938 18.54882812 C33.90888672 17.66259766 33.90566406 16.77636719 33.90234375 15.86328125 C33.89710693 15.05157471 33.89187012 14.23986816 33.88647461 13.40356445 C34.0070209 10.85135327 34.440051 8.48973863 35 6 C33.89785156 6.01160156 32.79570312 6.02320313 31.66015625 6.03515625 C21.06456535 6.11041905 10.56840722 5.74915292 0 5 C0 4.67 0 4.34 0 4 C10.23 4 20.46 4 31 4 C31 3.34 31 2.68 31 2 C20.77 2 10.54 2 0 2 C0 1.34 0 0.68 0 0 Z " fill="#C3C3C3" transform="translate(112,48)"/>
<path d="M0 0 C12.21 0 24.42 0 37 0 C37 8.58 37 17.16 37 26 C35.68 26.33 34.36 26.66 33 27 C31.8422494 23.52674819 31.93133348 20.63932552 32 17 C31.34 16.67 30.68 16.34 30 16 C30.33 14.02 30.66 12.04 31 10 C26.0630761 13.17638458 26.0630761 13.17638458 23.53515625 18.1796875 C23.52623538 20.62022609 23.52623538 20.62022609 24 24 C20.97580475 23.41196203 17.98241547 22.77321882 15 22 C15.33 20.35 15.66 18.7 16 17 C17.98 17.33 19.96 17.66 22 18 C20.68 16.68 19.36 15.36 18 14 C16.02 14.99 16.02 14.99 14 16 C13.01 15.01 12.02 14.02 11 13 C11.99 12.67 12.98 12.34 14 12 C14 11.34 14 10.68 14 10 C11.69 10 9.38 10 7 10 C7 12.31 7 14.62 7 17 C7.66 17 8.32 17 9 17 C9 17.99 9 18.98 9 20 C8.34 20 7.68 20 7 20 C7.165 20.680625 7.33 21.36125 7.5 22.0625 C8.59814505 28.51410219 7.74002142 33.80117371 6 40 C6.66 40 7.32 40 8 40 C8 40.66 8 41.32 8 42 C7.34 42 6.68 42 6 42 C6.66 42.66 7.32 43.32 8 44 C8.66 44 9.32 44 10 44 C10 44.66 10 45.32 10 46 C9.01 46.66 8.02 47.32 7 48 C7 49.32 7 50.64 7 52 C4.69 52 2.38 52 0 52 C0 34.84 0 17.68 0 0 Z " fill="#CCCBCB" transform="translate(10,48)"/>
<path d="M0 0 C0.33 0 0.66 0 1 0 C1.33 2.31 1.66 4.62 2 7 C3.32 4.69 4.64 2.38 6 0 C10.14520662 -0.08459605 14.14341189 -0.13178279 18.25 0.5 C23.82636434 1.24351524 29.38267822 1.0760239 35 1 C35.495 2.485 35.495 2.485 36 4 C35.67 4.66 35.34 5.32 35 6 C33.35 6 31.7 6 30 6 C30.99 6.99 31.98 7.98 33 9 C29.125 10 29.125 10 28 10 C28 10.66 28 11.32 28 12 C28.66 12.33 29.32 12.66 30 13 C29.34 13 28.68 13 28 13 C28 13.66 28 14.32 28 15 C39.55 15.33 51.1 15.66 63 16 C62.01 16.66 61.02 17.32 60 18 C60 18.66 60 19.32 60 20 C58.73542969 19.97679688 57.47085938 19.95359375 56.16796875 19.9296875 C54.5078184 19.91092874 52.84766167 19.89272865 51.1875 19.875 C50.35412109 19.85824219 49.52074219 19.84148437 48.66210938 19.82421875 C47.85966797 19.81777344 47.05722656 19.81132813 46.23046875 19.8046875 C45.49207764 19.79421387 44.75368652 19.78374023 43.99291992 19.77294922 C41.68109324 19.88258521 41.68109324 19.88258521 39 22 C35.8125 22.125 35.8125 22.125 33 22 C33 21.34 33 20.68 33 20 C32.34 20 31.68 20 31 20 C31 20.66 31 21.32 31 22 C28.36 22 25.72 22 23 22 C23 21.34 23 20.68 23 20 C16.73 20 10.46 20 4 20 C4.33 19.01 4.66 18.02 5 17 C3.68 17 2.36 17 1 17 C1.185625 18.27875 1.37125 19.5575 1.5625 20.875 C2.125 24.75 2.125 24.75 1 27 C1.66 27 2.32 27 3 27 C3 27.99 3 28.98 3 30 C2.34 30.33 1.68 30.66 1 31 C1 37.93 1 44.86 1 52 C0.01 52 -0.98 52 -2 52 C-2 44.41 -2 36.82 -2 29 C-1.34 29 -0.68 29 0 29 C0 28.34 0 27.68 0 27 C-0.66 26.67 -1.32 26.34 -2 26 C-1.34 26 -0.68 26 0 26 C0 18.41 0 10.82 0 3 C-0.99 2.67 -1.98 2.34 -3 2 C-2.01 2 -1.02 2 0 2 C0 1.34 0 0.68 0 0 Z " fill="#CFCFCF" transform="translate(47,48)"/>
<path d="M0 0 C0.33 0.66 0.66 1.32 1 2 C11.23 2 21.46 2 32 2 C32 2.66 32 3.32 32 4 C27.38 4.33 22.76 4.66 18 5 C23.94 5.33 29.88 5.66 36 6 C36.14285714 23 36.14285714 23 35 31 C34.01 31 33.02 31 32 31 C32 26.71 32 22.42 32 18 C27.11785113 16.41074435 27.11785113 16.41074435 24 19 C20.3125 18.125 20.3125 18.125 17 17 C17 17.66 17 18.32 17 19 C14 19 11 19 8 19 C7.01 19.66 6.02 20.32 5 21 C4.01 21 3.02 21 2 21 C2 21.66 2 22.32 2 23 C1.34 23 0.68 23 0 23 C0.33 21.02 0.66 19.04 1 17 C1.66 17 2.32 17 3 17 C3.33 15.68 3.66 14.36 4 13 C2.68 13.99 1.36 14.98 0 16 C-0.1958009 14.08416353 -0.38132214 12.16727461 -0.5625 10.25 C-0.66691406 9.18265625 -0.77132812 8.1153125 -0.87890625 7.015625 C-0.98560074 4.35858796 -0.81930395 2.50039428 0 0 Z " fill="#B5B5B5" transform="translate(111,48)"/>
<path d="M0 0 C1.41086632 -0.00596695 1.41086632 -0.00596695 2.85023499 -0.01205444 C4.45220985 -0.03569565 4.45220985 -0.03569565 6.08654785 -0.05981445 C7.23969986 -0.0496933 8.39285187 -0.03957214 9.58094788 -0.02914429 C10.76580276 -0.03392792 11.95065765 -0.03871155 13.17141724 -0.04364014 C15.67895331 -0.047045 18.18653341 -0.03780192 20.69398499 -0.01693726 C24.53556797 0.00979272 28.37422235 -0.01665695 32.2157135 -0.04867554 C34.64996476 -0.04537108 37.08421419 -0.03896412 39.51844788 -0.02914429 C40.66957565 -0.03926544 41.82070343 -0.0493866 43.00671387 -0.05981445 C50.83366925 0.05535222 50.83366925 0.05535222 54.37220764 2.67642212 C55.61610413 5.63491821 55.61610413 5.63491821 55.61610413 13.63491821 C49.01610413 13.63491821 42.41610413 13.63491821 35.61610413 13.63491821 C35.61610413 12.97491821 35.61610413 12.31491821 35.61610413 11.63491821 C42.54610413 10.64491821 42.54610413 10.64491821 49.61610413 9.63491821 C49.12110413 7.65491821 49.12110413 7.65491821 48.61610413 5.63491821 C47.95610413 5.63491821 47.29610413 5.63491821 46.61610413 5.63491821 C46.28610413 6.29491821 45.95610413 6.95491821 45.61610413 7.63491821 C44.62610413 6.97491821 43.63610413 6.31491821 42.61610413 5.63491821 C42.61610413 6.29491821 42.61610413 6.95491821 42.61610413 7.63491821 C36.61429043 7.85316598 31.42376708 7.14060861 25.61610413 5.63491821 C25.61610413 6.29491821 25.61610413 6.95491821 25.61610413 7.63491821 C17.20110413 8.12991821 17.20110413 8.12991821 8.61610413 8.63491821 C8.61610413 7.97491821 8.61610413 7.31491821 8.61610413 6.63491821 C7.62610413 6.63491821 6.63610413 6.63491821 5.61610413 6.63491821 C5.28610413 7.62491821 4.95610413 8.61491821 4.61610413 9.63491821 C3.95610413 8.64491821 3.29610413 7.65491821 2.61610413 6.63491821 C0.47755563 8.77346671 0.1895535 9.76767135 -0.38389587 12.63491821 C-2.03389587 12.63491821 -3.68389587 12.63491821 -5.38389587 12.63491821 C-5.6891977 7.44478724 -5.95047889 1.58482905 0 0 Z " fill="#DEDDDC" transform="translate(54.38389587402344,28.365081787109375)"/>
<path d="M0 0 C1.92578125 0.2421875 1.92578125 0.2421875 4.3125 0.875 C10.55378645 2.30053541 16.62967115 2.17972715 23 2 C23 1.34 23 0.68 23 0 C28.61 0.66 34.22 1.32 40 2 C40 1.34 40 0.68 40 0 C42 0 44 0 46 0 C46.66 1.32 47.32 2.64 48 4 C42.87080814 6.10428384 38.4389165 6.21755666 33 6 C33 6.66 33 7.32 33 8 C39.6 8 46.2 8 53 8 C53 8.66 53 9.32 53 10 C32.54 10 12.08 10 -9 10 C-9 7.36 -9 4.72 -9 2 C-8.67 2 -8.34 2 -8 2 C-8 3.65 -8 5.3 -8 7 C-6.35 7 -4.7 7 -3 7 C-2.814375 5.824375 -2.814375 5.824375 -2.625 4.625 C-2 2 -2 2 0 0 Z " fill="#8B8B8B" transform="translate(57,34)"/>
<path d="M0 0 C0.33 0 0.66 0 1 0 C1.33 2.31 1.66 4.62 2 7 C3.32 4.69 4.64 2.38 6 0 C10.14520662 -0.08459605 14.14341189 -0.13178279 18.25 0.5 C23.82636434 1.24351524 29.38267822 1.0760239 35 1 C35.495 2.485 35.495 2.485 36 4 C35.67 4.66 35.34 5.32 35 6 C33.02 5.67 31.04 5.34 29 5 C28.67 5.66 28.34 6.32 28 7 C26.68 6.67 25.36 6.34 24 6 C24 5.34 24 4.68 24 4 C21.69 4 19.38 4 17 4 C17 4.66 17 5.32 17 6 C16.34 6 15.68 6 15 6 C15 5.34 15 4.68 15 4 C14.01 4.99 13.02 5.98 12 7 C12.33 7.66 12.66 8.32 13 9 C13 9.99 13 10.98 13 12 C12.34 12 11.68 12 11 12 C10.67 12.66 10.34 13.32 10 14 C14.455 13.505 14.455 13.505 19 13 C19.33 12.01 19.66 11.02 20 10 C21.32 10.66 22.64 11.32 24 12 C23.01 12.495 23.01 12.495 22 13 C22 13.99 22 14.98 22 16 C21.154375 15.98839844 20.30875 15.97679687 19.4375 15.96484375 C13.18439382 15.91510313 7.17994069 16.03059754 1 17 C1.185625 18.27875 1.37125 19.5575 1.5625 20.875 C2.125 24.75 2.125 24.75 1 27 C1.66 27 2.32 27 3 27 C3 27.99 3 28.98 3 30 C2.34 30.33 1.68 30.66 1 31 C1 37.93 1 44.86 1 52 C0.01 52 -0.98 52 -2 52 C-2 44.41 -2 36.82 -2 29 C-1.34 29 -0.68 29 0 29 C0 28.34 0 27.68 0 27 C-0.66 26.67 -1.32 26.34 -2 26 C-1.34 26 -0.68 26 0 26 C0 18.41 0 10.82 0 3 C-0.99 2.67 -1.98 2.34 -3 2 C-2.01 2 -1.02 2 0 2 C0 1.34 0 0.68 0 0 Z " fill="#868686" transform="translate(47,48)"/>
<path d="M0 0 C3.96 0 7.92 0 12 0 C12 0.33 12 0.66 12 1 C10.02 1 8.04 1 6 1 C6 1.66 6 2.32 6 3 C6.99 3.33 7.98 3.66 9 4 C9.66 4.33 10.32 4.66 11 5 C11 4.01 11 3.02 11 2 C11.66 2 12.32 2 13 2 C12.67 3.32 12.34 4.64 12 6 C12.66 6 13.32 6 14 6 C14.33 5.34 14.66 4.68 15 4 C15.99 4.66 16.98 5.32 18 6 C17.67 6.66 17.34 7.32 17 8 C16.34 8 15.68 8 15 8 C14.67 9.65 14.34 11.3 14 13 C14.66 13.33 15.32 13.66 16 14 C16 14.66 16 15.32 16 16 C10.72 16 5.44 16 0 16 C0.33 18.31 0.66 20.62 1 23 C1.33 22.34 1.66 21.68 2 21 C5.52589391 18.55899652 8.81725871 18.61975079 13 19 C14.9375 20.375 14.9375 20.375 16 22 C16 22.66 16 23.32 16 24 C16.99 24.33 17.98 24.66 19 25 C19 25.99 19 26.98 19 28 C12.4 28 5.8 28 -1 28 C-1.33 21.07 -1.66 14.14 -2 7 C-1.01 6.67 -0.02 6.34 1 6 C1 5.01 1 4.02 1 3 C0.34 3 -0.32 3 -1 3 C-0.67 2.01 -0.34 1.02 0 0 Z " fill="#B5B5B5" transform="translate(49,72)"/>
<path d="M0 0 C0.99 0 1.98 0 3 0 C3.495 6.93 3.495 6.93 4 14 C4.99 13.67 5.98 13.34 7 13 C6.67 14.32 6.34 15.64 6 17 C5.34 17 4.68 17 4 17 C3.67 19.64 3.34 22.28 3 25 C2.67 25 2.34 25 2 25 C2 22.03 2 19.06 2 16 C0.56950317 16.00785522 0.56950317 16.00785522 -0.88989258 16.01586914 C-4.42894553 16.03397265 -7.96799438 16.04545161 -11.50708008 16.05493164 C-13.0386626 16.0599596 -14.57024033 16.06678284 -16.10180664 16.07543945 C-18.30356022 16.08757229 -20.50525033 16.09324367 -22.70703125 16.09765625 C-23.39150833 16.10281754 -24.07598541 16.10797882 -24.78120422 16.11329651 C-27.80906242 16.1136536 -30.10150142 15.96616619 -33 15 C-33.33 12.69 -33.66 10.38 -34 8 C-32.989375 8.474375 -31.97875 8.94875 -30.9375 9.4375 C-26.27489695 11.43305627 -21.92378848 12.64126283 -17 11 C-17.33 9.68 -17.66 8.36 -18 7 C-17.34 7 -16.68 7 -16 7 C-16 5.68 -16 4.36 -16 3 C-15.01 3 -14.02 3 -13 3 C-13 3.99 -13 4.98 -13 6 C-11.68 6.33 -10.36 6.66 -9 7 C-8.67 5.68 -8.34 4.36 -8 3 C-5.525 3.495 -5.525 3.495 -3 4 C-3 3.34 -3 2.68 -3 2 C-2.01 2 -1.02 2 0 2 C0 1.34 0 0.68 0 0 Z " fill="#888888" transform="translate(108,48)"/>
<path d="M0 0 C11.88 0 23.76 0 36 0 C36 17.16 36 34.32 36 52 C35.505 50.02 35.505 50.02 35 48 C32.69 48 30.38 48 28 48 C28.99 47.505 28.99 47.505 30 47 C30.65213292 44.97536745 30.65213292 44.97536745 31 43 C29.68 42.34 28.36 41.68 27 41 C28.485 40.505 28.485 40.505 30 40 C30.99 40.66 31.98 41.32 33 42 C32.67 41.67 32.34 41.34 32 41 C32 40.34 32 39.68 32 39 C30.68 39 29.36 39 28 39 C28.33 38.01 28.66 37.02 29 36 C29 36.66 29 37.32 29 38 C30.66611905 38.042721 32.33382885 38.04063832 34 38 C34.33 37.67 34.66 37.34 35 37 C34.21625 36.855625 33.4325 36.71125 32.625 36.5625 C30 36 30 36 28 35 C28 34.01 28 33.02 28 32 C29.32 32 30.64 32 32 32 C32 32.66 32 33.32 32 34 C32.66 34 33.32 34 34 34 C33.99476318 33.3294458 33.98952637 32.6588916 33.98413086 31.96801758 C33.96328395 28.916188 33.95031531 25.86437344 33.9375 22.8125 C33.92912109 21.75740234 33.92074219 20.70230469 33.91210938 19.61523438 C33.90888672 18.59365234 33.90566406 17.57207031 33.90234375 16.51953125 C33.89710693 15.58214111 33.89187012 14.64475098 33.88647461 13.67895508 C33.99917343 11.01950523 34.40623351 8.59079427 35 6 C33.89785156 6.01160156 32.79570312 6.02320313 31.66015625 6.03515625 C21.06456535 6.11041905 10.56840722 5.74915292 0 5 C0 4.67 0 4.34 0 4 C10.23 4 20.46 4 31 4 C31 3.34 31 2.68 31 2 C20.77 2 10.54 2 0 2 C0 1.34 0 0.68 0 0 Z " fill="#C9C3B3" transform="translate(112,48)"/>
<path d="M0 0 C2.31 0 4.62 0 7 0 C7 0.66 7 1.32 7 2 C6.01 2.33 5.02 2.66 4 3 C4.33 3.66 4.66 4.32 5 5 C5.33 4.67 5.66 4.34 6 4 C6.99 3.814375 6.99 3.814375 8 3.625 C8.66 3.41875 9.32 3.2125 10 3 C10.33 2.01 10.66 1.02 11 0 C11.99 0.99 12.98 1.98 14 3 C13.67 3.66 13.34 4.32 13 5 C14.32 5.33 15.64 5.66 17 6 C17 6.99 17 7.98 17 9 C16.34 9 15.68 9 15 9 C15 9.66 15 10.32 15 11 C15.66 11.33 16.32 11.66 17 12 C16.01 12.99 15.02 13.98 14 15 C14.99 15.33 15.98 15.66 17 16 C17 16.66 17 17.32 17 18 C11.39 18 5.78 18 0 18 C-1.24816245 11.75918776 -1.55416131 6.21664524 0 0 Z " fill="#ACACAC" transform="translate(91,71)"/>
<path d="M0 0 C1.84765625 0.33984375 1.84765625 0.33984375 4.0625 0.9375 C5.16271484 1.22947266 5.16271484 1.22947266 6.28515625 1.52734375 C7.13400391 1.76130859 7.13400391 1.76130859 8 2 C8 1.34 8 0.68 8 0 C9.32 0.66 10.64 1.32 12 2 C11.01 3.98 10.02 5.96 9 8 C10.32 7.34 11.64 6.68 13 6 C13.33 6.99 13.66 7.98 14 9 C16.97 9.495 16.97 9.495 20 10 C20.33 10.99 20.66 11.98 21 13 C18.69 12.67 16.38 12.34 14 12 C14 12.66 14 13.32 14 14 C6.41 14 -1.18 14 -9 14 C-8.67 13.34 -8.34 12.68 -8 12 C-6.02 12 -4.04 12 -2 12 C-4.97 11.505 -4.97 11.505 -8 11 C-5 9 -5 9 -2.3125 9.375 C-1.549375 9.58125 -0.78625 9.7875 0 10 C0 9.34 0 8.68 0 8 C-2.31 8 -4.62 8 -7 8 C-7 6.68 -7 5.36 -7 4 C-5.5459375 3.2884375 -5.5459375 3.2884375 -4.0625 2.5625 C-1.19522563 1.29806053 -1.19522563 1.29806053 0 0 Z " fill="#C7C7C7" transform="translate(120,65)"/>
<path d="M0 0 C2.31 0 4.62 0 7 0 C7 0.66 7 1.32 7 2 C6.01 2.495 6.01 2.495 5 3 C5 3.66 5 4.32 5 5 C6.32 5 7.64 5 9 5 C9.66 4.34 10.32 3.68 11 3 C13 4.375 13 4.375 15 6 C15 6.66 15 7.32 15 8 C13.02 8 11.04 8 9 8 C9.33 9.32 9.66 10.64 10 12 C12.31 12.66 14.62 13.32 17 14 C16.731875 12.783125 16.46375 11.56625 16.1875 10.3125 C15.70692254 6.59954535 15.81107272 6.24665505 18.25 3.0625 C21 1 21 1 24 0 C24 1.98 24 3.96 24 6 C21.525 5.505 21.525 5.505 19 5 C19 6.32 19 7.64 19 9 C19.66 9 20.32 9 21 9 C20.67 9.99 20.34 10.98 20 12 C20 12.66 20 13.32 20 14 C22.475 14.495 22.475 14.495 25 15 C25 15.66 25 16.32 25 17 C20.05 17 15.1 17 10 17 C9.67 15.68 9.34 14.36 9 13 C8.01 13.99 7.02 14.98 6 16 C6.66 16.33 7.32 16.66 8 17 C5.36 17 2.72 17 0 17 C0 14.69 0 12.38 0 10 C0.66 10 1.32 10 2 10 C2 9.01 2 8.02 2 7 C1.34 7 0.68 7 0 7 C0 4.69 0 2.38 0 0 Z " fill="#B2B2B2" transform="translate(17,58)"/>
<path d="M0 0 C0 1.65 0 3.3 0 5 C-0.66 5 -1.32 5 -2 5 C-2 4.34 -2 3.68 -2 3 C-2.66 3 -3.32 3 -4 3 C-3.67 4.65 -3.34 6.3 -3 8 C-2.67 7.67 -2.34 7.34 -2 7 C-1.34 7 -0.68 7 0 7 C0 8.65 0 10.3 0 12 C-1.65 12.66 -3.3 13.32 -5 14 C-5 14.99 -5 15.98 -5 17 C-3.35 17.33 -1.7 17.66 0 18 C-3.58083091 20.3872206 -5.1425103 21.1257166 -9.3515625 21.09765625 C-10.20234375 21.09443359 -11.053125 21.09121094 -11.9296875 21.08789062 C-12.81914062 21.07951172 -13.70859375 21.07113281 -14.625 21.0625 C-15.5221875 21.05798828 -16.419375 21.05347656 -17.34375 21.04882812 C-19.56256648 21.03702591 -21.78125018 21.02056155 -24 21 C-24 19.68 -24 18.36 -24 17 C-22.18757948 16.97312721 -20.37504767 16.95366285 -18.5625 16.9375 C-17.55316406 16.92589844 -16.54382813 16.91429688 -15.50390625 16.90234375 C-13 17 -13 17 -12 18 C-11.67 17.34 -11.34 16.68 -11 16 C-11.66 15.67 -12.32 15.34 -13 15 C-12.34 14.67 -11.68 14.34 -11 14 C-11.33 13.67 -11.66 13.34 -12 13 C-12.07258946 10.81360547 -12.08373783 8.62499611 -12.0625 6.4375 C-12.05347656 5.23996094 -12.04445313 4.04242188 -12.03515625 2.80859375 C-12.02355469 1.88175781 -12.01195312 0.95492187 -12 0 C-11.39285156 0.185625 -10.78570312 0.37125 -10.16015625 0.5625 C-6.04874917 1.39519004 -4.23745641 -1.41248547 0 0 Z M-5 9 C-4 11 -4 11 -4 11 Z " fill="#BABABA" transform="translate(42,79)"/>
<path d="M0 0 C1.32 0 2.64 0 4 0 C4 8.25 4 16.5 4 25 C0.7 25 -2.6 25 -6 25 C-6 26.32 -6 27.64 -6 29 C-6.66 29 -7.32 29 -8 29 C-8.33 28.01 -8.66 27.02 -9 26 C-10.32 26 -11.64 26 -13 26 C-13.33 26.66 -13.66 27.32 -14 28 C-14.33 26.68 -14.66 25.36 -15 24 C-9.06975197 23.02959578 -3.93609666 23.10683731 2 24 C2 23.34 2 22.68 2 22 C0.02 21.67 -1.96 21.34 -4 21 C-3.360625 20.443125 -2.72125 19.88625 -2.0625 19.3125 C0.19680987 16.77933439 0.63149047 15.31658576 1 12 C0.01 11.67 -0.98 11.34 -2 11 C-3.1875 8.9375 -3.1875 8.9375 -4 7 C-4.33 7.66 -4.66 8.32 -5 9 C-5.99 9.33 -6.98 9.66 -8 10 C-7.67 10.66 -7.34 11.32 -7 12 C-8.65 12 -10.3 12 -12 12 C-11.67 11.01 -11.34 10.02 -11 9 C-11.66 8.67 -12.32 8.34 -13 8 C-11.35 8 -9.7 8 -8 8 C-8 7.34 -8 6.68 -8 6 C-8.99 6.33 -9.98 6.66 -11 7 C-13.1875 6.5625 -13.1875 6.5625 -15 6 C-15.33 7.32 -15.66 8.64 -16 10 C-16 8.68 -16 7.36 -16 6 C-17.32 6 -18.64 6 -20 6 C-19.67 5.01 -19.34 4.02 -19 3 C-16.17554408 2.05851469 -14.85828382 1.92688305 -11.98828125 2.12109375 C-11.23095703 2.16943359 -10.47363281 2.21777344 -9.69335938 2.26757812 C-8.90767578 2.32365234 -8.12199219 2.37972656 -7.3125 2.4375 C-6.51521484 2.48970703 -5.71792969 2.54191406 -4.89648438 2.59570312 C-2.93063478 2.72519022 -0.96526335 2.86190041 1 3 C0.67 2.01 0.34 1.02 0 0 Z " fill="#D4D4D4" transform="translate(106,65)"/>
<path d="M0 0 C1.65 0 3.3 0 5 0 C5 0.66 5 1.32 5 2 C5.66 2.33 6.32 2.66 7 3 C7.33 2.01 7.66 1.02 8 0 C10.31 0 12.62 0 15 0 C15.66 1.98 16.32 3.96 17 6 C17.66 6 18.32 6 19 6 C19 6.66 19 7.32 19 8 C16.69 8 14.38 8 12 8 C11.67 6.35 11.34 4.7 11 3 C11 5.83967231 11.40267181 8.23735711 12 11 C12.66 11 13.32 11 14 11 C14 10.34 14 9.68 14 9 C14.66 9 15.32 9 16 9 C16.38063221 11.3260857 16.71269945 13.66055264 17 16 C16 17 16 17 12.40234375 17.09765625 C10.91403133 17.0909822 9.42573568 17.07902183 7.9375 17.0625 C7.17888672 17.05798828 6.42027344 17.05347656 5.63867188 17.04882812 C3.75908129 17.0370068 1.87953101 17.01907078 0 17 C0 14.69 0 12.38 0 10 C2.31 9.34 4.62 8.68 7 8 C7 8.99 7 9.98 7 11 C7.33 11 7.66 11 8 11 C8 9.35 8 7.7 8 6 C5.36 6.66 2.72 7.32 0 8 C0 5.36 0 2.72 0 0 Z " fill="#ADADAD" transform="translate(69,71)"/>
<path d="M0 0 C1.65 0 3.3 0 5 0 C5.66 0.66 6.32 1.32 7 2 C7 1.34 7 0.68 7 0 C11.62 0 16.24 0 21 0 C21 0.99 21 1.98 21 3 C20.34 3 19.68 3 19 3 C19 3.99 19 4.98 19 6 C18.01 5.67 17.02 5.34 16 5 C16.66 6.32 17.32 7.64 18 9 C18.45375 8.34 18.9075 7.68 19.375 7 C19.91125 6.34 20.4475 5.68 21 5 C21.66 5 22.32 5 23 5 C23.33 6.65 23.66 8.3 24 10 C18.98386688 11.08456932 15.04907609 10.89761353 10 10 C10 10.66 10 11.32 10 12 C6.66666667 12 3.33333333 12 0 12 C0 8.04 0 4.08 0 0 Z " fill="#626262" transform="translate(118,55)"/>
<path d="M0 0 C0.66 0 1.32 0 2 0 C2 0.66 2 1.32 2 2 C4.64 2 7.28 2 10 2 C10.1875 4.3125 10.1875 4.3125 10 7 C9 8 8 9 7 10 C7.22757731 12.16299211 7.22757731 12.16299211 8 14 C8.66 14 9.32 14 10 14 C10 12.68 10 11.36 10 10 C10.66 10 11.32 10 12 10 C12.33 11.65 12.66 13.3 13 15 C12.030625 14.979375 11.06125 14.95875 10.0625 14.9375 C7.12534105 14.64381501 7.12534105 14.64381501 6 16 C3.81360547 16.07258946 1.62499611 16.08373783 -0.5625 16.0625 C-2.35880859 16.04896484 -2.35880859 16.04896484 -4.19140625 16.03515625 C-5.11824219 16.02355469 -6.04507813 16.01195313 -7 16 C-7.33 16.99 -7.66 17.98 -8 19 C-9.98 19 -11.96 19 -14 19 C-14 17 -14 17 -12.5 15.375 C-12.005 14.92125 -11.51 14.4675 -11 14 C-11.66 14 -12.32 14 -13 14 C-13 12.02 -13 10.04 -13 8 C-12.34 8 -11.68 8 -11 8 C-11 8.66 -11 9.32 -11 10 C-9.68 10 -8.36 10 -7 10 C-7.33 11.65 -7.66 13.3 -8 15 C-6.35 14.67 -4.7 14.34 -3 14 C-2.71125 13.05125 -2.4225 12.1025 -2.125 11.125 C-1 8 -1 8 1 6 C1 3.97549079 0.40533225 1.97599474 0 0 Z " fill="#C7C7C7" transform="translate(125,81)"/>
<path d="M0 0 C9.57 0 19.14 0 29 0 C29.14285714 17 29.14285714 17 28 25 C27.01 25 26.02 25 25 25 C25 20.71 25 16.42 25 12 C24.01 11.67 23.02 11.34 22 11 C22.66 11 23.32 11 24 11 C23.67 9.35 23.34 7.7 23 6 C22.34 6 21.68 6 21 6 C20.34 7.32 19.68 8.64 19 10 C18.01 10 17.02 10 16 10 C16 8.68 16 7.36 16 6 C16.99 5.67 17.98 5.34 19 5 C17.68 4.34 16.36 3.68 15 3 C17.07553648 2.4465236 18.84365964 2 21 2 C14.07 1.505 14.07 1.505 7 1 C7.33 2.32 7.66 3.64 8 5 C7.608125 4.525625 7.21625 4.05125 6.8125 3.5625 C4.59191626 1.64820367 2.86624291 1.38733012 0 1 C0 0.67 0 0.34 0 0 Z " fill="#AFAFAF" transform="translate(118,54)"/>
<path d="M0 0 C0.66 0.33 1.32 0.66 2 1 C2 1.66 2 2.32 2 3 C2.66 3.33 3.32 3.66 4 4 C4.33 3.34 4.66 2.68 5 2 C5.99 2.66 6.98 3.32 8 4 C8 3.34 8 2.68 8 2 C8.99 2 9.98 2 11 2 C11 4.31 11 6.62 11 9 C10.01 8.67 9.02 8.34 8 8 C8 7.34 8 6.68 8 6 C7.34 6 6.68 6 6 6 C6.33 7.32 6.66 8.64 7 10 C8.32 10 9.64 10 11 10 C11 11.65 11 13.3 11 15 C10.01 15 9.02 15 8 15 C8 15.99 8 16.98 8 18 C5.36 18 2.72 18 0 18 C-0.33 19.32 -0.66 20.64 -1 22 C-1.33 20.35 -1.66 18.7 -2 17 C-0.68 16.67 0.64 16.34 2 16 C2 15.34 2 14.68 2 14 C1.01 14.33 0.02 14.66 -1 15 C-1.33 14.01 -1.66 13.02 -2 12 C-1.34 12 -0.68 12 0 12 C0 11.34 0 10.68 0 10 C-0.66 10 -1.32 10 -2 10 C-2.17942163 6.05272412 -2.09350689 3.4019487 0 0 Z " fill="#BDBDBD" transform="translate(18,78)"/>
<path d="M0 0 C2.31 0 4.62 0 7 0 C6.34 1.65 5.68 3.3 5 5 C5.99 5 6.98 5 8 5 C7.67 5.99 7.34 6.98 7 8 C-2.57 8 -12.14 8 -22 8 C-22 5.69 -22 3.38 -22 1 C-21.01 1.495 -21.01 1.495 -20 2 C-20.33 2.66 -20.66 3.32 -21 4 C-20.34 3.34 -19.68 2.68 -19 2 C-18.34 1.67 -17.68 1.34 -17 1 C-17 1.99 -17 2.98 -17 4 C-15.68 4 -14.36 4 -13 4 C-13 3.01 -13 2.02 -13 1 C-9.7 1 -6.4 1 -3 1 C-3 1.33 -3 1.66 -3 2 C-4.65 2.33 -6.3 2.66 -8 3 C-5.03 3.33 -2.06 3.66 1 4 C0.67 2.68 0.34 1.36 0 0 Z " fill="#8B8B8B" transform="translate(92,90)"/>
<path d="M0 0 C0.66 0 1.32 0 2 0 C2 0.66 2 1.32 2 2 C2.66 2 3.32 2 4 2 C4 1.34 4 0.68 4 0 C6.31 0 8.62 0 11 0 C11.33 0.66 11.66 1.32 12 2 C12.99 2 13.98 2 15 2 C17.125 2.3125 17.125 2.3125 19 3 C19.33 3.99 19.66 4.98 20 6 C17.525 5.505 17.525 5.505 15 5 C15 5.99 15 6.98 15 8 C15.66 8.33 16.32 8.66 17 9 C16.34 9 15.68 9 15 9 C15 9.66 15 10.32 15 11 C15.99 11.33 16.98 11.66 18 12 C15.03 12 12.06 12 9 12 C9.33 10.68 9.66 9.36 10 8 C9.01 7.67 8.02 7.34 7 7 C6.67 7.66 6.34 8.32 6 9 C3.93359375 9.4140625 3.93359375 9.4140625 1.4375 9.625 C0.19806641 9.73714844 0.19806641 9.73714844 -1.06640625 9.8515625 C-2.02353516 9.92503906 -2.02353516 9.92503906 -3 10 C-2 7 -2 7 -1 6 C-1.33 5.01 -1.66 4.02 -2 3 C-1.34 2.01 -0.68 1.02 0 0 Z " fill="#B2B2B2" transform="translate(60,52)"/>
<path d="M0 0 C1.32 0 2.64 0 4 0 C4.14090482 15.0298476 3.73696984 29.98815948 3 45 C2.01 45 1.02 45 0 45 C0 30.15 0 15.3 0 0 Z " fill="#C0C0C0" transform="translate(10,55)"/>
<path d="M0 0 C2.20703125 0.2421875 2.20703125 0.2421875 4.8125 0.875 C8.30922783 1.71082904 11.40039493 2.11632476 15 2 C14.67 2.99 14.34 3.98 14 5 C14.62648438 4.98839844 15.25296875 4.97679687 15.8984375 4.96484375 C16.71570313 4.95582031 17.53296875 4.94679688 18.375 4.9375 C19.18710938 4.92589844 19.99921875 4.91429687 20.8359375 4.90234375 C23 5 23 5 25 6 C25 6.66 25 7.32 25 8 C13.78 8 2.56 8 -9 8 C-9 6.02 -9 4.04 -9 2 C-8.67 2 -8.34 2 -8 2 C-8 3.65 -8 5.3 -8 7 C-6.35 7 -4.7 7 -3 7 C-2.814375 5.824375 -2.814375 5.824375 -2.625 4.625 C-2 2 -2 2 0 0 Z " fill="#C8C8C6" transform="translate(57,34)"/>
<path d="M0 0 C4.14520662 -0.08459605 8.14341189 -0.13178279 12.25 0.5 C17.82636434 1.24351524 23.38267822 1.0760239 29 1 C29.33 1.99 29.66 2.98 30 4 C29.67 4.66 29.34 5.32 29 6 C26.03 5.505 26.03 5.505 23 5 C22.67 5.66 22.34 6.32 22 7 C20.68 6.67 19.36 6.34 18 6 C18 5.34 18 4.68 18 4 C15.69 4 13.38 4 11 4 C11 4.66 11 5.32 11 6 C10.34 6 9.68 6 9 6 C9 5.34 9 4.68 9 4 C7.02 4.99 7.02 4.99 5 6 C5 5.34 5 4.68 5 4 C4.34 4 3.68 4 3 4 C3 4.66 3 5.32 3 6 C1.35 5.67 -0.3 5.34 -2 5 C-1.34 3.35 -0.68 1.7 0 0 Z " fill="#515151" transform="translate(53,48)"/>
<path d="M0 0 C10.56 0 21.12 0 32 0 C32 0.33 32 0.66 32 1 C27.05 1.33 22.1 1.66 17 2 C22.28 2.33 27.56 2.66 33 3 C33 3.33 33 3.66 33 4 C24.09 4 15.18 4 6 4 C5.34 5.98 4.68 7.96 4 10 C3.01 10.66 2.02 11.32 1 12 C0.67 8.04 0.34 4.08 0 0 Z " fill="#DFDEDE" transform="translate(47,44)"/>
<path d="M0 0 C11.55 0 23.1 0 35 0 C35 1.65 35 3.3 35 5 C27.39644962 6.09783883 20.09859121 5.93135165 12.4375 5.5625 C11.23802734 5.51029297 10.03855469 5.45808594 8.80273438 5.40429688 C5.86815657 5.27568988 2.93401479 5.14077908 0 5 C0 4.67 0 4.34 0 4 C10.23 4 20.46 4 31 4 C31 3.34 31 2.68 31 2 C20.77 2 10.54 2 0 2 C0 1.34 0 0.68 0 0 Z " fill="#DFDEDC" transform="translate(112,48)"/>
<path d="M0 0 C2.475 0.99 2.475 0.99 5 2 C5 6.29 5 10.58 5 15 C4.01 14.34 3.02 13.68 2 13 C2 12.34 2 11.68 2 11 C0.576875 11.0928125 0.576875 11.0928125 -0.875 11.1875 C-1.90625 11.125625 -2.9375 11.06375 -4 11 C-4.66 10.01 -5.32 9.02 -6 8 C-6.99 8.33 -7.98 8.66 -9 9 C-7.125 3.25 -7.125 3.25 -6 1 C-5.38125 1.20625 -4.7625 1.4125 -4.125 1.625 C-3.073125 1.810625 -3.073125 1.810625 -2 2 C-1.34 1.34 -0.68 0.68 0 0 Z " fill="#CACACA" transform="translate(138,64)"/>
<path d="M0 0 C0.99 0 1.98 0 3 0 C3 0.99 3 1.98 3 3 C3.66 3 4.32 3 5 3 C5.33 4.65 5.66 6.3 6 8 C5.34 8 4.68 8 4 8 C4 8.99 4 9.98 4 11 C2.4221875 10.938125 2.4221875 10.938125 0.8125 10.875 C-2.85307422 10.75458799 -2.85307422 10.75458799 -5.375 12.0625 C-9.32117364 13.47184773 -12.92821208 12.65645383 -17 12 C-17.33 9.69 -17.66 7.38 -18 5 C-16.989375 5.474375 -15.97875 5.94875 -14.9375 6.4375 C-10.27489695 8.43305627 -5.92378848 9.64126283 -1 8 C-1.33 6.68 -1.66 5.36 -2 4 C-1.34 4 -0.68 4 0 4 C0 2.68 0 1.36 0 0 Z " fill="#4A4A4A" transform="translate(92,51)"/>
<path d="M0 0 C1.9375 1.375 1.9375 1.375 3 3 C3 3.66 3 4.32 3 5 C3.99 5.33 4.98 5.66 6 6 C5.67 6.66 5.34 7.32 5 8 C-0.61 8 -6.22 8 -12 8 C-12.33 7.01 -12.66 6.02 -13 5 C-12.34 5 -11.68 5 -11 5 C-11 4.01 -11 3.02 -11 2 C-7.35969312 -0.3297964 -4.24881273 -0.3862557 0 0 Z " fill="#414141" transform="translate(62,91)"/>
<path d="M0 0 C8.91 0 17.82 0 27 0 C27 0.33 27 0.66 27 1 C25.77023438 1.09087891 25.77023438 1.09087891 24.515625 1.18359375 C22.89914063 1.30927734 22.89914063 1.30927734 21.25 1.4375 C20.18265625 1.51871094 19.1153125 1.59992187 18.015625 1.68359375 C15.54904436 1.94239301 13.38026059 2.3545056 11 3 C8.66905466 3.3496418 6.33595238 3.68554487 4 4 C4.185625 4.5775 4.37125 5.155 4.5625 5.75 C5.04023546 8.20692525 4.75729364 9.64397534 4 12 C1.39417629 12.93065133 0.35801776 13.14917407 -2.25 12.0625 C-2.8275 11.711875 -3.405 11.36125 -4 11 C-3.34 10.67 -2.68 10.34 -2 10 C-2 9.34 -2 8.68 -2 8 C-2.99 7.67 -3.98 7.34 -5 7 C-1.25 5.875 -1.25 5.875 1 7 C0.67 4.69 0.34 2.38 0 0 Z " fill="#D3D3D3" transform="translate(81,47)"/>
<path d="M0 0 C3.96 0 7.92 0 12 0 C12 0.33 12 0.66 12 1 C10.02 1 8.04 1 6 1 C6 1.66 6 2.32 6 3 C6.99 3.33 7.98 3.66 9 4 C9.66 4.33 10.32 4.66 11 5 C11 4.01 11 3.02 11 2 C11.66 2 12.32 2 13 2 C12.67 3.32 12.34 4.64 12 6 C12.66 6 13.32 6 14 6 C14.33 5.34 14.66 4.68 15 4 C15.99 4.66 16.98 5.32 18 6 C17.67 6.66 17.34 7.32 17 8 C16.34 8 15.68 8 15 8 C14.67 9.65 14.34 11.3 14 13 C13.34 13 12.68 13 12 13 C12 12.34 12 11.68 12 11 C10.68 10.67 9.36 10.34 8 10 C7.938125 9.071875 7.938125 9.071875 7.875 8.125 C7.58625 7.42375 7.2975 6.7225 7 6 C4.08333333 4.75 4.08333333 4.75 1 4 C0.34 3.67 -0.32 3.34 -1 3 C-0.67 2.01 -0.34 1.02 0 0 Z " fill="#B0B0B0" transform="translate(49,72)"/>
<path d="M0 0 C1.32 0.66 2.64 1.32 4 2 C3.01 3.98 2.02 5.96 1 8 C2.32 7.34 3.64 6.68 5 6 C5.33 6.99 5.66 7.98 6 9 C8.97 9.495 8.97 9.495 12 10 C12.33 10.99 12.66 11.98 13 13 C10.69 12.67 8.38 12.34 6 12 C6 12.66 6 13.32 6 14 C1.17639811 14.19294408 -2.49646738 13.75747614 -7 12 C-6.67 11.34 -6.34 10.68 -6 10 C-3.03 10.495 -3.03 10.495 0 11 C0.33 10.34 0.66 9.68 1 9 C0.34 9 -0.32 9 -1 9 C-1.125 2.25 -1.125 2.25 0 0 Z " fill="#989898" transform="translate(128,65)"/>
<path d="M0 0 C1.54204102 -0.0309375 1.54204102 -0.0309375 3.11523438 -0.0625 C4.09685547 -0.06765625 5.07847656 -0.0728125 6.08984375 -0.078125 C7.44710571 -0.09214355 7.44710571 -0.09214355 8.83178711 -0.10644531 C9.56792236 0.01118164 10.30405762 0.12880859 11.0625 0.25 C11.7225 1.24 12.3825 2.23 13.0625 3.25 C12.299375 3.20875 11.53625 3.1675 10.75 3.125 C7.83531584 3.02919176 7.83531584 3.02919176 5.0625 5.25 C1.875 5.375 1.875 5.375 -0.9375 5.25 C-0.9375 4.59 -0.9375 3.93 -0.9375 3.25 C-1.5975 3.25 -2.2575 3.25 -2.9375 3.25 C-2.9375 3.91 -2.9375 4.57 -2.9375 5.25 C-5.5775 5.25 -8.2175 5.25 -10.9375 5.25 C-11.5 3.3125 -11.5 3.3125 -11.9375 1.25 C-9.50908891 -1.17841109 -3.26195062 0.01629957 0 0 Z " fill="#A7A7A7" transform="translate(80.9375,64.75)"/>
<path d="M0 0 C0.66 0.33 1.32 0.66 2 1 C4.37123246 1.23029956 6.74741943 1.41119942 9.125 1.5625 C10.40632813 1.64628906 11.68765625 1.73007813 13.0078125 1.81640625 C14.48894531 1.90728516 14.48894531 1.90728516 16 2 C16 2.99 16 3.98 16 5 C6.1 5 -3.8 5 -14 5 C-13.67 4.01 -13.34 3.02 -13 2 C-8.71 2 -4.42 2 0 2 C0 1.34 0 0.68 0 0 Z " fill="#DEDEDD" transform="translate(131,95)"/>
<path d="M0 0 C0.99 0 1.98 0 3 0 C3 1.98 3 3.96 3 6 C1.35 5.67 -0.3 5.34 -2 5 C-2 6.32 -2 7.64 -2 9 C-1.34 9 -0.68 9 0 9 C-0.33 9.99 -0.66 10.98 -1 12 C-1 12.66 -1 13.32 -1 14 C0.65 14.33 2.3 14.66 4 15 C4 15.66 4 16.32 4 17 C-0.62 17 -5.24 17 -10 17 C-10.33 15.35 -10.66 13.7 -11 12 C-8.69 12.66 -6.38 13.32 -4 14 C-4.268125 12.783125 -4.53625 11.56625 -4.8125 10.3125 C-5.109375 8.109375 -5.109375 8.109375 -5 6 C-2.5625 3.0625 -2.5625 3.0625 0 1 C0 0.67 0 0.34 0 0 Z " fill="#A5A5A5" transform="translate(38,58)"/>
<path d="M0 0 C2.02350324 3.03525486 2.32124018 4.19426202 2.625 7.6875 C2.69976562 8.49574219 2.77453125 9.30398437 2.8515625 10.13671875 C2.92503906 11.05904297 2.92503906 11.05904297 3 12 C3.99 11.67 4.98 11.34 6 11 C5.67 12.32 5.34 13.64 5 15 C4.34 15 3.68 15 3 15 C2.67 17.64 2.34 20.28 2 23 C1.67 23 1.34 23 1 23 C1 20.03 1 17.06 1 14 C-2.96 14 -6.92 14 -11 14 C-11 13.34 -11 12.68 -11 12 C-8.03 12.33 -5.06 12.66 -2 13 C-2 12.34 -2 11.68 -2 11 C-2.99 10.67 -3.98 10.34 -5 10 C-5 9.34 -5 8.68 -5 8 C-4.195625 7.87625 -3.39125 7.7525 -2.5625 7.625 C-1.716875 7.41875 -0.87125 7.2125 0 7 C0.33 6.34 0.66 5.68 1 5 C0.01 5.33 -0.98 5.66 -2 6 C-2.33 4.35 -2.66 2.7 -3 1 C-2.01 0.67 -1.02 0.34 0 0 Z " fill="#575757" transform="translate(109,50)"/>
<path d="M0 0 C3.3 0 6.6 0 10 0 C9.01 0.495 9.01 0.495 8 1 C8.185625 1.598125 8.37125 2.19625 8.5625 2.8125 C9 5 9 5 8 8 C7.96079185 9.99961564 7.95556653 12.00049364 8 14 C4.97580475 13.41196203 1.98241547 12.77321882 -1 12 C-0.67 10.35 -0.34 8.7 0 7 C2.97 7.495 2.97 7.495 6 8 C5.195625 7.236875 4.39125 6.47375 3.5625 5.6875 C1 3 1 3 0 0 Z " fill="#B8B8B8" transform="translate(26,58)"/>
<path d="M0 0 C9.57 0 19.14 0 29 0 C28.67 0.99 28.34 1.98 28 3 C27.2575 3.04125 26.515 3.0825 25.75 3.125 C21.92403742 4.34235173 21.10619736 6.7002908 19 10 C18.01 10 17.02 10 16 10 C16 8.68 16 7.36 16 6 C16.99 5.67 17.98 5.34 19 5 C17.68 4.34 16.36 3.68 15 3 C17.07553648 2.4465236 18.84365964 2 21 2 C14.07 1.505 14.07 1.505 7 1 C7.33 2.32 7.66 3.64 8 5 C7.608125 4.525625 7.21625 4.05125 6.8125 3.5625 C4.59191626 1.64820367 2.86624291 1.38733012 0 1 C0 0.67 0 0.34 0 0 Z " fill="#959595" transform="translate(118,54)"/>
<path d="M0 0 C1.81242052 -0.02687279 3.62495233 -0.04633715 5.4375 -0.0625 C6.44683594 -0.07410156 7.45617187 -0.08570312 8.49609375 -0.09765625 C11 0 11 0 12 1 C13.85772162 0.91015699 15.71247985 0.75388139 17.5625 0.5625 C18.57441406 0.46066406 19.58632813 0.35882813 20.62890625 0.25390625 C21.41136719 0.17011719 22.19382812 0.08632812 23 0 C23.33 0.66 23.66 1.32 24 2 C19.15577153 4.54748246 14.50839624 4.22816428 9.1875 4.125 C8.30384766 4.11597656 7.42019531 4.10695313 6.50976562 4.09765625 C4.33972641 4.07419637 2.16982753 4.03832865 0 4 C0 2.68 0 1.36 0 0 Z " fill="#ACACAC" transform="translate(18,96)"/>
<path d="M0 0 C0.33 0 0.66 0 1 0 C1 1.98 1 3.96 1 6 C1.90878906 5.83628906 2.81757812 5.67257813 3.75390625 5.50390625 C9.12880056 4.73606421 14.52021545 4.8937851 19.9375 4.9375 C21.53561523 4.94426758 21.53561523 4.94426758 23.16601562 4.95117188 C25.77740291 4.96288213 28.38867124 4.97928276 31 5 C31 5.99 31 6.98 31 8 C20.44 8 9.88 8 -1 8 C-1.33 7.01 -1.66 6.02 -2 5 C-1.34 5 -0.68 5 0 5 C0 3.35 0 1.7 0 0 Z " fill="#CECECE" transform="translate(69,92)"/>
<path d="M0 0 C1.32 0.66 2.64 1.32 4 2 C3.01 2.495 3.01 2.495 2 3 C2 3.99 2 4.98 2 6 C-4.93 6 -11.86 6 -19 6 C-19 4.68 -19 3.36 -19 2 C-16.03 2 -13.06 2 -10 2 C-10 2.66 -10 3.32 -10 4 C-5.545 3.505 -5.545 3.505 -1 3 C-0.67 2.01 -0.34 1.02 0 0 Z " fill="#262626" transform="translate(67,58)"/>
<path d="M0 0 C0.66 0 1.32 0 2 0 C3 2 3 2 3 12 C14.22 12 25.44 12 37 12 C37 12.33 37 12.66 37 13 C24.79 13 12.58 13 0 13 C0 8.71 0 4.42 0 0 Z " fill="#E7A800" transform="translate(110,35)"/>
<path d="M0 0 C0.33 0.99 0.66 1.98 1 3 C2.65 3 4.3 3 6 3 C5.67 3.99 5.34 4.98 5 6 C4.34 6 3.68 6 3 6 C3 5.34 3 4.68 3 4 C0.36 4 -2.28 4 -5 4 C-5.33 4.66 -5.66 5.32 -6 6 C-6 5.34 -6 4.68 -6 4 C-6.66 4 -7.32 4 -8 4 C-8 4.66 -8 5.32 -8 6 C-9.32 6 -10.64 6 -12 6 C-12 5.34 -12 4.68 -12 4 C-13.65 4 -15.3 4 -17 4 C-17.33 4.66 -17.66 5.32 -18 6 C-18 5.34 -18 4.68 -18 4 C-23.55053286 4.74359673 -23.55053286 4.74359673 -29 6 C-29.33 5.01 -29.66 4.02 -30 3 C-27.47958689 2.80332911 -24.95911728 2.61745683 -22.4375 2.4375 C-21.73302734 2.38142578 -21.02855469 2.32535156 -20.30273438 2.26757812 C-15.68561569 1.94842246 -11.5591248 2.19121965 -7 3 C-7 2.34 -7 1.68 -7 1 C-4.69 1.33 -2.38 1.66 0 2 C0 1.34 0 0.68 0 0 Z " fill="#D9D9D9" transform="translate(141,76)"/>
<path d="M0 0 C7.92 0 15.84 0 24 0 C24 0.33 24 0.66 24 1 C22.7934375 1.185625 22.7934375 1.185625 21.5625 1.375 C20.716875 1.58125 19.87125 1.7875 19 2 C18.67 2.66 18.34 3.32 18 4 C15.20880221 4.22114415 12.4178788 4.42743301 9.625 4.625 C8.8309375 4.68945312 8.036875 4.75390625 7.21875 4.8203125 C5.14971776 4.96058587 3.07374464 4.98758237 1 5 C0.34 4.34 -0.32 3.68 -1 3 C-0.34 2.67 0.32 2.34 1 2 C0.67 1.34 0.34 0.68 0 0 Z " fill="#A3A3A3" transform="translate(63,45)"/>
<path d="M0 0 C0.66 0 1.32 0 2 0 C2 0.66 2 1.32 2 2 C3.32 2 4.64 2 6 2 C5.67 3.65 5.34 5.3 5 7 C7.47266765 6.65555119 7.47266765 6.65555119 10 6 C10.33 5.34 10.66 4.68 11 4 C12.32 4 13.64 4 15 4 C15.33 3.34 15.66 2.68 16 2 C16.66 2 17.32 2 18 2 C17.67 3.32 17.34 4.64 17 6 C15.35 6 13.7 6 12 6 C12 6.66 12 7.32 12 8 C10.02 8 8.04 8 6 8 C5.67 8.99 5.34 9.98 5 11 C3.02 11 1.04 11 -1 11 C-1 9 -1 9 0.5 7.375 C0.995 6.92125 1.49 6.4675 2 6 C1.34 6 0.68 6 0 6 C0 4.02 0 2.04 0 0 Z " fill="#D0D0D0" transform="translate(112,89)"/>
<path d="M0 0 C0.66 0 1.32 0 2 0 C2 3.96 2 7.92 2 12 C-10.21 12 -22.42 12 -35 12 C-35 11.67 -35 11.34 -35 11 C-23.78 11 -12.56 11 -1 11 C-1 8.36 -1 5.72 -1 3 C-0.67 2.01 -0.34 1.02 0 0 Z " fill="#E9AA00" transform="translate(46,36)"/>
<path d="M0 0 C0.66 0 1.32 0 2 0 C2 0.99 2 1.98 2 3 C2.66 3 3.32 3 4 3 C4.33 2.01 4.66 1.02 5 0 C5.33 2.31 5.66 4.62 6 7 C4.35 7 2.7 7 1 7 C1 7.66 1 8.32 1 9 C-3.62 9 -8.24 9 -13 9 C-9.39247116 6.59498078 -7.54643242 5.75397666 -3.25 6.4375 C-2.5075 6.623125 -1.765 6.80875 -1 7 C-0.67 4.69 -0.34 2.38 0 0 Z " fill="#9F9F9F" transform="translate(97,55)"/>
<path d="M0 0 C0.99 0.33 1.98 0.66 3 1 C3 7.27 3 13.54 3 20 C2.01 20 1.02 20 0 20 C0 13.4 0 6.8 0 0 Z " fill="#646464" transform="translate(45,80)"/>
<path d="M0 0 C2.64 0 5.28 0 8 0 C8.04254356 1.99954746 8.04080783 4.00041636 8 6 C7 7 7 7 5.15234375 7.09765625 C3.1015625 7.06510417 1.05078125 7.03255208 -1 7 C-0.67 4.69 -0.34 2.38 0 0 Z " fill="#7B7B7B" transform="translate(101,93)"/>
<path d="M0 0 C2 0 4 0 6 0 C6.66 1.32 7.32 2.64 8 4 C7 5 7 5 3.9375 5.0625 C2.968125 5.041875 1.99875 5.02125 1 5 C1 4.34 1 3.68 1 3 C0.34 3 -0.32 3 -1 3 C-1 3.66 -1 4.32 -1 5 C-3.97 5 -6.94 5 -10 5 C-9.34 3.68 -8.68 2.36 -8 1 C-5.36 1.33 -2.72 1.66 0 2 C0 1.34 0 0.68 0 0 Z " fill="#7B7B7B" transform="translate(97,34)"/>
<path d="M0 0 C2.66916589 0.61009506 4.55724946 0.15756263 7.1875 -0.5 C7.1875 0.49 7.1875 1.48 7.1875 2.5 C6.1975 2.5 5.2075 2.5 4.1875 2.5 C4.1875 3.49 4.1875 4.48 4.1875 5.5 C1.5475 5.5 -1.0925 5.5 -3.8125 5.5 C-4.1425 6.82 -4.4725 8.14 -4.8125 9.5 C-5.1425 7.85 -5.4725 6.2 -5.8125 4.5 C-4.4925 4.17 -3.1725 3.84 -1.8125 3.5 C-1.8125 2.84 -1.8125 2.18 -1.8125 1.5 C-2.4725 1.17 -3.1325 0.84 -3.8125 0.5 C-1.8125 -0.5 -1.8125 -0.5 0 0 Z " fill="#C1C1C1" transform="translate(21.8125,90.5)"/>
<path d="M0 0 C0.66 0 1.32 0 2 0 C2 0.66 2 1.32 2 2 C3.32 1.67 4.64 1.34 6 1 C5.34 2.98 4.68 4.96 4 7 C4.66 7 5.32 7 6 7 C6 7.66 6 8.32 6 9 C1.545 9.495 1.545 9.495 -3 10 C-2 7 -2 7 -1 6 C-1.33 5.01 -1.66 4.02 -2 3 C-1.34 2.01 -0.68 1.02 0 0 Z " fill="#B7B7B7" transform="translate(60,52)"/>
<path d="M0 0 C5.61 0 11.22 0 17 0 C16.01 0.66 15.02 1.32 14 2 C14 2.66 14 3.32 14 4 C10.04 4 6.08 4 2 4 C1.34 2.68 0.68 1.36 0 0 Z " fill="#BABABA" transform="translate(93,64)"/>
<path d="M0 0 C0.33 0 0.66 0 1 0 C1.06058594 1.05960938 1.12117188 2.11921875 1.18359375 3.2109375 C1.26800127 4.59897221 1.35264917 5.98699232 1.4375 7.375 C1.47681641 8.07367188 1.51613281 8.77234375 1.55664062 9.4921875 C1.74280134 13.37360492 1.74280134 13.37360492 3 17 C2.34 17 1.68 17 1 17 C1.185625 18.27875 1.37125 19.5575 1.5625 20.875 C2.125 24.75 2.125 24.75 1 27 C1.66 27 2.32 27 3 27 C3 27.99 3 28.98 3 30 C1.02 30.99 1.02 30.99 -1 32 C-1.33 31.01 -1.66 30.02 -2 29 C-1.34 29 -0.68 29 0 29 C0 28.34 0 27.68 0 27 C-0.66 26.67 -1.32 26.34 -2 26 C-1.34 26 -0.68 26 0 26 C0 18.41 0 10.82 0 3 C-0.99 2.67 -1.98 2.34 -3 2 C-2.01 2 -1.02 2 0 2 C0 1.34 0 0.68 0 0 Z " fill="#969696" transform="translate(47,48)"/>
<path d="M0 0 C0.66 0.99 1.32 1.98 2 3 C1.67 3.66 1.34 4.32 1 5 C-1.97 5 -4.94 5 -8 5 C-8 4.34 -8 3.68 -8 3 C-8.66 3 -9.32 3 -10 3 C-10.33 3.66 -10.66 4.32 -11 5 C-11 4.01 -11 3.02 -11 2 C-7.36733941 -0.32490278 -4.23998354 -0.39259107 0 0 Z " fill="#7F7F7F" transform="translate(62,91)"/>
<path d="M0 0 C0.99 0.33 1.98 0.66 3 1 C3 3 3 5 3 7 C3.66 7 4.32 7 5 7 C5 5.68 5 4.36 5 3 C5.66 3 6.32 3 7 3 C7.33 4.65 7.66 6.3 8 8 C7.030625 7.979375 6.06125 7.95875 5.0625 7.9375 C2.12534105 7.64381501 2.12534105 7.64381501 1 9 C-1.33297433 9.04092937 -3.66705225 9.04241723 -6 9 C-6 8.34 -6 7.68 -6 7 C-4.35 7 -2.7 7 -1 7 C-0.67 4.69 -0.34 2.38 0 0 Z " fill="#BDBDBD" transform="translate(130,88)"/>
<path d="M0 0 C4.95 0.33 9.9 0.66 15 1 C14.67 1.99 14.34 2.98 14 4 C8.72 4 3.44 4 -2 4 C-1.34 2.68 -0.68 1.36 0 0 Z " fill="#A7A7A7" transform="translate(53,64)"/>
<path d="M0 0 C0.33 0.66 0.66 1.32 1 2 C1.804375 1.979375 2.60875 1.95875 3.4375 1.9375 C6 2 6 2 7 3 C7.14115161 5.67058851 7.04247107 8.32432238 7 11 C4.69 11.33 2.38 11.66 0 12 C0.66 11.67 1.32 11.34 2 11 C2.65213292 8.97536745 2.65213292 8.97536745 3 7 C1.68 6.34 0.36 5.68 -1 5 C-0.01 4.67 0.98 4.34 2 4 C2.99 4.66 3.98 5.32 5 6 C4.67 5.67 4.34 5.34 4 5 C4 4.34 4 3.68 4 3 C2.68 3 1.36 3 0 3 C0 2.01 0 1.02 0 0 Z " fill="#BBBBBB" transform="translate(140,84)"/>
<path d="M0 0 C3.3 0.33 6.6 0.66 10 1 C10 1.66 10 2.32 10 3 C9.34 3 8.68 3 8 3 C7.67 3.99 7.34 4.98 7 6 C4.69 6 2.38 6 0 6 C-1 3 -1 3 0 0 Z " fill="#A5A5A5" transform="translate(91,83)"/>
<path d="M0 0 C1.32 0.33 2.64 0.66 4 1 C3.67 2.98 3.34 4.96 3 7 C0.39417629 7.93065133 -0.64198224 8.14917407 -3.25 7.0625 C-3.8275 6.711875 -4.405 6.36125 -5 6 C-4.34 5.67 -3.68 5.34 -3 5 C-3 4.34 -3 3.68 -3 3 C-3.99 2.67 -4.98 2.34 -6 2 C-2.25 0.875 -2.25 0.875 0 2 C0 1.34 0 0.68 0 0 Z " fill="#C0C0C0" transform="translate(82,52)"/>
<path d="M0 0 C0.33 0.99 0.66 1.98 1 3 C3.64 3 6.28 3 9 3 C9.33 3.99 9.66 4.98 10 6 C10.66 6.33 11.32 6.66 12 7 C8.04 7 4.08 7 0 7 C0 4.69 0 2.38 0 0 Z " fill="#B8B8B8" transform="translate(69,81)"/>
<path d="M0 0 C4.62 0 9.24 0 14 0 C14.33 0.99 14.66 1.98 15 3 C10.05 3 5.1 3 0 3 C0 2.01 0 1.02 0 0 Z " fill="#BCBAB6" transform="translate(47,44)"/>
<path d="M0 0 C0.33 0 0.66 0 1 0 C1 6.27 1 12.54 1 19 C-1.64 19 -4.28 19 -7 19 C-6.34 18.566875 -5.68 18.13375 -5 17.6875 C-4.34 17.130625 -3.68 16.57375 -3 16 C-3 15.01 -3 14.02 -3 13 C-2.34 12.67 -1.68 12.34 -1 12 C-0.53101037 9.1840151 -0.53101037 9.1840151 -0.375 5.9375 C-0.26285156 4.28041016 -0.26285156 4.28041016 -0.1484375 2.58984375 C-0.09945312 1.73519531 -0.05046875 0.88054687 0 0 Z " fill="#BCBCBC" transform="translate(44,81)"/>
<path d="M0 0 C1.32 0.99 2.64 1.98 4 3 C3.67 3.66 3.34 4.32 3 5 C4.32 5.33 5.64 5.66 7 6 C6 7 5 8 4 9 C3.01 9 2.02 9 1 9 C0.67 8.67 0.34 8.34 0 8 C-0.66 8 -1.32 8 -2 8 C-2.66 6.35 -3.32 4.7 -4 3 C-2.68 3 -1.36 3 0 3 C0 2.01 0 1.02 0 0 Z " fill="#B9B9B9" transform="translate(101,71)"/>
<path d="M0 0 C7.42857143 -0.14285714 7.42857143 -0.14285714 11 1 C11.6875 3.3125 11.6875 3.3125 12 6 C10.5625 7.8125 10.5625 7.8125 9 9 C9 8.34 9 7.68 9 7 C8.34 7 7.68 7 7 7 C5 4 5 4 5 1 C4.01 1.33 3.02 1.66 2 2 C1.34 1.34 0.68 0.68 0 0 Z " fill="#DEDEDE" transform="translate(79,70)"/>
<path d="M0 0 C2.475 0.495 2.475 0.495 5 1 C3.68 2.65 2.36 4.3 1 6 C1.66 6 2.32 6 3 6 C3 5.34 3 4.68 3 4 C3.99 4 4.98 4 6 4 C6.33 5.65 6.66 7.3 7 9 C5.68 9 4.36 9 3 9 C2.01 9.33 1.02 9.66 0 10 C0 6.7 0 3.4 0 0 Z " fill="#6C6C6C" transform="translate(118,57)"/>
<path d="M0 0 C0.33 0.99 0.66 1.98 1 3 C0.67 3.66 0.34 4.32 0 5 C-2.97 4.505 -2.97 4.505 -6 4 C-6.33 4.66 -6.66 5.32 -7 6 C-8.5 4.625 -8.5 4.625 -10 3 C-10 2.34 -10 1.68 -10 1 C-6.52674819 -0.1577506 -3.63932552 -0.06866652 0 0 Z " fill="#5E5E5E" transform="translate(82,49)"/>
<path d="M0 0 C5.61 0 11.22 0 17 0 C16.67 0.99 16.34 1.98 16 3 C10.55306686 3.09688221 5.36095333 3.12862175 0 2 C0 1.34 0 0.68 0 0 Z " fill="#5A5A5A" transform="translate(83,95)"/>
<path d="M0 0 C0.99 0.495 0.99 0.495 2 1 C1.67 1.66 1.34 2.32 1 3 C1.66 2.34 2.32 1.68 3 1 C3.66 0.67 4.32 0.34 5 0 C5 1.32 5 2.64 5 4 C7.31 4 9.62 4 12 4 C11.67 4.66 11.34 5.32 11 6 C8.49609375 6.4140625 8.49609375 6.4140625 5.4375 6.625 C4.42558594 6.69976562 3.41367188 6.77453125 2.37109375 6.8515625 C1.58863281 6.90054688 0.80617188 6.94953125 0 7 C0 4.69 0 2.38 0 0 Z " fill="#5F5F5F" transform="translate(70,91)"/>
<path d="M0 0 C0.66 0 1.32 0 2 0 C2 0.66 2 1.32 2 2 C4.31 2 6.62 2 9 2 C9 2.66 9 3.32 9 4 C7.02 4 5.04 4 3 4 C4.65 4.33 6.3 4.66 8 5 C7.67 5.66 7.34 6.32 7 7 C6.05125 6.979375 5.1025 6.95875 4.125 6.9375 C1.09333717 6.77448174 1.09333717 6.77448174 -1 8 C-1.125 2.25 -1.125 2.25 0 0 Z " fill="#8E8E8E" transform="translate(111,71)"/>
<path d="M0 0 C2.97 0 5.94 0 9 0 C9.33 0.66 9.66 1.32 10 2 C9.030625 2.28875 8.06125 2.5775 7.0625 2.875 C3.89335797 3.64214682 3.89335797 3.64214682 3 6 C1.35 5.67 -0.3 5.34 -2 5 C-1.34 3.35 -0.68 1.7 0 0 Z " fill="#5E5E5E" transform="translate(53,48)"/>
<path d="M0 0 C0.66 0 1.32 0 2 0 C2 0.99 2 1.98 2 3 C3.32 3.66 4.64 4.32 6 5 C6 5.33 6 5.66 6 6 C1.05 6 -3.9 6 -9 6 C-8.67 5.34 -8.34 4.68 -8 4 C-6.02 4 -4.04 4 -2 4 C-4.97 3.505 -4.97 3.505 -8 3 C-5 1 -5 1 -2.3125 1.375 C-1.549375 1.58125 -0.78625 1.7875 0 2 C0 1.34 0 0.68 0 0 Z " fill="#BEBEBE" transform="translate(120,73)"/>
<path d="M0 0 C0.99 0.33 1.98 0.66 3 1 C3 2.98 3 4.96 3 7 C1.35 7.33 -0.3 7.66 -2 8 C-2 8.66 -2 9.32 -2 10 C-2.66 10 -3.32 10 -4 10 C-3.67 8.02 -3.34 6.04 -3 4 C-2.34 4 -1.68 4 -1 4 C-0.67 2.68 -0.34 1.36 0 0 Z " fill="#A7A7A7" transform="translate(115,61)"/>
<path d="M0 0 C-0.33 2.31 -0.66 4.62 -1 7 C-2.98 7 -4.96 7 -7 7 C-7.33 6.01 -7.66 5.02 -8 4 C-7.34 4 -6.68 4 -6 4 C-6 3.34 -6 2.68 -6 2 C-6.99 1.67 -7.98 1.34 -9 1 C-5.846632 0.29925156 -3.27275026 0 0 0 Z " fill="#BFBFBF" transform="translate(124,89)"/>
<path d="M0 0 C1.98 0 3.96 0 6 0 C6.33 3.3 6.66 6.6 7 10 C5.68 10.33 4.36 10.66 3 11 C3.33 9.35 3.66 7.7 4 6 C3.01 5.67 2.02 5.34 1 5 C0.67 3.35 0.34 1.7 0 0 Z " fill="#DDDDDD" transform="translate(103,71)"/>
<path d="M0 0 C0.66 0.99 1.32 1.98 2 3 C0.8553125 2.938125 0.8553125 2.938125 -0.3125 2.875 C-3.22718416 2.77919176 -3.22718416 2.77919176 -6 5 C-9.1875 5.125 -9.1875 5.125 -12 5 C-12 4.01 -12 3.02 -12 2 C-7.86420399 0.42445866 -4.43757643 -0.50427005 0 0 Z " fill="#B7B7B7" transform="translate(92,65)"/>
<path d="M0 0 C2.5 1.375 2.5 1.375 5 3 C5 3.66 5 4.32 5 5 C3.02 5 1.04 5 -1 5 C-0.34 7.97 0.32 10.94 1 14 C0.34 13.67 -0.32 13.34 -1 13 C-1 12.01 -1 11.02 -1 10 C-1.66 10 -2.32 10 -3 10 C-3.36923077 3.47692308 -3.36923077 3.47692308 -1.5 1.0625 C-1.005 0.711875 -0.51 0.36125 0 0 Z " fill="#7E7E7E" transform="translate(27,61)"/>
<path d="M0 0 C0 0.66 0 1.32 0 2 C-5.61 2 -11.22 2 -17 2 C-17 1.34 -17 0.68 -17 0 C-11.06390334 -0.89316269 -5.93024803 -0.97040422 0 0 Z " fill="#D1D1D1" transform="translate(107,40)"/>
<path d="M0 0 C1.65 0 3.3 0 5 0 C4.01 1.485 4.01 1.485 3 3 C5.475 3.99 5.475 3.99 8 5 C8 5.66 8 6.32 8 7 C5.03 7 2.06 7 -1 7 C-1 6.01 -1 5.02 -1 4 C-0.34 4 0.32 4 1 4 C0.67 2.68 0.34 1.36 0 0 Z " fill="#BCBCBC" transform="translate(100,82)"/>
<path d="M0 0 C0.99 0 1.98 0 3 0 C3 2.31 3 4.62 3 7 C2.01 6.67 1.02 6.34 0 6 C0 5.34 0 4.68 0 4 C-0.66 4 -1.32 4 -2 4 C-2.66 5.32 -3.32 6.64 -4 8 C-4.33 6.35 -4.66 4.7 -5 3 C-4.01 2.34 -3.02 1.68 -2 1 C-1.34 1.33 -0.68 1.66 0 2 C0 1.34 0 0.68 0 0 Z " fill="#B7B7B7" transform="translate(26,80)"/>
<path d="M0 0 C3.96 0 7.92 0 12 0 C12 0.33 12 0.66 12 1 C10.02 1 8.04 1 6 1 C6 1.66 6 2.32 6 3 C6.99 3.33 7.98 3.66 9 4 C3.58461538 5.23076923 3.58461538 5.23076923 0.625 4.0625 C0.08875 3.711875 -0.4475 3.36125 -1 3 C-0.67 2.01 -0.34 1.02 0 0 Z " fill="#A0A0A0" transform="translate(49,72)"/>
<path d="M0 0 C1.65 0 3.3 0 5 0 C5 0.66 5 1.32 5 2 C5.66 2.33 6.32 2.66 7 3 C6.67 3.66 6.34 4.32 6 5 C6.66 5.33 7.32 5.66 8 6 C5.36 6 2.72 6 0 6 C0 4.02 0 2.04 0 0 Z " fill="#7D7D7D" transform="translate(17,69)"/>
<path d="M0 0 C2.31 0 4.62 0 7 0 C6.67 2.31 6.34 4.62 6 7 C4.02 7 2.04 7 0 7 C0.66 5.02 1.32 3.04 2 1 C1.34 0.67 0.68 0.34 0 0 Z " fill="#909090" transform="translate(64,52)"/>
<path d="M0 0 C4.62 0 9.24 0 14 0 C14.33 0.99 14.66 1.98 15 3 C13.06318839 3.08107583 11.1254066 3.13922475 9.1875 3.1875 C8.10855469 3.22230469 7.02960938 3.25710937 5.91796875 3.29296875 C3 3 3 3 0 0 Z " fill="#B6B6B6" transform="translate(79,44)"/>
<path d="M0 0 C0.99 0.33 1.98 0.66 3 1 C2.01 2.485 2.01 2.485 1 4 C6.94 4 12.88 4 19 4 C14.50960837 6.24519581 11.55712737 6.04965789 6.75 5.625 C6.00492188 5.56828125 5.25984375 5.5115625 4.4921875 5.453125 C2.66064892 5.31223742 0.83018648 5.15748116 -1 5 C-0.67 3.35 -0.34 1.7 0 0 Z " fill="#DEDEDE" transform="translate(50,64)"/>
<path d="M0 0 C3 4.5 3 4.5 3 8 C0.03 8 -2.94 8 -6 8 C-6.33 7.34 -6.66 6.68 -7 6 C-5.5459375 5.62875 -5.5459375 5.62875 -4.0625 5.25 C-2.5465625 4.63125 -2.5465625 4.63125 -1 4 C-0.03122943 1.96756452 -0.03122943 1.96756452 0 0 Z " fill="#727272" transform="translate(57,52)"/>
<path d="M0 0 C1.32 0 2.64 0 4 0 C4 2.64 4 5.28 4 8 C2.68 8 1.36 8 0 8 C0 5.36 0 2.72 0 0 Z " fill="#929292" transform="translate(10,55)"/>
<path d="M0 0 C3 1 3 1 5 5 C2.03 5 -0.94 5 -4 5 C-3.67 3.68 -3.34 2.36 -3 1 C-2.34 1 -1.68 1 -1 1 C-0.67 0.67 -0.34 0.34 0 0 Z " fill="#BFBFBF" transform="translate(94,79)"/>
<path d="M0 0 C0.99 0 1.98 0 3 0 C3 1.98 3 3.96 3 6 C1.35 5.67 -0.3 5.34 -2 5 C-2 6.32 -2 7.64 -2 9 C-2.99 8.67 -3.98 8.34 -5 8 C-3.69955017 5.09899654 -2.29101554 3.18687847 0 1 C0 0.67 0 0.34 0 0 Z " fill="#9E9E9E" transform="translate(38,58)"/>
<path d="M0 0 C0.99 0.33 1.98 0.66 3 1 C3.33 2.65 3.66 4.3 4 6 C3.34 6 2.68 6 2 6 C2 6.99 2 7.98 2 9 C0.68 8.67 -0.64 8.34 -2 8 C-1.34 5.36 -0.68 2.72 0 0 Z " fill="#696969" transform="translate(94,53)"/>
<path d="M0 0 C3.3 0.33 6.6 0.66 10 1 C9.67 1.99 9.34 2.98 9 4 C6.03 4 3.06 4 0 4 C0 2.68 0 1.36 0 0 Z " fill="#7D7D7D" transform="translate(60,35)"/>
<path d="M0 0 C2.31 0 4.62 0 7 0 C6.34 1.65 5.68 3.3 5 5 C2.36 5 -0.28 5 -3 5 C-1.68 4.67 -0.36 4.34 1 4 C0.67 2.68 0.34 1.36 0 0 Z " fill="#959595" transform="translate(92,90)"/>
<path d="M0 0 C2.64 0 5.28 0 8 0 C8 1.98 8 3.96 8 6 C7.01 6.495 7.01 6.495 6 7 C5.7525 6.360625 5.505 5.72125 5.25 5.0625 C4.18437567 2.81258459 4.18437567 2.81258459 1.875 2.25 C0.946875 2.12625 0.946875 2.12625 0 2 C0 1.34 0 0.68 0 0 Z " fill="#626262" transform="translate(101,93)"/>
<path d="M0 0 C1.65 0 3.3 0 5 0 C5 1.98 5 3.96 5 6 C3.68 6 2.36 6 1 6 C0.67 6.66 0.34 7.32 0 8 C0 5.36 0 2.72 0 0 Z " fill="#B4B4B4" transform="translate(69,71)"/>
<path d="M0 0 C0.66 0 1.32 0 2 0 C2.33 1.65 2.66 3.3 3 5 C0.23735711 5.59732819 -2.16032769 6 -5 6 C-5.33 4.35 -5.66 2.7 -6 1 C-5.01 1.99 -4.02 2.98 -3 4 C-2.54625 3.34 -2.0925 2.68 -1.625 2 C-1.08875 1.34 -0.5525 0.68 0 0 Z " fill="#6A6A6A" transform="translate(139,60)"/>
<path d="M0 0 C1.65 0 3.3 0 5 0 C3.375 5.75 3.375 5.75 0 8 C0 5.36 0 2.72 0 0 Z " fill="#BCBCBC" transform="translate(48,48)"/>
<path d="M0 0 C2.64 0 5.28 0 8 0 C8 0.99 8 1.98 8 3 C5.03 3 2.06 3 -1 3 C-0.67 2.01 -0.34 1.02 0 0 Z " fill="#757575" transform="translate(72,36)"/>
<path d="M0 0 C4.29 0 8.58 0 13 0 C13 0.33 13 0.66 13 1 C9.7 1 6.4 1 3 1 C3 1.99 3 2.98 3 4 C1.68 4 0.36 4 -1 4 C-0.67 2.68 -0.34 1.36 0 0 Z " fill="#C4C4C4" transform="translate(76,90)"/>
<path d="M0 0 C1.9375 0.8125 1.9375 0.8125 4 2 C4.33 2.99 4.66 3.98 5 5 C2.36 5.33 -0.28 5.66 -3 6 C-3 5.01 -3 4.02 -3 3 C-2.34 3 -1.68 3 -1 3 C-0.67 2.01 -0.34 1.02 0 0 Z " fill="#CBCBCB" transform="translate(119,84)"/>
<path d="M0 0 C1.26237731 2.52475462 1.09856404 4.31200466 1.0625 7.125 C1.05347656 8.03507812 1.04445312 8.94515625 1.03515625 9.8828125 C1.02355469 10.58148438 1.01195312 11.28015625 1 12 C0.01 12 -0.98 12 -2 12 C-2.28571429 3.42857143 -2.28571429 3.42857143 0 0 Z " fill="#A1A1A1" transform="translate(145,67)"/>
<path d="M0 0 C0.33 1.32 0.66 2.64 1 4 C0.34 4 -0.32 4 -1 4 C-0.67 5.32 -0.34 6.64 0 8 C-1.32 8.33 -2.64 8.66 -4 9 C-4.25 6.75 -4.25 6.75 -4 4 C-2 1.6875 -2 1.6875 0 0 Z " fill="#BEBEBE" transform="translate(91,51)"/>
<path d="M0 0 C2.31 0 4.62 0 7 0 C7.33 1.32 7.66 2.64 8 4 C5.69 4 3.38 4 1 4 C0.67 2.68 0.34 1.36 0 0 Z " fill="#ABABAB" transform="translate(47,79)"/>
<path d="M0 0 C0 1.32 0 2.64 0 4 C0.66 4.33 1.32 4.66 2 5 C-0.31 5 -2.62 5 -5 5 C-5 3.68 -5 2.36 -5 1 C-2 0 -2 0 0 0 Z " fill="#BFBFBF" transform="translate(118,68)"/>
<path d="M0 0 C1.32 0.66 2.64 1.32 4 2 C3.01 2.495 3.01 2.495 2 3 C2 3.99 2 4.98 2 6 C-0.64 6 -3.28 6 -6 6 C-6 5.67 -6 5.34 -6 5 C-4.35 5 -2.7 5 -1 5 C-0.67 3.35 -0.34 1.7 0 0 Z " fill="#3E3E3E" transform="translate(67,58)"/>
<path d="M0 0 C-0.33 0.66 -0.66 1.32 -1 2 C-1.99 2 -2.98 2 -4 2 C-4.33 3.32 -4.66 4.64 -5 6 C-5.66 5.67 -6.32 5.34 -7 5 C-6.67 4.01 -6.34 3.02 -6 2 C-6.99 2.33 -7.98 2.66 -9 3 C-8.67 2.01 -8.34 1.02 -8 0 C-5.04215769 -1.22393475 -3.00272755 -0.96516243 0 0 Z " fill="#464646" transform="translate(138,59)"/>
<path d="M0 0 C0.66 0 1.32 0 2 0 C1.67 1.65 1.34 3.3 1 5 C1.66 5.33 2.32 5.66 3 6 C2.34 6 1.68 6 1 6 C1.33 6.99 1.66 7.98 2 9 C0.35 8.67 -1.3 8.34 -3 8 C-2.34 7.67 -1.68 7.34 -1 7 C-0.59270772 4.67843403 -0.25561323 2.3431213 0 0 Z " fill="#828282" transform="translate(86,52)"/>
<path d="M0 0 C0.99 0.33 1.98 0.66 3 1 C2.67 2.98 2.34 4.96 2 7 C1.34 7 0.68 7 0 7 C0 6.34 0 5.68 0 5 C-0.66 5 -1.32 5 -2 5 C-2 4.34 -2 3.68 -2 3 C-1.34 3 -0.68 3 0 3 C0 2.01 0 1.02 0 0 Z " fill="#CFCFCF" transform="translate(124,66)"/>
<path d="M0 0 C0.66 0 1.32 0 2 0 C2.33 1.65 2.66 3.3 3 5 C2.01 5.33 1.02 5.66 0 6 C-0.99 5.01 -1.98 4.02 -3 3 C-2.01 2.67 -1.02 2.34 0 2 C0 1.34 0 0.68 0 0 Z " fill="#C9C9C9" transform="translate(24,58)"/>
<path d="M0 0 C3.3 0 6.6 0 10 0 C10 0.66 10 1.32 10 2 C8.906875 1.979375 7.81375 1.95875 6.6875 1.9375 C3.05615809 1.81455548 3.05615809 1.81455548 0 3 C0 2.01 0 1.02 0 0 Z " fill="#6F6F6F" transform="translate(18,97)"/>
<path d="M0 0 C1 3 1 3 1 5 C-0.98 5 -2.96 5 -5 5 C-4.67 3.68 -4.34 2.36 -4 1 C-2.68 0.67 -1.36 0.34 0 0 Z " fill="#A2A2A2" transform="translate(75,79)"/>
<path d="M0 0 C2.97 0.495 2.97 0.495 6 1 C6 5 6 5 5 7 C3.5 5.625 3.5 5.625 2 4 C2 3.34 2 2.68 2 2 C1.34 2 0.68 2 0 2 C0 1.34 0 0.68 0 0 Z " fill="#A9A9A9" transform="translate(54,76)"/>
<path d="M0 0 C0.99 0.66 1.98 1.32 3 2 C2.67 3.98 2.34 5.96 2 8 C1.67 6.68 1.34 5.36 1 4 C-0.32 4 -1.64 4 -3 4 C-2.67 3.01 -2.34 2.02 -2 1 C-1.34 0.67 -0.68 0.34 0 0 Z " fill="#D1D1D1" transform="translate(89,67)"/>
<path d="M0 0 C0.66 0 1.32 0 2 0 C2.66 1.32 3.32 2.64 4 4 C3 5 3 5 0.4375 5.0625 C-0.7690625 5.0315625 -0.7690625 5.0315625 -2 5 C-1.125 1.125 -1.125 1.125 0 0 Z " fill="#8F8F8F" transform="translate(101,34)"/>
<path d="M0 0 C2.31 0 4.62 0 7 0 C6.67 0.99 6.34 1.98 6 3 C4.02 3.33 2.04 3.66 0 4 C0 2.68 0 1.36 0 0 Z " fill="#999999" transform="translate(55,91)"/>
<path d="M0 0 C0.66 0 1.32 0 2 0 C1.67 1.32 1.34 2.64 1 4 C-2.11227195 4 -4.94152152 3.54372951 -8 3 C-5 1 -5 1 -2.3125 1.375 C-1.549375 1.58125 -0.78625 1.7875 0 2 C0 1.34 0 0.68 0 0 Z " fill="#B6B6B6" transform="translate(120,73)"/>
<path d="M0 0 C-0.99 0.66 -1.98 1.32 -3 2 C-3 2.66 -3 3.32 -3 4 C-4.98 4 -6.96 4 -9 4 C-9 3.34 -9 2.68 -9 2 C-5.5647952 -0.29013653 -4.014669 -0.17842973 0 0 Z " fill="#A8A8A8" transform="translate(110,64)"/>
<path d="M0 0 C2.875 -0.1875 2.875 -0.1875 6 0 C6.66 0.99 7.32 1.98 8 3 C5.33333333 3 2.66666667 3 0 3 C0 2.01 0 1.02 0 0 Z " fill="#A4A4A4" transform="translate(86,65)"/>
<path d="M0 0 C0 0.33 0 0.66 0 1 C-3.96 1 -7.92 1 -12 1 C-7.03483464 -2.31011024 -5.70515444 -1.79606714 0 0 Z " fill="#868686" transform="translate(96,63)"/>
<path d="M0 0 C0.66 0.33 1.32 0.66 2 1 C1.67 2.65 1.34 4.3 1 6 C0.01 6 -0.98 6 -2 6 C-1.125 1.125 -1.125 1.125 0 0 Z " fill="#797979" transform="translate(57,34)"/>
<path d="M0 0 C0 1.32 0 2.64 0 4 C-2.31 3.67 -4.62 3.34 -7 3 C-3.375 0 -3.375 0 0 0 Z " fill="#DDDDDD" transform="translate(109,83)"/>
<path d="M0 0 C1.32 0 2.64 0 4 0 C4 0.66 4 1.32 4 2 C4.66 2 5.32 2 6 2 C6.33 1.34 6.66 0.68 7 0 C7 0.99 7 1.98 7 3 C2.25 4.125 2.25 4.125 0 3 C0 2.01 0 1.02 0 0 Z " fill="#BABABA" transform="translate(140,80)"/>
<path d="M0 0 C0.33 0.99 0.66 1.98 1 3 C1.66 3 2.32 3 3 3 C2.67 3.99 2.34 4.98 2 6 C0.02 5.34 -1.96 4.68 -4 4 C-4 3.34 -4 2.68 -4 2 C-2.68 2 -1.36 2 0 2 C0 1.34 0 0.68 0 0 Z " fill="#BFBFBF" transform="translate(126,71)"/>
<path d="M0 0 C2.64 0 5.28 0 8 0 C7.67 0.99 7.34 1.98 7 3 C4.69 2.67 2.38 2.34 0 2 C0 1.34 0 0.68 0 0 Z " fill="#D8D8D8" transform="translate(92,69)"/>
<path d="M0 0 C0.99 0 1.98 0 3 0 C3.33 1.65 3.66 3.3 4 5 C2.68 5 1.36 5 0 5 C0 3.35 0 1.7 0 0 Z " fill="#898989" transform="translate(121,61)"/>
<path d="M0 0 C0.33 1.32 0.66 2.64 1 4 C0.01 4.66 -0.98 5.32 -2 6 C-2.99 5.67 -3.98 5.34 -5 5 C-4.34 5 -3.68 5 -3 5 C-3.33 4.01 -3.66 3.02 -4 2 C-3.34 1.67 -2.68 1.34 -2 1 C-1.34 1.33 -0.68 1.66 0 2 C0 1.34 0 0.68 0 0 Z " fill="#999999" transform="translate(56,52)"/>
<path d="M0 0 C0 1.65 0 3.3 0 5 C-0.99 5.33 -1.98 5.66 -3 6 C-3.33 4.35 -3.66 2.7 -4 1 C-1 0 -1 0 0 0 Z " fill="#4B4B4B" transform="translate(110,50)"/>
<path d="M0 0 C0.99 0 1.98 0 3 0 C2.67 1.98 2.34 3.96 2 6 C1.01 6.33 0.02 6.66 -1 7 C-1.33 6.01 -1.66 5.02 -2 4 C-1.34 4 -0.68 4 0 4 C0 2.68 0 1.36 0 0 Z " fill="#565656" transform="translate(92,51)"/>
<path d="M0 0 C0.33 0 0.66 0 1 0 C1 1.98 1 3.96 1 6 C2.32 6.33 3.64 6.66 5 7 C3.02 7.33 1.04 7.66 -1 8 C-1.33 7.01 -1.66 6.02 -2 5 C-1.34 5 -0.68 5 0 5 C0 3.35 0 1.7 0 0 Z " fill="#C0C0C0" transform="translate(69,92)"/>
<path d="M0 0 C2.64 0 5.28 0 8 0 C7.67 0.99 7.34 1.98 7 3 C4.69 2.67 2.38 2.34 0 2 C0 1.34 0 0.68 0 0 Z " fill="#959595" transform="translate(101,90)"/>
<path d="M0 0 C0.99 0 1.98 0 3 0 C3 0.99 3 1.98 3 3 C4.32 3.33 5.64 3.66 7 4 C4.69 4 2.38 4 0 4 C0 2.68 0 1.36 0 0 Z " fill="#B9B9B9" transform="translate(91,85)"/>
<path d="M0 0 C2.475 0.495 2.475 0.495 5 1 C5 1.99 5 2.98 5 4 C3.02 4.99 3.02 4.99 1 6 C0.67 5.01 0.34 4.02 0 3 C0.66 3 1.32 3 2 3 C2 2.34 2 1.68 2 1 C1.34 0.67 0.68 0.34 0 0 Z " fill="#818181" transform="translate(45,74)"/>
<path d="M0 0 C0.33 0.66 0.66 1.32 1 2 C1.66 2 2.32 2 3 2 C3 2.66 3 3.32 3 4 C0.69 4 -1.62 4 -4 4 C-4 3.34 -4 2.68 -4 2 C-2.68 1.34 -1.36 0.68 0 0 Z " fill="#B5B5B5" transform="translate(85,75)"/>
</svg>
